<svg width="924" height="304" viewBox="0 0 924 304" xmlns="http://www.w3.org/2000/svg"><path d="M15 288a1 1 0 011 1v14a1 1 0 01-1 1H1a1 1 0 01-1-1v-14a1 1 0 011-1h14zm236 0a3 3 0 013 3v10a3 3 0 01-3 3H140a3 3 0 01-3-3v-10a3 3 0 013-3h111zm98 0a3 3 0 013 3v10a3 3 0 01-3 3h-52a3 3 0 01-3-3v-10a3 3 0 013-3h52zm296 0a3 3 0 013 3v10a3 3 0 01-3 3H470a3 3 0 01-3-3v-10a3 3 0 013-3h175zm276 0a3 3 0 013 3v10a3 3 0 01-3 3h-45a3 3 0 01-3-3v-10a3 3 0 013-3h45zM15 240a1 1 0 011 1v14a1 1 0 01-1 1H1a1 1 0 01-1-1v-14a1 1 0 011-1h14zm608 0a3 3 0 013 3v10a3 3 0 01-3 3H470a3 3 0 01-3-3v-10a3 3 0 013-3h153zm-382 0a3 3 0 013 3v10a3 3 0 01-3 3H140a3 3 0 01-3-3v-10a3 3 0 013-3h101zm680 0a3 3 0 013 3v10a3 3 0 01-3 3h-45a3 3 0 01-3-3v-10a3 3 0 013-3h45zm-592 0a3 3 0 013 3v10a3 3 0 01-3 3h-32a3 3 0 01-3-3v-10a3 3 0 013-3h32zM15 192a1 1 0 011 1v14a1 1 0 01-1 1H1a1 1 0 01-1-1v-14a1 1 0 011-1h14zm239 0a3 3 0 013 3v10a3 3 0 01-3 3H140a3 3 0 01-3-3v-10a3 3 0 013-3h114zm79 0a3 3 0 013 3v10a3 3 0 01-3 3h-36a3 3 0 01-3-3v-10a3 3 0 013-3h36zm305 0a3 3 0 013 3v10a3 3 0 01-3 3H470a3 3 0 01-3-3v-10a3 3 0 013-3h168zm283 0a3 3 0 013 3v10a3 3 0 01-3 3h-50a3 3 0 01-3-3v-10a3 3 0 013-3h50zM15 144a1 1 0 011 1v14a1 1 0 01-1 1H1a1 1 0 01-1-1v-14a1 1 0 011-1h14zm321 0a3 3 0 013 3v10a3 3 0 01-3 3h-39a3 3 0 01-3-3v-10a3 3 0 013-3h39zm316 0a3 3 0 013 3v10a3 3 0 01-3 3H470a3 3 0 01-3-3v-10a3 3 0 013-3h182zm269 0a3 3 0 013 3v10a3 3 0 01-3 3h-54a3 3 0 01-3-3v-10a3 3 0 013-3h54zm-654 0a3 3 0 013 3v10a3 3 0 01-3 3H140a3 3 0 01-3-3v-10a3 3 0 013-3h127zm73-48a3 3 0 013 3v10a3 3 0 01-3 3h-43a3 3 0 01-3-3V99a3 3 0 013-3h43zm327 0a3 3 0 013 3v10a3 3 0 01-3 3H470a3 3 0 01-3-3V99a3 3 0 013-3h197zm254 0a3 3 0 013 3v10a3 3 0 01-3 3h-59a3 3 0 01-3-3V99a3 3 0 013-3h59zM15 96a1 1 0 011 1v14a1 1 0 01-1 1H1a1 1 0 01-1-1V97a1 1 0 011-1h14zm239 0a3 3 0 013 3v10a3 3 0 01-3 3H140a3 3 0 01-3-3V99a3 3 0 013-3h114zM15 48a1 1 0 011 1v14a1 1 0 01-1 1H1a1 1 0 01-1-1V49a1 1 0 011-1h14zm239 0a3 3 0 013 3v10a3 3 0 01-3 3H140a3 3 0 01-3-3V51a3 3 0 013-3h114zm89 0a3 3 0 013 3v10a3 3 0 01-3 3h-46a3 3 0 01-3-3V51a3 3 0 013-3h46zm338 0a3 3 0 013 3v10a3 3 0 01-3 3H470a3 3 0 01-3-3V51a3 3 0 013-3h211zm240 0a3 3 0 013 3v10a3 3 0 01-3 3h-63a3 3 0 01-3-3V51a3 3 0 013-3h63zM15 0a1 1 0 011 1v14a1 1 0 01-1 1H1a1 1 0 01-1-1V1a1 1 0 011-1h14zm226 0a3 3 0 013 3v10a3 3 0 01-3 3H140a3 3 0 01-3-3V3a3 3 0 013-3h101zm108 0a3 3 0 013 3v10a3 3 0 01-3 3h-52a3 3 0 01-3-3V3a3 3 0 013-3h52zm356 0a3 3 0 013 3v10a3 3 0 01-3 3H470a3 3 0 01-3-3V3a3 3 0 013-3h235zm216 0a3 3 0 013 3v10a3 3 0 01-3 3h-71a3 3 0 01-3-3V3a3 3 0 013-3h71z" fill="#354055" fill-rule="evenodd" opacity=".4"/></svg>