<?xml version="1.0" encoding="UTF-8"?>
<svg width="99px" height="47px" viewBox="0 0 99 47" version="1.1" xmlns="http://www.w3.org/2000/svg" xmlns:xlink="http://www.w3.org/1999/xlink">
    <!-- Generator: Sketch 60.1 (88133) - https://sketch.com -->
    <title>endorphina</title>
    <desc>Created with Sketch.</desc>
    <defs>
        <linearGradient x1="100%" y1="35.1816196%" x2="0%" y2="64.8183804%" id="linearGradient-1">
            <stop stop-color="#FFB124" offset="0%"></stop>
            <stop stop-color="#FFB124" stop-opacity="0.5" offset="100%"></stop>
        </linearGradient>
        <linearGradient x1="0%" y1="35.1781202%" x2="100%" y2="64.8218798%" id="linearGradient-2">
            <stop stop-color="#FFB124" stop-opacity="0.500737544" offset="0%"></stop>
            <stop stop-color="#FFB124" offset="100%"></stop>
        </linearGradient>
    </defs>
    <g id="design" stroke="none" stroke-width="1" fill="none" fill-rule="evenodd">
        <g id="main" transform="translate(-418.000000, -160.000000)" fill-rule="nonzero">
            <g id="endorphina" transform="translate(418.000000, 160.000000)">
                <path d="M7.65224137,15.3806497 L18.6710627,20.5143033 C18.412095,20.3416582 13.1718076,16.8125887 11.5570679,14.0197999 C9.89662802,11.1609997 10.0184952,9.04355798 11.4199674,6.99720545 C12.8265174,4.95085291 16.2946533,3.66109226 21.5755631,4.00130471 C26.8564729,4.34151717 32.6654736,5.94102349 37.0222242,9.86616124 C37.0222242,9.86616124 33.3052761,3.25994622 23.8453387,1.4116278 C14.3854013,-0.436690616 7.1038392,3.29041301 2.90957817,7.1139948 C1.79754044,8.12955437 1.22374928,9.09433596 1.03587076,10.0184952 C1.11711553,12.836673 7.65224137,15.3806497 7.65224137,15.3806497 Z" id="Path" fill="url(#linearGradient-1)"></path>
                <path d="M11.4199674,40.9422841 C10.0134174,38.8959316 9.89662802,36.7784899 11.5570679,33.9196897 C13.2175078,31.0608895 18.6812183,27.4201084 18.6812183,27.4201084 L7.65224137,32.5588399 C7.65224137,32.5588399 1.11203773,35.1078944 1.03079297,37.9209944 C1.21867149,38.8451536 1.79246264,39.8099352 2.90450037,40.8254948 C7.1038392,44.6490766 14.3803235,48.3761802 23.8402609,46.5278618 C33.3052761,44.6846211 37.0222242,38.0733283 37.0222242,38.0733283 C32.6654736,41.9933883 26.8564729,43.5979724 21.5755631,43.9381849 C16.2946533,44.2733195 12.8265174,42.9886367 11.4199674,40.9422841 Z" id="Path" fill="url(#linearGradient-2)"></path>
                <path d="M7.65224137,32.5588399 L18.6812183,27.4201084 C18.6812183,27.4201084 21.8142196,25.7444351 21.8142196,24.0839952 C21.8142196,24.0484507 21.8142196,24.0078283 21.8091418,23.9722837 C21.8091418,23.9367391 21.8142196,23.8961167 21.8142196,23.8605721 C21.8142196,22.2001322 18.6812183,20.5244589 18.6812183,20.5244589 C18.6812183,20.5244589 18.6761405,20.5193811 18.6710627,20.5193811 L7.65224137,15.3857275 C7.65224137,15.3857275 1.11711553,12.8417508 1.03079297,10.0286508 C0.507779786,12.5878609 2.92988936,14.796703 4.93561952,16.6856438 C7.61161899,19.2143871 8.79982369,21.7228192 8.7795125,23.9773615 C8.79982369,26.2319037 7.61161899,28.7403359 4.93561952,31.2690792 C2.93496716,33.15802 0.507779786,35.3719399 1.03079297,37.9260722 C1.11711553,35.1028166 7.65224137,32.5588399 7.65224137,32.5588399 Z" id="Path" fill="#FFB124"></path>
                <path d="M30.892126,20.8746784 C31.3416016,20.8746784 31.7507939,20.9425238 32.1197031,21.0782145 C32.4886122,21.2139052 32.8066374,21.40048 33.0737785,21.6379388 C33.3409196,21.8753975 33.5486961,22.1595 33.6971078,22.4902461 C33.8455195,22.8209923 33.9197254,23.1814208 33.9197254,23.5715316 C33.9197254,23.8598744 33.839159,24.0803719 33.6780263,24.2330239 C33.5168935,24.385676 33.2921558,24.4832037 33.003813,24.5256071 L33.003813,24.5256071 L29.8617245,24.9962843 L29.9076759,25.1119416 C30.0115209,25.334689 30.1870188,25.5060332 30.4341698,25.6259741 C30.7225126,25.7659051 31.0532588,25.8358707 31.4264083,25.8358707 C31.7741157,25.8358707 32.1027417,25.7913472 32.4122862,25.7023001 C32.7218307,25.6132531 32.9741306,25.5093649 33.1691861,25.3906355 C33.3048768,25.4754422 33.4193658,25.5941716 33.5126532,25.7468236 C33.6059406,25.8994757 33.6525843,26.0606084 33.6525843,26.2302219 C33.6525843,26.611852 33.4744902,26.8959545 33.118302,27.0825292 C32.8469206,27.2267006 32.5416164,27.3242284 32.2023896,27.3751124 C31.8631628,27.4259964 31.5451376,27.4514384 31.2483142,27.4514384 C30.7479546,27.4514384 30.2836379,27.3814729 29.855364,27.2415418 C29.4270902,27.1016108 29.0539407,26.8917142 28.7359155,26.611852 C28.4178904,26.3319899 28.1677106,25.9800421 27.9853762,25.5560085 C27.8030418,25.131975 27.7118746,24.6358558 27.7118746,24.0676509 C27.7118746,23.5079266 27.8030418,23.0266486 27.9853762,22.6238167 C28.1677106,22.2209849 28.4072895,21.8902387 28.704113,21.6315783 C29.0009365,21.3729178 29.3401633,21.1821027 29.7217935,21.059133 C30.1034237,20.9361633 30.4935345,20.8746784 30.892126,20.8746784 Z M30.892126,22.4520831 C30.6885899,22.4520831 30.512616,22.4860058 30.3642043,22.5538512 C30.2157925,22.6216965 30.094943,22.7086234 30.0016556,22.8146318 C29.9083682,22.9206402 29.8384027,23.0393696 29.791759,23.17082 C29.7451153,23.3022703 29.7175531,23.4358409 29.7090725,23.5715316 L29.7090725,23.5715316 L31.8843645,23.2153435 L31.8609578,23.1135754 C31.8188937,22.9778847 31.7334085,22.842194 31.6045023,22.7065032 C31.4433696,22.5368898 31.2059108,22.4520831 30.892126,22.4520831 Z" id="Path" fill="#FFB124"></path>
                <path d="M40.5664881,27.3496704 C40.7615436,27.3496704 40.9502385,27.3369494 41.1325729,27.3115074 C41.3149073,27.2860653 41.4484779,27.2606233 41.5332846,27.2351813 L41.5332846,27.2351813 L41.5332846,23.2535065 C41.5332846,22.5072075 41.2746241,21.9241614 40.7573032,21.5043682 C40.2399823,21.084575 39.502164,20.8746784 38.5438482,20.8746784 C38.009566,20.8746784 37.5240476,20.9382834 37.087293,21.0654935 C36.6505385,21.1927035 36.2879898,21.3580766 35.999647,21.5616127 C35.8300336,21.6803421 35.6964631,21.8117925 35.5989354,21.9559639 C35.5014077,22.1001353 35.4526438,22.2867101 35.4526438,22.5156882 L35.4526438,22.5156882 L35.4526438,26.3319899 C35.4526438,26.5440067 35.480206,26.7157402 35.5353303,26.8471906 C35.5904547,26.978641 35.6689009,27.0825292 35.7706689,27.1588553 C35.872437,27.2351813 35.9975269,27.2860653 36.1459386,27.3115074 C36.2943503,27.3369494 36.4618436,27.3496704 36.6484183,27.3496704 C36.8434738,27.3496704 37.0321687,27.3369494 37.2145031,27.3115074 C37.3968375,27.2860653 37.5304081,27.2606233 37.6152148,27.2351813 L37.6152148,27.2351813 L37.6152148,22.8209923 C37.7339442,22.7361856 37.8759954,22.6725806 38.0413685,22.6301772 C38.2067416,22.5877739 38.3742348,22.5665722 38.5438482,22.5665722 C38.7982683,22.5665722 38.9996843,22.628057 39.148096,22.7510268 C39.2965077,22.8739965 39.3707136,23.0669317 39.3707136,23.3298325 L39.3707136,23.3298325 L39.3707136,26.3319899 C39.3707136,26.5440067 39.3982758,26.7157402 39.4534001,26.8471906 C39.5085245,26.978641 39.5869707,27.0825292 39.6887387,27.1588553 C39.7905068,27.2351813 39.9155967,27.2860653 40.0640084,27.3115074 C40.2124201,27.3369494 40.3799134,27.3496704 40.5664881,27.3496704 Z" id="Path" fill="#FFB124"></path>
                <path d="M48.2818154,18.8393175 C48.4683901,18.8393175 48.6358834,18.8520385 48.7842951,18.8774805 C48.9327068,18.9029225 49.0577967,18.9538065 49.1595648,19.0301326 C49.2613328,19.1064586 49.3376588,19.2103468 49.3885429,19.3417972 C49.4394269,19.4732476 49.4648689,19.6449812 49.4648689,19.8569979 L49.4648689,19.8569979 L49.4648689,25.8867547 L49.4579587,26.0166346 C49.4211045,26.3550238 49.2368331,26.6297557 48.9051447,26.8408301 C48.6592052,27.0019629 48.3411801,27.1440141 47.9510692,27.2669838 C47.5609584,27.3899536 47.1114828,27.4514384 46.6026426,27.4514384 C46.051399,27.4514384 45.5574,27.3751124 45.1206454,27.2224603 C44.6838909,27.0698082 44.3149817,26.8493108 44.0139179,26.560968 C43.7128541,26.2726252 43.483876,25.9270379 43.3269836,25.524206 C43.1700912,25.1213742 43.091645,24.6655381 43.091645,24.1566979 C43.091645,23.5969737 43.1764517,23.1114553 43.3460651,22.7001427 C43.5156785,22.2888302 43.7510171,21.9474832 44.0520809,21.6761018 C44.3531447,21.4047203 44.7050926,21.2033044 45.1079244,21.071854 C45.5107563,20.9404036 45.9453906,20.8746784 46.4118275,20.8746784 C46.5814409,20.8746784 46.746814,20.8895196 46.9079467,20.9192019 C47.0690795,20.9488843 47.2005299,20.9849271 47.3022979,21.0273305 L47.3022979,21.0273305 L47.3022979,18.9665275 L47.3754437,18.9470485 C47.4581302,18.9271719 47.569439,18.9061028 47.7093701,18.883841 C47.8959449,18.8541586 48.0867599,18.8393175 48.2818154,18.8393175 Z M46.7044106,22.5665722 C46.2464544,22.5665722 45.8945066,22.6980226 45.6485672,22.9609234 C45.4026277,23.2238241 45.279658,23.6224157 45.279658,24.1566979 C45.279658,24.6824995 45.394147,25.0789708 45.6231251,25.346112 C45.8521033,25.6132531 46.1828494,25.7468236 46.6153636,25.7468236 C46.7680157,25.7468236 46.9058266,25.7235018 47.0287963,25.6768581 C47.151766,25.6302144 47.2471736,25.5772102 47.3150189,25.5178455 L47.3150189,25.5178455 L47.3150189,22.7192242 L47.2091802,22.6642695 C47.0626342,22.599138 46.8943777,22.5665722 46.7044106,22.5665722 Z" id="Path" fill="#FFB124"></path>
                <path d="M54.3688538,20.8746784 C54.8692134,20.8746784 55.3229293,20.9531246 55.7300015,21.110017 C56.1370737,21.2669094 56.4869013,21.4874069 56.7794845,21.7715093 C57.0720676,22.0556118 57.2989255,22.4011991 57.4600583,22.8082713 C57.621191,23.2153435 57.7017574,23.664819 57.7017574,24.1566979 C57.7017574,24.6824995 57.621191,25.1510565 57.4600583,25.5623691 C57.2989255,25.9736816 57.0720676,26.3192689 56.7794845,26.599131 C56.4869013,26.8789932 56.1370737,27.0910099 55.7300015,27.2351813 C55.3229293,27.3793527 54.8692134,27.4514384 54.3688538,27.4514384 C53.8684943,27.4514384 53.4147784,27.3751124 53.0077062,27.2224603 C52.600634,27.0698082 52.2508064,26.851431 51.9582232,26.5673285 C51.6656401,26.283226 51.4387822,25.9376387 51.2776494,25.5305665 C51.1165167,25.1234943 51.0359503,24.6655381 51.0359503,24.1566979 C51.0359503,23.6563383 51.1165167,23.2026225 51.2776494,22.7955503 C51.4387822,22.3884781 51.6656401,22.0428908 51.9582232,21.7587883 C52.2508064,21.4746858 52.600634,21.2563086 53.0077062,21.1036565 C53.4147784,20.9510044 53.8684943,20.8746784 54.3688538,20.8746784 Z M54.3688538,22.5665722 C54.0126657,22.5665722 53.7370439,22.7043831 53.5419885,22.9800049 C53.346933,23.2556267 53.2494053,23.6478577 53.2494053,24.1566979 C53.2494053,24.6740188 53.3490532,25.0704902 53.548349,25.346112 C53.7476447,25.6217337 54.0253867,25.7595446 54.3815749,25.7595446 C54.737763,25.7595446 55.0112646,25.6196136 55.2020797,25.3397514 C55.3928948,25.0598893 55.4883024,24.6655381 55.4883024,24.1566979 C55.4883024,23.6478577 55.3907746,23.2556267 55.1957192,22.9800049 C55.0006638,22.7043831 54.725042,22.5665722 54.3688538,22.5665722 Z" id="Path" fill="#FFB124"></path>
                <path d="M60.4431713,27.3496704 C60.6382267,27.3496704 60.8269217,27.3369494 61.0092561,27.3115074 C61.1915905,27.2860653 61.3251611,27.2606233 61.4099678,27.2351813 L61.4099678,27.2351813 L61.4099678,22.8973183 C61.5202165,22.8464343 61.653787,22.8019108 61.8106795,22.7637478 C61.9675719,22.7255848 62.1350651,22.6895419 62.3131592,22.6556192 C62.4912533,22.6216965 62.6735877,22.5962545 62.8601624,22.5792932 C63.0467372,22.5623318 63.2290716,22.5538512 63.4071657,22.5538512 C63.4580497,22.4605638 63.5004531,22.3566756 63.5343757,22.2421865 C63.5682984,22.1276975 63.5852598,22.0110883 63.5852598,21.8923589 C63.5852598,21.5361707 63.4665304,21.2796304 63.2290716,21.122738 C62.9916128,20.9658456 62.6693473,20.8873994 62.2622752,20.8873994 C62.0163357,20.8873994 61.7703963,20.9064809 61.5244568,20.9446439 C61.2785174,20.982807 61.0410586,21.0358111 60.8120805,21.1036565 C60.5831024,21.1715019 60.3689655,21.2499481 60.1696697,21.3389951 C59.9703739,21.4280422 59.8028807,21.52769 59.66719,21.6379388 C59.5314992,21.7481875 59.427611,21.8732774 59.3555253,22.0132084 C59.2834396,22.1531395 59.2473968,22.3206327 59.2473968,22.5156882 L59.2473968,22.5156882 L59.2473968,26.3319899 C59.2473968,26.5440067 59.274959,26.7157402 59.3300833,26.8471906 C59.3852077,26.978641 59.4636539,27.0825292 59.5654219,27.1588553 C59.66719,27.2351813 59.7922799,27.2860653 59.9406916,27.3115074 C60.0891033,27.3369494 60.2565966,27.3496704 60.4431713,27.3496704 Z" id="Path" fill="#FFB124"></path>
                <path d="M67.6751003,20.8746784 C68.1839406,20.8746784 68.6567379,20.9404036 69.0934925,21.071854 C69.530247,21.2033044 69.9055167,21.4047203 70.2193015,21.6761018 C70.5330863,21.9474832 70.7790258,22.2888302 70.9571198,22.7001427 C71.1352139,23.1114553 71.224261,23.601214 71.224261,24.1694189 C71.224261,24.7121818 71.1479349,25.1870994 70.9952829,25.5941716 C70.8426308,26.0012438 70.6263737,26.3425907 70.3465116,26.6182125 C70.0666494,26.8938343 69.7295428,27.0994906 69.3351916,27.2351813 C68.9408404,27.370872 68.5019657,27.4387174 68.0185675,27.4387174 C67.6538987,27.4387174 67.3146718,27.3835931 67.000887,27.2733443 L67.000887,27.2733443 L67.000887,29.3850313 L66.9277412,29.4045103 C66.8450547,29.4243869 66.7337459,29.4454561 66.5938148,29.4677178 C66.4072401,29.4974002 66.216425,29.5122414 66.0213696,29.5122414 C65.8347948,29.5122414 65.6673016,29.4995204 65.5188898,29.4740783 C65.3704781,29.4486363 65.2453882,29.3977523 65.1436202,29.3214263 C65.0418521,29.2451002 64.9655261,29.141212 64.9146421,29.0097616 C64.863758,28.8783112 64.838316,28.7065777 64.838316,28.4945609 L64.838316,28.4945609 L64.838316,22.3884781 L64.8441677,22.2561796 C64.8597721,22.0865662 64.9065854,21.944091 64.9846076,21.8287538 C65.0821353,21.6845824 65.2157059,21.553132 65.3853193,21.4344027 C65.6482201,21.2647892 65.9747259,21.1290985 66.3648367,21.0273305 C66.7549476,20.9255624 67.1917021,20.8746784 67.6751003,20.8746784 Z M67.7514264,22.5665722 C67.5902936,22.5665722 67.4461222,22.5856537 67.3189122,22.6238167 C67.1917021,22.6619797 67.0814534,22.7065032 66.988166,22.7573873 L66.988166,22.7573873 L66.988166,25.5560085 L67.092761,25.6040657 C67.1643755,25.6342192 67.2397592,25.6606035 67.3189122,25.6832186 C67.4376416,25.7171413 67.5648516,25.7341026 67.7005423,25.7341026 C68.5740514,25.7341026 69.0108059,25.2125414 69.0108059,24.1694189 C69.0108059,23.626656 68.9026774,23.2238241 68.6864203,22.9609234 C68.4701632,22.6980226 68.1584986,22.5665722 67.7514264,22.5665722 Z" id="Path" fill="#FFB124"></path>
                <path d="M77.9091867,27.3496704 C78.1042421,27.3496704 78.2929371,27.3369494 78.4752715,27.3115074 C78.6576059,27.2860653 78.7911765,27.2606233 78.8759832,27.2351813 L78.8759832,27.2351813 L78.8759832,23.3807166 C78.8759832,22.5496108 78.6406445,21.9241614 78.1699673,21.5043682 C77.6992901,21.084575 77.0441583,20.8746784 76.2045719,20.8746784 C75.9331905,20.8746784 75.6851309,20.9022406 75.4603931,20.9573649 C75.2356553,21.0124893 75.0681621,21.0612532 74.9579134,21.1036565 L74.9579134,21.1036565 L74.9579134,19.8569979 C74.9579134,19.6449812 74.9303512,19.4732476 74.8752268,19.3417972 C74.8201025,19.2103468 74.7416563,19.1064586 74.6398882,19.0301326 C74.5381202,18.9538065 74.4130303,18.9029225 74.2646185,18.8774805 C74.1162068,18.8520385 73.9487136,18.8393175 73.7621388,18.8393175 C73.5755641,18.8393175 73.3911095,18.8541586 73.2087751,18.883841 C73.0264406,18.9135233 72.8886297,18.9368452 72.7953424,18.9538065 L72.7953424,18.9538065 L72.7953424,26.3319899 C72.7953424,26.5440067 72.8229046,26.7157402 72.8780289,26.8471906 C72.9331533,26.978641 73.0115995,27.0825292 73.1133675,27.1588553 C73.2151356,27.2351813 73.3402255,27.2860653 73.4886372,27.3115074 C73.6370489,27.3369494 73.8045422,27.3496704 73.9911169,27.3496704 C74.1861723,27.3496704 74.3748673,27.3369494 74.5572017,27.3115074 C74.7395361,27.2860653 74.8731067,27.2606233 74.9579134,27.2351813 L74.9579134,27.2351813 L74.9579134,22.7828293 C75.0512007,22.7234646 75.1741705,22.6725806 75.3268225,22.6301772 C75.4794746,22.5877739 75.6406073,22.5665722 75.8102208,22.5665722 C76.0646409,22.5665722 76.2787778,22.6365377 76.4526315,22.7764688 C76.6264853,22.9163998 76.7134122,23.1602191 76.7134122,23.5079266 L76.7134122,23.5079266 L76.7134122,26.3319899 C76.7134122,26.5440067 76.7409743,26.7157402 76.7960987,26.8471906 C76.8512231,26.978641 76.9296693,27.0825292 77.0314373,27.1588553 C77.1332054,27.2351813 77.2582952,27.2860653 77.406707,27.3115074 C77.5551187,27.3369494 77.722612,27.3496704 77.9091867,27.3496704 Z" id="Path" fill="#FFB124"></path>
                <path d="M81.8336542,20.4930482 C82.1898424,20.4930482 82.476065,20.3827995 82.6923221,20.1623021 C82.9085792,19.9418046 83.0167077,19.6704232 83.0167077,19.3481577 C83.0167077,19.0258922 82.9085792,18.7545108 82.6923221,18.5340133 C82.476065,18.3135159 82.1898424,18.2032672 81.8336542,18.2032672 C81.477466,18.2032672 81.1912434,18.3135159 80.9749863,18.5340133 C80.7587292,18.7545108 80.6506007,19.0258922 80.6506007,19.3481577 C80.6506007,19.6704232 80.7587292,19.9418046 80.9749863,20.1623021 C81.1912434,20.3827995 81.477466,20.4930482 81.8336542,20.4930482 Z" id="Path" fill="#FFB124"></path>
                <path d="M81.9481433,27.3496704 C82.134718,27.3496704 82.3191726,27.3348292 82.501507,27.3051468 C82.6838414,27.2754645 82.8216523,27.2521427 82.9149397,27.2351813 L82.9149397,27.2351813 L82.9149397,22.0577319 C82.9149397,21.8457152 82.8873775,21.6739816 82.8322532,21.5425312 C82.7771288,21.4110808 82.6986826,21.3071926 82.5969146,21.2308666 C82.4951465,21.1545405 82.3700566,21.1036565 82.2216449,21.0782145 C82.0732331,21.0527725 81.9057399,21.0400515 81.7191652,21.0400515 C81.5325904,21.0400515 81.3481358,21.0548927 81.1658014,21.084575 C80.983467,21.1142573 80.8456561,21.1375792 80.7523687,21.1545405 L80.7523687,21.1545405 L80.7523687,26.3319899 C80.7523687,26.5440067 80.7799309,26.7157402 80.8350552,26.8471906 C80.8901796,26.978641 80.9686258,27.0825292 81.0703939,27.1588553 C81.1721619,27.2351813 81.2972518,27.2860653 81.4456635,27.3115074 C81.5940753,27.3369494 81.7615685,27.3496704 81.9481433,27.3496704 Z" id="Path" fill="#FFB124"></path>
                <path d="M89.8924486,27.3496704 C90.087504,27.3496704 90.2761989,27.3369494 90.4585333,27.3115074 C90.6408678,27.2860653 90.7744383,27.2606233 90.859245,27.2351813 L90.859245,27.2351813 L90.859245,23.2535065 C90.859245,22.5072075 90.6005846,21.9241614 90.0832637,21.5043682 C89.5659428,21.084575 88.8281244,20.8746784 87.8698087,20.8746784 C87.3355264,20.8746784 86.850008,20.9382834 86.4132535,21.0654935 C85.976499,21.1927035 85.6139503,21.3580766 85.3256075,21.5616127 C85.1559941,21.6803421 85.0224235,21.8117925 84.9248958,21.9559639 C84.8273681,22.1001353 84.7786042,22.2867101 84.7786042,22.5156882 L84.7786042,22.5156882 L84.7786042,26.3319899 C84.7786042,26.5440067 84.8061664,26.7157402 84.8612908,26.8471906 C84.9164151,26.978641 84.9948613,27.0825292 85.0966294,27.1588553 C85.1983974,27.2351813 85.3234873,27.2860653 85.4718991,27.3115074 C85.6203108,27.3369494 85.787804,27.3496704 85.9743788,27.3496704 C86.1694342,27.3496704 86.3581291,27.3369494 86.5404636,27.3115074 C86.722798,27.2860653 86.8563685,27.2606233 86.9411752,27.2351813 L86.9411752,27.2351813 L86.9411752,22.8209923 C87.0599046,22.7361856 87.2019559,22.6725806 87.3673289,22.6301772 C87.532702,22.5877739 87.7001953,22.5665722 87.8698087,22.5665722 C88.1242288,22.5665722 88.3256447,22.628057 88.4740564,22.7510268 C88.6224682,22.8739965 88.696674,23.0669317 88.696674,23.3298325 L88.696674,23.3298325 L88.696674,26.3319899 C88.696674,26.5440067 88.7242362,26.7157402 88.7793606,26.8471906 C88.8344849,26.978641 88.9129311,27.0825292 89.0146992,27.1588553 C89.1164672,27.2351813 89.2415571,27.2860653 89.3899689,27.3115074 C89.5383806,27.3369494 89.7058738,27.3496704 89.8924486,27.3496704 Z" id="Path" fill="#FFB124"></path>
                <path d="M95.2289477,20.8746784 C95.6869039,20.8746784 96.104577,20.9213221 96.4819668,21.0146095 C96.8593566,21.1078968 97.1816221,21.2499481 97.4487632,21.4407632 C97.7159044,21.6315783 97.9215606,21.8732774 98.065732,22.1658605 C98.2099034,22.4584436 98.2819891,22.804031 98.2819891,23.2026225 L98.2819891,23.2026225 L98.2819891,26.0521278 L98.2746109,26.1795923 C98.2549358,26.3430996 98.1959103,26.4808257 98.0975345,26.5927705 C97.9745648,26.7327016 97.8282733,26.8535511 97.6586598,26.9553192 C97.1074163,27.2860653 96.3314349,27.4514384 95.3307158,27.4514384 C94.8812402,27.4514384 94.4762882,27.4090351 94.1158597,27.3242284 C93.7554312,27.2394217 93.4458867,27.1122116 93.1872263,26.9425982 C92.9285658,26.7729848 92.7292701,26.5567277 92.589339,26.2938269 C92.449408,26.0309261 92.3794424,25.725622 92.3794424,25.3779145 C92.3794424,24.7927482 92.5532962,24.3432727 92.9010037,24.0294878 C93.2487112,23.715703 93.7872337,23.5206476 94.5165714,23.4443216 L94.5165714,23.4443216 L96.1830232,23.2662275 L96.1830232,23.1771805 L96.1764031,23.0760614 C96.1499226,22.8823906 96.0440007,22.740123 95.8586375,22.6492587 C95.6423804,22.5432503 95.3307158,22.4902461 94.9236436,22.4902461 C94.6013781,22.4902461 94.2875933,22.5241688 93.9822892,22.5920142 C93.676985,22.6598596 93.4013632,22.7446663 93.1554238,22.8464343 C93.0451751,22.7701083 92.9518877,22.6534991 92.8755617,22.4966066 C92.7992356,22.3397142 92.7610726,22.1764613 92.7610726,22.0068479 C92.7610726,21.7863505 92.8140768,21.6103766 92.9200852,21.4789262 C93.0260936,21.3474758 93.1893465,21.2351069 93.4098439,21.1418195 C93.6557833,21.0485321 93.9462463,20.9806868 94.2812328,20.9382834 C94.6162193,20.8958801 94.9321243,20.8746784 95.2289477,20.8746784 Z M96.1957442,24.6909802 L95.2798318,24.7673062 L95.1424449,24.7815537 C94.9660469,24.805978 94.8167871,24.8521129 94.6946655,24.9199583 C94.5420134,25.004765 94.4656874,25.131975 94.4656874,25.3015884 C94.4656874,25.4712018 94.5314126,25.6090127 94.662863,25.7150211 C94.7943134,25.8210295 95.016931,25.8740337 95.3307158,25.8740337 C95.4748872,25.8740337 95.6338997,25.8591925 95.8077535,25.8295102 C95.9816072,25.7998278 96.1109375,25.7595446 96.1957442,25.7086606 L96.1957442,25.7086606 L96.1957442,24.6909802 Z" id="Path" fill="#FFB124"></path>
            </g>
        </g>
    </g>
</svg>