<?xml version="1.0" encoding="UTF-8"?>
<svg width="78px" height="48px" viewBox="0 0 78 48" version="1.1" xmlns="http://www.w3.org/2000/svg" xmlns:xlink="http://www.w3.org/1999/xlink">
    <!-- Generator: Sketch 60.1 (88133) - https://sketch.com -->
    <title>redrake</title>
    <desc>Created with Sketch.</desc>
    <g id="design" stroke="none" stroke-width="1" fill="none" fill-rule="evenodd">
        <g id="main" transform="translate(-1633.000000, -352.000000)" fill="#FFB124">
            <g id="redrake" transform="translate(1633.000000, 352.000000)">
                <path d="M36.4199593,22.4997153 C36.9325017,22.3479864 37.3522983,22.2959186 37.698061,22.1075797 C38.5242305,21.6584949 39.0286373,20.4304271 38.8374508,19.4944271 C38.6922305,18.7825627 38.0177898,18.2810034 37.2949424,18.3810712 C37.186739,18.396122 37.0472136,18.5580203 37.0154847,18.6763932 C36.9329085,18.9888 36.8995525,19.3142237 36.8511458,19.6351729 C36.7152814,20.5280542 36.5818576,21.4217492 36.4199593,22.4997153 M30.7514847,31.0368 C30.9955525,29.4686644 31.2253831,27.9936814 31.4548068,26.5186983 C32.034061,22.7934102 32.613722,19.0677153 33.1917559,15.3424271 C33.2238915,15.1374102 33.1958237,14.9136814 33.5240949,14.9222237 C35.4571119,14.9730712 37.3901288,15.0080542 39.3231458,15.0617492 C39.5969085,15.069478 39.871078,15.1349695 40.1399593,15.1963932 C42.3870102,15.7097492 43.4991458,17.2786983 43.194061,19.5648 C43.1005017,20.268122 42.9638237,20.9812068 42.7234169,21.645478 C42.2784,22.8751729 41.7849763,23.3214102 40.0191458,24.3729356 C40.7334508,26.5597831 41.4518237,28.7596475 42.1962305,31.0396475 L40.4478915,31.0396475 C39.634739,31.0396475 38.8207729,31.0217492 38.0088407,31.0473763 C37.6378576,31.0591729 37.4755525,30.9692746 37.3998915,30.5702237 C37.0337898,28.6388339 36.6290441,26.7151729 36.234061,24.7890712 C36.2096542,24.669478 36.1559593,24.5563932 36.0884339,24.3619525 C35.8618576,25.8951051 35.6499254,27.3387661 35.4351458,28.7820203 C35.3391458,29.4247322 35.2492475,30.0686644 35.1292475,30.7069017 C35.1064678,30.8289356 34.9588068,31.0213424 34.8664678,31.0229695 C33.5196203,31.0429017 32.1727729,31.0368 30.7514847,31.0368" id="Path"></path>
                <path d="M6.50221017,22.4625763 C6.93217627,22.372678 7.28770169,22.3543729 7.5956339,22.2237966 C8.50315932,21.8389831 9.09502373,20.635322 8.95224407,19.5915254 C8.8676339,18.9707797 8.5255322,18.5985763 7.93285424,18.4342373 C7.22668475,18.2385763 7.13637966,18.296339 7.03021017,19.0204068 C7.0135322,19.1322712 6.99115932,19.2437288 6.97407458,19.356 C6.82397288,20.3440678 6.67387119,21.3321356 6.50221017,22.4625763 M12.2723797,31.0297627 L11.3262102,31.0297627 C10.2368542,31.0297627 9.14709153,31.0183729 8.05814237,31.0362712 C7.72580339,31.0419661 7.57936271,30.9618305 7.51061695,30.6050847 C7.15102373,28.7387797 6.75807458,26.8785763 6.37570169,25.0167458 C6.33746441,24.8288136 6.29068475,24.6425085 6.15970169,24.451322 C5.83305763,26.6275932 5.50641356,28.8038644 5.17692203,31.0008814 L0.859769492,31.0008814 C1.68837966,25.6537627 2.51210847,20.3338983 3.33258305,15.0376271 C3.39115932,15.0010169 3.41841356,14.9688814 3.4456678,14.9688814 C5.63698983,14.9741695 7.83807458,14.7675254 10.0131254,15.1690169 C12.3207864,15.595322 13.4068881,16.9291525 13.2738712,19.2661017 C13.2254644,20.1256271 13.0188203,21.0054915 12.7206508,21.8162034 C12.2744136,23.0296271 11.3526508,23.847661 10.0786169,24.3142373 C10.8063458,26.5417627 11.5206508,28.7294237 12.2723797,31.0297627" id="Path"></path>
                <path d="M23.5122712,27.1660182 C24.4616949,27.171661 25.0665763,26.7103729 25.4770169,26.0387797 C26.5765424,24.2391864 26.8352542,22.2695593 26.472,20.2169492 C26.3715254,19.6490847 26.016,19.2130169 25.4412203,19.0104407 C24.9034576,18.8208814 24.7940339,18.8924746 24.7065763,19.4534237 C24.4543729,21.075661 24.1976949,22.6974915 23.9450847,24.3197288 C23.8010847,25.2467797 23.6627797,26.1746441 23.5122712,27.1660182 M18.6142373,30.9612203 C18.808678,29.6997966 19.0014915,28.4355254 19.1975593,27.171661 C19.8028475,23.2698305 20.4162712,19.3688136 21.0061017,15.4645424 C21.0671186,15.0606102 21.1928136,14.920678 21.6117966,14.9324746 C22.879322,14.9690847 24.1501017,14.9153898 25.4155932,14.979661 C28.8227797,15.1525424 30.9022373,17.2047458 31.0673898,20.6021695 C31.1772203,22.8654915 30.7212203,25.0364746 29.6461017,27.048 C28.4103051,29.359322 26.4528814,30.6813559 23.8645424,30.9189153 C22.1861695,31.072678 20.4866441,30.9970169 18.7964746,31.0218305 C18.7517288,31.0218305 18.7061695,30.9925424 18.6142373,30.9612203" id="Path"></path>
                <path d="M65.8578712,14.9502508 C65.3965831,15.719878 64.973939,16.426861 64.5500746,17.1326237 C63.5286508,18.8333695 62.5161763,20.5394034 61.4768542,22.2291661 C61.2702102,22.5647593 61.2315661,22.8490983 61.3511593,23.2249627 C62.1203797,25.6404203 62.8660068,28.0636068 63.6181424,30.4843525 C63.6653288,30.6368949 63.701939,30.7922847 63.7568542,30.9964881 C63.5896678,31.0127593 63.4521763,31.0371661 63.3150915,31.0375729 C62.0788881,31.0408271 60.8418712,31.0204881 59.6064814,31.0497763 C59.2017356,31.0599458 59.0858034,30.8968271 59.0138034,30.5417085 C58.5911593,28.4549288 58.1489898,26.3718102 57.7121085,24.287878 C57.6791593,24.1316746 57.6327864,23.9783186 57.5046508,23.8196746 C57.3447864,24.8207593 57.1832949,25.8210305 57.026278,26.8221153 C56.8245153,28.1071322 56.6345492,29.3937763 56.4144814,30.675539 C56.3917017,30.8114034 56.2013288,31.0204881 56.0858034,31.022522 C54.8007864,31.0448949 53.5157695,31.0335051 52.2307525,31.0286237 C52.1864136,31.0286237 52.141261,30.9993356 52.0521763,30.9684203 C52.1860068,30.0909966 52.3186169,29.2107254 52.4552949,28.3312678 C53.1236339,24.0259119 53.7984814,19.7217763 54.4529898,15.4147932 C54.5111593,15.0312 54.6336,14.9050983 55.0281763,14.9156746 C56.1175322,14.9437424 57.2072949,14.9242169 58.2974644,14.9266576 C58.4715661,14.9270644 58.6456678,14.9437424 58.8604475,14.9551322 C58.5159051,17.1814373 58.1794983,19.358522 57.8426847,21.5352 C57.8707525,21.5465898 57.8992271,21.5579797 57.9272949,21.5689627 C57.9960407,21.4534373 58.0712949,21.3419797 58.1319051,21.2223864 C59.1138712,19.2779797 60.1039729,17.3376407 61.0651932,15.3826576 C61.2437695,15.0189966 61.4577356,14.9071322 61.8494644,14.9160814 C63.0039051,14.9421153 64.1591593,14.9246237 65.3140068,14.9262508 C65.4698034,14.9266576 65.6251932,14.9396746 65.8578712,14.9502508" id="Path"></path>
                <path d="M47.5206102,19.0087322 C47.4941695,19.0071051 47.467322,19.005478 47.4408814,19.0042576 C46.7831186,21.1646644 46.1253559,23.325478 45.4521356,25.5367322 L47.2911864,25.5367322 C47.3680678,23.3429695 47.4445424,21.1756475 47.5206102,19.0087322 M50.8435932,15.0035797 C51.1458305,20.3165288 51.447661,25.6193085 51.7531525,30.9806644 L47.2745085,30.9806644 L47.2745085,28.9723932 C46.3218305,28.9723932 45.4147119,28.9618169 44.5096271,28.9866305 C44.408339,28.989478 44.2708475,29.1761898 44.2224407,29.3047322 C44.0442712,29.7753763 43.9169492,30.2659525 43.7249492,30.7304949 C43.6692203,30.8655458 43.4568814,31.0258169 43.3267119,31.0172746 C43.1709153,31.0066983 42.9378305,30.8578169 42.8894237,30.7170712 C42.3549153,29.1656136 41.8480678,27.6048 41.3404068,26.0443932 C41.3017627,25.9268339 41.2635254,25.7718508 41.3082712,25.6705627 C41.6174237,24.9668339 41.7842034,24.2146983 42.3561356,23.6126644 C43.4816949,22.4269017 43.8844068,20.9271051 43.972678,19.3243932 C43.9885424,19.0392407 44.0454915,18.7443254 44.1463729,18.4778847 C44.5490847,17.4145627 44.967661,16.356122 45.4065763,15.3074441 C45.471661,15.152461 45.6783051,14.9523254 45.8218983,14.9498847 C47.4473898,14.9262915 49.0736949,14.9368678 50.6991864,14.9405288 C50.7288814,14.9405288 50.7577627,14.9653424 50.8435932,15.0035797" id="Path"></path>
                <path d="M74.9130712,14.9756746 C74.7320542,16.1740475 74.5693424,17.3154712 74.3700203,18.4503864 C74.3513085,18.5553356 74.0978847,18.6863186 73.9510373,18.6895729 C73.0239864,18.711539 72.0969356,18.7009627 71.1698847,18.7009627 L70.6130034,18.7009627 C70.4893424,19.4701831 70.3746305,20.1848949 70.248122,20.9707932 L73.5898169,20.9707932 C73.4462237,21.9181831 73.3241898,22.7952 73.1769356,23.6681492 C72.9930712,24.7627932 72.984122,24.7611661 71.8496136,24.7611661 L69.6485288,24.7611661 C69.5155119,25.6109288 69.3938847,26.3931661 69.260461,27.2457763 L72.9922576,27.2457763 C72.8010712,28.5324203 72.6200542,29.7474712 72.4341559,30.9991322 L64.3636475,30.9991322 C64.4661559,30.3120814 64.5645966,29.631539 64.6695458,28.9522169 C65.3732746,24.4231322 66.0798508,19.8940475 66.7795119,15.3641492 C66.8197831,15.1029966 66.8421559,14.9154712 67.1972746,14.9174887 C69.6530034,14.9329627 72.109139,14.9260475 74.5652746,14.9288949 C74.6592407,14.9293017 74.7528,14.9533017 74.9130712,14.9756746" id="Path"></path>
                <path d="M14.7154576,27.267661 L18.4362712,27.267661 C18.2540339,28.4782373 18.0864407,29.6306441 17.8960678,30.7797966 C17.8802034,30.8749831 17.7130169,31.015322 17.6145763,31.0165424 C16.1839322,31.0348475 14.7528814,31.0381017 13.3222373,31.0263051 C13.2144407,31.0250847 13.0427797,30.9091525 13.0094237,30.8103051 C12.3561356,28.8699661 11.7154576,26.9259661 11.0902373,24.9762712 C11.0581017,24.8766102 11.155322,24.6589831 11.2525424,24.6048814 C13.6423729,23.2844746 14.4099661,19.9915932 13.935661,17.7266441 C13.7383729,16.7841356 13.2461695,16.0202034 12.4940339,15.4165424 C12.3976271,15.3392542 12.3602034,15.1891525 12.2951186,15.0728136 C12.4037288,15.0260339 12.5119322,14.9389831 12.6205424,14.9389831 C15.108,14.9361356 17.5958644,14.9422373 20.083322,14.9487458 C20.1451525,14.9487458 20.2069831,14.9703051 20.3481356,14.996339 C20.1654915,16.2207458 19.9848814,17.4305085 19.7961356,18.6935593 C18.7417627,18.6935593 17.720339,18.727322 16.7025763,18.6797288 C16.180678,18.6549153 15.9801356,18.8229153 15.9390508,19.3285424 C15.8959322,19.8581695 15.7844746,20.3821017 15.6901017,20.9922712 L19.0387119,20.9922712 C18.8373559,22.2752542 18.6490169,23.4732203 18.4484746,24.751322 C17.8000678,24.751322 17.1561356,24.7411525 16.5134237,24.7545763 C16.0480678,24.7647458 15.4505085,24.6431186 15.1580339,24.8818983 C14.8899661,25.1007458 14.9448814,25.7223051 14.8688136,26.1689492 C14.8122712,26.5029153 14.7744407,26.8397288 14.7154576,27.267661" id="Path"></path>
                <path d="M40.4047322,34.1300746 C41.6340203,34.5026847 42.7498169,34.8403119 43.8652068,35.1787525 C46.0882576,35.8523797 48.312122,36.5223458 50.5315119,37.2073627 C50.8036475,37.2915661 51.0761898,37.4262102 51.3027661,37.5974644 C54.3206644,39.8860068 57.332461,42.1818712 60.3357153,44.4895322 C60.5407322,44.6469559 60.7176814,44.8889898 60.8144949,45.1293966 C61.1647322,46.0023458 61.4759186,46.8911593 61.8383593,47.8731254 C61.6406644,47.7938034 61.5149695,47.7555661 61.4010712,47.6961763 C54.9068339,44.3007864 48.4134102,40.9041763 41.9236475,37.5006508 C41.7641898,37.4168542 41.5839864,37.2757017 41.5217492,37.1186847 C41.1462915,36.1688542 40.8029695,35.2064136 40.4047322,34.1300746" id="Path"></path>
                <path d="M71.5388746,12.3413695 C70.9116203,10.4917424 68.5445695,9.40157288 66.6685017,9.78638644 C66.7783322,9.60781017 66.8519593,9.48008136 66.9333153,9.35804746 C68.2675525,7.35750508 69.6237559,5.37160678 70.9262644,3.35072542 C71.4030102,2.6112 72.0355525,2.32808136 72.8560271,2.40048814 C74.0369085,2.50462373 75.0546712,2.96875932 75.8129085,3.9051661 C76.3677559,4.59018305 76.375078,5.12591186 75.8877559,5.85608136 C74.5344,7.88265763 73.1814508,9.90964068 71.8272814,11.9358102 C71.7386034,12.0688271 71.6426034,12.1965559 71.5388746,12.3413695" id="Path"></path>
                <path d="M64.5040678,13.1873085 C64.579322,13.0140203 64.6358644,12.8163254 64.7420339,12.6503593 C65.1097627,12.0755797 65.5230508,11.5280542 65.8663729,10.9398508 C66.2377627,10.3016136 66.8007458,10.0323254 67.4869831,10.0461559 C68.8041356,10.0738169 69.9219661,10.5733424 70.7513898,11.6224271 C71.0515932,12.0015458 71.2435932,12.4465627 71.0747797,12.9383593 C71.0247458,13.0831729 70.8258305,13.2763932 70.6940339,13.2776136 C68.6792542,13.2938847 66.6644746,13.2820881 64.6488814,13.2747661 C64.6228475,13.2747661 64.5964068,13.2442576 64.5040678,13.1873085" id="Path"></path>
                <path d="M52.4150644,37.9579525 C51.8264542,37.5247322 51.2943864,37.1334102 50.7187932,36.7095458 C51.2284881,35.9439864 51.7699119,35.1235119 52.319878,34.3087322 C52.6448949,33.8266983 52.886522,33.1705627 53.3437424,32.9260881 C53.8013695,32.6812068 54.4806915,32.8500203 55.0632,32.8402576 C55.2853017,32.8365966 55.5078102,32.8398508 55.8303864,32.8398508 C54.6674034,34.5824949 53.5568949,36.2470373 52.4150644,37.9579525" id="Path"></path>
                <path d="M76.6418847,4.71266441 C76.1419525,3.08229153 73.9957831,1.73951186 71.7584949,2.13042712 C72.0521898,1.6968 72.2775458,1.25178305 72.6098847,0.911308475 C72.8405288,0.675376271 73.2066305,0.48500339 73.5332746,0.443511864 C75.0180203,0.255172881 76.2464949,0.794969492 77.1857492,1.9408678 C77.7418169,2.61937627 77.7206644,3.1107661 77.2280542,3.84459661 C77.0478508,4.11307119 76.8664271,4.3807322 76.6418847,4.71266441" id="Path"></path>
                <path d="M11.2184949,35.1867661 C11.0631051,36.0414102 10.9138169,36.8968678 10.7466305,37.7490712 C10.7210034,37.8792407 10.6132068,37.9927322 10.5436475,38.1143593 C10.4932068,38.0940203 10.4427661,38.0744949 10.3927322,38.0541559 C10.3927322,37.9488 10.3772746,37.8410034 10.3947661,37.7384949 C10.6140203,36.4742237 10.8304271,35.2087322 11.0704271,33.948122 C11.0972746,33.8057492 11.2636475,33.6906305 11.3653424,33.5629017 C11.4218847,33.5873085 11.4788339,33.6125288 11.5353763,33.6369356 C11.6248678,34.7791729 11.7147661,35.9210034 11.8042576,37.0628339 C11.8376136,37.0709695 11.8713763,37.0782915 11.905139,37.0864271 C12.021478,36.8277153 12.1422915,36.5710373 12.2529356,36.3102915 C12.5889356,35.5170712 12.9115119,34.7181559 13.2629695,33.9322576 C13.3300881,33.7825627 13.5070373,33.6824949 13.6335458,33.5596475 C13.6929356,33.5917831 13.753139,33.6239186 13.8129356,33.6560542 C13.5469017,35.0993085 13.2824949,36.5425627 13.005478,37.9833763 C12.9973424,38.024461 12.8525288,38.0386983 12.673139,38.0976814 C12.8509017,37.053478 13.0152407,36.0885966 13.1791729,35.124122 C13.1425627,35.1111051 13.1059525,35.0984949 13.0693424,35.0858847 C12.6426305,36.0918508 12.2163254,37.0978169 11.7896136,38.1037831 L11.5817492,38.0655458 C11.5064949,37.1120542 11.4312407,36.1585627 11.3563932,35.2050712 C11.3104271,35.1989695 11.264461,35.1928678 11.2184949,35.1867661" id="Path"></path>
                <path d="M62.2874034,47.9467119 C61.9054373,46.9269153 61.5255051,45.9148475 61.1480136,44.907661 C62.0563525,44.3568814 63.2120136,44.4069153 63.8006237,44.9934915 C64.0231322,45.2155932 64.0983864,45.4002712 63.8827932,45.6992542 C63.3690305,46.4103051 62.8975729,47.1510508 62.4074034,47.8783729 C62.3923525,47.9007458 62.3561492,47.9084746 62.2874034,47.9467119" id="Path"></path>
                <path d="M22.6717017,35.1685017 C22.5285153,35.9897898 22.3946847,36.8127051 22.2352271,37.630739 C22.2026847,37.798739 22.0757695,37.9484339 21.9919729,38.1066712 C21.9317695,38.0810441 21.8711593,38.0554169 21.8105492,38.0297898 C21.9240407,37.3651119 22.0359051,36.7004339 22.1514305,36.0361627 C22.2738712,35.3324339 22.4077017,34.630739 22.5211932,33.9253831 C22.5708203,33.6154169 22.7188881,33.5535864 23.0044475,33.6805017 C23.0914983,34.6514847 23.1785492,35.6253153 23.2656,36.5991458 C23.3070915,36.6011797 23.3485831,36.6036203 23.3900746,36.606061 C23.5112949,35.9299932 23.6337356,35.2539254 23.7541424,34.5774508 C23.7940068,34.3533153 23.8106847,34.1234847 23.8733288,33.9062644 C23.9074983,33.7882983 24.0157017,33.6922983 24.0901424,33.5861288 C24.1418034,33.6085017 24.1938712,33.6308746 24.2455322,33.6528407 C24.136922,34.2821288 24.029939,34.9114169 23.9197017,35.5398915 C23.7936,36.2602983 23.6752271,36.9819254 23.5275661,37.6974508 C23.4990915,37.8341288 23.3493966,37.9455864 23.2554305,38.0688407 C23.1708203,37.9358237 23.0264136,37.8085017 23.0117695,37.6681627 C22.9344814,36.9082983 22.8905492,36.1451797 22.8315661,35.3836881 C22.8258712,35.3108746 22.7957695,35.2396881 22.7766508,35.1676881 C22.7416678,35.1680949 22.7066847,35.1680949 22.6717017,35.1685017" id="Path"></path>
                <path d="M1.77140339,34.9341153 C1.79255593,34.6632 1.84177627,34.5216407 1.80394576,34.4097763 C1.74414915,34.2336407 1.62577627,34.0774373 1.53221695,33.9122847 C1.34997966,34.0172339 1.15228475,34.1030644 0.99160678,34.2344542 C0.920013559,34.2938441 0.914725424,34.4427254 0.89479322,34.5537763 C0.739810169,35.4328271 0.592149153,36.3126915 0.433911864,37.190522 C0.386318644,37.4553356 0.39079322,37.7482169 0.699945763,37.7510644 C0.8952,37.7530983 1.23567458,37.5370983 1.26130169,37.378861 C1.33818305,36.902522 1.7112,36.4139797 1.31336949,35.9189288 C1.48909831,35.8168271 1.6652339,35.7147254 1.84096271,35.6126237 C1.88936949,35.6573695 1.93777627,35.702522 1.98618305,35.746861 C1.8592678,36.3757424 1.76774237,37.0147932 1.59282712,37.6298441 C1.46753898,38.0707932 0.91960678,38.2546576 0.405437288,38.1135051 C-0.086359322,37.9784542 -0.0172067797,37.5964881 0.0401491525,37.2438102 C0.195538983,36.2838102 0.366386441,35.3262508 0.538454237,34.3686915 C0.616962712,33.9309966 0.842318644,33.5799458 1.31703051,33.5701831 C1.59648814,33.5644881 2.01669153,33.6336407 2.12570847,33.8162847 C2.2632,34.0469288 2.16272542,34.4301153 2.12855593,34.7433356 C2.12204746,34.8031322 1.94672542,34.8442169 1.77140339,34.9341153" id="Path"></path>
                <path d="M29.3764068,35.6570847 C29.2665763,36.2814915 29.1856271,36.7932203 29.0859661,37.3008814 C28.9582373,37.9501017 28.591322,38.2059661 27.9368136,38.1380339 C27.5402034,38.0965424 27.3229831,37.8850169 27.3872542,37.4936949 C27.5711186,36.3742373 27.7549831,35.2527458 27.9957966,34.1442712 C28.1117288,33.6117966 28.8890847,33.3494237 29.3585085,33.6349831 C29.7823729,33.8932881 29.595661,34.299661 29.5415593,34.6503051 C29.5261017,34.7487458 29.3458983,34.8211525 29.2409492,34.9053559 C29.2096271,34.8715932 29.1778983,34.8382373 29.1461695,34.8044746 C29.1628475,34.6954576 29.2169492,34.5754576 29.1884746,34.4794576 C29.1307119,34.2858305 29.0277966,34.1048136 28.9435932,33.9185085 C28.7414237,34.0417627 28.4578983,34.1198644 28.3578305,34.299661 C28.2235932,34.5416949 28.2288814,34.8622373 28.1772203,35.1494237 C28.0568136,35.8202034 27.9347797,36.4913898 27.8200678,37.1633898 C27.7749153,37.4294237 27.7557966,37.7589153 28.1084746,37.7572881 C28.2992542,37.7564746 28.6238644,37.5217627 28.6531525,37.3521356 C28.7320678,36.8941017 28.9415593,36.4706441 28.7507797,35.9296271 C28.5905085,35.475661 29.1067119,35.7787119 29.3764068,35.6570847" id="Path"></path>
                <path d="M6.38241356,36.5898305 C6.41658305,36.6504407 6.45034576,36.7114576 6.48451525,36.7720678 C6.73102373,36.6736271 7.18214237,36.5902373 7.19068475,36.4747119 C7.25170169,35.6351186 7.22322712,34.7894237 7.22322712,33.8526102 C6.92871864,34.8122034 6.65536271,35.7010169 6.38241356,36.5898305 M7.17319322,37.131661 C6.29780339,36.991322 6.30512542,36.9941695 6.00817627,37.7646102 C5.95773559,37.896 5.81861695,37.9936271 5.72017627,38.1071186 C5.67054915,38.0729492 5.62051525,38.0391864 5.57088814,38.0050169 C5.61075254,37.8549153 5.64370169,37.7031864 5.69129492,37.5559322 C6.06187119,36.4141017 6.4556339,35.2795932 6.79814237,34.1300339 C6.93237966,33.6809492 7.14390508,33.5023729 7.6536,33.679322 C7.6536,33.9246102 7.65888814,34.2105763 7.65278644,34.4965424 C7.6316339,35.5025085 7.61821017,36.5096949 7.57305763,37.5144407 C7.56492203,37.7011525 7.42458305,37.8817627 7.34526102,38.0652203 C7.28790508,37.8894915 7.21631186,37.7170169 7.17848136,37.5368136 C7.15244746,37.4143729 7.17319322,37.2821695 7.17319322,37.131661" id="Path"></path>
                <path d="M18.1242305,33.7034441 C17.8866712,35.0405288 17.6531797,36.3780203 17.4046373,37.7126644 C17.3786034,37.8542237 17.2618576,37.9786983 17.1874169,38.1109017 C17.1215186,38.0848678 17.0556203,38.0592407 16.9893153,38.0336136 C17.0560271,37.628461 17.119078,37.2229017 17.1890441,36.8189695 C17.3578576,35.8467661 17.5221966,34.8733424 17.709722,33.9043932 C17.733722,33.7823593 17.8858576,33.6859525 17.9786034,33.5773424 C18.0270102,33.6196475 18.0758237,33.6615458 18.1242305,33.7034441" id="Path"></path>
                <path d="M40.9577085,33.9533288 C41.7529627,33.4184136 42.9497085,33.5107525 43.4907254,34.1518373 C43.5802169,34.2592271 43.5968949,34.4280407 43.6473356,34.5683797 C43.5061831,34.5944136 43.3499797,34.6733288 43.2246915,34.6395661 C42.5242169,34.4500068 41.8306576,34.2336 41.1354712,34.0253288 C41.0781153,34.0082441 41.0240136,33.9801763 40.9577085,33.9533288" id="Path"></path>
            </g>
        </g>
    </g>
</svg>