<?xml version="1.0" encoding="UTF-8"?>
<svg width="207px" height="48px" viewBox="0 0 207 48" version="1.1" xmlns="http://www.w3.org/2000/svg" xmlns:xlink="http://www.w3.org/1999/xlink">
    <!-- Generator: Sketch 60.1 (88133) - https://sketch.com -->
    <title>playngo</title>
    <desc>Created with Sketch.</desc>
    <g id="design" stroke="none" stroke-width="1" fill="none" fill-rule="evenodd">
        <g id="main" transform="translate(-78.000000, -352.000000)" fill="#FFB124" fill-rule="nonzero">
            <g id="playngo" transform="translate(78.000000, 352.000000)">
                <path d="M111.911988,8.66341463 C111.553295,9.50036326 111.194603,10.2177478 110.955475,11.0546964 C108.564193,18.46767 104.140322,30.6632071 103.064245,38.4348729 C103.064245,38.7935651 102.944681,39.1522574 102.944681,39.5109497 L8.48905034,39.6305138 C3.94561495,39.6305138 1.67389725,37.3587961 0.717384536,34.7283861 C0.239128179,33.0544888 0.239128179,31.3805916 0.717384536,29.7066943 L4.06517903,17.5111572 C5.02169175,14.2829268 7.89122989,8.78297872 14.706383,8.78297872 L111.911988,8.66341463 Z M59.4233524,13.8046705 L54.879917,13.8046705 C52.0103788,13.8046705 49.3799689,15.5981318 48.4234561,18.2285418 L43.7604567,32.5762325 L48.6625843,32.5762325 L50.2169175,27.913233 L54.6407888,27.913233 L53.3255838,32.5762325 L58.1081474,32.5762325 L62.8907109,18.3481059 C63.3689673,15.9568241 62.0537623,13.8046705 59.4233524,13.8046705 Z M26.782356,13.8046705 L17.456357,13.8046705 L11.3585885,32.5762325 L16.2607161,32.5762325 L17.8150493,27.913233 L22.1193565,27.913233 C24.9888947,27.913233 27.4997405,26.1197717 28.4562532,23.4893617 C29.0540737,22.0545926 30.1301505,18.46767 30.1301505,18.46767 C30.9670991,15.7176959 29.412766,13.8046705 26.782356,13.8046705 Z M97.803425,19.3046186 L93.1404255,19.3046186 C90.2708874,19.3046186 87.7600415,21.0980799 86.8035288,23.7284899 L86.8035288,23.7284899 L84.0535547,32.5762325 L89.0752465,32.5762325 L91.5860924,24.0871821 L96.0099637,24.0871821 L93.6186819,32.5762325 L98.5208095,32.5762325 L101.15122,23.9676181 C101.629476,21.4567722 100.314271,19.3046186 97.803425,19.3046186 L97.803425,19.3046186 Z M71.021069,13.8046705 L66.1189414,13.8046705 L63.010275,23.4893617 C62.4124546,26.0002076 63.7276596,28.1523612 66.2385054,28.1523612 L66.2385054,28.1523612 L64.9233005,32.5762325 L69.8254281,32.5762325 L71.2601972,28.1523612 C74.0101713,28.0327971 76.401453,26.3588998 77.3579657,23.7284899 L80.4666321,13.8046705 L75.5645044,13.8046705 L72.336274,23.2502335 L68.1515309,23.2502335 L71.021069,13.8046705 Z M38.4996367,13.8046705 L33.477945,13.8046705 L27.4997405,32.5762325 L41.8474312,32.5762325 L44.9560976,23.1306694 L40.173534,23.1306694 L38.7387649,27.7936689 L34.3148936,27.7936689 L38.4996367,13.8046705 Z M57.629891,18.46767 L56.0755579,23.1306694 L51.4125584,23.1306694 L53.0864556,18.46767 L57.629891,18.46767 Z M25.3475869,18.46767 L23.7932538,23.1306694 L19.1302543,23.1306694 L20.6845874,18.46767 L25.3475869,18.46767 Z M89.4339388,14.2829268 L83.097042,14.2829268 L81.0644525,19.902439 L87.5209133,19.902439 L89.4339388,14.2829268 Z" id="Path"></path>
                <path d="M193.693825,8.66341463 L198.356824,8.66341463 C204.693721,8.66341463 207.563259,13.0872859 206.487182,17.8698495 C205.769798,21.3372081 202.900259,30.6632071 202.900259,30.6632071 C201.824183,35.924027 197.400311,39.5109497 191.182979,39.5109497 L184.606954,39.5109497 C184.726518,39.2718215 184.846082,39.0326933 184.846082,38.7935651 C187.1178,31.978412 190.824286,20.1415672 193.215568,12.6090296 C193.574261,11.4133887 193.693825,9.97861962 193.693825,8.66341463 Z" id="Path"></path>
                <path d="M181.020031,0.0548002076 L170.020135,0.0548002076 C162.607161,-0.0647638817 155.911572,4.5982356 153.400727,11.6525169 L147.781214,29.3480021 C141.563882,44.7717696 149.455112,47.2826155 154.95506,47.2826155 L164.161495,47.2826155 C170.976648,47.2826155 178.389621,42.3804878 180.302647,36.1631552 L187.954748,11.891645 C190.106902,6.27213285 186.759107,0.0548002076 181.020031,0.0548002076 Z M168.70493,35.6848988 L158.063726,35.6848988 L165.4767,12.1307732 L176.117903,12.1307732 L168.70493,35.6848988 L168.70493,35.6848988 Z M127.933576,29.7066943 L133.792216,29.7066943 L131.87919,35.6848988 L120.401038,35.6848988 L121.955371,30.6632071 L122.194499,29.8262584 L126.02055,18.1089777 L127.933576,12.2503373 L149.933368,12.2503373 L150.052932,11.891645 L153.281162,0.652620654 L132.118319,0.652620654 C124.107525,0.533056565 117.651064,6.63082512 116.216295,11.5329528 L110.596783,29.228438 C103.542501,45.7282823 112.8685,47.1630514 117.770628,47.1630514 L126.977063,47.1630514 C134.270472,47.2826155 140.846497,42.619616 143.118215,35.6848988 L148.259471,17.9894136 L131.759626,17.9894136 L127.933576,29.7066943 Z" id="Path"></path>
            </g>
        </g>
    </g>
</svg>