<?xml version="1.0" encoding="UTF-8"?>
<svg width="145px" height="48px" viewBox="0 0 145 48" version="1.1" xmlns="http://www.w3.org/2000/svg" xmlns:xlink="http://www.w3.org/1999/xlink">
    <!-- Generator: Sketch 60.1 (88133) - https://sketch.com -->
    <title>booming</title>
    <desc>Created with Sketch.</desc>
    <g id="design" stroke="none" stroke-width="1" fill="none" fill-rule="evenodd">
        <g id="main" transform="translate(-2053.000000, -64.000000)" fill="#FFB124" fill-rule="nonzero">
            <g id="booming" transform="translate(2053.000000, 64.000000)">
                <path d="M33.3861915,36.7750557 L40.9336303,36.7750557 L40.9336303,45.7336303 C39.8432071,46.5247216 38.6886414,47.1126949 37.4592428,47.4654788 C36.2298441,47.8289532 34.9469933,48 33.6106904,48 C31.8681514,48 30.2752784,47.722049 28.8427617,47.1768374 C27.410245,46.6316258 26.1808463,45.8726058 25.1652561,44.9104677 C24.1496659,43.9483296 23.3585746,42.8044543 22.8026726,41.4788419 C22.2467706,40.1532294 21.9688196,38.7100223 21.9688196,37.1599109 C21.9688196,35.5777283 22.2360802,34.1238307 22.7599109,32.7982183 C23.2837416,31.4726058 24.0320713,30.3287305 25.0048998,29.3665924 C25.9777283,28.4044543 27.1643653,27.6561247 28.5434298,27.1216036 C29.9224944,26.5870824 31.4726058,26.3198218 33.1830735,26.3198218 C34.0703786,26.3198218 34.8935412,26.3946548 35.6739421,26.5336303 C36.454343,26.6832962 37.1706013,26.8757238 37.8227171,27.132294 C38.474833,27.3888641 39.0734967,27.688196 39.6187082,28.0302895 C40.1639198,28.3830735 40.6449889,28.7572383 41.0726058,29.1634744 L39.6507795,31.3336303 C39.4262806,31.6757238 39.1376392,31.8788419 38.7848552,31.9643653 C38.4320713,32.0391982 38.047216,31.9536748 37.64098,31.6971047 C37.2561247,31.4619154 36.8819599,31.2587973 36.5398664,31.0877506 C36.1977728,30.9167038 35.8449889,30.7777283 35.4815145,30.6708241 C35.1180401,30.5639198 34.7438753,30.4890869 34.3483296,30.4356347 C33.952784,30.3821826 33.5037862,30.3608018 33.0120267,30.3608018 C32.0926503,30.3608018 31.2587973,30.5211581 30.5211581,30.8525612 C29.7835189,31.1732739 29.152784,31.6329621 28.6396437,32.2316258 C28.1158129,32.8195991 27.7202673,33.5358575 27.4423163,34.3697105 C27.1643653,35.2035635 27.0253898,36.1229399 27.0253898,37.1385301 C27.0253898,38.2610245 27.1857461,39.2659243 27.4957684,40.142539 C27.8057906,41.0191537 28.244098,41.7567929 28.8106904,42.3554566 C29.3772829,42.9541203 30.0614699,43.4138085 30.8525612,43.7345212 C31.6436526,44.0445434 32.5202673,44.2048998 33.4824053,44.2048998 C34.0703786,44.2048998 34.6155902,44.1514477 35.0966592,44.033853 C35.5777283,43.9162584 36.0481069,43.7665924 36.4971047,43.5634744 L36.4971047,40.345657 L34.4017817,40.345657 C34.0917595,40.345657 33.8458797,40.2601336 33.674833,40.0997773 C33.5037862,39.9394209 33.4075724,39.7256125 33.4075724,39.4690423 L33.4075724,36.7750557 L33.3861915,36.7750557 Z" id="Path"></path>
                <path d="M62.9452116,47.7648107 L59.1287305,47.7648107 C58.7011136,47.7648107 58.35902,47.6685969 58.0917595,47.4654788 C57.8244989,47.2623608 57.6320713,47.0164811 57.4930958,46.6957684 L56.2423163,42.996882 L48.1710468,42.996882 L46.9309577,46.7064588 C46.8240535,46.9737194 46.6316258,47.2195991 46.3536748,47.444098 C46.0757238,47.6579065 45.7336303,47.7755011 45.3273942,47.7755011 L41.4788419,47.7755011 L49.6890869,26.5550111 L54.7349666,26.5550111 L62.9452116,47.7648107 Z M55.1305122,39.6614699 L53.1634744,33.8565702 C53.0138085,33.4930958 52.8641425,33.0547884 52.6930958,32.5523385 C52.5327394,32.0498886 52.3616927,31.5153675 52.2013363,30.9273942 C52.0516704,31.5153675 51.9020045,32.0712695 51.7309577,32.5737194 C51.5706013,33.0761693 51.410245,33.5144766 51.2605791,33.8886414 L49.3256125,39.6614699 L55.1305122,39.6614699 Z" id="Path"></path>
                <path d="M88.4739421,26.5550111 L88.4739421,47.7755011 L84.1336303,47.7755011 L84.1336303,35.5670379 C84.1336303,35.2890869 84.1443207,34.9790646 84.1550111,34.6476615 C84.1657016,34.3162584 84.1977728,33.9848552 84.2298441,33.6427617 L78.5959911,44.5469933 C78.4249443,44.8890869 78.189755,45.145657 77.8904232,45.3167038 C77.5910913,45.4877506 77.2596882,45.5839644 76.874833,45.5839644 L76.2013363,45.5839644 C75.8271715,45.5839644 75.485078,45.498441 75.1857461,45.3167038 C74.8864143,45.145657 74.6512249,44.8890869 74.4801782,44.5469933 L68.8463252,33.6106904 C68.8783964,33.9634744 68.8997773,34.3055679 68.9211581,34.636971 C68.942539,34.9683742 68.9532294,35.2783964 68.9532294,35.5563474 L68.9532294,47.7541203 L64.6129176,47.7541203 L64.6129176,26.5550111 L68.3652561,26.5550111 C68.5790646,26.5550111 68.7608018,26.5550111 68.9211581,26.5657016 C69.0815145,26.576392 69.22049,26.6084633 69.3487751,26.6512249 C69.4770601,26.6939866 69.5839644,26.77951 69.6908686,26.8757238 C69.7977728,26.9826281 69.8939866,27.1216036 69.9902004,27.3033408 L75.4743875,38.0685969 C75.6668151,38.4427617 75.8592428,38.8169265 76.0302895,39.2231626 C76.2120267,39.6187082 76.3830735,40.0249443 76.5434298,40.4418708 C76.7037862,40.0142539 76.8855234,39.5973274 77.0565702,39.1910913 C77.2383073,38.7848552 77.430735,38.4 77.633853,38.0258352 L83.0752784,27.3033408 C83.1714922,27.1216036 83.267706,26.9719376 83.3746102,26.8757238 C83.4815145,26.7688196 83.5884187,26.6939866 83.7167038,26.6512249 C83.8449889,26.5977728 83.9839644,26.576392 84.1443207,26.5657016 C84.3046771,26.5550111 84.4864143,26.5550111 84.7002227,26.5550111 L88.4739421,26.5550111 Z" id="Path"></path>
                <polygon id="Path" points="97.5287305 30.3394209 97.5287305 35.2890869 104.199555 35.2890869 104.199555 38.9345212 97.5287305 38.9345212 97.5287305 43.9910913 106.241425 43.9910913 106.241425 47.7755011 92.5790646 47.7755011 92.5790646 26.5550111 106.241425 26.5550111 106.241425 30.3394209 97.5287305 30.3394209"></polygon>
                <path d="M120.994209,30.8632517 C120.844543,31.098441 120.694878,31.2694878 120.534521,31.3870824 C120.374165,31.5046771 120.171047,31.5581292 119.914477,31.5581292 C119.689978,31.5581292 119.454788,31.4832962 119.198218,31.3443207 C118.941648,31.2053452 118.653007,31.0449889 118.321604,30.8739421 C118.000891,30.7028953 117.626726,30.542539 117.2098,30.4035635 C116.792873,30.264588 116.311804,30.189755 115.777283,30.189755 C114.857906,30.189755 114.163029,30.3821826 113.714031,30.7777283 C113.265033,31.1732739 113.040535,31.6971047 113.040535,32.3706013 C113.040535,32.7982183 113.17951,33.1510022 113.446771,33.4289532 C113.714031,33.7069042 114.077506,33.952784 114.515813,34.155902 C114.95412,34.35902 115.467261,34.5514477 116.033853,34.711804 C116.600445,34.8828508 117.177728,35.0752784 117.776392,35.2783964 C118.364365,35.4922049 118.952339,35.7273942 119.518931,36.0160356 C120.085523,36.2939866 120.587973,36.657461 121.036971,37.0957684 C121.475278,37.5340757 121.838753,38.0685969 122.106013,38.6886414 C122.373274,39.3193764 122.512249,40.067706 122.512249,40.9550111 C122.512249,41.9385301 122.341203,42.8579065 121.999109,43.7024499 C121.657016,44.5576837 121.165256,45.3060134 120.523831,45.9367483 C119.882405,46.5674833 119.080624,47.0699332 118.139866,47.4334076 C117.188419,47.796882 116.119376,47.9786192 114.911359,47.9786192 C114.248552,47.9786192 113.575056,47.9144766 112.890869,47.7755011 C112.206682,47.6365256 111.543875,47.444098 110.90245,47.1982183 C110.261024,46.9523385 109.662361,46.6530067 109.095768,46.3216036 C108.529176,45.97951 108.037416,45.6053452 107.62049,45.1884187 L109.074388,42.8899777 C109.191982,42.7296214 109.341648,42.5906459 109.534076,42.4730512 C109.726503,42.366147 109.929621,42.3020045 110.15412,42.3020045 C110.442762,42.3020045 110.742094,42.3982183 111.030735,42.5799555 C111.330067,42.7616927 111.66147,42.9648107 112.035635,43.1893096 C112.4098,43.4138085 112.837416,43.6169265 113.329176,43.7986637 C113.810245,43.9804009 114.387528,44.0766147 115.050334,44.0766147 C115.94833,44.0766147 116.632517,43.8841871 117.134967,43.4886414 C117.626726,43.0930958 117.872606,42.4730512 117.872606,41.6178174 C117.872606,41.1260579 117.73363,40.7198218 117.46637,40.4097996 C117.199109,40.0997773 116.835635,39.8432071 116.397327,39.6400891 C115.95902,39.436971 115.45657,39.2552339 114.889978,39.1055679 C114.323385,38.9452116 113.746102,38.7741648 113.158129,38.5924276 C112.570156,38.4 111.992873,38.1755011 111.426281,37.8975501 C110.859688,37.6195991 110.357238,37.2561247 109.918931,36.8071269 C109.480624,36.3581292 109.117149,35.7915367 108.849889,35.1180401 C108.582628,34.4445434 108.443653,33.6106904 108.443653,32.6164811 C108.443653,31.8253898 108.604009,31.0449889 108.924722,30.2859688 C109.245434,29.5269488 109.715813,28.8534521 110.335857,28.2654788 C110.955902,27.6775056 111.714922,27.1964365 112.623608,26.8436526 C113.521604,26.4908686 114.558575,26.3091314 115.723831,26.3091314 C116.375947,26.3091314 117.006682,26.3625835 117.626726,26.4587973 C118.246771,26.5550111 118.824053,26.7153675 119.379955,26.9077951 C119.935857,27.1109131 120.448998,27.3461024 120.930067,27.6240535 C121.411136,27.9020045 121.838753,28.2120267 122.223608,28.5648107 L120.994209,30.8632517 Z" id="Path"></path>
                <path d="M7.81469933,0.224498886 C9.27928731,0.224498886 10.5300668,0.363474388 11.5563474,0.630734967 C12.5826281,0.897995546 13.4271715,1.28285078 14.0792873,1.78530067 C14.7314031,2.28775056 15.2017817,2.88641425 15.5011136,3.59198218 C15.8004454,4.29755011 15.9501114,5.08864143 15.9501114,5.96525612 C15.9501114,6.44632517 15.8859688,6.89532294 15.7469933,7.34432071 C15.6080178,7.78262806 15.3942094,8.19955457 15.1055679,8.5844098 C14.8169265,8.96926503 14.4427617,9.322049 13.9830735,9.64276169 C13.5233853,9.96347439 12.9781737,10.2414254 12.3367483,10.4766147 C13.7371938,10.8187082 14.7634744,11.3639198 15.436971,12.1229399 C16.1104677,12.8819599 16.4418708,13.8654788 16.4418708,15.0628062 C16.4418708,15.9608018 16.2708241,16.8053452 15.9180401,17.5857461 C15.5652561,18.366147 15.0521158,19.0396437 14.3786192,19.6169265 C13.7051225,20.1942094 12.8712695,20.6432071 11.8770601,20.9746102 C10.8828508,21.2953229 9.76035635,21.4663697 8.48819599,21.4663697 L0.0106904232,21.4663697 L0.0106904232,0.224498886 L7.81469933,0.224498886 Z M4.92828508,3.91269488 L4.92828508,9.15100223 L7.49398664,9.15100223 C8.03919822,9.15100223 8.53095768,9.10824053 8.96926503,9.03340757 C9.40757238,8.95857461 9.78173719,8.81959911 10.081069,8.62717149 C10.3910913,8.43474388 10.6155902,8.1674833 10.7759465,7.82538976 C10.9363029,7.48329621 11.0111359,7.05567929 11.0111359,6.54253898 C11.0111359,6.04008909 10.9469933,5.62316258 10.8187082,5.28106904 C10.6904232,4.94966592 10.4979955,4.67171492 10.2414254,4.46859688 C9.97416481,4.26547884 9.64276169,4.11581292 9.24721604,4.03028953 C8.84097996,3.94476615 8.37060134,3.90200445 7.81469933,3.90200445 L4.92828508,3.90200445 L4.92828508,3.91269488 Z M8.39198218,17.735412 C9.044098,17.735412 9.57861915,17.6498886 9.98485523,17.4895323 C10.4017817,17.3291759 10.7224944,17.1153675 10.9576837,16.8481069 C11.1928731,16.5808463 11.3532294,16.2922049 11.4387528,15.9608018 C11.5242762,15.6293987 11.5670379,15.2979955 11.5670379,14.955902 C11.5670379,14.5710468 11.5135857,14.2182628 11.4173719,13.9082405 C11.3104677,13.5982183 11.1394209,13.3309577 10.8935412,13.1171492 C10.6476615,12.9033408 10.3162584,12.7429844 9.91002227,12.6253898 C9.50378619,12.5077951 8.99064588,12.454343 8.37060134,12.454343 L4.92828508,12.454343 L4.92828508,17.735412 L8.39198218,17.735412 L8.39198218,17.735412 Z" id="Path"></path>
                <path d="M90.7937639,0.224498886 L90.7937639,21.4449889 L86.4534521,21.4449889 L86.4534521,9.24721604 C86.4534521,8.96926503 86.4641425,8.65924276 86.474833,8.32783964 C86.4855234,7.99643653 86.5175947,7.66503341 86.5496659,7.32293987 L80.9158129,18.2271715 C80.7447661,18.569265 80.5095768,18.8258352 80.210245,18.996882 C79.9109131,19.1679287 79.57951,19.2641425 79.1946548,19.2641425 L78.5211581,19.2641425 C78.1469933,19.2641425 77.8048998,19.1786192 77.5055679,18.996882 C77.2062361,18.8258352 76.9710468,18.569265 76.8,18.2271715 L71.166147,7.2908686 C71.1982183,7.64365256 71.2195991,7.9857461 71.24098,8.31714922 C71.2623608,8.64855234 71.2730512,8.95857461 71.2730512,9.23652561 L71.2730512,21.4342984 L66.9327394,21.4342984 L66.9327394,0.224498886 L70.685078,0.224498886 C70.8988864,0.224498886 71.0806236,0.224498886 71.24098,0.23518931 C71.4013363,0.245879733 71.5403118,0.277951002 71.6685969,0.320712695 C71.796882,0.374164811 71.9037862,0.448997773 72.0106904,0.545211581 C72.1175947,0.652115813 72.2138085,0.791091314 72.3100223,0.972828508 L77.7728285,11.7380846 C77.9652561,12.1122494 78.1576837,12.4864143 78.3287305,12.8926503 C78.5104677,13.288196 78.6815145,13.6944321 78.8418708,14.1113586 C79.0022272,13.6837416 79.1839644,13.2668151 79.3550111,12.8605791 C79.5367483,12.454343 79.7291759,12.0694878 79.932294,11.6953229 L85.3737194,0.972828508 C85.4699332,0.791091314 85.566147,0.64142539 85.6730512,0.545211581 C85.7799555,0.43830735 85.8868597,0.363474388 86.0151448,0.320712695 C86.1434298,0.267260579 86.2824053,0.245879733 86.4427617,0.23518931 C86.603118,0.224498886 86.7848552,0.224498886 86.9986637,0.224498886 L90.7937639,0.224498886 Z" id="Path"></path>
                <polygon id="Path" points="99.8592428 21.4449889 94.9095768 21.4449889 94.9095768 0.224498886 99.8592428 0.224498886"></polygon>
                <path d="M122.480178,0.224498886 L122.480178,21.4449889 L119.914477,21.4449889 C119.540312,21.4449889 119.219599,21.3808463 118.963029,21.2632517 C118.706459,21.145657 118.449889,20.9318486 118.193318,20.6325167 L108.187082,7.97505568 C108.229844,8.34922049 108.251225,8.7233853 108.261915,9.07616927 C108.272606,9.42895323 108.283296,9.76035635 108.283296,10.0703786 L108.283296,21.4449889 L103.942984,21.4449889 L103.942984,0.224498886 L106.530067,0.224498886 C106.743875,0.224498886 106.925612,0.23518931 107.064588,0.256570156 C107.214254,0.277951002 107.342539,0.310022272 107.460134,0.363474388 C107.577728,0.416926503 107.684633,0.491759465 107.791537,0.587973274 C107.898441,0.684187082 108.016036,0.81247216 108.155011,0.983518931 L118.246771,13.7265033 C118.193318,13.3202673 118.161247,12.9247216 118.139866,12.5398664 C118.118486,12.1550111 118.107795,11.7915367 118.107795,11.4601336 L118.107795,0.23518931 L122.480178,0.23518931 L122.480178,0.224498886 Z" id="Path"></path>
                <path d="M136.783964,10.4552339 L144.331403,10.4552339 L144.331403,19.4138085 C143.24098,20.2048998 142.086414,20.7928731 140.857016,21.145657 C139.627617,21.5091314 138.344766,21.6801782 137.008463,21.6801782 C135.265924,21.6801782 133.673051,21.4022272 132.240535,20.8570156 C130.808018,20.311804 129.578619,19.552784 128.563029,18.5906459 C127.547439,17.6285078 126.756347,16.4846325 126.200445,15.15902 C125.644543,13.8334076 125.366592,12.3902004 125.366592,10.8400891 C125.366592,9.25790646 125.633853,7.80400891 126.157684,6.47839644 C126.681514,5.15278396 127.429844,4.00890869 128.402673,3.0467706 C129.375501,2.08463252 130.562138,1.3363029 131.941203,0.801781737 C133.320267,0.267260579 134.870379,2.84217094e-14 136.580846,2.84217094e-14 C137.468151,2.84217094e-14 138.291314,0.0748329621 139.071715,0.213808463 C139.852116,0.363474388 140.568374,0.555902004 141.22049,0.81247216 C141.872606,1.06904232 142.471269,1.36837416 143.016481,1.71046771 C143.561693,2.06325167 144.042762,2.43741648 144.470379,2.84365256 L143.048552,5.02449889 C142.824053,5.36659243 142.535412,5.56971047 142.182628,5.65523385 C141.829844,5.73006682 141.444989,5.64454343 141.038753,5.38797327 C140.653898,5.15278396 140.279733,4.94966592 139.937639,4.77861915 C139.595546,4.60757238 139.242762,4.46859688 138.879287,4.36169265 C138.515813,4.25478842 138.141648,4.17995546 137.746102,4.12650334 C137.350557,4.07305122 136.901559,4.05167038 136.4098,4.05167038 C135.490423,4.05167038 134.65657,4.21202673 133.918931,4.54342984 C133.181292,4.86414254 132.550557,5.32383073 132.037416,5.92249443 C131.513586,6.51046771 131.11804,7.22672606 130.840089,8.06057906 C130.562138,8.89443207 130.423163,9.81380846 130.423163,10.8293987 C130.423163,11.9518931 130.583519,12.9567929 130.893541,13.8334076 C131.203563,14.7100223 131.641871,15.4476615 132.208463,16.0463252 C132.775056,16.6449889 133.459243,17.1046771 134.250334,17.4253898 C135.041425,17.735412 135.91804,17.8957684 136.880178,17.8957684 C137.468151,17.8957684 138.013363,17.8423163 138.494432,17.7247216 C138.975501,17.6071269 139.44588,17.457461 139.894878,17.254343 L139.894878,14.0365256 L137.799555,14.0365256 C137.489532,14.0365256 137.243653,13.9510022 137.072606,13.7906459 C136.901559,13.6302895 136.805345,13.4164811 136.805345,13.1599109 L136.805345,10.4552339 L136.783964,10.4552339 Z" id="Path"></path>
                <path d="M59.7380846,11.8877506 C59.1394209,15.1269488 56.3171492,17.4681514 53.0244989,17.4681514 C52.9710468,17.4681514 52.9175947,17.4681514 52.874833,17.4681514 C52.3937639,17.457461 51.8806236,17.4681514 50.5977728,16.9229399 C49.3256125,16.3777283 49.0476615,16.0570156 48.1175947,15.3300668 C47.5830735,14.9131403 46.813363,14.1113586 46.054343,13.4378619 C45.3060134,14.2503341 43.6062361,16.1318486 43.4565702,16.2815145 C44.108686,16.9870824 45.701559,18.3768374 46.3429844,18.8685969 L46.2467706,18.7830735 C47.6579065,19.95902 49.3790646,20.7821826 51.2712695,21.0922049 C51.8592428,21.1884187 52.3723831,21.2311804 52.8641425,21.2311804 C53.3986637,21.2311804 53.836971,21.2097996 54.3073497,21.1563474 C58.5300668,20.6432071 62.0685969,17.6391982 63.2231626,13.5233853 L59.7380846,11.8877506 Z" id="Path"></path>
                <path d="M47.8717149,6.15768374 C49.1224944,4.71447661 50.9612472,3.80579065 53.0138085,3.80579065 C54.6173719,3.80579065 56.1247216,4.36169265 57.322049,5.33452116 L55.6971047,6.49977728 L63.1910913,9.94209354 L62.4213808,1.73184855 L60.4864143,3.10022272 C58.5300668,1.14387528 55.8681514,0.0320712695 53.0244989,0.0320712695 C49.742539,0.0320712695 46.813363,1.52873051 44.867706,3.88062361 L44.867706,3.88062361 C44.867706,3.88062361 44.867706,3.88062361 44.867706,3.89131403 C44.7928731,3.98752784 38.9238307,11.1608018 36.5077951,13.5340757 C36.37951,13.6623608 36.2405345,13.7799555 36.101559,13.8975501 C36.0801782,13.918931 36.0481069,13.9403118 36.0267261,13.9616927 C35.8556793,14.1113586 35.6846325,14.2610245 35.5135857,14.4 C35.4815145,14.4320713 35.4387528,14.4641425 35.4066815,14.4855234 C35.2463252,14.6138085 35.0859688,14.7420935 34.9363029,14.8596882 C34.8935412,14.8917595 34.8507795,14.9238307 34.8187082,14.955902 C34.711804,15.0414254 34.6048998,15.1162584 34.508686,15.1910913 C34.4659243,15.2231626 34.4231626,15.2552339 34.3910913,15.2873051 C34.3483296,15.3193764 34.3055679,15.3514477 34.2628062,15.3728285 C34.1238307,15.4690423 33.9848552,15.5652561 33.8565702,15.6614699 C33.8138085,15.6935412 33.7817372,15.714922 33.7389755,15.7363029 C33.6106904,15.8218263 33.4824053,15.9073497 33.3541203,15.9928731 C33.322049,16.0142539 33.2899777,16.0356347 33.247216,16.0570156 C33.1296214,16.1318486 33.0227171,16.1959911 32.9158129,16.2601336 C32.8730512,16.2815145 32.8302895,16.3135857 32.7875278,16.3349666 C32.6806236,16.3991091 32.5844098,16.4525612 32.488196,16.5060134 C31.7826281,16.8908686 31.1946548,17.1367483 30.7028953,17.2864143 C30.2111359,17.4360802 29.8262806,17.5109131 29.0458797,17.5109131 C25.2614699,17.3291759 22.2681514,14.0579065 22.5567929,10.1772829 C22.8026726,6.82048998 25.5501114,4.10512249 28.9069042,3.88062361 C31.0556793,3.74164811 32.9478842,4.6610245 34.35902,6.04008909 C34.5942094,6.26458797 36.5077951,8.32783964 36.9140312,8.83028953 C37.64098,8.04988864 39.3835189,5.99732739 39.4476615,5.92249443 C39.1055679,5.47349666 37.6623608,3.95545657 37.566147,3.84855234 C35.5135857,1.55011136 32.5523385,0.0534521158 29.2276169,0.0962138085 C23.7006682,0.171046771 19.0824053,4.58619154 18.7830735,10.1024499 C18.4623608,15.9821826 22.9523385,20.8997773 28.6610245,21.2846325 C28.8641425,21.2953229 29.7728285,21.3273942 30.2538976,21.2739421 C30.745657,21.22049 31.1839644,21.1135857 31.5581292,21.0280624 C32.1567929,20.8890869 32.766147,20.5683742 32.7768374,20.5683742 C32.8089087,20.5576837 32.84098,20.5363029 32.8730512,20.5256125 C32.9906459,20.4721604 33.118931,20.4187082 33.247216,20.3545657 C33.3006682,20.3331849 33.3648107,20.3011136 33.4182628,20.2690423 C33.5465479,20.2048998 33.6855234,20.1407572 33.8244989,20.0659243 C33.877951,20.0445434 33.9207127,20.0124722 33.9741648,19.9910913 C34.3483296,19.7879733 34.7545657,19.5634744 35.1608018,19.3069042 C35.2142539,19.274833 35.2783964,19.2320713 35.3318486,19.2 C35.4815145,19.1037862 35.6311804,19.0075724 35.7915367,18.9006682 C35.8556793,18.8579065 35.9305122,18.8044543 36.0053452,18.7616927 C36.1550111,18.6547884 36.3153675,18.5478842 36.4757238,18.4302895 C36.5398664,18.3768374 36.6040089,18.3340757 36.6788419,18.2806236 C36.8391982,18.163029 36.9995546,18.0347439 37.1599109,17.9171492 C37.2026726,17.885078 37.2454343,17.8530067 37.2775056,17.8209354 C37.3095768,17.7995546 37.3309577,17.7781737 37.363029,17.7567929 C37.5982183,17.5750557 37.8334076,17.3719376 38.0792873,17.1688196 C38.1327394,17.1260579 38.196882,17.0726058 38.2503341,17.0191537 C38.4320713,16.8587973 38.6244989,16.698441 38.8169265,16.5273942 C38.9024499,16.4525612 38.9772829,16.3777283 39.0628062,16.3135857 C39.0948775,16.2815145 39.1376392,16.2494432 39.1697105,16.2173719 C39.308686,16.0890869 39.4476615,15.9608018 39.5973274,15.8218263 C39.6828508,15.7469933 41.8209354,13.6516704 43.2641425,11.898441 C44.7073497,10.1452116 46.2681514,8.04988864 47.8717149,6.15768374 Z" id="Path"></path>
            </g>
        </g>
    </g>
</svg>