<?xml version="1.0" encoding="UTF-8"?>
<svg width="205px" height="48px" viewBox="0 0 205 48" version="1.1" xmlns="http://www.w3.org/2000/svg" xmlns:xlink="http://www.w3.org/1999/xlink">
    <!-- Generator: Sketch 60.1 (88133) - https://sketch.com -->
    <title>amatic</title>
    <desc>Created with Sketch.</desc>
    <g id="design" stroke="none" stroke-width="1" fill="none" fill-rule="evenodd">
        <g id="main" transform="translate(-517.000000, -64.000000)" fill="#FFB124" fill-rule="nonzero">
            <g id="amatic" transform="translate(517.000000, 64.000000)">
                <polygon id="Path" points="0 46.304 204.736 46.304 204.736 47.712 0 47.712"></polygon>
                <path d="M63.2,34.272 L63.296,34.272 L71.776,11.104 L79.488,11.104 L79.488,11.872 C78.816,11.872 78.24,11.936 77.824,12.064 C77.376,12.192 77.056,12.416 76.8,12.704 C76.544,12.992 76.384,13.44 76.288,13.984 C76.192,14.528 76.16,15.2 76.16,16.032 L76.16,37.536 C76.16,38.4 76.224,39.104 76.32,39.648 C76.416,40.192 76.608,40.64 76.864,40.928 C77.12,41.248 77.44,41.44 77.888,41.536 C78.336,41.632 78.88,41.696 79.52,41.696 L79.52,42.464 L67.84,42.464 L67.84,41.696 C68.608,41.696 69.248,41.664 69.76,41.568 C70.272,41.472 70.688,41.28 70.976,40.992 C71.264,40.704 71.488,40.288 71.616,39.712 C71.744,39.168 71.808,38.432 71.808,37.504 L71.808,16.384 L71.712,16.384 L62.208,42.496 L61.664,42.496 L52.192,16.96 L52.096,16.96 L52.096,37.536 C52.096,38.464 52.16,39.2 52.256,39.744 C52.352,40.288 52.576,40.704 52.864,41.024 C53.152,41.312 53.568,41.504 54.048,41.6 C54.56,41.696 55.168,41.728 55.968,41.728 L55.968,42.496 L46.624,42.496 L46.624,41.728 C47.36,41.728 47.968,41.664 48.448,41.568 C48.928,41.472 49.312,41.248 49.6,40.96 C49.888,40.672 50.08,40.256 50.176,39.68 C50.272,39.136 50.336,38.4 50.336,37.504 L50.336,16 C50.336,15.168 50.304,14.496 50.208,13.952 C50.112,13.408 49.92,12.992 49.664,12.672 C49.408,12.352 48.992,12.16 48.512,12.032 C48.032,11.904 47.392,11.84 46.624,11.84 L46.624,11.072 L54.72,11.072 L63.2,34.272 Z" id="Path"></path>
                <path d="M95.456,39.936 C95.456,40.544 95.68,41.024 96.128,41.312 C96.576,41.632 97.408,41.76 98.656,41.728 L98.656,42.496 L89.728,42.496 L89.728,41.728 C90.304,41.728 90.816,41.664 91.264,41.536 C91.712,41.408 92.064,41.184 92.384,40.864 C92.704,40.544 92.992,40.096 93.248,39.52 C93.504,38.944 93.76,38.24 94.016,37.376 L102.464,10.4 L103.232,10.4 L112.32,37.376 C112.672,38.432 112.992,39.232 113.248,39.808 C113.536,40.384 113.824,40.832 114.144,41.088 C114.464,41.376 114.816,41.536 115.2,41.6 C115.584,41.664 116.064,41.696 116.64,41.696 L116.64,42.464 L105.376,42.464 L105.376,41.696 C106.4,41.696 107.136,41.568 107.552,41.28 C107.968,40.992 108.192,40.544 108.192,39.904 C108.192,39.648 108.16,39.392 108.096,39.136 C108.032,38.88 107.904,38.432 107.712,37.824 L105.888,32.448 L97.568,32.448 L95.68,38.528 C95.552,39.232 95.456,39.68 95.456,39.936 Z M101.504,19.552 L98.112,30.752 L105.312,30.752 L101.6,19.552 L101.504,19.552 Z" id="Path"></path>
                <path d="M135.744,39.744 C135.872,40.288 136.096,40.704 136.384,41.024 C136.704,41.312 137.12,41.504 137.696,41.6 C138.272,41.696 138.976,41.728 139.84,41.728 L139.84,42.496 L126.72,42.496 L126.72,41.728 C127.584,41.728 128.32,41.696 128.864,41.6 C129.44,41.536 129.856,41.344 130.176,41.056 C130.496,40.768 130.688,40.32 130.816,39.776 C130.944,39.2 131.008,38.464 131.008,37.536 L131.008,12.864 L127.584,12.864 C126.592,12.864 125.728,12.96 125.056,13.152 C124.352,13.344 123.808,13.632 123.36,14.08 C122.912,14.496 122.592,15.072 122.4,15.744 C122.176,16.416 122.08,17.248 122.048,18.272 L121.28,18.272 L121.28,11.136 L145.344,11.136 L145.344,18.24 L144.576,18.24 C144.512,16.288 144.064,14.88 143.232,14.08 C142.4,13.28 141.024,12.864 139.04,12.864 L135.552,12.864 L135.552,37.536 C135.552,38.464 135.616,39.2 135.744,39.744 Z" id="Path"></path>
                <path d="M167.872,11.904 C167.072,11.904 166.4,11.936 165.856,12.032 C165.312,12.128 164.896,12.32 164.608,12.64 C164.32,12.96 164.096,13.376 163.968,13.92 C163.84,14.464 163.808,15.168 163.808,16.064 L163.808,37.568 C163.808,38.528 163.872,39.264 164.032,39.808 C164.192,40.352 164.416,40.768 164.704,41.088 C165.024,41.376 165.408,41.568 165.952,41.632 C166.464,41.696 167.104,41.76 167.872,41.76 L167.872,42.528 L155.2,42.528 L155.2,41.76 C156.032,41.76 156.736,41.696 157.248,41.6 C157.792,41.504 158.176,41.28 158.496,40.96 C158.784,40.64 158.976,40.224 159.104,39.68 C159.232,39.136 159.264,38.432 159.264,37.6 L159.264,16.096 C159.264,15.2 159.2,14.496 159.104,13.952 C158.976,13.408 158.784,12.992 158.464,12.672 C158.144,12.352 157.728,12.16 157.216,12.064 C156.672,11.968 156,11.936 155.2,11.936 L155.2,11.168 L167.872,11.168 L167.872,11.904 Z" id="Path"></path>
                <path d="M201.824,20.8 C201.6,18.112 200.736,15.936 199.264,14.368 C197.792,12.768 195.872,11.968 193.568,11.968 C190.528,11.968 188.288,13.312 186.848,15.968 C185.408,18.624 184.672,22.592 184.672,27.808 C184.672,30.24 184.896,32.32 185.312,34.08 C185.76,35.84 186.368,37.248 187.2,38.4 C188.032,39.52 189.024,40.352 190.208,40.864 C191.392,41.376 192.704,41.632 194.144,41.632 C196.064,41.632 197.696,41.152 199.04,40.16 C200.352,39.168 201.6,37.632 202.72,35.52 L203.488,35.904 C201.216,40.8 197.632,43.264 192.8,43.264 C191.104,43.264 189.44,42.944 187.808,42.272 C186.208,41.6 184.768,40.64 183.488,39.328 C182.208,38.016 181.184,36.416 180.416,34.464 C179.648,32.544 179.264,30.304 179.264,27.744 C179.264,25.248 179.616,22.976 180.288,20.864 C180.992,18.752 181.952,16.928 183.2,15.392 C184.448,13.856 185.92,12.64 187.584,11.776 C189.28,10.912 191.136,10.496 193.12,10.496 C194.08,10.496 194.944,10.592 195.712,10.784 C196.48,10.976 197.12,11.2 197.664,11.456 C198.208,11.712 198.688,11.936 199.104,12.128 C199.52,12.32 199.872,12.416 200.16,12.416 C200.48,12.416 200.736,12.256 200.896,11.968 C201.056,11.68 201.184,11.168 201.28,10.464 L202.112,10.464 L202.688,20.832 L201.824,20.832 L201.824,20.8 Z" id="Path"></path>
                <path d="M10.016,39.36 C10.016,40.16 10.336,40.768 10.976,41.184 C11.616,41.6 12.768,41.76 14.496,41.728 L14.496,42.752 L1.952,42.752 L1.952,41.728 C2.752,41.728 3.488,41.632 4.096,41.472 C4.704,41.312 5.248,41.024 5.696,40.576 C6.144,40.16 6.56,39.552 6.912,38.816 C7.264,38.08 7.648,37.12 8,35.968 L19.84,0.256 L20.928,0.256 L33.6,36.032 C34.112,37.408 34.528,38.496 34.912,39.264 C35.296,40.032 35.712,40.608 36.16,40.96 C36.608,41.312 37.12,41.536 37.664,41.632 C38.208,41.728 38.88,41.76 39.68,41.76 L39.68,42.784 L23.936,42.784 L23.936,41.76 C25.376,41.76 26.4,41.568 26.976,41.216 C27.552,40.864 27.84,40.256 27.84,39.392 C27.84,39.072 27.808,38.72 27.712,38.4 C27.616,38.048 27.456,37.472 27.168,36.672 L24.608,29.536 L12.992,29.536 L10.368,37.568 C10.112,38.432 10.016,39.04 10.016,39.36 Z M18.464,12.352 L13.728,27.168 L23.808,27.168 L18.592,12.352 L18.464,12.352 L18.464,12.352 Z" id="Path"></path>
            </g>
        </g>
    </g>
</svg>