<?xml version="1.0" encoding="UTF-8"?>
<svg width="122px" height="48px" viewBox="0 0 122 48" version="1.1" xmlns="http://www.w3.org/2000/svg" xmlns:xlink="http://www.w3.org/1999/xlink">
    <!-- Generator: Sketch 60.1 (88133) - https://sketch.com -->
    <title>elk</title>
    <desc>Created with Sketch.</desc>
    <g id="design" stroke="none" stroke-width="1" fill="none" fill-rule="evenodd">
        <g id="main" transform="translate(-248.000000, -160.000000)" fill="#FFB124" fill-rule="nonzero">
            <g id="elk" transform="translate(248.000000, 160.000000)">
                <path d="M38.8232113,3.87583099 L38.8232113,10.5755493 L14.1261972,10.5755493 C14.1261972,10.5755493 13.3852394,10.5295775 12.936338,11.027831 C12.5117746,11.4983662 12.5476056,12.1446761 12.5476056,12.1446761 L12.5455775,13.0641127 L38.7752113,13.0641127 L38.7752113,19.619831 L12.5361127,19.619831 L12.5428732,20.5189859 C12.5428732,20.5189859 12.5658592,21.1808451 12.9620282,21.5310423 C13.5089577,22.0157746 14.0112676,21.9643944 14.0112676,21.9643944 L38.8232113,21.9643944 L38.8232113,28.6641127 L10.4707606,28.6641127 C10.4707606,28.6641127 7.48529577,28.8858592 5.60112676,26.8941972 C3.77374648,24.9620282 3.82766207,22.523493 3.82766207,22.523493 L3.83256338,10.2868732 C3.83256338,10.2868732 3.64867606,7.58467606 5.59571831,5.472 C7.16078873,3.77374648 10.0056338,3.8663662 10.0056338,3.8663662 L38.8232113,3.87583099 Z" id="Path"></path>
                <path d="M6.40360563,47.7248451 C8.72923944,47.7248451 9.58242254,46.4322254 9.58242254,45.192338 C9.58242254,41.9743099 4.47819718,43.0857465 4.47819718,41.147493 C4.47819718,40.3341972 5.22794366,39.7784789 6.24878873,39.7784789 C7.19188732,39.7784789 8.0964507,40.0881127 8.74208451,40.811493 L9.38839437,40.0238873 C8.66501408,39.2612958 7.64416901,38.8090141 6.33938028,38.8090141 C4.63369014,38.8090141 3.36743662,39.7913239 3.36743662,41.2123944 C3.36743662,44.2877746 8.47098592,43.0472113 8.47098592,45.2694085 C8.47098592,45.9414085 7.98016901,46.7682254 6.4428169,46.7682254 C5.40467466,46.7691457 4.41800802,46.3161929 3.74197183,45.528338 L3.09566197,46.3551549 C3.80687324,47.1556056 4.9176338,47.7248451 6.40360563,47.7248451" id="Path"></path>
                <polygon id="Path" points="24.647662 47.5693521 24.647662 39.9076056 27.3863662 39.9076056 27.3863662 38.9509859 20.8489014 38.9509859 20.8489014 39.9076056 23.5754366 39.9076056 23.5754366 47.5693521"></polygon>
                <path d="M42.6591549,47.7248451 C44.9976338,47.7248451 46.1861408,46.3551549 46.1861408,44.2100282 L46.1861408,38.951662 L45.1010704,38.951662 L45.1010704,44.1971831 C45.1010704,45.7737465 44.2478873,46.7682254 42.6584789,46.7682254 C41.0697465,46.7682254 40.2294085,45.7737465 40.2294085,44.1971831 L40.2294085,38.9509859 L39.144338,38.9509859 L39.144338,44.2228732 C39.144338,46.3423099 40.3328451,47.7248451 42.6584789,47.7248451" id="Path"></path>
                <path d="M61.4839437,38.9509859 C64.1719437,38.9509859 65.9026479,40.8250141 65.9026479,43.2669296 C65.9026479,45.7216901 64.1712676,47.5693521 61.4839437,47.5693521 L61.4839437,47.5693521 L58.5383662,47.5693521 L58.5383662,38.9509859 Z M61.4839437,39.9069296 L59.6105915,39.9069296 L59.6105915,46.6134085 L61.4839437,46.6134085 C63.5770141,46.6134085 64.7918873,45.1145915 64.7918873,43.2669296 C64.7918873,41.4064225 63.6162254,39.9069296 61.4839437,39.9069296 L61.4839437,39.9069296 Z" id="Path"></path>
                <polygon id="Path" points="77.9188732 47.5693521 78.9910986 47.5693521 78.9910986 38.951662 77.9188732 38.951662"></polygon>
                <path d="M95.2712113,38.8090141 C97.8165634,38.8090141 99.5607887,40.7215775 99.5607887,43.2669296 C99.5607887,45.8122817 97.8165634,47.724169 95.2712113,47.724169 C92.7258592,47.724169 90.9944789,45.8122817 90.9944789,43.2669296 C90.9944789,40.7215775 92.7258592,38.8090141 95.2712113,38.8090141 Z M95.2712113,39.7649577 C93.3329577,39.7649577 92.1059155,41.2516056 92.1059155,43.2662535 C92.1059155,45.2694085 93.3329577,46.7682254 95.2712113,46.7682254 C97.1966197,46.7689014 98.4500282,45.2694085 98.4500282,43.2669296 C98.4500282,41.2509296 97.1966197,39.7649577 95.2712113,39.7649577 Z" id="Path"></path>
                <path d="M114.35493,47.7248451 C116.680563,47.7248451 117.533746,46.4322254 117.533746,45.192338 C117.533746,41.9743099 112.429521,43.0857465 112.429521,41.147493 C112.429521,40.3341972 113.179268,39.7784789 114.200113,39.7784789 C115.143211,39.7784789 116.047775,40.0881127 116.693408,40.811493 L117.339718,40.0238873 C116.616338,39.2612958 115.595493,38.8090141 114.290704,38.8090141 C112.585014,38.8090141 111.318761,39.7913239 111.318761,41.2123944 C111.318761,44.2877746 116.422986,43.0472113 116.422986,45.2694085 C116.422986,45.9414085 115.931493,46.7682254 114.394141,46.7682254 C113.356018,46.7690549 112.369388,46.3161186 111.693296,45.528338 L111.046986,46.3551549 C111.758197,47.1556056 112.868958,47.7248451 114.35493,47.7248451" id="Path"></path>
                <polygon id="Path" points="40.8500282 3.82647887 49.511662 3.82647887 49.511662 21.9150423 76.1185352 21.9150423 76.1185352 28.6627606 40.8500282 28.6627606"></polygon>
                <polyline id="Path" points="100.524169 3.97047887 110.86107 3.97047887 96.2176901 16.0772958 111.099718 28.5674366 100.237521 28.5674366 86.2377465 16.8425915 86.2154366 28.5674366 77.7444507 28.5674366 77.7444507 3.97047887 86.2154366 3.97047887 86.1660845 14.2587042"></polyline>
                <path d="M53.3381408,0 L53.3381408,18.0892394 L73.9186479,18.0892394 L73.9186479,0.144 L90.0608451,0.144 L90.0290704,6.7835493 L99.2950986,0.144 L121.494085,0.144 L102.196056,16.0996056 L121.612394,32.3939155 L98.8461972,32.3939155 L90.0486761,25.0262535 L90.0351549,32.3939155 L79.9450141,32.3939155 L42.6496901,32.4899155 L42.6496901,32.4912676 L10.1989859,32.4987042 C8.82659155,32.4987042 5.36112676,32.208 2.8211831,29.5240563 C0.246656555,26.8026522 0.013010862,23.5512488 0.000929884478,22.6268557 L0.000578218337,22.4978028 L0.00676056338,10.3774648 C-0.0358309859,9.30456338 0.0676056338,5.82625352 2.78129577,2.87864789 C5.20969014,0.244056338 8.8644507,0.0392112676 9.92585915,0.0392112676 L9.92585915,0.0392112676 L53.3381408,0 Z M51.4255775,1.91256338 L9.92653521,1.95177465 C9.0611831,1.95177465 6.08923944,2.112 4.18952113,4.17464789 C1.88214085,6.67943662 1.89160563,9.71966197 1.92,10.3369014 L1.92,10.3369014 L1.91432301,22.5086197 C1.9091831,22.9494085 1.96326761,25.8334648 4.21115493,28.2091268 C6.24,30.3535775 9.07470423,30.5847887 10.1989859,30.5847887 C10.3409577,30.5847887 10.4511549,30.5814085 10.523493,30.5773521 L10.523493,30.5773521 L40.7364507,30.5773521 L40.7364507,30.5766761 L78.0317746,30.48 L88.1252958,30.48 L88.1442254,20.9347606 L99.5425352,30.4806761 L116.356732,30.4806761 L99.2072113,16.0881127 L116.178254,2.05723944 L99.9103099,2.05723944 L88.0982535,10.5214648 L88.1388169,2.05723944 L75.8325634,2.05723944 L75.8325634,20.0018028 L51.4255775,20.0018028 L51.4255775,1.91256338 Z" id="Path"></path>
                <path d="M38.8232113,3.87583099 L38.8232113,10.5755493 L14.1261972,10.5755493 C14.1261972,10.5755493 13.3852394,10.5295775 12.936338,11.027831 C12.5117746,11.4983662 12.5476056,12.1446761 12.5476056,12.1446761 L12.5455775,13.0641127 L38.7752113,13.0641127 L38.7752113,19.619831 L12.5361127,19.619831 L12.5428732,20.5189859 C12.5428732,20.5189859 12.5658592,21.1808451 12.9620282,21.5310423 C13.5089577,22.0157746 14.0112676,21.9643944 14.0112676,21.9643944 L38.8232113,21.9643944 L38.8232113,28.6641127 L10.4707606,28.6641127 C10.4707606,28.6641127 7.48529577,28.8858592 5.60112676,26.8941972 C3.77374648,24.9620282 3.82766207,22.523493 3.82766207,22.523493 L3.83256338,10.2868732 C3.83256338,10.2868732 3.64867606,7.58467606 5.59571831,5.472 C7.16078873,3.77374648 10.0056338,3.8663662 10.0056338,3.8663662 L38.8232113,3.87583099 Z" id="Path"></path>
                <polygon id="Path" points="40.8500282 3.82647887 49.511662 3.82647887 49.511662 21.9150423 76.1185352 21.9150423 76.1185352 28.6627606 40.8500282 28.6627606"></polygon>
                <polyline id="Path" points="100.524169 3.97047887 110.86107 3.97047887 96.2176901 16.0772958 111.099718 28.5674366 100.237521 28.5674366 86.2377465 16.8425915 86.2154366 28.5674366 77.7444507 28.5674366 77.7444507 3.97047887 86.2154366 3.97047887 86.1660845 14.2587042"></polyline>
            </g>
        </g>
    </g>
</svg>