<?xml version="1.0" encoding="UTF-8"?>
<svg width="128px" height="48px" viewBox="0 0 128 48" version="1.1" xmlns="http://www.w3.org/2000/svg" xmlns:xlink="http://www.w3.org/1999/xlink">
    <!-- Generator: Sketch 60.1 (88133) - https://sketch.com -->
    <title>1x2_gaming</title>
    <desc>Created with Sketch.</desc>
    <g id="design" stroke="none" stroke-width="1" fill="none" fill-rule="evenodd">
        <g id="main" transform="translate(-64.000000, -64.000000)" fill="#FFB124" fill-rule="nonzero">
            <g id="1x2_gaming" transform="translate(64.000000, 64.000000)">
                <path d="M40.0384713,5.28773435 L40.3089702,5.49971719 C40.4893029,5.65870433 40.5794692,5.72936527 40.633569,5.78236099 C46.259947,10.5696402 49.487901,17.2824303 49.487901,24.1895381 C49.487901,37.3148092 38.5958103,47.9846125 25.1970959,47.9846125 C20.4723811,47.9846125 15.0624022,46.4654021 12.0688806,44.3102431 L12.0688806,44.3102431 L11.8344481,44.1335908 L18.9215205,33.9407489 L20.2379486,33.9407489 L25.2331625,27.2279588 L30.0660769,33.9230837 C30.6258921,33.9392128 32.6890474,33.9406154 34.5123219,33.9407373 L35.0252242,33.9407489 L27.739786,23.7832376 L34.7006255,14.3676662 L33.636663,14.3676662 L40.0384713,5.28773435 Z M40.6876688,14.350001 C36.9908499,14.350001 35.1334238,15.8162157 35.1334238,18.7309798 L35.1334238,18.7309798 L35.151457,22.2993577 L39.4073071,19.2609369 L39.4253404,17.6357351 C39.4253404,16.8937951 39.8401054,16.5404904 40.6696355,16.5404904 C41.6253984,16.5404904 42.1122965,16.9291256 42.1122965,17.6887308 L42.1122965,17.6887308 L42.1122965,19.8438897 C42.1122965,20.3738468 41.4811323,21.1687825 40.2188039,22.1933663 L40.2188039,22.1933663 L36.9187168,24.7018299 C35.7285215,25.7617442 35.1334238,26.7863279 35.1334238,27.7755812 L35.1334238,27.7755812 L35.1334238,32.4921995 L46.33208,32.4921995 L46.3140468,29.9837358 L39.4614069,29.9660706 L39.4433736,28.6765083 C39.4433736,27.757916 40.0384713,26.7863279 41.2286666,25.7794094 L41.2286666,25.7794094 L44.5287538,23.3062762 C45.7369824,22.3170229 46.33208,21.3454349 46.33208,20.4268426 L46.33208,20.4268426 L46.33208,17.7417265 C46.33208,15.4805762 44.4566207,14.350001 40.6876688,14.350001 Z" id="Path"></path>
                <path d="M24.6019983,0.147150346 C29.2004803,0.147150346 35.0071909,1.84301311 38.1089122,4.06883299 L38.1089122,4.06883299 L38.3613778,4.24548536 L30.8775737,14.1733486 L29.5791788,14.1733486 L24.583965,20.8861387 L19.7510505,14.1910139 C19.3511825,14.179493 18.1843043,14.1754858 16.8857004,14.174092 L14.7919032,14.1733486 L22.0773415,24.33086 L15.116502,33.7464313 L16.1804645,33.7817618 L9.77865617,42.8616937 L9.50815722,42.6497108 C9.32782459,42.4907237 9.23765828,42.4200628 9.18355849,42.3670671 C3.53914721,37.5797878 0.31119315,30.8669977 0.31119315,23.9422247 C0.31119315,10.8169536 11.2032839,0.147150346 24.6019983,0.147150346 Z M9.23765828,14.2440096 L4.9998415,14.2440096 L4.9998415,16.2755118 L6.13593706,16.2755118 C7.30809915,16.2755118 7.88516356,16.8054689 7.88516356,17.8653832 L7.88516356,17.8653832 L7.88516356,32.4745343 L13.2049761,32.4745343 L13.2049761,18.2363532 C13.2049761,15.5689023 11.8705147,14.2440096 9.23765828,14.2440096 L9.23765828,14.2440096 Z" id="Path"></path>
                <path d="M58.5586323,14.7563014 C60.0193266,14.7563014 61.1193556,15.2862586 61.8587194,16.3108423 L61.8587194,16.3108423 L61.966919,15.02128 L65.5014385,15.02128 L65.537505,15.1449367 C65.5014385,15.9575376 65.4834052,16.9644561 65.4834052,18.7309798 L65.4834052,25.3907742 C65.4834052,28.0052293 64.8342078,29.7540878 63.5358128,30.8669977 C62.3636507,31.856251 60.6324575,32.3685428 58.468466,32.3685428 C56.755306,32.3685428 55.0962458,32.0329033 54.01425,31.4499505 L54.01425,31.4499505 L53.942117,31.41462 L54.7536138,28.3408688 L54.8978799,28.4115297 C55.655277,28.8354954 56.9897384,29.2947916 58.4143662,29.2947916 C59.5504617,29.2947916 61.5160874,28.9061564 61.5160874,26.2563708 L61.5160874,26.2563708 L61.5160874,25.7617442 C60.7947569,26.645006 59.568495,27.1396327 58.2340335,27.1396327 C55.1142791,27.1396327 52.8961877,24.6841647 52.8961877,21.1864477 C52.8961877,17.4590827 55.2765784,14.7563014 58.5586323,14.7563014 Z M59.3340626,17.8123875 C57.9094348,17.8123875 56.9536719,19.1372802 56.9536719,21.0981216 C56.9536719,22.9353062 57.9094348,24.1718728 59.3160293,24.1718728 C60.2176925,24.1718728 61.0652558,23.6065852 61.281655,22.7586539 C61.3718213,22.5290058 61.4800209,22.1933663 61.4800209,21.7870658 L61.4800209,21.7870658 L61.4800209,20.0205421 C61.4800209,19.8085593 61.3898546,19.5789112 61.3357548,19.3669283 C61.0652558,18.377675 60.2898255,17.8123875 59.3340626,17.8123875 Z" id="Path"></path>
                <path d="M71.3081491,14.7386362 C74.8967685,14.7386362 76.8263276,16.5758209 76.8263276,20.0558726 L76.8263276,20.0558726 L76.8263276,24.2425338 C76.8263276,25.5320961 76.8623941,26.5920103 77.0066602,27.1926284 L77.0066602,27.1926284 L76.988627,27.4046112 L73.3098413,27.4046112 L73.1114754,26.2033751 C72.2819453,27.1043022 71.0737167,27.5282679 69.6310557,27.5282679 C66.980166,27.5282679 65.5916048,25.5674266 65.5916048,23.7302419 C65.5916048,20.7271516 68.1523281,19.0666193 72.8409765,19.0312888 L72.8409765,19.0312888 L72.8409765,18.9959583 C72.8409765,18.3423446 72.4081782,17.5474089 70.6589517,17.5474089 C69.37859,17.5474089 67.9900288,17.9890398 67.2686983,18.4306708 L67.2686983,18.4306708 L67.1424654,18.5189969 L66.3850684,15.8868766 L66.4752347,15.8338809 C66.9440995,15.5689023 68.693326,14.7386362 71.3081491,14.7386362 Z M72.877043,21.5927482 C70.7130515,21.6104134 69.5408894,22.2110315 69.5408894,23.3592719 C69.5408894,24.1718728 70.0458207,24.6664995 70.9114174,24.6664995 C71.7409474,24.6664995 72.534411,24.1188771 72.7868767,23.3769372 C72.8409765,23.2002848 72.877043,22.9883019 72.877043,22.7763191 L72.877043,22.7763191 Z" id="Path"></path>
                <path d="M96.4825841,20.0735378 L96.4825841,27.386946 L92.5152663,27.386946 L92.5152663,20.6211602 C92.5152663,18.8723017 91.9382019,17.9890398 90.8201396,17.9890398 C89.7381438,17.9890398 89.3053455,18.8369712 89.1610794,19.2079412 C89.0889463,19.4729197 89.0889463,19.8262245 89.0889463,20.1265335 L89.0889463,27.386946 L85.1216285,27.386946 L85.1216285,20.3915121 C85.1216285,19.490585 84.8871961,17.9890398 83.4445351,17.9890398 C82.5609052,17.9890398 82.0199073,18.6426536 81.7854749,19.2432717 C81.659242,19.5435807 81.6953086,19.8968854 81.6953086,20.161864 L81.6953086,27.4046112 L77.7279907,27.4046112 L77.7279907,18.9959583 C77.7279907,17.5474089 77.6378244,16.2931771 77.6017579,15.1626019 L77.5656914,15.0389452 L81.0280778,15.0389452 L81.1723439,16.5404904 C81.8035081,15.692559 82.9215704,14.7561852 84.8511296,14.7561852 C86.4019902,14.7561852 87.6643186,15.4982414 88.2594163,16.734808 C88.7282811,16.1341899 89.2512457,15.6748938 89.8102769,15.3569195 C90.5496406,14.950619 91.3611375,14.7561852 92.2267341,14.7561852 C94.8595905,14.7386362 96.4825841,16.734808 96.4825841,20.0735378 Z" id="Path"></path>
                <polygon id="Path" points="97.3842473 15.0036148 101.351565 15.0036148 101.351565 27.3692807 97.3842473 27.3692807"></polygon>
                <path d="M114.155182,20.0382073 L114.155182,27.3692807 L110.187864,27.3692807 L110.187864,20.4798383 C110.187864,18.8369712 109.538666,17.9890398 108.348471,17.9890398 C107.158276,17.9890398 106.653344,18.9076322 106.491045,19.3139326 C106.418912,19.5082502 106.418912,19.790894 106.418912,20.1971945 L106.418912,27.3516155 L102.271262,27.3516155 L102.271262,18.9429626 C102.271262,17.4944132 102.235195,16.2401814 102.181095,15.1096062 L102.181095,14.9859495 L105.715615,14.9859495 L105.877914,16.5404904 C106.310712,15.9575376 107.482874,14.7386362 109.646866,14.7386362 C112.460055,14.7739667 114.155182,16.734808 114.155182,20.0382073 Z" id="Path"></path>
                <path d="M120.034025,14.7386362 C121.49472,14.7386362 122.594749,15.2685933 123.334113,16.2931771 L123.334113,16.2931771 L123.442312,15.0036148 L126.994865,15.0036148 L127.030931,15.1272714 C126.986975,15.7875097 126.978734,16.5760279 126.977188,17.7960333 L126.976832,25.3731089 C126.976832,27.987564 126.309601,29.7364225 125.011206,30.8493325 C123.857077,31.8385857 122.107851,32.3508776 119.943859,32.3508776 C118.230699,32.3508776 116.571639,32.0152381 115.489643,31.4322853 L115.489643,31.4322853 L115.41751,31.3969548 L116.229007,28.3232035 L116.373273,28.3938645 C117.13067,28.8178302 118.465132,29.2771263 119.889759,29.2771263 C121.043888,29.2771263 123.009514,28.8884911 123.009514,26.2387056 L123.009514,26.2387056 L123.009514,25.7440789 C122.288183,26.6273408 121.061921,27.1219674 119.72746,27.1219674 C116.607706,27.1219674 114.371581,24.6664995 114.371581,21.1687825 C114.371581,17.4414175 116.751972,14.7386362 120.034025,14.7386362 Z M120.827489,17.8123875 C119.402861,17.8123875 118.447098,19.1372802 118.447098,21.0981216 C118.447098,22.9353062 119.402861,24.1718728 120.809456,24.1718728 C121.693086,24.1718728 122.468516,23.6065852 122.702948,22.7586539 C122.775081,22.5290058 122.811148,22.1933663 122.811148,21.7870658 L122.811148,21.7870658 L122.811148,20.0205421 C122.811148,19.8085593 122.811148,19.5789112 122.757048,19.3669283 C122.468516,18.377675 121.783252,17.8123875 120.827489,17.8123875 Z" id="Path"></path>
                <ellipse id="Path" cx="99.3498729" cy="11.8415373" rx="2.00169218" ry="1.96084132"></ellipse>
            </g>
        </g>
    </g>
</svg>