<?xml version="1.0" encoding="UTF-8"?>
<svg width="156px" height="48px" viewBox="0 0 156 48" version="1.1" xmlns="http://www.w3.org/2000/svg" xmlns:xlink="http://www.w3.org/1999/xlink">
    <!-- Generator: Sketch 60.1 (88133) - https://sketch.com -->
    <title>thunderkick</title>
    <desc>Created with Sketch.</desc>
    <g id="design" stroke="none" stroke-width="1" fill="none" fill-rule="evenodd">
        <g id="main" transform="translate(-547.000000, -448.000000)" fill="#FFB124">
            <g id="thunderkick" transform="translate(547.000000, 448.000000)">
                <path d="M155.50464,30.35424 C155.46688,30.19296 154.4,26.00992 152.2352,24.0304 C153.29728,23.03104 155.46016,21.05376 154.73952,16.56224 C154.69152,16.27104 154.42432,16.0704 154.1344,16.10048 L151.28288,16.41984 C151.13344,16.43616 150.99584,16.51424 150.904,16.63424 C150.81376,16.75488 150.77696,16.90688 150.79936,17.05536 C150.80576,17.09984 151.38656,20.34688 149.1776,22.29856 L149.232,16.7616 C149.232,16.60544 149.1664,16.45376 149.0496,16.34784 C148.93184,16.24288 148.77504,16.1936 148.61888,16.21056 L145.76768,16.52864 C145.48256,16.56064 145.272,16.8048 145.27672,17.09056 L145.61024,30.94976 C145.61504,31.10496 145.68192,31.25184 145.79968,31.35232 C145.90528,31.4448 146.04064,31.4944 146.18144,31.488 C146.19424,31.488 146.20864,31.488 146.22336,31.48608 L148.6352,31.21664 C148.90464,31.18624 149.10944,30.96544 149.1248,30.69728 L149.32672,26.36736 C150.08576,27.15616 151.36576,29.17184 151.56864,30.8624 C151.60448,31.16352 151.87584,31.37728 152.1776,31.34432 L155.02816,31.02624 C155.18528,31.00864 155.32576,30.92544 155.41632,30.79808 C155.50688,30.66912 155.5392,30.50752 155.50464,30.35424 Z" id="Path"></path>
                <path d="M139.0992,16.37056 C138.30144,16.42176 135.68448,16.89056 135.4672,20.74432 C135.43936,21.23424 135.41216,21.70048 135.38528,22.1424 C135.2256,24.76352 135.11328,26.6592 135.44896,28.29984 C135.6512,29.28 136.47232,31.56096 139.71872,31.56096 C139.92032,31.56096 140.13056,31.55168 140.34208,31.5344 C141.69632,31.4224 142.70016,30.98848 143.32768,30.24288 C144.21824,29.18432 144.0976,27.82624 144.03456,27.09664 L144.02208,26.95296 C143.99872,26.6544 143.74592,26.43424 143.44832,26.44416 L141.39968,26.53376 C141.2432,26.54112 141.09664,26.61472 140.99712,26.736 C140.89824,26.86048 140.85504,27.01856 140.88064,27.17376 C140.9264,27.448 140.97248,28.32736 140.61376,28.75552 C140.5232,28.86688 140.3552,29.01536 139.9696,29.01984 L139.94208,29.02176 C139.64672,29.02176 139.42528,28.9344 139.2496,28.74752 C138.94912,28.43296 138.61408,27.6656 138.71008,25.78432 C138.73344,25.34848 138.75328,24.83872 138.77504,24.29728 C138.8304,22.89056 138.89376,21.296 139.02464,20.29536 L139.02656,20.26176 C139.1264,19.50048 139.27168,19.17792 139.90848,19.14912 C140.36512,19.12992 140.68192,19.22304 140.85088,19.42432 C141.06336,19.68224 141.04,20.1216 141.01312,20.2656 C140.98144,20.42688 141.02272,20.59232 141.12448,20.72 C141.22848,20.848 141.38368,20.92288 141.54784,20.92416 L144.01376,20.95936 C144.30944,20.95808 144.56288,20.72672 144.57312,20.42784 C144.57568,20.36416 144.61568,18.85728 143.48,17.68416 C142.52,16.68992 141.04192,16.24416 139.0992,16.37056 Z" id="Path"></path>
                <path d="M133.50336,15.97184 L130.87264,16.30976 C130.59648,16.34496 130.392,16.57792 130.39072,16.85536 L130.36672,30.52864 C130.36672,30.6816 130.42976,30.82848 130.5424,30.93376 C130.6512,31.03424 130.79616,31.08736 130.94304,31.08096 C130.94816,31.08096 130.95488,31.08096 130.95936,31.08096 L133.8208,30.86784 C134.11328,30.848 134.33728,30.60352 134.33216,30.31168 L134.12544,16.51104 C134.1216,16.35296 134.05408,16.20416 133.93376,16.1024 C133.816,15.99872 133.65952,15.9504 133.50336,15.97184 Z" id="Path"></path>
                <path d="M126.61408,24.55424 C127.41248,23.50176 129.43232,21.06176 129.2224,16.78752 C129.21568,16.64 129.14976,16.49984 129.03808,16.40096 C128.92864,16.30368 128.78208,16.25376 128.63584,16.26368 L126.33728,16.41664 C126.03296,16.43744 125.8016,16.6992 125.82432,17.00416 C125.904,18.2144 125.10336,20.7968 123.95456,22.42304 L124.11936,17.16864 C124.12352,17.01856 124.06592,16.8736 123.96032,16.76608 C123.8544,16.66112 123.70976,16.60064 123.56,16.60352 L120.60128,16.64992 C120.45312,16.65184 120.31424,16.71168 120.21024,16.81728 C120.10944,16.92288 120.05536,17.06496 120.057833,17.21184 L120.3552,31.16672 C120.35744,31.32352 120.4272,31.47168 120.5472,31.5744 C120.6656,31.67616 120.82496,31.72224 120.97728,31.70176 L123.28448,31.3968 C123.55584,31.36 123.76,31.13056 123.76256,30.85728 L123.79872,26.76608 C124.26784,27.04864 125.63904,29.03808 125.8736,31.00224 C125.9056,31.2816 126.14368,31.49312 126.42336,31.48992 L128.85664,31.48 C128.86784,31.48 128.88,31.47808 128.89184,31.47808 C129.02592,31.46848 129.15456,31.4112 129.24928,31.31232 C129.35296,31.20544 129.40928,31.06496 129.40512,30.91488 C129.39456,30.41056 128.56448,26.1248 126.61408,24.55424 Z" id="Path"></path>
                <path d="M114.2336,16.0992 C118.44,16.0992 119.1104,18.66752 119.248,20.60064 C119.44032,23.28672 118.55008,24.61472 117.59328,25.3504 L117.59328,25.3504 L118.96384,30.52992 C118.99104,30.68352 118.95104,30.84288 118.85696,30.96416 C118.76288,31.08736 118.61792,31.16544 118.46336,31.17664 L118.46336,31.17664 L116.53312,31.328 C116.51776,31.32928 116.5024,31.32928 116.48832,31.32928 C116.22464,31.32928 115.9952,31.14304 115.94656,30.88 L115.94656,30.88 L114.85376,26.22496 L113.86848,26.27808 L113.86688,30.6256 C113.86688,30.78048 113.80448,30.92736 113.69024,31.03104 C113.57856,31.13664 113.42656,31.18912 113.27328,31.17472 L113.27328,31.17472 L111.34144,31.02496 C111.05792,31.00224 110.83808,30.768 110.83264,30.48224 L110.83264,30.48224 L110.640582,16.99936 C110.6368,16.73312 110.82528,16.49984 111.08672,16.44864 C112.27008,16.21728 113.33024,16.0992 114.2336,16.0992 Z M114.39808,19.21056 C114.224,19.21056 114.04256,19.22912 113.86848,19.26752 L113.86848,19.26752 L113.86848,23.2416 C114.40992,23.19744 115.26336,23.03744 115.76032,22.50304 C116.07392,22.16288 116.20576,21.71168 116.16096,21.12416 C116.04032,19.54176 115.13568,19.21056 114.39808,19.21056 Z" id="Path"></path>
                <path d="M109.21152,28.68288 L105.98208,28.93728 L105.83296,25.91872 L107.9232,25.80416 C108.19296,25.78624 108.41024,25.57856 108.43744,25.3104 L108.63328,23.456 C108.65088,23.29472 108.59616,23.13312 108.48512,23.01728 C108.37248,22.90048 108.21696,22.84 108.05344,22.84608 L105.78656,22.96224 L105.78656,19.68736 L109.14112,19.68736 C109.45088,19.69248 109.69504,19.44096 109.69504,19.13472 C109.69504,19.09248 109.68992,19.05248 109.68032,19.01248 L109.49376,17.04736 C109.46496,16.75808 109.2224,16.54304 108.92704,16.5474513 L102.79232,16.69792 C102.49056,16.70752 102.25152,16.95488 102.255002,17.256 L102.44992,31.03936 C102.45376,31.34112 102.6992,31.58368 103.00224,31.58368 L109.20736,31.5856 C109.50496,31.5856 109.74912,31.34752 109.75904,31.04864 L109.808,29.24992 C109.81344,29.09376 109.74912,28.94368 109.6368,28.8336 C109.52224,28.72608 109.36704,28.67232 109.21152,28.68288 Z" id="Path"></path>
                <path d="M94.0496,16.09792 C98.432,16.09792 100.75392,17.58976 101.14752,20.65984 C101.34848,22.22784 101.47648,25.52928 100.68128,27.94624 C99.728,30.8512 95.59776,31.16544 93.8672,31.16544 C93.37664,31.16544 93.06432,31.13984 93.0512,31.13984 C92.75744,31.11616 92.53312,30.86688 92.54336,30.57184 L92.54336,30.57184 L92.98656,16.63744 C92.99584,16.34496 93.2304,16.1104 93.52256,16.10368 C93.70272,16.0992 93.8768,16.09792 94.0496,16.09792 Z M96.27008,19.30848 L95.8896,28.0592 C96.69888,27.77984 97.43456,27.63168 97.73056,25.2768 C98.01824,22.97728 98.024,20.86368 97.3616,19.98112 C96.90688,19.3744 96.55072,19.3824 96.27008,19.30848 L96.27008,19.30848 Z" id="Path"></path>
                <path d="M90.75648,16.38176 L88.29984,16.49984 C88.15232,16.50784 88.01408,16.57472 87.9136,16.6848 C87.81664,16.79552 87.76704,16.94176 87.77632,17.09056 L88.18336,23.89472 L85.63264,16.8656 C85.54496,16.62912 85.3072,16.4816 85.05632,16.50784 L82.592,16.78048 C82.30944,16.8112 82.09568,17.05184 82.0988445,17.336 L82.50592,30.74752 C82.50752,31.03616 82.72928,31.27424 83.01664,31.29472 L85.48768,31.4768 C85.64384,31.488 85.8,31.43168 85.9136,31.32064 C86.0256,31.20992 86.0864,31.05536 86.0784,30.89728 L85.69344,25.02784 L87.82432,31.12416 C87.90112,31.328 88.09088,31.46976 88.3104,31.48288 L90.91072,31.48 C90.9296,31.4816 90.94944,31.4816 90.96896,31.48 C91.10016,31.4736 91.22656,31.4192 91.3232,31.328 C91.43328,31.22304 91.49632,31.07424 91.4938351,30.92096 L91.33568,16.928 C91.3328,16.77728 91.27072,16.63424 91.16192,16.53184 C91.05344,16.42784 90.90656,16.37376 90.75648,16.38176 Z" id="Path"></path>
                <path d="M80.344,15.8016 L77.9744,15.9824 C77.68896,16.00288 77.4672,16.24096 77.46464,16.52864 C77.46464,16.52864 77.48768,25.59104 77.45408,26.7792 C77.4336,27.4816 77.52768,28.66304 76.76,28.69792 C76.23136,28.7216 76.04352,27.94432 76.03328,26.848 C76.02176,25.61536 76.12416,17.18432 76.12512,17.09664 C76.12832,16.81248 75.91552,16.57184 75.63264,16.54304 L72.94272,16.25536 C72.7856,16.23808 72.6304,16.2912 72.51328,16.39744 C72.39744,16.50304 72.33056,16.65472 72.33376,16.8112 C72.33376,16.8112 72.43552,27.43168 72.44352,27.80672 C72.47424,29.18304 73.53696,31.65664 76.52352,31.57248 C79.87392,31.4816 80.47904,29.488 80.6848,27.16064 C80.77088,26.19168 80.92928,17.33984 80.9379248,16.35808 C80.93856,16.20288 80.87552,16.05472 80.76192,15.9504 C80.6496,15.84352 80.49696,15.79104 80.344,15.8016 Z" id="Path"></path>
                <path d="M70.6912,17.02048 L68.08768,16.8768 C67.78784,16.87168 67.54688,17.10496 67.53088,17.4 L67.49088,23.14304 L66.35776,23.38752 L66.07104,16.8736 C66.0576,16.5792 65.81792,16.34976 65.52608,16.34624 L62.96096,16.41056 C62.8112,16.41056 62.66784,16.46976 62.5632,16.57472 C62.45824,16.68 62.40064,16.82368 62.4022075,16.97248 L62.87136,31.45728 C62.87552,31.75424 63.11712,31.9968 63.4176,32 L65.9824,31.93472 C66.1328,31.93472 66.27328,31.87872 66.3776,31.77536 C66.48192,31.67104 66.54048,31.52736 66.5392,31.38112 L66.25856,26.52992 L67.26592,26.60064 L67.44352,30.94176 C67.43712,31.09056 67.49088,31.2368 67.59456,31.34432 C67.69664,31.45312 67.84032,31.51488 67.9888,31.5168 L70.66784,31.70304 C70.6784,31.70304 70.69056,31.70304 70.7008,31.70304 C70.98464,31.68864 71.21632,31.45728 71.22528,31.16992 L71.23712,17.58976 C71.24192,17.4416 71.18592,17.29792 71.08352,17.18912 C70.98176,17.08224 70.83968,17.02176 70.6912,17.02048 Z" id="Path"></path>
                <path d="M60.664,16.30496 L52.05408,16.57312 C51.90528,16.57792 51.76384,16.64352 51.66336,16.75488 C51.56256,16.8656 51.51168,17.01248 51.52096,17.16224 L51.6784,19.50368 C51.69824,19.79744 51.94464,20.02432 52.23616,20.0192 L54.57632,19.9904 L55.10368,31.00224 C55.11104,31.15104 55.17824,31.28992 55.28736,31.38912 C55.3984,31.488 55.54528,31.53728 55.69184,31.52736 L58.33504,31.34912 C58.63072,31.328 58.85728,31.07936 58.8496,30.7824 L58.54272,19.936 L60.85856,19.90624 C61.00864,19.90624 61.15232,19.83936 61.2544,19.72928 C61.35872,19.61728 61.4112,19.46848 61.40032,19.3168 L61.23328,16.81728 C61.21152,16.52224 60.96064,16.29536 60.664,16.30496 L60.664,16.30496 Z" id="Path"></path>
                <path d="M18.2075189,0 L27.8265168,5.25324778 L33.2716842,11.1038412 L37.4436954,9.6714178 L43.5851309,22.5670156 L42.1174395,32.842932 L45.12,31.8117779 L40.8039768,42.5067761 L25.8044699,48 L17.1059456,47.6828836 L6.48586092,44.0354144 L1.98481927,36.2978313 L-5.32907052e-14,24.2827539 L2.91173071,25.6714178 L3.09436991,18.1718473 L7.22747405,10.9338523 L14.6158945,3.7009064 L16.1019198,7.79200196 L18.2075189,0 Z M35.7807689,18.3178527 L22.2334187,18.7010291 L9.14651522,18.7776083 L9.45273328,27.9815565 L18.3382354,27.5980995 L18.9506715,37.1094865 L18.9506715,42.5541822 L26.3591053,42.6311822 L26.8177326,36.9554866 L27.1243706,27.3686425 L35.6276599,27.1384842 L36.0102925,19.5453637 L35.7807689,18.3178527 Z" id="Path"></path>
            </g>
        </g>
    </g>
</svg>