<?xml version="1.0" encoding="UTF-8"?>
<svg width="265px" height="48px" viewBox="0 0 265 48" version="1.1" xmlns="http://www.w3.org/2000/svg" xmlns:xlink="http://www.w3.org/1999/xlink">
    <!-- Generator: Sketch 60.1 (88133) - https://sketch.com -->
    <title>betdigital</title>
    <desc>Created with Sketch.</desc>
    <g id="design" stroke="none" stroke-width="1" fill="none" fill-rule="evenodd">
        <g id="main" transform="translate(-1063.000000, -64.000000)" fill="#FFB124">
            <g id="betdigital" transform="translate(1063.000000, 64.000000)">
                <path d="M140.438536,5.70535123 L140.438536,36.4290862 L151.614841,36.4290862 L151.614841,41.0551614 L140.530696,41.0551614 L140.530696,47.988259 L165.945375,47.988259 L165.945375,5.70535123 L140.438536,5.70535123 Z M147.687301,29.1662118 L151.535154,29.1662118 L151.535154,12.7771532 L147.687301,12.7771532 L147.687301,29.1662118 Z" id="Path"></path>
                <path d="M98.4303447,36.2034792 L102.535969,36.2034792 L102.535969,12.7390803 L98.4303447,12.7390803 L98.4303447,36.2034792 Z M116.689805,0.751056084 L116.689805,43.3594946 L91.3499621,43.3594946 L91.3499621,5.56466532 L102.37313,5.56466532 C102.635751,3.76009262 102.849174,2.29308116 103.073684,0.751056084 L116.689805,0.751056084 Z" id="Path"></path>
                <path d="M14.0762274,36.1284656 L18.3031146,36.1284656 L18.3031146,12.6852969 L14.0762274,12.6852969 L14.0762274,36.1284656 Z M0,0.707887875 L13.619585,0.707887875 C13.7533209,2.21028311 13.875277,3.57326627 14.0249504,5.25470342 L25.3003453,5.25470342 L25.3003453,43.3800172 L0,43.3800172 L0,0.707887875 Z" id="Path"></path>
                <path d="M227.153612,36.210556 L231.121343,36.210556 L231.121343,24.8367942 L227.153612,24.8367942 L227.153612,36.210556 Z M245.355558,5.63118683 L245.355558,43.445831 L220.044819,43.445831 L220.044819,17.4387537 L231.146288,17.4387537 C231.221818,15.8026078 231.283489,14.4594396 231.363869,12.7220961 L220.05452,12.7220961 L220.05452,5.63118683 L245.355558,5.63118683 Z" id="Path"></path>
                <path d="M44.4564595,24.2798535 L48.8302484,24.2798535 L48.8302484,12.8374472 L44.4564595,12.8374472 L44.4564595,24.2798535 Z M30.4079495,43.3425104 L30.4079495,5.68143179 L55.7526424,5.68143179 L55.7526424,31.5278667 L44.5229811,31.5278667 L44.5229811,36.2438167 L55.7186887,36.2438167 L55.7186887,43.3425104 L30.4079495,43.3425104 Z" id="Path"></path>
                <path d="M209.544331,36.1765168 C211.454052,36.3251286 213.1455,36.4560486 215.04067,36.6032451 L215.04067,43.2766258 L195.321894,43.2766258 L195.321894,12.8210999 C193.250027,12.6512577 191.484435,12.5068919 189.577485,12.3504956 L189.577485,5.56884061 C191.477506,5.44995111 193.17034,5.34379978 195.044722,5.22632563 C195.159748,3.69208499 195.262302,2.32556346 195.379408,0.75523137 L209.019781,0.75523137 C209.158367,2.15147527 209.293489,3.50596632 209.461872,5.20509537 C211.25033,5.32398486 213.030473,5.44287436 215.02889,5.57591737 L215.02889,12.3851717 C213.212714,12.4884924 211.521959,12.5854439 209.544331,12.6979643 L209.544331,36.1765168 Z" id="Path"></path>
                <path d="M80.7350703,12.7184869 L80.7350703,36.1517481 C82.50967,36.2911602 84.1824087,36.4227879 86.1267768,36.5749381 L86.1267768,43.345978 L66.5791557,43.345978 L66.5791557,12.7630705 C64.5731166,12.6385196 62.9024568,12.5337836 60.9961999,12.4148941 L60.9961999,5.58016342 C62.7119004,5.46905835 64.3915684,5.36007632 66.2562493,5.23906379 C66.38167,3.74516066 66.4960038,2.38146983 66.6304327,0.786369096 L80.2347732,0.786369096 C80.4488893,2.2434731 80.6636983,3.70482315 80.8895942,5.24047915 C82.7106204,5.36078399 84.3999894,5.47259673 86.2355672,5.59431693 L86.2355672,12.3667722 C84.5302607,12.4757542 82.8519786,12.5833209 80.7350703,12.7184869" id="Path"></path>
                <polygon id="Path" points="250.291315 43.389217 264.043943 43.389217 264.043943 0.809085481 250.291315 0.809085481"></polygon>
                <polygon id="Path" points="121.766227 43.3474641 135.410064 43.3474641 135.410064 12.8438163 121.766227 12.8438163"></polygon>
                <polygon id="Path" points="170.88127 43.3340183 184.553518 43.3340183 184.553518 12.7857869 170.88127 12.7857869"></polygon>
                <polygon id="Path" points="170.938784 7.39117598 184.564605 7.39117598 184.564605 0.744687004 170.938784 0.744687004"></polygon>
                <polygon id="Path" points="121.773849 7.47892775 135.444018 7.47892775 135.444018 0.780070783 121.773849 0.780070783"></polygon>
            </g>
        </g>
    </g>
</svg>