<?xml version="1.0" encoding="UTF-8"?>
<svg width="195px" height="48px" viewBox="0 0 195 48" version="1.1" xmlns="http://www.w3.org/2000/svg" xmlns:xlink="http://www.w3.org/1999/xlink">
    <!-- Generator: Sketch 60.1 (88133) - https://sketch.com -->
    <title>microgaming</title>
    <desc>Created with Sketch.</desc>
    <g id="design" stroke="none" stroke-width="1" fill="none" fill-rule="evenodd">
        <g id="main" transform="translate(-1138.000000, -256.000000)" fill="#FFB124" fill-rule="nonzero">
            <g id="microgaming" transform="translate(1138.000000, 256.000000)">
                <path d="M24.1352459,0 C10.8688525,0 0,10.56 0,23.84 C0,26.24 0.319672131,28.48 1.11885246,30.72 C1.59836066,30.08 2.07786885,29.44 2.39754098,28.8 C4.1557377,26.4 5.75409836,23.84 7.35245902,21.44 L8.47131148,19.52 C8.79098361,18.88 9.2704918,18.24 9.59016393,17.6 C10.3893443,16.32 11.1885246,15.04 11.8278689,13.76 C12.147541,13.12 12.4672131,12.48 12.9467213,11.84 C13.4262295,11.2 13.5860656,10.56 14.0655738,9.92 C14.545082,9.28 14.704918,8.64 15.0245902,8 L15.9836066,6.24 L16.1434426,6.08 C16.6229508,4.96 17.9016393,4.64 19.0204918,5.12 C19.8196721,5.6 20.2991803,6.4 20.2991803,7.36 C20.2991803,8.48 20.1393443,9.76 19.9795082,10.88 C19.8196721,12 19.8196721,13.28 19.8196721,14.4 C19.6598361,16.8 19.6598361,19.04 19.6598361,21.28 C19.6598361,23.52 19.8196721,25.92 19.9795082,28 L20.4590164,31.36 C20.6188525,32.32 20.9385246,33.28 21.4180328,34.24 C21.5778689,34.56 21.7377049,34.72 21.897541,35.04 C22.057377,35.2 21.897541,35.04 22.057377,35.04 L22.5368852,35.04 L22.6967213,34.88 L23.6557377,33.92 C24.295082,33.12 25.0942623,32.32 25.5737705,31.36 C26.2131148,30.4 26.692623,29.44 27.3319672,28.48 C28.4508197,26.4 29.5696721,24.32 30.5286885,22.24 C31.0081967,21.12 31.4877049,20.16 31.9672131,19.04 C32.4467213,17.92 32.9262295,16.8 33.4057377,15.84 C33.8852459,14.72 35.1639344,14.24 36.2827869,14.72 C36.9221311,15.04 37.4016393,15.68 37.5614754,16.32 C37.5614754,16.64 37.5614754,16.96 37.7213115,17.28 L37.8811475,18.24 C38.0409836,18.88 38.0409836,19.52 38.2008197,20.16 C38.3606557,21.44 38.6803279,22.88 39,24.16 C39.3196721,25.44 39.7991803,26.72 40.2786885,28 C40.7581967,29.28 41.397541,30.4 42.3565574,31.52 C42.5163934,31.84 42.5163934,32.16 42.1967213,32.32 C42.0368852,32.48 41.7172131,32.48 41.557377,32.32 C40.4385246,31.36 39.4795082,30.24 38.6803279,29.12 C37.8811475,28 37.0819672,26.72 36.442623,25.44 C35.9631148,24.48 35.6434426,23.68 35.3237705,22.72 C35.0040984,23.2 34.8442623,23.84 34.5245902,24.32 C33.4057377,26.56 32.4467213,28.64 31.1680328,30.72 C30.5286885,31.84 29.8893443,32.96 29.25,33.92 C28.6106557,35.04 27.8114754,36.16 26.852459,37.12 C26.3729508,37.76 25.7336066,38.24 25.2540984,38.72 C25.0942623,38.88 24.9344262,39.04 24.6147541,39.04 L24.295082,39.2 L24.1352459,39.36 L23.6557377,39.36 C23.4959016,39.36 23.4959016,39.52 23.3360656,39.52 C23.0163934,39.52 22.8565574,39.68 22.5368852,39.68 C21.897541,39.68 21.4180328,39.68 20.7786885,39.52 C20.1393443,39.36 19.8196721,39.04 19.3401639,38.72 C18.7008197,38.08 18.0614754,37.44 17.7418033,36.64 C17.102459,35.36 16.6229508,34.08 16.4631148,32.64 C16.1434426,31.36 15.9836066,30.08 15.8237705,28.96 C15.5040984,26.56 15.5040984,24 15.5040984,21.76 L15.5040984,18.24 C15.0245902,19.04 14.545082,19.84 14.2254098,20.64 C13.9057377,21.28 13.5860656,21.92 13.1065574,22.56 L11.9877049,24.48 C10.5491803,27.2 8.95081967,29.76 7.35245902,32.16 C6.39344262,33.76 5.27459016,35.52 4.1557377,37.12 C11.5081967,48 26.3729508,51.2 37.5614754,43.84 C48.75,36.8 51.7868852,21.92 44.4344262,11.04 C39.7991803,4.16 32.2868852,0 24.1352459,0 Z" id="Path"></path>
                <polygon id="Path" points="69.0491803 32.32 69.0491803 16.48 68.7295082 16.48 63.6147541 32.32 62.3360656 32.32 57.2213115 16.48 56.7418033 16.48 56.7418033 32.32 54.6639344 32.32 54.6639344 15.04 58.5 15.04 62.9754098 28.96 67.4508197 15.04 71.2868852 15.04 71.2868852 32.64 69.0491803 32.32"></polygon>
                <path d="M74.3237705,17.28 L74.3237705,15.04 L76.5614754,15.04 L76.5614754,17.28 L74.3237705,17.28 Z M74.3237705,32.32 L74.3237705,18.88 L76.5614754,18.88 L76.5614754,32.32 L74.3237705,32.32 Z" id="Path"></path>
                <path d="M90.307377,28 C90.307377,30.72 89.3483607,32.64 84.8729508,32.64 C79.2786885,32.64 78.9590164,29.44 78.9590164,25.76 C78.9590164,22.08 79.2786885,18.88 84.8729508,18.88 C89.3483607,18.88 90.307377,20.96 90.307377,23.52 L88.2295082,23.52 C88.2295082,21.28 87.4303279,20.32 84.8729508,20.32 C81.3565574,20.32 81.1967213,22.24 81.1967213,25.92 C81.1967213,29.6 81.3565574,31.52 84.8729508,31.52 C87.4303279,31.52 88.2295082,30.4 88.2295082,28.32 L90.307377,28.32 L90.307377,28 Z" id="Path"></path>
                <path d="M94.6229508,20.32 C95.7418033,19.68 97.0204918,18.72 98.2991803,18.72 L100.217213,18.72 L100.057377,20.32 L98.2991803,20.32 C97.1803279,20.32 95.9016393,21.28 94.942623,21.76 L94.942623,32.32 L92.704918,32.32 L92.704918,18.88 L94.4631148,18.88 L94.6229508,20.32 Z" id="Path"></path>
                <path d="M112.684426,25.6 C112.684426,29.44 112.364754,32.48 106.770492,32.48 C101.17623,32.48 100.856557,29.28 100.856557,25.6 C100.856557,21.92 101.17623,18.72 106.770492,18.72 C112.364754,18.72 112.684426,21.76 112.684426,25.6 Z M102.934426,25.6 C102.934426,29.28 103.094262,31.2 106.610656,31.2 C110.127049,31.2 110.286885,29.44 110.286885,25.6 C110.286885,21.76 110.127049,20 106.610656,20 C103.254098,20.16 102.934426,21.92 102.934426,25.6 Z" id="Path"></path>
                <path d="M116.840164,35.52 C117.639344,35.68 118.758197,35.68 120.036885,35.68 C123.553279,35.68 123.872951,34.72 124.032787,31.2 C123.07377,31.84 121.635246,32.48 120.196721,32.48 C115.241803,32.64 114.922131,29.92 114.922131,25.76 C114.922131,21.6 115.241803,18.88 120.036885,18.88 C121.635246,18.88 123.233607,19.68 124.352459,20.32 L124.512295,19.04 L126.270492,19.04 L126.270492,31.04 C126.270492,36 125.151639,37.28 120.67623,37.28 C119.397541,37.28 117.959016,37.12 116.680328,36.96 L116.840164,35.52 Z M123.872951,21.28 C122.913934,20.64 121.635246,20 120.516393,20 C117.159836,20 117,21.92 117,25.6 C117,29.28 117.159836,30.88 120.516393,30.88 C121.635246,30.88 122.913934,30.24 123.872951,29.76 L123.872951,21.28 L123.872951,21.28 Z" id="Path"></path>
                <path d="M138.418033,32.32 L138.258197,31.04 C137.139344,31.68 135.70082,32.48 134.102459,32.48 C129.147541,32.64 128.827869,29.76 128.827869,25.6 C128.827869,21.44 129.147541,18.72 134.102459,18.72 C135.70082,18.72 137.139344,19.52 138.258197,20.16 L138.418033,19.04 L140.17623,19.04 L140.17623,32.48 L138.418033,32.48 L138.418033,32.32 Z M137.938525,21.28 C136.979508,20.8 135.70082,20.16 134.581967,20.16 C131.22541,20.16 131.065574,22.08 131.065574,25.76 C131.065574,29.44 131.22541,31.36 134.581967,31.36 C135.70082,31.36 136.979508,30.72 137.938525,30.08 L137.938525,21.28 L137.938525,21.28 Z" id="Path"></path>
                <path d="M144.811475,20 C145.770492,19.36 147.209016,18.56 148.647541,18.56 C150.885246,18.4 152.163934,19.04 152.643443,20 C153.762295,19.36 155.040984,18.56 156.639344,18.56 C161.27459,18.4 161.594262,20.8 161.594262,24.16 L161.594262,32.32 L159.356557,32.32 L159.356557,24.32 C159.356557,21.44 159.196721,20.16 156.159836,20.16 C155.040984,20.16 153.922131,20.8 152.963115,21.44 C153.122951,22.4 153.282787,23.36 153.282787,24.48 L153.282787,32.48 L151.364754,32.48 L151.364754,24.48 C151.364754,21.6 151.204918,20.32 148.168033,20.32 C147.04918,20.32 145.930328,20.96 145.131148,21.44 L145.131148,32.48 L142.893443,32.48 L142.893443,19.04 L144.651639,19.04 L144.811475,20 L144.811475,20 Z" id="Path"></path>
                <path d="M164.631148,17.28 L164.631148,15.04 L166.868852,15.04 L166.868852,17.28 L164.631148,17.28 Z M164.631148,32.32 L164.631148,18.88 L166.868852,18.88 L166.868852,32.32 L164.631148,32.32 Z" id="Path"></path>
                <path d="M171.663934,20 C172.782787,19.36 174.221311,18.56 175.819672,18.56 C180.77459,18.4 181.094262,20.8 181.094262,24.16 L181.094262,32.32 L178.856557,32.32 L178.856557,24.32 C178.856557,21.44 178.696721,20.16 175.340164,20.16 C174.221311,20.16 172.942623,20.8 171.983607,21.28 L171.983607,32.32 L169.745902,32.32 L169.745902,18.88 L171.504098,18.88 L171.663934,20 L171.663934,20 Z" id="Path"></path>
                <path d="M185.569672,35.52 C186.368852,35.68 187.487705,35.68 188.766393,35.68 C192.282787,35.68 192.602459,34.72 192.762295,31.2 C191.803279,31.84 190.364754,32.48 188.92623,32.48 C183.971311,32.64 183.651639,29.92 183.651639,25.76 C183.651639,21.6 183.971311,18.88 188.766393,18.88 C190.364754,18.88 191.963115,19.68 193.081967,20.32 L193.241803,19.04 L195,19.04 L195,31.04 C195,36 193.881148,37.28 189.405738,37.28 C188.127049,37.28 186.688525,37.12 185.409836,36.96 L185.569672,35.52 L185.569672,35.52 Z M192.602459,21.28 C191.643443,20.64 190.364754,20 189.245902,20 C185.889344,20 185.729508,21.92 185.729508,25.6 C185.729508,29.28 185.889344,30.88 189.245902,30.88 C190.364754,30.88 191.643443,30.24 192.602459,29.76 L192.602459,21.28 L192.602459,21.28 Z" id="Path"></path>
            </g>
        </g>
    </g>
</svg>