<?xml version="1.0" encoding="UTF-8"?>
<svg width="95px" height="48px" viewBox="0 0 95 48" version="1.1" xmlns="http://www.w3.org/2000/svg" xmlns:xlink="http://www.w3.org/1999/xlink">
    <!-- Generator: Sketch 60.1 (88133) - https://sketch.com -->
    <title>sidecity</title>
    <desc>Created with Sketch.</desc>
    <g id="design" stroke="none" stroke-width="1" fill="none" fill-rule="evenodd">
        <g id="main" transform="translate(-2337.000000, -352.000000)" fill="#FFB124">
            <g id="sidecity" transform="translate(2337.000000, 352.000000)">
                <path d="M4.86322612,10.3453535 L4.86322612,0.237679397 L32.885438,0.237679397 L32.885438,1.55849029 C32.8856807,10.2276787 32.871848,18.8973426 32.9160157,27.5662932 C32.9189278,28.1729724 33.2436331,28.8452642 33.5967319,29.373018 C38.2685566,36.3555338 34.2364353,46.1472688 25.6016529,47.9159573 C28.3373799,46.6253377 30.1516525,44.8671092 31.4934279,42.5977678 C34.1061164,38.1798503 33.4967479,32.3980934 30.0531246,28.5424001 C27.8755606,26.1045103 25.0320839,24.6089701 22.2854364,22.9491606 C19.8171423,21.4578995 17.3240949,19.9842301 14.9987391,18.2956557 C13.3888027,17.1267523 12.893251,15.3573507 13.4766527,13.4013334 C14.045251,11.4959519 16.0007631,10.5295919 17.8723081,11.3266904 C19.0073205,11.8099892 20.0590938,12.4806169 21.4137313,13.2102009 C21.4137313,12.1537424 21.5105604,11.2603645 21.3901914,10.3957516 C21.2309936,9.25490005 21.7229051,9.04688898 22.7431301,9.12415023 C25.1010049,9.30268317 27.392871,9.66093767 29.440844,10.9265959 C29.5966443,11.0228753 29.7895746,11.0618625 30.1176774,11.1842919 C30.1176774,9.06566941 30.1470416,7.06828764 30.0824888,5.07375859 C30.073995,4.81154577 29.6289207,4.42381313 29.3134372,4.33086189 C24.0725288,2.78539904 18.7983734,2.28759882 13.4652468,3.92696382 C10.7741728,4.75425358 8.71285241,6.35177863 7.10752694,8.60733186 C6.58091224,9.34713811 5.81889834,9.92576548 5.16463417,10.5780882 C5.06416482,10.5005892 4.96369547,10.4228525 4.86322612,10.3453535" id="Path"></path>
                <path d="M5.9621521,19.551472 C8.35108995,25.1031093 13.6842166,27.1050079 18.3215808,29.9584444 C20.2479714,31.1439886 22.22581,32.4146392 23.7403733,34.0399783 C26.2652117,36.7498277 24.9528005,40.8304106 21.3082385,41.9959858 L21.3082385,38.0290364 C20.6267942,38.4044072 20.1411923,38.643085 19.6851974,38.9274065 C14.8883927,41.9177737 9.65160986,40.2263465 6.92777417,35.7033537 C4.36095218,31.4409096 3.8673419,24.4089466 5.9621521,19.551472" id="Path"></path>
                <path d="M8.19247457,45.0476866 C11.4735026,45.7294875 14.7462795,46.0223671 18.0646802,45.6063449 C20.3315502,45.3220235 22.5074154,44.7158198 24.3920651,43.4209211 C28.2613484,40.762183 28.7476783,35.4813167 25.5197971,31.9662861 C23.5084687,29.7756324 20.9006338,28.4177361 18.3702138,26.9366972 C16.1560052,25.6410854 13.8527333,24.439138 11.8278148,22.8948637 C6.65728351,18.9512115 6.4279513,11.9244785 11.2570324,7.97274356 C13.8852523,5.82202791 17.0735767,5.2942741 20.36504,5.55624919 C22.1749443,5.70031172 23.952087,6.23709915 25.6806937,6.86493601 C24.0615355,6.6990026 22.4450467,6.43037116 20.8229764,6.38805576 C17.2866494,6.29581771 14.3953648,7.72622072 12.1027708,10.3119767 C9.98126581,12.7054115 9.86308085,16.6478751 12.0770467,19.0603282 C13.4304708,20.5354238 15.1161232,21.773268 16.8163364,22.8751324 C19.3707817,24.5304251 22.1094209,25.9106677 24.6946865,27.5234073 C27.421677,29.2245813 29.537115,31.4164237 30.1828854,34.7063269 C31.1043398,39.401434 28.4994171,44.1640556 23.8591407,45.6871721 C19.087332,47.2533172 14.2446608,47.1042624 9.44858412,45.6386758 C9.00981942,45.5048355 8.61036882,45.2478527 8.19247457,45.0476866" id="Path"></path>
                <path d="M18.4800506,41.4130794 C15.6373019,43.6265549 10.9839208,43.700488 7.53325974,41.7271167 C3.80278913,39.5942305 1.75141858,36.3314283 0.76419802,32.3193106 C-0.589468717,26.8192601 -0.218896988,21.4794375 2.47363303,16.4158536 C3.14876764,15.1456786 4.14181251,14.0376333 5.14310849,12.9298258 C4.97104866,14.6043743 5.11398694,16.1888244 4.40536254,17.8322308 C1.47913208,24.6181463 1.67303307,31.3434415 5.7968873,37.6660273 C8.5561542,41.896616 13.317285,43.2340678 18.1126337,41.3902576 C18.1764584,41.3660094 18.2628523,41.3976271 18.4800506,41.4130794" id="Path"></path>
                <path d="M38.3181361,26.5930867 C39.424755,26.5930867 40.2809286,26.3078144 40.8866568,25.7372697 C41.4923851,25.166725 41.7952492,24.3793734 41.7952492,23.3752148 C41.7952492,22.7818484 41.678763,22.2683582 41.4457906,21.8347442 C41.2128182,21.4011303 40.9216027,21.0131599 40.5721441,20.6708331 C40.2226855,20.3285063 39.8470175,20.0175595 39.4451401,19.7379926 C39.0432627,19.4584257 38.6675947,19.1817115 38.3181361,18.9078501 C37.9686775,18.6339887 37.677462,18.3430109 37.4444896,18.0349168 C37.2115172,17.7268226 37.095031,17.373085 37.095031,16.9737037 C37.095031,16.517268 37.246463,16.1378558 37.5493272,15.8354671 C37.8521913,15.5330784 38.3181361,15.3818841 38.9471616,15.3818841 C39.4597009,15.3818841 39.9110849,15.4332331 40.3013137,15.5359311 C40.6915424,15.6386292 40.9914944,15.7527381 41.2011696,15.8782579 L41.2011696,15.8782579 L41.6205199,14.7485795 C41.340953,14.588827 40.9740215,14.4576017 40.5197253,14.3549037 C40.0654291,14.2522057 39.5470655,14.2008566 38.9646345,14.2008566 C38.0210963,14.2008566 37.2551995,14.4319272 36.6669442,14.8940684 C36.0786889,15.3562096 35.7845612,16.0665377 35.7845612,17.0250527 C35.7845612,17.6184192 35.9010474,18.1262039 36.1340198,18.548407 C36.3669922,18.97061 36.6582077,19.3443168 37.0076663,19.6695272 C37.3571249,19.9947377 37.7327929,20.2914209 38.1346703,20.5595769 C38.5365477,20.8277329 38.9122157,21.1015943 39.2616743,21.3811612 C39.6111329,21.6607281 39.9023484,21.9659695 40.1353208,22.2968854 C40.3682932,22.6278013 40.4847794,23.0157717 40.4847794,23.4607965 C40.4847794,24.1340392 40.2809286,24.6275603 39.8732269,24.9413599 C39.4655252,25.2551595 38.935513,25.4120592 38.2831902,25.4120592 C37.7706509,25.4120592 37.3134426,25.3464466 36.9115652,25.2152213 C36.5096878,25.0839961 36.1980872,24.9442126 35.9767634,24.795871 L35.9767634,24.795871 L35.5224672,25.9768985 C35.7903855,26.136651 36.1485806,26.2792871 36.5970525,26.404807 C37.0455243,26.5303268 37.6192189,26.5930867 38.3181361,26.5930867 Z" id="Path" fill-rule="nonzero"></path>
                <polygon id="Path" fill-rule="nonzero" points="45.115106 26.3876906 45.115106 14.4062527 43.8046362 14.4062527 43.8046362 26.3876906"></polygon>
                <path d="M50.2521475,14.269322 C51.1024967,14.269322 51.8247112,14.4119582 52.4187908,14.6972305 C53.0128704,14.9825028 53.4962882,15.3904423 53.869044,15.9210488 C54.2417999,16.4516553 54.5097181,17.0878126 54.6727988,17.8295207 C54.8358795,18.5712287 54.9174198,19.3985185 54.9174198,20.31139 C54.9174198,21.1329743 54.8387917,21.9203259 54.6815353,22.6734449 C54.5242789,23.4265638 54.2592728,24.0883956 53.886517,24.6589403 C53.5137611,25.229485 53.0216069,25.6859207 52.4100544,26.0282475 C51.7985018,26.3705743 51.032605,26.5417377 50.112364,26.5417377 C49.960932,26.5417377 49.7687297,26.5388849 49.5357573,26.5331795 C49.3027849,26.5274741 49.061076,26.5160632 48.8106307,26.4989468 C48.5601854,26.4818305 48.327213,26.4675669 48.1117135,26.456156 C47.896214,26.4447451 47.7302212,26.4276287 47.613735,26.404807 L47.613735,26.404807 L47.613735,14.4062527 L47.8069079,14.3748728 C47.9402199,14.3558546 48.082592,14.3406401 48.234024,14.3292292 C48.4611721,14.3121128 48.6912324,14.300702 48.9242048,14.2949965 C49.1571772,14.2892911 49.3872374,14.2835856 49.6143855,14.2778802 C49.8415336,14.2721747 50.0541209,14.269322 50.2521475,14.269322 Z M50.3220392,15.4503494 L49.9463712,15.4503494 C49.812412,15.4503494 49.6813651,15.4560549 49.5532303,15.4674658 C49.4250954,15.4788767 49.3056971,15.4902876 49.1950352,15.5016985 C49.0843733,15.5131094 48.9940965,15.5245203 48.9242048,15.5359311 L48.9242048,15.5359311 L48.9242048,25.2922449 C48.9707992,25.3036558 49.0552517,25.3122139 49.1775622,25.3179194 C49.2591026,25.321723 49.3432315,25.3255266 49.429949,25.3293303 L49.429949,25.3293303 L49.5619667,25.3350357 C49.6959258,25.3407412 49.8240607,25.3464466 49.9463712,25.3521521 C50.0686817,25.3578575 50.1589585,25.3607102 50.2172016,25.3607102 C50.8578757,25.3607102 51.3937122,25.2237795 51.8247112,24.9499181 C52.2557101,24.6760566 52.5964323,24.3080553 52.8468776,23.8459141 C53.0973229,23.383773 53.2749644,22.847461 53.379802,22.2369782 C53.4846396,21.6264954 53.5370584,20.9789272 53.5370584,20.2942736 C53.5370584,19.6894963 53.4904639,19.0961298 53.3972749,18.5141743 C53.3040859,17.9322187 53.1380931,17.4158758 52.8992964,16.9651455 C52.6604997,16.5144152 52.3343383,16.1492667 51.9208123,15.8696998 C51.5072863,15.5901329 50.9743619,15.4503494 50.3220392,15.4503494 L50.3220392,15.4503494 Z" id="Path" fill-rule="nonzero"></path>
                <polygon id="Path" fill-rule="nonzero" points="62.3084693 26.3876906 62.3084693 25.2066632 58.0974932 25.2066632 58.0974932 20.8248802 61.889119 20.8248802 61.889119 19.6438527 58.0974932 19.6438527 58.0974932 15.5872802 62.2211047 15.5872802 62.2211047 14.4062527 56.7870234 14.4062527 56.7870234 26.3876906"></polygon>
                <path d="M71.8836351,26.5930867 C72.3728772,26.5930867 72.838822,26.5417377 73.2814696,26.4390396 C73.7241171,26.3363416 74.0910487,26.1651782 74.3822642,25.9255494 L74.3822642,25.9255494 L74.0677514,24.8643364 C73.8464276,25.012678 73.5785094,25.1410505 73.2639966,25.249454 C72.9494839,25.3578575 72.594201,25.4120592 72.1981479,25.4120592 C71.2313124,25.4120592 70.4566792,24.9927089 69.8742482,24.1540083 C69.2918171,23.3153076 69.0006016,22.0629621 69.0006016,20.3969717 C69.0006016,19.4726893 69.082142,18.6910431 69.2452227,18.0520331 C69.4083033,17.4130231 69.6296271,16.8966802 69.909194,16.5030043 C70.1887609,16.1093285 70.509098,15.8240562 70.8702052,15.6471874 C71.2313124,15.4703185 71.6157169,15.3818841 72.0234186,15.3818841 C72.4311203,15.3818841 72.7922275,15.4161168 73.1067403,15.4845821 C73.421253,15.5530475 73.6949956,15.6500401 73.927968,15.7755599 L73.927968,15.7755599 L74.2424807,14.6116488 C73.9745625,14.4975399 73.6571376,14.4005473 73.290206,14.320671 C72.9232745,14.2407948 72.4602418,14.2008566 71.9011081,14.2008566 C71.3536229,14.2008566 70.8206985,14.3092601 70.3023349,14.5260671 C69.7839714,14.7428741 69.326763,15.0966118 68.9307099,15.5872802 C68.5346568,16.0779486 68.2172319,16.7169586 67.9784352,17.5043102 C67.7396385,18.2916619 67.6202402,19.2558823 67.6202402,20.3969717 C67.6202402,21.5038283 67.7250777,22.4509324 67.9347529,23.2382841 C68.1444281,24.0256357 68.4385557,24.6674985 68.8171359,25.1638723 C69.195716,25.6602462 69.6471001,26.022542 70.171288,26.2507599 C70.6954759,26.4789778 71.2662583,26.5930867 71.8836351,26.5930867 Z" id="Path" fill-rule="nonzero"></path>
                <polygon id="Path" fill-rule="nonzero" points="77.5623375 26.3876906 77.5623375 14.4062527 76.2518677 14.4062527 76.2518677 26.3876906"></polygon>
                <polygon id="Path" fill-rule="nonzero" points="83.5031338 26.3876906 83.5031338 15.5872802 86.5084778 15.5872802 86.5084778 14.4062527 79.18732 14.4062527 79.18732 15.5872802 82.192664 15.5872802 82.192664 26.3876906"></polygon>
                <polygon id="Path" fill-rule="nonzero" points="91.4008983 26.3876906 91.4008983 21.6122318 94.6159174 14.4062527 93.2006101 14.4062527 91.0689126 19.5925037 90.8417645 20.6708331 90.8068186 20.6708331 90.5796705 19.6267364 88.3780813 14.4062527 86.8404635 14.4062527 90.0904285 21.6293481 90.0904285 26.3876906"></polygon>
                <path d="M52.0698176,35.0428531 C52.5923876,35.0428531 52.9966918,34.9081412 53.2827301,34.6387173 C53.5687685,34.3692935 53.7117877,33.9974885 53.7117877,33.5233025 C53.7117877,33.2431017 53.6567803,33.0006202 53.5467655,32.7958581 C53.4367508,32.5910959 53.2992324,32.4078877 53.1342102,32.2462334 C52.9691881,32.0845791 52.7917893,31.9377431 52.6020139,31.8057254 C52.4122385,31.6737077 52.2348397,31.5430371 52.0698176,31.4137136 C51.9047954,31.2843902 51.767277,31.146984 51.6572623,31.0014951 C51.5472475,30.8560062 51.4922402,30.6889634 51.4922402,30.5003667 C51.4922402,30.2848276 51.5637497,30.1056608 51.7067689,29.9628661 C51.8497881,29.8200715 52.0698176,29.7486741 52.3668574,29.7486741 C52.6088898,29.7486741 52.8220434,29.7729223 53.0063181,29.8214186 C53.1905928,29.8699149 53.3322368,29.9237996 53.4312501,29.9830729 L53.4312501,29.9830729 L53.6292766,29.4496136 C53.4972589,29.374175 53.3239857,29.3122075 53.1094569,29.2637112 C52.8949282,29.2152149 52.6501454,29.1909667 52.3751085,29.1909667 C51.9295488,29.1909667 51.5678753,29.3000834 51.2900881,29.5183167 C51.0123008,29.7365501 50.8734072,30.0719828 50.8734072,30.5246149 C50.8734072,30.8048157 50.9284146,31.0446029 51.0384293,31.2439766 C51.1484441,31.4433503 51.2859625,31.6198229 51.4509846,31.7733945 C51.6160067,31.9269661 51.7934055,32.0670665 51.983181,32.1936957 C52.1729564,32.3203249 52.3503552,32.4496484 52.5153773,32.5816661 C52.6803994,32.7136838 52.8179178,32.8578256 52.9279326,33.0140914 C53.0379473,33.1703573 53.0929547,33.3535655 53.0929547,33.5637161 C53.0929547,33.8816363 52.9966918,34.1146879 52.804166,34.262871 C52.6116402,34.4110542 52.3613566,34.4851457 52.0533154,34.4851457 C51.8112829,34.4851457 51.595379,34.454162 51.4056035,34.3921945 C51.2158281,34.330227 51.0686834,34.2642182 50.9641694,34.194168 L50.9641694,34.194168 L50.7496406,34.7518754 C50.8761576,34.827314 51.0453052,34.89467 51.2570836,34.9539433 C51.468862,35.0132165 51.7397733,35.0428531 52.0698176,35.0428531 Z" id="Path" fill-rule="nonzero"></path>
                <polygon id="Path" fill-rule="nonzero" points="56.1623661 34.9458605 56.1623661 29.8456667 57.5815564 29.8456667 57.5815564 29.2879593 54.124343 29.2879593 54.124343 29.8456667 55.5435332 29.8456667 55.5435332 34.9458605"></polygon>
                <path d="M59.9001171,35.018605 C60.4006842,35.018605 60.787111,34.8663805 61.0593975,34.5619315 C61.331684,34.2574826 61.4678273,33.7630898 61.4678273,33.0787531 L61.4678273,33.0787531 L61.4678273,29.2879593 L60.8737476,29.2879593 L60.8737476,32.8928507 C60.8737476,33.4424754 60.8036132,33.8412227 60.6633444,34.0890926 C60.5230756,34.3369626 60.2714169,34.4608976 59.9083682,34.4608976 C59.7158424,34.4608976 59.5535707,34.4339552 59.421553,34.3800704 C59.2895353,34.3261856 59.1795205,34.2372758 59.0915087,34.1133408 C59.0034969,33.9894058 58.9402385,33.8277515 58.9017333,33.6283778 C58.8632281,33.4290042 58.8439756,33.1838284 58.8439756,32.8928507 L58.8439756,32.8928507 L58.8439756,29.2879593 L58.2251426,29.2879593 L58.2251426,33.2080766 C58.2251426,33.822363 58.3585355,34.2776894 58.6253213,34.5740556 C58.892107,34.8704219 59.317039,35.018605 59.9001171,35.018605 Z" id="Path" fill-rule="nonzero"></path>
                <path d="M63.7698858,29.2232976 C64.1714396,29.2232976 64.5124854,29.2906536 64.793023,29.4253655 C65.0735606,29.5600774 65.3018412,29.7527155 65.4778648,30.0032797 C65.6538884,30.2538439 65.7804053,30.5542515 65.8574156,30.9045025 C65.934426,31.2547536 65.9729311,31.6454182 65.9729311,32.0764963 C65.9729311,32.4644667 65.9358011,32.8362717 65.8615412,33.1919112 C65.7872812,33.5475507 65.6621395,33.8600824 65.4861159,34.1295062 C65.3100923,34.3989301 65.0776861,34.6144692 64.7888974,34.7761235 C64.5001087,34.9377778 64.1384352,35.018605 63.703877,35.018605 C63.6323674,35.018605 63.5416052,35.0172579 63.4315905,35.0145636 C63.3215757,35.0118694 63.2074354,35.0064809 63.0891696,34.9983982 C62.9709037,34.9903155 62.860889,34.9835799 62.7591253,34.9781914 C62.6573617,34.9728029 62.5789762,34.9647202 62.5239688,34.9539433 L62.5239688,34.9539433 L62.5239688,29.2879593 L62.6632062,29.2667422 L62.6632062,29.2667422 L62.8168831,29.2515871 C62.9241475,29.2435044 63.032787,29.2381159 63.1428018,29.2354217 C63.2528165,29.2327274 63.3614561,29.2300332 63.4687205,29.2273389 C63.5759848,29.2246447 63.6763733,29.2232976 63.7698858,29.2232976 Z M63.8028902,29.781005 L63.6254915,29.781005 C63.562233,29.781005 63.5003497,29.7836992 63.4398416,29.7890877 C63.3793335,29.7944762 63.3229509,29.7998647 63.2706939,29.8052531 C63.2184369,29.8106416 63.1758062,29.8160301 63.1428018,29.8214186 L63.1428018,29.8214186 L63.1428018,34.4285667 C63.1648047,34.4339552 63.2046851,34.4379966 63.2624428,34.4406908 C63.3202005,34.443385 63.3807087,34.4460793 63.4439671,34.4487735 C63.5072256,34.4514677 63.5677337,34.454162 63.6254915,34.4568562 C63.6832492,34.4595505 63.7258799,34.4608976 63.7533836,34.4608976 C64.0559242,34.4608976 64.3089581,34.3962359 64.5124854,34.2669124 C64.7160126,34.1375889 64.8769092,33.9638105 64.9951751,33.7455772 C65.1134409,33.5273439 65.1973272,33.2740854 65.2468338,32.9858019 C65.2963404,32.6975184 65.3210937,32.3917223 65.3210937,32.0684136 C65.3210937,31.7828243 65.2990908,31.5026235 65.2550849,31.2278112 C65.211079,30.9529988 65.1326935,30.7091702 65.0199284,30.4963254 C64.9071633,30.2834805 64.7531426,30.1110492 64.5578664,29.9790315 C64.3625903,29.8470138 64.1109315,29.781005 63.8028902,29.781005 L63.8028902,29.781005 Z" id="Path" fill-rule="nonzero"></path>
                <polygon id="Path" fill-rule="nonzero" points="67.598399 34.9458605 67.598399 29.2879593 66.979566 29.2879593 66.979566 34.9458605"></polygon>
                <path d="M70.5110394,29.1909667 C70.8575858,29.1909667 71.1518753,29.2596698 71.3939077,29.397076 C71.6359402,29.5344822 71.8325915,29.7298145 71.9838618,29.9830729 C72.1351321,30.2363313 72.246522,30.5434745 72.3180316,30.9045025 C72.3895412,31.2655305 72.425296,31.6696663 72.425296,32.1169099 C72.425296,33.0760589 72.2671498,33.8035033 71.9508574,34.2992433 C71.634565,34.7949832 71.1546257,35.0428531 70.5110394,35.0428531 C70.1699937,35.0428531 69.8784546,34.97415 69.6364222,34.8367439 C69.3943897,34.6993377 69.1963632,34.5040054 69.0423425,34.250747 C68.8883219,33.9974885 68.776932,33.6903453 68.7081727,33.3293173 C68.6394135,32.9682894 68.6050339,32.5641535 68.6050339,32.1169099 C68.6050339,31.157761 68.7618049,30.4303165 69.075347,29.9345766 C69.388889,29.4388367 69.8674531,29.1909667 70.5110394,29.1909667 Z M70.5110394,29.7486741 C70.1039848,29.7486741 69.7931932,29.9426593 69.5786644,30.3306297 C69.3641357,30.7186001 69.2568713,31.3140268 69.2568713,32.1169099 C69.2568713,32.4348301 69.2802494,32.7365848 69.3270057,33.0221741 C69.373762,33.3077634 69.4466467,33.5583276 69.54566,33.7738667 C69.6446733,33.9894058 69.7739406,34.1618371 69.933462,34.2911605 C70.0929834,34.420484 70.2855092,34.4851457 70.5110394,34.4851457 C70.9235947,34.4851457 71.2371367,34.2911605 71.4516655,33.9031902 C71.6661942,33.5152198 71.7734586,32.9197931 71.7734586,32.1169099 C71.7734586,31.8043782 71.7500805,31.5053177 71.7033242,31.2197284 C71.6565679,30.9341391 71.5836832,30.6822278 71.4846699,30.4639945 C71.3856566,30.2457612 71.2563893,30.0719828 71.0968679,29.9426593 C70.9373465,29.8133359 70.7420704,29.7486741 70.5110394,29.7486741 Z" id="Path" fill-rule="nonzero"></path>
                <path d="M74.372557,35.0428531 C74.895127,35.0428531 75.2994312,34.9081412 75.5854696,34.6387173 C75.8715079,34.3692935 76.0145271,33.9974885 76.0145271,33.5233025 C76.0145271,33.2431017 75.9595197,33.0006202 75.849505,32.7958581 C75.7394902,32.5910959 75.6019718,32.4078877 75.4369497,32.2462334 C75.2719275,32.0845791 75.0945288,31.9377431 74.9047533,31.8057254 C74.7149779,31.6737077 74.5375791,31.5430371 74.372557,31.4137136 C74.2075349,31.2843902 74.0700164,31.146984 73.9600017,31.0014951 C73.8499869,30.8560062 73.7949796,30.6889634 73.7949796,30.5003667 C73.7949796,30.2848276 73.8664892,30.1056608 74.0095083,29.9628661 C74.1525275,29.8200715 74.372557,29.7486741 74.6695968,29.7486741 C74.9116292,29.7486741 75.1247828,29.7729223 75.3090575,29.8214186 C75.4933322,29.8699149 75.6349762,29.9237996 75.7339895,29.9830729 L75.7339895,29.9830729 L75.932016,29.4496136 C75.7999983,29.374175 75.6267251,29.3122075 75.4121963,29.2637112 C75.1976676,29.2152149 74.9528848,29.1909667 74.6778479,29.1909667 C74.2322882,29.1909667 73.8706147,29.3000834 73.5928275,29.5183167 C73.3150402,29.7365501 73.1761466,30.0719828 73.1761466,30.5246149 C73.1761466,30.8048157 73.231154,31.0446029 73.3411687,31.2439766 C73.4511835,31.4433503 73.5887019,31.6198229 73.753724,31.7733945 C73.9187462,31.9269661 74.0961449,32.0670665 74.2859204,32.1936957 C74.4756958,32.3203249 74.6530946,32.4496484 74.8181167,32.5816661 C74.9831388,32.7136838 75.1206573,32.8578256 75.230672,33.0140914 C75.3406867,33.1703573 75.3956941,33.3535655 75.3956941,33.5637161 C75.3956941,33.8816363 75.2994312,34.1146879 75.1069054,34.262871 C74.9143796,34.4110542 74.6640961,34.4851457 74.3560548,34.4851457 C74.1140223,34.4851457 73.8981184,34.454162 73.708343,34.3921945 C73.5185675,34.330227 73.3714228,34.2642182 73.2669088,34.194168 L73.2669088,34.194168 L73.05238,34.7518754 C73.178897,34.827314 73.3480447,34.89467 73.559823,34.9539433 C73.7716014,35.0132165 74.0425127,35.0428531 74.372557,35.0428531 Z" id="Path" fill-rule="nonzero"></path>
            </g>
        </g>
    </g>
</svg>