<?xml version="1.0" encoding="UTF-8"?>
<svg width="135px" height="48px" viewBox="0 0 135 48" version="1.1" xmlns="http://www.w3.org/2000/svg" xmlns:xlink="http://www.w3.org/1999/xlink">
    <!-- Generator: Sketch 60.1 (88133) - https://sketch.com -->
    <title>bigtime</title>
    <desc>Created with Sketch.</desc>
    <g id="design" stroke="none" stroke-width="1" fill="none" fill-rule="evenodd">
        <g id="main" transform="translate(-1572.000000, -64.000000)" fill="#FFB124">
            <g id="bigtime" transform="translate(1572.000000, 64.000000)">
                <path d="M9.80425532,41.3617021 C10.8255319,41.3617021 12.5617021,41.6680851 13.4808511,41.8723404 C13.9914894,41.9744681 14.6042553,42.1787234 15.1148936,42.3829787 C15.3191489,42.4851064 15.6255319,42.587234 15.8297872,42.6893617 L16.5446809,42.9957447 C16.7489362,43.0978723 16.9531915,43.2 17.1574468,43.3021277 C17.3617021,43.4042553 17.5659574,43.506383 17.8723404,43.7106383 C18.587234,44.1191489 20.0170213,45.0382979 20.7319149,45.5489362 L21.3446809,45.9574468 C21.4468085,46.0595745 21.5489362,46.0595745 21.6510638,46.1617021 L19.9148936,45.8553191 C17.0553191,45.3446809 13.4808511,43.9148936 11.1319149,42.1787234 L10.5191489,41.7702128 C10.212766,41.6680851 9.90638298,41.4638298 9.80425532,41.3617021 Z M13.4808511,37.5829787 C14.6042553,37.5829787 15.6255319,37.787234 16.5446809,37.9914894 C17.4638298,38.1957447 19.0978723,38.6042553 19.9148936,38.9106383 C20.1191489,39.012766 20.3234043,39.012766 20.6297872,39.1148936 C21.8553191,39.4212766 23.387234,40.0340426 24.612766,40.4425532 L27.2680851,41.2595745 C27.6765957,41.3617021 28.187234,41.5659574 28.5957447,41.6680851 C30.4340426,42.2808511 34.0085106,43.0978723 35.8468085,43.0978723 L35.2340426,43.506383 C34.8255319,43.7106383 33.4978723,44.3234043 33.0893617,44.5276596 C31.9659574,44.9361702 30.4340426,45.5489362 29.2085106,45.7531915 C28.9021277,45.8553191 28.3914894,45.4468085 28.187234,45.3446809 L23.5914894,42.6893617 C23.4893617,42.587234 23.387234,42.587234 23.2851064,42.4851064 C22.0595745,41.7702128 20.6297872,40.8510638 19.4042553,40.1361702 C17.8723404,39.3191489 16.0340426,38.4 14.4,37.8893617 C14.1957447,37.6851064 13.6851064,37.5829787 13.4808511,37.5829787 L13.4808511,37.5829787 Z M18.1787234,36.1531915 C18.4851064,36.1531915 19.812766,36.3574468 20.2212766,36.3574468 C20.9361702,36.4595745 21.5489362,36.5617021 22.1617021,36.6638298 C27.6765957,37.3787234 33.3957447,38.6042553 39.2170213,37.6851064 C40.1361702,37.4808511 41.5659574,37.1744681 42.4851064,36.8680851 L42.6893617,36.7659574 C42.7914894,36.7659574 42.893617,36.6638298 42.893617,36.6638298 C42.7914894,36.7659574 42.7914894,36.8680851 42.6893617,36.9702128 C42.587234,37.0723404 42.587234,37.1744681 42.4851064,37.2765957 L41.0553191,39.012766 C40.7489362,39.3191489 39.5234043,40.4425532 39.2170213,40.8510638 C39.012766,40.8510638 38.9106383,40.8510638 38.706383,40.8510638 C35.9489362,41.1574468 32.1702128,40.4425532 29.5148936,39.6255319 C28.187234,39.2170213 26.8595745,38.8085106 25.4297872,38.4 C25.1234043,38.2978723 24.9191489,38.1957447 24.612766,38.093617 C23.693617,37.787234 22.3659574,37.3787234 21.4468085,37.0723404 C20.9361702,36.8680851 20.4255319,36.7659574 19.812766,36.5617021 C19.506383,36.4595745 19.3021277,36.3574468 18.9957447,36.3574468 C18.7914894,36.3574468 18.3829787,36.2553191 18.1787234,36.1531915 L18.1787234,36.1531915 Z M32.4765957,1.63404255 C33.3957447,1.94042553 34.3148936,2.34893617 35.1319149,2.85957447 C35.2340426,2.85957447 35.2340426,2.96170213 35.3361702,2.96170213 C35.5404255,3.06382979 35.7446809,3.16595745 35.8468085,3.26808511 C36.5617021,3.67659574 37.2765957,4.18723404 37.9914894,4.69787234 C38.4,5.00425532 38.8085106,5.3106383 39.2170213,5.61702128 L40.8510638,7.25106383 L41.7702128,8.17021277 C41.8723404,8.27234043 41.8723404,8.27234043 41.9744681,8.37446809 C42.0765957,8.47659574 42.0765957,8.47659574 42.1787234,8.5787234 L43.0978723,9.80425532 L44.2212766,11.5404255 C44.9361702,12.6638298 45.6510638,14.1957447 46.0595745,15.4212766 C46.5702128,17.0553191 46.8765957,18.2808511 47.1829787,20.0170213 C47.7957447,23.8978723 47.1829787,28.0851064 45.7531915,31.7617021 C45.6510638,32.1702128 45.4468085,32.4765957 45.2425532,32.8851064 C45.0382979,33.293617 44.9361702,33.6 44.7319149,34.0085106 C44.6297872,34.1106383 44.6297872,34.212766 44.6297872,34.212766 C44.5276596,34.4170213 44.0170213,35.3361702 43.9148936,35.4382979 C43.812766,35.5404255 43.506383,35.6425532 43.3021277,35.6425532 C42.4851064,35.9489362 41.6680851,36.2553191 40.8510638,36.4595745 C38.9106383,36.9702128 36.6638298,37.0723404 34.3148936,37.0723404 C33.7021277,37.0723404 31.7617021,36.9702128 31.0468085,36.8680851 C25.7361702,36.3574468 19.9148936,35.0297872 14.706383,35.0297872 C12.9702128,35.0297872 11.2340426,35.2340426 9.70212766,35.5404255 C8.27234043,35.7446809 7.14893617,36.1531915 5.92340426,36.6638298 C5.8212766,36.7659574 5.61702128,36.8680851 5.41276596,36.8680851 C5.3106383,36.7659574 5.20851064,36.6638298 5.20851064,36.5617021 C4.49361702,35.5404255 3.88085106,34.5191489 3.37021277,33.3957447 C2.85957447,32.3744681 2.45106383,31.2510638 2.04255319,30.2297872 C1.32765957,27.9829787 0.919148936,25.7361702 0.919148936,23.387234 C0.919148936,20.9361702 1.22553191,18.893617 1.83829787,16.7489362 C1.94042553,16.3404255 2.04255319,15.9319149 2.14468085,15.6255319 C2.24680851,15.4212766 2.24680851,15.3191489 2.34893617,15.1148936 L2.75744681,14.093617 C3.47234043,12.2553191 4.49361702,10.6212766 5.71914894,9.0893617 L7.76170213,6.74042553 L8.47659574,6.12765957 C8.5787234,6.02553191 8.5787234,6.02553191 8.68085106,5.92340426 C9.39574468,5.3106383 10.1106383,4.69787234 10.9276596,4.18723404 C11.5404255,3.7787234 12.0510638,3.47234043 12.6638298,3.06382979 L14.093617,2.34893617 C15.4212766,1.63404255 17.3617021,1.0212766 18.893617,0.612765957 C23.693617,-0.306382979 27.9829787,-0.10212766 32.4765957,1.63404255 Z M34.3148936,14.706383 C33.4978723,14.8085106 32.5787234,15.1148936 31.9659574,15.4212766 C31.4553191,15.6255319 31.1489362,15.8297872 30.7404255,16.1361702 C30.6382979,16.2382979 30.6382979,16.2382979 30.5361702,16.3404255 L30.1276596,16.7489362 C29.3106383,17.5659574 28.5957447,18.3829787 28.187234,19.506383 C27.6765957,20.6297872 27.2680851,22.0595745 27.2680851,23.387234 C27.2680851,25.3276596 27.2680851,26.1446809 27.9829787,27.9829787 C28.187234,28.3914894 28.493617,29.106383 28.6978723,29.412766 L29.412766,30.3319149 C29.5148936,30.4340426 29.6170213,30.5361702 29.7191489,30.6382979 C29.9234043,30.8425532 30.1276596,31.0468085 30.2297872,31.1489362 C32.5787234,33.1914894 35.7446809,33.4978723 38.706383,32.7829787 C39.8297872,32.4765957 40.8510638,32.1702128 41.8723404,31.4553191 L42.3829787,31.1489362 C42.4851064,31.1489362 42.4851064,31.0468085 42.4851064,30.9446809 L42.4851064,22.2638298 L36.3574468,22.2638298 C36.2553191,22.2638298 36.2553191,22.2638298 36.2553191,22.3659574 L36.2553191,25.6340426 L38.706383,25.6340426 L38.706383,28.9021277 C38.6042553,28.9021277 38.6042553,29.0042553 38.5021277,29.0042553 C37.2765957,29.8212766 35.3361702,29.6170213 34.1106383,29.106383 C33.6,28.9021277 32.987234,28.3914894 32.6808511,27.9829787 C32.2723404,27.4723404 31.9659574,26.9617021 31.7617021,26.3489362 C31.0468085,24.2042553 31.3531915,21.3446809 32.6808511,19.6085106 L33.1914894,19.0978723 C33.293617,18.9957447 33.293617,18.9957447 33.3957447,18.893617 C33.4978723,18.7914894 33.6,18.6893617 33.8042553,18.587234 C33.906383,18.587234 33.906383,18.4851064 34.0085106,18.4851064 C34.1106383,18.3829787 34.1106383,18.3829787 34.212766,18.3829787 C35.7446809,17.7702128 37.0723404,17.7702128 38.6042553,18.4851064 C39.2170213,18.7914894 39.3191489,18.7914894 39.8297872,19.2 C39.9319149,19.3021277 40.0340426,19.4042553 40.2382979,19.506383 L41.2595745,17.5659574 C41.3617021,17.4638298 41.3617021,17.3617021 41.4638298,17.1574468 C41.5659574,16.8510638 41.7702128,16.6468085 41.8723404,16.3404255 C41.7702128,16.2382979 41.3617021,15.9319149 40.9531915,15.6255319 C39.9319149,14.9106383 38.706383,14.5021277 37.4808511,14.4 C37.2765957,14.4 36.9702128,14.4 36.7659574,14.4 C36.0510638,14.5021277 34.6212766,14.6042553 34.3148936,14.706383 Z M12.3574468,14.5021277 C10.1106383,14.5021277 8.17021277,15.2170213 6.84255319,16.7489362 C6.74042553,16.8510638 6.43404255,17.2595745 6.43404255,17.4638298 L6.43404255,30.8425532 C6.43404255,31.0468085 7.35319149,31.4553191 7.55744681,31.5574468 C7.96595745,31.7617021 8.37446809,31.9659574 8.88510638,32.1702128 C9.70212766,32.4765957 10.9276596,32.7829787 12.0510638,32.7829787 C13.4808511,32.7829787 15.3191489,32.6808511 16.6468085,32.2723404 C18.7914894,31.5574468 20.2212766,29.5148936 20.2212766,27.2680851 C20.2212766,25.2255319 19.3021277,23.8978723 17.7702128,22.8765957 C17.5659574,22.7744681 17.1574468,22.5702128 17.1574468,22.5702128 C17.4638298,22.4680851 18.1787234,21.7531915 18.4851064,21.3446809 C19.3021277,20.3234043 19.3021277,18.7914894 18.7914894,17.6680851 C18.6893617,17.2595745 18.587234,17.1574468 18.2808511,16.7489362 C18.1787234,16.6468085 18.0765957,16.4425532 17.9744681,16.3404255 C17.7702128,16.1361702 17.5659574,15.9319149 17.2595745,15.7276596 C15.8297872,14.6042553 14.6042553,14.5021277 12.3574468,14.5021277 Z M32.1702128,14.5021277 L16.4425532,14.5021277 C16.4425532,14.6042553 16.4425532,14.5021277 16.5446809,14.6042553 C16.5446809,14.6042553 16.6468085,14.6042553 16.7489362,14.706383 C17.3617021,15.012766 18.0765957,15.5234043 18.4851064,16.0340426 L18.9957447,16.7489362 C19.2,17.0553191 19.6085106,17.9744681 19.7106383,18.2808511 L21.9574468,18.2808511 L21.9574468,32.6808511 C21.9574468,32.7829787 21.9574468,32.7829787 22.0595745,32.7829787 L25.5319149,32.7829787 C25.6340426,32.7829787 25.6340426,32.7829787 25.6340426,32.6808511 L25.6340426,18.2808511 L27.7787234,18.2808511 C27.7787234,17.9744681 28.5957447,17.0553191 28.9021277,16.8510638 C29.2085106,16.5446809 29.9234043,15.9319149 30.2297872,15.7276596 C30.7404255,15.3191489 31.4553191,14.9106383 31.9659574,14.706383 C32.1702128,14.6042553 32.1702128,14.706383 32.1702128,14.5021277 Z M13.8893617,24.612766 C14.2978723,24.7148936 14.6042553,24.8170213 14.9106383,25.0212766 C16.2382979,25.8382979 16.0340426,27.8808511 15.2170213,28.8 C14.706383,29.3106383 14.1957447,29.412766 13.2765957,29.412766 C12.4595745,29.412766 11.7446809,29.412766 11.0297872,29.106383 C10.9276596,29.106383 10.7234043,28.9021277 10.6212766,28.9021277 L10.6212766,24.5106383 C11.5404255,24.5106383 13.1744681,24.4085106 13.8893617,24.612766 Z M14.093617,18.4851064 C14.5021277,18.7914894 14.8085106,19.0978723 14.8085106,19.7106383 C14.8085106,21.0382979 13.9914894,21.5489362 12.7659574,21.5489362 L10.6212766,21.5489362 C10.6212766,20.8340426 10.5191489,19.7106383 10.7234043,19.0978723 C10.9276596,18.6893617 11.3361702,18.2808511 11.8468085,18.1787234 C12.6638298,17.8723404 13.4808511,17.9744681 14.093617,18.4851064 Z M41.6680851,11.6425532 C41.5659574,11.6425532 40.8510638,12.4595745 40.8510638,12.5617021 C40.5446809,12.5617021 39.9319149,12.1531915 39.6255319,12.1531915 C39.6255319,12.3574468 40.1361702,13.0723404 40.2382979,13.1744681 C40.1361702,13.2765957 39.5234043,13.8893617 39.4212766,14.093617 C39.7276596,14.093617 40.4425532,13.8893617 40.6468085,13.787234 C40.6468085,13.8893617 41.2595745,14.8085106 41.3617021,14.9106383 L41.4638298,13.6851064 L42.6893617,13.3787234 C42.6893617,13.2765957 41.7702128,12.8680851 41.5659574,12.8680851 C41.5659574,12.4595745 41.6680851,12.1531915 41.6680851,11.6425532 Z M6.53617021,11.6425532 C6.53617021,11.9489362 6.63829787,12.4595745 6.63829787,12.8680851 C6.53617021,12.8680851 5.51489362,13.2765957 5.51489362,13.3787234 C5.61702128,13.3787234 6.63829787,13.5829787 6.63829787,13.6851064 C6.70638298,13.6851064 6.77446809,14.1276596 6.84255319,15.012766 L7.55744681,13.9914894 C7.76170213,13.9914894 8.5787234,14.1957447 8.78297872,14.1957447 C8.78297872,14.0595745 8.5106383,13.7531915 7.96595745,13.2765957 C8.06808511,13.0723404 8.5787234,12.2553191 8.5787234,12.1531915 C8.37446809,12.1531915 7.65957447,12.5617021 7.35319149,12.5617021 C6.94468085,11.9489362 6.67234043,11.6425532 6.53617021,11.6425532 Z M34.6212766,6.43404255 C34.5191489,6.43404255 33.7021277,8.17021277 33.7021277,8.37446809 C33.1914894,8.37446809 31.8638298,8.06808511 31.5574468,8.06808511 C31.5574468,8.13617021 32.0680851,8.64680851 33.0893617,9.6 C32.4765957,10.7574468 32.1702128,11.4042553 32.1702128,11.5404255 C32.2382979,11.5404255 32.8510638,11.2 34.0085106,10.5191489 C35.0297872,11.4723404 35.5744681,11.9829787 35.6425532,12.0510638 C35.6425532,11.7446809 35.2340426,10.1106383 35.2340426,9.90638298 C36.4595745,9.29361702 37.106383,8.95319149 37.1744681,8.88510638 L35.0297872,8.5787234 L34.6212766,6.43404255 Z M13.6851064,6.53617021 C13.4808511,6.53617021 13.1744681,8.47659574 13.1744681,8.5787234 L11.0297872,8.98723404 C11.2340426,8.98723404 12.6638298,9.80425532 12.9702128,10.0085106 L12.5617021,12.1531915 C12.7659574,12.1531915 13.8893617,10.8255319 14.1957447,10.7234043 C15.3531915,11.4042553 16,11.7446809 16.1361702,11.7446809 C16.1361702,11.6425532 15.3191489,9.90638298 15.2170213,9.80425532 C16.2382979,8.91914894 16.7829787,8.40851064 16.8510638,8.27234043 C16.5446809,8.27234043 15.012766,8.5787234 14.706383,8.5787234 C14.706383,8.47659574 13.6851064,6.63829787 13.6851064,6.53617021 Z M24.1021277,0.919148936 C24.0340426,1.19148936 23.5574468,2.58723404 22.6723404,5.10638298 L18.1787234,5.10638298 C18.1787234,5.20851064 21.8553191,7.76170213 21.8553191,7.76170213 L20.8340426,10.9276596 C20.7319149,11.1319149 20.5276596,11.7446809 20.5276596,11.9489362 C20.5957447,11.9489362 21.787234,11.0978723 24.1021277,9.39574468 C24.2042553,9.49787234 27.5744681,11.8468085 27.6765957,11.8468085 C27.6765957,11.7106383 27.2340426,10.3148936 26.3489362,7.65957447 C26.4510638,7.65957447 29.9234043,5.20851064 29.9234043,5.10638298 L25.5319149,5.10638298 C25.4297872,4.59574468 24.2042553,1.12340426 24.1021277,0.919148936 Z" id="Path"></path>
                <path d="M75.2680851,32.5787234 C75.8808511,32.5787234 76.3914894,32.6808511 76.9021277,32.8851064 C77.412766,33.0893617 77.8212766,33.3957447 78.0255319,33.8042553 L78.1276596,32.6808511 L80.6808511,32.6808511 L80.6808511,42.1787234 L78.2297872,42.1787234 L78.0255319,40.9531915 C77.7191489,41.4638298 77.3106383,41.7702128 76.8,41.9744681 C76.2893617,42.1787234 75.6765957,42.2808511 75.1659574,42.3829787 C73.7361702,42.3829787 72.5106383,41.9744681 71.5914894,41.0553191 C70.6723404,40.1361702 70.2638298,38.9106383 70.2638298,37.3787234 C70.2638298,35.8468085 70.7744681,34.6212766 71.693617,33.7021277 C72.7148936,32.987234 73.8382979,32.5787234 75.2680851,32.5787234 Z M75.5744681,35.0297872 C74.8595745,35.0297872 74.2468085,35.2340426 73.8382979,35.7446809 C73.3276596,36.1531915 73.1234043,36.7659574 73.1234043,37.5829787 C73.1234043,38.4 73.3276596,38.9106383 73.8382979,39.4212766 C74.3489362,39.8297872 74.8595745,40.1361702 75.5744681,40.1361702 C76.2893617,40.1361702 76.9021277,39.9319149 77.412766,39.4212766 C77.9234043,38.9106383 78.1276596,38.4 78.1276596,37.787234 C78.1276596,37.0723404 77.9234043,36.4595745 77.5148936,35.9489362 C77.0042553,35.2340426 76.3914894,35.0297872 75.5744681,35.0297872 Z" id="Path"></path>
                <path d="M91.9148936,42.2808511 L89.1574468,42.2808511 L89.1574468,37.1744681 C89.1574468,35.7446809 88.6468085,35.1319149 87.5234043,35.1319149 C87.012766,35.1319149 86.6042553,35.3361702 86.2978723,35.7446809 C85.9914894,36.1531915 85.787234,36.6638298 85.787234,37.1744681 L85.787234,42.2808511 L83.0297872,42.2808511 L83.0297872,32.7829787 L85.4808511,32.7829787 L85.6851064,33.906383 C86.1957447,33.0893617 87.012766,32.5787234 88.1361702,32.5787234 C89.4638298,32.5787234 90.3829787,33.1914894 90.893617,34.3148936 C91.3021277,33.7021277 91.812766,33.1914894 92.2212766,32.987234 C92.6297872,32.7829787 93.3446809,32.5787234 93.9574468,32.5787234 C95.0808511,32.5787234 96,32.8851064 96.7148936,33.6 C97.4297872,34.3148936 97.7361702,35.4382979 97.7361702,37.0723404 L97.7361702,42.2808511 L94.9787234,42.2808511 L94.9787234,37.1744681 C94.9787234,35.8468085 94.4680851,35.2340426 93.5489362,35.2340426 C93.0382979,35.2340426 92.6297872,35.4382979 92.3234043,35.8468085 C92.0170213,36.2553191 91.812766,36.6638298 91.812766,37.2765957 L91.9148936,42.2808511 L91.9148936,42.2808511 Z" id="Path"></path>
                <polygon id="Path" points="102.842553 32.7829787 100.085106 32.7829787 100.085106 42.2808511 102.842553 42.2808511"></polygon>
                <path d="M114.791489,42.2808511 L112.034043,42.2808511 L112.034043,37.2765957 C112.034043,35.8468085 111.421277,35.0297872 110.093617,35.0297872 C109.480851,35.0297872 108.970213,35.2340426 108.561702,35.7446809 C108.153191,36.2553191 107.948936,36.7659574 107.948936,37.3787234 L107.948936,42.2808511 L105.191489,42.2808511 L105.191489,32.7829787 L107.642553,32.7829787 L107.744681,34.0085106 C108.459574,32.987234 109.480851,32.5787234 110.808511,32.5787234 C113.46383,32.5787234 114.791489,34.1106383 114.791489,37.2765957 L114.791489,42.2808511 L114.791489,42.2808511 Z" id="Path"></path>
                <path d="M124.8,31.6595745 L126.842553,33.1914894 L125.617021,34.6212766 C126.331915,35.4382979 126.638298,36.3574468 126.638298,37.3787234 C126.638298,38.9106383 125.923404,40.0340426 124.595745,40.6468085 C126.025532,41.2595745 126.740426,42.2808511 126.740426,43.7106383 C126.740426,45.0382979 126.229787,46.0595745 125.208511,46.7744681 C124.187234,47.4893617 122.961702,47.8978723 121.634043,47.8978723 C120,47.8978723 118.774468,47.4893617 117.957447,46.7744681 C117.140426,46.0595745 116.731915,44.9361702 116.731915,43.6085106 L119.285106,43.6085106 C119.387234,44.9361702 120.204255,45.5489362 121.634043,45.5489362 C122.246809,45.5489362 122.859574,45.4468085 123.268085,45.1404255 C123.676596,44.8340426 123.982979,44.4255319 123.982979,43.812766 C123.982979,42.6893617 123.165957,42.1787234 121.634043,42.1787234 C120.102128,42.1787234 118.876596,41.7702128 117.957447,40.8510638 C117.038298,40.0340426 116.52766,38.8085106 116.52766,37.3787234 C116.52766,35.8468085 117.038298,34.6212766 118.059574,33.8042553 C119.080851,32.987234 120.306383,32.5787234 121.634043,32.5787234 C122.655319,32.5787234 123.370213,32.7829787 123.880851,33.0893617 L124.8,31.6595745 Z M121.531915,34.9276596 C120.817021,34.9276596 120.204255,35.1319149 119.795745,35.5404255 C119.387234,35.9489362 119.080851,36.5617021 119.080851,37.2765957 C119.080851,37.9914894 119.285106,38.5021277 119.795745,38.9106383 C120.306383,39.3191489 120.817021,39.5234043 121.531915,39.5234043 C122.246809,39.5234043 122.757447,39.3191489 123.268085,38.9106383 C123.778723,38.5021277 123.982979,37.9914894 123.982979,37.2765957 C123.982979,36.5617021 123.778723,36.0510638 123.268085,35.5404255 C122.757447,35.2340426 122.246809,34.9276596 121.531915,34.9276596 Z" id="Path"></path>
                <polygon id="Path" points="73.2255319 11.0297872 70.4680851 11.0297872 70.4680851 20.5276596 73.2255319 20.5276596"></polygon>
                <path d="M83.4382979,9.90638298 L85.4808511,11.4382979 L84.2553191,12.8680851 C84.9702128,13.6851064 85.2765957,14.6042553 85.2765957,15.6255319 C85.2765957,17.1574468 84.5617021,18.2808511 83.2340426,18.893617 C84.6638298,19.506383 85.3787234,20.5276596 85.3787234,21.9574468 C85.3787234,23.2851064 84.8680851,24.306383 83.8468085,25.0212766 C82.8255319,25.7361702 81.6,26.1446809 80.2723404,26.1446809 C78.6382979,26.1446809 77.412766,25.7361702 76.5957447,25.0212766 C75.7787234,24.306383 75.3702128,23.1829787 75.3702128,21.8553191 L77.9234043,21.8553191 C78.0255319,23.1829787 78.8425532,23.7957447 80.2723404,23.7957447 C80.8851064,23.7957447 81.4978723,23.693617 81.906383,23.387234 C82.3148936,23.0808511 82.6212766,22.6723404 82.6212766,22.0595745 C82.6212766,20.9361702 81.8042553,20.4255319 80.2723404,20.4255319 C78.7404255,20.4255319 77.5148936,20.0170213 76.5957447,19.0978723 C75.6765957,18.2808511 75.1659574,17.0553191 75.1659574,15.6255319 C75.1659574,14.093617 75.6765957,12.8680851 76.6978723,12.0510638 C77.7191489,11.2340426 78.9446809,10.8255319 80.2723404,10.8255319 C81.293617,10.8255319 82.0085106,11.0297872 82.5191489,11.3361702 L83.4382979,9.90638298 Z M80.1702128,13.1744681 C79.4553191,13.1744681 78.8425532,13.3787234 78.4340426,13.787234 C78.0255319,14.1957447 77.7191489,14.8085106 77.7191489,15.5234043 C77.7191489,16.2382979 77.9234043,16.7489362 78.4340426,17.1574468 C78.9446809,17.5659574 79.4553191,17.7702128 80.1702128,17.7702128 C80.8851064,17.7702128 81.3957447,17.5659574 81.906383,17.1574468 C82.4170213,16.7489362 82.6212766,16.2382979 82.6212766,15.5234043 C82.6212766,14.8085106 82.4170213,14.2978723 81.906383,13.787234 C81.3957447,13.4808511 80.7829787,13.1744681 80.1702128,13.1744681 Z" id="Path"></path>
                <polygon id="Path" points="105.702128 11.0297872 102.944681 11.0297872 102.944681 20.5276596 105.702128 20.5276596"></polygon>
                <path d="M116.834043,20.5276596 L114.076596,20.5276596 L114.076596,15.4212766 C114.076596,13.9914894 113.565957,13.3787234 112.442553,13.3787234 C111.931915,13.3787234 111.523404,13.5829787 111.217021,13.9914894 C110.910638,14.4 110.706383,14.9106383 110.706383,15.4212766 L110.706383,20.5276596 L107.948936,20.5276596 L107.948936,11.0297872 L110.4,11.0297872 L110.604255,12.1531915 C111.114894,11.3361702 111.931915,10.8255319 113.055319,10.8255319 C114.382979,10.8255319 115.302128,11.4382979 115.812766,12.5617021 C116.221277,11.9489362 116.731915,11.4382979 117.140426,11.2340426 C117.548936,11.0297872 118.26383,10.8255319 118.876596,10.8255319 C120,10.8255319 120.919149,11.1319149 121.634043,11.8468085 C122.348936,12.5617021 122.655319,13.6851064 122.655319,15.3191489 L122.655319,20.5276596 L119.897872,20.5276596 L119.897872,15.4212766 C119.897872,14.093617 119.387234,13.4808511 118.468085,13.4808511 C117.957447,13.4808511 117.548936,13.6851064 117.242553,14.093617 C116.93617,14.5021277 116.731915,14.9106383 116.731915,15.5234043 L116.834043,20.5276596 L116.834043,20.5276596 Z" id="Path"></path>
                <path d="M129.497872,10.8255319 C131.131915,10.8255319 132.459574,11.3361702 133.378723,12.3574468 C134.297872,13.3787234 134.604255,14.8085106 134.297872,16.7489362 L127.353191,16.7489362 C127.455319,17.2595745 127.659574,17.6680851 128.170213,17.9744681 C128.578723,18.2808511 129.191489,18.4851064 129.906383,18.4851064 C130.92766,18.4851064 131.744681,18.2808511 132.357447,17.7702128 L133.889362,19.506383 C132.970213,20.4255319 131.540426,20.9361702 129.804255,20.9361702 C128.068085,20.9361702 126.842553,20.5276596 125.923404,19.6085106 C125.004255,18.6893617 124.493617,17.4638298 124.493617,15.9319149 C124.493617,14.5021277 124.902128,13.2765957 125.821277,12.3574468 C126.740426,11.2340426 127.965957,10.8255319 129.497872,10.8255319 Z M129.497872,13.1744681 C128.987234,13.1744681 128.476596,13.2765957 128.068085,13.5829787 C127.659574,13.8893617 127.353191,14.1957447 127.251064,14.706383 L131.744681,14.706383 C131.744681,14.1957447 131.438298,13.8893617 131.029787,13.5829787 C130.621277,13.2765957 130.110638,13.1744681 129.497872,13.1744681 Z" id="Path"></path>
                <path d="M100.391489,31.4553191 C100.085106,31.1489362 99.8808511,30.7404255 99.8808511,30.3319149 C99.8808511,29.8212766 100.085106,29.412766 100.391489,29.2085106 C100.697872,28.9021277 101.106383,28.8 101.514894,28.8 C101.923404,28.8 102.229787,28.9021277 102.638298,29.2085106 C102.944681,29.5148936 103.148936,29.9234043 103.148936,30.3319149 C103.148936,30.8425532 102.944681,31.2510638 102.638298,31.4553191 C102.331915,31.7617021 101.923404,31.8638298 101.514894,31.8638298 C101.106383,31.8638298 100.697872,31.6595745 100.391489,31.4553191 Z" id="Path"></path>
                <path d="M68.3234043,30.5361702 L66.4851064,32.3744681 C65.6680851,31.5574468 64.6468085,31.1489362 63.3191489,31.1489362 C61.9914894,31.1489362 60.9702128,31.5574468 60.2553191,32.2723404 C59.5404255,32.987234 59.1319149,34.1106383 59.1319149,35.5404255 C59.1319149,36.0510638 59.2340426,36.5617021 59.3361702,37.0723404 C59.4382979,37.5829787 59.7446809,37.9914894 60.0510638,38.5021277 C60.3574468,38.9106383 60.7659574,39.3191489 61.3787234,39.5234043 C61.9914894,39.8297872 62.6042553,39.9319149 63.3191489,39.9319149 C64.4425532,39.9319149 65.3617021,39.6255319 66.1787234,39.012766 L66.1787234,36.7659574 L63.012766,36.7659574 L63.012766,34.3148936 L68.8340426,34.3148936 L68.8340426,40.1361702 C67.7106383,41.7702128 65.8723404,42.587234 63.4212766,42.587234 C62.1957447,42.587234 61.0723404,42.3829787 60.1531915,41.9744681 C59.2340426,41.5659574 58.4170213,41.0553191 57.906383,40.3404255 C57.3957447,39.6255319 56.987234,38.9106383 56.6808511,38.093617 C56.3744681,37.2765957 56.2723404,36.4595745 56.2723404,35.5404255 C56.2723404,34.5191489 56.3744681,33.7021277 56.6808511,32.7829787 C56.987234,31.9659574 57.3957447,31.1489362 58.0085106,30.5361702 C58.6212766,29.8212766 59.3361702,29.3106383 60.2553191,29.0042553 C61.1744681,28.5957447 62.2978723,28.3914894 63.4212766,28.3914894 C65.3617021,28.3914894 66.9957447,29.106383 68.3234043,30.5361702 L68.3234043,30.5361702 Z" id="Path"></path>
                <path d="M103.251064,9.70212766 C102.944681,9.39574468 102.740426,8.98723404 102.740426,8.5787234 C102.740426,8.06808511 102.944681,7.65957447 103.251064,7.45531915 C103.557447,7.14893617 103.965957,7.04680851 104.374468,7.04680851 C104.782979,7.04680851 105.089362,7.14893617 105.497872,7.45531915 C105.804255,7.76170213 106.008511,8.17021277 106.008511,8.5787234 C106.008511,9.0893617 105.804255,9.49787234 105.497872,9.70212766 C105.191489,10.0085106 104.782979,10.1106383 104.374468,10.1106383 C103.965957,10.1106383 103.557447,10.0085106 103.251064,9.70212766 Z" id="Path"></path>
                <polygon id="Path" points="94.4680851 20.5276596 94.4680851 9.80425532 90.3829787 9.80425532 90.3829787 7.04680851 101.514894 7.04680851 101.514894 9.80425532 97.4297872 9.80425532 97.4297872 20.5276596"></polygon>
                <path d="M70.7744681,9.70212766 C70.4680851,9.39574468 70.2638298,8.98723404 70.2638298,8.5787234 C70.2638298,8.06808511 70.4680851,7.65957447 70.7744681,7.45531915 C71.0808511,7.14893617 71.4893617,6.94468085 71.7957447,6.94468085 C72.2042553,6.94468085 72.5106383,7.04680851 72.9191489,7.35319149 C73.2255319,7.65957447 73.4297872,8.06808511 73.4297872,8.47659574 C73.4297872,8.98723404 73.2255319,9.39574468 72.9191489,9.6 C72.612766,9.90638298 72.2042553,10.0085106 71.7957447,10.0085106 C71.4893617,10.1106383 71.0808511,10.0085106 70.7744681,9.70212766 Z" id="Path"></path>
                <path d="M63.6255319,7.04680851 C64.9531915,7.04680851 66.0765957,7.35319149 66.9957447,7.96595745 C67.9148936,8.5787234 68.3234043,9.49787234 68.3234043,10.7234043 C68.3234043,12.0510638 67.7106383,12.8680851 66.587234,13.4808511 C67.4042553,13.787234 68.0170213,14.2978723 68.4255319,15.012766 C68.8340426,15.7276596 68.9361702,16.5446809 68.7319149,17.3617021 C68.3234043,19.506383 66.6893617,20.5276596 63.8297872,20.5276596 L57.0893617,20.5276596 L57.0893617,7.04680851 L63.6255319,7.04680851 Z M63.5234043,14.8085106 L59.8468085,14.8085106 L59.8468085,17.8723404 L63.5234043,17.8723404 C64.8510638,17.8723404 65.4638298,17.3617021 65.4638298,16.3404255 C65.4638298,15.8297872 65.2595745,15.4212766 64.9531915,15.2170213 C64.7489362,14.9106383 64.2382979,14.8085106 63.5234043,14.8085106 Z M63.6255319,9.70212766 L59.9489362,9.70212766 L59.9489362,12.3574468 L63.6255319,12.3574468 C64.7489362,12.3574468 65.3617021,11.9489362 65.3617021,11.1319149 C65.3617021,10.7234043 65.2595745,10.4170213 64.9531915,10.1106383 C64.5446809,9.80425532 64.1361702,9.70212766 63.6255319,9.70212766 Z" id="Path"></path>
            </g>
        </g>
    </g>
</svg>