<?xml version="1.0" encoding="UTF-8"?>
<svg width="105px" height="48px" viewBox="0 0 105 48" version="1.1" xmlns="http://www.w3.org/2000/svg" xmlns:xlink="http://www.w3.org/1999/xlink">
    <!-- Generator: Sketch 60.1 (88133) - https://sketch.com -->
    <title>lightning</title>
    <desc>Created with Sketch.</desc>
    <g id="design" stroke="none" stroke-width="1" fill="none" fill-rule="evenodd">
        <g id="main" transform="translate(-985.000000, -256.000000)" fill="#FFB124">
            <g id="lightning" transform="translate(985.000000, 256.000000)">
                <path d="M75.8,18.7 C76.3,18.6 76.8,18.5 77.2,18.5 C77.9,18.5 78,18.4 78,17.7 C78,17.2 77.9,16.6 77.9,16.1 C77.9,15.5 77.9,14.9 77.9,14.3 C77.9,14 77.8,13.8 77.4,13.8 C77,13.8 76.5,13.8 76.1,13.8 C76,13.8 75.7,14 75.7,14.1 C75.7,15.6 75.8,17.1 75.8,18.7 L75.8,18.7 Z M86.8,18.7 C87.3,18.6 87.8,18.5 88.2,18.5 C88.9,18.5 89,18.4 89,17.7 C89,16.8 88.9,15.8 88.9,14.9 C88.9,13.7 89,13.9 87.9,13.9 C86.8,13.9 86.8,13.9 86.8,15 L86.8,18.7 L86.8,18.7 Z M97.6,5.5 C97.6,5.5 97.6,5.5 97.6,5.5 C97.6,5.8 97.6,6.4 97.8,6.5 C98.7,7 98.9,7.9 98.9,8.8 C98.9,9.4 99.3,9.5 99.7,9.6 C100.3,9.7 101.1,9.4 101.1,9 C101.1,8.2 101.2,7.3 100.9,6.6 C100.5,5.5 99.8,4.4 98.3,4.5 C97.9,4.5 97.6,4.6 97.6,5.1 C97.6,5.2 97.6,5.3 97.6,5.5 L97.6,5.5 Z M47.5,16.4 L47.5,16.4 C46.7,16.4 45.9,16.4 45.2,16.4 C44.9,16.4 44.7,16.5 44.8,16.8 C44.8,17.2 44.8,17.6 44.8,18 C44.8,18.5 45,18.7 45.5,18.6 C45.8,18.5 46.1,18.5 46.5,18.5 C47.3,18.5 48,18.6 48.8,18.6 C50.4,18.6 50.3,18.6 50.5,17 C50.5,16.4 50.3,16.3 49.9,16.3 C49,16.4 48.2,16.4 47.5,16.4 L47.5,16.4 Z M75,6.5 C75,6 75.1,5.5 75.1,5 C75.1,4.7 75,4.5 74.7,4.5 C72.9,4.5 71,4.4 69.2,4.4 C69,4.4 68.7,4.7 68.7,4.8 C68.6,5.3 68.7,5.9 68.7,6.5 L75,6.5 L75,6.5 Z M88.9,4.7 C88.7,4.8 88.5,4.8 88.4,4.9 C88,5.2 87.7,5.1 87.3,4.9 C86.8,4.6 86.7,4.7 86.7,5.2 C86.7,6.5 86.7,7.8 86.7,9.2 C86.7,10.3 86.7,11.4 86.7,12.5 C86.7,13.7 86.7,13.7 87.9,13.7 C88.8,13.7 88.8,13.7 88.8,12.8 C88.8,10.3 88.8,7.8 88.8,5.3 C89,5.1 89,4.9 88.9,4.7 L88.9,4.7 Z M75.8,4.6 C75.8,5.9 75.8,7.1 75.8,8.3 C75.8,9.7 75.7,11.1 75.7,12.4 C75.7,13.6 75.7,13.6 76.9,13.6 C77.8,13.6 77.8,13.6 77.8,12.7 C77.8,12.6 77.8,12.6 77.8,12.5 C77.8,10.1 77.8,7.6 77.8,5.2 C77.8,5 77.8,4.9 77.8,4.6 C77.2,5.2 76.5,5.1 75.8,4.6 L75.8,4.6 Z M97.7,11.5 C97.7,11.9 97.7,12.4 97.7,12.8 C97.7,13.2 97.8,13.3 98.2,13.3 C98.7,13.3 99,13.5 98.9,14.1 C98.9,14.6 98.8,15.2 98.8,15.7 C98.8,16.2 98.5,16.6 98,16.7 C97.9,16.7 97.7,17 97.7,17.1 C97.7,17.6 97.8,18.1 97.8,18.6 C97.8,18.6 98,18.7 98.1,18.7 C98.6,18.7 99.1,18.7 99.6,18.7 C99.9,18.7 100.2,18.6 100.5,18.6 C101,18.5 101,18.2 101,17.4 C101,16 101.1,14.5 101,13.1 C101,12.5 101.3,11.8 100.5,11.5 C99.7,11.8 98.7,11.3 97.7,11.5 L97.7,11.5 Z M60.4,11.4 C60,11.5 59.8,11.6 59.5,11.6 C59,11.6 58.6,11.5 58.1,11.5 C57.4,11.4 57.4,11.4 57.4,12.2 C57.4,12.4 57.4,12.6 57.4,12.8 C57.4,13.2 57.5,13.4 57.9,13.3 C58.4,13.3 58.6,13.5 58.6,14 C58.6,14.4 58.6,14.9 58.6,15.3 C58.6,16 58.5,16.5 57.7,16.7 C57.6,16.7 57.4,17 57.4,17.1 C57.4,17.6 57.5,18 57.6,18.5 C57.6,18.5 57.8,18.5 57.9,18.5 C58.5,18.5 59,18.5 59.6,18.5 C59.8,18.5 60.1,18.4 60.3,18.4 C60.8,18.3 60.9,18 60.9,17.2 C60.9,15.7 60.9,14.1 60.9,12.6 C60.8,12.1 61,11.6 60.4,11.4 L60.4,11.4 Z M47,16.3 C47,15.1 47,14 47,12.9 C47,12.7 46.9,12.5 46.8,12.4 C46.7,12.2 46.6,12 46.7,11.9 C47,10.4 47,8.9 46.9,7.3 C46.9,6.7 46.7,6 47,5.4 C47.1,5.2 46.7,4.6 46.4,4.6 C46.1,4.6 45.7,4.7 45.4,4.7 C45,4.7 44.9,4.8 44.9,5.3 C44.9,7.2 44.9,9.2 44.9,11.1 C44.9,11.7 45,12.4 44.9,13 C44.9,14 44.8,15.1 44.8,16.1 C44.8,16.2 44.9,16.3 45,16.3 C45.6,16.3 46.3,16.3 47,16.3 L47,16.3 Z M72.8,12.7 C72.8,11.2 72.8,9.8 72.8,8.3 C72.8,7.8 72.9,7.1 72.7,6.9 C72.4,6.6 71.7,6.8 71.3,6.8 C70.8,6.8 70.6,6.9 70.6,7.5 C70.6,11 70.6,14.5 70.6,17.9 C70.6,18 70.6,18.2 70.6,18.3 C70.7,18.5 70.9,18.6 71.1,18.7 C71.5,18.7 72,18.7 72.4,18.7 C72.8,18.7 72.9,18.6 72.9,18.2 C72.8,16.4 72.8,14.5 72.8,12.7 L72.8,12.7 Z M94.6,11.4 C94.6,12.7 94.5,14 94.6,15.3 C94.6,16 94.8,16.7 95.1,17.4 C95.3,17.9 95.8,18.3 96.2,18.5 C96.5,18.7 97.1,18.6 97.4,18.5 C97.7,18.4 97.6,17 97.3,16.8 C96.8,16.4 96.6,15.9 96.6,15.3 C96.5,13.1 96.5,10.8 96.5,8.6 C96.5,8 96.7,7.3 97.1,6.9 C97.3,6.6 97.5,6.3 97.5,5.9 C97.5,5.6 97.5,5.4 97.5,5.1 C97.5,4.7 97.4,4.6 97,4.6 C95.8,4.6 94.6,6 94.6,7.3 C94.5,8.6 94.6,10 94.6,11.4 L94.6,11.4 Z M83.9,4.8 L83.9,5.4 C83.9,9.4 83.9,13.4 83.9,17.4 C83.9,18.8 83.9,18.8 85.3,18.8 C85.9,18.8 86.1,18.7 86.1,18.1 C86.1,17.4 86,16.8 86,16.1 C86,14 86,12 86,9.9 C86,8.3 86,6.7 86,5.1 C86,4.6 85.8,4.5 85.4,4.6 C84.9,4.6 84.4,4.7 83.9,4.8 L83.9,4.8 Z M63.4,18.5 C63.6,17.8 63.7,5.3 63.5,4.6 C63,4.6 62.5,4.6 62,4.6 C61.6,4.6 61.5,4.7 61.5,5.1 C61.4,9.3 61.7,13.6 61.4,17.8 C61.4,18.1 61.4,18.3 61.5,18.6 C61.7,18.6 61.9,18.5 62.1,18.5 C62.5,18.4 63,18.5 63.4,18.5 L63.4,18.5 Z M51.3,11.6 C51.3,13.7 51.3,15.9 51.3,18 C51.3,18.7 51.3,18.7 52,18.6 C52.1,18.6 52.3,18.6 52.4,18.6 C53.2,18.7 53.6,18.4 53.6,17.6 C53.6,17 53.5,16.4 53.5,15.8 C53.5,14 53.6,12.1 53.6,10.3 C53.6,8.5 53.5,6.8 53.5,5 C53.5,4.5 53.3,4.4 52.8,4.5 C52.5,4.6 52.2,4.7 51.9,4.7 C51.4,4.7 51.3,4.9 51.3,5.3 C51.3,7.4 51.3,9.5 51.3,11.6 L51.3,11.6 Z M65.7,18.5 C66.2,18.6 66.7,18.6 67.2,18.7 C67.9,18.7 68,18.6 68,17.9 C68,15.3 68,12.7 68,10.2 C68,8.5 68,6.7 68,5 C68,4.8 68.1,4.5 67.6,4.5 C67.2,4.5 66.9,4.5 66.5,4.5 C65.9,4.5 65.8,4.6 65.8,5.2 C65.8,6.7 65.8,8.1 65.8,9.6 L65.8,10.2 C65.1,10.3 64.6,10.3 63.9,10.4 C63.9,11 63.9,11.5 63.9,12.1 C63.9,12.5 64,12.6 64.4,12.5 C64.8,12.5 65.2,12.5 65.7,12.5 L65.7,18.5 Z M57.2,6.3 C58,6.6 58.4,7.2 58.5,8 C58.5,8.2 58.5,8.4 58.5,8.6 C58.5,9 58.7,9.2 59,9.4 C59.4,9.6 60,9.5 60.4,9.2 C60.8,8.9 60.6,8.6 60.7,8.3 C61,7.3 60.7,6.4 60.2,5.6 C59.7,4.9 59,4.2 58,4.4 C57.4,4.5 56.9,4.4 56.3,4.5 C55.3,4.7 54.2,6 54.2,7.1 C54.2,9.9 54.2,12.7 54.2,15.5 C54.2,16.4 54.5,17.2 55.1,17.9 C55.3,18.1 55.6,18.4 55.9,18.4 C56.3,18.5 56.8,18.4 57.1,18.2 C57.3,18.1 57.2,16.7 56.9,16.5 C56.4,16.1 56.2,15.5 56.2,14.8 C56.1,12.8 56.1,10.8 56.1,8.9 C56.2,8.1 56.2,7 57.2,6.3 L57.2,6.3 Z M80.7,4.6 L80.7,12.2 C80.6,12.1 80.5,11.9 80.5,11.8 C79.9,9.7 79.3,7.7 78.7,5.6 C78.6,5.4 78.5,5.2 78.4,5.1 C78.4,5.1 78.3,5.2 78.3,5.2 C78.3,5.3 78.3,5.4 78.3,5.6 C78.3,7.2 78.3,8.9 78.3,10.5 C78.3,10.7 78.3,11 78.4,11.2 C79.1,13.3 79.8,15.4 80.6,17.5 C80.9,18.4 81,18.4 81.9,18.4 C82.7,18.4 82.8,18.3 82.9,17.5 C82.9,15.9 82.9,14.2 82.9,12.6 C82.9,11 82.9,9.3 82.9,7.7 C82.9,7.4 83.1,7.1 83,6.9 C82.7,6.2 82.8,5.5 83.1,4.7 L80.7,4.7 L80.7,4.6 Z M89.4,5.1 C89.3,5.1 89.3,5.1 89.2,5.2 C89.2,5.3 89.1,5.4 89.1,5.5 C89.1,7.1 89.1,8.7 89.1,10.3 C89.1,10.6 89.1,10.9 89.2,11.1 C89.9,13.2 90.6,15.3 91.4,17.4 C91.7,18.4 91.8,18.4 92.8,18.4 C93.6,18.4 93.8,18.2 93.8,17.4 C93.8,15.8 93.8,14.2 93.8,12.6 C93.8,10.9 93.8,9.3 93.8,7.6 C93.8,7.3 93.9,7 93.9,6.8 C93.9,6.1 93.8,5.4 93.8,4.6 C93.5,4.6 93,4.6 92.6,4.6 C91.7,4.6 91.8,4.5 91.8,5.4 C91.8,7.6 91.8,9.9 91.8,12.1 C91.7,12 91.6,11.8 91.6,11.6 C91,9.6 90.4,7.6 89.8,5.5 C89.7,5.5 89.5,5.3 89.4,5.1 L89.4,5.1 Z M0.9,43.6 C3.7,39.5 6.6,35.4 9.5,31.2 C8.6,31.2 7.8,31.2 7,31.2 C6.7,31.2 6.3,31 6.2,30.8 C6.1,30.6 6.2,30.1 6.4,29.9 C8.5,26.9 10.7,23.9 12.8,20.9 C12.9,20.8 13,20.6 13.1,20.5 L10.2,20.5 C7.6,20.5 5,20.5 2.5,20.5 C2,20.5 1.3,20.7 1.2,19.8 C1.1,19.8 1.1,19.9 1,19.9 L1,43.6 L0.9,43.6 Z M23.2,17.5 C30.2,11.9 37.2,6.4 44.1,0.8 C44.1,0.8 44.1,0.7 44,0.7 L43.6,0.7 C36.3,0.7 29.1,0.7 21.8,0.7 C21.4,0.7 21.2,0.9 21.1,1.2 C17.5,6.9 14,12.7 10.4,18.4 C10.4,18.5 10.3,18.6 10.3,18.7 L15.1,18.7 C12.3,22.7 9.5,26.6 6.6,30.6 L10.7,30.6 C7.6,35.1 4.5,39.5 1.4,44 C1.4,44 1.4,44 1.5,44.1 C8.8,39 16.1,33.9 23.5,28.8 C23.5,28.8 23.5,28.7 23.5,28.7 L16.3,28.7 C20.8,25 25.1,21.3 29.6,17.6 L23.2,17.6 L23.2,17.5 Z M31.2,20.3 C31.5,20.9 31,21.3 30.5,21.6 C28.5,23.2 26.4,24.9 24.4,26.5 C23.8,26.9 23.3,27.4 22.7,27.9 C22.9,27.9 23,27.9 23.1,27.9 C23.7,27.8 24.1,28.1 24.4,28.7 C24.7,29.2 25,29.7 25.4,30.2 C25.8,30.8 25.8,31.1 25.2,31.6 C18.5,36.3 11.8,40.9 5.1,45.6 C4.8,45.8 4.4,45.9 4,45.7 C3,45.3 1.9,44.9 0.9,44.5 L0.9,46.8 L103.8,46.8 L103.8,19.8 C103.3,20.5 103.3,20.5 102.4,20.5 C95.6,20.5 88.8,20.5 82,20.5 C81.5,20.5 80.9,20.4 80.4,20.4 C79.4,20.4 78.5,20.3 77.5,20.3 C76.8,20.3 76,20.7 75.3,20.6 C74.2,20.4 73.1,20.4 72,20.4 C71.7,20.4 71.4,20.3 71.2,20.3 C70.6,20.3 70,20.5 69.4,20.5 C67.4,20.5 65.4,20.5 63.5,20.5 C58.2,20.5 52.9,20.5 47.6,20.5 C42.6,20.5 37.6,20.5 32.6,20.5 C32.1,20.5 31.7,20.4 31.2,20.3 L31.2,20.3 Z M52.3,47.3 C35.3,47.3 18.3,47.3 1.3,47.3 C0.3,47.3 0.3,47.3 0.3,46.3 C0.3,33.9 0.3,21.5 0.3,9.1 C0.3,6.4 0.3,3.7 0.3,0.9 C0.3,0.2 0.4,0.1 1.1,0.1 C15.4,0.1 29.6,0.1 43.9,0.1 C63.7,0.1 83.5,0.1 103.3,0.1 C103.5,0.1 103.6,0.1 103.8,0.1 C104.2,0.1 104.4,0.3 104.4,0.7 C104.4,2.5 104.4,4.3 104.4,6.1 C104.4,19.5 104.4,32.9 104.4,46.4 C104.4,47.2 104.3,47.2 103.5,47.2 C86.4,47.3 69.4,47.3 52.3,47.3 L52.3,47.3 Z" id="Path"></path>
                <path d="M81.2,21.4 C81.4,21.6 81.5,21.8 81.5,22.1 C81.6,22.6 81.6,23.1 81.6,23.6 C81.6,26.6 81.6,29.5 81.6,32.5 L81.6,32.5 C81.6,35.5 81.6,38.6 81.6,41.6 C81.6,42 81.5,42.4 81.5,42.8 C81.4,43.4 80.7,43.8 80,43.8 C77.8,43.8 75.6,43.8 73.4,43.8 C70.8,43.8 68.2,43.8 65.6,43.8 C65.1,43.8 64.6,43.7 64.2,43.3 C64,43.1 63.9,42.9 63.9,42.7 C63.9,41.4 63.9,40.2 63.9,38.9 C63.9,33.7 63.9,28.5 63.9,23.3 C63.9,22.9 63.9,22.6 64,22.2 C64,21.3 64.3,20.8 65.5,20.7 C67.1,20.6 68.8,20.7 70.4,20.7 C70.6,20.7 70.9,20.6 71.1,20.6 C72.1,20.6 73.2,20.5 74.2,20.6 C75,20.6 75.8,20.7 76.6,20.6 C77.6,20.5 78.5,20.6 79.5,20.5 C80.1,20.5 80.7,20.8 81.2,21.4 Z M70.7,25.3 C70.2,25.3 70.1,25.5 70.1,25.9 C70.1,28.1 70.1,30.3 70.1,32.5 C70.1,34.5 70.1,36.5 70.1,38.6 C71.6,38.6 73,38.6 74.3,38.6 C74.8,38.6 75,38.4 75,37.9 C75,34.3 74.9,30.6 74.9,27 C74.9,26.5 74.9,25.9 74.9,25.3 C73.4,25.3 72.1,25.3 70.7,25.3 Z" id="Path"></path>
                <path d="M50,21.2 C50.1,21.2 50.3,21.1 50.4,21.1 L50.8,21.1 C53.4,21 56.1,20.8 58.5,22.1 C60.4,23.1 61.7,24.6 61.7,26.8 C61.7,28.5 61.1,30.1 59.9,31.4 C59.8,31.5 59.7,31.6 59.5,31.8 C63.9,34.4 62.4,40.8 59.3,42.7 C58.1,43.5 56.7,43.7 55.3,43.9 C53.5,44.2 51.6,44.2 49.8,43.9 C48.5,43.7 47.1,43.9 45.8,43.9 L45.5,43.9 C44.2,43.9 44.1,43.7 44.1,42.3 L44.1,42.2 L44.1,23.1 L44.1,23.1 C44.1,22.7 44.1,22.4 44.1,22 C44.1,21.4 44.4,21.1 45,21 C45.4,21 45.8,20.9 46.2,20.9 L46.4,20.9 C47.5,21 48.8,20.7 50,21.2 Z M50.6,34.2 C50.5,34.2 50.2,34.4 50.2,34.6 C50.2,35.4 50.2,36.1 50.2,36.9 L50.2,36.9 L50.2,39.1 C51.2,39 52.1,39 53,38.8 C53.4,38.7 53.8,38.5 54.2,38.3 C54.9,37.9 55.2,37.2 55.1,36.4 C55,35.6 54.7,35.1 54,34.7 C53.1,34.3 52.2,34.2 51.3,34.2 L51.3,34.2 L50.6,34.2 Z M50.3,25.6 C50.3,27 50.3,28.3 50.3,29.6 C50.3,29.7 50.5,29.9 50.5,29.9 C51.7,29.9 52.8,29.9 53.8,29.2 C54.6,28.7 54.8,28.1 54.6,27.1 C54.5,26.5 53.8,25.9 53.1,25.8 C52.2,25.6 51.3,25.6 50.3,25.6 Z" id="Path"></path>
                <path d="M92.3,25.9 C93.1,24.6 93.9,23.5 94.6,22.2 C95,21.5 95.6,21.1 96.5,21.1 C98,21.1 99.5,21 101,20.9 C102.1,20.9 102.6,21.4 102.2,22.5 C102,23.1 101.6,23.7 101.3,24.3 C101.1,24.8 100.8,25.2 100.5,25.6 C100.4,25.7 100.4,25.8 100.3,25.9 C99.1,27 98.4,28.4 97.6,29.8 C97.2,30.6 96.7,31.3 96.3,32.1 C96.3,32 96.3,32.1 96.3,32.1 C98,34.7 99.6,37.3 101.3,39.9 C101.6,40.4 102,40.7 102.3,41.2 C102.9,42.1 102.7,43 101.6,43.4 C101,43.6 100.3,43.8 99.7,43.8 C98.9,44 98.1,44 97.3,44 C96.7,44 96.3,43.9 96,43.4 C94.9,41.8 93.7,40.3 92.5,38.8 C92.4,38.7 92.3,38.6 92.2,38.4 C91.6,39.4 91,40.4 90.4,41.4 C90,42 89.6,42.6 89.1,43.2 C88.8,43.6 88.3,43.8 87.7,43.6 C87.6,43.6 87.4,43.5 87.2,43.6 C86.4,44 85.6,43.9 84.8,43.8 C84.4,43.8 84,43.7 83.6,43.7 C82.5,43.7 82.1,43 82.7,42.1 C84.5,39 86.3,35.9 88.2,32.8 C88.4,32.4 88.4,32.1 88.2,31.7 C87,29.8 85.8,27.8 84.7,25.9 C84.1,25 83.6,24 83.1,23 C82.6,22 83,21.3 84.2,21.2 C84.7,21.2 85.2,21 85.8,21 C86.4,21 86.9,21 87.5,21 C87.7,21 87.8,21 88,21 C88.9,20.7 89.7,21.1 90.2,21.8 C90.7,22.6 91.1,23.5 91.6,24.3 C91.7,24.8 92,25.3 92.3,25.9" id="Path"></path>
            </g>
        </g>
    </g>
</svg>