<?xml version="1.0" encoding="UTF-8"?>
<svg width="90px" height="48px" viewBox="0 0 90 48" version="1.1" xmlns="http://www.w3.org/2000/svg" xmlns:xlink="http://www.w3.org/1999/xlink">
    <!-- Generator: Sketch 60.1 (88133) - https://sketch.com -->
    <title>pushgaming</title>
    <desc>Created with Sketch.</desc>
    <g id="design" stroke="none" stroke-width="1" fill="none" fill-rule="evenodd">
        <g id="main" transform="translate(-1034.000000, -352.000000)" fill="#FFB124" fill-rule="nonzero">
            <g id="pushgaming" transform="translate(1034.000000, 352.000000)">
                <path d="M5.68183569,0.680061403 L6.11861431,0.682106182 C8.84573712,0.708006719 10.8291653,0.979962355 12.0688989,1.49797309 C13.3738816,2.04324755 14.4031637,2.92548937 15.1567452,4.14469855 C15.9103268,5.36390773 16.2871176,6.82512075 16.2871176,8.52833759 C16.2871176,10.4153548 15.7939199,11.9837847 14.8075245,13.2336273 C13.8211291,14.4834699 12.4824497,15.3534583 10.7914862,15.8435927 C9.79896418,16.1254199 7.99159379,16.2663336 5.36937504,16.2663336 L5.36937504,16.2663336 L5.36937504,27.7170972 L0.222964426,27.7170972 L0.222964426,0.680061403 L5.68183569,0.680061403 Z M6.82139804,5.71619179 L5.36937504,5.71619179 L5.36937504,11.2485832 L7.00519842,11.2485832 C8.29180107,11.2485832 9.18629625,11.156683 9.68868395,10.9728826 C10.1910717,10.7890823 10.5862425,10.4858116 10.8741964,10.0630708 C11.1621503,9.64032989 11.3061273,9.12875217 11.3061273,8.52833759 C11.3061273,7.48680211 10.9017665,6.72709388 10.0930448,6.24921289 C9.50488357,5.89386549 8.41433466,5.71619179 6.82139804,5.71619179 L6.82139804,5.71619179 Z" id="Path"></path>
                <path d="M30.3110865,28.3971586 C31.8059962,28.3971586 33.1171056,28.1612814 34.2444146,27.6895271 C35.3717236,27.2177728 36.367309,26.4917613 37.2311708,25.5114926 C38.0950326,24.5312239 38.6801304,23.5141952 38.9864644,22.4604063 C39.2927984,21.4066175 39.4459653,19.5196003 39.4459653,16.7993547 L39.4459653,16.7993547 L39.4459653,0.680061403 L34.2811747,0.680061403 L34.2811747,17.5345562 C34.2811747,19.3480532 34.1555778,20.5764524 33.9043839,21.2197538 C33.6531901,21.8630551 33.1998158,22.3930129 32.5442611,22.8096271 C31.8887064,23.2262412 31.1075548,23.4345483 30.2008063,23.4345483 C29.3430712,23.4345483 28.610933,23.2476846 28.0043917,22.8739572 C27.3978505,22.5002298 26.9628563,22.0009054 26.699409,21.3759841 C26.4359618,20.7510628 26.3042382,19.6850206 26.3042382,18.1778575 L26.3042382,18.1778575 L26.3042382,0.680061403 L21.1394476,0.680061403 L21.1394476,16.7993547 C21.1394476,20.021988 21.4519082,22.3103027 22.0768295,23.6642988 C22.7017508,25.0182949 23.7402229,26.1456039 25.1922459,27.0462258 C26.6442689,27.9468477 28.3505491,28.3971586 30.3110865,28.3971586 Z" id="Path"></path>
                <path d="M51.7789708,28.3971586 C54.2418959,28.3971586 56.2391933,27.6742104 57.7708631,26.2283141 C59.302533,24.7824178 60.0683679,22.9505407 60.0683679,20.7326828 C60.0683679,19.5931204 59.8508708,18.5423949 59.4158765,17.5805063 C58.9808823,16.6186176 58.2426175,15.6107789 57.201082,14.55699 C56.7844678,14.1281225 55.595892,13.0927137 53.6353546,11.4507636 C51.5400303,9.67402662 50.284061,8.51608424 49.8674468,7.97693646 C49.5611129,7.57257562 49.4079459,7.14370807 49.4079459,6.6903338 C49.4079459,6.23695953 49.6223797,5.82953536 50.0512472,5.46806128 C50.4801148,5.1065872 51.0315159,4.92585016 51.7054506,4.92585016 C53.0900802,4.92585016 54.450203,5.85710542 55.785819,7.71961593 L55.785819,7.71961593 L59.5904869,4.35606899 C58.1690973,2.70186557 56.8487979,1.56230322 55.6295887,0.937381934 C54.4103795,0.312460645 53.1268402,2.84217094e-14 51.7789708,2.84217094e-14 C49.6836465,2.84217094e-14 47.9222262,0.670871384 46.4947099,2.01261415 C45.0671936,3.35435692 44.3534355,4.96261024 44.3534355,6.83737411 C44.3534355,8.13623012 44.782303,9.43814947 45.6400381,10.7431322 C46.4977732,12.0481149 48.3970438,13.9014353 51.3378499,16.3030936 C52.8817731,17.5651896 53.8804218,18.5025715 54.3337961,19.1152394 C54.7871703,19.7279074 55.0138575,20.3405753 55.0138575,20.9532432 C55.0138575,21.6271779 54.7136502,22.2214658 54.1132356,22.7361069 C53.512821,23.250748 52.7714928,23.5080685 51.889251,23.5080685 C50.1982875,23.5080685 48.7033778,22.313366 47.4045218,19.9239611 L47.4045218,19.9239611 L43.0852128,22.5339265 C44.1022416,24.5557307 45.3245141,26.038387 46.7520304,26.9818957 C48.1795467,27.9254043 49.8551935,28.3971586 51.7789708,28.3971586 Z" id="Path"></path>
                <polygon id="Path" points="70.1957688 27.7170972 70.1957688 15.8619727 79.2387474 15.8619727 79.2387474 27.7170972 84.4402982 27.7170972 84.4402982 0.680061403 79.2387474 0.680061403 79.2387474 10.8809824 70.1957688 10.8809824 70.1957688 0.680061403 64.975838 0.680061403 64.975838 27.7170972"></polygon>
                <path d="M7.53544766,47.9099979 C8.88432745,47.9099979 10.0598699,47.6232034 11.062075,47.0496143 C12.0642801,46.4760252 12.8805414,45.6440059 13.5108591,44.5535564 C14.1411768,43.4631068 14.4563356,42.3096255 14.4563356,41.0931124 L14.4563356,41.0931124 L14.4374261,40.506917 L7.44090001,40.506917 L7.44090001,42.9935201 L11.4686299,42.9935201 C11.0841361,43.8129331 10.5783062,44.4148865 9.9511401,44.7993802 C9.32397402,45.183874 8.55341068,45.3761209 7.63945007,45.3761209 C6.23384168,45.3761209 5.05199607,44.9096858 4.09391322,43.9768157 C3.13583037,43.0439456 2.65678895,41.9062222 2.65678895,40.5636456 C2.65678895,39.2651912 3.11849664,38.1621353 4.04191201,37.2544778 C4.96532739,36.3468204 6.11092974,35.8929917 7.47871907,35.8929917 C9.04821005,35.8929917 10.4223026,36.5170062 11.6009966,37.7650351 L11.6009966,37.7650351 L13.4635853,35.921356 C12.6126564,35.0010922 11.7428181,34.351865 10.8540701,33.9736744 C9.80143965,33.5261488 8.67001945,33.3023861 7.45980954,33.3023861 C5.14654371,33.3023861 3.26819708,34.1123443 1.82476963,35.7322607 C0.608256544,37.0937468 6.03961325e-14,38.6947537 6.03961325e-14,40.5352813 C6.03961325e-14,41.8778579 0.329340979,43.1290384 0.988022936,44.2888229 C1.64670489,45.4486074 2.54175597,46.3420827 3.67317618,46.9692488 C4.80459638,47.5964149 6.09202021,47.9099979 7.53544766,47.9099979 Z" id="Path"></path>
                <path d="M23.8070981,33.6522124 L29.1584951,47.5601716 L26.4071585,47.5601716 L25.3198605,44.6953778 L19.6470015,44.6953778 L18.5124297,47.5601716 L15.7610932,47.5601716 L21.1219449,33.6522124 L23.8070981,33.6522124 Z M22.483431,37.3395707 L20.6302971,42.114227 L24.3271102,42.114227 L22.483431,37.3395707 Z" id="Path"></path>
                <polygon id="Path" points="32.7323962 47.5601716 34.2546134 38.776695 37.1761357 47.5601716 39.5114627 47.5601716 42.4708041 38.776695 43.964657 47.5601716 46.5174435 47.5601716 44.1726618 33.6522124 41.6198753 33.6522124 38.3579814 43.3528012 35.1433613 33.6522124 32.5527557 33.6522124 30.1512454 47.5601716"></polygon>
                <polygon id="Path" points="51.0746402 47.5601716 51.0746402 33.6522124 48.4462155 33.6522124 48.4462155 47.5601716"></polygon>
                <polygon id="Path" points="56.7096801 47.5601716 56.7096801 38.4363234 62.666182 47.5601716 65.2095138 47.5601716 65.2095138 33.6522124 62.5621796 33.6522124 62.5621796 42.8044248 56.5962229 33.6522124 54.0623459 33.6522124 54.0623459 47.5601716"></polygon>
                <path d="M75.2882932,47.9099979 C76.637173,47.9099979 77.8127154,47.6232034 78.8149205,47.0496143 C79.8171256,46.4760252 80.633387,45.6440059 81.2637046,44.5535564 C81.8940223,43.4631068 82.2091811,42.3096255 82.2091811,41.0931124 L82.2091811,41.0931124 L82.1902716,40.506917 L75.1937456,40.506917 L75.1937456,42.9935201 L79.2214754,42.9935201 C78.8369816,43.8129331 78.3311517,44.4148865 77.7039856,44.7993802 C77.0768196,45.183874 76.3062562,45.3761209 75.3922956,45.3761209 C73.9866872,45.3761209 72.8048416,44.9096858 71.8467588,43.9768157 C70.8886759,43.0439456 70.4096345,41.9062222 70.4096345,40.5636456 C70.4096345,39.2651912 70.8713422,38.1621353 71.7947576,37.2544778 C72.7181729,36.3468204 73.8637753,35.8929917 75.2315646,35.8929917 C76.8010556,35.8929917 78.1751481,36.5170062 79.3538421,37.7650351 L79.3538421,37.7650351 L81.2164308,35.921356 C80.365502,35.0010922 79.4956636,34.351865 78.6069157,33.9736744 C77.5542852,33.5261488 76.422865,33.3023861 75.2126551,33.3023861 C72.8993893,33.3023861 71.0210426,34.1123443 69.5776152,35.7322607 C68.3611021,37.0937468 67.7528456,38.6947537 67.7528456,40.5352813 C67.7528456,41.8778579 68.0821865,43.1290384 68.7408685,44.2888229 C69.3995504,45.4486074 70.2946015,46.3420827 71.4260217,46.9692488 C72.5574419,47.5964149 73.8448658,47.9099979 75.2882932,47.9099979 Z" id="Path"></path>
                <polygon id="Path" points="84.5739645 36.408635 84.5739645 33.8428374 85.1493903 33.8428374 85.1493903 33.2502348 83.4037891 33.2502348 83.4037891 33.8428374 83.964185 33.8428374 83.964185 36.408635"></polygon>
                <polygon id="Path" points="85.9073204 36.408635 86.2530053 34.4139689 86.9164626 36.408635 87.446799 36.408635 88.1188447 34.4139689 88.4580882 36.408635 89.0378082 36.408635 88.5053247 33.2502348 87.9256047 33.2502348 87.1848514 35.4531706 86.4548337 33.2502348 85.8665253 33.2502348 85.3211591 36.408635"></polygon>
            </g>
        </g>
    </g>
</svg>