<?xml version="1.0" encoding="utf-8"?>
<!-- Generator: Adobe Illustrator 24.3.0, SVG Export Plug-In . SVG Version: 6.00 Build 0)  -->
<svg version="1.1" id="Шар_1" xmlns="http://www.w3.org/2000/svg" xmlns:xlink="http://www.w3.org/1999/xlink" x="0px" y="0px"
	 viewBox="0 0 250.1 47.9" style="enable-background:new 0 0 250.1 47.9;" xml:space="preserve">
<style type="text/css">
	.st0{fill:#FFB124;}
</style>
<g>
	<polygon class="st0" points="52.7,25.9 65.6,25.9 65.6,20 52.7,20 52.7,11.3 72.1,11.3 72.1,5.3 45.9,5.3 45.9,41.6 72.7,41.6 
		72.7,35.6 52.7,35.6 	"/>
	<polygon class="st0" points="89.6,15.8 83.9,33.8 77.8,15.8 70.8,15.8 80.7,41.6 87,41.6 96.3,15.8 	"/>
	<path class="st0" d="M108.5,15.3c-7.8,0-13.3,5.6-13.3,13.4s5.3,13.3,13.1,13.3c7.8,0,13.4-5.6,13.4-13.3
		C121.7,20.9,116.3,15.3,108.5,15.3z M114.9,28.9c0,4.8-2.5,7.6-6.4,7.6c-3.9,0-6.3-2.8-6.3-7.6v-0.2c0-4.9,2.4-7.9,6.4-7.9
		c3.9,0,6.3,2.9,6.3,7.9V28.9z"/>
	<rect x="124.8" y="4.8" class="st0" width="6.8" height="36.7"/>
	<path class="st0" d="M152,28.9c0,4.4-1.5,7.4-5,7.4c-3.1,0-4.7-2-4.7-5.5V15.8h-6.8v15.4c0,6.7,3.6,10.8,9.4,10.8
		c3.3,0,5.7-1.5,7-4.1v3.7h6.8V15.8H152V28.9z"/>
	<path class="st0" d="M171.6,7.2l-6.6,3.7v4.9h-3.7v5.5h3.7v13.5c0.1,4.3,1.2,6.5,6.2,6.8h5.2v-5.6h-3c-1.3-0.1-1.9-0.6-1.9-1.9
		V21.3h5.1v-5.5h-5.1V7.2z"/>
	<rect x="179.8" y="15.8" class="st0" width="6.8" height="25.8"/>
	<rect x="179.7" y="5.4" class="st0" width="7" height="6.6"/>
	<path class="st0" d="M203,15.3c-7.8,0-13.3,5.6-13.3,13.4s5.3,13.3,13.1,13.3c7.8,0,13.4-5.6,13.4-13.3
		C216.2,20.9,210.7,15.3,203,15.3z M209.3,28.9c0,4.8-2.5,7.6-6.4,7.6c-3.9,0-6.3-2.8-6.3-7.6v-0.2c0-4.9,2.4-7.9,6.4-7.9
		c3.9,0,6.3,2.9,6.3,7.9V28.9z"/>
	<path class="st0" d="M233.5,15.3c-3.7,0-6.2,1.7-7.5,4.7v-4.2h-6.8v25.8h6.8V28.5c0-4.8,2-7.4,5.2-7.4c3.2,0,4.5,1.9,4.5,5.5v15.1
		h6.8V26.1C242.4,19,239.1,15.3,233.5,15.3z"/>
	<path class="st0" d="M37.3,43.7c0-0.3-0.1-0.5-0.3-0.7c-0.2-0.2-0.5-0.2-0.8-0.2h-0.9v2.7h0.5v-1h0.5l0.5,1h0.6l-0.6-1.1
		C36.9,44.4,37.3,44.2,37.3,43.7z M36.3,44.1c-0.1,0-0.2,0-0.3,0h-0.2v-0.8H36c0.3,0,0.4,0,0.5,0.1c0.2,0.1,0.2,0.3,0.2,0.4
		C36.8,44.1,36.4,44.1,36.3,44.1z"/>
	<path class="st0" d="M36.2,41.6c-1.5,0-2.6,1.2-2.6,2.6s1.2,2.6,2.6,2.6c1.5,0,2.6-1.2,2.6-2.6S37.7,41.6,36.2,41.6z M36.2,46.3
		c-1.2,0-2.1-0.9-2.1-2.1c0-1.2,0.9-2.1,2.1-2.1c1.2,0,2.1,0.9,2.1,2.1C38.3,45.4,37.4,46.3,36.2,46.3z"/>
	<path class="st0" d="M31,23.6C27.3,29.3,20.9,33,13.6,33C20.9,33,27.3,29.3,31,23.6c-10.8,0.5-15.8,4.5-19,9.3
		c-1.9,2.9-3.1,6-4.4,9c13.1,7,29.9-0.4,31.2-18.1C36,23.6,33.4,23.5,31,23.6z"/>
	<path class="st0" d="M7.7,3.9C11.3,12,14,21.6,31.9,22.2c0.2-0.4,0.4-0.8,0.6-1.1c-0.2,0.4-0.4,0.8-0.6,1.1c2.1,0.1,4.4,0,7-0.2
		c-0.4-5.1-2-9.4-4.5-12.7C28.2,1.2,17-1.1,7.7,3.9z"/>
</g>
</svg>
