<?xml version="1.0" encoding="UTF-8"?>
<svg width="154px" height="48px" viewBox="0 0 154 48" version="1.1" xmlns="http://www.w3.org/2000/svg" xmlns:xlink="http://www.w3.org/1999/xlink">
    <!-- Generator: Sketch 60.1 (88133) - https://sketch.com -->
    <title>blueprint</title>
    <desc>Created with Sketch.</desc>
    <g id="design" stroke="none" stroke-width="1" fill="none" fill-rule="evenodd">
        <g id="main" transform="translate(-1755.000000, -64.000000)" fill="#FFB124" fill-rule="nonzero">
            <g id="blueprint" transform="translate(1755.000000, 64.000000)">
                <path d="M3.48144422,-1.10134124e-13 C4.72950913,0.343971401 5.79693306,1.45778356 5.78051116,2.78453039 C5.79693306,5.04491388 5.78051116,7.28891778 5.78051116,9.54930127 C6.76582556,8.07513812 8.21095335,6.84666883 9.96809736,6.42079948 C12.0208357,5.92941176 14.2706369,6.09320767 16.1263124,7.14150146 C17.9655659,8.17341566 19.2957404,9.92603185 20.1332576,11.8424439 C21.2499473,14.3976601 21.3977444,17.2477088 21.1678377,19.9831004 C20.9050872,22.5383165 20.0347262,25.1426714 18.2283164,27.0590835 C16.8324544,28.4841079 14.8289817,29.0901527 12.9076187,29.401365 C10.3129574,29.7453364 7.63618661,29.401365 5.23858824,28.3530712 C3.97410142,27.7797855 2.6931927,27.1082223 1.83925355,25.9780305 C0.492657201,24.2254144 0.0821095335,21.9650309 0.0328438134,19.8193045 C0.0328438134,13.2183295 0.0328438134,6.60097498 0.0492657201,-1.10134124e-13 L3.48144422,-1.10134124e-13 Z M9.49186207,11.3346766 C8.30948479,11.5803705 7.29132657,12.3665908 6.71655984,13.4148846 C5.78051116,15.1019825 5.69840162,17.1002925 5.81335497,18.9839454 C5.92830832,20.4581085 6.20748073,22.0469288 7.22563895,23.1935002 C8.91709533,25.2245694 12.5463367,25.0935327 14.073574,22.9314267 C15.140998,21.4736432 15.3709047,19.6063698 15.4037485,17.8537537 C15.4201704,15.920962 15.0424665,13.8243744 13.6301826,12.39935 C12.5956024,11.2855379 10.9369899,11.0234644 9.49186207,11.3346766 Z" id="Path"></path>
                <path d="M22.530856,0.0818979526 C23.5982799,0.0982775431 24.6657039,0.065518362 25.7331278,0.0818979526 C27.096146,0.114657134 28.3770548,1.24484888 28.4427424,2.63711407 C28.4755862,11.4493338 28.4263205,20.2615535 28.4755862,29.0737732 C26.4885355,29.1065323 24.5179067,29.1065323 22.530856,29.0737732 C22.5472779,19.4098148 22.530856,9.74585635 22.530856,0.0818979526 Z" id="Path"></path>
                <path d="M64.8993753,6.78115047 C67.0342231,7.46909327 68.8734767,9.00877478 69.875213,11.0070848 C71.2382312,13.5786805 71.4352941,16.5433864 71.3039189,19.3934352 L56.6227343,19.3934352 C56.672,20.8839779 57.01686,22.4727982 58.1335497,23.521092 C59.3980365,24.7495613 61.417931,24.8478388 63.010856,24.3073123 C63.8483732,24.0616185 64.4067181,23.3572961 64.9979067,22.7676308 C65.4577201,22.2926227 66.1474402,22.161586 66.7714726,22.161586 C68.1837566,22.161586 69.5960406,22.1452064 71.0247465,22.161586 C70.6470426,23.439194 70.1379635,24.7004225 69.3168682,25.7650959 C67.7896308,27.7797855 65.3756105,29.041014 62.8794807,29.3686058 C60.1041785,29.7125772 57.0661258,29.4341241 54.7506369,27.7142671 C52.3366166,25.961651 51.0557079,23.0460838 50.7601136,20.1468963 C50.4316755,17.0347741 50.5958945,13.7097173 52.1067099,10.9088073 C53.321931,8.6320442 55.5717323,6.94494638 58.1171278,6.43717907 C60.3505071,5.97855054 62.7316836,6.07682808 64.8993753,6.78115047 Z M58.0514402,12.0881378 C57.0497039,12.9562561 56.6884219,14.3157621 56.6227343,15.5933702 C59.496568,15.6097498 62.3704016,15.5769906 65.2442353,15.6097498 C65.1949696,14.6269743 64.9814848,13.6114397 64.4724057,12.759701 C63.9961704,11.9407215 63.1422312,11.3838154 62.2226045,11.1708807 C60.7938986,10.8596685 59.1517079,11.0726032 58.0514402,12.0881378 Z" id="Path"></path>
                <path d="M29.920714,6.66649334 C31.8913428,6.68287293 33.8455497,6.66649334 35.8161785,6.66649334 L35.8161785,21.1296718 C35.8161785,22.2107247 36.1774604,23.3900552 37.1135091,24.0452389 C38.7885436,25.3064673 41.3832049,25.1099123 42.8283327,23.5866103 C43.468787,22.8822879 43.6658499,21.8995125 43.6658499,20.9822554 C43.6822718,17.1002925 43.6658499,13.2347091 43.6822718,9.35274618 C43.6986937,7.97686058 44.881071,6.7320117 46.2605112,6.68287293 C47.3279351,6.65011375 48.4117809,6.68287293 49.4792049,6.66649334 L49.4792049,19.9831004 C49.4956268,21.9158921 49.2492982,23.9305817 48.3132495,25.6504387 C47.8534361,26.4694183 47.2129817,27.1737407 46.4083083,27.6651284 C43.8793347,29.1884303 40.8084381,29.8436139 37.8853387,29.3686058 C36.0625071,29.0737732 34.2725193,28.4185895 32.72886,27.4030549 C31.5464828,26.6168346 30.7910751,25.3228469 30.4133712,23.9797205 C30.0685112,22.7840104 29.9042921,21.5391615 29.920714,20.2943126 C29.9042921,15.7571661 29.920714,11.2200195 29.920714,6.66649334 L29.920714,6.66649334 Z" id="Path"></path>
                <path d="M108.662535,0.0819112628 C109.729738,0.0819112628 110.780523,0.0655290102 111.847726,0.0819112628 C113.276137,0.0982935154 114.556781,1.35972696 114.589618,2.78498294 C114.606036,3.42389078 114.589618,4.07918089 114.606036,4.71808874 C112.635815,4.73447099 110.649175,4.71808874 108.678954,4.73447099 C108.662535,3.178157 108.695372,1.63822526 108.662535,0.0819112628 Z" id="Path"></path>
                <path d="M137.378511,24.9010239 L137.378511,0.0816374791 L140.432354,0.0816374791 C141.499557,0.0655290102 142.468249,0.786348123 142.944386,1.70375427 C143.223501,2.22798635 143.223501,2.85051195 143.223501,3.42389078 C143.207082,4.52150171 143.23992,5.63549488 143.207082,6.7331058 C144.372797,6.7331058 145.538511,6.71672355 146.687807,6.74948805 C146.687807,7.76518771 146.786318,8.91194539 146.063903,9.73105802 C145.407163,10.5993174 144.257867,10.8778157 143.223501,10.7795222 L143.223501,23.4102389 C143.190664,24.0491468 143.732475,24.5733788 144.33996,24.6552901 C145.11163,24.7535836 145.899718,24.6880546 146.687807,24.7044369 C146.671388,26.1624573 146.704225,27.6368601 146.671388,29.1112628 C144.619074,29.2423208 142.566761,29.1767918 140.514447,29.0129693 C139.578592,28.931058 138.609899,28.5215017 138.068089,27.7187713 C137.509859,26.8996587 137.378511,25.883959 137.378511,24.9010239 Z" id="Path"></path>
                <path d="M86.3661972,6.65119454 C88.1886519,7.17542662 89.9946881,8.14197952 91.0618913,9.76382253 C92.752998,12.2047782 93.3112274,15.2518771 93.2291348,18.1843003 C93.1798793,21.2150171 92.4082093,24.3767918 90.3723139,26.7030717 C89.058833,28.2593857 87.1378672,29.3078498 85.1019718,29.4716724 C82.9511469,29.6682594 80.5704628,29.2587031 78.9778672,27.7187713 C78.4853119,27.2764505 78.1569416,26.7194539 77.7464789,26.1952218 C77.7793159,28.9802048 77.7464789,31.7651877 77.7628974,34.5337884 C77.7793159,35.9754266 76.5150905,37.2860068 75.0702616,37.3515358 C74.0523139,37.3843003 73.0507847,37.3351536 72.032837,37.3679181 C71.9835815,30.4709898 72.032837,23.5740614 72.0164185,16.6771331 C72,14.596587 72.2298592,12.4505119 73.2642254,10.5993174 C73.8388732,9.58361775 74.7418913,8.69897611 75.8090946,8.10921502 C78.9450302,6.25802048 82.8526358,5.60273038 86.3661972,6.65119454 Z M81.4078068,11.2546075 C80.2749296,11.483959 79.3062374,12.2703072 78.715171,13.2696246 C77.8942455,14.7112628 77.7628974,16.4150171 77.7628974,18.0368601 C77.7628974,19.7406143 78.0255936,21.5918089 79.1584708,22.9515358 C80.7018109,25.0156997 84.2482093,25.1303754 85.8900604,23.0989761 C87.1707042,21.5590444 87.4498189,19.4784983 87.4005634,17.5453925 C87.3348893,15.7105802 86.9901006,13.7283276 85.6602012,12.3686007 C84.592998,11.2382253 82.8854728,10.959727 81.4078068,11.2546075 Z" id="Path"></path>
                <path d="M118.907686,8.43686007 C120.927163,7.0443686 123.357103,6.25802048 125.819879,6.15972696 C128.299074,6.14334471 130.77827,6.86416382 132.847002,8.22389078 C134.176901,9.12491468 134.981408,10.6156997 135.359034,12.1392491 C135.884427,14.1215017 135.769497,16.1692833 135.785915,18.2006826 L135.785915,29.1112628 C134.702294,29.1112628 133.618672,29.1276451 132.53505,29.0948805 C131.484266,29.062116 130.482736,28.3576792 130.121529,27.3583618 C129.89167,26.7849829 129.940926,26.1460751 129.940926,25.5399317 L129.940926,14.8914676 C129.940926,13.9576792 129.77674,12.9419795 129.152837,12.2211604 C127.543823,10.4518771 124.391469,10.4191126 122.83171,12.2539249 C122.027203,13.2204778 122.076459,14.5474403 122.092877,15.7269625 C122.092877,20.1829352 122.076459,24.6389078 122.109296,29.0948805 C120.122656,29.1440273 118.152435,29.0948805 116.165795,29.1112628 C116.182213,24.8191126 116.165795,20.5269625 116.165795,16.2348123 C116.149376,14.465529 116.297143,12.6307167 116.98672,10.9761092 C117.380765,9.97679181 118.037505,9.05938567 118.907686,8.43686007 Z" id="Path"></path>
                <path d="M100.190584,7.74880546 C102.32499,6.86416382 104.656419,6.60204778 106.938592,6.65119454 L106.938592,12.647099 C105.231066,12.6798635 103.359356,12.4177474 101.848853,13.4170648 C100.551791,14.268942 100.174165,15.9071672 100.157746,17.3488055 L100.157746,29.0948805 C98.1711066,29.0784983 96.2008853,29.1112628 94.2142455,29.0784983 C94.2470825,26.2116041 94.2142455,23.3283276 94.230664,20.4614334 C94.197827,17.6600683 94.1321529,14.6948805 95.4620523,12.1392491 C96.414326,10.1569966 98.1546881,8.58430034 100.190584,7.74880546 Z" id="Path"></path>
                <path d="M108.678954,6.65119454 C109.746157,6.66757679 110.796942,6.63481229 111.864145,6.65119454 C113.341811,6.68395904 114.638873,8.0109215 114.606036,9.48532423 L114.606036,29.0948805 C112.619396,29.0784983 110.649175,29.1276451 108.662535,29.0784983 C108.695372,21.6081911 108.678954,14.137884 108.678954,6.65119454 Z" id="Path"></path>
                <path d="M147.196781,31.3392491 C147.86994,31.3228669 148.543099,31.3228669 149.216258,31.3392491 L149.216258,31.716041 L148.411751,31.716041 C148.428169,32.9119454 148.395332,34.1078498 148.428169,35.3037543 C148.329658,35.3037543 148.116217,35.3037543 148.017706,35.3201365 C148.034125,34.1242321 148.017706,32.9119454 148.017706,31.716041 L147.196781,31.716041 L147.196781,31.3392491 Z" id="Path"></path>
                <path d="M149.62672,31.3228669 L150.217787,31.3228669 C150.693924,32.4696246 151.104386,33.6327645 151.61336,34.7631399 C152.05666,33.6163823 152.516378,32.4696246 152.976097,31.3228669 L153.567163,31.3228669 L153.567163,35.3201365 C153.468652,35.3201365 153.27163,35.3037543 153.173119,35.3037543 C153.173119,34.1569966 153.189537,33.0266212 153.173119,31.8798635 C152.647726,33.0102389 152.237264,34.1733788 151.777545,35.3201365 C151.629779,35.287372 151.383501,35.3201365 151.350664,35.1235495 C150.874527,34.0587031 150.529738,32.9283276 150.020765,31.8798635 C150.004346,33.0102389 150.020765,34.1569966 150.037183,35.3037543 C149.938672,35.3037543 149.725231,35.3037543 149.62672,35.287372 C149.643139,33.9767918 149.62672,32.6498294 149.62672,31.3228669 L149.62672,31.3228669 Z" id="Path"></path>
                <path d="M85.3482495,35.0088737 C87.1050302,34.6156997 89.0424145,34.7959044 90.569336,35.8116041 C91.6365392,36.516041 92.3753722,37.5972696 92.9007646,38.7440273 C91.8992354,38.7276451 90.9141247,38.7767918 89.9125956,38.7276451 C89.4857143,38.4 89.124507,37.9740614 88.6319517,37.7447099 C87.2035412,37.0566553 85.3482495,37.3023891 84.2317907,38.4491468 C82.6391952,39.9071672 82.5899396,42.6757679 84.1004427,44.2156997 C85.2004829,45.4116041 87.0721932,45.7720137 88.5498592,45.083959 C89.4200402,44.7071672 90.0603622,43.9535836 90.4872435,43.134471 C88.8125553,43.1180887 87.1542857,43.1180887 85.4795976,43.134471 C85.4795976,42.4300341 85.4795976,41.709215 85.4631791,41.0047782 L93.4097384,41.0047782 C93.4097384,41.643686 93.4097384,42.2825939 93.2619718,42.9215017 C92.6709054,45.7720137 89.9618511,48.0327645 87.0065191,47.9836177 L86.5796378,47.9836177 C84.1168612,47.934471 81.8346881,46.312628 80.8824145,44.0682594 C80.094326,42.2498294 80.127163,40.0546075 81.0958551,38.3017065 C81.9988732,36.712628 83.5422133,35.41843 85.3482495,35.0088737 L85.3482495,35.0088737 Z" id="Path"></path>
                <path d="M135.539638,36.7617747 C137.624789,34.5501706 141.351791,34.2061433 143.863823,35.8607509 C144.914608,36.5488055 145.620604,37.6300341 146.145996,38.7604096 C145.128048,38.7767918 144.126519,38.7604096 143.108571,38.7604096 C142.386157,37.8593857 141.236861,37.3351536 140.071147,37.3843003 C138.248692,37.3515358 136.62326,38.8423208 136.311308,40.6116041 C136.032193,41.9877133 136.491911,43.5112628 137.559115,44.4450512 C138.806922,45.6245734 140.859235,45.7720137 142.287646,44.821843 C142.927968,44.4286689 143.387686,43.8061433 143.716056,43.134471 L138.70841,43.134471 C138.70841,42.4300341 138.724829,41.7255973 138.70841,41.0211604 C141.351791,40.9883959 143.995171,41.0211604 146.65497,41.0047782 C146.966922,43.9535836 144.914608,46.9187713 142.057787,47.737884 C139.956217,48.3276451 137.542696,47.9180887 135.900845,46.443686 C134.406761,45.1822526 133.569416,43.2327645 133.602254,41.2832765 C133.602254,39.5959044 134.341087,37.9412969 135.539638,36.7617747 Z" id="Path"></path>
                <path d="M99.4189135,35.0744027 C101.060765,39.2846416 102.65336,43.5276451 104.295211,47.7542662 L101.618994,47.7542662 C101.290624,46.8696246 100.962254,45.9849829 100.617465,45.1003413 L95.9381891,45.1003413 C95.5934004,45.9686007 95.2650302,46.8696246 94.9530785,47.7542662 C94.0828974,47.7706485 93.2127163,47.7542662 92.3589537,47.7542662 C94.0172233,43.5440273 95.6262374,39.3010239 97.284507,35.090785 C97.990503,35.090785 98.696499,35.1071672 99.4189135,35.0744027 Z M98.3188732,38.7276451 C97.7606439,40.0382253 97.3009256,41.3979522 96.7591147,42.7412969 C97.7606439,42.7576792 98.7785915,42.7249147 99.7965392,42.7740614 C99.3204024,41.4143345 98.7950101,40.0709898 98.3188732,38.7276451 Z" id="Path"></path>
                <path d="M104.935533,35.090785 L108.235654,35.090785 C109.302857,38.137884 110.37006,41.2013652 111.437264,44.2484642 C112.553722,41.2177474 113.57167,38.137884 114.67171,35.090785 L117.955412,35.090785 C117.955412,39.3174061 117.938994,43.5276451 117.955412,47.7542662 C117.134487,47.7706485 116.313561,47.7542662 115.476217,47.7542662 C115.492636,44.7235495 115.574728,41.6928328 115.525473,38.662116 C114.474688,41.6928328 113.423903,44.7399317 112.3567,47.7542662 C111.732797,47.737884 111.108893,47.7542662 110.48499,47.7542662 C109.417787,44.7235495 108.367002,41.6928328 107.299799,38.6457338 C107.28338,41.6764505 107.332636,44.7071672 107.381891,47.737884 C106.544547,47.7542662 105.723622,47.737884 104.902696,47.737884 C104.951952,43.5276451 104.935533,39.3010239 104.935533,35.090785 L104.935533,35.090785 Z" id="Path"></path>
                <path d="M119.186801,35.0744027 C120.024145,35.090785 120.84507,35.0744027 121.682414,35.090785 C121.682414,39.3010239 121.649577,43.5276451 121.698833,47.737884 C120.861489,47.7542662 120.024145,47.737884 119.186801,47.7542662 C119.203219,43.5276451 119.186801,39.3010239 119.186801,35.0744027 L119.186801,35.0744027 Z" id="Path"></path>
                <path d="M122.897384,35.090785 L125.26165,35.090785 C127.018431,37.7610922 128.709537,40.4805461 130.499155,43.1180887 C130.482736,40.4313993 130.482736,37.7610922 130.499155,35.0744027 C131.303662,35.090785 132.124588,35.090785 132.929095,35.0744027 C132.945513,39.3010239 132.929095,43.5276451 132.945513,47.7542662 C132.173843,47.7542662 131.385755,47.7542662 130.614085,47.737884 C128.873722,44.9692833 127.13336,42.2006826 125.343742,39.4648464 L125.343742,47.7542662 C124.522817,47.7542662 123.701891,47.7706485 122.880966,47.737884 C122.930221,43.5276451 122.897384,39.3010239 122.897384,35.090785 L122.897384,35.090785 Z" id="Path"></path>
            </g>
        </g>
    </g>
</svg>