<?xml version="1.0" encoding="UTF-8"?>
<svg width="182px" height="48px" viewBox="0 0 182 48" version="1.1" xmlns="http://www.w3.org/2000/svg" xmlns:xlink="http://www.w3.org/1999/xlink">
    <!-- Generator: Sketch 60.1 (88133) - https://sketch.com -->
    <title>redtiger</title>
    <desc>Created with Sketch.</desc>
    <g id="design" stroke="none" stroke-width="1" fill="none" fill-rule="evenodd">
        <g id="main" transform="translate(-1759.000000, -352.000000)" fill="#FFB124" fill-rule="nonzero">
            <g id="redtiger" transform="translate(1759.000000, 352.000000)">
                <path d="M49.5409591,28.1404439 C49.4560322,27.0735398 49.1394862,26.1071411 48.8461022,25.0866241 C48.745734,25.0556993 48.6376451,25.0170434 48.5295563,25.0170434 C48.4369087,25.0556993 48.3442611,25.1098177 48.2593341,25.163936 C48.220731,25.8442807 48.2670548,26.5323565 48.1898484,27.2127012 C48.1589659,27.5992607 48.1821278,27.9858202 48.1435246,28.3723796 C47.9736707,30.3902201 47.6494042,32.3694046 46.9699885,34.2790084 C46.7846933,34.8820412 46.4681474,35.4154932 46.3214554,36.0339884 C46.3214554,35.9334829 46.3214554,35.8329775 46.3214554,35.7247408 C46.2674109,35.9180206 46.2056459,36.1113003 46.1129983,36.2891177 C45.5339508,37.4101401 44.8622558,38.4693131 44.0052656,39.3970558 C43.5729102,39.8377336 42.9861421,40.1624436 42.4148153,40.3634545 C42.2140789,40.4484976 42.044225,40.2784114 41.9979012,40.1005941 C42.044225,39.853196 42.1986376,39.6212603 42.3067265,39.3893246 C43.0865103,37.7966996 43.9357799,36.2040746 44.5611512,34.5418688 C45.2328462,32.7868888 45.657481,31.0009841 46.182484,29.2073481 C46.2365284,29.0217995 46.244249,28.836251 46.244249,28.6507025 C46.1129983,28.6197777 45.950865,28.5424658 45.8118936,28.5811217 C45.3254938,28.6970896 44.8776971,28.95995 44.4067385,29.0836491 C44.2600465,29.1300362 44.1751195,29.0140684 44.05931,28.9522188 C44.05931,28.4496915 44.2677671,28.0399385 44.3990179,27.5683359 C44.7155638,26.4550446 45.1093161,25.3726781 45.4335826,24.267118 C45.6652016,23.571311 45.865938,22.8677727 46.1129983,22.1719657 C46.1902046,21.9632236 46.2365284,21.7544814 46.2751316,21.5380081 C45.8118936,22.2106216 45.27917,22.8832351 44.9085796,23.6022357 C44.6537987,24.0738383 44.3681353,24.5377096 44.1056338,25.0093122 C43.8662942,25.44999 43.6037927,25.8520119 43.4339388,26.3236144 C43.4184975,26.308152 43.3953356,26.2849585 43.3798944,26.2694961 C43.240923,26.7874858 42.9861421,27.2668195 42.8008469,27.7693469 C42.6464343,28.1713687 42.4534185,28.5656594 42.3067265,28.9754124 C42.2681233,29.160961 42.4070947,29.2382729 42.5074629,29.3697031 C42.8394501,29.694413 43.0556278,30.142822 43.0787897,30.6066934 C43.1405548,31.4107371 42.8162882,32.222512 42.4379772,32.918319 C42.2140789,33.3435345 41.9052536,33.6682444 41.6195902,34.0470727 C41.0019396,34.8433852 40.615908,35.8639022 40.2916414,36.8148385 C40.1603906,37.2632475 39.9905367,37.6961941 39.8901685,38.1446031 C39.7975209,38.2064526 39.6971527,38.2683022 39.5890638,38.3069581 C39.4886956,38.2683022 39.396048,38.1987215 39.3034004,38.1446031 C39.2879592,37.5338392 39.3574449,36.9230752 39.4423718,36.3200424 C39.5272988,35.5778482 39.6585495,34.8279228 39.8978891,34.1243846 C40.0445811,33.6837068 40.4306128,33.4363087 40.5695842,33.0033621 C40.8089238,32.3307486 40.8012031,31.5885545 40.6931143,30.8850162 C40.6236286,30.5371127 40.4923778,30.181478 40.3070827,29.8799616 C40.0291399,29.4856709 39.54274,29.4315526 39.2802385,29.0604555 C39.1721497,28.9058317 39.0563402,28.712552 39.0949434,28.5270034 C39.1412671,28.2100247 39.2725179,27.9471642 39.4037687,27.6611102 C39.3111211,27.5528735 39.2184735,27.4446369 39.0949434,27.3595938 C38.7166324,27.1121957 38.3228801,26.9034536 37.9214072,26.6792491 C37.149344,26.2463025 36.3772807,25.7978935 35.6052175,25.3649469 C35.4199223,25.2567103 35.2114652,25.1562048 35.0493319,25.0170434 C35.02617,24.8701508 35.0416113,24.715527 35.0493319,24.5686344 C36.1997062,24.267118 37.5199343,24.6846022 38.5158959,25.2644415 C38.9328101,25.488646 39.2570766,25.7824312 39.6971527,25.8906678 C40.2839208,26.0530228 40.9633364,25.8288183 41.3725299,25.3881405 C41.6890759,25.0247746 41.8512092,24.5067849 41.9284155,24.0351823 C41.9670186,23.8496338 41.8434885,23.7182036 41.6736346,23.6718164 C41.1331903,23.5171926 40.5850254,23.408956 40.0523018,23.2234074 C39.7280352,23.0997084 39.4192099,22.9450846 39.3188417,22.5739875 C39.2956798,22.4039014 39.3497242,22.1101162 39.5736226,22.1255785 C40.15267,22.0946538 40.7317174,22.1796969 41.3339268,22.0173419 C41.665914,21.9168364 41.9206948,21.6694384 42.0673869,21.3601908 C42.2063582,21.0586744 42.3221677,20.718502 42.3916534,20.4015233 C42.4302566,20.2700931 42.3298884,20.1541252 42.2758439,20.0381574 C41.9824599,20.022695 41.7353997,20.1077381 41.4651775,20.2005124 C41.1563522,20.2932866 40.9015714,20.18505 40.6390698,20.0304262 C40.6004667,19.9144583 40.5695842,19.8062217 40.530981,19.6902538 C40.8012031,19.3810063 41.1100284,19.1181458 41.3570887,18.7934359 C41.959298,18.0280481 42.3839328,17.0925742 42.777685,16.2112186 C43.1945992,15.2138951 43.5960721,14.1933781 43.9048974,13.1573987 C44.2368846,12.105957 44.5148274,10.9849345 44.5688718,9.8793744 C44.8699765,10.1654284 45.132478,10.4824072 45.3100525,10.8535043 C45.5030683,11.2709885 45.6343191,11.7425911 45.7346873,12.1987312 C46.4218236,11.9822579 47.1861662,11.7193975 47.7420517,11.2400637 C48.2902166,10.7375364 48.3519817,9.91803035 48.2516135,9.22995449 C48.0122739,9.36138471 47.7729343,9.49281493 47.525874,9.60878277 C47.2093281,9.75567537 46.9468266,9.9566863 46.6071188,10.0417294 C46.7152076,9.72475061 46.854179,9.42323422 47.0317536,9.1449114 C47.2093281,8.85885739 47.4949915,8.64238409 47.7343311,8.39498602 C48.3983055,7.73010373 48.8461022,6.91832883 49.1703688,6.04470442 C49.4714734,5.11696168 49.6336067,4.14283181 49.6876511,3.16870194 C49.7339749,2.61978748 49.7648575,2.00902351 49.5255178,1.49876501 C49.3093401,0.911194609 48.7380133,0.478247998 48.135804,0.354548966 C47.6262423,0.269505882 47.0935186,0.323624209 46.62256,0.540097514 C45.2019637,1.17405505 43.7582054,1.85439972 42.2681233,2.29507753 C40.4228921,2.75894889 38.5390578,3.19962669 36.6475029,3.40063762 C35.9526459,3.43929357 35.1651414,3.60164855 34.4934464,3.47021833 C32.9647612,3.03727171 31.4283553,2.82079841 29.8533463,2.61978748 C28.7956196,2.51928202 27.7533342,2.41877656 26.6878869,2.42650775 C26.0161919,2.38012061 25.3522175,2.34146466 24.6805225,2.3878518 C24.0628719,2.44970131 23.4452213,2.41104537 22.8275707,2.46516369 C21.47646,2.55020678 20.1253493,2.69709938 18.7896799,2.90584149 C18.0176166,3.00634696 17.2687153,3.20735788 16.496652,3.30013216 C15.9793697,3.39290643 15.4775286,3.36971286 14.9525256,3.37744405 C13.9179608,3.40063762 12.883396,3.26147621 11.8642726,3.09139004 C9.11572739,2.58886273 6.41350601,1.6533888 3.87341792,0.501441566 C3.50282757,0.331355398 3.10135468,0.122613282 2.70760242,0.0375701979 C2.15171688,-0.0320105074 1.6112726,-0.0320105074 1.12487276,0.277237072 C0.76200303,0.524635135 0.430015833,0.89573223 0.298765081,1.32094765 C0.0980286362,1.90851805 0.159793696,2.56566916 0.237000021,3.16870194 C0.306485713,4.52166009 0.653914176,5.93646777 1.37965363,7.088415 C1.6807583,7.58321113 2.07451055,7.98523298 2.47598344,8.38725483 C2.8697357,8.71196479 3.09363404,9.26087924 3.29437049,9.72475061 C2.69216115,9.53920206 2.21348194,9.12944902 1.61899324,8.95163166 C1.54178691,9.34592233 1.59583134,9.72475061 1.67303766,10.1113101 C1.81200905,10.6911493 2.29068826,11.1395583 2.82341191,11.3637628 C3.24804669,11.5493113 3.68040211,11.7503223 4.12047816,11.8817525 C4.26717018,11.5647737 4.3675384,11.2555261 4.56055422,10.9617409 C4.7458494,10.6679557 4.96974774,10.4128265 5.20136671,10.149966 C5.24769051,10.1345037 5.30173494,10.1267725 5.34805873,10.1113101 C5.45614759,11.495193 5.87306174,12.7631081 6.30541716,14.0696791 C6.47527107,14.5954 6.71461068,15.0592714 6.80725827,15.6004546 C6.79953764,15.4767556 6.79953764,15.3453254 6.79181701,15.2216263 C6.89990586,15.7705408 7.1469661,16.2498745 7.37858508,16.7524018 C7.74917544,17.533252 8.12748643,18.2754462 8.67565133,18.9480597 C8.89182904,19.1877265 9.13888928,19.4041998 9.36278763,19.6361355 C9.35506699,19.7289098 9.34734636,19.8216841 9.3319051,19.9144583 C9.12344802,20.1618564 8.81462272,20.2932866 8.49035615,20.2082435 C8.18153085,20.1232005 7.91130872,20.0149638 7.58704215,20.0458886 C7.40174697,20.4479104 7.68741038,20.9581689 7.83410239,21.3369972 C7.98851504,21.7467502 8.34366414,21.9786859 8.75285766,22.063729 C9.31646383,22.1642345 9.85690811,22.1101162 10.4282349,22.1410409 C10.4822793,22.1951592 10.5363238,22.2570088 10.5903682,22.3111271 C10.5749269,22.4580197 10.5980888,22.6512994 10.5054412,22.7672673 C10.2969842,23.0765148 9.98043823,23.1847515 9.6407304,23.2929881 C9.11572739,23.4476119 8.57528311,23.5790422 8.04255947,23.7259348 C7.99623568,23.8882897 7.94219125,24.0351823 7.98851504,24.2052685 C8.08888327,24.6304839 8.25101655,25.1020865 8.53667995,25.4345276 C8.96903537,25.8442807 9.58668597,26.0530228 10.173454,25.9138614 C10.7447808,25.7283128 11.161695,25.3494845 11.7253012,25.0788929 C12.3815549,24.7309894 13.115015,24.5454408 13.8561957,24.4758601 C14.2267861,24.4526666 14.5587733,24.4835913 14.9062018,24.6304839 C14.8830399,24.8237637 14.9139224,24.9861186 14.7209066,25.1098177 C14.1418591,25.4731836 13.5242085,25.7901623 12.9297198,26.1380659 C12.149936,26.6096684 11.3392695,27.0194215 10.5672063,27.5064864 C10.5594857,27.7306909 10.5749269,27.8775835 10.6830158,28.0785944 C10.8374284,28.4110356 10.8837522,28.7898639 10.6135301,29.0759179 C10.3201461,29.4624773 9.84146684,29.5011333 9.58668597,29.895424 C9.23153687,30.4443384 9.17749245,31.0628336 9.10800675,31.7045223 C9.09256549,32.1529313 9.18521308,32.632265 9.33962573,33.0574805 C9.46315585,33.4285775 9.77970178,33.6218573 9.9263938,33.9852232 C10.2969842,34.8897724 10.405073,35.9334829 10.5208825,36.8998816 C10.5903682,37.3328282 10.5980888,37.773506 10.5826476,38.2141838 C10.4668381,38.2528398 10.3047048,38.3610764 10.1888953,38.2992269 C10.0113208,38.2296462 9.99587949,38.0363665 9.9263938,37.8817427 C9.49403838,36.505591 9.06168296,35.0057402 8.13520706,33.8769865 C7.62564532,33.2971473 7.21645179,32.6090715 6.98483282,31.8746085 C6.83042017,31.3179628 6.69916942,30.7922419 6.89218523,30.2278651 C7.00799472,29.7949185 7.27821685,29.4856709 7.58704215,29.1764233 C7.57160089,28.7357455 7.33998191,28.426498 7.1932899,28.0322073 C6.92306776,27.3364002 6.63740436,26.6251308 6.29769653,25.9602485 C6.22821083,25.8133559 6.17416641,25.6587321 6.12012198,25.5041083 C6.10468071,25.5273019 6.08151882,25.5427643 6.06607755,25.5659579 C6.00431249,25.4267964 5.94254743,25.2799038 5.86534111,25.1484736 C5.54107454,24.5995592 5.22452861,24.0429135 4.90798268,23.4939991 C4.55283358,22.8445792 4.09731627,22.2492776 3.68040211,21.6385136 C3.71128464,22.0791914 3.87341792,22.4580197 4.00466868,22.8755039 C4.49878916,24.4062794 4.985189,25.9370549 5.46386822,27.4678305 C5.57967771,27.9548954 5.78813478,28.4110356 5.87306174,28.8981005 C5.79585542,28.9754124 5.71864909,29.0604555 5.64144277,29.1377674 C5.07783659,29.0217995 4.55283358,28.7048208 3.98922741,28.5811217 C3.69584338,28.5347346 3.60319579,28.8439822 3.68040211,29.0836491 C4.09731627,30.5757686 4.49106852,32.0756194 4.96974774,33.5445454 C5.6260015,35.5778482 6.58335993,37.3946777 7.53299773,39.2965504 C7.64880721,39.5439484 7.8109405,39.7913465 7.87270556,40.0542069 C7.91902935,40.2165619 7.72601354,40.3247986 7.63336595,40.425304 C7.13152484,40.2706802 6.68372815,40.0232822 6.2436521,39.7372282 C5.94254743,39.5362172 5.74181099,39.2578944 5.51019201,38.9873028 C4.88482078,38.260571 4.35981777,37.4101401 3.90430045,36.5674405 C3.54915136,35.9412141 3.27892922,35.2531383 3.01642772,34.588256 C2.48370408,33.1657171 2.15171688,31.6658663 1.9432598,30.1660156 C1.81972968,29.4779397 1.80428842,28.7744015 1.71164083,28.0785944 C1.6807583,27.1199269 1.68847893,26.1612594 1.6112726,25.2025919 C1.49546312,25.0093122 1.20979971,24.9783874 1.07082833,25.163936 C0.939577578,25.3649469 0.893253783,25.6200762 0.82376809,25.8442807 C0.522663423,26.8029482 0.360530141,27.7693469 0.283323816,28.7744015 C0.144352431,29.9727359 -0.0795459111,31.201995 0.0285429438,32.4080605 C0.0903080037,32.9492438 0.105749269,33.4904271 0.229279389,34.0238791 C0.314206346,34.4413634 0.329647611,34.8588476 0.491780893,35.2376759 C0.623031646,35.5469235 0.808326825,35.8097839 0.993622005,36.0881067 C1.68847893,37.1782044 2.39105649,38.2528398 3.07819278,39.3506687 C4.17452259,41.0206056 5.22452861,42.7137361 6.32857906,44.3759418 C6.43666791,44.3682107 6.54475677,44.3682107 6.64512499,44.3450171 C6.71461068,44.2831676 6.78409637,44.2058557 6.84586143,44.136275 C7.13152484,44.097619 7.44035014,44.0125759 7.73373417,44.0357695 C7.98851504,44.3914042 8.13520706,44.8398132 8.34366414,45.2263727 C8.79918145,46.0999971 9.20065434,47.0122775 9.71793672,47.8549771 C9.77970178,48.0482568 10.1888953,48.0405257 10.2738223,47.8781707 C10.3355873,47.5457295 10.2969842,47.1900948 10.3047048,46.8499225 C10.3047048,46.0226852 10.2969842,45.2031791 10.3124254,44.3759418 C10.3510286,43.97392 10.3047048,43.4713927 10.5672063,43.1389515 C10.9069141,42.7601232 11.6172123,42.7523921 11.9646408,43.1234892 C12.2503042,43.5177798 12.2271423,43.9971136 12.2271423,44.4609849 C12.2425835,45.2031791 12.1808185,45.9299109 12.3043486,46.6643739 C12.4742025,46.7030299 12.6054533,46.7726106 12.7753072,46.6721051 C13.5396498,46.2236961 14.1804623,45.6747817 15.0451731,45.3809965 C15.909884,45.1026737 16.8209186,44.870738 17.7319532,44.9867058 C18.4422514,45.0872113 19.0907846,45.4351148 19.7393177,45.7211688 C19.4536543,45.4815019 19.1988734,45.2186415 18.8746069,45.033093 C18.2955594,44.6851894 17.631585,44.4764473 16.95989,44.3914042 C16.4040045,44.3218235 15.8558396,44.3914042 15.3076746,44.4996409 C14.9062018,44.584684 14.5124495,44.5769528 14.1109766,44.5692216 C14.0414909,44.4841785 13.956564,44.4068666 13.9102402,44.3063611 C13.9488433,44.0357695 14.0800941,43.7806403 14.1573004,43.525511 C14.4275225,42.6750802 14.6437003,41.7937246 14.774951,40.912369 C14.8444367,40.4794224 14.8289954,40.0387446 14.8830399,39.5980668 C14.921643,39.242432 14.8444367,38.8867973 14.8212748,38.5157002 C14.6823034,37.240054 14.103256,36.0030636 12.9837643,35.3072566 C12.7907485,35.1680952 12.4742025,35.0753209 12.4278787,34.8124605 C12.1885391,33.7996746 11.9491995,32.833276 11.9878027,31.7895654 C12.0032439,30.2819834 12.6594977,28.8285198 13.7326656,27.777078 C14.249948,27.3054755 14.7981129,26.8725289 15.4003222,26.5168942 C15.5238524,26.4473135 15.6087793,26.4859694 15.7014269,26.5787437 C16.6433441,27.5760671 17.4231279,28.8749069 18.4654133,29.7485314 C18.473134,29.7949185 18.4808546,29.8413056 18.4962959,29.8876928 C17.8168802,30.0732413 17.1529058,29.9108863 16.5275346,29.6248323 C15.909884,29.3001224 15.3694397,28.7975951 14.8289954,28.3801108 C14.5510527,28.1713687 14.3194337,27.9471642 13.9720052,27.8543899 C14.0723734,28.5579282 14.4506844,29.2228105 14.921643,29.7408002 C15.8017951,30.6376181 17.1374645,31.1169519 18.0793817,31.9132644 C18.1951912,31.9983075 18.1488674,32.1065441 18.1720293,32.2302432 C17.8168802,32.1761249 17.4771724,32.0910818 17.1297439,31.9983075 C16.2264299,31.7818342 15.3231159,31.5421673 14.4198019,31.325694 C14.2190655,31.2793069 14.0260497,31.2251885 13.8407545,31.1324143 C13.8098719,31.1478767 13.7789894,31.1710702 13.7558275,31.1865326 C13.9874465,31.5112426 14.1727417,31.8436837 14.4970082,32.0910818 C15.0374525,32.5162972 15.7940745,32.7095769 16.4657695,32.7791576 C16.8672424,32.833276 17.2609947,32.9105879 17.6547469,32.9878997 C18.0562198,33.0729428 18.4036483,33.2584914 18.7510767,33.4595023 C18.5580609,33.7223627 18.1488674,33.8074058 17.8554834,33.9156425 C16.8595218,34.2094277 15.9562078,33.9156425 14.9602462,33.7996746 C14.628259,33.7223627 14.334875,33.9079113 14.0260497,34.0161479 C14.0646528,34.2016965 14.1109766,34.3717827 14.2267861,34.5264065 C14.5278908,34.9361595 14.9370843,35.1139769 15.3617191,35.3613749 C16.2187093,35.8793646 17.3613629,36.1886122 18.3418832,35.8716334 C20.1176287,35.3304502 21.8161678,34.6655679 23.576472,34.0006856 C24.0474306,33.8305994 24.3871385,33.4440399 24.4566241,32.9492438 C24.5183892,32.384867 24.4489035,31.8127589 24.479786,31.2483821 C24.5106686,30.8463603 24.418021,30.4598008 24.1555195,30.1505532 C23.9007386,29.8490368 23.5687514,29.733069 23.1981611,29.6248323 C21.5768282,29.1377674 20.1253493,28.1327128 19.1293877,26.756561 C18.7974005,26.2617649 18.5503403,25.7128505 18.4113689,25.1407424 C18.3573245,24.9088067 18.3341626,24.6768711 18.4268102,24.4449354 C18.5966641,23.9965264 18.7047529,23.5249238 18.7510767,23.0533213 C18.7356355,22.4039014 18.5580609,21.8008686 18.4113689,21.1901046 C18.3264419,20.8885882 18.3110007,20.5252223 18.1257055,20.2778242 C17.9172484,19.9917702 17.716512,19.7057162 17.484893,19.4428558 C17.2455534,19.164533 16.874963,19.0408339 16.5506965,18.8862101 C15.9562078,18.6001561 15.3385572,18.4223388 14.7131859,18.2058655 C13.2694277,17.6878758 12.0727296,16.7137459 11.1462537,15.4999492 C10.5208825,14.6649807 9.98815886,13.7527003 9.52492091,12.8172264 C9.37822889,12.5389036 9.27786067,12.2451184 9.25469877,11.9281396 C9.18521308,11.4565371 9.25469877,10.9926657 9.13888928,10.5210631 C9.16977181,10.4592136 9.20065434,10.3973641 9.23153687,10.3432458 C9.34734636,10.3355146 9.46315585,10.3355146 9.57896534,10.3277834 C9.84146684,10.8535043 10.1039683,11.3792252 10.3510286,11.904946 C10.5672063,12.392011 11.0304442,12.8326888 11.5631679,12.9254631 C11.7407424,12.9718502 11.918317,12.9795814 12.1036122,12.9795814 C13.3697959,13.0182373 14.5587733,13.0800868 15.7477507,13.5594206 C16.5198139,13.8763994 17.1683471,14.4098514 17.6933501,15.0515402 C18.1257055,15.6081858 18.3727657,16.226681 18.7587974,16.8219826 C19.0907846,17.3554346 19.4999781,17.8424996 19.9709367,18.2599838 C20.3029239,18.553769 20.6812349,18.7547799 21.0672665,18.963522 C21.1676347,18.2754462 20.8510888,17.4714025 20.7816031,16.798789 C21.0518252,16.6905523 21.2293998,16.5513909 21.4224156,16.3426488 C21.4069743,16.1416379 21.4224156,15.940627 21.3220474,15.7628096 C21.036384,15.2216263 20.5499841,14.8273357 20.1407906,14.3866579 C19.6003463,13.7836251 19.0444608,13.2037859 18.4885752,12.6239467 C18.4808546,12.5620972 18.473134,12.5079788 18.4654133,12.4538605 C19.1139465,12.2064624 19.7856415,11.9358708 20.2874826,11.4410747 C18.7587974,11.4024187 17.2301121,11.4488059 15.7014269,11.4178811 C15.7709126,11.2864509 15.7863539,11.2246014 15.9407665,11.2014078 C16.496652,11.1009023 17.0293757,10.9076226 17.56982,10.7529988 C18.2646769,10.4901384 19.0290195,10.2813963 19.6543907,9.88710559 C19.3841686,9.63197634 19.059902,9.5160085 18.7201942,9.39230946 C17.9095278,9.10625545 16.9830519,9.06759951 16.1183411,9.03667475 C14.9370843,9.09852426 13.7017831,9.18356735 12.5359676,8.94390048 C12.5668501,8.8511262 12.5977326,8.75835193 12.6363358,8.66557765 C13.1458975,8.4877603 13.6786212,8.40271721 14.1959036,8.24809342 C15.3076746,7.97750179 16.4117251,7.6759854 17.5157755,7.37446901 C18.619826,7.01110311 19.7007145,6.59361887 20.7584412,6.12201632 C20.9437364,6.04470442 21.098149,5.92873658 21.244841,5.79730636 C19.9246129,5.7663816 18.5966641,5.78957517 17.2764359,5.78184398 C16.6742266,5.77411279 16.0642966,5.80503755 15.4620873,5.7663816 C15.6010587,5.53444592 15.8790014,5.48032759 16.1106204,5.34889737 C17.2301121,4.76905816 18.2801182,4.19695014 19.5076987,3.87997137 C20.2952032,3.7098852 21.098149,3.67896044 21.9010948,3.74854115 C23.4220594,3.7794659 24.943024,3.78719709 26.456268,3.76400353 C27.127963,3.77173472 27.7919374,3.67122925 28.4636324,3.68669163 C29.8456256,3.65576687 31.0963681,4.08098229 32.3393899,4.62216556 C33.0033643,4.90821957 33.6364562,5.24839191 34.2849893,5.54990829 C34.4007988,5.59629543 34.4471226,5.67360733 34.5088877,5.77411279 C32.5632883,5.81276874 30.6022476,5.75865041 28.6566482,5.79730636 C28.8033402,5.9132742 28.9500323,6.00604847 29.1198862,6.08336037 C30.0849652,6.53950055 31.0963681,6.90286645 32.1077709,7.25850117 C33.3353515,7.66052302 34.6015352,7.92338346 35.8368364,8.31767413 C36.3386776,8.44910435 36.8173568,8.67330884 37.3269185,8.76608312 C36.3000744,9.11398664 35.3118334,9.01348118 34.2463861,9.03667475 C33.6750593,9.01348118 33.1191738,9.09079308 32.547847,9.1449114 C31.7217393,9.23768568 30.887911,9.50054612 30.1776128,9.94895511 C30.1776128,10.0030734 30.1853335,10.0571918 30.1853335,10.1113101 C30.4941588,10.3664393 30.8029841,10.6138374 31.181295,10.7529988 C32.1618154,11.1240959 33.0651294,10.9617409 34.0842529,11.2246014 C34.2386655,11.2709885 34.4007988,11.3096445 34.5552114,11.3560316 C33.3971166,11.3869563 32.2390217,11.3637628 31.0809268,11.371494 C30.6331301,11.3792252 30.2084954,11.332838 29.7684193,11.4178811 C29.7838606,11.4719994 29.7993018,11.5183866 29.8147431,11.5725049 C30.2934223,11.9513332 30.8338666,12.2219248 31.3897521,12.4615917 C31.3974728,12.8249576 31.1349713,12.9331942 30.9342348,13.1805923 C30.5250413,13.6676572 30.0463621,14.1006039 29.6371685,14.5876688 C29.3360639,14.9433035 28.9500323,15.2602823 28.6952514,15.6468418 C28.5253975,15.901971 28.4867943,16.2576057 28.702972,16.4972726 C28.8342228,16.636434 29.0272386,16.7292083 29.1739306,16.8529073 C29.081283,17.5255208 28.7492958,18.2986397 28.8805466,18.9789844 C29.4750353,18.5615002 30.131289,18.1208224 30.5868063,17.5564456 C31.1118094,16.9843375 31.5210029,16.2962617 31.8838726,15.6081858 C32.3085074,14.8118733 32.9570405,14.146991 33.7599863,13.737238 C34.9180812,13.126474 36.2074268,13.0259685 37.4967724,12.9950438 C38.0758199,12.9795814 38.6857498,12.9022695 39.1258259,12.4925164 C39.4192099,12.2605808 39.5890638,11.9745268 39.712594,11.6266232 C39.9056098,11.1009023 40.1372287,10.598375 40.4923778,10.1576972 C40.5850254,10.5519879 40.7239968,10.9076226 40.7085555,11.3173756 C40.7239968,12.0209139 40.4923778,12.639409 40.1912732,13.2579042 C39.5581813,14.7345614 38.5236165,16.0565948 37.2265503,17.0075311 C36.2151474,17.7729189 35.0338907,18.3372957 33.8526339,18.7702423 C33.4125578,18.9325973 32.8952755,19.0485651 32.5246851,19.3346191 C32.0537265,19.6825227 31.6754155,20.2159747 31.5827679,20.8035451 C31.4746791,21.4297715 31.2507807,22.0559978 31.181295,22.6822242 C31.1272506,23.1538267 31.2276188,23.5945045 31.3048252,24.0506447 C31.3125458,24.0119888 31.3125458,23.981064 31.3202664,23.9424081 C31.3820315,24.1975373 31.4746791,24.4372042 31.5673267,24.6768711 C31.7371806,25.0943553 31.6676949,25.6046138 31.4515172,25.9834421 C31.2276188,26.3700016 30.8956316,26.7256363 30.594527,27.0503462 C29.7220955,28.0090137 28.6720895,28.8749069 27.4908327,29.4238214 C27.0816392,29.6325635 26.6801663,29.7021442 26.3327378,29.9727359 C26.0702363,30.1892092 25.8154555,30.4366072 25.7691317,30.7922419 C25.6919253,31.325694 25.7305285,31.8746085 25.7150872,32.4157917 C25.7228079,32.7327705 25.6764841,33.1038676 25.846338,33.3899216 C26.0084713,33.6991692 26.286414,33.9079113 26.6106806,34.0316103 C28.0698802,34.5805248 29.5290797,35.160364 30.9959999,35.6860849 C31.3588696,35.8175151 31.72946,35.9876013 32.1077709,36.0649132 C32.4783613,36.1113003 32.8952755,36.1267627 33.2504246,35.9876013 C33.9993259,35.6860849 34.6710209,35.2763318 35.3349953,34.8201917 C35.6669825,34.588256 35.9140428,34.263546 35.9372047,33.8460618 C35.4122017,33.853793 34.9180812,33.7223627 34.3930782,33.691438 C33.7522657,33.6218573 33.157777,33.5600078 32.6018914,33.1966419 C32.779466,32.9878997 33.0419675,32.9878997 33.2967484,32.9260502 C34.1151354,32.7559641 34.8640367,32.6554586 35.5125699,32.060157 C35.7441888,31.7972966 36.014411,31.5730921 35.9989697,31.1942638 C34.6710209,31.5498985 33.3199102,31.8436837 31.9919615,32.2147808 C31.9301964,32.183856 31.8684313,32.1529313 31.8066663,32.1220065 C31.8066663,32.0524258 31.8066663,31.9905763 31.8066663,31.9209956 C32.022844,31.7586406 32.2235804,31.5962856 32.4474788,31.449393 C33.1037325,31.0087152 33.9684434,30.6530805 34.5938146,30.1273596 C34.8871986,29.8490368 35.2191858,29.5629828 35.3890398,29.1918857 C35.6052175,28.7821327 35.6978651,28.387842 35.6824238,27.9239706 C34.9412431,28.3801108 34.3853575,29.0604555 33.6210149,29.5011333 C33.1732182,29.7717249 32.6713771,29.9031551 32.1618154,29.9495423 C31.8838726,29.9650047 31.5827679,29.8799616 31.3125458,29.8103809 C32.3625518,28.998606 33.366234,28.1327128 34.4085194,27.3132067 C34.6092559,27.1585829 34.732786,26.9807655 34.9875669,26.9266472 C35.6592619,27.5219488 36.2846331,28.1404439 36.7092679,28.9367565 C37.0258138,29.447015 37.2188297,30.0036606 37.3886836,30.5757686 C37.7747152,32.0369634 37.7206708,33.5058894 37.442728,34.9825466 C37.0180932,35.2376759 36.6166203,35.4850739 36.2691919,35.8407087 C35.5357318,36.5519781 35.172862,37.6034199 35.0570526,38.6007433 C34.9026399,40.2552179 35.2191858,41.9406172 35.7364682,43.5100486 C35.8213952,43.7806403 35.9449253,44.0589631 35.9758078,44.3372859 C35.8986015,44.4300602 35.8136745,44.5073721 35.7364682,44.5924152 C35.3041128,44.584684 34.8871986,44.5924152 34.4702845,44.4841785 C34.0688116,44.383673 33.6441768,44.2908988 33.2349833,44.2831676 C32.3702725,44.3140923 31.5364441,44.5692216 30.8493079,45.1026737 C30.6871746,45.2418351 30.5250413,45.3809965 30.3551874,45.5124267 C31.1040887,45.0098994 32.1849773,45.0021682 33.0496881,45.0640177 C33.8989577,45.1799856 34.8563161,45.2341039 35.5974968,45.6902441 C36.1533824,46.0304164 36.7015473,46.3937823 37.2419916,46.749417 C37.3655217,46.7184923 37.4813312,46.6875675 37.6048613,46.6566427 C37.7129501,46.0999971 37.6434644,45.4969643 37.6666263,44.9248563 C37.6897882,44.3295547 37.58942,43.7729091 37.8750834,43.2239946 C38.2147912,42.6982737 39.1412671,42.7446609 39.4423718,43.2781129 C39.5967845,43.7419843 39.6122257,44.2831676 39.6045051,44.7702325 C39.6045051,45.6747817 39.6122257,46.5715997 39.6045051,47.4761488 C39.5967845,47.6539662 39.6353876,47.80859 39.6894321,47.9786761 C39.8206828,47.9864073 39.9596542,47.9941385 40.0909049,47.9941385 C40.4692159,47.4452241 40.7471587,46.8267289 41.0482634,46.2391585 C41.434295,45.5046955 41.7740028,44.7470389 42.1523138,44.0125759 C42.4379772,44.0435007 42.7236406,44.0744255 43.009304,44.1130814 C43.0865103,44.1981245 43.1714373,44.2754364 43.2486436,44.3604795 C43.3567325,44.3527483 43.4802626,44.3604795 43.5806308,44.3218235 C43.765926,44.1053502 43.9048974,43.850221 44.05931,43.6182853 C44.9703447,42.21894 45.8582174,40.8041323 46.769252,39.404787 C47.5876391,38.0904848 48.4600706,36.7993762 49.270737,35.4773428 C49.5177972,35.0985145 49.5177972,34.7042238 49.6027242,34.2790084 C49.7648575,33.4285775 49.8729463,32.5626843 49.8652257,31.6967911 C49.8883876,30.5139191 49.6258861,29.3155847 49.5409591,28.1404439 Z M11.686698,4.52166009 C10.5749269,4.52939128 9.52492091,3.88770256 8.36682603,3.88770256 C7.91902935,3.89543375 7.42490887,3.84904661 7.00027408,3.98047683 C6.70689005,4.0732511 6.42122665,4.15829419 6.20504894,4.39796106 C7.01571535,4.75359578 7.80321986,5.14015525 8.60616564,5.50352116 C8.96903537,5.68133852 9.32418446,5.85915587 9.70249546,6.00604847 C9.54036217,5.99831728 9.37822889,5.99831728 9.21609561,5.95966134 C8.62932754,5.81276874 8.0502801,5.67360733 7.47123267,5.51898354 C7.55615962,6.17613464 7.54071836,6.83328575 7.57160089,7.49043685 C7.64108658,8.00842655 7.64880721,8.53414743 7.7414548,9.05213713 C7.87270556,10.0803853 8.15064832,11.0931711 8.46719426,12.0827634 C8.91499094,13.3584097 9.47859711,14.6263247 10.2120572,15.7628096 C10.7525015,16.6287028 11.3855933,17.4250153 12.0495677,18.1981343 C12.5205263,18.7006616 13.0455293,19.164533 13.6168561,19.5433612 C13.0069262,19.2727696 12.4278787,18.9557908 11.8488313,18.6310809 C11.980082,18.6851992 12.1113328,18.7315864 12.2425835,18.7857047 C11.6558155,18.4841883 11.1771363,18.0667041 10.698457,17.6182951 C9.44771458,16.3658424 8.55984185,14.8659916 7.89586745,13.2347106 C7.38630571,12.0054515 7.00027408,10.7298052 6.52159487,9.48508374 C6.32857906,8.97482523 5.98887123,8.60372814 5.72636972,8.1166632 C5.47930948,7.69144778 5.32489683,7.22757641 5.17048418,6.75597385 C4.96974774,6.16067226 4.89254141,5.56537067 4.93114458,4.93141314 C4.96202711,4.32064917 5.27085241,3.75627234 5.78813478,3.43156238 C6.39806475,3.0450029 7.20873116,2.94449744 7.91130872,2.95995982 C8.45947362,2.95995982 8.93043221,3.14550837 9.45543522,3.2692074 C10.258381,3.46248714 11.0536061,3.64030449 11.8488313,3.8567778 C12.4278787,3.96501445 12.9837643,4.15829419 13.5705323,4.24333727 C12.9528817,4.48300415 12.3275105,4.52166009 11.686698,4.52166009 Z M37.1802265,19.0485651 C37.6589057,18.7702423 38.0989818,18.43007 38.4772928,18.0203169 C39.017737,17.5100584 39.4886956,16.9379504 39.8515653,16.2885305 C40.0445811,15.9097022 40.1912732,15.5076803 40.3765683,15.1211209 C41.1795141,13.3661409 41.6427521,11.5029242 41.9129742,9.59332039 C41.9979012,8.67330884 42.0905488,7.76102849 42.1600345,6.84101694 C42.2140789,6.4312639 42.252682,6.03697323 42.252682,5.619489 C42.0673869,5.67360733 41.874371,5.72772565 41.6967965,5.79730636 C41.1717935,6.00604847 40.6313492,6.16840345 40.1140668,6.40033914 C40.3920096,6.19932821 40.6467905,5.96739253 40.9170126,5.75865041 C41.5269426,5.31024142 42.2063582,4.96233789 42.9166564,4.70720864 C43.2332024,4.60670318 43.5420277,4.55258485 43.8431323,4.39796106 C43.3644531,4.21241252 42.8548914,4.09644467 42.3453296,4.01140159 C41.287603,3.8567778 40.1603906,4.18921895 39.102664,4.33611155 C38.1607468,4.50619772 37.211109,4.64535913 36.2614712,4.40569225 C36.7864742,4.150563 37.3191979,4.10417586 37.8828041,3.95728326 C38.8864863,3.69442282 39.9056098,3.44702476 40.9170126,3.20735788 C41.2567204,3.13004599 41.6195902,2.99861577 41.9670186,2.98315339 C42.422536,2.95995982 42.8934945,3.02180934 43.3490119,3.08365885 C43.9048974,3.20735788 44.4453417,3.43156238 44.7696082,3.91862732 C45.0784335,4.31291798 45.132478,4.77678935 45.1633605,5.26385428 C45.1401986,6.17613464 44.8313733,7.088415 44.4685036,7.91565227 C44.290929,8.33313651 44.0438688,8.71969598 43.850853,9.13718021 C43.3798944,10.4205577 42.9398183,11.7116663 42.3762122,12.9563878 C41.519222,14.9201099 40.2839208,16.8606385 38.5853816,18.1904031 C38.1221437,18.5769626 37.58942,18.8243606 37.1030202,19.1799953 C36.9022837,19.3268879 36.6629441,19.411931 36.4236045,19.4660494 C36.6552235,19.3114256 36.9100044,19.164533 37.1802265,19.0485651 Z M15.5161317,15.3453254 C16.0720173,15.5617987 16.5429758,15.901971 16.8904043,16.3967671 C16.8209186,16.636434 16.7514329,16.8606385 16.6047409,17.0616494 C16.3885632,17.3631658 16.0797379,17.6878758 15.7091475,17.7729189 C15.3076746,17.9120803 14.8367161,17.6646822 14.5356114,17.4018218 C14.1959036,17.1234989 14.103256,16.6441652 14.0569322,16.2344122 C14.0492115,15.8091967 13.9797259,15.4149061 14.2190655,15.0360778 C14.6977447,14.9664971 15.0760557,15.1829704 15.5161317,15.3453254 Z M35.2346271,15.1752392 C35.3195541,15.1907016 35.4971286,15.1520456 35.551173,15.2293575 C35.5974968,15.4844868 35.6052175,15.7473472 35.6283794,16.0024765 C35.6747032,16.4586166 35.4816873,16.9920687 35.1574208,17.3167787 C34.879478,17.5641767 34.5397702,17.78065 34.1769005,17.8811555 C33.8912371,17.9507362 33.6132943,17.8656931 33.3893959,17.7033382 C33.0342468,17.3477034 32.9184374,16.8761009 32.9493199,16.3813048 C33.2890277,15.9715517 33.68278,15.6236482 34.1537386,15.3762501 C34.4857258,15.2370887 34.8717574,15.1829704 35.2346271,15.1752392 Z M20.7507206,23.4939991 C20.8433681,23.9269457 20.8896919,24.3753547 21.2216791,24.7000646 C21.7621234,25.163936 22.4029359,25.3185598 23.0977928,25.4036029 C23.5919133,25.4963771 24.0783132,25.488646 24.5801543,25.5041083 C25.2981731,25.5427643 26.0239125,25.5118395 26.7419314,25.4113341 C27.2128899,25.3649469 27.6761279,25.287635 28.1239246,25.1175489 C28.5176768,24.9706563 28.8805466,24.6691399 29.0581211,24.2748492 C29.1507687,24.0738383 29.1584893,23.8341714 29.2356957,23.6331605 C29.2974607,23.6176981 29.3515051,23.6022357 29.4132702,23.5867733 C29.606286,23.8960209 29.7838606,24.2284621 29.9382732,24.5609032 C30.0618033,24.8160325 30.069524,25.1330112 30.0309208,25.4113341 C29.9614351,25.7128505 29.6834923,25.9602485 29.4287115,26.1071411 C29.0426798,26.3545392 28.4945149,26.3158832 28.0544389,26.3313456 C27.6684073,26.3236144 27.2823756,26.3777327 26.896344,26.4009263 C25.5297921,26.4241199 24.1709607,26.4241199 22.8044088,26.4086575 C22.3180089,26.4163887 21.8316091,26.3313456 21.329768,26.2617649 C20.9591776,26.1999154 20.5191016,26.1071411 20.2643207,25.8133559 C19.9863779,25.4422588 19.9554954,24.8856132 20.0018192,24.4449354 C20.0713049,24.0583759 20.4727778,23.7413971 20.7507206,23.4939991 Z M25.4294238,37.1472797 C25.7922936,37.1395485 26.1474427,37.1859356 26.5103124,37.2168604 C27.737893,37.2941723 28.9731942,37.5338392 30.1235684,37.9667858 C30.8107047,38.221915 31.4360759,38.5930121 32.0460059,39.0027652 C33.597853,40.1160564 34.6169765,41.8401117 35.1497001,43.64921 C34.5474908,43.239457 34.0070465,42.7678544 33.4588816,42.2807895 C32.9338786,41.8169181 32.2467423,41.6313696 31.5518854,41.6932191 C31.4592378,41.8091869 31.3357077,41.9096924 31.3125458,42.056585 C31.1967363,42.4740692 31.351149,42.9224782 31.351149,43.3708872 C30.1621716,44.4068666 28.6180451,44.8939315 27.0507567,44.8784692 C26.5257537,44.8552756 25.9389856,44.9557811 25.4911889,44.6156087 C25.1283192,44.383673 25.0665541,43.9198017 25.0433922,43.525511 C25.0125097,43.8888769 24.8117732,44.1826621 24.5724336,44.4377914 C24.0474306,44.8630068 23.3911769,45.0021682 22.7272025,45.0176306 C21.7621234,45.0253618 20.8279269,44.8166196 19.9246129,44.4687161 C19.4304924,44.3063611 18.998137,44.0280383 18.5271784,43.8347586 C18.3573245,43.2858441 18.5040165,42.6518866 18.4499721,42.0797786 C18.4808546,41.8246493 18.1488674,41.6932191 17.948131,41.6391008 C17.4154073,41.6545632 16.9135662,41.9174236 16.4734902,42.1957464 C16.0025316,42.4972628 15.7245888,42.9224782 15.3539984,43.3245001 C15.2613508,43.4327367 15.1609826,43.4713927 15.0297319,43.5100486 C15.1223795,42.5668435 15.446646,41.7086815 15.9562078,40.9201002 C16.9444487,39.4511742 18.473134,38.3920012 20.1407906,37.8353555 C21.1444728,37.4719896 22.2099201,37.2709787 23.2676467,37.2091292 C23.9856656,37.1163549 24.6959638,37.1550109 25.4294238,37.1472797 Z" id="Path"></path>
                <path d="M141.65026,14.1377263 C143.807648,14.0743409 145.952344,14.6955182 147.627492,16.0899978 C148.211256,16.6477897 148.820401,17.2436128 149.226497,17.9281755 C149.480308,18.3465194 149.721427,18.7648633 149.975238,19.1705301 C149.112283,19.6395823 148.185875,19.9184783 147.297539,20.3241451 C146.663013,20.5903639 146.104631,20.9072911 145.419343,21.0467391 C145.10208,20.3875305 144.784817,19.7663532 144.226435,19.2719468 C142.855859,17.9281755 140.482733,17.8774672 138.972561,19.018405 C138.223821,19.5254886 137.690819,20.3494992 137.310104,21.1481558 C136.612126,22.770823 136.561364,24.6343548 137.132437,26.3077304 C137.487771,27.2711891 138.008082,28.1585852 138.858347,28.7797625 C139.607087,29.4262939 140.571566,29.6798357 141.536045,29.6925128 C142.462453,29.6671586 143.452313,29.4896794 144.188363,28.8811792 C144.873651,28.3994499 145.216295,27.5247308 145.393962,26.7387514 C145.35589,26.4598555 145.051318,26.5866263 144.84827,26.5485951 C143.769576,26.5612722 142.678192,26.5485951 141.586807,26.5612722 C141.459902,25.9908032 141.510664,25.4330114 141.510664,24.8498653 C141.523355,24.1526255 141.472593,23.4680628 141.561426,22.770823 C144.670603,22.7835001 147.792469,22.7835001 150.901645,22.770823 C150.965098,24.0131776 150.812812,25.242855 150.622454,26.4725325 C150.241738,28.6022833 149.023449,30.4658151 147.348301,31.8095864 C145.85082,32.9251701 144.023386,33.482962 142.170571,33.5590245 C141.485283,33.6604412 140.812686,33.5463474 140.127398,33.5083161 C138.363417,33.343514 136.688269,32.6589513 135.266931,31.606753 C134.873525,31.2898258 134.530881,30.9095132 134.175547,30.5545547 C133.426807,29.7939295 132.893805,28.8051167 132.487709,27.8163038 C131.815111,26.1175741 131.726278,24.3554589 131.878564,22.5553125 C132.094303,20.4128847 133.00802,18.3465194 134.518191,16.7999147 C136.396387,14.961737 139.010633,14.0743409 141.65026,14.1377263 Z" id="Path"></path>
                <path d="M75.1519636,14.6955182 C77.5631613,14.7081953 79.9743591,14.6955182 82.3855569,14.7081953 C83.0962257,14.7715807 83.794204,14.7208724 84.5048728,14.7462265 C84.4794918,16.0773207 84.4921823,17.4084149 84.5048728,18.7395091 C83.2485119,18.7521862 81.9921509,18.7395091 80.73579,18.7521862 C80.1139548,18.7395091 79.4921195,18.7395091 78.8829748,18.8282487 C78.8956654,19.8170616 78.8702843,20.7931973 78.8956654,21.7820101 C80.4819797,21.8200414 82.068294,21.7946872 83.6672988,21.7946872 C83.8703471,21.8073643 84.0607048,21.756656 84.212991,21.908781 C84.2510625,23.214521 84.212991,24.5202611 84.2256815,25.8260011 C82.7662723,25.8640323 81.3068631,25.8260011 79.847454,25.8513553 C79.5301911,25.8640323 79.2383093,25.8260011 78.9337369,25.7626156 C78.8195223,26.827491 78.8956654,27.9303976 78.8956654,28.995273 C80.761171,28.9825959 82.6266767,28.9825959 84.4921823,28.995273 C84.4921823,30.3263672 84.4794918,31.6701384 84.5048728,33.0012326 C83.7561325,33.0646181 83.0073921,33.0265868 82.2586517,33.0392639 C79.5682626,33.0392639 76.8778735,33.0265868 74.1874844,33.051941 C74.1367224,32.8237534 74.0859603,32.6082429 74.0859603,32.3673783 C74.0859603,26.5105638 74.0859603,20.6664264 74.0859603,14.809612 C74.4412947,14.7335494 74.7966291,14.6955182 75.1519636,14.6955182 Z" id="Path"></path>
                <path d="M110.533118,14.7842578 C110.926524,14.6448098 111.408764,14.6955182 111.827551,14.6955182 C114.784441,14.6955182 117.754021,14.6955182 120.710911,14.6955182 C121.535794,14.6828411 122.347987,14.7589036 123.172871,14.7715807 C123.14749,16.0899978 123.14749,17.4084149 123.172871,18.726832 C121.853057,18.7775404 120.533244,18.7141549 119.21343,18.7648633 C119.21343,22.9102709 119.21343,27.0556786 119.21343,31.2010862 C119.21343,31.8222635 119.264192,32.4180866 119.137287,33.0265868 C117.804783,33.0012326 116.459589,33.0139097 115.127085,33.0139097 C114.885965,33.0139097 114.657535,32.9758785 114.429106,32.9251701 C114.467178,28.2219706 114.429106,23.5187711 114.454487,18.8028946 C113.160055,18.6380924 111.827551,18.7902175 110.520428,18.7141549 C110.545809,17.4084149 110.495047,16.0899978 110.533118,14.7842578 Z" id="Path"></path>
                <path d="M127.944504,14.6955182 C128.502887,14.6828411 129.048579,14.6955182 129.594271,14.7715807 C129.645033,15.5195289 129.619652,16.267477 129.619652,17.0154252 C129.619652,21.7946872 129.619652,26.5612722 129.619652,31.3405342 C129.619652,31.9110031 129.657724,32.4814721 129.543509,33.051941 C128.046028,33.0139097 126.535857,33.051941 125.038376,33.0265868 C124.797257,33.0265868 124.848019,32.7730451 124.835328,32.6082429 C124.822638,26.6626889 124.848019,20.7298119 124.822638,14.7842578 C125.87595,14.6321327 126.891192,14.7081953 127.944504,14.6955182 Z" id="Path"></path>
                <path d="M155.356016,14.6955182 C157.551475,14.6955182 159.759624,14.6955182 161.955083,14.6955182 C162.488085,14.6955182 163.008396,14.7462265 163.528707,14.7842578 C163.528707,16.1026749 163.528707,17.4084149 163.528707,18.726832 C162.411942,18.7648633 161.295177,18.7395091 160.178411,18.7395091 C159.378909,18.7521862 158.617478,18.6761237 157.817976,18.8155716 C157.843357,19.8043845 157.830666,20.7931973 157.830666,21.7820101 C159.620029,21.8073643 161.396701,21.7439789 163.186063,21.8073643 C163.173373,23.1384585 163.198754,24.4822298 163.173373,25.813324 C162.005845,25.8386782 160.838318,25.813324 159.670791,25.8260011 C159.036265,25.8386782 158.439811,25.7752927 157.817976,25.9020636 C157.843357,26.8908764 157.843357,27.8923664 157.817976,28.8938563 C158.439811,29.0206271 159.036265,28.9572417 159.670791,28.9699188 C160.952533,28.9825959 162.234275,28.9572417 163.516017,28.9825959 C163.528707,30.2883359 163.516017,31.606753 163.528707,32.912493 C163.300278,32.9632014 163.084539,33.0265868 162.843419,33.0265868 C160.267245,33.0139097 157.67838,33.0265868 155.102206,33.0139097 C154.429608,33.0139097 153.782392,33.0646181 153.122485,32.9378472 C153.135176,26.8781993 153.147866,20.8185515 153.122485,14.7589036 C153.858535,14.6574869 154.607275,14.6955182 155.356016,14.6955182 Z" id="Path"></path>
                <path d="M59.7964409,14.6955182 C61.9411379,14.7081953 64.0477633,14.6321327 66.1797697,14.809612 C67.5884169,15.0504766 68.9336114,15.5702372 69.8980905,16.6731438 C70.8625696,17.7506963 71.1163799,19.157853 71.0529273,20.5523326 C71.1036894,21.7439789 70.6722119,22.8975938 69.9615431,23.8483754 C69.2889458,24.7230945 68.3117762,25.2935634 67.2330824,25.4837197 L67.2330824,25.4837197 L67.2330824,25.7245844 C67.5249643,26.0922199 67.8295366,26.4598555 68.1214185,26.827491 C69.6442802,28.8685021 71.217904,30.8714819 72.7661468,32.8998159 C72.499646,32.9505243 72.2458357,33.0012326 71.9793349,33.0012326 L71.9793349,33.0012326 L68.2990857,33.0012326 C67.8422271,33.0012326 67.3726781,33.0392639 66.9158196,32.9758785 C65.7482922,31.2391175 64.6695985,29.4009398 63.5020712,27.6515017 C63.1340462,27.1063869 62.8675454,26.535918 62.4106869,26.0668657 C62.3472343,28.2853561 62.4106869,30.5038464 62.3726154,32.7223367 C62.3853059,33.0012326 62.1695671,33.0139097 61.9538284,33.0139097 C61.2812311,33.0265868 60.5959433,33.0139097 59.923346,33.0139097 C59.1619152,33.0012326 58.4258653,33.051941 57.6644344,32.9505243 C57.5248388,32.2279303 57.6517439,31.5433676 57.677125,30.8207736 L57.677125,30.8207736 L57.677125,16.3688937 C57.6898155,15.8618102 57.4740767,15.1518933 57.753268,14.7081953 C58.4258653,14.670164 59.1111531,14.7081953 59.7964409,14.6955182 Z M62.3979964,18.3338423 C62.3726154,19.8550928 62.3979964,21.3763433 62.3853059,22.8975938 C63.3244039,22.8975938 64.2000495,22.9609793 65.0630044,22.5299583 C65.519863,22.2764166 65.9513405,21.8707498 66.0528646,21.3383121 C66.2305318,20.5650097 66.1670792,19.5761969 65.4944819,19.0437592 C64.6949795,18.3591965 63.400547,18.3845507 62.3979964,18.3338423 Z" id="Path"></path>
                <path d="M169.696297,14.6955182 C171.346064,14.7081953 173.008522,14.6194557 174.645598,14.7842578 C175.825816,14.8856745 177.069486,15.2913413 178.008584,16.0392895 C178.528895,16.5083417 179.099969,17.0661336 179.366469,17.7253421 C180.178662,19.588874 180.064448,21.908781 178.934992,23.6075108 C178.275085,24.5836465 177.196391,25.2682092 176.041555,25.4837197 C176.117698,26.0288345 176.561866,26.3711158 176.879129,26.8148139 C177.704012,27.8923664 178.554276,28.9445646 179.353779,30.0474712 C180.102519,31.0362841 180.902022,31.9997427 181.6,33.0012326 C179.747185,33.0139097 177.881679,33.0012326 176.028864,33.0139097 C175.698911,33.051941 175.622768,32.7983992 175.457791,32.5828888 C174.036453,30.440461 172.691259,28.2473248 171.282612,26.0795428 C171.092254,26.7387514 171.193778,27.3599287 171.181088,28.0318143 C171.168397,29.6925128 171.206469,31.3658883 171.155706,33.0265868 C169.607464,32.9885556 168.059221,33.051941 166.510978,33.0012326 C166.447526,32.8237534 166.447526,32.6589513 166.434835,32.468795 C166.447526,27.0176473 166.434835,21.5664997 166.434835,16.115352 C166.434835,15.6716539 166.409454,15.2279559 166.447526,14.7842578 C167.513529,14.670164 168.630294,14.6955182 169.696297,14.6955182 Z M171.282612,18.3338423 C171.117635,18.9930509 171.206469,19.6142282 171.193778,20.2987909 C171.193778,21.0594161 171.168397,21.8327185 171.181088,22.5933437 C171.168397,22.7074375 171.206469,22.8088542 171.295302,22.8975938 C172.132876,22.9483022 173.084665,22.9102709 173.858786,22.5426354 C175.013623,21.9341352 175.280124,20.2861138 174.531383,19.2719468 C174.137977,18.8028946 173.592285,18.6000612 173.008522,18.4859674 C172.437448,18.3591965 171.866375,18.3338423 171.282612,18.3338423 Z" id="Path"></path>
                <path d="M87.4363817,14.7842578 C88.2993367,14.6067786 89.1242201,14.7081953 90.0125561,14.6828411 C91.5734894,14.7081953 93.1471133,14.6448098 94.7080465,14.7462265 C96.7639099,14.8222891 98.7690112,15.6082685 100.317254,16.9647169 C100.96447,17.4844775 101.434019,18.1183318 101.94164,18.7775404 C102.347736,19.3733635 102.639618,20.0452491 102.918809,20.7044577 C103.946741,23.5568024 103.502573,26.8781993 101.675139,29.286846 C101.104066,30.1108567 100.342635,30.7447111 99.5431326,31.3405342 C98.8197733,31.8602948 98.0202709,32.2025761 97.1826969,32.5195033 C95.7994308,33.0265868 94.3907837,33.0265868 92.944065,33.0139097 C91.1420119,33.0392639 89.3399589,32.9885556 87.5379058,33.0392639 C87.3983101,32.468795 87.4617627,31.9110031 87.4490722,31.3278571 C87.4363817,25.813324 87.4617627,20.2987909 87.4363817,14.7842578 Z M93.9212346,18.7902175 C93.362852,18.726832 92.8171599,18.726832 92.2587772,18.7648633 L92.2587772,18.7648633 L92.1953247,18.8536029 C92.2080152,22.2257082 92.1953247,25.5978135 92.2080152,28.9699188 C93.6293528,28.9825959 94.9999284,28.9825959 96.2562893,28.2219706 C97.3603641,27.6007933 98.121795,26.4725325 98.3629148,25.242855 C98.4644389,24.507584 98.6040345,23.8103442 98.4644389,23.0877502 C98.3375337,22.1876769 98.1091045,21.3509892 97.5253408,20.6283952 C96.6750763,19.5128115 95.3045007,18.8536029 93.9212346,18.7902175 Z" id="Path"></path>
            </g>
        </g>
    </g>
</svg>