<?xml version="1.0" encoding="UTF-8"?>
<svg width="173px" height="48px" viewBox="0 0 173 48" version="1.1" xmlns="http://www.w3.org/2000/svg" xmlns:xlink="http://www.w3.org/1999/xlink">
    <!-- Generator: Sketch 60.1 (88133) - https://sketch.com -->
    <title>nolimit_city</title>
    <desc>Created with Sketch.</desc>
    <g id="design" stroke="none" stroke-width="1" fill="none" fill-rule="evenodd">
        <g id="main" transform="translate(-1786.000000, -256.000000)" fill="#FFB124" fill-rule="nonzero">
            <g id="nolimit_city" transform="translate(1786.000000, 256.000000)">
                <polygon id="Path" points="70.752 37.536 68.736 37.536 68.736 46.944 70.752 46.944"></polygon>
                <polygon id="Path" points="99.744 46.944 97.824 46.944 97.824 39.168 95.232 39.168 95.232 37.536 102.336 37.536 102.336 39.168 99.744 39.168"></polygon>
                <path d="M41.28,39.072 C40.512,39.072 39.936,39.36 39.552,39.936 C39.168,40.512 38.88,41.28 38.88,42.336 C38.88,44.448 39.648,45.504 41.28,45.504 C41.952,45.504 42.72,45.312 43.68,45.024 L43.68,46.656 C42.912,47.04 42.048,47.136 41.088,47.136 C39.744,47.136 38.688,46.752 37.92,45.888 C37.152,45.12 36.864,43.872 36.864,42.336 C36.864,41.376 37.056,40.512 37.344,39.744 C37.632,38.976 38.208,38.4 38.88,38.112 C39.552,37.728 40.32,37.536 41.28,37.536 C42.24,37.536 43.104,37.728 44.064,38.208 L43.392,39.84 C43.008,39.648 42.72,39.552 42.336,39.36 C41.952,39.072 41.664,39.072 41.28,39.072 Z" id="Path"></path>
                <polygon id="Path" points="129.888 41.376 131.808 37.536 133.92 37.536 130.848 43.2 130.848 46.848 128.832 46.848 128.832 43.296 125.76 37.44 127.968 37.44"></polygon>
                <path d="M134.4,12.48 L132.192,12.48 C131.808,12.48 131.712,12.48 131.712,12.096 C131.616,11.232 131.424,10.368 131.04,9.6 C130.176,7.68 128.64,6.624 126.624,6.432 C125.472,6.336 124.416,6.336 123.264,6.72 C121.632,7.2 120.576,8.256 119.904,9.792 C119.52,10.464 119.424,11.232 119.328,12 L119.328,12.192 C119.328,12.288 119.232,12.384 119.136,12.384 L114.336,12.384 C114.144,12.384 114.144,12.288 114.144,12.192 C114.048,11.904 114.048,11.616 113.952,11.328 C113.76,10.368 113.376,9.504 112.8,8.64 C111.744,7.104 110.304,6.432 108.576,6.24 C107.808,6.144 107.04,6.24 106.272,6.432 C104.352,6.912 103.008,8.064 102.24,9.984 C101.952,10.656 101.76,11.328 101.76,12 C101.664,12.48 101.664,12.48 101.28,12.48 L96.768,12.48 C96.48,12.48 96.48,12.384 96.48,12.096 C96.48,11.808 96.576,11.424 96.576,11.136 C96.96,9.216 97.536,7.296 98.688,5.664 C100.32,3.168 102.624,1.728 105.504,1.152 C106.464,0.96 107.328,0.96 108.192,0.96 C110.4,0.96 112.416,1.728 114.24,3.072 C115.008,3.744 115.776,4.512 116.448,5.28 C116.544,5.472 116.64,5.568 116.832,5.76 C116.928,5.856 117.024,5.856 117.024,5.76 C117.12,5.568 117.312,5.472 117.408,5.28 C118.08,4.512 118.752,3.744 119.616,3.072 C121.44,1.728 123.456,0.96 125.664,0.96 C127.104,0.864 128.448,1.152 129.792,1.536 C132,2.304 133.728,3.744 135.072,5.664 C136.128,7.296 136.704,9.024 137.088,10.944 C137.184,11.328 137.184,11.712 137.28,12 C137.376,12.384 137.376,12.384 136.896,12.384 L134.4,12.48 L134.4,12.48 L134.4,12.48 Z" id="Path"></path>
                <path d="M29.856,14.016 L32.16,14.016 C32.448,14.016 32.544,14.112 32.544,14.304 L32.544,15.552 C32.64,16.512 32.736,17.376 33.024,18.24 C33.696,19.776 34.656,21.024 36.192,21.888 C37.152,22.368 38.112,22.656 39.168,22.848 C40.416,22.944 41.664,22.944 42.816,22.656 C45.696,21.984 47.52,20.16 48.384,17.376 C48.576,16.8 48.576,16.32 48.576,15.648 L48.576,14.304 C48.576,14.112 48.672,14.016 48.768,14.016 L53.568,14.016 C53.76,14.016 53.76,14.112 53.76,14.304 C53.856,15.84 53.76,17.376 53.376,19.008 C52.896,20.736 52.128,22.368 51.072,23.808 C49.632,25.728 47.712,26.976 45.504,27.648 C44.064,28.128 42.528,28.32 40.992,28.416 C39.36,28.512 37.824,28.32 36.288,27.936 C32.448,26.976 29.76,24.576 28.128,20.928 C27.552,19.584 27.168,18.24 27.072,16.8 C26.976,16.032 27.072,15.168 27.072,14.4 C27.072,14.208 27.168,14.208 27.264,14.208 L28.32,14.208 C28.992,13.92 29.376,14.016 29.856,14.016 Z" id="Path"></path>
                <path d="M48.672,12.48 C48.576,12.288 48.576,12.096 48.48,12 C48,9.504 46.56,7.872 44.256,7.008 C43.296,6.624 42.336,6.528 41.28,6.432 C39.936,6.336 38.592,6.432 37.344,6.816 C35.712,7.296 34.272,8.16 33.408,9.696 C32.928,10.464 32.64,11.328 32.448,12.192 C32.352,12.48 32.352,12.576 32.064,12.576 L27.36,12.576 C27.072,12.576 26.976,12.48 27.072,12.192 C27.168,11.808 27.168,11.424 27.264,11.04 C27.648,9.216 28.416,7.488 29.472,5.952 C31.008,3.84 33.12,2.4 35.712,1.632 C36.96,1.248 38.208,1.152 39.552,1.056 C41.28,0.96 43.008,1.152 44.64,1.536 C46.848,2.112 48.864,3.168 50.4,4.896 C51.744,6.336 52.608,7.968 53.184,9.888 C53.376,10.464 53.568,11.136 53.664,11.712 C53.76,11.904 53.76,12.096 53.76,12.192 C53.76,12.384 53.664,12.48 53.472,12.48 L48.96,12.48 C48.96,12.48 48.864,12.48 48.672,12.48 Z" id="Path"></path>
                <path d="M5.76,1.152 L10.176,1.152 C11.136,1.152 12.096,1.248 13.056,1.536 C14.784,2.016 16.416,2.784 17.76,3.84 C19.776,5.472 21.024,7.488 21.504,9.984 C21.6,10.56 21.696,11.136 21.696,11.616 L21.696,12 C21.696,12.384 21.6,12.384 21.312,12.384 L16.608,12.384 C16.416,12.384 16.416,12.288 16.416,12.192 C16.416,11.808 16.32,11.424 16.32,10.944 C16.128,9.984 15.84,9.12 15.264,8.448 C14.4,7.296 13.152,6.624 11.808,6.432 C11.328,6.336 10.848,6.24 10.368,6.24 L5.664,6.24 C5.568,6.24 5.472,6.336 5.472,6.432 L5.472,11.808 C5.472,12.384 5.472,12.384 4.992,12.384 L0.192,12.384 C0.096,12.384 0,12.288 0,12.192 L0,11.808 C0,11.808 0,1.824 0,1.824 C0,1.152 0,1.152 0.672,1.152 C0.672,1.152 5.76,1.152 5.76,1.152 Z" id="Path"></path>
                <path d="M68.16,28.224 L60.192,28.224 C60.096,28.224 60,28.128 60,28.032 L60,14.592 C60,13.824 59.904,13.92 60.672,13.92 L65.088,13.92 C65.184,13.92 65.28,14.016 65.28,14.112 L65.28,22.176 C65.28,22.944 65.184,22.944 65.952,22.944 L75.84,22.944 C76.608,22.944 76.512,22.848 76.512,23.616 L76.512,28.128 C76.512,28.224 76.416,28.32 76.32,28.32 L75.744,28.32 C75.744,28.32 68.16,28.224 68.16,28.224 Z" id="Path"></path>
                <path d="M163.968,1.056 L172.704,1.056 C172.8,1.056 172.896,1.152 172.896,1.248 L172.896,6.144 C172.896,6.24 172.8,6.336 172.704,6.336 L167.328,6.336 C166.848,6.336 166.848,6.336 166.848,6.816 L166.848,12.192 C166.848,12.384 166.752,12.48 166.56,12.48 L161.76,12.48 C161.568,12.48 161.568,12.384 161.568,12.288 L161.568,6.72 C161.568,6.336 161.568,6.336 161.184,6.336 L156.192,6.336 C155.136,6.336 155.328,6.432 155.328,5.472 L155.328,1.248 C155.328,1.152 155.424,1.056 155.52,1.056 L156.096,1.056 L163.968,1.056 L163.968,1.056 Z" id="Path"></path>
                <path d="M143.616,21.12 L143.616,14.4 C143.616,13.92 143.52,13.92 144.096,13.92 L148.608,13.92 C148.8,13.92 148.8,14.016 148.8,14.112 L148.8,27.744 C148.8,28.224 148.8,28.224 148.32,28.224 L143.808,28.224 C143.616,28.224 143.52,28.128 143.52,27.936 L143.616,21.12 L143.616,21.12 Z" id="Path"></path>
                <path d="M131.712,21.024 L131.712,14.496 C131.712,13.92 131.616,13.92 132.288,13.92 L136.8,13.92 C136.896,13.92 136.992,14.016 136.992,14.112 L136.992,28.032 C136.992,28.224 136.896,28.224 136.704,28.224 L131.904,28.224 C131.808,28.224 131.712,28.128 131.712,28.032 L131.712,27.456 L131.712,21.024 L131.712,21.024 Z" id="Path"></path>
                <path d="M119.232,21.12 L119.232,27.648 C119.232,28.32 119.328,28.32 118.656,28.32 L114.144,28.32 C114.048,28.32 113.952,28.224 113.952,28.128 L113.952,14.496 C113.952,13.824 113.856,13.824 114.528,13.824 L119.04,13.824 C119.136,13.824 119.232,13.92 119.232,14.016 L119.232,21.12 Z" id="Path"></path>
                <path d="M83.52,21.12 L83.52,14.4 C83.52,13.92 83.52,13.92 84,13.92 L88.608,13.92 C88.8,13.92 88.8,14.016 88.8,14.112 L88.8,27.84 C88.8,28.128 88.704,28.224 88.416,28.224 L83.712,28.224 C83.52,28.224 83.424,28.128 83.424,27.936 L83.424,27.456 C83.52,25.344 83.52,23.232 83.52,21.12 Z" id="Path"></path>
                <path d="M4.416,28.224 L0.288,28.224 C0.192,28.224 0,28.128 0,27.936 L0,14.208 C0,14.016 0.096,13.92 0.288,13.92 L5.088,13.92 C5.184,13.92 5.28,14.016 5.28,14.112 L5.28,14.592 L5.28,27.648 L5.28,28.032 C5.28,28.224 5.184,28.32 4.992,28.32 L4.416,28.32 L4.416,28.224 Z" id="Path"></path>
                <path d="M21.792,21.216 L21.792,27.936 C21.792,28.224 21.696,28.32 21.408,28.32 L16.608,28.32 C16.512,28.32 16.512,28.224 16.416,28.128 L16.416,14.688 C16.416,14.208 16.416,14.208 16.896,14.208 L21.408,14.208 C21.6,14.208 21.696,14.304 21.696,14.496 L21.696,15.072 C21.792,16.992 21.792,19.2 21.792,21.216 Z" id="Path"></path>
                <path d="M96.192,21.12 L96.192,14.112 C96.192,14.016 96.288,13.92 96.384,13.92 L101.184,13.92 C101.376,13.92 101.376,14.016 101.472,14.112 L101.472,27.936 C101.472,28.032 101.376,28.128 101.28,28.128 L96.576,28.128 C96.288,28.128 96.192,28.032 96.192,27.84 L96.192,27.36 L96.192,21.12 L96.192,21.12 Z" id="Path"></path>
                <path d="M166.656,21.12 L166.656,27.552 C166.656,28.224 166.752,28.224 166.08,28.224 L161.568,28.224 C161.472,28.224 161.376,28.128 161.376,28.032 L161.376,14.688 C161.376,13.92 161.28,13.92 162.144,13.92 L166.464,13.92 C166.56,13.92 166.656,14.016 166.656,14.112 C166.656,14.112 166.656,21.12 166.656,21.12 Z" id="Path"></path>
                <path d="M148.896,6.72 L148.896,12.096 C148.896,12.384 148.8,12.48 148.512,12.48 L143.808,12.48 C143.52,12.48 143.52,12.384 143.424,12.096 L143.424,1.248 C143.424,1.056 143.52,0.96 143.712,0.96 L148.416,0.96 C148.704,0.96 148.8,1.056 148.8,1.344 L148.8,6.72 L148.896,6.72 Z" id="Path"></path>
                <path d="M83.52,6.72 L83.52,1.536 C83.52,0.96 83.52,1.056 84,1.056 L88.608,1.056 C88.704,1.056 88.8,1.152 88.8,1.248 L88.8,11.904 C88.8,12.576 88.8,12.576 88.224,12.576 L83.712,12.576 C83.52,12.48 83.52,12.48 83.52,12.384 L83.52,11.904 C83.52,11.904 83.52,6.72 83.52,6.72 Z" id="Path"></path>
                <path d="M65.28,6.72 L65.28,11.904 C65.28,12.384 65.28,12.384 64.8,12.384 L60.288,12.384 C60.192,12.384 60.096,12.288 60.096,12.192 L60.096,1.632 C60.096,0.864 60,0.96 60.768,0.96 L65.184,0.96 C65.376,0.96 65.376,1.056 65.376,1.152 L65.376,1.632 C65.28,3.456 65.28,5.088 65.28,6.72 Z" id="Path"></path>
            </g>
        </g>
    </g>
</svg>