<?xml version="1.0" encoding="UTF-8"?>
<svg width="149px" height="48px" viewBox="0 0 149 48" version="1.1" xmlns="http://www.w3.org/2000/svg" xmlns:xlink="http://www.w3.org/1999/xlink">
    <!-- Generator: Sketch 60.1 (88133) - https://sketch.com -->
    <title>august</title>
    <desc>Created with Sketch.</desc>
    <g id="design" stroke="none" stroke-width="1" fill="none" fill-rule="evenodd">
        <g id="main" transform="translate(-770.000000, -64.000000)" fill="#FFB124">
            <g id="august" transform="translate(770.000000, 64.000000)">
                <path d="M16.8085044,10.6064402 C19.1169609,8.24951954 21.226547,5.64637834 23.7756534,3.58692766 C28.7540983,-0.434488201 34.8561331,-0.363184526 39.3532781,4.23757369 C42.5396611,7.49693153 45.2915373,11.3863242 47.425634,15.4233377 C51.7506476,23.6048774 55.4851776,32.0972565 59.5539435,40.416947 C60.5455103,42.4446453 59.892636,43.1448696 57.9284426,43.7292255 C48.4623226,46.5479489 40.2016805,43.6651636 34.9875992,34.9861694 C31.5137733,29.203887 28.6738816,23.0377903 25.6078236,17.014301 C23.8425006,13.5466027 21.9256573,10.4053416 17.0630809,11.4626414 L16.8085044,10.6064402 Z" id="Path"></path>
                <path d="M0,42.1300735 C0,40.6616841 5.64458414,32.0852575 7.77354328,28.1673416 C9.90250242,24.2494258 11.2079907,21.67706 12.9811126,18.8772766 C14.6277818,16.2769207 17.240393,16.0334855 18.9138012,18.5486112 C21.8734607,22.9995203 24.6090074,27.6413588 26.8814298,32.500735 C27.27581,33.3440824 26.1865169,34.7417083 26.1101488,34.8858623 C24.5555186,37.8204183 22.6000967,40.1082265 19.5404936,42.1300735 C14.4095958,45.1414635 1.80282882,45.652986 0,42.1300735 Z" id="Path"></path>
                <path d="M79.7096228,0.261121857 L85.9983075,16.3636364 L83.52853,16.3636364 L81.7768375,11.9028046 L74.955029,11.9028046 L73.1815764,16.3636364 L71.0599613,16.3636364 L77.4465667,0.261121857 L79.7096228,0.261121857 Z M78.3713733,3.26402321 L75.6187137,10.2055126 L81.1131528,10.2055126 L78.3713733,3.26402321 Z" id="Path" fill-rule="nonzero"></path>
                <path d="M91.6341876,16.6356383 C93.2589458,16.6356383 94.6407157,15.8051257 95.7794971,14.1441006 L95.7794971,14.1441006 L95.7794971,16.3636364 L97.9228723,16.3636364 L97.9228723,4.54787234 L95.7794971,4.54787234 L95.7794971,12.2074468 C94.6189555,13.926499 93.3858801,14.7860251 92.0802708,14.7860251 C91.4782398,14.7860251 91.0484768,14.5992505 90.7909816,14.2257012 C90.5334865,13.8521518 90.4047389,13.2229207 90.4047389,12.3380077 L90.4047389,12.3380077 L90.4047389,4.54787234 L88.2613636,4.54787234 L88.2613636,13.0343327 C88.2613636,14.1368472 88.5660058,15.0126934 89.1752901,15.6618714 C89.7845745,16.3110493 90.604207,16.6356383 91.6341876,16.6356383 Z" id="Path" fill-rule="nonzero"></path>
                <path d="M106.398453,4.28675048 C107.718569,4.28675048 108.853723,4.82350097 109.803917,5.89700193 L109.803917,5.89700193 L109.803917,4.54787234 L111.958172,4.54787234 L111.958172,13.1431335 L111.956891,13.5066489 C111.944931,15.1731544 111.84925,16.421059 111.66985,17.2503627 C111.477635,18.1389023 111.116779,18.8660542 110.587282,19.4318182 C109.651596,20.4255319 108.197292,20.9223888 106.224371,20.9223888 C104.846228,20.9223888 103.526112,20.7120406 102.264023,20.2913443 L102.264023,20.2913443 L102.514265,18.4308511 L102.852087,18.5838016 C103.976661,19.0693587 105.086249,19.3121373 106.180851,19.3121373 C108.596228,19.3121373 109.803917,18.0319149 109.803917,15.47147 L109.803917,15.47147 L109.803917,13.6109768 L109.692958,13.8313658 C108.894216,15.3382116 107.632847,16.0916344 105.908849,16.0916344 C104.494439,16.0916344 103.370164,15.5766441 102.536025,14.5466634 C101.701886,13.5166828 101.284816,12.1276596 101.284816,10.3795938 C101.284816,8.58075435 101.759913,7.1155706 102.710106,5.98404255 C103.6603,4.85251451 104.889749,4.28675048 106.398453,4.28675048 Z M106.724855,5.89700193 C105.738395,5.89700193 104.965909,6.29231141 104.407398,7.08293037 C103.848888,7.87354932 103.569632,8.95793037 103.569632,10.3360735 C103.569632,12.9255319 104.479932,14.2202611 106.300532,14.2202611 C107.540861,14.2202611 108.708656,13.5710832 109.803917,12.2727273 L109.803917,12.2727273 L109.803917,7.36581238 L109.614217,7.17649903 C108.723759,6.32350097 107.760638,5.89700193 106.724855,5.89700193 Z" id="Path" fill-rule="nonzero"></path>
                <path d="M119.356625,16.6356383 C120.981383,16.6356383 122.363153,15.8051257 123.501934,14.1441006 L123.501934,14.1441006 L123.501934,16.3636364 L125.645309,16.3636364 L125.645309,4.54787234 L123.501934,4.54787234 L123.501934,12.2074468 C122.341393,13.926499 121.108317,14.7860251 119.802708,14.7860251 C119.200677,14.7860251 118.770914,14.5992505 118.513419,14.2257012 C118.255924,13.8521518 118.127176,13.2229207 118.127176,12.3380077 L118.127176,12.3380077 L118.127176,4.54787234 L115.983801,4.54787234 L115.983801,13.0343327 C115.983801,14.1368472 116.288443,15.0126934 116.897727,15.6618714 C117.507012,16.3110493 118.326644,16.6356383 119.356625,16.6356383 Z" id="Path" fill-rule="nonzero"></path>
                <path d="M133.076402,16.6356383 C134.352998,16.6356383 135.401112,16.3019826 136.220745,15.6346712 C137.040377,14.9673598 137.450193,14.115087 137.450193,13.077853 C137.450193,12.2582205 137.207205,11.574589 136.721228,11.0269584 C136.235251,10.4793279 135.408366,9.95889749 134.240571,9.46566731 L134.240571,9.46566731 L133.206963,9.03046422 C132.162476,8.58800774 131.640232,8.04400387 131.640232,7.39845261 C131.640232,6.39748549 132.329304,5.89700193 133.707447,5.89700193 C134.411025,5.89700193 135.361219,6.07470986 136.558027,6.43012573 L136.558027,6.43012573 L136.558027,4.64579304 L136.111944,4.55875242 C135.13999,4.37741779 134.323985,4.28675048 133.663926,4.28675048 C132.394584,4.28675048 131.39543,4.58232592 130.666465,5.17347679 C129.9375,5.76462766 129.573017,6.57519342 129.573017,7.60517408 C129.573017,9.04859768 130.497824,10.1547389 132.347437,10.9235977 L132.347437,10.9235977 L133.598646,11.4567215 C134.737427,11.9354449 135.306818,12.5411025 135.306818,13.2736944 C135.306818,13.7741779 135.103723,14.1912476 134.697534,14.5249033 C134.291344,14.858559 133.779981,15.0253868 133.163443,15.0253868 C132.126209,15.0253868 130.90764,14.6772244 129.507737,13.9808994 L129.507737,13.9808994 L129.507737,15.9501934 C130.90764,16.4071567 132.097195,16.6356383 133.076402,16.6356383 Z" id="Path" fill-rule="nonzero"></path>
                <path d="M144.848646,16.6356383 C145.334623,16.6356383 145.90764,16.544971 146.567698,16.3636364 L146.567698,16.3636364 L146.567698,14.8839458 C146.161509,14.9782398 145.816973,15.0253868 145.534091,15.0253868 C144.199468,15.0253868 143.532157,14.2529014 143.532157,12.7079304 L143.532157,12.7079304 L143.532157,6.15812379 L146.622099,6.15812379 L146.622099,4.54787234 L143.532157,4.54787234 L143.532157,2.19777563 L141.388781,2.4044971 L141.388781,4.54787234 L139.909091,4.54787234 L139.909091,6.15812379 L141.388781,6.15812379 L141.388781,13.0996132 C141.388781,14.209381 141.693424,15.0761605 142.302708,15.6999516 C142.911992,16.3237427 143.760638,16.6356383 144.848646,16.6356383 Z" id="Path" fill-rule="nonzero"></path>
                <path d="M76.5707205,42.9480174 C78.0213975,42.9480174 79.7223162,42.6687621 81.6734768,42.1102515 L81.6734768,42.1102515 L81.6734768,35.5930851 L79.3995406,35.5930851 L79.3995406,40.8372824 C78.5146277,41.1056576 77.6913685,41.2398453 76.9297631,41.2398453 C75.0728965,41.2398453 73.6294729,40.6505077 72.5994923,39.4718327 C71.5695116,38.2931576 71.0545213,36.6411992 71.0545213,34.5159574 C71.0545213,32.3689555 71.535058,30.7043037 72.4961315,29.5220019 C73.457205,28.3397002 74.808148,27.7485493 76.5489603,27.7485493 C77.7312621,27.7485493 79.4321809,28.1257253 81.6517166,28.8800774 L81.6517166,28.8800774 L81.6517166,26.7693424 C79.8818907,26.2833656 78.1773453,26.0403772 76.5380803,26.0403772 C74.0356625,26.0403772 72.0917553,26.7820358 70.7063588,28.265353 C69.3209623,29.7486702 68.628264,31.8249516 68.628264,34.4941973 C68.628264,37.2142166 69.3118956,39.3031915 70.6791586,40.7611219 C72.0464217,42.2190522 74.0102756,42.9480174 76.5707205,42.9480174 Z" id="Path" fill-rule="nonzero"></path>
                <path d="M89.8008946,30.4685687 C91.1210106,30.4685687 92.0947776,30.7659574 92.7221954,31.360735 C93.3496132,31.9555126 93.6633221,32.8803191 93.6633221,34.1351547 L93.6633221,34.1351547 L93.6633221,39.4881528 L93.6668144,39.6867814 C93.7063946,40.7801844 94.0824065,41.3268859 94.7948501,41.3268859 C94.8891441,41.3268859 95.0269584,41.3123791 95.208293,41.2833656 L95.208293,41.2833656 L95.3606141,42.469294 L95.1492298,42.5616636 C94.7202439,42.7321922 94.2539548,42.8174565 93.7503627,42.8174565 C92.7493956,42.8174565 92.1110977,42.2263056 91.8354691,41.0440039 C90.5516199,42.2263056 89.3149178,42.8174565 88.1253627,42.8174565 C87.1461557,42.8174565 86.3337766,42.511001 85.6882253,41.8980899 C85.0426741,41.2851789 84.7198985,40.5108801 84.7198985,39.5751934 C84.7198985,38.2840909 85.262089,37.2921905 86.34647,36.5994923 C87.4308511,35.906794 88.9848888,35.5604449 91.0085832,35.5604449 L91.0085832,35.5604449 L91.5199468,35.5604449 L91.5199468,34.1351547 L91.5159568,33.9602302 C91.4574361,32.7059568 90.7551877,32.0788201 89.4092118,32.0788201 C88.2776838,32.0788201 87.0554884,32.4269826 85.7426257,33.1233075 L85.7426257,33.1233075 L85.7426257,31.3498549 L86.1340388,31.1969044 C87.4312557,30.7113473 88.653541,30.4685687 89.8008946,30.4685687 Z M90.8018617,36.8007737 L90.4869689,36.8063037 C89.4559092,36.84317 88.6106801,37.0643683 87.9512814,37.4698985 C87.2259429,37.9159816 86.8632737,38.5016925 86.8632737,39.2270309 C86.8632737,39.7420213 87.0446083,40.1772244 87.4072776,40.5326402 C87.7699468,40.8880561 88.2124033,41.065764 88.734647,41.065764 C89.6268133,41.065764 90.5552466,40.6704545 91.5199468,39.8798356 L91.5199468,39.8798356 L91.5199468,36.8225338 L90.8018617,36.8007737 Z" id="Path" fill-rule="nonzero"></path>
                <path d="M100.191368,42.5454545 L100.191368,34.6247582 C101.424444,33.0435203 102.581359,32.2529014 103.662113,32.2529014 C104.750121,32.2529014 105.294125,32.9310928 105.294125,34.2874758 L105.294125,34.2874758 L105.294125,42.5454545 L107.44838,42.5454545 L107.44838,34.6247582 C108.666949,33.0507737 109.831117,32.2637814 110.940885,32.2637814 C112.007132,32.2637814 112.540256,32.9383462 112.540256,34.2874758 L112.540256,34.2874758 L112.540256,42.5454545 L114.694512,42.5454545 L114.694512,33.9501934 C114.694512,32.8476789 114.408003,31.9899662 113.834985,31.3770551 C113.261968,30.7641441 112.453216,30.4576886 111.408728,30.4576886 C109.78397,30.4576886 108.463854,31.2882012 107.44838,32.9492263 C106.875363,31.2954545 105.798235,30.4685687 104.216997,30.4685687 C102.577732,30.4685687 101.235856,31.2954545 100.191368,32.9492263 L100.191368,32.9492263 L100.191368,30.7296905 L98.0479932,30.7296905 L98.0479932,42.5454545 L100.191368,42.5454545 Z" id="Path" fill-rule="nonzero"></path>
                <polygon id="Path" fill-rule="nonzero" points="120.994076 28.5863153 120.994076 26.44294 118.850701 26.44294 118.850701 28.5863153"></polygon>
                <polygon id="Path" fill-rule="nonzero" points="120.994076 42.5454545 120.994076 30.7296905 118.850701 30.7296905 118.850701 42.5454545"></polygon>
                <path d="M127.435082,42.5454545 L127.435082,34.8967602 C128.595624,33.1777079 129.832326,32.3181818 131.145189,32.3181818 C131.739966,32.3181818 132.166103,32.5049565 132.423598,32.8785058 C132.681093,33.2520551 132.80984,33.8776596 132.80984,34.7553191 L132.80984,34.7553191 L132.80984,42.5454545 L134.953216,42.5454545 L134.953216,34.0589942 C134.953216,32.9637331 134.648574,32.0915135 134.039289,31.4423356 C133.430005,30.7931576 132.613999,30.4685687 131.591272,30.4685687 C129.952007,30.4685687 128.56661,31.2954545 127.435082,32.9492263 L127.435082,32.9492263 L127.435082,30.7296905 L125.291707,30.7296905 L125.291707,42.5454545 L127.435082,42.5454545 Z" id="Path" fill-rule="nonzero"></path>
                <path d="M143.298235,30.4685687 C144.618351,30.4685687 145.753506,31.0053191 146.703699,32.0788201 L146.703699,32.0788201 L146.703699,30.7296905 L148.857955,30.7296905 L148.857955,39.3249516 L148.856673,39.6884671 C148.844713,41.3549726 148.749033,42.6028772 148.569632,43.4321809 C148.377418,44.3207205 148.016562,45.0478723 147.487065,45.6136364 C146.551378,46.6073501 145.097074,47.104207 143.124154,47.104207 C141.746011,47.104207 140.425895,46.8938588 139.163806,46.4731625 L139.163806,46.4731625 L139.414047,44.6126692 L139.751869,44.7656198 C140.876444,45.2511769 141.986032,45.4939555 143.080633,45.4939555 C145.496011,45.4939555 146.703699,44.2137331 146.703699,41.6532882 L146.703699,41.6532882 L146.703699,39.792795 L146.59274,40.013184 C145.793999,41.5200297 144.532629,42.2734526 142.808632,42.2734526 C141.394221,42.2734526 140.269947,41.7584623 139.435808,40.7284816 C138.601668,39.698501 138.184599,38.3094778 138.184599,36.561412 C138.184599,34.7625725 138.659695,33.2973888 139.609889,32.1658607 C140.560082,31.0343327 141.789531,30.4685687 143.298235,30.4685687 Z M143.624637,32.0788201 C142.638177,32.0788201 141.865691,32.4741296 141.307181,33.2647485 C140.74867,34.0553675 140.469415,35.1397485 140.469415,36.5178917 C140.469415,39.1073501 141.379715,40.4020793 143.200314,40.4020793 C144.440643,40.4020793 145.608438,39.7529014 146.703699,38.4545455 L146.703699,38.4545455 L146.703699,33.5476306 L146.513999,33.3583172 C145.623541,32.5053191 144.660421,32.0788201 143.624637,32.0788201 Z" id="Path" fill-rule="nonzero"></path>
            </g>
        </g>
    </g>
</svg>