<?xml version="1.0" encoding="UTF-8"?>
<svg width="130px" height="48px" viewBox="0 0 130 48" version="1.1" xmlns="http://www.w3.org/2000/svg" xmlns:xlink="http://www.w3.org/1999/xlink">
    <!-- Generator: Sketch 60.1 (88133) - https://sketch.com -->
    <title>netent</title>
    <desc>Created with Sketch.</desc>
    <g id="design" stroke="none" stroke-width="1" fill="none" fill-rule="evenodd">
        <g id="main" transform="translate(-1381.000000, -256.000000)" fill="#FFB124" fill-rule="nonzero">
            <g id="netent" transform="translate(1381.000000, 256.000000)">
                <polygon id="Path" points="111.342063 10.1621622 130 10.1621622 130 15.5675676 123.491417 15.5675676 123.491417 38.4864865 117.850646 38.4864865 117.850646 15.5675676 111.342063 15.5675676"></polygon>
                <polygon id="Path" points="87.2603066 10.1621622 92.2502201 10.1621622 103.314811 27.4594595 103.314811 10.1621622 108.955582 10.1621622 108.955582 38.4864865 103.965669 38.4864865 92.9010783 21.1891892 92.9010783 38.4864865 87.2603066 38.4864865"></polygon>
                <polygon id="Path" points="69.4701805 10.1621622 84.222968 10.1621622 84.222968 15.5675676 71.2058025 15.5675676 71.2058025 21.6216216 82.2703932 21.6216216 82.2703932 27.027027 71.2058025 27.027027 71.2058025 33.0810811 84.222968 33.0810811 84.222968 38.4864865 69.4701805 38.4864865 69.4701805 48 68.3854167 48 68.3854167 0 69.4701805 0"></polygon>
                <polygon id="Path" points="24.6067534 10.1408451 43.1697427 10.1408451 43.1697427 15.5596172 30.4346686 15.5596172 30.4346686 21.6286421 41.442953 21.6286421 41.442953 27.0474143 30.4346686 27.0474143 30.4346686 33.1164391 43.1697427 33.1164391 43.1697427 38.5352113 24.6067534 38.5352113"></polygon>
                <polygon id="Path" points="0 10.1408451 5.18036913 10.1408451 15.9728048 27.480916 15.9728048 10.1408451 21.5848714 10.1408451 21.5848714 38.5352113 16.620351 38.5352113 5.61206655 21.1951403 5.61206655 38.5352113 0 38.5352113"></polygon>
                <polygon id="Path" points="45.7599273 10.1408451 64.3229167 10.1408451 64.3229167 15.5596172 57.8474553 15.5596172 57.8474553 38.5352113 52.2353887 38.5352113 52.2353887 15.5596172 45.7599273 15.5596172"></polygon>
            </g>
        </g>
    </g>
</svg>