<?xml version="1.0" encoding="UTF-8"?>
<svg width="228px" height="48px" viewBox="0 0 228 48" version="1.1" xmlns="http://www.w3.org/2000/svg" xmlns:xlink="http://www.w3.org/1999/xlink">
    <!-- Generator: Sketch 60.1 (88133) - https://sketch.com -->
    <title>habanero</title>
    <desc>Created with Sketch.</desc>
    <g id="design" stroke="none" stroke-width="1" fill="none" fill-rule="evenodd">
        <g id="main" transform="translate(-110.000000, -256.000000)" fill="#FFB124" fill-rule="nonzero">
            <g id="habanero" transform="translate(110.000000, 256.000000)">
                <path d="M12.9687943,0.316266301 C13.6014184,-0.15813315 14.7085106,0.474399451 14.5503546,1.2650652 C14.5503546,2.05573095 13.6014184,2.5301304 12.9687943,2.05573095 C12.1780142,1.73946465 12.1780142,0.632532601 12.9687943,0.316266301 Z" id="Path"></path>
                <path d="M17.0808511,1.42319835 C17.5553191,1.2650652 18.0297872,1.2650652 18.3460993,1.73946465 C18.6624113,2.2138641 18.5042553,2.68826356 18.5042553,3.16266301 L18.5042553,5.53466026 C18.3460993,6.16719286 17.5553191,6.64159231 16.922695,6.32532601 C16.606383,6.16719286 16.2900709,5.69279341 16.2900709,5.37652711 L16.2900709,2.37199725 C16.606383,2.05573095 16.764539,1.5813315 17.0808511,1.42319835 Z" id="Path"></path>
                <path d="M13.1269504,4.11146191 C13.7595745,3.79519561 14.5503546,4.26959506 14.5503546,5.06026081 L14.5503546,8.22292382 C14.5503546,8.85545642 13.7595745,9.32985587 13.1269504,9.01358957 C12.6524823,8.85545642 12.4943262,8.38105697 12.4943262,8.06479067 L12.4943262,5.21839396 C12.3361702,4.74399451 12.6524823,4.26959506 13.1269504,4.11146191 Z" id="Path"></path>
                <path d="M21.1929078,8.06479067 C21.9836879,7.59039121 22.9326241,8.38105697 22.7744681,9.17172272 C22.6163121,9.96238847 21.6673759,10.2786548 21.0347518,9.80425532 C20.5602837,9.32985587 20.5602837,8.38105697 21.1929078,8.06479067 Z" id="Path"></path>
                <path d="M16.606383,9.32985587 C16.606383,8.69732327 17.2390071,8.22292382 17.7134752,8.38105697 C18.1879433,8.38105697 18.6624113,8.85545642 18.6624113,9.32985587 L18.6624113,14.0738504 C18.6624113,14.5482498 18.9787234,15.0226493 19.6113475,15.1807824 C20.0858156,15.1807824 20.4021277,14.8645161 20.7184397,14.5482498 C20.8765957,13.7575841 20.7184397,12.9669183 20.7184397,12.3343857 C20.7184397,11.8599863 21.1929078,11.3855868 21.8255319,11.54372 C22.458156,11.54372 22.9326241,12.0181194 22.9326241,12.650652 L22.9326241,17.0783802 C22.9326241,17.869046 23.8815603,18.3434454 24.5141844,17.869046 C24.9886525,17.5527797 24.8304965,16.7621139 25.3049645,16.2877145 C25.7794326,15.813315 26.8865248,16.1295813 27.0446809,16.7621139 C27.2028369,17.7109128 27.0446809,18.6597117 27.0446809,19.6085106 C27.0446809,19.9247769 27.3609929,20.2410432 27.677305,20.3991764 C28.151773,20.5573095 28.7843972,20.3991764 28.9425532,19.9247769 C29.1007092,19.4503775 28.9425532,18.8178449 29.2588652,18.5015786 C29.5751773,17.869046 30.5241135,17.869046 30.9985816,18.5015786 C31.3148936,18.8178449 31.1567376,19.2922443 31.1567376,19.6085106 L31.1567376,38.7426218 C26.2539007,41.5890185 16.2900709,47.4399451 15.6574468,47.7562114 C15.6574468,47.7562114 5.06099291,41.5890185 -1.77635684e-15,38.7426218 L-1.77635684e-15,18.8178449 C0.316312057,18.0271791 1.42340426,17.869046 1.89787234,18.6597117 C2.2141844,19.4503775 1.89787234,20.3991764 2.2141844,21.1898421 C2.37234043,21.6642416 3.00496454,21.9805079 3.47943262,21.6642416 C3.95390071,21.5061084 4.11205674,21.031709 4.11205674,20.5573095 L4.11205674,15.4970487 C4.11205674,14.706383 5.37730496,14.3901167 5.85177305,14.8645161 C6.32624113,15.3389156 6.16808511,15.9714482 6.16808511,16.4458476 C6.16808511,16.9202471 6.00992908,17.5527797 6.48439716,18.0271791 C6.80070922,18.5015786 7.43333333,18.5015786 7.90780142,18.1853123 C8.22411348,17.869046 8.3822695,17.3946465 8.3822695,17.0783802 L8.3822695,10.7530542 C8.3822695,10.1205216 8.85673759,9.64612217 9.33120567,9.64612217 C9.80567376,9.64612217 10.4382979,9.96238847 10.4382979,10.5949211 L10.4382979,15.0226493 C10.4382979,15.3389156 10.7546099,15.6551819 11.070922,15.813315 C11.5453901,16.1295813 12.3361702,15.6551819 12.4943262,15.0226493 C12.6524823,13.9157172 12.4943262,12.650652 12.4943262,11.3855868 C12.6524823,10.7530542 13.9177305,10.4367879 14.3921986,11.2274537 C14.8666667,12.0181194 14.2340426,13.1250515 14.8666667,13.9157172 C15.3411348,14.5482498 16.606383,14.2319835 16.606383,13.2831846 C16.606383,12.1762526 16.448227,10.7530542 16.606383,9.32985587 M8.22411348,23.5618394 L8.22411348,35.2636925 L13.1269504,35.2636925 L13.1269504,31.4684969 L18.0297872,31.4684969 L18.0297872,35.2636925 L22.9326241,35.2636925 L22.9326241,23.7199725 L18.0297872,23.7199725 L18.0297872,27.6733013 L13.1269504,27.6733013 L13.1269504,23.7199725 C11.387234,23.5618394 9.80567376,23.5618394 8.22411348,23.5618394 Z" id="Path"></path>
                <path d="M205.602837,17.5527797 C207.342553,17.7109128 209.08227,17.869046 210.66383,18.6597117 C211.45461,19.1341112 212.24539,19.7666438 212.561702,20.5573095 C213.194326,21.8223747 213.510638,23.2455731 213.668794,24.5106383 C213.82695,26.4082361 213.82695,28.4639671 213.668794,30.3615649 C213.510638,32.1010295 213.194326,33.8404942 212.561702,35.4218257 C212.087234,36.5287577 211.138298,37.3194235 210.031206,37.6356898 C208.133333,38.2682224 206.077305,38.4263555 204.179433,38.4263555 C202.597872,38.4263555 201.016312,38.4263555 199.434752,37.9519561 C198.32766,37.6356898 197.220567,37.3194235 196.271631,36.3706246 C195.164539,35.2636925 194.690071,33.8404942 194.531915,32.4172958 C194.373759,30.6778312 194.531915,29.0964997 194.373759,27.357035 C194.373759,25.7757035 194.373759,24.3525051 194.690071,22.7711736 C194.848227,21.5061084 195.480851,20.0829101 196.429787,19.2922443 C197.062411,18.6597117 198.011348,18.3434454 198.960284,18.0271791 L201.807092,17.5527797 C203.07234,17.3946465 204.337589,17.3946465 205.602837,17.5527797 Z M204.509748,22.2969673 L204.337589,22.2967742 C203.388652,22.2967742 202.28156,22.2967742 201.49078,22.7711736 C201.174468,22.9293068 200.858156,23.2455731 200.7,23.5618394 C200.383688,24.6687714 200.225532,25.7757035 200.225532,26.8826356 C200.225532,28.7802334 200.067376,30.6778312 200.541844,32.4172958 C200.7,33.0498284 201.332624,33.5242279 201.965248,33.682361 C203.07234,33.9986273 204.337589,33.8404942 205.602837,33.682361 C206.393617,33.5242279 207.342553,33.2079616 207.658865,32.4172958 C208.291489,30.8359643 208.133333,29.0964997 208.133333,27.357035 C208.133333,25.9338367 208.133333,24.5106383 207.500709,23.2455731 C206.756446,22.3525859 205.451795,22.3000572 204.509748,22.2969673 Z" id="Path"></path>
                <path d="M48.5539007,17.5527797 L54.0893617,17.5527797 L54.0893617,25.4594372 L61.206383,25.4594372 L61.206383,17.7109128 L66.9,17.7109128 L66.9,38.2682224 L61.206383,38.2682224 L61.206383,30.2034317 L54.0893617,30.2034317 L54.0893617,38.4263555 L48.3957447,38.4263555 C48.5539007,31.4684969 48.5539007,24.5106383 48.5539007,17.5527797 L48.5539007,17.5527797 Z" id="Path"></path>
                <path d="M83.664539,17.7109128 C84.2971631,19.2922443 84.7716312,21.031709 85.2460993,22.7711736 C86.8276596,27.9895676 88.4092199,33.3660947 89.9907801,38.4263555 L84.2971631,38.4263555 C83.9808511,37.1612903 83.506383,36.0543583 83.1900709,34.7892931 L75.7567376,34.7892931 C75.4404255,36.0543583 75.1241135,37.1612903 74.8078014,38.4263555 C72.9099291,38.2682224 71.0120567,38.2682224 68.9560284,38.2682224 C71.0120567,31.3103638 73.0680851,24.5106383 75.2822695,17.7109128 L83.664539,17.7109128 Z M79.5524823,21.9805079 C78.7617021,24.8269046 77.970922,27.8314345 77.0219858,30.8359643 L82.0829787,30.8359643 C81.2921986,27.8314345 80.3432624,24.8269046 79.5524823,21.9805079 Z" id="Path"></path>
                <path d="M103.908511,17.5527797 C105.490071,17.5527797 107.071631,17.869046 108.336879,18.8178449 C109.443972,19.7666438 109.602128,21.1898421 109.602128,22.4549073 C109.602128,23.7199725 109.602128,24.9850377 108.969504,26.250103 C108.495035,27.1989019 107.229787,27.357035 106.280851,27.6733013 C107.387943,27.8314345 108.495035,28.1477008 109.12766,29.0964997 C109.91844,30.519698 109.91844,32.1010295 109.760284,33.682361 C109.602128,35.1055594 109.285816,36.6868909 107.862411,37.3194235 C106.280851,38.2682224 104.224823,38.1100892 102.485106,38.1100892 L92.0468085,38.1100892 L92.0468085,17.5527797 L103.908511,17.5527797 Z M102.221513,29.8875992 L97.7404255,29.8871654 L97.7404255,33.8404942 L101.852482,33.8404942 C102.485106,33.8404942 103.11773,33.8404942 103.750355,33.5242279 C104.224823,33.2079616 104.382979,32.4172958 104.382979,31.7847632 C104.382979,31.3103638 104.382979,30.519698 103.908511,30.2034317 C103.346178,29.9223061 102.783846,29.8910699 102.221513,29.8875992 Z M102.32695,22.138641 C100.74539,22.2967742 99.3219858,22.2967742 97.7404255,22.2967742 L97.7404255,25.9338367 L101.061702,25.9338367 C101.852482,25.9338367 102.801418,25.9338367 103.434043,25.6175704 C103.908511,25.4594372 104.066667,24.8269046 104.066667,24.3525051 C104.066667,23.7199725 104.066667,23.0874399 103.750355,22.6130405 C103.434043,22.2967742 102.801418,22.138641 102.32695,22.138641 Z" id="Path"></path>
                <path d="M125.259574,17.5527797 C127.315603,24.5106383 129.529787,31.3103638 131.585816,38.1100892 L125.892199,38.1100892 C125.575887,37.0031572 125.259574,35.738092 124.785106,34.4730268 L117.351773,34.4730268 C117.035461,35.5799588 116.719149,36.845024 116.402837,37.9519561 C114.504965,38.2682224 112.448936,38.2682224 110.551064,38.2682224 C112.607092,31.3103638 114.663121,24.5106383 116.719149,17.5527797 L125.259574,17.5527797 Z M121.147518,21.9805079 C120.198582,24.8269046 119.407801,27.8314345 118.617021,30.8359643 L123.678014,30.8359643 C122.887234,27.8314345 121.938298,24.8269046 121.147518,21.9805079 Z" id="Path"></path>
                <path d="M133.00922,17.5527797 L142.340426,17.5527797 C144.238298,22.7711736 146.13617,27.8314345 148.034043,32.8916953 C148.034043,33.0498284 148.192199,33.2079616 148.350355,33.3660947 C148.350355,28.1477008 148.192199,22.7711736 148.192199,17.7109128 L153.72766,17.7109128 L153.72766,38.4263555 L144.238298,38.4263555 C142.340426,33.0498284 140.284397,27.8314345 138.386525,22.6130405 L138.070213,22.6130405 C138.228369,27.8314345 138.228369,33.2079616 138.386525,38.2682224 L132.851064,38.2682224 C133.00922,31.4684969 133.00922,24.5106383 133.00922,17.5527797 L133.00922,17.5527797 Z" id="Path"></path>
                <path d="M156.416312,38.2682224 L156.416312,17.5527797 L171.441135,17.5527797 L171.441135,22.138641 L161.951773,22.138641 L161.951773,25.7757035 L170.808511,25.7757035 L170.808511,29.5708991 C167.803546,29.7290323 164.956738,29.5708991 161.951773,29.5708991 L161.951773,33.5242279 L171.599291,33.5242279 L171.599291,38.1100892 C166.696454,38.2682224 161.635461,38.2682224 156.416312,38.2682224 Z" id="Path"></path>
                <path d="M185.991489,17.5527797 C187.414894,17.7109128 188.996454,17.869046 190.261702,18.6597117 C191.210638,19.2922443 191.685106,20.5573095 192.001418,21.6642416 C192.31773,23.4037062 192.31773,25.1431709 192.001418,26.8826356 C191.843262,27.6733013 191.685106,28.6221002 191.052482,29.0964997 C190.261702,29.7290323 189.15461,29.8871654 188.205674,30.3615649 C189.312766,30.519698 190.419858,30.6778312 191.210638,31.6266301 C192.103755,32.6684485 192.156291,33.9904197 192.159381,35.1970339 L192.159574,38.2682224 L186.465957,38.2682224 C186.465957,36.845024 186.624113,35.4218257 186.149645,33.9986273 C185.991489,33.2079616 185.200709,32.8916953 184.409929,32.8916953 L179.98156,32.8916953 L179.98156,38.4263555 L174.446099,38.4263555 C174.287943,31.4684969 174.287943,24.5106383 174.287943,17.5527797 L185.991489,17.5527797 Z M179.98156,22.4549073 L179.98156,28.1477008 L184.726241,28.1477008 C185.358865,28.1477008 185.991489,27.9895676 186.307801,27.5151682 C186.624113,26.5663693 186.624113,25.4594372 186.624113,24.3525051 C186.624113,23.8781057 186.465957,23.5618394 186.307801,23.2455731 C185.833333,22.7711736 185.200709,22.7711736 184.726241,22.6130405 C182.986525,22.4549073 181.404965,22.4549073 179.98156,22.4549073 Z" id="Path"></path>
                <polygon id="Path" points="216.990071 17.869046 220.785816 17.869046 220.785816 18.975978 219.520567 18.975978 219.520567 22.7711736 218.255319 22.7711736 218.255319 18.975978 216.990071 18.975978 216.990071 17.869046"></polygon>
                <path d="M221.576596,17.869046 L223.632624,17.869046 C223.948936,18.8178449 224.265248,19.9247769 224.58156,20.8735758 C225.056028,19.9247769 225.214184,18.8178449 225.530496,17.869046 L227.744681,17.869046 L227.744681,22.7711736 L226.479433,22.7711736 C226.479433,21.5061084 226.637589,20.3991764 226.479433,19.1341112 C226.004965,20.3991764 225.688652,21.5061084 225.214184,22.7711736 L224.107092,22.7711736 C223.632624,21.5061084 223.316312,20.2410432 222.841844,19.1341112 C222.841844,20.3991764 223,21.5061084 223,22.7711736 L221.734752,22.7711736 C221.576596,21.1898421 221.576596,19.6085106 221.576596,17.869046 L221.576596,17.869046 Z" id="Path"></path>
            </g>
        </g>
    </g>
</svg>