<?xml version="1.0" encoding="UTF-8"?>
<svg width="135px" height="48px" viewBox="0 0 135 48" version="1.1" xmlns="http://www.w3.org/2000/svg" xmlns:xlink="http://www.w3.org/1999/xlink">
    <!-- Generator: Sketch 60.1 (88133) - https://sketch.com -->
    <title>fantasma</title>
    <desc>Created with Sketch.</desc>
    <g id="design" stroke="none" stroke-width="1" fill="none" fill-rule="evenodd">
        <g id="main" transform="translate(-759.000000, -160.000000)" fill="#FFB124">
            <g id="fantasma" transform="translate(759.000000, 160.000000)">
                <path d="M98.4112316,17.0982258 C98.7276592,17.20406 98.9231676,17.269406 99.1955721,17.3605514 C98.9585398,14.3958764 98.7020912,11.5003138 97.9383205,8.66877896 C97.9665798,8.64806409 97.9948391,8.62753753 98.0230985,8.60682266 C98.1124902,8.66181123 98.2380231,8.69608493 98.2849298,8.77517808 C98.4844752,9.11132398 98.7188161,9.44295027 98.8351215,9.8082853 C99.2939991,11.247404 99.6119646,12.7206082 99.8447676,14.2113258 C100.023743,15.3574232 100.207333,16.5027674 100.400919,17.6464167 C100.420719,17.7641148 100.494924,17.9230544 100.590852,17.9695687 C101.081257,18.2072248 101.587041,18.4141852 102.102053,18.6382825 C102.238544,18.3576901 102.131658,18.1381124 102.106282,17.9258792 C101.968831,16.7745088 101.811001,15.625775 101.668936,14.4749696 C101.42729,12.5164725 101.1991,10.5566572 100.951303,8.59891334 C100.869793,7.95543406 100.720807,7.32381874 100.413607,6.73984763 C99.9839495,5.92292836 99.3445583,5.41484902 98.3766284,5.30901485 C97.1622464,5.17606303 96.0730129,5.43142092 95.0556772,6.10371271 C92.8797092,7.54170154 90.4805503,8.03810523 87.895495,7.59612516 C87.1647896,7.47127097 86.5063666,7.12363774 85.8650529,6.76357558 C84.6975776,6.10860895 83.6629403,5.284157 82.681938,4.38682636 C81.4344907,3.24619011 80.0261383,2.34113847 78.4380412,1.72082218 C78.113924,1.59427314 77.762701,1.52101781 77.4170529,1.46395775 C75.9025838,1.21443769 74.3975345,1.26810804 72.8753758,1.49201699 C70.9777718,1.77110283 69.605945,2.79215776 68.4640376,4.20472379 C67.7354469,5.10582077 67.0999005,6.06849743 66.6873528,7.14887222 C66.4893453,7.66712068 66.3511245,8.21399334 66.247507,8.75917114 C66.0679545,9.70621747 65.9429983,10.662868 65.7830544,11.6136807 C65.6108071,12.6375603 65.4510554,13.6646414 65.2359385,14.6802352 C65.0750334,15.4395294 64.562713,15.9400761 63.7824096,16.0833853 C62.9229032,16.2413833 62.0530159,16.3588932 61.1823595,16.4396812 C58.8714389,16.6547392 56.5549433,16.8157503 54.245945,17.0475685 C52.9481308,17.1778839 51.6524311,17.3646944 50.3709573,17.6036687 C49.4055265,17.7835115 48.4831575,18.1371709 47.6055806,18.5851771 C47.4808166,18.6488282 47.3647035,18.7932674 47.1338229,18.6469451 C47.2497438,18.5369679 47.3385588,18.4202114 47.4558254,18.3463911 C48.6580962,17.5919931 49.9407235,17.0117883 51.3638784,16.8178218 C53.4796752,16.5293201 55.5998935,16.2709491 57.7214574,16.025572 C59.3877963,15.8329237 61.0441388,15.5994106 62.6504987,15.1082798 C63.0009528,15.0011274 63.3460241,14.8674223 63.6780231,14.7137556 C64.4225698,14.3693237 64.7082389,13.7143571 64.8351175,12.9733296 C65.0306259,11.8304336 65.2034499,10.6837712 65.4031876,9.54181671 C65.7501813,7.55695522 66.4205233,5.70259744 67.6916161,4.08476584 C68.7908462,2.68575864 70.1424877,1.59615631 71.7707631,0.846277896 C72.5572181,0.48414425 73.4080737,0.338010235 74.2695025,0.258163815 C75.7332201,0.122387237 77.1917473,0.181330467 78.6312427,0.46003967 C80.0442089,0.733664313 81.3047285,1.34889605 82.3885793,2.28219524 C82.7682539,2.6091136 83.1215916,2.97049398 83.4541673,3.34392665 C84.7858159,4.83841059 86.433123,5.87961545 88.2772842,6.66263765 C89.5414564,7.1995295 90.7716021,7.00367979 92.0069383,6.59955145 C93.0461893,6.25963921 94.0087365,5.75871591 94.9624407,5.23820765 C95.9872737,4.67871775 97.0876572,4.40000855 98.2622454,4.34257186 C99.4697067,4.28344031 100.355742,4.8318195 101.096829,5.6799994 C101.565126,6.21632629 101.817922,6.85208458 101.974598,7.54414966 C102.402717,9.43504095 102.588613,11.3492836 102.640134,13.2802864 C102.664164,14.1834548 102.660511,15.0888831 102.728564,15.9888502 C102.797771,16.9036943 102.939452,17.8132656 103.050951,18.7250966 C103.069214,18.8740554 103.077673,19.028852 103.257417,19.0966461 C103.509829,19.1915579 103.567501,19.4182916 103.613831,19.6405057 C103.825103,20.6581709 104.029262,21.6773427 104.237843,22.6957612 C104.470646,23.8318778 104.705948,24.9678061 104.93952,26.1039228 C105.221729,27.4767539 105.503938,28.8493967 105.784608,30.2224162 C106.071815,31.6248131 106.357292,33.0273983 106.643154,34.4299836 C106.745618,34.9318485 106.844429,35.4342783 106.949969,35.9355782 C106.978997,36.0739912 107.025904,36.2090145 107.064737,36.3457327 C107.09934,36.3498757 107.134135,36.3543953 107.168931,36.3587266 C107.22718,36.2658863 107.304845,36.1796371 107.340794,36.0790758 C107.723929,35.0156495 108.150894,33.9642756 108.46713,32.881641 C108.990984,31.0882979 109.477545,29.2825259 109.914507,27.4669614 C110.375883,25.5480109 110.7669,23.6124885 111.176564,21.6818623 C111.38303,20.7092048 111.566428,19.7320278 111.751171,18.7552273 C111.79231,18.536403 111.910538,18.4526019 112.127193,18.4443159 C113.355608,18.397425 114.584024,18.3435663 115.812824,18.2968637 C115.926245,18.2925324 116.041205,18.3205916 116.182502,18.3369752 C116.163854,18.4527902 116.167699,18.5301885 116.138671,18.5927098 C115.628657,19.6858901 115.378168,20.8479945 115.200923,22.0262941 C114.770881,24.8868298 114.788567,27.7590411 114.971003,30.636902 C115.124411,33.0588473 115.361059,35.47213 115.749,37.8686525 C116.001411,39.4294241 116.272278,40.9885007 116.584861,42.5387265 C116.763067,43.4226867 117.042777,44.2866852 117.272312,45.1606645 C117.296919,45.2546347 117.292689,45.355761 117.306723,45.5062263 C115.570793,45.3774174 113.888883,45.182321 112.196591,44.9989002 C112.196591,44.8373242 112.182366,44.7326199 112.198898,44.6328119 C112.487451,42.8886196 112.609331,41.1319983 112.594913,39.3669028 C112.586455,38.3433997 112.574536,37.3185785 112.511289,36.2975235 C112.429394,34.97196 112.173715,33.6703127 111.815763,32.3890036 C111.726372,32.0698062 111.637749,31.7502322 111.53913,31.4336713 C111.50568,31.325954 111.443009,31.2272759 111.341314,31.0156075 C111.068333,31.6184103 111.016428,32.1673545 110.866673,32.6856029 C110.711919,33.2209882 110.58408,33.7639062 110.446628,34.3039995 C110.309368,34.844281 110.174031,35.3851275 110.038886,35.925974 C109.903934,36.4668206 109.770134,37.0080437 109.636527,37.5490785 C109.499075,38.1046138 109.364123,38.6609023 109.224556,39.2160609 C109.088835,39.756719 108.949268,40.296624 108.810855,40.8367172 C108.67225,41.3768104 108.534221,41.9169037 108.393694,42.4566203 C108.253166,42.9959603 108.114369,43.5358652 107.966728,44.0735103 C107.822356,44.5994798 107.727773,45.1440926 107.47863,45.6335286 L107.348483,45.6399314 C107.285428,45.5337205 107.199112,45.4346658 107.162587,45.3203574 C106.669683,43.7690017 106.186967,42.2146329 105.695217,40.6629006 C105.148293,38.9386699 104.59368,37.216699 104.044449,35.4934098 C103.660161,34.2868626 103.279525,33.0791855 102.894275,31.873015 C102.878319,31.8229226 102.831221,31.7826228 102.74875,31.668691 C102.708764,31.8500403 102.66724,31.9583226 102.663395,32.0677348 C102.54459,35.5467036 102.546897,39.0251074 102.786621,42.4997449 C102.873513,43.7616573 103.012695,45.0196151 103.295289,46.2572346 C103.341619,46.4591104 103.401598,46.6579732 103.473303,46.9261367 C101.946339,46.9816902 100.465319,47.0359255 98.9222064,47.092044 C98.9168236,46.9078699 98.8956772,46.7508135 98.9100952,46.5969585 C99.1327095,44.2422424 99.3903115,41.890351 99.578707,39.5333751 C99.8382314,36.2898025 100.04835,33.0428403 100.058539,29.7864623 C100.065459,27.6469925 100.045274,25.5099709 99.8316952,23.3772805 C99.637148,21.4347904 99.2470925,19.5382496 98.5705988,17.700087 C98.5106199,17.5371928 98.4804381,17.3639411 98.4112316,17.0982258" id="Path"></path>
                <path d="M92.7765723,20.6461751 C92.7861843,20.4766898 92.8079075,20.3320623 92.8004101,20.1889414 C92.702752,18.3093491 92.6533463,16.4250489 92.4830214,14.5516711 C92.3561428,13.1601966 92.0714349,11.7822809 91.8561258,10.3985274 C91.8353638,10.2648223 91.792302,10.1330004 91.7855736,9.99891863 C91.7765383,9.81851092 91.7984537,9.64017469 92.05471,9.54582786 C92.1510224,9.79120495 92.2465658,10.0226466 92.3334584,10.2572896 C93.2542895,12.7468407 93.8089027,15.3173682 94.0930339,17.9470272 C94.1949213,18.8903072 94.3014224,19.8333988 94.3894684,20.7779971 C94.4181122,21.086272 94.4975075,21.2926675 94.8293142,21.4342819 C95.408342,21.6815422 95.9191245,22.0512085 96.3508962,22.5131502 C96.9268482,23.1293235 97.2188612,23.8475646 97.1950234,24.6910366 C97.1702244,25.5670874 96.9870194,26.3975655 96.4731611,27.1280473 C95.9327736,27.8960041 95.2012992,28.331958 94.2197203,28.30936 C92.8903786,28.2788526 92.0320256,26.9408601 92.595482,25.764632 C92.7258209,25.4921372 92.8846114,25.2318831 93.0014935,24.9541155 C93.2687075,24.3196754 93.1449047,23.839467 92.5316582,23.53477 C91.4531901,22.9993847 90.3007095,22.8033467 89.150728,23.2760224 C88.2335495,23.6528448 87.6616346,24.3671313 87.4743926,25.3458149 C87.3440537,26.0267693 87.4144136,26.7020741 87.6024246,27.3574174 C87.8807886,28.32838 88.5549753,28.9869247 89.447547,29.4501846 C90.2528417,29.8682484 91.1225368,30.1172035 91.9860802,30.3840487 C93.2156492,30.7640725 94.4557913,31.119615 95.5436792,31.8361613 C96.6158034,32.5423502 97.3499691,33.4893965 97.7431005,34.6991451 C98.2702234,36.3214963 98.3136697,37.957783 97.8845893,39.5984009 C97.5268301,40.9670891 96.8224617,42.165727 95.8193518,43.1773661 C93.8713808,45.1415127 91.4885623,46.2380827 88.6962719,46.3458001 C86.7402269,46.4211269 85.0056427,45.7590042 83.5999816,44.3976604 C82.4094374,43.2445952 81.9705528,41.8098078 82.089934,40.1927295 C82.1476061,39.4117787 82.3594549,38.6839334 82.8225618,38.0351813 C83.5434629,37.0254254 84.8141713,36.5728995 86.0327826,36.8819278 C86.7490699,37.0634654 87.3728897,37.3879356 87.8938609,37.9095738 C88.7773973,38.7944755 88.7212632,40.1859501 88.2379711,41.0213244 C87.8852101,41.6310949 87.3132952,41.8241199 86.6189233,41.6051072 C86.5247255,41.5753531 86.4241838,41.5655606 86.2846174,41.5382546 C86.3080707,42.2210922 86.5427961,42.7807704 86.9288146,43.2764208 C87.7233438,44.2965342 88.79393,44.7129031 90.0855926,44.5920036 C92.4347691,44.3722376 94.0340161,42.4233447 94.0540091,40.3268112 C94.0657358,39.0856137 93.8473508,37.9010995 93.1089558,36.8502905 C92.5514589,36.0567226 91.7969157,35.4876285 90.9201077,35.1008253 C89.9565993,34.6757938 88.9519515,34.3407778 87.9711415,33.9522798 C87.2177518,33.6537973 86.4510975,33.376218 85.7298119,33.0135194 C84.1855455,32.2374649 83.3354589,30.9851567 83.239531,29.2709067 C83.141104,27.512214 83.3748682,25.8126528 84.2339901,24.2371926 C85.1319445,22.5907368 86.5070394,21.5037709 88.3164051,20.9286507 C89.6586269,20.5019243 91.0231485,20.4060709 92.4140071,20.6198107 C92.5162789,20.6354411 92.6206654,20.6352527 92.7765723,20.6461751" id="Path"></path>
                <path d="M127.996726,29.133134 L127.873115,29.133134 C127.873115,27.8699034 127.878113,26.6068611 127.870231,25.3436304 C127.867732,24.9641716 127.815635,24.9163391 127.44019,24.9428918 C126.996884,24.9741524 126.553962,25.025563 126.113347,25.0858244 C125.59699,25.156255 125.081401,25.237043 124.568504,25.3295067 C124.114433,25.4114246 124.065988,25.4795953 124.06791,25.9238352 C124.070025,26.3601658 124.075792,26.796308 124.079829,27.2324502 C124.098477,29.2175 124.114433,31.2027381 124.137501,33.187788 C124.140577,33.4636724 124.373188,33.6734576 124.653859,33.6516128 C125.612561,33.5772276 126.569726,33.4813742 127.525929,33.3785531 C127.974426,33.3305323 127.996726,33.2855245 127.996726,32.832622 L127.996726,29.133134 Z M121.073768,25.0244331 C120.666218,25.0779151 120.29135,25.1270658 119.872074,25.1822427 C119.824975,25.0312125 119.767495,24.8952476 119.740966,24.7538215 C119.567373,23.8363409 119.395126,22.9184837 119.234413,21.9987434 C119.163668,21.594615 119.176164,21.5629778 119.59371,21.4806832 C120.512042,21.2995222 121.433449,21.1304135 122.357741,20.9805132 C123.797813,20.7466234 125.241153,20.5317537 126.68334,20.3104812 C128.429074,20.0426944 130.175193,19.7762258 131.921311,19.5110754 C131.964181,19.5046726 132.010511,19.5208679 132.105477,19.5329202 C132.145079,19.6557029 132.206404,19.7907262 132.230818,19.9317757 C132.35193,20.6291136 132.468427,21.3272048 132.575505,22.0268026 C132.619336,22.3122912 132.554359,22.3851699 132.248889,22.464828 C131.863447,22.5655776 131.478774,22.6693403 131.091794,22.7631222 C130.844766,22.823007 130.755951,22.9510626 130.757488,23.2128232 C130.772675,25.683731 130.90263,28.1484243 131.132357,30.6084096 C131.268271,32.0624054 131.385922,33.5192259 131.573164,34.9670072 C131.767711,36.4741084 132.00955,37.97669 132.280608,39.4724922 C132.503223,40.7010725 132.758326,41.9272046 133.074176,43.1354467 C133.366958,44.2553681 133.759513,45.3502433 134.107852,46.4560409 C134.129576,46.5249649 134.151299,46.5937006 134.190708,46.7193081 C132.882897,47.0637399 131.582776,47.3253123 130.229789,47.6239831 C130.164619,47.3490402 130.091953,47.108936 130.051967,46.8637472 C129.728618,44.8875483 129.410076,42.9104078 129.093072,40.933079 C128.935819,39.951759 128.785487,38.9691207 128.631695,37.9872358 C128.561143,37.5375347 128.516543,37.5153133 128.064779,37.5900751 C126.913644,37.7808403 125.760394,37.9603064 124.608682,38.1480585 C123.91681,38.2606721 123.902776,38.2610487 123.767823,38.9137555 C123.530022,40.0636193 123.312214,41.2176261 123.085178,42.369938 C122.869869,43.4633066 122.652445,44.556487 122.437713,45.650044 C122.31564,46.2707369 122.199335,46.8925597 122.075724,47.512876 C121.995176,47.9170044 121.906937,47.9473234 121.509,47.8058973 C120.687173,47.5138176 119.859194,47.2383098 119.032945,46.9582824 C118.605979,46.8136549 118.602134,46.7656341 118.720554,46.3358946 C118.972774,45.4216154 119.232682,44.5069596 119.422424,43.5791216 C119.697135,42.2371745 119.932053,40.886753 120.146977,39.5342601 C120.319225,38.4489891 120.46898,37.3582569 120.572021,36.2648882 C120.769644,34.1666599 120.96842,32.066925 121.087994,29.9634238 C121.173925,28.4467184 121.133555,26.923422 121.144128,25.4029503 C121.145089,25.2892068 121.103181,25.175275 121.073768,25.0244331 L121.073768,25.0244331 Z" id="Path"></path>
                <path d="M23.3040421,29.133134 L23.2054228,29.133134 C23.2054228,28.7871956 23.210421,28.4410689 23.2044616,28.0951305 C23.1885056,27.1620197 23.1696661,26.2290971 23.1481352,25.2961745 C23.1404456,24.9543791 23.0994984,24.8916696 22.788838,24.9300862 C21.768811,25.0566353 20.7497452,25.1937301 19.7347164,25.3539879 C19.384839,25.4093531 19.3423539,25.5035116 19.3461987,25.8554761 C19.3535039,26.5174105 19.3684986,27.1795331 19.376765,27.8416558 C19.3992571,29.6327391 19.4190578,31.4240107 19.4413577,33.2149056 C19.4488551,33.8120589 19.5126788,33.6463399 20.7161031,33.5751561 C21.2422648,33.5440838 21.7680421,33.4896601 22.2907434,33.4239375 C23.2873171,33.29833 23.30558,33.4197945 23.3046464,32.7900624 C23.3028886,31.5710863 23.3040421,30.3521101 23.3040421,29.133134 M17.3186403,47.9026923 C17.1315905,47.8791526 16.9910628,47.8842372 16.8670678,47.8424308 C16.0114063,47.5537408 15.159205,47.2552583 14.3058503,46.9601655 C13.9363645,46.8322983 13.9227154,46.8130899 14.0386363,46.4411638 C14.5959409,44.6510221 14.9569682,42.8185091 15.239177,40.9718723 C15.5075444,39.2152511 15.7628395,37.4556168 15.9696901,35.6912745 C16.2665091,33.1618002 16.4397176,30.6214035 16.4862398,28.0747923 C16.502388,27.2019429 16.4793191,26.3281519 16.4637477,25.4549258 C16.4570193,25.0743371 16.4037687,25.0381802 16.0279389,25.0860127 C15.8754924,25.1054094 15.7241992,25.1327154 15.5725217,25.1571966 C15.2064961,25.2159515 15.1328681,25.1737685 15.0675064,24.825382 C14.9204426,24.0406649 14.7806839,23.254253 14.6388105,22.468406 C14.588828,22.191015 14.5411524,21.9128708 14.4829036,21.579738 C14.8652696,21.494807 15.2028436,21.4034732 15.546377,21.3462249 C17.2434743,21.0643143 18.940764,20.7837219 20.6403605,20.5174416 C22.2034663,20.2724412 23.7698403,20.0475906 25.3342919,19.8114411 C25.8962103,19.7265101 26.456783,19.6336698 27.0181247,19.5453491 C27.4535489,19.47699 27.4737342,19.4958217 27.5465932,19.9317757 C27.6557857,20.5854241 27.773629,21.2377542 27.8830138,21.8914027 C27.9581797,22.3416687 27.9322273,22.372741 27.4889212,22.4810233 C27.1757617,22.55748 26.863179,22.6360082 26.5525186,22.7207508 C26.0957557,22.8452284 26.0601912,22.880632 26.0794153,23.3425737 C26.1580416,25.2232958 26.2278248,27.104583 26.3325957,28.9837986 C26.4827354,31.6772971 26.7843605,34.3576133 27.1811444,37.0258773 C27.5781207,39.693953 28.0996686,42.3394306 28.9034253,44.9237052 C29.0464521,45.3833871 29.2286959,45.8315816 29.3897932,46.2859906 C29.4332395,46.4083967 29.4649592,46.5347574 29.5172486,46.7098922 C29.0258824,46.824389 28.5821917,46.9296582 28.1375399,47.0311611 C27.4193302,47.1949969 26.7026583,47.3654238 25.981565,47.5151358 C25.5494088,47.6047747 25.5090383,47.5659814 25.441562,47.1413265 C25.1647359,45.4009005 24.8942538,43.659533 24.6133907,41.9196719 C24.3973126,40.5814911 24.1721992,39.2444402 23.9442023,37.9081426 C23.8790328,37.5260473 23.8377011,37.4985531 23.4661006,37.5578729 C22.2071189,37.7589955 20.9504441,37.9740536 19.6901166,38.1663252 C19.3486979,38.2184891 19.187216,38.3740389 19.127237,38.7073601 C18.924808,39.8336842 18.7041161,40.9571836 18.4818864,42.0801181 C18.1952561,43.528276 17.8997827,44.9751157 17.6091154,46.4227087 C17.5147254,46.8936896 17.4241802,47.3652355 17.3186403,47.9026923" id="Path"></path>
                <path d="M75.7928723,24.9657911 C75.6131276,24.9533622 75.5056653,24.9279394 75.4033934,24.9414982 C74.4000913,25.0735085 73.395828,25.2002458 72.3959862,25.3546658 C72.0007401,25.4156805 71.9592162,25.5066376 71.9640222,25.9113309 C71.9797859,27.1894386 71.9947807,28.4675463 72.0109289,29.745654 C72.0255391,30.9188691 72.0391882,32.0918958 72.0580277,33.2651109 C72.0634105,33.6087895 72.1308868,33.6914607 72.4544272,33.6639664 C73.4936783,33.5760223 74.5321604,33.4758377 75.5691046,33.3645423 C75.8738055,33.3317752 75.9243647,33.2573899 75.9284017,32.9461019 C75.9341689,32.4952709 75.9289784,32.0440633 75.9189819,31.5932323 C75.8788037,29.7435825 75.8340117,27.8939326 75.7938335,26.0442828 C75.7865284,25.7009808 75.7928723,25.3576789 75.7928723,24.9657911 M82.159871,46.7196094 C80.8032312,47.0222348 79.5090695,47.3109248 78.1560823,47.6129854 C78.0772638,47.1649791 78.0063271,46.7843904 77.943849,46.4022952 C77.6235767,44.4396551 77.3048423,42.4768267 76.987069,40.51381 C76.8451957,39.636441 76.7071672,38.758507 76.566255,37.8811379 C76.5108898,37.5376477 76.4714806,37.5024324 76.1133369,37.5585509 C74.8539707,37.7562837 73.5946045,37.9558998 72.3373529,38.1662499 C71.8459867,38.2483561 71.8392583,38.2841364 71.7479441,38.7679228 C71.5410936,39.863363 71.323862,40.9571083 71.1097063,42.0512302 C70.7452187,43.9140623 70.3801544,45.7768943 70.0139366,47.6393497 C69.9999031,47.7107219 69.9712593,47.779081 69.9358871,47.8928245 C69.7776733,47.8745577 69.6233043,47.8826553 69.4875827,47.8372709 C68.6309599,47.5502758 67.7787586,47.2508517 66.924635,46.9567005 C66.5632232,46.8320346 66.5595707,46.7926764 66.6604968,46.4352507 C66.889455,45.6234159 67.1262951,44.8121462 67.3077699,43.9895774 C67.8016352,41.7512412 68.1520893,39.4876705 68.4279541,37.2150606 C68.7803306,34.3129069 69.0617704,31.4039737 69.0963737,28.478092 C69.1079081,27.4994084 69.0938745,26.5203482 69.0909909,25.5414763 C69.0907987,25.4512724 69.0929133,25.360127 69.0829168,25.2708647 C69.0644618,25.1075939 68.9725709,25.0294423 68.8001314,25.0588198 C68.5730956,25.0976131 68.3464443,25.1392311 68.1188317,25.1740698 C67.8387376,25.2170061 67.7791431,25.1881936 67.7287762,24.9317058 C67.534229,23.9411582 67.3439111,22.949669 67.161475,21.95705 C67.1007271,21.6273069 67.1349459,21.5661038 67.4913594,21.4952966 C68.4098836,21.313194 69.3305224,21.1376826 70.2548137,20.9868406 C71.6495171,20.7591653 73.0476808,20.5522049 74.4450755,20.3407249 C76.0247141,20.101374 77.6051216,19.8671076 79.1849524,19.6294515 C79.3671962,19.6019572 79.5475176,19.5610924 79.7299536,19.5360462 C80.0521484,19.4917917 80.1140498,19.5285136 80.1705684,19.8356586 C80.2553464,20.2949639 80.3251296,20.7569055 80.401449,21.2177173 C80.4408583,21.4551851 80.4771917,21.6935944 80.5217914,21.9301206 C80.5969574,22.3291644 80.5711972,22.3721007 80.1844097,22.4675774 C79.8418375,22.5521318 79.4979196,22.6325432 79.1580387,22.726325 C78.7197309,22.8472246 78.6891647,22.8734006 78.7066585,23.3176405 C78.7831702,25.2586241 78.8491086,27.2005493 78.9604157,29.1400264 C79.0344282,30.4322579 79.1395837,31.7254309 79.3004888,33.009753 C79.5565529,35.0563825 79.8491426,37.0994339 80.1667236,39.1379658 C80.4404738,40.8947754 80.8339897,42.6295518 81.3555376,44.333256 C81.5625804,45.0100674 81.8073023,45.6759564 82.0347226,46.34693 C82.0677879,46.4441016 82.1000843,46.5414615 82.159871,46.7196094" id="Path"></path>
                <path d="M34.2124488,44.7604155 C33.7654901,44.6540164 33.379856,44.566449 32.9965289,44.4700306 C32.0447471,44.2304914 31.0937344,43.9875624 30.1427216,43.7448218 C29.8424423,43.668365 29.7989959,43.619026 29.847056,43.2947441 C29.9108798,42.8627448 30.0016172,42.4347002 30.0752453,42.0040191 C30.3687962,40.2822366 30.695028,38.5647852 30.9443637,36.8365999 C31.3017384,34.3613608 31.5370405,31.8738812 31.6477709,29.3734077 C31.7523496,27.0068276 31.6658415,24.6475919 31.5116648,22.2877912 C31.4905183,21.9640742 31.522238,21.9179365 31.8565439,21.9156767 C32.8096713,21.9094623 33.7627987,21.9100272 34.7159261,21.91643 C35.0659957,21.9188781 35.1100187,21.9567298 35.1836468,22.2883561 C35.6884698,24.5636025 36.5545123,26.7160661 37.4888002,28.846685 C38.4482715,31.0345522 39.5257784,33.1630996 40.7903351,35.1967352 C41.1815441,35.8259024 41.6252347,36.4239973 42.0504703,37.0324496 C42.1244828,37.1379071 42.2271391,37.2241563 42.3259506,37.3290489 C42.5162685,37.1644598 42.4509068,36.9891367 42.4484077,36.8364116 C42.4111131,34.5025986 42.3695892,32.1687857 42.3267196,29.8349727 C42.2677018,26.6130567 42.2069539,23.3911406 42.1471672,20.1692246 C42.1452448,20.0637671 42.1465904,19.9584978 42.1471672,19.8530403 C42.1477439,19.6792237 42.2336753,19.5649152 42.4059226,19.5268752 C43.3484768,19.3185966 44.2837259,19.0617321 45.2637669,19.0897914 C45.2776082,19.090168 45.2908728,19.101467 45.361425,19.1340459 C45.361425,19.2786734 45.371806,19.4509834 45.3596948,19.6215987 C45.2581919,21.0481002 45.1047842,22.4727185 45.0573008,23.9007265 C44.945417,27.2731079 44.9569514,30.6462425 45.1403486,34.0173056 C45.2539627,36.1074363 45.3466225,38.1985086 45.4590831,40.2886393 C45.5440533,41.867301 45.6457484,43.4450211 45.7393694,45.0233061 C45.753403,45.2617154 45.7645529,45.5005014 45.7785864,45.7647102 C45.6490165,45.7922045 45.5498205,45.8309978 45.45024,45.8317511 C44.7429879,45.837024 44.0357359,45.8253483 43.328676,45.8396607 C43.061462,45.844745 42.9113224,45.7394757 42.7786765,45.5208397 C40.2195737,41.3023499 37.6539346,37.0874382 35.0896413,32.8719615 C34.9898685,32.707749 34.8893269,32.5437249 34.7266916,32.2772563 C34.5898165,32.7382564 34.6401834,33.1101825 34.6025043,33.4687381 C34.5634795,33.8429241 34.5379116,34.2186165 34.5113824,34.5941207 C34.4848533,34.9696248 34.4673594,35.345694 34.4404458,35.7211981 C34.4131476,36.0967023 34.3779677,36.4716415 34.3481704,36.8469573 C34.3183732,37.2222731 34.2881914,37.597589 34.2633924,37.9730931 C34.2397469,38.3339086 34.2235987,38.6949123 34.20226,39.0557277 C34.1801524,39.4316085 34.147856,39.8069244 34.1345914,40.1829935 C34.1213269,40.5590626 34.1215191,40.9356966 34.1242105,41.3121424 C34.1269018,41.6885881 34.1345914,42.0650339 34.1493939,42.441103 C34.1643887,42.8169838 34.1991842,43.1922996 34.2101419,43.5683687 C34.2207151,43.9389766 34.2124488,44.3099612 34.2124488,44.7604155" id="Path"></path>
                <path d="M47.6185952,20.3248121 C48.4982869,20.3717031 49.3241512,20.4594588 50.1488621,20.4504196 C51.6389166,20.4338477 53.1310859,20.3982558 54.6174879,20.2986361 C56.1957807,20.1929902 57.7736891,20.0436548 59.3417932,19.8398958 C60.9852556,19.6263443 62.6187214,19.3350178 64.252764,19.0557437 C64.638398,18.990021 65.0082683,18.836731 65.4369642,18.7082987 C65.4671459,18.8621538 65.5077086,18.9862547 65.5140526,19.1120505 C65.5621126,20.0745388 65.6059434,21.0372154 65.6461217,22.0000804 C65.6628466,22.3987476 65.6422768,22.4311381 65.2403024,22.5049584 C64.2285417,22.690639 63.2144741,22.863514 62.2021367,23.0459932 C60.903169,23.2798829 59.5997797,23.4968242 58.3519479,23.9399341 C57.928827,24.0900228 57.9215219,24.0979321 57.9305572,24.5615686 C57.9699665,26.5936977 57.9699665,28.6278982 58.0708926,30.6572025 C58.1898894,33.0475106 58.3682884,35.4361238 58.5772536,37.820594 C58.7493086,39.7858705 59.0517026,41.7383415 59.4813597,43.6667079 C59.6641802,44.4881467 59.9358158,45.2905656 60.1686188,46.1010821 C60.2176401,46.2713207 60.2733897,46.4396761 60.3391359,46.6511561 C60.1772696,46.6762023 60.0630788,46.7087811 59.9486959,46.7091578 C58.687984,46.7127358 57.4270798,46.7133008 56.166368,46.7102877 C55.7411324,46.7091578 55.7067214,46.6737542 55.6996085,46.2345989 C55.6874974,45.4817074 55.6826914,44.7288159 55.6750018,43.9757361 C55.6488571,41.4308198 55.6550088,38.8851502 55.5879169,36.3411754 C55.5165957,33.6454172 55.3137822,30.955685 54.8103049,28.29985 C54.6142198,27.2661778 54.3206688,26.2502074 54.0611444,25.2287759 C53.9859785,24.9334948 53.9196556,24.8909351 53.5993832,24.927092 C53.0347735,24.9909315 52.4718939,25.0713428 51.9093987,25.1519425 C50.8299695,25.3071158 49.7513091,25.4675619 48.6720721,25.6251832 C48.5657632,25.6408135 48.4586854,25.6517359 48.3517997,25.6647298 C48.1337992,25.6916591 47.9976931,25.6140725 47.9611675,25.3882804 C47.6977982,23.7647993 47.5053657,22.1362336 47.5738033,20.4878947 C47.5761101,20.4312112 47.603985,20.375846 47.6185952,20.3248121" id="Path"></path>
                <path d="M9.18649111,29.2851247 C9.08652616,31.1392941 8.99136721,32.9025065 8.89197897,34.7433054 C8.75241252,34.6502768 8.67244055,34.6173213 8.62130463,34.5598847 C7.86330113,33.705302 6.91036596,33.4339371 5.79402653,33.643534 C5.46202753,33.7058669 5.12868285,33.7621737 4.79899074,33.8348641 C4.45276596,33.9111325 4.41643254,33.9561403 4.40989637,34.2856951 C4.36952591,36.3517212 4.45891765,38.4081431 4.79360801,40.4542077 C5.12541477,42.4825704 5.62831539,44.4638538 6.34517947,46.3937268 C6.39112491,46.5178277 6.41246358,46.6505912 6.45667885,46.8240312 C6.31365207,46.8535969 6.20099925,46.8967215 6.08815419,46.8970982 C4.64269937,46.9014295 3.1974368,46.9016178 1.75217422,46.8974748 C1.40345031,46.8965332 1.36288761,46.8556684 1.37903579,46.4918399 C1.42690363,45.4084521 1.49341877,44.3260058 1.53705732,43.2424296 C1.69296421,39.3738329 1.75313542,35.5048595 1.57204506,31.6351329 C1.4443975,28.9103738 1.22101427,26.194089 0.762905632,23.5022854 C0.5762403,22.404962 0.312871089,21.3200676 0.0867964956,20.2291471 C0.0543078849,20.0730323 0.0350838548,19.914281 -9.61201502e-05,19.6947033 C0.194835544,19.6947033 0.32671239,19.690937 0.458396996,19.6952683 C1.92461377,19.7427242 3.37910388,19.6231429 4.8155234,19.344622 C6.71331965,18.9766505 8.6020806,18.5634829 10.5002613,18.1972063 C11.448775,18.0141622 12.4090153,17.8904379 13.3644496,17.7441156 C13.4851765,17.7257301 13.6109016,17.7211409 13.7325897,17.7303684 C13.9663539,17.7478819 14.0205657,17.8160527 13.9851935,18.0538971 C13.7385492,19.7116519 13.3488781,21.3349447 12.7475504,22.9060736 C12.5939504,23.3075655 12.5701126,23.3152865 12.2081242,23.0753706 C10.7209532,22.0902843 9.07691414,21.8878435 7.35271089,22.1844428 C6.62892616,22.3089203 5.92167409,22.5269915 5.20788586,22.706081 C4.88088511,22.7881872 4.71709637,22.9717963 4.64865882,23.3260206 C4.37356295,24.7513922 4.20419925,26.1865563 4.20631389,27.6345259 C4.20746733,28.3680207 4.28109537,29.1066001 4.39028786,29.8331272 C4.46891414,30.3560836 4.53619825,30.3542004 5.05947635,30.3796232 C6.40285156,30.4451576 7.65068335,30.1489349 8.79912691,29.4579997 C8.88659625,29.4054593 8.98733016,29.3730687 9.18649111,29.2851247" id="Path"></path>
                <path d="M76.0637773,18.9129805 C74.9001468,18.8947138 73.8310985,18.5536716 72.8191455,18.0094354 C71.550744,17.3273511 70.4784276,16.4087407 69.5133813,15.3662176 C69.069883,14.8873274 68.6596422,14.3786831 68.2420962,13.8771949 C68.0350534,13.6284281 67.9033688,13.3429394 67.8637673,13.0182809 C67.799559,12.4924997 68.0337077,12.1049433 68.5356472,11.9186978 C68.9193588,11.7765184 69.3132592,11.7618297 69.7165793,11.808344 C70.891552,11.9435556 72.067486,12.0716112 73.2426509,12.2053163 C74.2976657,12.3252742 75.2604051,12.0940209 76.1108762,11.4663602 C77.5342234,10.4157395 78.948343,9.35306655 80.371498,8.30225753 C81.0337658,7.8131982 81.7067991,7.33807434 82.3784867,6.86106731 C82.4894094,6.78216247 82.6120587,6.71342675 82.738745,6.66239284 C83.1401428,6.50025188 83.4288877,6.61493695 83.5992126,7.00155181 C83.641121,7.09665191 83.6688036,7.20210944 83.6795691,7.30511886 C83.7568497,8.04953608 83.6939871,8.77173188 83.3777518,9.46906984 C82.1852852,12.0989171 80.801155,14.6317812 79.3476261,17.1290533 C78.6255716,18.3691209 77.5130769,18.9436762 76.0637773,18.9129805" id="Path"></path>
                <path d="M119.264248,9.43856248 C119.255982,9.60051513 119.243102,9.76246777 119.240603,9.92442042 C119.22234,11.0554525 119.278666,12.1827182 119.435342,13.3041461 C119.449952,13.4086621 119.463986,13.5135547 119.469561,13.6184473 C119.479557,13.7990433 119.396125,13.9088321 119.203885,13.9109036 C118.867657,13.9146699 118.531428,13.9118452 118.140219,13.9118452 C118.134644,13.7346389 118.114267,13.5762642 118.126955,13.4203377 C118.21923,12.2945785 118.341879,11.1705142 118.409548,10.0432485 C118.494326,8.62955252 118.547,7.21227856 118.282285,5.80799848 C118.210964,5.42929293 118.097734,5.05830839 117.991425,4.63534834 C118.116766,4.65549826 118.205773,4.65342678 118.280362,4.68431077 C118.591407,4.81311962 118.892648,4.96490314 119.20773,5.08241297 C119.470714,5.18052614 119.575485,5.35302454 119.627006,5.61704501 C119.909022,7.0655796 120.207956,8.51110111 120.504006,9.95718758 C120.53265,10.0965422 120.581479,10.2317538 120.651454,10.4763776 C120.749112,10.2837293 120.805054,10.2023764 120.833314,10.1125491 C121.293921,8.66005988 121.722041,7.19947301 121.969262,5.69425499 C121.996175,5.53098413 122.017514,5.3614988 122.080953,5.2110335 C122.12017,5.1181932 122.230708,4.99616377 122.316255,4.99032594 C122.678628,4.96584473 123.043693,4.9799685 123.458163,4.9799685 C123.389533,5.24022264 123.33609,5.4377672 123.285339,5.63625335 C123.00486,6.73376499 123.043308,7.85180319 123.113476,8.96306198 C123.196331,10.2703588 123.386265,11.5678631 123.683661,12.8474773 C123.723647,13.0195991 123.774398,13.1894611 123.83034,13.398493 C123.698463,13.4161948 123.599652,13.4446306 123.50257,13.4395461 C123.241508,13.4256106 122.98083,13.4028243 122.721306,13.3736351 C122.278768,13.3235428 122.271463,13.2984966 122.299915,12.8706403 C122.377195,11.7123023 122.445633,10.5530227 122.139394,9.41144483 C122.118056,9.33141009 122.0798,9.25551833 121.961956,9.16776259 C121.914858,9.2828243 121.853341,9.39468461 121.823159,9.51388929 C121.597661,10.4050055 121.378699,11.2976282 121.157046,12.189686 C121.080727,12.4966427 121.008637,12.8049177 120.92136,13.1088614 C120.895407,13.1994419 120.824086,13.2775934 120.712971,13.4619558 C120.224296,12.0580524 119.838855,10.7289108 119.394011,9.42010741 C119.350564,9.42632187 119.307502,9.43234802 119.264248,9.43856248" id="Path"></path>
                <path d="M112.712872,10.0061688 C112.743823,10.4247976 112.785539,10.7944639 112.7865,11.1641302 C112.786692,11.2341842 112.636168,11.3405833 112.53678,11.3690192 C111.943334,11.5386928 111.928339,11.5336083 111.971401,12.1443204 C112.014463,12.7597404 112.089821,13.3729007 112.146916,13.9875675 C112.15749,14.1028175 112.148262,14.2197624 112.148262,14.3338825 C111.565774,14.3696627 111.345082,14.1832289 111.344121,13.6828705 C111.343736,13.4450261 111.344121,13.20737 111.264341,12.9367584 C111.200133,13.0215011 111.125736,13.1005943 111.073447,13.191928 C110.86179,13.5597112 110.553437,13.8235433 110.166649,13.9964184 C109.440557,14.3214536 108.786556,14.1679752 108.2008,13.6751495 C107.683097,13.2395722 107.370322,12.6672768 107.177697,12.040746 C106.649228,10.3225414 106.825897,8.6455783 107.580056,7.02793502 C107.898598,6.34490916 108.366895,5.76131469 109.105675,5.46377378 C110.405412,4.94006413 111.673044,5.45774764 111.976976,6.7998831 C112.114236,7.40607562 112.096742,7.99475465 111.921611,8.58343368 C111.824529,8.90884551 111.646515,9.18774303 111.36123,9.39018384 C110.883898,9.72858954 110.091099,9.57059155 109.964412,8.92428751 C109.915968,8.67702725 109.889246,8.41601985 109.914622,8.16744137 C109.945573,7.86406263 110.183374,7.67762877 110.433286,7.69062265 C110.686082,7.70361652 110.904275,7.90699892 110.958295,8.18194178 C110.980979,8.29794507 111.000203,8.41470163 111.023464,8.53070492 C111.025002,8.53729601 111.049801,8.53955582 111.12862,8.56384871 C111.163031,8.43259174 111.239542,8.29530863 111.224932,8.16800632 C111.187061,7.84315944 111.15611,7.50513038 111.038267,7.20401145 C110.685698,6.30347941 109.761791,6.26751086 109.120477,6.80572093 C108.642952,7.20645957 108.432257,7.75804015 108.29346,8.33598511 C107.97857,9.64497678 108.05835,10.939468 108.512998,12.2038286 C108.622959,12.5092788 108.795976,12.8115276 109.008209,13.0593528 C109.38154,13.49606 109.919044,13.4288308 110.241815,12.9552135 C110.448281,12.6518348 110.467313,12.3051431 110.500571,11.9614645 C110.518833,11.771641 110.415985,11.6812488 110.223744,11.6933011 C109.993633,11.7079898 109.764098,11.7386855 109.534179,11.7409453 C109.281767,11.7435817 109.202372,11.6211757 109.130089,11.240587 C109.089911,11.027977 109.194298,10.924591 109.374042,10.8728038 C109.786013,10.7534108 110.201445,10.6451285 110.614761,10.5302551 C111.160916,10.3786599 111.705917,10.2225451 112.252841,10.0745279 C112.368377,10.0432673 112.491411,10.0379944 112.712872,10.0061688" id="Path"></path>
                <path d="M73.8200639,7.45737318 C73.7695047,8.43681005 73.5989875,9.28706143 72.9038466,9.96368452 C72.1956333,10.6531132 70.6571342,10.8007537 69.8616439,9.70964484 C69.2816549,8.9140054 69.1038326,8.01234346 69.1534306,7.06002425 C69.1934166,6.29395057 69.4398686,5.59359954 69.9037445,4.96367908 C70.7605595,3.80025648 72.1335397,4.10307026 72.8229134,4.78986246 C73.2675653,5.23278411 73.5182466,5.77871518 73.6558907,6.37153719 C73.7437445,6.75061937 73.7743107,7.14269542 73.8200639,7.45737318" id="Path"></path>
                <path d="M115.501106,7.05139933 C115.13335,7.11505048 114.834609,7.15327884 114.545095,7.22596921 C114.469352,7.24498923 114.371117,7.37134996 114.369772,7.44987816 C114.358237,8.14006007 114.358814,8.83099525 114.379384,9.52098884 C114.383036,9.64132343 114.486846,9.73510531 114.609495,9.7317156 C114.907276,9.72324133 115.219282,9.74320294 115.501106,9.57955544 L115.501106,7.05139933 Z M115.778701,10.9902383 C115.306751,11.0685782 114.899009,11.1188588 114.50261,11.2147122 C114.408028,11.2374986 114.309601,11.4035942 114.284994,11.5186559 C114.131009,12.2400984 113.997018,12.9654956 113.857259,13.6897629 C113.84015,13.7784602 113.831307,13.8686641 113.813813,13.9571731 C113.781516,14.120444 113.6754,14.1944526 113.513726,14.1505747 C113.307067,14.0944562 113.102908,14.0268504 112.903363,13.9502054 C112.704202,13.8735603 112.702087,13.7134909 112.740151,13.535343 C112.88683,12.8438428 113.050811,12.1547908 113.167116,11.4582061 C113.393191,10.104395 113.503537,8.74003813 113.468549,7.36664203 C113.467011,7.30732217 113.452401,7.24819062 113.439521,7.16043489 C112.945271,7.07964688 112.950269,6.67608349 112.897403,6.30924192 C112.86626,6.0945605 112.957767,5.96782314 113.183457,5.92771162 C113.893593,5.80116257 114.601229,5.66350282 115.311942,5.5405318 C115.674699,5.47782223 116.041109,5.43168456 116.406942,5.38950155 C116.553237,5.37274133 116.702992,5.38686511 116.885621,5.38686511 C116.925799,5.65973648 116.962517,5.90775001 116.995198,6.12921084 C116.951559,6.18401109 116.93791,6.21960301 116.91388,6.22845391 C116.317358,6.45104464 116.433087,6.56497644 116.464614,6.96759825 C116.555736,8.13761195 116.625904,9.31063872 116.770084,10.4746263 C116.89754,11.5032139 117.081321,12.5280352 117.43908,13.5119916 C117.54462,13.8019999 117.511555,13.881658 117.182824,13.9454974 C116.235464,14.1296715 116.312937,14.2886111 116.160682,13.2956154 C116.046876,12.5530813 115.915768,11.8131837 115.778701,10.9902383 L115.778701,10.9902383 Z" id="Path"></path>
                <path d="M130.887462,12.3818447 C130.998385,12.927964 131.370754,13.2366156 131.907297,13.2002705 C132.380208,13.1682566 132.760267,12.9592247 133.00768,12.5537781 C133.418113,11.8809214 133.225681,10.8442361 132.563413,10.4045158 C132.213151,10.1719443 131.797912,10.032778 131.40901,9.85820815 C131.11642,9.7271395 130.809028,9.62488335 130.526243,9.47705448 C130.151951,9.28120477 129.927606,8.9508967 129.859169,8.54714499 C129.648089,7.30123953 130.236536,6.23969644 131.271366,5.83443819 C132.140677,5.49414932 132.996146,5.58491813 133.774335,6.1054264 C134.477165,6.57565402 134.307417,7.37882614 133.965037,7.77448022 C133.853345,7.90347739 133.675523,7.99782422 133.509043,8.0562025 C133.273164,8.13906199 133.053434,8.06430013 132.889453,7.87052191 C132.738352,7.69180905 132.720281,7.51008311 132.821592,7.28617417 C133.051127,6.77734155 132.891759,6.53252942 132.321767,6.47452777 C131.755043,6.41690276 131.446689,6.57226431 131.234456,7.03458262 C131.037217,7.46338049 131.212733,8.05808567 131.633162,8.32003466 C131.913641,8.49479286 132.242564,8.59667237 132.553417,8.72227983 C132.892913,8.85918631 133.256055,8.95127334 133.57402,9.12471332 C134.130748,9.42828037 134.486585,9.87609827 134.425068,10.5508382 C134.411419,10.7003619 134.404883,10.8544052 134.425645,11.0020458 C134.592125,12.1794038 133.242406,13.4609012 132.204693,13.6437571 C131.580296,13.7537342 130.986081,13.7819818 130.426085,13.4315238 C129.754782,13.0115768 129.419131,12.2313793 129.615793,11.5229307 C129.714989,11.1647517 129.931259,10.8941401 130.307089,10.806761 C130.712139,10.7127908 131.068937,10.8374567 131.343841,11.1483681 C131.766193,11.6261284 131.580873,12.1790272 130.955515,12.3261028 C130.929755,12.3319406 130.909762,12.362448 130.887462,12.3818447" id="Path"></path>
                <path d="M129.009928,11.8939341 C128.972249,12.3799803 128.94918,12.7658419 128.909386,13.1500086 C128.893046,13.3089482 128.769435,13.3637485 128.613336,13.376554 C127.327633,13.4827648 126.042507,13.5944368 124.756804,13.6983878 C124.642036,13.7076154 124.523616,13.6727767 124.361365,13.6528151 C124.40385,13.3219421 124.434032,13.0270376 124.480362,12.734393 C124.77449,10.8815417 124.841197,9.02304096 124.663952,7.15418276 C124.621659,6.71069616 124.657415,6.26005351 124.657415,5.80281976 C125.768564,5.69962203 126.858375,5.59830747 127.971254,5.49510974 C128.053148,5.90997215 127.975675,6.29545711 127.934536,6.67736404 C127.916465,6.84703769 127.745564,6.83875174 127.601768,6.83536203 C127.187298,6.82556955 126.772059,6.80899765 126.357973,6.81973172 C125.865838,6.83272559 125.841231,6.86436285 125.796247,7.32875265 C125.770294,7.59842263 125.743381,7.86846925 125.732615,8.13889251 C125.718966,8.48426594 125.773178,8.5867104 126.119018,8.63247144 C126.431793,8.67390118 126.756872,8.63830927 127.075414,8.61928925 C127.222093,8.61043835 127.366273,8.5601577 127.529678,8.52494241 C127.675588,8.89253726 127.660017,9.23094296 127.647521,9.6151097 C127.503533,9.6151097 127.37454,9.6107784 127.245931,9.61605128 C126.865872,9.63168159 126.485428,9.64637032 126.105946,9.67122817 C125.864492,9.6870468 125.772409,9.84372657 125.739921,10.0629276 C125.637456,10.7557459 125.678596,11.4446096 125.790095,12.1310252 C125.83854,12.4291311 125.89602,12.4733856 126.225135,12.467736 C127.030622,12.4541772 127.810541,12.3035236 128.564892,12.0242494 C128.674084,11.9837613 128.789428,11.9579619 129.009928,11.8939341" id="Path"></path>
                <path d="M79.6448104,3.47034387 C80.2880465,3.45979812 80.8232435,3.52966374 81.2769306,3.84528308 C81.4808975,3.9870858 81.6610267,4.192728 81.7852139,4.40665614 C82.0018687,4.77914722 81.8667238,5.04015463 81.4312995,5.13393651 C81.2086853,5.18195735 80.9745366,5.19344469 80.7455784,5.19551617 C79.9283649,5.20286054 79.1282607,5.30662322 78.3358462,5.51038225 C77.8262172,5.6414509 77.4055954,5.88701631 77.0451448,6.25103312 C76.8850087,6.41279745 76.734869,6.58906219 76.5535864,6.7240855 C76.4597731,6.79395112 76.2800284,6.84442008 76.189291,6.80167211 C76.0952855,6.7572293 75.9935904,6.57531505 76.0143523,6.47795514 C76.0918252,6.11469159 76.1598782,5.73071317 76.3363548,5.40982095 C77.0609085,4.09235502 78.2635639,3.53907959 79.6448104,3.47034387" id="Path"></path>
            </g>
        </g>
    </g>
</svg>