<?xml version="1.0" encoding="UTF-8"?>
<svg width="212px" height="48px" viewBox="0 0 212 48" version="1.1" xmlns="http://www.w3.org/2000/svg" xmlns:xlink="http://www.w3.org/1999/xlink">
    <!-- Generator: Sketch 60.1 (88133) - https://sketch.com -->
    <title>foxium</title>
    <desc>Created with Sketch.</desc>
    <g id="design" stroke="none" stroke-width="1" fill="none" fill-rule="evenodd">
        <g id="main" transform="translate(-942.000000, -160.000000)" fill="#FFB124">
            <g id="foxium" transform="translate(942.000000, 160.000000)">
                <path d="M6.75903614,13.2305349 C6.90477108,13.6162699 7.0493494,14.0020048 7.19624096,14.3871614 C7.21243373,14.4299566 7.2413494,14.467547 7.26506024,14.5068723 C8.9173012,17.2613783 10.9442892,19.7012819 13.3737831,21.8040289 C16.3150843,24.3491855 19.6455904,26.1454265 23.4532048,27.0082699 C23.6903133,27.0614747 24.062747,27.0238843 24.1986506,26.8729446 C24.3281928,26.7289446 24.2963855,26.3594024 24.2206265,26.1263422 C23.9858313,25.4046072 23.7122892,24.6938602 23.4248675,23.9906313 C22.593253,21.9543904 21.3481446,20.1847518 19.7791807,18.663788 C17.9979759,16.9381012 15.9854458,15.5432096 13.6814458,14.561812 C11.8447229,13.7793542 9.96693976,13.2131855 7.7866988,12.9280771 C7.55190361,12.9974747 7.15518072,13.114294 6.75903614,13.2305349 Z M29.601253,39.3945831 L29.601253,45.5004145 C29.601253,46.4118361 29.5197108,46.4899084 28.6239036,46.4847036 C27.7454458,46.4800771 26.8664096,46.4847036 25.9873735,46.4864386 C25.2257349,46.4875952 25.0603373,46.3337639 25.0516627,45.5507277 C25.0418313,44.648559 25.050506,43.7469687 25.0545542,42.8448 C25.0713253,39.5842699 25.0904096,36.3243181 25.1066024,33.063788 C25.109494,32.5207518 24.9018795,32.1159325 24.3316627,31.985812 C23.8817349,31.8828723 23.4312289,31.777041 22.9760964,31.7041735 C21.1422651,31.4103904 19.4287229,30.767306 17.7215422,30.0513542 C15.5985542,29.1613301 13.6733494,27.9636434 11.8586024,26.5797398 C9.23306024,24.5787759 7.00192771,22.1909205 5.05648193,19.5220048 C3.15556627,16.9143904 1.75026506,14.0465349 0.494746988,11.0936675 C0.316626506,10.673812 0.111903614,10.2568482 0.00665060241,9.81790843 C-0.0338313253,9.64788434 0.113638554,9.32981205 0.269783133,9.23728193 C0.560096386,9.06378795 0.911710843,8.96084819 1.25060241,8.9088 C3.96925301,8.49125783 6.66245783,8.10899277 9.44819277,8.62831807 C11.3178795,8.97646265 13.1719518,9.35063133 14.9144096,10.0613783 C19.1690602,11.7957398 22.8274699,14.3380048 25.5565301,18.1381012 C27.0318072,20.1922699 28.0588916,22.4309205 28.8338313,24.806053 C29.0264096,25.3965108 29.0761446,26.0320771 29.2201446,26.6404627 C29.3381205,27.1424386 29.850506,27.4506795 30.3559518,27.3483181 C31.8422169,27.0470169 33.3521928,26.8075952 34.7916145,26.3524627 C36.2512771,25.891547 37.6606265,25.247306 39.0468434,24.5886072 C41.3566265,23.491547 43.3616386,21.9381976 45.2301687,20.2078843 C47.6596627,17.9582458 49.6473253,15.3431133 51.134747,12.4047036 C52.909012,8.9001253 54.053494,5.18561928 54.061012,1.19872771 C54.0615904,0.629089157 54.3391807,0.4608 55.2448193,0.65626988 C56.0180241,0.823980723 56.8201446,0.808366265 57.5950843,0.650486747 C58.4191807,0.48219759 58.7829398,0.594968675 58.8008675,1.18022169 C58.9535422,6.13405301 61.3992289,9.97636627 65.5682892,12.9488964 C67.5247229,14.3443663 69.8819277,15.0152096 72.282506,15.1407036 C72.9041928,15.1736675 73.1407229,15.3442699 73.0794217,16.0075952 C72.9903614,16.9710651 73.0499277,17.9478361 73.0447229,18.9188241 C73.0400964,19.7469687 72.9163373,19.9094747 72.0945542,19.9216193 C69.2799036,19.9638361 66.6375904,20.8937639 64.2104096,22.2314024 C62.0209157,23.4371855 60.0482892,25.0055711 58.3127711,26.8047036 C56.060241,29.1399325 54.2385542,31.7683663 52.8407711,34.6535711 C51.1567229,38.129812 50.163759,41.8154024 49.886747,45.6762217 C49.837012,46.3661494 49.624291,46.4523275 48.7509398,46.4766072 C47.8775885,46.5008869 47.2158321,46.5008869 46.4966747,46.4679325 C45.7775173,46.4349781 45.3273253,46.3123663 45.345253,45.6403663 C45.413494,43.1368482 45.8206265,40.6986795 46.4856867,38.2743904 C48.0986024,32.3912096 51.105253,27.3431133 55.3917108,23.048559 C57.4343133,21.0019084 59.7146024,19.2455711 62.3291566,17.9599807 C62.5732048,17.8402699 62.8132048,17.6685108 62.9895904,17.4643663 C63.2666024,17.1439807 63.2261205,16.8554024 62.8178313,16.6223422 C60.6711325,15.3986313 59.0061687,13.6631133 57.6211084,11.6453783 C57.3128675,11.1960289 56.8334458,11.2226313 56.5737831,11.702053 C56.2250602,12.3457157 55.9191325,13.0142458 55.618988,13.6833542 C54.1755181,16.8947277 52.1479518,19.7018602 49.7439036,22.2580048 C47.8979277,24.2202217 45.8651566,25.9725108 43.569253,27.3639325 C41.9251084,28.3603663 40.1473735,29.1387759 38.413012,29.9825349 C35.9378313,31.1883181 33.2452048,31.6128 30.572241,32.0968482 C29.6932048,32.2558843 29.5896867,32.3848482 29.5902651,33.2887518 C29.5914217,35.3244145 29.5908434,37.3594988 29.5908434,39.3945831 L29.601253,39.3945831 Z" id="Path"></path>
                <path d="M169.707296,38.8163277 C169.707296,36.9200386 169.689369,35.0231711 169.711345,33.1274602 C169.7472,30.0814843 170.898043,27.5629301 173.500453,25.9037494 C176.769658,23.8189301 180.512501,24.1098217 183.531875,26.5930988 C184.044839,27.0146892 184.313754,26.9655325 184.803007,26.5526169 C187.293802,24.4492916 190.141995,23.9444241 193.159055,25.1172434 C196.767152,26.519653 198.479537,29.3013398 198.489947,33.1459663 C198.500935,37.2161349 198.497465,41.2863036 198.49978,45.3564723 C198.500357,46.2540145 198.337851,46.4136289 197.461128,46.4090024 C196.651489,46.4049542 195.841851,46.411894 195.03279,46.4078458 C194.104019,46.4037976 193.9872,46.2869783 193.987778,45.3761349 C193.989513,42.3463518 193.997031,39.317147 193.992983,36.2873639 C193.991248,35.0624964 193.990092,33.8364723 193.942092,32.6127614 C193.865176,30.6621108 191.994333,28.986159 190.012453,29.1151229 C187.965802,29.2475566 186.415923,30.8882313 186.404357,33.0459181 C186.382381,37.0698217 186.39626,41.0937253 186.402043,45.1176289 C186.4032,45.8295325 185.826043,46.410159 185.11414,46.4061108 C184.374477,46.4020627 183.635393,46.410159 182.896308,46.4078458 C181.9392,46.4061108 181.82932,46.2916048 181.830477,45.3252434 C181.833369,41.3013398 181.822959,37.2768578 181.843778,33.2529542 C181.851875,31.7799904 181.348742,30.5834602 180.117513,29.7477976 C177.860357,28.2158458 174.788935,29.5957012 174.335537,32.3415325 C174.275971,32.7035566 174.271923,33.0783036 174.271923,33.4472675 C174.269031,37.378641 174.272501,41.3100145 174.274236,45.241388 C174.274814,46.266159 174.12561,46.4136289 173.125706,46.4072675 C172.312598,46.402641 171.498911,46.4130506 170.685802,46.4084241 C170.138718,46.4055325 169.698043,45.9544482 169.698043,45.4073639 C169.69573,43.2103518 169.696887,41.0133398 169.696887,38.8163277 L169.707296,38.8163277 Z" id="Path"></path>
                <path d="M103.982111,42.7283868 C107.608713,42.7306988 110.697484,39.6396145 110.711998,35.9933494 C110.726978,32.2551325 107.675798,29.1680964 103.945677,29.1761769 C100.154255,29.1842892 97.2499663,32.2453012 97.1921349,35.9517108 C97.1360386,39.5644337 100.356087,42.725494 103.982111,42.7283868 M103.932376,47.362988 C100.810641,47.3092048 98.1521349,46.0970602 95.9684241,43.9393735 C93.7517494,41.7498795 92.6714602,39.0138795 92.6714602,35.8828916 C92.6714602,29.6822169 97.7345928,24.609253 103.909243,24.6104094 C110.245822,24.6115663 115.208328,29.5821687 115.225728,35.9129639 C115.234352,39.086747 114.133243,41.8048193 111.876665,44.0064578 C109.686593,46.1433253 107.047749,47.314988 103.932376,47.362988" id="Path"></path>
                <path d="M117.504694,25.4332337 C118.01361,25.4332337 118.530622,25.4928 119.029128,25.4199325 C119.905272,25.2927036 120.439055,25.6761253 120.936983,26.3544867 C122.233561,28.123547 123.596646,29.8434506 124.918092,31.5951614 C125.286477,32.0832578 125.577369,31.983788 125.898911,31.5656675 C127.208212,29.8631133 128.557417,28.1906313 129.816983,26.4516434 C130.52773,25.4708241 131.207463,25.4364665 132.872835,25.4453783 C133.715786,25.4498892 134.360834,25.4708241 135.258911,25.4453783 C135.537439,25.4374866 135.788067,25.5257639 136.052357,25.6049928 C135.978333,25.8062458 135.94826,26.0398843 135.823923,26.2023904 C133.502573,29.2240771 131.180646,32.2451855 128.829802,35.2443181 C128.411682,35.7781012 128.411104,36.1343422 128.843682,36.6831614 C131.001947,39.4214747 133.108164,42.2008482 135.234043,44.9651855 C135.444549,45.239306 135.67761,45.497812 135.871345,45.7834988 C136.14026,46.1802217 136.039634,46.4728482 135.540549,46.4768964 C134.038092,46.4901976 132.533899,46.4988723 131.033754,46.4381494 C130.749802,46.4271614 130.410911,46.1449446 130.213706,45.8962699 C128.793947,44.1046554 127.40426,42.2887518 126.004164,40.4815229 C125.671634,40.0512578 125.130333,40.055306 124.800694,40.4878843 C123.44108,42.272559 122.060067,44.041041 120.69814,45.8239807 C120.251104,46.4092337 120.146429,46.4474024 118.825561,46.4427759 C117.504694,46.4381494 116.908791,46.4768964 115.617658,46.4705349 C115.353864,46.4692352 115.096598,46.3594988 114.836357,46.2848964 C114.909224,46.0535711 114.925995,45.7788723 115.064212,45.5984386 C117.202236,42.8150169 119.355296,40.0437398 121.506043,37.2701494 C121.54826,37.215788 121.600308,37.1683663 121.643682,37.1140048 C122.57014,35.9492819 122.541224,35.9718361 121.615345,34.7868723 C119.367441,31.9132337 117.147875,29.017041 114.925417,26.1231614 C114.82479,25.9924627 114.709706,25.7212337 114.766381,25.6524145 C114.877995,25.5188241 115.104116,25.4222458 115.286284,25.4164627 C116.02479,25.3910169 116.765031,25.4054747 117.504694,25.4054747 L117.504694,25.4332337 Z" id="Path"></path>
                <path d="M165.97654,33.0331952 C165.97654,34.9983036 165.964973,36.9639904 165.978853,38.9290988 C166.004299,42.3827855 163.497311,45.8260627 160.026853,47.0723277 C158.530757,47.610159 157.051431,47.7015325 155.638034,47.4459181 C154.059817,47.161388 152.565455,46.3847133 151.327865,45.2454361 C149.37548,43.4480386 148.443239,41.2030265 148.421841,38.5867373 C148.388877,34.5402795 148.418371,30.4938217 148.39869,26.4473639 C148.395817,25.8042795 148.738178,25.6504482 149.265022,25.6487133 C150.189745,25.6452434 151.114467,25.6429301 152.03919,25.6516048 C152.814708,25.6597012 152.948299,25.8048578 152.948299,26.6040867 C152.94772,30.4423518 152.945986,34.2806169 152.944829,38.1188819 C152.944251,39.6167133 153.326516,40.9601349 154.554853,41.9328578 C155.801118,42.9200386 157.178082,43.3040386 158.694998,42.6378217 C160.322949,41.9236048 161.390516,40.7062554 161.41654,38.8787855 C161.474371,34.8560386 161.441986,30.8327133 161.441986,26.809388 C161.441986,25.6458217 161.435624,25.6504482 162.590516,25.6568096 C163.445841,25.6620145 164.302323,25.6805205 165.155913,25.6406169 C165.761986,25.6122795 165.990998,25.849388 165.987566,26.4433157 C165.972492,28.6397494 165.981745,30.8367614 165.981745,33.0331952 L165.97654,33.0331952 Z" id="Path"></path>
                <path d="M82.249041,38.2380145 C82.249041,35.9311229 82.2455711,33.6242313 82.2501976,31.3179181 C82.2525108,30.215653 82.1328,30.0843759 81.039788,30.0664482 C80.2122217,30.0525687 80.1179566,29.9548337 80.1231614,29.1544482 C80.1289446,28.2783036 80.1272096,27.4015807 80.1266313,26.5248578 C80.1254747,25.5677494 80.1659566,25.5266892 81.1531373,25.5151229 C81.1762699,25.5151229 81.1994024,25.5157012 81.2225349,25.5151229 C82.1304867,25.5035566 82.2744867,25.3763277 82.2773783,24.4747373 C82.2854747,21.8040867 83.3727036,19.6041831 85.2551133,17.7830747 C86.799788,16.2892916 88.7111133,15.5334361 90.8184867,15.2437012 C91.3777157,15.1667855 91.7044627,15.3744 91.703306,15.9856771 C91.7015711,16.9636048 91.675547,17.9426892 91.7119807,18.9200386 C91.7345349,19.5261108 91.4025831,19.7649542 90.8688,19.8765687 C89.1506313,20.2380145 87.8904867,21.2159422 87.2028723,22.8317494 C86.9565108,23.4112193 86.8790169,24.0710747 86.7812819,24.7031711 C86.6980048,25.2433157 86.9842699,25.5249542 87.538294,25.5220627 C88.5994988,25.5168578 89.6607036,25.5174361 90.7219084,25.5122313 C91.5916916,25.5070265 91.7362699,25.6446651 91.7368482,26.4936289 C91.7380048,27.3934843 91.712559,28.2944964 91.7507277,29.1920386 C91.7784867,29.8339663 91.4847036,30.0751229 90.8913542,30.0728096 C89.899547,30.0687614 88.9077398,30.0768578 87.9153542,30.0652916 C86.9229687,30.0543036 86.7749205,30.1780627 86.7749205,31.1513639 C86.7731855,35.8576771 86.7743422,40.563412 86.7801253,45.2697253 C86.7818602,46.4957494 86.7662458,46.5206169 85.5720289,46.5188819 C84.7647036,46.517147 83.9544867,46.4812916 83.1506313,46.5350747 C82.4583904,46.5819181 82.2311133,46.2453398 82.2276434,45.6433157 C82.2218602,44.5821108 82.2270651,43.520906 82.2276434,42.4597012 C82.2276434,41.0526651 82.2276434,39.6450506 82.2276434,38.2380145 L82.249041,38.2380145 Z" id="Path"></path>
                <path d="M144.107104,35.9247614 L144.107104,45.4923759 C144.107104,46.3338217 143.974092,46.4610506 143.163296,46.4541108 C142.238573,46.4460145 141.312116,46.4142072 140.390863,46.4685687 C139.762814,46.5055807 139.545947,46.229147 139.541899,45.6728096 C139.539586,45.3038458 139.559827,44.9343036 139.559827,44.5641831 C139.557513,38.4398458 139.558092,32.3155084 139.541278,26.1905928 C139.539586,25.4977735 139.795327,25.4419603 140.703152,25.4185446 C141.587914,25.3957237 142.135589,25.4185446 142.888019,25.4306892 C143.808117,25.44554 144.11173,25.4607614 144.108879,26.1489542 C144.096116,29.4071711 144.103055,32.6659663 144.103055,35.9247614 L144.107104,35.9247614 Z" id="Path"></path>
                <path d="M211.088154,24.5395663 C211.091645,24.7560137 211.19007,25.0378629 211.07948,25.1560482 C211.006872,25.2336418 210.782603,25.1899289 210.598323,25.189012 C210.390767,25.1882096 210.018853,25.1890256 209.984154,25.1560482 C209.949455,25.1230707 209.981046,24.746834 209.984154,24.528 C209.995142,23.7420723 210.043142,22.954988 210.018853,22.1707952 C210.010757,21.9105542 210.088251,21.0611527 209.984154,20.8043816 C209.807769,20.9830804 209.338178,21.7353253 209.198227,21.9400482 C208.911961,22.3581687 208.666757,22.8052048 208.394371,23.2337349 C208.110419,23.6790361 207.840347,23.654747 207.566805,23.2088675 C207.253359,22.6970602 206.931239,22.1898795 206.588299,21.6977349 C206.495769,21.5653012 206.072443,20.9026948 205.931335,20.8043816 C205.846901,20.9744057 205.892195,21.9433746 205.89046,22.1145553 C205.882364,22.9461698 205.891802,23.5489693 205.89046,24.4989059 C205.88144,24.7443255 205.89046,25.121682 205.89046,25.121682 C205.89046,25.121682 205.594312,25.1620531 205.387142,25.1560482 C205.201077,25.1504774 204.898452,25.180636 204.907497,25.1329066 C204.941263,24.9547252 204.915248,24.0656082 204.916315,23.8416557 C204.924411,22.4080171 204.899046,21.5219277 204.941263,20.0894458 C204.951094,19.7713735 204.951094,19.0818665 204.972374,19.0818665 C205.142857,19.0818665 205.849586,19.1267649 205.89046,19.1267649 C205.931335,19.1267649 205.931335,19.1267649 206.340361,19.7522892 C206.718885,20.3311649 207.078195,20.7892048 207.443689,21.3756145 C207.612123,21.645779 207.985133,22.1145553 208.00235,22.1145553 C208.019567,22.1145553 208.275758,21.6074645 208.438901,21.3756145 C208.783576,20.8852048 209.067528,20.3508434 209.41972,19.8667952 C209.615769,19.5973012 209.984154,19.1267649 209.987716,19.1267649 C210.259577,19.1267649 211.076317,19.0852331 211.088386,19.0843373 C211.088386,19.0843373 211.076283,19.5253077 211.07948,19.7522892 C211.091624,20.5619277 211.082371,21.370988 211.083528,22.1806265 C211.084106,22.9665542 211.075431,23.7530602 211.088154,24.5395663 Z" id="Path"></path>
                <path d="M201.95905,22.7445638 C201.95905,23.3217204 201.966317,23.898371 201.95905,24.474877 C201.950375,25.1630698 201.966317,25.1630698 201.392303,25.1630698 C200.818289,25.1630698 200.819773,25.1630698 200.819773,24.4529011 C200.819773,23.3457804 200.842327,22.2385482 200.842327,21.1304915 C200.842327,19.9709384 201.032191,20.0860577 199.849363,20.0964674 C199.803079,20.0968747 198.940255,20.1598475 198.940255,20.1028288 C198.940255,20.0860577 198.955869,20.0941541 198.940255,19.6118409 C198.922327,19.0450939 198.893733,19.1289493 199.243035,19.119118 C199.842745,19.1011903 200.943532,19.1208529 201.543243,19.119118 C202.051002,19.117383 202.835608,19.1113605 203.341632,19.0818665 C203.732572,19.0598906 203.783628,19.1040818 203.774954,19.5968047 C203.766279,20.0814312 203.841242,20.1230698 203.46129,20.0964674 C203.346784,20.088371 202.816133,20.0860577 202.701026,20.0860577 C201.95905,20.0860577 201.950375,20.0987806 201.953267,20.8066361 C201.955906,21.4527358 201.950375,22.0985879 201.950375,22.7445638 L201.95905,22.7445638 Z" id="Path"></path>
            </g>
        </g>
    </g>
</svg>