<?xml version="1.0" encoding="UTF-8"?>
<svg width="91px" height="48px" viewBox="0 0 91 48" version="1.1" xmlns="http://www.w3.org/2000/svg" xmlns:xlink="http://www.w3.org/1999/xlink">
    <!-- Generator: Sketch 60.1 (88133) - https://sketch.com -->
    <title>2by2gaming</title>
    <desc>Created with Sketch.</desc>
    <g id="design" stroke="none" stroke-width="1" fill="none" fill-rule="evenodd">
        <g id="main" transform="translate(-240.000000, -64.000000)" fill="#FFB124" fill-rule="nonzero">
            <g id="2by2gaming" transform="translate(240.000000, 64.000000)">
                <path d="M18.7722149,23.1381389 C18.4199214,23.0878113 16.2558322,23.0374836 13.387156,22.987156 C10.468152,22.9368283 6.84456094,22.8865007 3.37195282,22.8865007 L2.26474443,22.8865007 L1.81179554,21.8296199 C3.92555701,19.9171691 10.6694626,14.6830931 10.6694626,10.5562254 C10.6694626,6.58034076 5.93866317,5.8757536 3.1706422,5.7750983 L4.12686763,0.692005242 C13.9407602,1.49724771 17.8159895,5.2214941 17.8159895,9.09672346 C17.8159895,13.7771953 13.3368283,16.5955439 12.0283093,17.5517693 L12.0283093,17.8034076 L18.7218873,17.451114 L18.7722149,23.1381389 L18.7722149,23.1381389 Z" id="Path"></path>
                <path d="M25.7677588,8.19082569 C25.7677588,7.28492792 25.7174312,1.84954128 25.6167759,1.19528178 C30.0456094,1.19528178 32.3606815,1.24560944 35.0280472,1.54757536 C41.3693316,2.35281782 42.2249017,4.86920052 42.2249017,6.58034076 C42.2249017,7.68754915 41.6209699,9.6 38.4,11.1098296 L38.4,11.3111402 C40.5137615,11.7137615 43.1811271,13.1229358 43.1811271,16.0419397 C43.1811271,19.5145478 38.550983,23.0878113 28.4854522,23.0878113 L25.5664482,23.0878113 C25.7174312,21.4269987 25.7174312,12.1667104 25.7174312,11.6131062 L25.7174312,8.19082569 L25.7677588,8.19082569 L25.7677588,8.19082569 Z M32.1090433,10.4052425 C33.4175623,10.4052425 35.5816514,9.19737877 35.5816514,6.93263434 C35.5816514,4.91952818 33.3672346,4.5672346 32.1090433,4.66788991 L32.1090433,10.4052425 Z M32.1090433,19.3132372 C33.7698558,19.3132372 36.3365662,17.9543906 36.3365662,16.2432503 C36.3365662,14.2804718 34.2228047,13.2739187 32.1090433,13.374574 L32.1090433,19.3132372 Z" id="Path"></path>
                <path d="M50.8309305,22.8865007 C50.8812582,22.1819135 50.9819135,18.9609436 50.9819135,18.5583224 L50.9819135,17.1994758 C50.9819135,13.2739187 49.2707733,10.1032765 47.0060288,8.59344692 C45.7981651,7.78820446 44.5399738,7.28492792 43.5334207,6.98296199 L45.8988204,0.692005242 C47.9622543,1.34626474 50.0760157,2.35281782 51.636173,3.9129751 C52.7433814,5.02018349 53.8505898,6.63066841 54.6055046,8.99606815 L54.8571429,8.99606815 C55.5114024,6.93263434 56.7695937,5.32214941 58.2290957,3.9129751 C59.6885976,2.50380079 61.6010485,1.34626474 63.9664482,0.692005242 L65.8788991,6.98296199 C64.5200524,7.23460026 62.6579292,8.09017038 61.2487549,9.24770642 C59.4369594,10.757536 57.8264744,13.6262123 57.8264744,17.0988204 L57.8264744,19.061599 C57.8264744,19.4642202 57.9271298,22.1819135 57.9774574,22.836173 L50.8309305,22.8865007 L50.8309305,22.8865007 Z" id="Path"></path>
                <path d="M84.9530799,23.1381389 C84.6007864,23.0878113 82.4366972,23.0374836 79.568021,22.987156 C76.649017,22.9368283 73.025426,22.8865007 69.5528178,22.8865007 L68.4456094,22.8865007 L67.9926606,21.8296199 C70.106422,19.9171691 76.9006553,14.6830931 76.9006553,10.5562254 C76.9006553,6.58034076 72.1698558,5.8757536 69.4018349,5.7750983 L70.3580603,0.692005242 C80.1719528,1.49724771 84.0471822,5.2214941 84.0471822,9.09672346 C84.0471822,13.7771953 79.568021,16.5955439 78.259502,17.5517693 L78.259502,17.8034076 L84.9530799,17.451114 L84.9530799,23.1381389 L84.9530799,23.1381389 Z" id="Path"></path>
                <path d="M6.94521625,39.5449541 L6.94521625,38.0351245 L14.4440367,38.0351245 L14.4440367,46.9934469 L12.1792923,46.9934469 L12.1792923,45.3326343 C11.6256881,45.8862385 10.9211009,46.2888598 10.1158585,46.5908257 C9.31061599,46.8927916 8.45504587,47.0437746 7.5491481,47.0437746 C7.24718218,47.0437746 6.8948886,47.0437746 6.44193971,46.9934469 C5.98899083,46.9431193 5.53604194,46.842464 5.0327654,46.691481 C4.52948886,46.540498 4.07653997,46.2385321 3.57326343,45.8862385 C3.06998689,45.533945 2.61703801,45.0306684 2.26474443,44.3764089 C1.8621232,43.7221494 1.56015727,42.9672346 1.308519,41.9606815 C1.05688073,40.9541284 0.956225426,39.7965924 0.956225426,38.4377457 C0.956225426,36.7266055 1.10720839,35.2671035 1.45950197,34.1095675 C1.76146789,32.9017038 2.26474443,31.9454784 2.81834862,31.2408912 C3.42228047,30.4859764 4.12686763,29.9323722 4.98243775,29.6304063 C5.83800786,29.2781127 6.79423329,29.1271298 7.90144168,29.1271298 C8.8576671,29.1271298 9.66290957,29.2277851 10.3171691,29.4794233 C11.0217562,29.7310616 11.5753604,30.0330275 12.0283093,30.4859764 C12.4812582,30.9389253 12.8335518,31.4422018 13.0348624,31.995806 C13.236173,32.5494102 13.387156,33.2036697 13.387156,33.8579292 L11.1224115,33.8579292 C11.1727392,33.455308 11.1224115,33.0526868 11.0217562,32.7003932 C10.9211009,32.297772 10.7197903,31.995806 10.468152,31.6435125 C10.2165138,31.3415465 9.86422018,31.0899083 9.46159895,30.8885976 C9.05897772,30.687287 8.55570118,30.5866317 8.00209699,30.5866317 C7.24718218,30.5866317 6.59292267,30.7376147 6.03931848,30.9892529 C5.48571429,31.2408912 5.0327654,31.5931848 4.73079948,31.995806 C4.3785059,32.3984273 4.12686763,32.9017038 3.92555701,33.4049803 C3.7242464,33.9585845 3.57326343,34.5121887 3.47260813,35.0657929 C3.37195282,35.6193971 3.32162516,36.1730013 3.27129751,36.7266055 C3.27129751,37.2802097 3.22096986,37.7331586 3.22096986,38.1861075 C3.22096986,38.5887287 3.22096986,39.0416776 3.27129751,39.5449541 C3.27129751,40.0482307 3.37195282,40.6018349 3.42228047,41.1554391 C3.52293578,41.7090433 3.67391874,42.2123198 3.8249017,42.765924 C3.97588467,43.3195282 4.27785059,43.7724771 4.57981651,44.1750983 C4.93211009,44.5777195 5.33473132,44.9300131 5.83800786,45.1816514 C6.3412844,45.4332896 6.94521625,45.533945 7.64980341,45.533945 C8.2034076,45.533945 8.70668414,45.4332896 9.26028834,45.2823067 C9.81389253,45.1313237 10.2668414,44.8293578 10.7197903,44.4267366 C11.1224115,44.0241153 11.4747051,43.5711664 11.776671,42.9169069 C12.0283093,42.3129751 12.1792923,41.5580603 12.1792923,40.7024902 L12.1792923,39.5449541 C12.1792923,39.5449541 6.94521625,39.5449541 6.94521625,39.5449541 Z" id="Path"></path>
                <path d="M31.3038008,46.6411533 L28.8377457,46.6411533 L26.8749672,41.5580603 L20.1813893,41.5580603 L18.2186107,46.6411533 L15.7525557,46.6411533 L23.5030144,27.9192661 L31.3038008,46.6411533 Z M20.7853211,40.0482307 L26.3716907,40.0482307 L23.5533421,33.0526868 L20.7853211,40.0482307 Z" id="Path"></path>
                <polygon id="Path" points="44.2883355 29.378768 46.5530799 29.378768 46.5530799 46.6411533 44.2883355 46.6411533 44.2883355 33.5056356 44.2380079 33.5056356 39.708519 41.9606815 35.2293578 33.5056356 35.1790301 33.5559633 35.1790301 46.6411533 32.9142857 46.6411533 32.9142857 29.378768 35.1287025 29.378768 39.7588467 37.9847969"></polygon>
                <polygon id="Path" points="56.9205767 30.8885976 53.9512451 30.8885976 53.9512451 45.1313237 56.9205767 45.1313237 56.9205767 46.6411533 48.6668414 46.6411533 48.6668414 45.1313237 51.636173 45.1313237 51.636173 30.8885976 48.6668414 30.8885976 48.6668414 29.378768 56.9205767 29.378768"></polygon>
                <polygon id="Path" points="59.3363041 29.378768 62.0036697 29.378768 68.6972477 42.3129751 68.797903 42.3129751 68.797903 29.378768 71.0626474 29.378768 71.0626474 46.842464 68.8985583 46.842464 61.7017038 32.9017038 61.6513761 32.9520315 61.6513761 46.691481 59.3866317 46.691481 59.3866317 29.378768"></polygon>
                <path d="M79.0144168,39.5449541 L79.0144168,38.0351245 L86.5132372,38.0351245 L86.5132372,46.9934469 L84.2484928,46.9934469 L84.2484928,45.3326343 C83.6948886,45.8862385 82.9903014,46.2888598 82.185059,46.5908257 C81.3798165,46.8927916 80.5242464,47.0437746 79.6183486,47.0437746 C79.3163827,47.0437746 78.9640891,47.0437746 78.5111402,46.9934469 C78.0581913,46.9431193 77.6052425,46.842464 77.1019659,46.691481 C76.5986894,46.540498 76.1457405,46.2385321 75.642464,45.8862385 C75.1391874,45.533945 74.7365662,45.0306684 74.333945,44.3764089 C73.9313237,43.7221494 73.6293578,42.9672346 73.3777195,41.9606815 C73.1260813,41.0044561 73.025426,39.7965924 73.025426,38.4377457 C73.025426,36.7266055 73.1764089,35.2671035 73.5287025,34.1095675 C73.8306684,32.9017038 74.333945,31.9454784 74.8875491,31.2408912 C75.491481,30.4859764 76.1960682,29.9323722 77.0516383,29.6304063 C77.9072084,29.2781127 78.8634338,29.1271298 79.9706422,29.1271298 C80.9268676,29.1271298 81.7321101,29.2277851 82.3863696,29.4794233 C83.0909567,29.7310616 83.6445609,30.0330275 84.0975098,30.4859764 C84.5504587,30.9389253 84.9027523,31.4422018 85.1040629,31.995806 C85.3053735,32.5494102 85.4563565,33.2036697 85.4563565,33.8579292 L83.1916121,33.8579292 C83.2419397,33.455308 83.1916121,33.0526868 83.0909567,32.7003932 C82.9903014,32.297772 82.7889908,31.995806 82.5373526,31.6435125 C82.2857143,31.3415465 81.9334207,31.0899083 81.5307995,30.8885976 C81.1281782,30.687287 80.6249017,30.5866317 80.0712975,30.5866317 C79.3163827,30.5866317 78.6621232,30.7376147 78.108519,30.9892529 C77.5549148,31.2408912 77.1019659,31.5931848 76.8,31.995806 C76.4477064,32.3984273 76.1960682,32.9017038 75.9947575,33.4049803 C75.7934469,33.9585845 75.642464,34.5121887 75.5418087,35.0657929 C75.4411533,35.6193971 75.3908257,36.1730013 75.340498,36.7266055 C75.340498,37.2802097 75.2901704,37.7331586 75.2901704,38.1861075 C75.2901704,38.5887287 75.2901704,39.0416776 75.340498,39.5449541 C75.340498,40.0482307 75.4411533,40.6018349 75.491481,41.1554391 C75.5921363,41.7090433 75.7431193,42.2123198 75.8941022,42.765924 C76.0450852,43.3195282 76.3470511,43.7724771 76.649017,44.1750983 C77.0013106,44.5777195 77.4039318,44.9300131 77.9072084,45.1816514 C78.4104849,45.4332896 79.0144168,45.533945 79.7190039,45.533945 C80.2726081,45.533945 80.7758847,45.4332896 81.3294889,45.2823067 C81.8830931,45.1313237 82.3360419,44.8293578 82.7889908,44.4267366 C83.1916121,44.0241153 83.5439056,43.5711664 83.8458716,42.9169069 C84.0975098,42.3129751 84.2484928,41.5580603 84.2484928,40.7024902 L84.2484928,39.5449541 C84.2484928,39.5449541 79.0144168,39.5449541 79.0144168,39.5449541 Z" id="Path"></path>
                <polygon id="Path" points="85.7079948 4.36592398 85.7079948 1.74888598 84.802097 1.74888598 84.802097 1.24560944 87.268152 1.24560944 87.268152 1.74888598 86.3119266 1.74888598 86.3119266 4.36592398"></polygon>
                <polygon id="Path" points="87.6707733 4.36592398 87.6707733 1.24560944 88.6269987 1.24560944 89.1806029 3.3593709 89.7342071 1.24560944 90.6904325 1.24560944 90.6904325 4.36592398 90.0865007 4.36592398 90.0865007 1.89986894 89.4825688 4.36592398 88.878637 4.36592398 88.2747051 1.89986894 88.2747051 4.36592398 87.6707733 4.36592398"></polygon>
            </g>
        </g>
    </g>
</svg>