<?xml version="1.0" encoding="UTF-8"?>
<svg width="176px" height="48px" viewBox="0 0 176 48" version="1.1" xmlns="http://www.w3.org/2000/svg" xmlns:xlink="http://www.w3.org/1999/xlink">
    <!-- Generator: Sketch 60.1 (88133) - https://sketch.com -->
    <title>rabcat</title>
    <desc>Created with Sketch.</desc>
    <g id="design" stroke="none" stroke-width="1" fill="none" fill-rule="evenodd">
        <g id="main" transform="translate(-1409.000000, -352.000000)" fill="#FFB124">
            <g id="rabcat" transform="translate(1409.000000, 352.000000)">
                <path d="M27.5979899,34.2142772 L27.6651378,34.3239183 C27.8383325,34.2857231 28.0133773,34.2543776 28.1844511,34.2082893 C30.2447816,33.6529167 32.3016826,33.0842074 34.3664807,32.5462086 C34.8841242,32.4113006 35.2611092,32.1486066 35.5250076,31.6915344 C35.8418393,31.1427846 36.168734,30.599932 36.4912515,30.0544937 C37.3742826,28.5611613 38.2579454,27.0682825 39.1389458,25.5738161 C39.2193157,25.4375019 39.2824473,25.2908904 39.3535212,25.1490873 C39.3220682,25.123639 39.2905249,25.0981906 39.2590719,25.0727423 C35.3098907,28.0397651 31.4518645,31.1243221 27.5979899,34.2142772 M18.5625354,34.3318567 C18.5728242,34.3107631 18.5830679,34.2896696 18.5933116,34.2685761 C18.4740879,34.1627001 18.3592867,34.0512898 18.2350089,33.9517646 C16.118451,32.2571136 14.0092938,30.5531179 11.8805067,28.8741623 C10.3550579,27.671059 8.80388715,26.5009342 7.26142578,25.3197409 C7.14292417,25.2289706 7.03606514,25.088982 6.79892654,25.1127973 C6.97370062,25.4303346 7.11760833,25.7100849 7.27785175,25.980037 C8.37875247,27.8350897 9.49878674,29.6788925 10.5766731,31.5473271 C10.8954902,32.0998873 11.3190455,32.4397429 11.914216,32.5986476 C14.0191313,33.1605978 16.1238661,33.7234099 18.229323,34.2832735 C18.3371297,34.3119426 18.4513443,34.3162066 18.5625354,34.3318567 M0.151825516,0.0865969479 C0.561166001,0.502661487 0.974387345,0.915006304 1.37930545,1.33542564 C3.74292974,3.78967115 6.10474898,6.24564042 8.46683897,8.70142825 C9.31340798,9.58155082 10.1676485,10.4544608 10.9995063,11.3484189 C11.2506792,11.6183256 11.4662023,11.6696305 11.8208497,11.5372628 C14.6124065,10.4956499 17.4952989,9.86860451 20.4665937,9.63589506 C25.2433909,9.26174544 29.8859826,9.8603939 34.3825907,11.5353576 C34.7092148,11.6570197 34.9189166,11.6343385 35.1686905,11.3718259 C36.9251407,9.5259818 38.6979718,7.6958331 40.4648912,5.8600141 C42.0123165,4.25232294 43.5579367,2.642908 45.1066706,1.03648699 C45.4282856,0.702891413 45.7601443,0.379275579 46.1382123,0 C46.1480047,0.170199973 46.1602339,0.282880339 46.160279,0.395560705 C46.1617231,9.07389946 46.1614072,17.7522382 46.1639344,26.430577 C46.1639344,27.2940969 45.8391153,28.051514 45.4263452,28.7793094 C44.5292799,30.3610986 43.4372239,31.8073447 42.2794641,33.198793 C40.6783837,35.1230688 39.0190904,36.9983078 37.4121887,38.9177752 C36.2508639,40.3050501 35.1325895,41.7287965 33.9982953,43.1388888 C33.3634137,43.928105 32.6817361,44.6713236 31.914093,45.3327991 C30.3987976,46.6384669 28.6256507,47.3877188 26.6766016,47.7051653 C24.1943854,48.109481 21.7069346,48.1074397 19.2283286,47.6402063 C16.7914192,47.1808206 14.7448522,46.014733 13.1119577,44.1460262 C12.2891703,43.2043922 11.5389007,42.1991599 10.7345699,41.2407417 C9.27076365,39.4965096 7.79982743,37.7581291 6.31566921,36.0314069 C4.5454555,33.9718602 2.77736273,31.9119959 1.30173338,29.6201934 C0.801869577,28.8438148 0.333503919,28.0503799 0.135354424,27.1338767 C0.0623852293,26.7963345 0.00272828733,26.4474518 0.00245752965,26.1037404 C-0.00250636114,18.7558828 0.000878109851,11.4080252 0.00530048528,4.06016753 C0.00602250576,2.91122699 0.0195603897,1.76233181 0.0268708471,0.613481992 C0.0279087515,0.451628713 0.0270062259,0.289820796 0.0270062259,0.128058242 C0.0686126559,0.11422269 0.110219086,0.1004325 0.151825516,0.0865969479" id="Path"></path>
                <path d="M60.3303831,16.7986592 L60.3303831,24.6187709 C61.9917558,23.920846 63.3793456,23.1492977 64.2990982,21.725435 C64.6736792,21.1456664 64.6443496,20.5095132 64.3111891,19.9101117 C63.4553631,18.3701277 62.0128252,17.6066002 60.3303831,16.7986592 M72.9079968,37.6674541 C70.334174,37.6674541 67.987087,37.6618276 65.6401197,37.6717638 C65.1011732,37.6740383 64.8868875,37.319569 64.6726018,36.9212849 C63.6726417,35.0619074 62.6680128,33.2050439 61.6600319,31.3500958 C61.3069992,30.7005347 60.9394812,30.058755 60.4472227,29.4425938 C60.1633839,30.7875658 60.2682522,32.1174541 60.2492179,33.4390822 C60.2298244,34.7848923 60.2449082,36.1311812 60.2449082,37.6453073 C57.6243974,37.6973823 55.1392817,37.6909178 52.4941101,37.6479409 C52.3743974,28.5478611 52.5870072,19.5664166 52.5502554,10.4821389 C53.0941101,10.4475419 53.4791061,10.4025299 53.8642219,10.4018117 C57.2131844,10.3963049 60.562506,10.3752354 63.9108699,10.4188109 C64.5628252,10.4273105 65.2553631,10.5981405 65.8536872,10.8639026 C68.1374461,11.8784677 69.9076377,13.5091939 71.2497366,15.6100319 C72.8012131,18.0385235 72.9011732,20.5751157 71.6201277,23.1089545 C70.9773903,24.3803033 70.137486,25.5622267 69.2973424,26.7196089 C68.8131045,27.386648 68.7593536,27.9479808 69.0923943,28.6911572 C70.2322985,31.235411 71.316656,33.8044453 72.4166959,36.3664166 C72.5701676,36.7236393 72.6926337,37.09415 72.9079968,37.6674541" id="Path"></path>
                <path d="M106.199162,26.532103 C106.177973,28.4542099 106.151516,30.2040503 106.215922,32.1692538 C107.468715,31.5365722 108.432761,30.8914405 109.156664,29.9223663 C109.428412,29.5587989 109.398484,29.1595571 109.135595,28.8123903 C108.41241,27.8573224 107.516959,27.1173783 106.199162,26.532103 M106.269074,16.6452713 L106.269074,22.2389665 C107.480088,21.6517757 108.418037,20.9601955 109.148763,19.9983041 C109.422187,19.6384477 109.419194,19.2487829 109.158819,18.8878492 C108.446049,17.9003392 107.476975,17.2547287 106.269074,16.6452713 M113.949002,24.6502195 C114.727494,25.5639864 115.435355,26.3702514 116.113049,27.2011772 C116.438547,27.6001796 116.744413,28.0250399 116.994493,28.4742019 C117.738388,29.8105547 117.681405,31.1303871 116.860774,32.4297486 C115.951556,33.8686951 114.713368,34.9893256 113.405626,36.0402833 C111.387151,37.6626297 111.380567,37.6544896 108.761971,37.6544896 L100.631445,37.6544896 L99.3778132,37.6544896 C99.1033121,36.6739226 99.0317239,11.9121907 99.2782123,10.3473065 C99.5498404,10.3068436 99.8517558,10.2236433 100.153911,10.2228053 C103.661253,10.2138408 107.168715,10.2050878 110.675818,10.2319034 C111.086433,10.235016 111.570072,10.3473065 111.893057,10.582901 C113.896808,12.0443536 115.448643,13.8769154 116.327574,16.23334 C116.961931,17.9340982 116.937989,19.5884078 116.012729,21.1815443 C115.35431,22.314984 114.673025,23.4352554 113.949002,24.6502195" id="Path"></path>
                <path d="M83.446676,27.0549002 C84.84085,27.0881804 85.9911692,27.2654749 87.2371389,26.9106464 C86.7295571,25.0128412 86.1767239,23.2738947 85.460842,21.2949242 C85.2350638,21.7758101 85.1188228,21.9707023 85.0487909,22.1811572 C84.5371389,23.7198244 84.0348244,25.2616042 83.446676,27.0549002 M81.6699002,10.293328 C83.7767239,10.293328 85.7257662,10.293328 87.6746887,10.293328 C88.221656,10.293328 88.402901,10.6607263 88.5519433,11.1098883 C88.9908101,12.4334318 89.4596049,13.7470391 89.908767,15.0672306 C92.3090064,22.1227374 94.7078093,29.1786034 97.1031405,36.2357861 C97.2412889,36.6430487 97.3450798,37.0619234 97.483348,37.5393376 C97.2068117,37.5996728 97.0225738,37.6743735 96.8380966,37.6749721 C94.8039385,37.6819154 92.7696608,37.6862251 90.7356225,37.6718595 C89.7721748,37.6650359 89.7578093,37.650431 89.4958779,36.7533041 C89.2614804,35.9505108 89.0264844,35.1442458 88.8622386,34.3255307 C88.7406105,33.7193057 88.4714964,33.4220591 87.8297167,33.4294812 C86.0749681,33.4498324 84.3197406,33.4489944 82.564992,33.4361852 C81.999589,33.4319952 81.689174,33.6607662 81.5515044,34.2165922 C81.2753272,35.332075 80.9607223,36.4379808 80.6482721,37.5989545 L73.6028212,37.5989545 C74.360842,34.4806784 75.3783998,31.5225778 76.2385355,28.5230567 C77.1062131,25.497079 78.0463168,22.4919314 78.946676,19.4751716 C79.8459577,16.4621229 80.7353033,13.4459617 81.6699002,10.293328" id="Path"></path>
                <path d="M148.699381,21.5350319 C148.599541,21.5362291 148.499701,21.5373065 148.39986,21.5383839 C147.751736,23.2930128 147.162749,25.0670351 146.622007,27.0213448 C147.949501,27.1361492 149.100299,27.2072586 150.409836,26.9614884 C149.810076,25.0590144 149.254848,23.2969633 148.699381,21.5350319 M160.635575,37.6020311 L152.835215,37.6020311 C152.471169,36.2504749 152.11263,34.91915 151.735295,33.5185116 C151.211073,33.4860694 150.742997,33.4349521 150.274681,33.4323184 C148.759597,33.4239385 147.244154,33.4482402 145.72919,33.4286073 C145.108839,33.4204669 144.786213,33.6777294 144.64184,34.2770112 C144.381345,35.3594533 144.076915,36.4314804 143.770211,37.5849122 L136.69603,37.5849122 C136.809757,37.1236592 136.885295,36.7497965 136.993994,36.3858699 C139.431345,28.2165563 141.872406,20.04832 144.31239,11.8798444 C144.369374,11.6890223 144.416181,11.4948484 144.478671,11.3059417 C144.802374,10.3269314 144.818176,10.2925738 145.802454,10.2829968 C147.630347,10.265399 149.458599,10.2780886 151.386931,10.2780886 C154.475878,19.4036672 157.533101,28.4359896 160.635575,37.6020311" id="Path"></path>
                <path d="M136.021185,10.4168356 L136.021185,17.154146 C135.554785,17.1809617 135.167993,17.220826 134.780962,17.222502 C133.025854,17.229565 131.270507,17.2333958 129.515399,17.221664 C128.978368,17.2180726 128.526333,17.3133639 128.105543,17.7120072 C125.546445,20.136668 123.931161,26.418352 127.721624,30.3434916 C128.309533,30.9522306 128.929884,31.2814405 129.81492,31.2467239 C131.448041,31.1824381 133.085351,31.2285275 134.720866,31.2285275 L135.87334,31.2285275 C136.161608,32.1978412 136.203148,36.2033081 135.94421,37.5815603 C135.59429,37.6122067 135.211329,37.673739 134.828248,37.6750559 C131.75678,37.6863089 128.685072,37.6696688 125.613843,37.7011182 C124.80662,37.7090543 124.165319,37.4742977 123.553587,36.9456464 C119.767674,33.6736592 118.067753,29.4965243 118.151792,24.5538268 C118.205423,21.4046648 118.834872,18.382518 120.325295,15.5722626 C121.251512,13.8260136 122.451632,12.3011133 123.938583,11.0003152 C124.429525,10.5710255 124.951472,10.2663567 125.648799,10.270504 C128.800116,10.289581 131.951552,10.2762929 135.102749,10.2846728 C135.374258,10.2855108 135.645287,10.3605706 136.021185,10.4168356" id="Path"></path>
                <path d="M175.132147,10.4252514 L175.132147,18.2123224 L169.708803,18.2123224 C169.53486,24.7181085 169.645834,31.0776057 169.427598,37.5982362 C166.996592,37.7488348 164.633943,37.672099 162.135898,37.6448045 C162.098308,37.1005906 162.041325,36.6407741 162.038691,36.1807183 C162.006369,30.7604868 161.984222,25.3402554 161.952378,19.9200239 C161.949505,19.4099282 161.899705,18.8998324 161.86403,18.2495531 L156.644318,18.2495531 C156.564948,17.8216999 156.463551,17.5221788 156.461157,17.2218196 C156.445714,15.3088109 156.438771,13.3954429 156.456848,11.4823144 C156.467143,10.4124421 156.576919,10.2872227 157.61435,10.2847087 C163.114908,10.2715403 168.615587,10.2765166 174.116026,10.2841101 C174.42249,10.284589 174.728835,10.367071 175.132147,10.4252514" id="Path"></path>
            </g>
        </g>
    </g>
</svg>