<?xml version="1.0" encoding="UTF-8"?>
<svg width="247px" height="48px" viewBox="0 0 247 48" version="1.1" xmlns="http://www.w3.org/2000/svg" xmlns:xlink="http://www.w3.org/1999/xlink">
    <!-- Generator: Sketch 60.1 (88133) - https://sketch.com -->
    <title>jftw</title>
    <desc>Created with Sketch.</desc>
    <g id="design" stroke="none" stroke-width="1" fill="none" fill-rule="evenodd">
        <g id="main" transform="translate(-690.000000, -256.000000)" fill="#FFB124" fill-rule="nonzero">
            <g id="jftw" transform="translate(690.000000, 256.000000)">
                <path d="M12.1399594,47.8822177 C14.7971602,47.8822177 17.0334686,47.2838404 18.8488844,46.0870859 C20.6643002,44.8903313 22.0283976,43.1763354 22.9411765,40.945098 C23.8539554,38.7138607 24.3103448,35.3162948 24.3103448,30.7524003 L24.3103448,30.7524003 L24.3103448,2.51710615 L16.9168357,2.51710615 L16.9168357,31.3304936 C16.9168357,35.0627451 16.5517241,37.4714672 15.821501,38.5566599 C15.0912779,39.6418526 13.9553753,40.184449 12.4137931,40.184449 C10.831643,40.184449 9.64503043,39.4339419 8.85395538,37.9329277 C8.26572008,36.837593 7.93103448,34.9816092 7.84989858,32.3649763 L7.84989858,32.3649763 L0.882352941,33.3386072 C0.902636917,38.2067613 1.90669371,41.847735 3.89452333,44.2615281 C5.88235294,46.6753212 8.63083164,47.8822177 12.1399594,47.8822177 Z" id="Path"></path>
                <polygon id="Path" points="39.5537525 47.1215686 39.5537525 28.1661934 54.8580122 28.1661934 54.8580122 20.6205544 39.5537525 20.6205544 39.5537525 10.0627451 57.2616633 10.0627451 57.2616633 2.51710615 32.1906694 2.51710615 32.1906694 47.1215686"></polygon>
                <polygon id="Path" points="78.9553753 47.1215686 78.9553753 10.0627451 89.7870183 10.0627451 89.7870183 2.51710615 60.7302231 2.51710615 60.7302231 10.0627451 71.5922921 10.0627451 71.5922921 47.1215686"></polygon>
                <polygon id="Path" points="107.738337 47.1215686 114.979716 13.7747126 122.281947 47.1215686 130.131846 47.1215686 139.016227 2.51710615 131.592292 2.51710615 125.963489 33.6732928 119.543611 2.51710615 110.750507 2.51710615 104.056795 33.1560514 98.5801217 2.51710615 91.0040568 2.51710615 99.7363083 47.1215686"></polygon>
                <path d="M150.666937,18.7621366 C151.729817,18.7621366 152.624341,18.5227857 153.350507,18.0440838 C154.076673,17.565382 154.622312,16.8797836 154.987424,15.9872887 C155.352535,15.0947938 155.535091,13.7357674 155.535091,11.9102096 L155.535091,11.9102096 L155.535091,0.616091954 L152.577688,0.616091954 L152.577688,12.1414469 C152.577688,13.6343475 152.431643,14.5978364 152.139554,15.0319135 C151.847465,15.4659905 151.393103,15.6830291 150.776471,15.6830291 C150.143611,15.6830291 149.668966,15.3828262 149.352535,14.7824206 C149.117241,14.3442867 148.983367,13.6018932 148.950913,12.55524 L148.950913,12.55524 L146.163895,12.9446924 C146.172008,14.891954 146.573631,16.3483435 147.368763,17.3138607 C148.163895,18.279378 149.263286,18.7621366 150.666937,18.7621366 Z" id="Path"></path>
                <path d="M164.65071,18.7621366 C166.11927,18.7621366 167.301826,18.4315078 168.198377,17.7702502 C169.094929,17.1089926 169.670994,16.2448952 169.926572,15.1779581 C170.18215,14.111021 170.309939,12.3807978 170.309939,9.98728871 L170.309939,9.98728871 L170.309939,0.616091954 L167.352535,0.616091954 L167.351131,10.8853407 C167.339897,12.437677 167.261258,13.4628699 167.115213,13.9609195 C166.956998,14.5004733 166.66288,14.92238 166.23286,15.2266396 C165.80284,15.5308993 165.247059,15.6830291 164.565517,15.6830291 C163.762272,15.6830291 163.115213,15.4680189 162.624341,15.0379986 C162.133469,14.6079784 161.823124,13.9994591 161.693306,13.2124408 C161.620284,12.7580798 161.583773,11.7803922 161.583773,10.279378 L161.583773,0.616091954 L158.63854,0.616091954 L158.63854,10.1333333 C158.63854,12.8027045 158.831237,14.6343475 159.216633,15.6282623 C159.602028,16.6221771 160.222718,17.3929682 161.078702,17.9406356 C161.934686,18.4883029 163.125355,18.7621366 164.65071,18.7621366 Z" id="Path"></path>
                <path d="M178.658824,18.774307 C180.687221,18.774307 182.178093,18.2469236 183.13144,17.1921569 C184.084787,16.1373901 184.56146,14.8351589 184.56146,13.2854632 C184.56146,12.2144692 184.387018,11.3037187 184.038134,10.5532116 C183.689249,9.80270453 183.184178,9.19012847 182.522921,8.71548343 C181.861663,8.2408384 180.788641,7.78850575 179.303854,7.35848546 C177.900203,6.96091954 177.003651,6.59580798 176.614199,6.26315078 C176.224746,5.93049358 176.03002,5.52075727 176.03002,5.03394185 C176.03002,4.53901285 176.24503,4.12521974 176.675051,3.79256254 C177.105071,3.45990534 177.717647,3.29357674 178.512779,3.29357674 C179.307911,3.29357674 179.920487,3.48424611 180.350507,3.86558485 C180.780527,4.2469236 181.060446,4.91629479 181.190264,5.87369844 L181.190264,5.87369844 L184.147667,5.71548343 C184.090872,3.97917512 183.579716,2.64448952 182.614199,1.71142664 C181.648682,0.778363759 180.305882,0.311832319 178.585801,0.311832319 C177.441785,0.311832319 176.480325,0.510615281 175.70142,0.908181204 C174.922515,1.30574713 174.311968,1.89398242 173.869777,2.67288709 C173.427586,3.45179175 173.206491,4.3280595 173.206491,5.30169033 C173.206491,6.13739013 173.378905,6.91832319 173.723732,7.64448952 C174.06856,8.37065585 174.533063,8.95686275 175.117241,9.40311021 C175.70142,9.84935767 176.622312,10.2631508 177.879919,10.6444895 C179.28357,11.0745098 180.167951,11.3807978 180.533063,11.5633536 C180.898174,11.7459094 181.16998,11.9791751 181.348479,12.2631508 C181.526978,12.5471264 181.616227,12.891954 181.616227,13.2976335 C181.616227,13.9872887 181.360649,14.565382 180.849493,15.0319135 C180.338337,15.4984449 179.636511,15.7317106 178.744016,15.7317106 C176.942799,15.7317106 175.879919,14.5917512 175.555375,12.3118323 L175.555375,12.3118323 L172.670994,12.6526031 C173.076673,16.733739 175.072617,18.774307 178.658824,18.774307 Z" id="Path"></path>
                <polygon id="Path" points="193.287627 18.4578769 193.287627 3.63434753 197.620284 3.63434753 197.620284 0.616091954 185.997566 0.616091954 185.997566 3.63434753 190.342394 3.63434753 190.342394 18.4578769"></polygon>
                <polygon id="Path" points="208.184178 18.4578769 208.184178 10.8757268 214.305882 10.8757268 214.305882 7.85747126 208.184178 7.85747126 208.184178 3.63434753 215.267343 3.63434753 215.267343 0.616091954 205.238945 0.616091954 205.238945 18.4578769"></polygon>
                <path d="M224.212576,0.311832319 C226.305882,0.311832319 228.011765,1.11102096 229.330223,2.70939824 C230.648682,4.30777552 231.307911,6.58363759 231.307911,9.53698445 C231.307911,12.5227857 230.610142,14.8554429 229.214604,16.5349561 C227.989452,18.0197431 226.326166,18.7621366 224.224746,18.7621366 C222.107099,18.7621366 220.4357,18.0278567 219.210548,16.5592968 C217.81501,14.8797836 217.117241,12.575524 217.117241,9.64651792 C217.117241,7.52075727 217.431643,5.77025017 218.060446,4.39499662 C218.689249,3.01974307 219.510751,1.9954023 220.524949,1.32197431 C221.539148,0.648546315 222.768357,0.311832319 224.212576,0.311832319 Z M224.224746,3.39093982 C223.023935,3.39093982 222.046247,3.88992563 221.291684,4.88789723 C220.53712,5.88586883 220.159838,7.43150778 220.159838,9.52481406 C220.159838,11.5775524 220.54929,13.1171062 221.328195,14.1434753 C222.107099,15.1698445 223.072617,15.6830291 224.224746,15.6830291 C225.38499,15.6830291 226.34645,15.1739013 227.109128,14.1556457 C227.871805,13.1373901 228.253144,11.5734956 228.253144,9.46396214 C228.253144,7.39499662 227.881947,5.86558485 227.139554,4.87572684 C226.39716,3.88586883 225.425558,3.39093982 224.224746,3.39093982 Z" id="Path"></path>
                <path d="M239.839351,0.616091954 L240.151346,0.618228533 C241.579049,0.638169935 242.610953,0.797701149 243.247059,1.09682218 C243.9286,1.41730899 244.488438,1.97308993 244.926572,2.76416498 C245.364706,3.55524003 245.583773,4.50250169 245.583773,5.60594997 C245.583773,7.00148749 245.249087,8.12521974 244.579716,8.97714672 C243.910345,9.8290737 242.959026,10.3645707 241.725761,10.5836376 C242.358621,11.0379986 242.881947,11.5349561 243.29574,12.0745098 C243.709533,12.6140636 244.273428,13.5816092 244.987424,14.9771467 L244.987424,14.9771467 L246.7643,18.4578769 L243.247059,18.4578769 L241.105071,14.575524 L240.963448,14.3184959 C240.269831,13.064138 239.793712,12.2715179 239.535091,11.9406356 C239.259229,11.5876944 238.96714,11.3442867 238.658824,11.2104124 C238.350507,11.0765382 237.855578,11.0096011 237.174037,11.0096011 L237.174037,11.0096011 L236.565517,11.0096011 L236.565517,18.4578769 L233.620284,18.4578769 L233.620284,0.616091954 L239.839351,0.616091954 Z M236.565517,3.63434753 L236.565517,8.1617309 L238.756187,8.1617309 C240.094929,8.1617309 240.946856,8.10290737 241.311968,7.98526031 C241.677079,7.86761325 241.973225,7.63029074 242.200406,7.27329277 C242.427586,6.91629479 242.541176,6.44164976 242.541176,5.84935767 C242.541176,5.28140636 242.427586,4.8250169 242.200406,4.48018932 C241.973225,4.13536173 241.664909,3.89803922 241.275456,3.76822177 C241.022583,3.68640974 240.32997,3.64209488 239.197617,3.63527721 L239.197617,3.63527721 L236.565517,3.63434753 Z" id="Path"></path>
                <polygon id="Path" points="153.539148 47.0696416 153.539148 32.2461122 157.871805 32.2461122 157.871805 29.2278567 146.249087 29.2278567 146.249087 32.2461122 150.593915 32.2461122 150.593915 47.0696416"></polygon>
                <polygon id="Path" points="162.739959 47.0696416 162.739959 39.2684246 168.533063 39.2684246 168.533063 47.0696416 171.490467 47.0696416 171.490467 29.2278567 168.533063 29.2278567 168.533063 36.250169 162.739959 36.250169 162.739959 29.2278567 159.794726 29.2278567 159.794726 47.0696416"></polygon>
                <polygon id="Path" points="185.668966 47.0696416 185.668966 44.0635565 177.490467 44.0635565 177.490467 39.2075727 184.841379 39.2075727 184.841379 36.2014875 177.490467 36.2014875 177.490467 32.2461122 185.401217 32.2461122 185.401217 29.2278567 174.545233 29.2278567 174.545233 47.0696416"></polygon>
                <polygon id="Path" points="199.117241 47.0696416 202.013793 33.7308993 204.934686 47.0696416 208.074645 47.0696416 211.628398 29.2278567 208.658824 29.2278567 206.407302 41.6903313 203.839351 29.2278567 200.32211 29.2278567 197.644625 41.4834348 195.453955 29.2278567 192.423529 29.2278567 195.91643 47.0696416"></polygon>
                <polygon id="Path" points="215.997566 47.0696416 215.997566 29.2278567 213.052333 29.2278567 213.052333 47.0696416"></polygon>
                <polygon id="Path" points="221.608114 47.0696416 221.608114 35.4347532 227.49858 47.0696416 230.468154 47.0696416 230.468154 29.2278567 227.717647 29.2278567 227.717647 41.142664 221.729817 29.2278567 218.857606 29.2278567 218.857606 47.0696416"></polygon>
            </g>
        </g>
    </g>
</svg>