<?xml version="1.0" encoding="UTF-8"?>
<svg width="59px" height="48px" viewBox="0 0 59 48" version="1.1" xmlns="http://www.w3.org/2000/svg" xmlns:xlink="http://www.w3.org/1999/xlink">
    <!-- Generator: Sketch 60.1 (88133) - https://sketch.com -->
    <title>oldschool</title>
    <desc>Created with Sketch.</desc>
    <g id="design" stroke="none" stroke-width="1" fill="none" fill-rule="evenodd">
        <g id="main" transform="translate(-2007.000000, -256.000000)" fill="#FFB124">
            <g id="oldschool" transform="translate(2007.000000, 256.000000)">
                <path d="M39.5584752,7.05703565 L57.197378,7.05703565 C57.3958737,7.05703565 57.6001525,7.08710297 57.7913343,7.05061678 C58.3385157,6.94605683 58.8077956,6.76463939 58.8368811,6.07427342 C58.8654563,5.40079921 58.7047207,4.89742495 57.9401636,4.7996217 C57.661215,4.7639801 57.3785245,4.73914922 57.0973648,4.73881138 C50.5509187,4.73408169 44.0044727,4.73289927 37.4580267,4.73357494 C37.2042515,4.73357494 36.9069332,4.68036591 36.7065665,4.79016231 C36.3359391,4.99286336 35.8141013,5.25063152 35.7399418,5.57275726 C35.6550666,5.9411664 35.8635976,6.5499452 36.1612561,6.80416609 C39.0039799,9.23252459 40.254826,12.2297974 39.7630941,15.9566249 C39.1660762,20.4815879 35.582608,23.9854444 30.8163299,24.4128057 C27.3687641,24.7219248 24.3914986,23.5077456 22.2022629,20.7552343 C19.7230227,17.638199 19.3654923,14.1998826 20.8427289,10.5477165 C21.4428084,9.06445164 22.4693051,7.89148827 23.6097624,6.78575408 C23.9002771,6.50416855 24.151841,5.90687614 24.0450241,5.57343293 C23.9337849,5.22563172 23.3835419,4.9952282 22.9933541,4.76752736 C22.8436744,4.68002808 22.6057177,4.7361087 22.4079024,4.7361087 C15.8614563,4.73543303 9.31484022,4.73441953 2.7682241,4.74033164 C2.40389009,4.74066948 2.01234159,4.73019659 1.68338642,4.85502665 C1.40715932,4.9595866 1.10524855,5.21009131 0.986525332,5.47275808 C0.58936384,6.34977792 1.2073029,7.05483972 2.3406164,7.05534647 C8.00854461,7.05872482 13.6766429,7.05686673 19.3445711,7.05686673 L20.3249732,7.05686673 C20.0514676,7.44791082 19.7927598,7.71513837 19.6565172,8.03405467 C19.3870938,8.66513059 18.9465592,8.7943525 18.288989,8.78742689 C14.9453485,8.75178529 11.6008575,8.76884596 8.25687685,8.77492699 C7.949183,8.77543374 7.63995833,8.81749421 7.33413548,8.85955467 C6.61210099,8.95870927 6.17496821,9.36968563 6.26834794,10.0999161 C6.35798567,10.8009239 6.83815136,11.1308199 7.57617437,11.1198402 C8.96445364,11.0988944 10.3534133,11.1137592 11.7420327,11.1137592 C13.8640827,11.1139281 15.9859626,11.1139281 18.1775797,11.1139281 C18.0289205,11.7749024 17.8977807,12.3569923 17.7613681,12.963744 C15.577235,12.963744 13.4536542,12.9608724 11.3302434,12.9650954 C10.4207691,12.9669535 9.96356567,13.3583354 9.98805871,14.0931267 C10.0108508,14.7812967 10.4751981,15.1669355 11.3130643,15.1703138 C12.8151342,15.1762259 14.317204,15.1718341 15.8191038,15.1718341 C17.5802216,15.1718341 17.5807319,15.1716652 17.9163206,16.8468204 C17.9236345,16.8831376 17.8807716,16.92959 17.8443723,17.007292 C17.2050018,17.007292 16.5547455,17.0001975 15.9046593,17.0089812 C15.0263116,17.0208054 14.619455,17.3549243 14.5869677,18.0721482 C14.5531196,18.8199461 14.9766452,19.2532196 15.866389,19.2964625 C16.6297555,19.3334554 17.3985649,19.2739964 18.1600604,19.328219 C18.3952956,19.3449418 18.6747544,19.5471361 18.8300471,19.7451074 C19.810109,20.9944215 20.6239924,22.4047141 21.7489715,23.5031848 C24.4488192,26.1396497 27.8448476,27.0835609 31.5274786,26.5888014 C35.7952212,26.0154953 38.9034564,23.640008 40.8919853,19.850512 C41.1008565,19.4525423 41.2976513,19.2685911 41.7716937,19.2939287 C42.5047841,19.3329487 43.2472295,19.3245028 43.9777685,19.2545709 C44.6945302,19.1858215 45.1241789,18.7635276 45.0301189,18.002892 C44.9445633,17.3116814 44.4934831,17.0037448 43.8064873,17.007292 C43.1659262,17.0105015 42.5253651,17.0077988 41.9145698,17.0077988 C41.9404236,16.7111796 41.9870284,16.4877017 41.9744417,16.267771 C41.9300481,15.4970003 42.1520163,15.1118684 43.0591093,15.1502126 C44.8132534,15.2243674 46.5723301,15.1728476 48.3297059,15.1713273 C49.1830503,15.1706517 49.8317758,14.6650815 49.8018398,14.0292759 C49.7727543,13.4074904 49.1702935,12.9645886 48.3475654,12.9640819 C46.2535804,12.9632373 44.1595953,12.963913 42.0412873,12.963913 C41.899942,12.3377357 41.7694825,11.7600377 41.6237149,11.1139281 L42.6497013,11.1139281 C45.8804016,11.1139281 49.1112721,11.1021039 52.3418024,11.1228807 C53.0905411,11.1276104 53.5737684,10.7759241 53.6877291,10.1159633 C53.8125756,9.39451651 53.3298585,8.98860767 52.6297657,8.86445328 C52.3545592,8.81563611 52.0728892,8.77492699 51.7942808,8.77442023 C48.7903112,8.76817029 45.7836201,8.69874518 42.7832224,8.80229163 C41.3394936,8.8521223 40.1565136,8.72087338 39.5596658,7.22493968 C39.5508211,7.20331823 39.5584752,7.175109 39.5584752,7.05703565 L39.5584752,7.05703565 Z" id="Path"></path>
                <path d="M30.05975,7.73126999 C29.4440222,7.81522201 29.0383561,8.14089502 29.0596175,8.77146418 C29.0805386,9.39223612 29.4819524,9.76554388 30.1109473,9.74223326 C30.6957187,9.7204429 31.0651554,9.3429122 31.0709385,8.76268047 C31.0772318,8.13565857 30.6807507,7.80525587 30.05975,7.73126999 L30.05975,7.73126999 Z M31.4303399,5.57182821 C31.4517713,4.851226 30.8545833,4.21339339 30.1277863,4.18045447 C29.4016696,4.14751555 28.7571964,4.72892971 28.7138233,5.45578186 C28.6687493,6.2142216 29.2912808,6.88161479 30.052266,6.89056741 C30.7761715,6.89901329 31.4089085,6.29361284 31.4303399,5.57182821 L31.4303399,5.57182821 Z M27.248493,16.4967388 C25.038166,14.9584068 24.6316495,11.3494836 26.4533196,10.0912169 C26.0561581,8.14393553 25.9326723,6.18026918 26.6536863,4.24852823 C27.2478127,2.65681829 28.119867,1.27135666 29.6591867,0.43031625 C29.903777,0.296702479 30.3824119,0.288256602 30.5951952,0.440113467 C32.6716609,1.92168918 33.9862909,3.85799089 33.9786369,6.49006394 C33.9755752,7.49681245 33.8738611,8.50305421 33.837972,9.51014056 C33.8306581,9.71672671 33.8476671,10.0483118 33.9696221,10.1162167 C35.5172762,10.9766826 35.3194609,12.385117 34.953426,13.6727754 C34.6797502,14.6350986 34.0097634,15.4877943 33.4972805,16.3784965 C33.4476141,16.4648134 33.2632359,16.4747795 33.1275036,16.5254548 C32.9456768,15.5739423 32.7720143,14.6643213 32.5694365,13.6035192 C32.1528846,14.1682105 31.8647512,14.4808769 31.6764609,14.8445564 C31.5698142,15.0506357 31.5393679,15.3747885 31.6242431,15.58678 C32.3239958,17.334063 31.6128471,18.5455396 30.1646959,19.4962075 C28.5268938,18.5414855 28.1409583,17.6859182 28.5219611,15.8323861 C28.6406844,15.2553638 28.6406844,15.2553638 27.8749366,13.9318949 C27.0542496,14.6053691 27.5150249,15.607219 27.248493,16.4967388 L27.248493,16.4967388 Z" id="Path"></path>
                <path d="M20.9045058,15.4856322 C22.0777906,15.533098 22.5103309,16.3835978 22.9938984,17.1489632 C24.6774549,16.1908629 26.6972805,17.7852755 26.3610114,19.7616107 C26.8008657,19.9980952 27.2129951,20.219884 27.6567614,20.4585644 C28.801471,19.6437062 29.4592112,19.717861 30.4675082,20.8310276 C31.225942,19.6340779 31.8144554,19.4371201 33.3549658,19.8644815 C33.8936426,17.3982854 34.8623084,16.6251499 36.6460483,17.1234566 C36.914111,16.6878183 37.0857324,16.1798833 37.4407114,15.9084328 C37.6958473,15.713333 38.2301018,15.7369815 38.5709633,15.856744 C38.7272766,15.9116422 38.8368149,16.4621445 38.765717,16.7362976 C37.8540315,20.250458 35.7297704,22.599932 32.1007179,23.4823573 C27.107539,24.6963676 21.9772671,21.4517996 20.9126701,16.502009 C20.8499067,16.2097817 20.9045058,15.8925545 20.9045058,15.4856322" id="Path"></path>
                <path d="M11.9313946,36.2680127 C13.0835881,36.3734173 14.1922385,35.5485929 14.2211539,34.1425234 C14.2490487,32.7780075 13.2808932,31.9008187 11.9461924,31.8820689 C10.5300183,31.8623055 9.74402977,32.9589182 9.67735426,34.0827266 C9.60472559,35.3036625 10.6516331,36.2629452 11.9313946,36.2680127 M15.633586,33.325976 L15.633586,30.5886673 L16.9434535,30.5886673 L16.9434535,36.361593 L18.6091505,36.361593 L18.6091505,37.5838803 L15.6340963,37.5838803 L15.6340963,34.655357 C14.7271733,36.882028 13.0723621,38.000431 11.3750283,37.6093869 C9.67412254,37.217836 8.28091064,35.7229158 8.44998068,33.6930338 C8.56955435,32.2557145 10.0389668,30.6891733 11.5549841,30.5265057 C13.3717215,30.3315748 14.9020264,31.4139984 15.633586,33.325976" id="Path"></path>
                <path d="M26.6721411,40.7174357 C26.6721411,42.6454605 26.673842,44.5258505 26.6683991,46.4060716 C26.6680589,46.5406989 26.6364221,46.6842788 26.5826735,46.8079264 C26.2646041,47.5390015 25.2471223,47.832918 23.868198,47.6018388 C23.126433,47.4775155 22.589457,46.8717773 22.5787413,46.0748243 C22.5602015,44.7015248 22.5736386,43.3277184 22.5736386,41.9037436 L21.2624104,41.9037436 L21.2624104,47.6341021 C20.8297,47.6758247 20.4832255,47.7094393 20.0457525,47.7516687 L20.0457525,41.8942842 C19.5824258,41.8691155 19.1968305,41.8483387 18.7372457,41.8236767 L18.7372457,40.7037534 L23.9478004,40.7037534 C23.9478004,42.3383684 23.9682112,43.9875103 23.9369146,45.6358076 C23.9256886,46.2305663 24.138642,46.4172202 24.7247741,46.4189093 C25.3007008,46.4207674 25.4633074,46.183945 25.4585449,45.6623277 C25.4434068,44.0343005 25.4529319,42.4059354 25.4529319,40.7174357 L26.6721411,40.7174357 Z" id="Path"></path>
                <path d="M45.0522136,36.2678442 C46.4013721,36.2669992 47.2465521,35.4171751 47.238728,34.069551 C47.231244,32.7916898 46.3464328,31.8996363 45.0751759,31.8883188 C43.7573141,31.8766635 42.8349129,32.7788521 42.8277691,34.0864427 C42.8204552,35.4075468 43.6984627,36.2685195 45.0522136,36.2678442 M48.6077893,34.0835711 C48.6099982,36.0365957 47.0511181,37.6325286 45.1258628,37.6320219 C42.9849328,37.631684 41.5207931,36.0948722 41.4889862,34.1273208 C41.4581998,32.2386538 42.8464791,30.583093 45.0403073,30.5351205 C47.0325782,30.4913708 48.6055758,32.0894996 48.6077893,34.0835711" id="Path"></path>
                <path d="M37.7982929,36.2685255 C39.1498326,36.2632661 39.9749419,35.4286446 39.9677981,34.0740949 C39.9609945,32.7757947 39.0419951,31.8746196 37.7389313,31.8883019 C36.4610408,31.9018154 35.5013897,32.8659966 35.5163577,34.1217296 C35.5314958,35.3810098 36.480261,36.273739 37.7982929,36.2685255 M34.3119464,34.0727435 C33.9678531,32.1279959 36.3088097,30.48105 37.8239765,30.4992931 C39.3212839,30.5171983 41.400471,32.0864422 41.359139,34.1409862 C41.3188276,36.1458684 39.3600645,37.6842004 37.8122403,37.6463629 C35.7942857,37.5973768 34.311266,36.1291456 34.3119464,34.0727435" id="Path"></path>
                <path d="M37.306629,46.399781 C38.5419969,46.4034872 39.5855026,45.3695429 39.588229,44.1389787 C39.5909455,43.003515 38.4882483,41.883085 37.3467704,41.8612946 C36.1537551,41.8384908 35.0226528,42.9720963 35.0556504,44.1573907 C35.0896685,45.3737659 36.1158249,46.3962237 37.306629,46.399781 M37.223965,47.6560107 C35.3793327,47.6772943 33.6331829,45.9289978 33.7876252,43.818711 C33.9124716,42.108421 35.6009608,40.5293799 37.4180384,40.5724538 C39.3623437,40.6185683 41.0666513,42.3827431 40.9520102,44.269383 C40.8353281,46.1849079 39.1556837,47.7627666 37.223965,47.6560107" id="Path"></path>
                <path d="M20.2273072,36.2360197 C22.0807842,35.7562939 22.5259112,35.1514002 22.2350563,33.588913 C22.0170002,32.4181456 21.3189485,31.8570015 20.2273072,31.9946693 L20.2273072,36.2360197 Z M18.8500838,37.5790831 L18.8500838,31.944163 C18.5408591,31.9070011 18.2782393,31.8755825 18.0108569,31.8433192 C18.3755311,30.4777898 19.0951843,30.1433331 20.7627523,30.5948497 C23.2302563,31.2632564 24.0290016,32.9429724 23.5456042,35.1672785 C23.4015375,35.829942 22.6781423,36.4601733 22.0733002,36.9105075 C21.1794742,37.5760425 20.0908945,37.7721558 18.8500838,37.5790831 L18.8500838,37.5790831 Z" id="Path"></path>
                <path d="M28.7447798,41.8919532 L28.7447798,46.3020522 C30.196843,46.0888783 30.8806071,45.47689 30.9149654,44.3821355 C30.9620805,42.8834991 30.4320783,42.2583353 28.7447798,41.8919532 M27.5330545,47.568258 L27.5330545,41.9733714 C27.3025818,41.9098584 27.0857163,41.8500616 26.726485,41.7510759 C27.0544197,41.3399307 27.2639713,40.8051377 27.6235427,40.6730442 C29.2212035,40.0863936 31.4629973,41.1498984 32.0460678,42.785358 C32.6794851,44.5628772 32.3003532,46.1763775 30.296346,47.1662343 C29.4242916,47.5968051 28.5602315,47.7495066 27.5330545,47.568258" id="Path"></path>
                <path d="M35.3640416,37.5395226 C34.311351,37.8597902 33.7105911,37.551009 33.323465,36.5945979 C32.9846446,35.7569358 32.4638272,34.9920772 32.0234627,34.1949554 C31.9421594,34.197827 31.860686,34.2006986 31.7793827,34.2037391 L31.7793827,36.4604774 C31.7793827,37.6834403 31.7793827,37.6834403 30.4603303,37.5952654 L30.4603303,30.586539 L31.7354994,30.586539 C31.7603326,31.008495 31.7843154,31.4103498 31.8171429,31.9665952 C32.4568535,31.0762309 32.9269839,30.0537731 34.3053979,30.6569776 C33.9264361,31.207142 33.5501957,31.7784211 33.1470811,32.3301058 C32.8597981,32.7231769 32.8300322,33.0378702 33.1084705,33.4981705 C33.89633,34.8012004 34.5994845,36.1549055 35.3640416,37.5395226" id="Path"></path>
                <path d="M25.5087556,35.4702828 C25.9127207,35.3608242 26.3119233,35.2525481 26.7364694,35.1373463 C26.8330808,35.3642025 26.88785,35.6177478 27.0310662,35.8045706 C27.3957404,36.2804113 27.8777771,36.4618287 28.422237,36.1140275 C28.970439,35.7635236 29.0896725,35.2435954 28.6326391,34.7799168 C28.1313822,34.271475 27.4605449,33.9229981 26.9842913,33.3971578 C26.6158751,32.9898977 26.1664958,32.3733487 26.239975,31.9292645 C26.3211082,31.4380523 26.8767941,30.8878878 27.3680157,30.629444 C28.2674546,30.1557992 29.2500679,30.9976842 29.1230102,32.2444646 C28.6656367,32.0547702 28.2615015,31.887204 27.7415346,31.6718341 C27.7037745,31.7436241 27.5906642,31.9596696 27.5030676,32.1270669 C28.2922878,32.7723319 29.0878015,33.29851 29.7218991,33.9740112 C30.4456345,34.7449509 30.4376403,35.5636942 29.916993,36.4255114 C29.394815,37.2898625 28.4290407,37.7734734 27.5069797,37.6325961 C26.574373,37.4898608 25.8203615,36.741894 25.6181238,35.7633547 C25.6011148,35.6819364 25.5599529,35.6054168 25.5087556,35.4702828" id="Path"></path>
                <path d="M44.8146991,42.2175755 C44.2125785,42.0886914 43.627637,42.5408837 43.3998858,41.7640319 C43.3973344,41.7559239 43.0787547,41.8390313 42.9076436,41.8795715 C42.9738089,42.0898738 42.973979,42.3802431 43.1173653,42.4966273 C43.6767932,42.9516911 44.3328326,43.2967896 44.8584124,43.7834411 C45.8901819,44.7388386 45.9143347,46.1069018 44.990913,47.0163538 C43.9610146,48.0303657 42.466939,47.9926971 41.5146018,46.8720982 C41.2427971,46.5525062 40.942247,46.0486252 41.0196383,45.7119726 C41.0798503,45.4508261 41.7073144,45.3180569 42.0082047,45.1660311 C42.175914,45.2822463 42.2575575,45.3099488 42.2609593,45.3454215 C42.3218517,45.9565652 42.6555694,46.3587578 43.2648338,46.3721023 C43.5517766,46.3781833 44.0045577,46.194401 44.1030402,45.9736258 C44.3437183,45.4347789 44.2299278,44.8866415 43.6936322,44.4961041 C43.1983284,44.1356341 42.7047256,43.7709412 42.2339149,43.3798971 C41.6629208,42.9052388 41.3943478,42.2711224 41.7289159,41.5912293 C42.0565104,40.9262009 42.6571002,40.5457986 43.4575465,40.6696152 C44.243535,40.7914047 44.5047941,41.3895417 44.8146991,42.2175755" id="Path"></path>
                <path d="M18.332141,42.3515271 C17.9598127,42.173488 17.5929274,41.9821044 17.2119245,41.8255179 C17.0841865,41.7728156 16.9197089,41.8087951 16.7720702,41.8044032 C16.7899298,42.021969 16.7232543,42.3390272 16.8416373,42.4383507 C17.1989976,42.7376726 17.6345996,42.9432452 18.0283592,43.2021958 C19.1276546,43.9249939 19.6472813,44.9374857 19.3351651,46.040855 C19.0745864,46.9628069 18.3482996,47.4970931 17.4109304,47.716517 C16.4177716,47.9489475 14.8992029,46.9656785 14.796128,45.977342 C14.7775882,45.7986273 15.0587479,45.5170417 15.2679593,45.4045426 C15.5554124,45.2498142 15.8753527,45.0231268 16.1529406,45.5700818 C16.3313656,45.9214303 16.7684983,46.2200765 17.1559647,46.3570686 C17.3471465,46.4246356 17.9218825,46.067544 17.9183106,45.911802 C17.907765,45.4565692 17.8077518,44.914175 17.5315247,44.576171 C17.1540937,44.1143505 16.5723839,43.8209407 16.0954499,43.4342885 C15.4980918,42.9501708 15.2080874,42.3451082 15.5613655,41.5986616 C15.8595343,40.9685992 16.3706565,40.6039063 17.1022161,40.6665747 C17.9698481,40.7408984 18.3222757,41.3260287 18.4989999,42.0652119 C18.4433802,42.1606503 18.3877606,42.2560887 18.332141,42.3515271" id="Path"></path>
                <path d="M50.1408133,36.3780456 L51.7801463,36.3780456 L51.7801463,37.5667183 L48.8351981,37.5667183 L48.8351981,30.6451533 C50.0271928,30.3493787 50.1397928,30.4304592 50.1406433,31.6135576 C50.1416638,33.1787475 50.1408133,34.7439374 50.1408133,36.3780456" id="Path"></path>
                <polygon id="Path" points="32.4779447 47.6171766 33.610748 47.6171766 33.610748 40.6920643 32.4779447 40.6920643"></polygon>
            </g>
        </g>
    </g>
</svg>