<?xml version="1.0" encoding="UTF-8"?>
<svg width="204px" height="48px" viewBox="0 0 204 48" version="1.1" xmlns="http://www.w3.org/2000/svg" xmlns:xlink="http://www.w3.org/1999/xlink">
    <!-- Generator: Sketch 60.1 (88133) - https://sketch.com -->
    <title>genesis</title>
    <desc>Created with Sketch.</desc>
    <g id="design" stroke="none" stroke-width="1" fill="none" fill-rule="evenodd">
        <g id="main" transform="translate(-2052.000000, -160.000000)" fill="#FFB124">
            <g id="genesis" transform="translate(2052.000000, 160.000000)">
                <path d="M24.859623,4.71127226 C21.4139691,4.71127226 18.2006231,4.66765913 14.9887615,4.72108522 C9.4285857,4.81339968 5.28415242,8.85888114 4.99358193,14.4050178 C4.73195716,19.3998117 8.83631174,24.1696346 13.8138622,24.6555576 C19.299076,25.1912723 24.1575037,21.6382558 24.7805789,16.1175601 C25.197323,12.4246181 24.859623,8.64990154 24.859623,4.71127226 M30.5522811,0.279087702 L30.5522811,1.95782985 C30.5522811,10.7404243 30.5660118,19.5233823 30.5481991,28.3059768 C30.5300152,36.9671814 25.1086304,42.3574011 16.2731351,42.5031417 C13.6312815,42.5467548 10.9879436,42.5096836 8.21880306,42.5096836 L8.21880306,39.2328836 C10.2075224,39.2328836 12.1661828,39.2376084 14.1248431,39.2321567 C20.5389177,39.2147115 24.91603,34.9133663 24.9342139,28.6138128 C24.9368116,27.7749869 24.934585,26.9365244 24.934585,26.4033539 C22.3246459,27.3323136 19.7833602,28.6039999 17.0906661,29.1262671 C9.19368005,30.6578149 1.1590163,24.5963165 0.114001603,16.5834937 C-0.929528695,8.58048398 5.31755133,0.738479361 13.3904383,0.333240674 C19.0007125,0.0515725288 24.6377058,0.279087702 30.5522811,0.279087702" id="Path"></path>
                <path d="M105.750885,14.0543319 C110.649763,14.0543319 115.212796,14.3301849 119.717195,13.9474797 C122.278149,13.729414 124.342573,12.2233072 124.058682,8.29703496 C123.872019,5.70786868 122.71753,4.01059095 119.778055,3.75799823 C116.809635,3.50322484 113.758459,3.66095901 110.794863,4.03130719 C108.59573,4.30643336 106.980707,5.82526069 106.510896,8.03026797 C106.090812,10.001945 105.9921,12.0397686 105.750885,14.0543319 M106.305307,17.6756756 C107.120241,23.5296483 109.376522,25.6256227 115.149338,25.7768149 C119.520513,25.8912994 123.897625,25.7993484 128.400169,25.7993484 L128.400169,28.5535177 C122.943158,28.7058002 117.524,29.1342992 112.128963,28.935496 C105.823992,28.7028926 102.529004,25.7197544 101.01492,19.6782453 C100.105357,16.0492692 99.975101,12.3697746 100.733256,8.70336398 C101.648757,4.27263319 104.601592,1.5101047 109.185406,0.67091535 C113.859769,-0.184992369 118.529307,-0.218429104 123.126481,1.06161633 C128.652145,2.60043301 130.736237,6.07240177 129.50159,11.5462133 C129.009142,13.7297775 127.525488,15.3718119 125.468858,15.9442343 C122.423249,16.7917828 119.247755,17.3413083 116.091187,17.6149807 C112.908271,17.8911972 109.681195,17.6756756 106.305307,17.6756756" id="Path"></path>
                <path d="M40.8150602,14.0967456 C45.4868251,14.0967456 49.9329618,14.3119037 54.3445864,14.0229667 C57.4046685,13.8223463 58.812989,11.8375854 58.8279967,8.85081271 C58.8434192,5.69176816 57.747935,4.0613639 54.5976759,3.74953001 C51.7509757,3.46786186 48.8129852,3.6219616 45.9622029,3.9610537 C43.1440773,4.29614793 41.5071598,6.23075379 41.0818804,8.9365852 C40.814318,10.6404049 40.8911355,12.3958335 40.8150602,14.0967456 M41.2585235,17.6777472 C41.406592,22.6521884 43.9623506,25.4819538 48.7588047,25.6989291 C52.6954226,25.8770161 56.6535642,25.610976 60.6016861,25.5299282 C61.2674376,25.5164809 61.9320759,25.4441557 62.7091571,25.3914565 L62.7091571,28.1943272 C56.4687569,28.9666431 50.1908756,29.7814817 43.8803377,28.4225692 C40.0546784,27.5986445 37.6703676,25.1966512 36.4108577,21.6007485 C35.0151544,17.615962 34.8158743,13.5214157 35.4419183,9.42905015 C36.2264215,4.29832859 39.0898211,1.6012198 44.3579421,0.630100728 C48.906131,-0.207998296 53.4635974,-0.221082236 57.9190116,1.05859975 C64.5275421,2.95649789 65.1142495,6.23220756 64.0692348,12.0240315 C63.8057546,13.4839811 61.9636193,14.9671911 60.4821922,15.8579893 C57.5616433,17.6141447 54.1245247,17.606149 50.7902005,17.6657536 C47.6533009,17.7217238 44.5141747,17.6777472 41.2585235,17.6777472" id="Path"></path>
                <path d="M95.7701415,28.3739406 L90.2370559,28.3739406 C90.2370559,22.9139399 90.2507865,17.5418923 90.2248096,12.1702082 C90.2196142,11.1496609 90.1509609,10.1116684 89.9498253,9.11292763 C89.2187603,5.48540536 87.0853123,3.5184531 83.3539122,3.48392603 C80.4964502,3.45775815 77.6345349,3.90479276 74.6868958,4.14829941 L74.6868958,28.352134 L69.216897,28.352134 L69.216897,2.05995727 C71.3926503,1.65072071 73.6411389,1.05503801 75.9271086,0.83806268 C79.4146967,0.507693203 82.952012,0.101000745 86.4251273,0.336511659 C91.9582129,0.711584596 95.445801,4.15738548 95.7026015,9.59848717 C95.9950275,15.8035456 95.7701415,22.0322277 95.7701415,28.3739406" id="Path"></path>
                <path d="M134.821628,28.6236258 L134.821628,25.4169702 C135.756055,25.4707598 136.652259,25.5543516 137.549577,25.5688893 C141.749304,25.63758 145.951628,25.7971314 150.148387,25.70409 C152.834772,25.6448488 154.309148,24.3302763 154.516592,22.3665951 C154.793432,19.7501706 153.925803,18.4406863 151.077247,17.5967722 C147.721028,16.6023928 144.318051,15.7610228 140.943277,14.8247942 C135.584236,13.3379498 133.718722,11.0787896 134.853914,4.55826286 C135.270287,2.16571911 137.247502,0.897303851 139.490795,0.750836415 C144.028593,0.453903673 148.591997,0.461899414 153.14464,0.486613523 C154.906989,0.495699592 156.667482,0.891125324 158.498484,1.11936738 L158.498484,3.51227457 C155.703738,3.51227457 152.956121,3.50645949 150.208876,3.51445523 C148.047966,3.52063375 145.881491,3.45412373 143.727632,3.58459968 C141.438694,3.72379826 140.455653,4.69782488 140.153207,6.77308309 C139.864121,8.7600247 140.710969,10.4482164 142.71045,11.0944176 C145.862936,12.1127842 149.102259,12.8691086 152.284061,13.8060641 C153.928401,14.2901699 155.570514,14.8291555 157.135438,15.5153354 C158.970893,16.3196343 159.875633,17.8293755 160.064522,19.8057773 C160.686855,26.3070416 158.40237,28.9496339 151.670263,28.9954277 C146.12456,29.0335892 140.576631,28.7628243 134.821628,28.6236258" id="Path"></path>
                <path d="M177.932158,28.6660395 L177.932158,25.4452097 C178.643555,25.488096 179.28704,25.5516985 179.93201,25.5618749 C184.252345,25.6294752 188.578245,25.837001 192.892642,25.6978024 C196.371324,25.5854986 198.1667,23.3118007 197.076783,20.4420566 C196.657441,19.3382809 195.335957,18.2094276 194.167367,17.7994642 C190.817085,16.6251806 187.321704,15.8528647 183.909078,14.8388594 C182.5657,14.4394358 181.231599,13.9266181 180.000664,13.2716942 C178.439079,12.4405006 177.663111,11.0034479 177.467171,9.27927539 C177.419299,8.8587721 177.397404,8.43463439 177.376252,8.01195045 C177.126131,2.9688186 178.8985,0.900465803 184.024119,0.348032795 C189.770586,-0.271273682 195.460276,0.312051961 201.230865,1.13343262 L201.230865,3.53215489 C198.640965,3.53215489 196.080382,3.53070112 193.52017,3.53251833 C191.236798,3.53433555 188.948973,3.45074371 186.671539,3.56777228 C184.354397,3.68698151 183.255202,4.63629402 183.002112,6.40807752 C182.646599,8.89657015 183.378407,10.4324793 185.635059,11.1615455 C188.669536,12.1417506 191.778232,12.8998922 194.851302,13.7656129 C195.972763,14.0818081 197.102017,14.3852828 198.196388,14.7774376 C202.885595,16.4579969 204.712144,22.4951448 201.702902,26.4228708 C200.183994,28.4058145 197.813414,28.8833783 195.578656,28.9160882 C189.741641,29.0011338 183.900172,28.7721648 177.932158,28.6660395" id="Path"></path>
                <polygon id="Path" points="166.063151 1.21898705 171.386937 1.21898705 171.386937 28.386334 168.719849 28.386334 166.063151 28.386334"></polygon>
                <path d="M46.600666,47.8359526 C47.3757817,47.8359526 48.141262,47.6892801 48.897107,47.3959352 C49.6529519,47.1025903 50.2300063,46.7632095 50.6282702,46.3777929 L50.6282702,46.3777929 L50.6282702,42.626404 L46.5300063,42.626404 L46.5300063,44.2130359 L48.7076104,44.2130359 L48.7076104,45.4078276 C48.4206891,45.6305128 48.0770259,45.8200093 47.6766208,45.9763172 C47.2762158,46.1326251 46.8768813,46.210779 46.4786174,46.210779 C45.6735248,46.210779 45.0225989,45.9313519 44.5258396,45.3724977 C44.0290803,44.8136436 43.7807007,43.9753623 43.7807007,42.857654 C43.7807007,41.8213114 44.0258685,41.039772 44.5162042,40.5130359 C45.0065398,39.9862998 45.6671012,39.7229318 46.4978882,39.7229318 C47.0460364,39.7229318 47.5031833,39.856757 47.8693292,40.1244075 C48.235475,40.3920579 48.4849252,40.7571332 48.6176799,41.2196332 L48.6176799,41.2196332 L50.5062215,40.8663345 C50.3177956,40.0012882 49.8949079,39.3235973 49.2375583,38.8332616 C48.5802088,38.342926 47.6669854,38.0977582 46.4978882,38.0977582 C45.5985827,38.0977582 44.8470202,38.254066 44.2432007,38.5666818 C43.4509553,38.9735105 42.8492771,39.5580591 42.438166,40.3203276 C42.0270549,41.0825961 41.8214993,41.954066 41.8214993,42.9347373 C41.8214993,43.8383253 42.0056428,44.6744653 42.3739299,45.4431575 C42.7422169,46.2118496 43.2925063,46.8028218 44.0247979,47.2160741 C44.7570896,47.6293264 45.6157123,47.8359526 46.600666,47.8359526 Z" id="Path" fill-rule="nonzero"></path>
                <path d="M57.1032702,38.2583484 L60.8739299,47.6753623 L58.8055271,47.6753623 L57.9833049,45.5362998 L54.2190688,45.5362998 L53.4418118,47.6753623 L51.4247979,47.6753623 L55.0926799,38.2583484 L57.1032702,38.2583484 Z M56.0754924,40.4552234 L54.8036174,43.9496679 L57.3730618,43.9496679 L56.0754924,40.4552234 Z" id="Path" fill-rule="nonzero"></path>
                <polygon id="Path" fill-rule="nonzero" points="63.6232354 47.6753623 63.6232354 40.2625151 65.4860827 47.6753623 67.3168118 47.6753623 69.1860827 40.2625151 69.1860827 47.6753623 70.9525757 47.6753623 70.9525757 38.2583484 68.1004924 38.2583484 66.4110827 44.6819595 64.7024021 38.2583484 61.8567424 38.2583484 61.8567424 47.6753623"></polygon>
                <polygon id="Path" fill-rule="nonzero" points="74.6846938 47.6753623 74.6846938 38.2583484 72.7833049 38.2583484 72.7833049 47.6753623"></polygon>
                <polygon id="Path" fill-rule="nonzero" points="78.281916 47.6753623 78.281916 41.5343901 82.0782702 47.6753623 83.9860827 47.6753623 83.9860827 38.2583484 82.2195896 38.2583484 82.2195896 44.5470637 78.3654229 38.2583484 76.5154229 38.2583484 76.5154229 47.6753623"></polygon>
                <path d="M90.4482354,47.8359526 C91.2233512,47.8359526 91.9888315,47.6892801 92.7446764,47.3959352 C93.5005213,47.1025903 94.0775757,46.7632095 94.4758396,46.3777929 L94.4758396,46.3777929 L94.4758396,42.626404 L90.3775757,42.626404 L90.3775757,44.2130359 L92.5551799,44.2130359 L92.5551799,45.4078276 C92.2682586,45.6305128 91.9245954,45.8200093 91.5241903,45.9763172 C91.1237852,46.1326251 90.7244507,46.210779 90.3261868,46.210779 C89.5210942,46.210779 88.8701683,45.9313519 88.373409,45.3724977 C87.8766498,44.8136436 87.6282702,43.9753623 87.6282702,42.857654 C87.6282702,41.8213114 87.873438,41.039772 88.3637736,40.5130359 C88.8541093,39.9862998 89.5146706,39.7229318 90.3454577,39.7229318 C90.8936058,39.7229318 91.3507528,39.856757 91.7168986,40.1244075 C92.0830445,40.3920579 92.3324947,40.7571332 92.4652493,41.2196332 L92.4652493,41.2196332 L94.353791,40.8663345 C94.1653651,40.0012882 93.7424773,39.3235973 93.0851278,38.8332616 C92.4277783,38.342926 91.5145549,38.0977582 90.3454577,38.0977582 C89.4461521,38.0977582 88.6945896,38.254066 88.0907702,38.5666818 C87.2985248,38.9735105 86.6968465,39.5580591 86.2857354,40.3203276 C85.8746243,41.0825961 85.6690688,41.954066 85.6690688,42.9347373 C85.6690688,43.8383253 85.8532123,44.6744653 86.2214993,45.4431575 C86.5897864,46.2118496 87.1400757,46.8028218 87.8723674,47.2160741 C88.604659,47.6293264 89.4632817,47.8359526 90.4482354,47.8359526 Z" id="Path" fill-rule="nonzero"></path>
                <path d="M99.6661174,38.0977582 C100.479775,38.0977582 101.115712,38.3054549 101.57393,38.7208484 C102.032147,39.1362419 102.261256,39.6437072 102.261256,40.2432443 C102.261256,40.6243785 102.147772,40.9862419 101.920805,41.3288345 C101.693837,41.6714271 101.23562,42.058985 100.546152,42.4915082 L100.546152,42.4915082 L101.856569,44.2194595 L101.946499,44.0449943 C102.062981,43.7990128 102.165759,43.4995869 102.254833,43.1467165 L102.254833,43.1467165 L103.88643,43.5192859 L103.826409,43.7288061 C103.688703,44.2007073 103.567391,44.553755 103.462472,44.7879491 C103.342564,45.0555996 103.214092,45.2793554 103.077055,45.4592165 C103.278328,45.6476424 103.538484,45.8542686 103.857524,46.079095 C104.176563,46.3039213 104.411025,46.452735 104.560909,46.5255359 L104.560909,46.5255359 L103.468895,47.9194595 C102.933594,47.6582327 102.419705,47.2985105 101.927228,46.8402929 C101.546094,47.1828855 101.141407,47.4355475 100.713166,47.598279 C100.284925,47.7610105 99.7753188,47.8423762 99.1843465,47.8423762 C98.0109669,47.8423762 97.128791,47.5126308 96.5378188,46.8531401 C96.0796012,46.3435336 95.8504924,45.7568438 95.8504924,45.0930707 C95.8504924,44.4892512 96.0303535,43.9464561 96.3900757,43.4646852 C96.7497979,42.9829144 97.2872401,42.5643091 98.0024021,42.2088693 C97.6812215,41.827735 97.4392655,41.464801 97.276534,41.1200672 C97.1138026,40.7753334 97.0324368,40.4487998 97.0324368,40.1404665 C97.0324368,39.5709063 97.260475,39.0880649 97.7165514,38.6919422 C98.1726278,38.2958195 98.8224831,38.0977582 99.6661174,38.0977582 Z M98.9402493,43.3651193 L98.7412958,43.4736069 C98.4242787,43.6603675 98.180122,43.8768669 98.0088257,44.1231054 C97.8032702,44.4185915 97.7004924,44.7205012 97.7004924,45.0288345 C97.7004924,45.4185336 97.827894,45.7365024 98.0826972,45.9827408 C98.3375005,46.2289792 98.6790225,46.3520984 99.1072632,46.3520984 C99.3899021,46.3520984 99.661835,46.2964271 99.9230618,46.1850845 C100.184289,46.0737419 100.469069,45.8895984 100.777402,45.632654 L100.777402,45.632654 L98.9402493,43.3651193 Z M99.7110827,39.3696332 C99.4241614,39.3696332 99.199335,39.4413635 99.0366035,39.5848241 C98.873872,39.7282848 98.7925063,39.8942281 98.7925063,40.082654 C98.7925063,40.3053392 98.9295433,40.5751308 99.2036174,40.892029 L99.2036174,40.892029 L99.6468465,41.4059179 L100.135041,41.0333484 L100.261506,40.9290651 C100.536918,40.6859716 100.674624,40.4445174 100.674624,40.2047026 C100.674624,39.9734526 100.587906,39.7764619 100.414468,39.6137304 C100.241031,39.4509989 100.006569,39.3696332 99.7110827,39.3696332 Z" id="Path" fill-rule="nonzero"></path>
                <path d="M109.500666,38.2583484 L109.77121,38.2598038 C110.381755,38.2665954 110.847215,38.2971577 111.167593,38.3514908 C111.533739,38.4135857 111.861343,38.5431285 112.150406,38.7401193 C112.439468,38.93711 112.680353,39.1994075 112.873062,39.5270116 C113.06577,39.8546158 113.162124,40.2218322 113.162124,40.6286609 C113.162124,41.0697489 113.043288,41.4744364 112.805614,41.8427234 C112.56794,42.2110105 112.245689,42.4872257 111.83886,42.6713693 C112.412703,42.8383832 112.853791,43.1231632 113.162124,43.5257095 C113.470458,43.9282558 113.624624,44.4014619 113.624624,44.9453276 C113.624624,45.3735683 113.525058,45.7900325 113.325926,46.19472 C113.126794,46.5994075 112.854862,46.9227292 112.510128,47.1646852 C112.165394,47.4066413 111.740365,47.5554549 111.235041,47.6111262 C110.918143,47.6453855 110.153733,47.6667975 108.941812,47.6753623 L108.941812,47.6753623 L105.73643,47.6753623 L105.73643,38.2583484 L109.500666,38.2583484 Z M109.173062,43.5706748 L107.637819,43.5706748 L107.637819,46.0887304 L109.397888,46.0887304 C110.083073,46.0887304 110.517738,46.0694595 110.701881,46.0309179 C110.98452,45.979529 111.2147,45.8542686 111.392419,45.6551366 C111.570139,45.4560047 111.658999,45.1894248 111.658999,44.855397 C111.658999,44.5727582 111.590481,44.3329433 111.453444,44.1359526 C111.316407,43.9389619 111.118345,43.7955012 110.85926,43.7055707 C110.600174,43.6156401 110.038108,43.5706748 109.173062,43.5706748 L109.173062,43.5706748 Z M108.946228,39.8259326 L107.637819,39.8257095 L107.637819,42.0033137 L109.097841,42.0029925 L109.294853,42.002029 C109.797779,41.9986031 110.121187,41.9883253 110.265076,41.9711957 C110.590539,41.932654 110.846413,41.8202408 111.032697,41.6339561 C111.218982,41.4476713 111.312124,41.2025035 111.312124,40.8984526 C111.312124,40.6072489 111.231829,40.3706459 111.071239,40.1886436 C110.910649,40.0066413 110.671904,39.8963693 110.355006,39.8578276 C110.16658,39.8364156 109.624856,39.8257095 108.729833,39.8257095 Z" id="Path" fill-rule="nonzero"></path>
                <polygon id="Path" fill-rule="nonzero" points="122.392853 47.6753623 122.392853 46.0887304 117.131916 46.0887304 117.131916 43.5257095 121.859694 43.5257095 121.859694 41.9390776 117.131916 41.9390776 117.131916 39.851404 122.212992 39.851404 122.212992 38.2583484 115.230527 38.2583484 115.230527 47.6753623"></polygon>
                <polygon id="Path" fill-rule="nonzero" points="128.373235 47.6753623 128.373235 43.7248415 131.835562 38.2583484 129.64511 38.2583484 127.47393 41.9840429 125.257784 38.2583484 123.028791 38.2583484 126.47827 43.7119943 126.47827 47.6753623"></polygon>
                <path d="M136.948756,38.0977582 C138.336256,38.0977582 139.44647,38.5281401 140.279399,39.388904 C141.112327,40.2496679 141.528791,41.4466007 141.528791,42.9797026 C141.528791,44.4999572 141.115539,45.6893959 140.289034,46.5480186 C139.462529,47.4066413 138.357668,47.8359526 136.974451,47.8359526 C135.574103,47.8359526 134.460678,47.4087825 133.634173,46.5544422 C132.807668,45.7001019 132.394416,44.5235105 132.394416,43.0246679 C132.394416,42.0654086 132.537877,41.260316 132.824798,40.6093901 C133.038918,40.1297605 133.331193,39.6993785 133.701621,39.3182443 C134.072049,38.93711 134.477807,38.6544711 134.918895,38.4703276 C135.505585,38.221948 136.182205,38.0977582 136.948756,38.0977582 Z M136.968027,39.7229318 C136.184347,39.7229318 135.552691,39.9916528 135.073062,40.529095 C134.593432,41.0665371 134.353617,41.8769827 134.353617,42.9604318 C134.353617,44.0267512 134.599856,44.8350556 135.092333,45.385345 C135.58481,45.9356343 136.210041,46.210779 136.968027,46.210779 C137.726013,46.210779 138.348033,45.9377755 138.834086,45.3917686 C139.320139,44.8457616 139.563166,44.0267512 139.563166,42.9347373 C139.563166,41.8555707 139.326563,41.0504781 138.853357,40.5194595 C138.380151,39.988441 137.751708,39.7229318 136.968027,39.7229318 Z" id="Path" fill-rule="nonzero"></path>
                <polygon id="Path" fill-rule="nonzero" points="144.798409 47.6753623 144.798409 41.5343901 148.594763 47.6753623 150.502576 47.6753623 150.502576 38.2583484 148.736083 38.2583484 148.736083 44.5470637 144.881916 38.2583484 143.031916 38.2583484 143.031916 47.6753623"></polygon>
                <path d="M155.981916,38.2583484 L156.267064,38.2611588 C156.912035,38.2742736 157.414381,38.3332906 157.774103,38.4382095 C158.326534,38.600941 158.79974,38.8900035 159.193722,39.305397 C159.587703,39.7207906 159.887472,40.2293264 160.093027,40.8310047 C160.298583,41.4326829 160.40136,42.17461 160.40136,43.0567859 C160.40136,43.8319017 160.305006,44.4999572 160.112298,45.0609526 C159.876766,45.7461378 159.540597,46.3007095 159.103791,46.7246679 C158.774046,47.0458484 158.328675,47.2963693 157.76768,47.4762304 C157.348004,47.608985 156.787009,47.6753623 156.084694,47.6753623 L156.084694,47.6753623 L152.506742,47.6753623 L152.506742,38.2583484 L155.981916,38.2583484 Z M155.487362,39.8523033 L154.408131,39.851404 L154.408131,46.0887304 L155.827749,46.0887304 C156.358768,46.0887304 156.742043,46.0587535 156.977576,45.9987998 C157.285909,45.9217165 157.541783,45.7911031 157.745197,45.6069595 C157.948612,45.422816 158.114555,45.1198357 158.243027,44.6980186 C158.371499,44.2762014 158.435735,43.7012882 158.435735,42.973279 C158.435735,42.2452697 158.371499,41.6864156 158.243027,41.2967165 C158.114555,40.9070174 157.934694,40.6029665 157.703444,40.3845637 C157.472194,40.1661609 157.178849,40.0184179 156.823409,39.9413345 C156.5579,39.8813808 156.037587,39.851404 155.262472,39.851404 Z" id="Path" fill-rule="nonzero"></path>
            </g>
        </g>
    </g>
</svg>