<?xml version="1.0" encoding="UTF-8"?>
<svg width="146px" height="48px" viewBox="0 0 146 48" version="1.1" xmlns="http://www.w3.org/2000/svg" xmlns:xlink="http://www.w3.org/1999/xlink">
    <!-- Generator: Sketch 60.1 (88133) - https://sketch.com -->
    <title>triple_edge</title>
    <desc>Created with Sketch.</desc>
    <g id="design" stroke="none" stroke-width="1" fill="none" fill-rule="evenodd">
        <g id="main" transform="translate(-952.000000, -448.000000)" fill="#FFB124" fill-rule="nonzero">
            <g id="triple_edge" transform="translate(952.000000, 448.000000)">
                <polygon id="Path" points="47.3814128 29.8170854 47.3814128 20.2582085 44.5633272 20.2582085 44.5633272 18.0576664 52.4087384 18.0576664 52.4087384 20.2582085 49.8428888 20.2582085 49.8428888 29.8170854"></polygon>
                <path d="M53.9047591,29.8170854 L53.9047591,18.0663642 L59.0190627,18.0663642 C61.1500225,18.0663642 62.3764116,19.3449401 62.3764116,20.7191917 L62.3764116,23.2154589 C62.3764116,24.1374252 61.8023571,25.0246003 60.7499239,25.4942812 L62.6460432,29.8170854 L60.0627981,29.8170854 L58.3058435,25.8247974 L56.3923285,25.8247974 L56.3923285,29.8170854 L53.9047591,29.8170854 L53.9047591,29.8170854 Z M56.3923285,20.2756041 L56.3923285,23.632953 L58.7581288,23.632953 C59.3930679,23.632953 59.9149356,23.3111346 59.9149356,22.6588 L59.9149356,21.2497572 C59.9149356,20.580027 59.3756723,20.2756041 58.7233376,20.2756041 L56.3923285,20.2756041 L56.3923285,20.2756041 Z" id="Path"></path>
                <polygon id="Path" points="64.4029978 29.8170854 64.4029978 18.0663642 66.8818694 18.0663642 66.8818694 29.8170854"></polygon>
                <path d="M68.8997579,29.8170854 L68.8997579,18.0663642 L73.9618747,18.0663642 C76.0928345,18.0663642 77.3192236,19.3449401 77.3192236,20.7191917 L77.3192236,23.2154589 C77.3192236,24.5723149 76.1102301,25.8682864 73.9966658,25.8682864 L71.3786295,25.8682864 L71.3786295,29.8257832 L68.8997579,29.8257832 L68.8997579,29.8170854 Z M71.3786295,20.2756041 L71.3786295,23.6590464 L73.7096386,23.6590464 C74.3271821,23.6590464 74.8490498,23.3198324 74.8490498,22.6501022 L74.8490498,21.2410594 C74.8490498,20.5713292 74.3271821,20.2669063 73.6748474,20.2669063 L71.3786295,20.2669063 L71.3786295,20.2756041 Z" id="Path"></path>
                <polygon id="Path" points="86.1387878 29.8170854 79.0935738 29.8170854 79.0935738 18.0663642 81.5724454 18.0663642 81.5724454 27.625241 86.13009 27.625241 86.13009 29.8170854"></polygon>
                <polygon id="Path" points="95.0540278 29.8170854 87.6261108 29.8170854 87.6261108 18.0663642 94.8887697 18.0663642 94.8887697 20.2669063 90.1136802 20.2669063 90.1136802 22.7805691 94.3060174 22.7805691 94.3060174 24.9811113 90.1136802 24.9811113 90.1136802 27.6339388 95.0627256 27.6339388 95.0627256 29.8170854"></polygon>
                <polygon id="Path" points="109.32711 29.8170854 101.899193 29.8170854 101.899193 18.0663642 109.161851 18.0663642 109.161851 20.2669063 104.386762 20.2669063 104.386762 22.7805691 108.579099 22.7805691 108.579099 24.9811113 104.386762 24.9811113 104.386762 27.6339388 109.335807 27.6339388 109.335807 29.8170854"></polygon>
                <path d="M111.301509,18.0837598 L116.650653,18.0837598 C118.764217,18.0837598 119.973211,19.3710334 119.973211,20.7539829 L119.973211,27.1555601 C119.973211,28.5298117 118.764217,29.8257832 116.650653,29.8257832 L111.301509,29.8257832 L111.301509,18.0837598 L111.301509,18.0837598 Z M113.789078,20.2756041 L113.789078,27.6165432 L116.354928,27.6165432 C116.989867,27.6165432 117.511735,27.2773292 117.511735,26.607599 L117.511735,21.2758506 C117.511735,20.6061203 116.989867,20.2669063 116.354928,20.2669063 L113.789078,20.2669063 L113.789078,20.2756041 Z" id="Path"></path>
                <path d="M127.801226,22.0847455 L127.801226,21.1801748 C127.801226,20.5104446 127.279359,20.1712306 126.64442,20.1712306 L125.217981,20.1712306 C124.600438,20.1712306 124.07857,20.5104446 124.07857,21.1801748 L124.07857,26.7119725 C124.07857,27.3817027 124.600438,27.7209167 125.217981,27.7209167 L126.64442,27.7209167 C127.279359,27.7209167 127.801226,27.3817027 127.801226,26.7119725 L127.801226,25.5551658 L125.870316,25.5551658 L125.870316,23.3459258 L130.262702,23.3459258 L130.262702,27.2512358 C130.262702,28.6254874 129.053709,29.9214589 126.940145,29.9214589 L125.061421,29.9214589 C122.878274,29.9214589 121.591001,28.6341852 121.591001,27.2512358 L121.591001,20.6409115 C121.591001,19.2666599 122.878274,17.9706884 125.061421,17.9706884 L126.940145,17.9706884 C129.053709,17.9706884 130.262702,19.2579621 130.262702,20.6409115 L130.262702,22.0847455 L127.801226,22.0847455 L127.801226,22.0847455 Z" id="Path"></path>
                <polygon id="Path" points="139.54325 29.8170854 132.115333 29.8170854 132.115333 18.0663642 139.377992 18.0663642 139.377992 20.2669063 134.602902 20.2669063 134.602902 22.7805691 138.795239 22.7805691 138.795239 24.9811113 134.602902 24.9811113 134.602902 27.6339388 139.551948 27.6339388 139.551948 29.8170854"></polygon>
                <path d="M22.2790453,21.87963 L35.738292,18.3637237 L35.738292,23.8872177 L22.2790453,27.6028317 L22.2790453,21.87963 Z M22.2790453,38.1505506 L35.738292,34.4349366 L35.738292,28.9061871 L22.2790453,32.4220934 L22.2790453,38.1505506 Z M22.2790453,11.3897212 L22.2790453,17.1129229 L35.738292,13.3973089 L35.738292,7.87381488 L22.2790453,11.3897212 Z" id="Path"></path>
                <path d="M6.11323399,13.4235863 L6.11323399,7.9000922 L19.4726268,11.3897212 C19.4726268,4.94126523 19.4726268,0.237623762 19.4726268,0.237623762 C14.2592052,3.6116325 0.589739939,3.61688796 0.589739939,3.61688796 C6.61775866,16.0881072 0.28492295,24.9803545 0.28492295,24.9803545 C6.62301413,39.080768 19.4726268,47.6366655 19.4726268,47.6366655 C19.4726268,47.5263007 19.4726268,30.6877898 19.4726268,17.1129229 L6.11323399,13.4235863 Z" id="Path"></path>
                <path d="M143.996521,18.1620399 C142.926692,18.1620399 142.048215,19.0318194 142.048215,20.110346 C142.048215,21.1801748 142.917994,22.0586521 143.996521,22.0586521 C145.06635,22.0586521 145.944827,21.1888726 145.944827,20.110346 C145.944827,19.0318194 145.075047,18.1620399 143.996521,18.1620399 Z M143.996521,21.9020918 C143.004972,21.9020918 142.196077,21.0931969 142.196077,20.1016482 C142.196077,19.1100996 143.004972,18.3012046 143.996521,18.3012046 C144.98807,18.3012046 145.796964,19.1100996 145.796964,20.1016482 C145.796964,21.1018947 144.98807,21.9020918 143.996521,21.9020918 Z M142.457011,19.4493136 L143.579027,19.4493136 L143.579027,19.7102475 L143.178928,19.7102475 L143.178928,20.8670542 L142.85711,20.8670542 L142.85711,19.7102475 L142.457011,19.7102475 L142.457011,19.4493136 L142.457011,19.4493136 Z M145.388168,19.4493136 L145.388168,20.8583564 L145.075047,20.8583564 L145.075047,20.0146703 C145.075047,19.9276923 145.075047,19.8233188 145.083745,19.7102475 L145.075047,19.7102475 C145.057652,19.7972254 145.040256,19.85811 145.031558,19.9015989 L144.701042,20.8583564 L144.440108,20.8583564 L144.100894,19.9102967 C144.092197,19.8842034 144.074801,19.8233188 144.057405,19.7102475 L144.048708,19.7102475 C144.057405,19.8494122 144.057405,19.9711813 144.057405,20.0755548 L144.057405,20.8583564 L143.770378,20.8583564 L143.770378,19.4493136 L144.240059,19.4493136 L144.527086,20.2843019 C144.55318,20.3538843 144.570575,20.4147689 144.579273,20.4843512 L144.587971,20.4843512 C144.605367,20.4060711 144.622762,20.3364887 144.640158,20.2843019 L144.927185,19.4493136 L145.388168,19.4493136 Z" id="Path"></path>
                <path d="M47.7728136,37.3580737 L47.7728136,37.601612 C47.7728136,37.9756172 48.1033298,38.2104576 48.520824,38.2104576 L49.112274,38.2104576 C49.538466,38.2104576 49.8689822,38.0104084 49.8689822,37.6277054 L49.8689822,37.4015627 C49.8689822,36.7666237 47.1030834,36.6187611 47.1030834,35.1488338 L47.1030834,34.6617572 C47.1030834,34.0877028 47.6162533,33.5484395 48.4512416,33.5484395 L49.1209718,33.5484395 C50.0081469,33.5484395 50.5648058,34.0964006 50.5648058,34.7052462 L50.5648058,35.2879985 L49.7124219,35.2879985 L49.7124219,34.8878999 C49.7124219,34.5225925 49.3993013,34.3051476 49.0165983,34.3051476 L48.5817085,34.3051476 C48.2337967,34.3051476 47.9467695,34.5138947 47.9467695,34.8444109 L47.9467695,35.0792514 C47.9467695,35.862053 50.7039705,36.0099155 50.7039705,37.2710958 L50.7039705,37.8103591 C50.7039705,38.4539959 50.1299161,38.9671658 49.2079498,38.9671658 L48.4599394,38.9671658 C47.5205775,38.9671658 46.9204297,38.4018091 46.9204297,37.7842657 L46.9204297,37.3667715 L47.7728136,37.3667715 L47.7728136,37.3580737 Z" id="Path"></path>
                <polygon id="Path" points="63.2548889 38.9149791 63.2548889 34.3486366 61.8893351 34.3486366 61.8893351 33.5919284 65.3597553 33.5919284 65.3597553 34.3486366 64.098575 34.3486366 64.098575 38.9149791"></polygon>
                <path d="M79.0935738,38.9671658 L78.1803053,38.9671658 C77.301828,38.9671658 76.7277735,38.4018091 76.7277735,37.7842657 L76.7277735,33.5919284 L77.5888552,33.5919284 L77.5888552,37.601612 C77.5888552,37.9756172 77.8758825,38.2104576 78.2324921,38.2104576 L78.997898,38.2104576 C79.3545076,38.2104576 79.6415349,37.9756172 79.6415349,37.601612 L79.6415349,33.5919284 L80.4939188,33.5919284 L80.4939188,37.7842657 C80.5026166,38.4018091 79.9633533,38.9671658 79.0935738,38.9671658 Z" id="Path"></path>
                <path d="M92.2359422,33.5919284 L94.619138,33.5919284 C95.4802198,33.5919284 96.0194831,34.1572851 96.0194831,34.7748286 L96.0194831,37.7233811 C96.0194831,38.3496224 95.4802198,38.9062813 94.619138,38.9062813 L92.2359422,38.9062813 L92.2359422,33.5919284 Z M93.0883261,34.3486366 L93.0883261,38.1669687 L94.5234623,38.1669687 C94.8887697,38.1669687 95.1757969,37.9321282 95.1757969,37.558123 L95.1757969,34.9574823 C95.1757969,34.5834771 94.8887697,34.3486366 94.5234623,34.3486366 L93.0883261,34.3486366 Z" id="Path"></path>
                <polygon id="Path" points="107.70932 38.9149791 107.70932 33.5832307 108.561704 33.5832307 108.561704 38.9149791"></polygon>
                <path d="M121.686676,38.9671658 C120.799501,38.9671658 120.234145,38.4018091 120.234145,37.7842657 L120.234145,34.7400374 C120.234145,34.1137962 120.799501,33.5571373 121.686676,33.5571373 L122.626038,33.5571373 C123.48712,33.5571373 124.026383,34.1224939 124.026383,34.7400374 L124.026383,37.7842657 C124.026383,38.4105069 123.48712,38.9671658 122.626038,38.9671658 L121.686676,38.9671658 Z M122.521665,38.2104576 C122.886972,38.2104576 123.173999,37.9756172 123.173999,37.601612 L123.173999,34.9139933 C123.173999,34.5399881 122.886972,34.3051476 122.521665,34.3051476 L121.730165,34.3051476 C121.382254,34.3051476 121.086529,34.5399881 121.086529,34.9139933 L121.086529,37.601612 C121.086529,37.9756172 121.382254,38.2104576 121.730165,38.2104576 L122.521665,38.2104576 Z" id="Path"></path>
                <path d="M136.38595,37.3580737 L136.38595,37.601612 C136.38595,37.9756172 136.716466,38.2104576 137.133961,38.2104576 L137.725411,38.2104576 C138.151603,38.2104576 138.482119,38.0104084 138.482119,37.6277054 L138.482119,37.4015627 C138.482119,36.7666237 135.71622,36.6187611 135.71622,35.1488338 L135.71622,34.6617572 C135.71622,34.0877028 136.22939,33.5484395 137.064378,33.5484395 L137.734108,33.5484395 C138.621284,33.5484395 139.177942,34.0964006 139.177942,34.7052462 L139.177942,35.2879985 L138.334256,35.2879985 L138.334256,34.8878999 C138.334256,34.5225925 138.021136,34.3051476 137.638433,34.3051476 L137.194845,34.3051476 C136.846933,34.3051476 136.559906,34.5138947 136.559906,34.8444109 L136.559906,35.0792514 C136.559906,35.862053 139.317107,36.0099155 139.317107,37.2710958 L139.317107,37.8103591 C139.317107,38.4539959 138.743053,38.9671658 137.821086,38.9671658 L137.073076,38.9671658 C136.133714,38.9671658 135.533566,38.4018091 135.533566,37.7842657 L135.533566,37.3667715 L136.38595,37.3667715 L136.38595,37.3580737 Z" id="Path"></path>
            </g>
        </g>
    </g>
</svg>