<?xml version="1.0" encoding="UTF-8"?>
<svg width="236px" height="48px" viewBox="0 0 236 48" version="1.1" xmlns="http://www.w3.org/2000/svg" xmlns:xlink="http://www.w3.org/1999/xlink">
    <!-- Generator: Sketch 60.1 (88133) - https://sketch.com -->
    <title>playson</title>
    <desc>Created with Sketch.</desc>
    <g id="design" stroke="none" stroke-width="1" fill="none" fill-rule="evenodd">
        <g id="main" transform="translate(-333.000000, -352.000000)" fill="#FFB124" fill-rule="nonzero">
            <g id="playson" transform="translate(333.000000, 352.000000)">
                <polygon id="Path" points="182.793514 0 182.793514 15.9610811 200.332973 7.97837838"></polygon>
                <polygon id="Path" points="200.332973 7.97837838 200.332973 23.9394595 217.868108 15.9610811"></polygon>
                <polygon id="Path" points="200.332973 23.9351351 200.332973 39.9005405 217.868108 31.9178378"></polygon>
                <polygon id="Path" points="217.868108 15.9610811 217.868108 31.9178378 235.403243 23.9351351"></polygon>
                <polygon id="Path" points="182.793514 15.9610811 182.793514 31.9178378 200.332973 23.9351351"></polygon>
                <polygon id="Path" points="182.793514 31.9178378 182.793514 47.8789189 200.332973 39.9005405"></polygon>
                <path d="M18.9275676,6.13608122 C19.483261,6.13166801 20.0338907,6.24208841 20.5448649,6.46054054 C21.0369209,6.66696545 21.4880117,6.95988155 21.8767568,7.32540541 C22.2593978,7.68069655 22.5654684,8.11037246 22.7762162,8.58810811 C22.9922693,9.07840009 23.1013586,9.60910492 23.0964466,10.1448649 L23.0964466,16.3718919 C23.1021599,16.9077292 22.9930361,17.4386017 22.7762162,17.9286486 C22.566731,18.4083588 22.260529,18.8396914 21.8767568,19.1956757 C21.4869345,19.5598243 21.0361028,19.8525722 20.5448649,20.0605405 C20.0338907,20.2789927 19.483261,20.3894131 18.9275676,20.3848649 L4.17297297,20.3848649 C4.04910143,20.3916344 3.92495262,20.3916344 3.80108108,20.3848649 C3.68786748,20.3773889 3.5752218,20.3629472 3.46378378,20.3416216 L3.46378378,28.3243243 L0.00432432432,28.3243243 L0.00432432432,6.13608122 L18.9275676,6.13608122 Z M19.632463,10.1405405 C19.6329839,9.95989531 19.5576763,9.78731539 19.4248649,9.66486486 C19.2925266,9.53448447 19.1133163,9.46280033 18.9275676,9.46594595 L4.17297297,9.46594595 C3.98704321,9.46180781 3.80746058,9.53364086 3.67567568,9.66486486 C3.53989997,9.78555491 3.46269076,9.9588817 3.4637538,10.1405405 L3.4637538,16.3675676 C3.46200744,16.5506133 3.5392273,16.7255399 3.67567568,16.8475676 C3.80746058,16.9787916 3.98704321,17.0506246 4.17297297,17.0464865 L18.9275676,17.0464865 C19.1133163,17.0496321 19.2925266,16.977948 19.4248649,16.8475676 C19.5587935,16.7241013 19.6342039,16.549715 19.632463,16.3675676 L19.632463,10.1405405 Z" id="Path"></path>
                <polygon id="Path" points="24.7654054 6.07135135 28.2291892 6.07135135 28.2291892 24.9686486 47.8616216 24.9686486 47.8616216 28.2983784 24.7654054 28.2983784"></polygon>
                <path d="M68.7135135,6.10594595 C69.8111622,6.09596016 70.8693429,6.51488802 71.6627027,7.27351351 C72.0434854,7.64380365 72.3489317,8.08435114 72.5621622,8.57081081 C72.7761001,9.06177537 72.8850956,9.5920239 72.8822198,10.1275676 L72.8822198,28.3156757 L69.4227027,28.3156757 L69.4227027,20.5318919 L53.2497297,20.5318919 L53.2497297,28.3156757 L49.7902126,28.3156757 L49.7902126,10.1102703 C49.7873368,9.5747266 49.8963324,9.04447808 50.1102703,8.55351351 C50.3219403,8.06618336 50.6275846,7.62535025 51.0097297,7.25621622 C51.8030895,6.49759072 52.8612702,6.07866287 53.9589189,6.08847414 L68.7135135,6.10594595 Z M69.4183814,17.2021622 L69.4183814,10.1102703 C69.4189298,9.92962504 69.3436222,9.75704512 69.2108108,9.63459459 C69.0783745,9.50385549 68.8996096,9.43079505 68.7135135,9.43132839 L53.9545946,9.43132839 C53.7683135,9.42983963 53.5891964,9.50304402 53.4572973,9.63459459 C53.3244859,9.75704512 53.2491783,9.92962504 53.2497267,10.1102703 L53.2497267,17.2021622 L69.4183814,17.2021622 Z" id="Path"></path>
                <polygon id="Path" points="98.1275676 6.10594595 87.4767568 19.9740541 87.4767568 28.2983784 84.012973 28.2983784 84.012973 19.9740541 73.3621622 6.10594595 77.4356757 6.10594595 85.7427027 16.2162162 94.0194595 6.10594595"></polygon>
                <path d="M121.478919,11.4075676 L118.019459,11.4075676 L118.019459,10.1102703 C118.020011,9.92962504 117.944703,9.75704512 117.811892,9.63459459 C117.680548,9.50221046 117.501063,9.42885601 117.314595,9.43135135 L102.572973,9.43135135 C102.386504,9.42885601 102.20702,9.50221046 102.075676,9.63459459 C101.942864,9.75704512 101.867557,9.92962504 101.868108,10.1102703 L101.868108,14.867027 C101.866337,15.0491744 101.941747,15.2235608 102.075676,15.347027 C102.208811,15.476184 102.387491,15.5476561 102.572973,15.5459459 L117.327568,15.5459459 C117.882876,15.5424692 118.433587,15.6467371 118.949189,15.852973 C119.443234,16.0531638 119.893999,16.346822 120.276757,16.7178378 C120.660853,17.0853098 120.966787,17.526561 121.176216,18.0151351 C121.393036,18.5051821 121.50216,19.0360546 121.496447,19.5718919 L121.496447,24.3286486 C121.50216,24.8644859 121.393036,25.3953584 121.176216,25.8854054 C120.966787,26.3739795 120.660853,26.8152308 120.276757,27.1827027 C119.893999,27.5537185 119.443234,27.8473768 118.949189,28.0475676 C118.434186,28.2558503 117.883066,28.3601955 117.327568,28.3545946 L102.572973,28.3545946 C101.472796,28.3668673 100.411931,27.9459386 99.6194595,27.1827027 C99.2367914,26.8140134 98.9310701,26.3730693 98.72,25.8854054 C98.5052012,25.394714 98.3961678,24.8642809 98.3999024,24.3286486 L98.3999024,23.0313514 L101.859459,23.0313514 L101.859459,24.3286486 C101.857688,24.510796 101.933098,24.6851824 102.067027,24.8086486 C102.198812,24.9398726 102.378395,25.0117057 102.564324,25.0075676 L117.318919,25.0075676 C117.504849,25.0117057 117.684431,24.9398726 117.816216,24.8086486 C117.950145,24.6851824 118.025555,24.510796 118.023784,24.3286486 L118.023784,19.5718919 C118.025555,19.3897445 117.950145,19.2153582 117.816216,19.0918919 C117.684431,18.9606679 117.504849,18.8888348 117.318919,18.892973 L102.572973,18.892973 C101.473825,18.8997302 100.414963,18.4795961 99.6194595,17.7210811 C99.237745,17.3515811 98.9321637,16.9108389 98.72,16.4237838 C98.5055719,15.9329747 98.3965548,15.4026212 98.3999024,14.867027 L98.3999024,10.1102703 C98.3970666,9.5747266 98.5060621,9.04447808 98.72,8.55351351 C98.9332305,8.06705385 99.2386768,7.62650635 99.6194595,7.25621622 C100.413894,6.4965412 101.473833,6.07753188 102.572973,6.08843297 L117.327568,6.08843297 C117.883066,6.08304773 118.434186,6.18739299 118.949189,6.39567568 C119.443335,6.59567297 119.894135,6.88935411 120.276757,7.26054054 C120.658902,7.62967458 120.964546,8.07050768 121.176216,8.55783784 C121.392269,9.04812982 121.501359,9.57883465 121.496447,10.1145946 L121.478919,11.4075676 Z" id="Path"></path>
                <path d="M142.490811,6.10573026 C143.589951,6.09482918 144.649889,6.5138385 145.444324,7.27351351 C145.825176,7.64281819 146.129371,8.08367969 146.339459,8.57081081 C146.556872,9.06081676 146.667432,9.59150726 146.663894,10.1275676 L146.663894,24.3113514 C146.667882,24.8460621 146.557288,25.3754366 146.339459,25.8637838 C146.131622,26.3521578 145.827137,26.7934403 145.444324,27.1610811 C144.651853,27.924317 143.590988,28.3452456 142.490811,28.332973 L127.736216,28.332973 C126.636039,28.3452456 125.575175,27.924317 124.782703,27.1610811 C124.39989,26.7934403 124.095405,26.3521578 123.887568,25.8637838 C123.671097,25.375149 123.561975,24.8457598 123.567363,24.3113514 L123.567363,10.1275676 C123.562425,9.59180762 123.671514,9.0611028 123.887568,8.57081081 C124.097656,8.08367969 124.401851,7.64281819 124.782703,7.27351351 C125.577138,6.5138385 126.637076,6.09482918 127.736216,6.10573026 L142.490811,6.10573026 Z M142.490811,24.9686486 C142.676741,24.9727868 142.856323,24.9009537 142.988108,24.7697297 C143.12092,24.6472792 143.196227,24.4746993 143.195679,24.2940541 L143.195679,10.1102703 C143.196227,9.92962504 143.12092,9.75704512 142.988108,9.63459459 C142.856764,9.50221046 142.67728,9.42885601 142.490811,9.43128971 L127.736216,9.43128971 C127.549747,9.42885601 127.370263,9.50221046 127.238919,9.63459459 C127.106107,9.75704512 127.0308,9.92962504 127.031348,10.1102703 L127.031348,24.2940541 C127.0308,24.4746993 127.106107,24.6472792 127.238919,24.7697297 C127.370704,24.9009537 127.550286,24.9727868 127.736216,24.9686486 L142.490811,24.9686486 Z" id="Path"></path>
                <polygon id="Path" points="168.536216 6.10594595 172 6.10594595 172 28.2983784 167.896216 28.2983784 152.371892 10.5427027 152.371892 28.2983784 148.908108 28.2983784 148.908108 6.10594595 153.011892 6.10594595 168.536216 23.8572973"></polygon>
                <path d="M40.5578378,42.9751351 L40.5578378,42.4259459 C39.7407339,42.8556792 38.8381432,43.0979458 37.9156757,43.1351351 C36.0994595,43.1351351 35.6583784,42.1059459 35.6583784,40.5016216 L35.6583784,36.2291892 L36.5232432,36.2291892 L36.5232432,40.5016216 C36.5232432,41.9416216 36.8778378,42.4389189 38.067027,42.4389189 C38.9284751,42.3868385 39.7708696,42.1633761 40.5448649,41.7816216 L40.5448649,36.2291892 L41.4097297,36.2291892 L41.4097297,42.9751351 L40.5578378,42.9751351 Z" id="Path"></path>
                <path d="M48.0518919,42.9751351 L48.0518919,38.6983784 C48.0518919,37.2583784 47.7102703,36.7610811 46.5210811,36.7610811 C45.662311,36.814828 44.8221998,37.0351369 44.0475676,37.4097297 L44.0475676,42.9751351 L43.1567568,42.9751351 L43.1567568,36.2291892 L44.0475676,36.2291892 L44.0475676,36.7740541 C44.8338896,36.3431724 45.7077026,36.0962574 46.6032432,36.0518919 C48.5189189,36.0518919 48.9556757,36.972973 48.9556757,38.6983784 L48.9556757,42.9751351 L48.0518919,42.9751351 Z" id="Path"></path>
                <path d="M50.6810811,34.9102703 L50.6810811,33.3708108 L51.5978378,33.3708108 L51.5978378,34.9102703 L50.6810811,34.9102703 Z M50.6810811,42.9751351 L50.6810811,36.2291892 L51.5848649,36.2291892 L51.5848649,42.9751351 L50.6810811,42.9751351 Z" id="Path"></path>
                <path d="M57.9286486,45.5697297 L57.9286486,42.7113514 C57.2289759,42.9936368 56.4820312,43.1403843 55.7275676,43.1437838 C53.8681081,43.1437838 53.0205405,42.2789189 53.0205405,39.9005405 L53.0205405,39.4032432 C53.0205405,36.8086486 54.0583784,36.0605297 56.3156757,36.0605297 C57.1529936,36.0596446 57.9894409,36.114541 58.8194595,36.2248649 L58.8194595,45.5783784 L57.9286486,45.5697297 Z M57.9286486,36.8345946 C57.4097297,36.8 56.6875676,36.7740541 56.3027027,36.7740541 C54.6637838,36.7740541 53.9113514,37.1848649 53.9113514,39.3945946 L53.9113514,39.8918919 C53.9113514,41.8075676 54.4432432,42.4172973 55.8659459,42.4172973 C56.569528,42.4062178 57.2664589,42.2791046 57.9286486,42.0410811 L57.9286486,36.8345946 Z" id="Path"></path>
                <path d="M65.3837838,42.9751351 L65.3837838,42.4259459 C64.5666799,42.8556792 63.6640892,43.0979458 62.7416216,43.1351351 C60.9210811,43.1351351 60.4843243,42.1059459 60.4843243,40.5016216 L60.4843243,36.2291892 L61.3491892,36.2291892 L61.3491892,40.5016216 C61.3491892,41.9416216 61.7037838,42.4389189 62.892973,42.4389189 C63.754421,42.3868385 64.5968155,42.1633761 65.3708108,41.7816216 L65.3708108,36.2291892 L66.2572973,36.2291892 L66.2572973,42.9751351 L65.3837838,42.9751351 Z" id="Path"></path>
                <path d="M68.5318919,39.8789189 L68.5318919,40.0259459 C68.5318919,41.5654054 68.9989189,42.4216216 71.0227027,42.4216216 C71.8733827,42.4142771 72.7227072,42.3521667 73.5654054,42.2356757 L73.5654054,42.8843243 C72.7195087,43.0516487 71.8590369,43.1342192 70.9967568,43.1308108 C68.467027,43.1308108 67.6454054,42.1016216 67.6454054,39.852973 L67.6454054,39.3772973 C67.6454054,37.267027 68.5881081,36.0475676 70.7243243,36.0475676 C72.8605405,36.0475676 73.8118919,37.2410811 73.8118919,39.4681081 L73.8118919,39.8745946 L68.5318919,39.8789189 Z M72.8821622,39.0875676 C72.8821622,37.8810811 72.5145946,36.7610811 70.72,36.7610811 C68.9254054,36.7610811 68.5578378,37.9156757 68.5578378,39.0875676 L68.5578378,39.1956757 L72.9081081,39.1956757 L72.8821622,39.0875676 Z" id="Path"></path>
                <path d="M80.0389189,45.6951351 C79.1701234,45.6861266 78.3030695,45.6153172 77.4443243,45.4832432 L77.4443243,44.8864865 C78.252973,44.9513514 79.1394595,44.9989189 80.0389189,44.9989189 C81.6648649,44.9989189 82.0064865,44.5016216 82.0064865,43.2216216 L82.0064865,42.8886486 C81.4256198,43.0394685 80.8291767,43.1221869 80.2291892,43.1351351 C78.1664865,43.1351351 77.0983784,42.3178378 77.0983784,40.0302703 L77.0983784,39.1654054 C77.0983784,37.0378378 78.0540541,36.0562162 80.3935135,36.0562162 C81.2307004,36.0699891 82.0665235,36.1291752 82.8972973,36.2335135 L82.8972973,43.2259459 C82.8972973,44.8259459 82.3221622,45.6951351 80.0389189,45.6951351 Z M82.0064865,36.8605405 C81.4714994,36.7914592 80.932911,36.7539168 80.3935135,36.7481081 C78.6032432,36.7481081 77.9848649,37.4702703 77.9848649,39.1610811 L77.9848649,40.0259459 C77.9848649,41.8378378 78.6291892,42.4345946 80.2421622,42.4345946 C80.8373208,42.4252362 81.4293854,42.3468747 82.0064865,42.2010811 L82.0064865,36.8605405 Z" id="Path"></path>
                <path d="M88.9167568,42.9751351 L88.9167568,42.4908108 C88.1588458,42.9123127 87.3061511,43.1340431 86.4389189,43.1351351 C84.9902703,43.1351351 84.2248649,42.5383784 84.2248649,41.1978378 L84.2248649,41.0118919 C84.2248649,39.2821622 85.4443243,38.9491892 87.6151351,38.9491892 L88.8735135,38.9491892 L88.8735135,38.3783784 C88.8735135,37.0594595 88.5621622,36.7481081 86.9059459,36.7481081 C86.1832481,36.7549639 85.4614594,36.8011584 84.7437838,36.8864865 L84.7437838,36.2897297 C85.4828556,36.1407495 86.2342268,36.0611244 86.9881081,36.0518919 C89.3535135,36.0518919 89.7902703,36.787027 89.7902703,38.3783784 L89.7902703,42.9751351 L88.9167568,42.9751351 Z M88.8735135,39.5805405 L87.6151351,39.5805405 C85.8248649,39.5805405 85.1156757,39.8054054 85.1156757,41.0118919 L85.1156757,41.2454054 C85.1156757,42.1794595 85.6864865,42.5037838 86.6205405,42.5037838 C87.4092195,42.4818202 88.181403,42.2728415 88.8735135,41.8940541 L88.8735135,39.5805405 Z" id="Path"></path>
                <path d="M99.7794595,42.9751351 L99.7794595,38.4648649 C99.7794595,37.3967568 99.6843243,36.7610811 98.4821622,36.7610811 C97.7441369,36.8049551 97.026955,37.0227768 96.3891892,37.3967568 C96.4610592,37.7480688 96.4929737,38.1063811 96.4843243,38.4648649 L96.4843243,42.9751351 L95.5848649,42.9751351 L95.5848649,38.4648649 C95.5848649,37.3708108 95.5156757,36.7610811 94.3524324,36.7610811 C93.6237567,36.8114633 92.9164711,37.0289758 92.2854054,37.3967568 L92.2854054,42.9751351 L91.3989189,42.9751351 L91.3989189,36.2291892 L92.2854054,36.2291892 L92.2854054,36.7610811 C92.9581565,36.3212898 93.7393127,36.0758691 94.5427027,36.0518919 C95.4335135,36.0518919 95.9264865,36.3416216 96.1989189,36.812973 C96.9129153,36.3451055 97.7414875,36.0818768 98.5945946,36.0518919 C100.588108,36.0518919 100.683243,37.3491892 100.683243,38.4648649 L100.683243,42.9751351 L99.7794595,42.9751351 Z" id="Path"></path>
                <path d="M102.404324,34.9102703 L102.404324,33.3708108 L103.321081,33.3708108 L103.321081,34.9102703 L102.404324,34.9102703 Z M102.404324,42.9751351 L102.404324,36.2291892 L103.308108,36.2291892 L103.308108,42.9751351 L102.404324,42.9751351 Z" id="Path"></path>
                <path d="M109.984865,42.9751351 L109.984865,38.6983784 C109.984865,37.2583784 109.643243,36.7610811 108.454054,36.7610811 C107.593812,36.8142728 106.75218,37.0345953 105.976216,37.4097297 L105.976216,42.9751351 L105.085405,42.9751351 L105.085405,36.2291892 L105.976216,36.2291892 L105.976216,36.7740541 C106.764067,36.3431043 107.639298,36.0962064 108.536216,36.0518919 C110.447568,36.0518919 110.888649,36.972973 110.888649,38.6983784 L110.888649,42.9751351 L109.984865,42.9751351 Z" id="Path"></path>
                <path d="M115.156757,45.6951351 C114.287961,45.6861266 113.420907,45.6153172 112.562162,45.4832432 L112.562162,44.8864865 C113.370811,44.9513514 114.257297,44.9989189 115.156757,44.9989189 C116.782703,44.9989189 117.124324,44.5016216 117.124324,43.2216216 L117.124324,42.8886486 C116.543458,43.0394685 115.947015,43.1221869 115.347027,43.1351351 C113.28,43.1351351 112.216216,42.3178378 112.216216,40.0302703 L112.216216,39.1654054 C112.216216,37.0378378 113.171892,36.0562162 115.511351,36.0562162 C116.348532,36.0701414 117.184346,36.1293269 118.015135,36.2335135 L118.015135,43.2259459 C118.015135,44.8259459 117.44,45.6951351 115.156757,45.6951351 Z M117.124324,36.8605405 C116.589337,36.7914592 116.050749,36.7539168 115.511351,36.7481081 C113.721081,36.7481081 113.102703,37.4702703 113.102703,39.1610811 L113.102703,40.0259459 C113.102703,41.8378378 113.747027,42.4345946 115.36,42.4345946 C115.955136,42.4249266 116.547165,42.3465698 117.124324,42.2010811 L117.124324,36.8605405 Z" id="Path"></path>
                <path d="M124.060541,43.1351351 C123.261534,43.1320735 122.464815,43.0495045 121.682162,42.8886486 L121.682162,42.252973 C122.462278,42.358286 123.247622,42.4203628 124.034595,42.4389189 C125.431351,42.4389189 125.868108,42.0064865 125.868108,41.3232432 C125.868108,40.64 125.539459,40.3891892 124.198919,39.8918919 L123.667027,39.7059459 C122.244324,39.1827027 121.587027,38.6508108 121.587027,37.6951351 C121.587027,36.5751351 122.451892,36.0518389 124.237838,36.0518389 C124.965216,36.0494826 125.690538,36.129268 126.4,36.2897297 L126.4,36.9124324 C125.692656,36.8231901 124.980965,36.7726644 124.268108,36.7610811 C123.035676,36.7610811 122.473514,36.96 122.473514,37.6951351 C122.473514,38.3264865 122.858378,38.6032432 124.008649,39.0227027 L124.540541,39.2216216 C126.196757,39.8572973 126.741622,40.2897297 126.741622,41.3102703 C126.754595,42.2659459 126.153514,43.1351351 124.060541,43.1351351 Z" id="Path"></path>
                <path d="M130.737297,43.1351351 C128.631351,43.1351351 127.645405,42.0410811 127.645405,39.9567568 L127.645405,39.2345946 C127.645405,37.1589189 128.631351,36.0518919 130.737297,36.0518919 C132.843243,36.0518919 133.829189,37.1589189 133.829189,39.2345946 L133.829189,39.9567568 C133.829189,42.0410811 132.843243,43.1351351 130.737297,43.1351351 Z M132.938378,39.2432432 C132.938378,37.5135135 132.281081,36.7827027 130.737297,36.7827027 C129.193514,36.7827027 128.536216,37.5178378 128.536216,39.2432432 L128.536216,39.9654054 C128.536216,41.6951351 129.193514,42.4345946 130.737297,42.4345946 C132.281081,42.4345946 132.938378,41.6908108 132.938378,39.9654054 L132.938378,39.2432432 Z" id="Path"></path>
                <polygon id="Path" points="135.264865 42.9751351 135.264865 33.3708108 136.155676 33.3708108 136.155676 42.9751351"></polygon>
                <path d="M142.763243,42.9751351 L142.763243,42.4259459 C141.946139,42.8556792 141.043549,43.0979458 140.121081,43.1351351 C138.304865,43.1351351 137.863784,42.1059459 137.863784,40.5016216 L137.863784,36.2291892 L138.728649,36.2291892 L138.728649,40.5016216 C138.728649,41.9416216 139.083243,42.4389189 140.272432,42.4389189 C141.13388,42.3868385 141.976275,42.1633761 142.75027,41.7816216 L142.75027,36.2291892 L143.654054,36.2291892 L143.654054,42.9751351 L142.763243,42.9751351 Z" id="Path"></path>
                <path d="M147.878919,43.1351351 C146.620541,43.1351351 146.196757,42.7027027 146.196757,41.4572973 L146.196757,36.9124324 L144.583784,36.8475676 L144.583784,36.2291892 L146.196757,36.2291892 L146.196757,34.4043243 L147.087568,34.4043243 L147.087568,36.2205405 L149.219459,36.2205405 L149.219459,36.9037838 L147.087568,36.9037838 L147.087568,41.4140541 C147.087568,42.2789189 147.208649,42.4691892 147.974054,42.4691892 C148.345946,42.4691892 148.890811,42.4432432 149.219459,42.4086486 L149.219459,42.9794595 C148.778015,43.0703893 148.329454,43.1224803 147.878919,43.1351351 Z" id="Path"></path>
                <path d="M150.287568,34.9102703 L150.287568,33.3708108 L151.204324,33.3708108 L151.204324,34.9102703 L150.287568,34.9102703 Z M150.287568,42.9751351 L150.287568,36.2291892 L151.191351,36.2291892 L151.191351,42.9751351 L150.287568,42.9751351 Z" id="Path"></path>
                <path d="M155.731892,43.1351351 C153.625946,43.1351351 152.64,42.0410811 152.64,39.9567568 L152.64,39.2345946 C152.64,37.1589189 153.625946,36.0518919 155.731892,36.0518919 C157.837838,36.0518919 158.823784,37.1589189 158.823784,39.2345946 L158.823784,39.9567568 C158.823784,42.0410811 157.837838,43.1351351 155.731892,43.1351351 Z M157.932973,39.2432432 C157.932973,37.5135135 157.275676,36.7827027 155.731892,36.7827027 C154.188108,36.7827027 153.530811,37.5178378 153.530811,39.2432432 L153.530811,39.9654054 C153.530811,41.6951351 154.183784,42.4345946 155.731892,42.4345946 C157.28,42.4345946 157.932973,41.6908108 157.932973,39.9654054 L157.932973,39.2432432 Z" id="Path"></path>
                <path d="M165.102703,42.9751351 L165.102703,38.6983784 C165.102703,37.2583784 164.761081,36.7610811 163.571892,36.7610811 C162.71165,36.8142728 161.870018,37.0345953 161.094054,37.4097297 L161.094054,42.9751351 L160.203243,42.9751351 L160.203243,36.2291892 L161.094054,36.2291892 L161.094054,36.7740541 C161.881905,36.3431043 162.757136,36.0962064 163.654054,36.0518919 C165.565405,36.0518919 166.006486,36.972973 166.006486,38.6983784 L166.006486,42.9751351 L165.102703,42.9751351 Z" id="Path"></path>
                <path d="M169.725405,43.1351351 C168.926399,43.1320735 168.12968,43.0495045 167.347027,42.8886486 L167.347027,42.252973 C168.127162,42.3581024 168.912496,42.4201784 169.699459,42.4389189 C171.096216,42.4389189 171.532973,42.0064865 171.532973,41.3232432 C171.532973,40.64 171.204324,40.3891892 169.863784,39.8918919 L169.331892,39.7059459 C167.909189,39.1827027 167.251892,38.6508108 167.251892,37.6951351 C167.251892,36.5751351 168.116757,36.0518389 169.902703,36.0518389 C170.630081,36.0494826 171.355402,36.129268 172.064865,36.2897297 L172.064865,36.9124324 C171.357521,36.8231901 170.64583,36.7726644 169.932973,36.7610811 C168.700541,36.7610811 168.142703,36.96 168.142703,37.6951351 C168.142703,38.3264865 168.523243,38.6032432 169.673514,39.0227027 L170.205405,39.2216216 C171.861622,39.8572973 172.406486,40.2897297 172.406486,41.3102703 C172.419459,42.2659459 171.818378,43.1351351 169.725405,43.1351351 Z" id="Path"></path>
            </g>
        </g>
    </g>
</svg>