<?xml version="1.0" encoding="UTF-8"?>
<svg width="90px" height="48px" viewBox="0 0 90 48" version="1.1" xmlns="http://www.w3.org/2000/svg" xmlns:xlink="http://www.w3.org/1999/xlink">
    <!-- Generator: Sketch 60.1 (88133) - https://sketch.com -->
    <title>adoptit</title>
    <desc>Created with Sketch.</desc>
    <g id="design" stroke="none" stroke-width="1" fill="none" fill-rule="evenodd">
        <g id="main" transform="translate(-379.000000, -64.000000)" fill="#FFB124">
            <g id="adoptit" transform="translate(379.000000, 64.000000)">
                <path d="M12.683525,34.1005 C11.707275,31.053 10.786275,28.17725 9.865025,25.3015 C9.601525,25.302 9.613525,25.302 9.350025,25.3025 C8.437275,28.1895 7.524525,31.0765 6.568775,34.1005 L12.683525,34.1005 Z M19.209025,41.42775 C19.025525,41.495 18.986525,41.522 18.948025,41.52175 C17.742025,41.5195 16.260025,41.93925 15.410275,41.387 C14.605775,40.86425 14.407275,39.339 14.052025,38.21975 C13.817275,37.48 13.414525,37.2725 12.687525,37.28525 C10.649525,37.32225 8.609525,37.332 6.572025,37.2815 C5.803275,37.26225 5.404775,37.54675 5.250775,38.26225 C5.224775,38.3835 5.181275,38.501 5.143275,38.61925 C4.115025,41.8245 3.619525,42.097 2.5e-05,41.36075 C0.754025,39.253 1.502025,37.1595 2.252025,35.06675 C3.706025,31.01025 5.184525,26.96225 6.601275,22.89275 C7.032275,21.655 7.747275,21.12125 9.087775,21.147 C11.944775,21.20225 11.947275,21.15 12.918275,23.8425 C14.929275,29.41675 16.939025,34.99125 18.946775,40.5665 C19.042775,40.8335 19.113025,41.10975 19.209025,41.42775 L19.209025,41.42775 Z" id="Path"></path>
                <path d="M53.7056,34.5408325 C53.82985,35.3678325 53.7671,35.086875 53.95735,35.888625 C54.32835,37.448375 55.61485,38.497125 57.15835,38.587375 C58.6806,38.676375 59.88785,37.872625 60.5016,36.298625 C61.15885,34.612625 61.12435,32.887375 60.6316,31.171625 C60.1386,29.455375 58.94235,28.563625 57.25735,28.589625 C55.4716,28.616875 54.4845581,28.9838867 53.71035,31.0655518 C53.4726181,31.7047574 53.5756,32.018125 53.5756,33.428875 M53.71035,44.709125 C53.75635,47.475875 53.8061,48.097625 50.06735,47.717625 C50.04685,47.342125 50.0059959,46.943375 50.0059959,46.544375 C50.0076,41.965375 50.00135,37.386125 50.02535,32.807125 C50.0501,28.058875 52.42335,25.683625 57.15635,25.624625 C62.15735,25.562375 64.61985,27.922875 64.629192,32.961375 C64.6321,34.601625 64.5641,36.325375 64.07635,37.867875 C62.71735,42.163875 57.49135,43.250375 54.36835,39.998875 C54.25785,39.884125 53.8626,39.683125 53.7056,39.764375 C53.6565318,42.2356409 53.68335,43.061125 53.71035,44.709125 Z" id="Path"></path>
                <path d="M26.334125,38.66195 C27.974625,38.69945 29.084125,38.0212 29.658625,36.54895 C30.381625,34.6967 30.353875,32.8092 29.711625,30.94745 C29.205625,29.48095 28.138375,28.78945 26.565375,28.78495 C24.898375,28.7797 23.6761074,29.8860943 23.329875,30.98095 C22.9836426,32.0758057 22.8570557,32.2237551 22.8570557,34.3863525 C23.6433105,38 24.796625,38.6272 26.334125,38.66195 Z M29.959875,21.3292 C33.022625,20.8252 33.784375,21.4492 33.761375,24.34445 C33.729875,28.29545 33.822375,32.25595 33.567875,36.1937 C33.346625,39.6182 31.249125,41.4727 27.809125,41.7537 C26.819875,41.83445 25.794625,41.8582 24.822375,41.6932 C21.066875,41.0557 19.125375,38.80895 18.991125,34.77695 C18.937875,33.1777 19.142375,31.53195 19.486625,29.9637 C20.574625,25.00595 27.0850947,24.0933643 29.4283447,27.1046143 C29.5410947,27.2496143 29.5410947,27.2496143 29.959875,27.8202 C29.959875,25.6565333 29.959875,23.4928667 29.959875,21.3292 Z" id="Path"></path>
                <path d="M45.2393646,33.3808136 L45.2393646,33.1436768 C45.2138646,32.5634268 45.1443939,32.3720703 45.0434113,31.8929749 C44.9424286,31.4138794 44.8321381,31.2440948 44.7389,30.92865 C44.6456619,30.6132052 43.7376709,28.7765537 42.1829,28.7765537 C40.3657455,28.7765537 39.3192749,29.5700073 38.88615,30.5804 C38.0417534,32.5502063 38.0864,34.7224 38.93615,36.77215 C39.4514,38.0154 40.44315,38.6304 41.7699,38.62615 C43.06115,38.62165 43.8466187,38.1052856 44.3163452,37.19565 C44.782444,36.2930396 45.0434113,35.6519775 45.2194,33.67815 M48.54265,37.19565 C47.5029,40.96615 44.8089,42.0609 41.32065,41.9104 C35.52665,41.6599 34.5599,37.6194 34.6084,33.0834 C34.61715,32.2614 34.7869,31.4329 34.9554,30.6224 C35.7969,26.58215 38.777145,25.4981119 42.46915,25.5544 C46.9966431,25.623426 48.9024,28.42065 49.00815,33.7559 C48.8609,34.90465 48.8474,36.09015 48.54265,37.19565 Z" id="Path"></path>
                <path d="M77.709875,12.89005 L77.709875,41.60055 L74.017875,41.60055 C74.017875,41.1413 74.017625,40.66455 74.018125,40.1878 C74.025625,32.0313 74.085875,23.8743 74.010875,15.7183 C73.985625,12.96905 75.027125,12.29705 77.709875,12.89005" id="Path"></path>
                <path d="M71.80485,38.746025 C72.0696,41.551275 71.9541,41.677775 69.27235,41.502025 C68.7336,41.467025 68.1996,41.358275 67.6616,41.304275 C66.4241,41.179775 65.7826,40.475275 65.7616,39.261275 C65.72935,37.429025 65.75485,35.596025 65.7551,33.763525 C65.75535,29.641525 65.75535,25.519525 65.75535,21.421775 C68.2296,20.633775 69.3936,21.414275 69.4011,23.792025 C69.40635,25.461775 69.40635,25.461775 71.7281,25.818275 C71.9961,27.263775 71.5551,27.932775 70.2676,28.318025 C69.9206,28.421775 69.4491,28.904775 69.44185,29.223025 C69.38185,31.845775 69.3936,34.471275 69.4351,37.095275 C69.45335,38.251775 69.71635,38.399025 71.80485,38.746025" id="Path"></path>
                <path d="M79.78605,21.2138 C81.19755,21.05655 82.51505,20.9903 83.0058,22.2838 C83.3973,23.3158 83.2943,24.53555 83.42355,25.7933 C84.1318,25.83005 84.8608,25.86755 85.5758,25.9048 C85.8823,27.41205 85.48155,27.87455 83.33755,28.5003 C83.33755,31.46905 83.3138,34.4563 83.3538,37.44255 C83.36405,38.1993 83.83555,38.64955 84.6623,38.62205 C84.98555,38.61105 85.31055,38.6553 85.7098,38.6788 L85.7098,41.30255 C84.37205,41.30255 83.04705,41.41005 81.74905,41.27005 C80.6283,41.1493 79.8063,40.41955 79.80005,39.20605 C79.7693,33.23005 79.78605,27.2543 79.78605,21.2138" id="Path"></path>
                <path d="M76.1115,10.28325 C74.45075,10.2615 73.258,9.02275 73.27775,7.34075 C73.29625,5.75225 74.67475,4.39275 76.21875,4.44025 C77.76275,4.488 79.15875,5.93 79.12425,7.44175 C79.0885,9.003 77.709,10.304 76.1115,10.28325" id="Path"></path>
                <path d="M64.18205,5e-05 C61.7953,4.6043 61.5823,9.31405 63.47705,14.1258 C60.98505,10.78205 61.36005,3.3283 64.18205,5e-05" id="Path"></path>
                <path d="M65.635175,13.369075 C63.543675,10.648075 63.754675,4.195575 66.088675,1.222575 C65.671675,3.064075 64.879925,5.169575 64.800675,7.301575 C64.722425,9.419825 65.360925,11.564575 65.635175,13.369075" id="Path"></path>
                <path d="M88.97705,14.1258 C86.48505,10.78205 86.86005,3.3283 89.68205,5e-05 C87.2953,4.6043 87.0823,9.31405 88.97705,14.1258 Z" id="Path" transform="translate(88.499164, 7.062925) scale(-1, 1) translate(-88.499164, -7.062925) "></path>
                <path d="M87.088675,1.222575 C86.671675,3.064075 85.879925,5.169575 85.800675,7.301575 C85.722425,9.419825 86.360925,11.564575 86.635175,13.369075 C84.543675,10.648075 84.754675,4.195575 87.088675,1.222575 Z" id="Path" transform="translate(86.140846, 7.295825) scale(-1, 1) translate(-86.140846, -7.295825) "></path>
                <path d="M82.778,3.0169 C84.68175,5.69215 84.5505,10.2024 82.47925,12.4784 C84.106,9.36765 84.05625,6.2229 82.778,3.0169" id="Path"></path>
                <path d="M68.668875,3.547525 C67.520375,6.553525 67.654875,9.511025 69.088875,12.709275 C67.104125,10.614025 66.964375,5.495525 68.668875,3.547525" id="Path"></path>
                <path d="M80.056575,11.1983 C81.128325,8.66455 81.101825,6.1823 79.715325,3.74305 C81.598575,5.60005 81.751075,9.05805 80.056575,11.1983" id="Path"></path>
                <path d="M71.708675,4.5374 C70.859675,6.9039 70.923675,9.20465 72.204175,11.4184 C70.444675,9.9114 70.190925,6.3679 71.708675,4.5374" id="Path"></path>
            </g>
        </g>
    </g>
</svg>