<?xml version="1.0" encoding="UTF-8"?>
<svg width="212px" height="48px" viewBox="0 0 212 48" version="1.1" xmlns="http://www.w3.org/2000/svg" xmlns:xlink="http://www.w3.org/1999/xlink">
    <!-- Generator: Sketch 60.1 (88133) - https://sketch.com -->
    <title>playtech</title>
    <desc>Created with Sketch.</desc>
    <g id="design" stroke="none" stroke-width="1" fill="none" fill-rule="evenodd">
        <g id="main" transform="translate(-617.000000, -352.000000)" fill="#FFB124" fill-rule="nonzero">
            <g id="playtech" transform="translate(617.000000, 352.000000)">
                <path d="M49.0259444,17.6419481 C48.9925531,17.5614639 48.9730749,17.4828831 48.9395723,17.4004622 C46.9311298,12.4765471 39.2998422,10.9844511 30.5023632,13.2343738 L29.0593469,12.3351905 C33.3903549,10.4661401 37.7036933,9.49039054 41.3180961,9.75739297 C46.709278,10.1657686 49.3459723,13.2343738 49.0259556,17.6419481 M41.2042262,27.9845318 C35.5637114,35.1662278 25.3703368,40.1372691 18.4340502,39.6228872 C11.5095451,39.0986994 10.4591827,32.8574083 16.1016676,25.6757123 C16.2135841,25.5284566 16.3352954,25.3832045 16.453111,25.2359488 L16.4709197,34.2395745 C16.4336328,36.5287655 18.6383883,37.6026855 20.2227556,36.6936796 L40.9609371,24.0461999 C42.5826081,22.9958431 42.411806,20.6457909 40.8843597,19.740714 L32.4756056,14.9012177 C34.7490916,14.2179982 36.9303006,13.896017 38.8680648,14.039338 C45.7984578,14.5635258 46.8409622,20.8028525 41.2043709,27.9845485 M14.827639,43.4866507 C8.46266652,43.0075968 5.92414269,38.8120685 7.58115278,33.0989053 C7.57113539,34.0511029 7.72056147,34.9640267 8.07395278,35.8121658 C10.561438,41.9277999 21.7286032,42.756305 33.0135674,37.6792518 C33.2452474,37.5751822 33.4749239,37.4613178 33.7026804,37.3592518 C27.367159,41.4487738 20.30915,43.8930674 14.8276557,43.4866674 M22.1605253,11.5145714 L36.0821782,20.2884872 C37.110942,20.9049631 37.234629,22.510929 36.1391103,23.2235996 L22.076101,31.7992267 C21.002181,32.4176615 19.4963444,31.6814111 19.52579,30.1166945 L19.459063,13.0891217 C19.5199465,11.6677039 20.925637,10.8097478 22.160542,11.5145714 M54.3858999,14.6734945 C51.4684627,7.5035801 39.3510644,5.92509523 26.2382825,10.5643384 L20.4191076,6.91851993 C18.6069949,5.8838681 16.5376912,7.1443008 16.4375674,9.2410855 L16.4414909,15.1623544 C5.14082721,21.9337213 -1.41262253,31.6814333 1.37720982,38.5431126 C4.61074026,46.4688949 19.0938902,47.5565554 33.7282192,40.9638431 C48.3664717,34.3750598 57.6135423,22.6032003 54.3858999,14.6734945" id="Path"></path>
                <path d="M66.017733,25.0076413 L64.7533768,29.6625895 C64.5648829,30.3713366 64.4196307,31.017258 64.3037629,31.5728671 C64.1839994,32.1579272 64.1349142,32.5761032 64.1349142,32.8352587 C64.1349142,33.3339578 64.2703716,33.7148079 64.5471855,34.00145 C64.8377455,34.2861109 65.222558,34.4255196 65.6957072,34.4255196 C66.437829,34.4255196 67.2094018,34.0073491 68.0084613,33.1709805 C68.8035917,32.3326584 69.565342,31.1350514 70.3094283,29.5644246 C71.1988001,27.5559878 71.9252112,25.5789554 72.4847493,23.5999641 C73.024631,21.6445359 73.3093309,20.1053192 73.3093309,19.0098062 C73.3093309,18.2146758 73.1444335,17.5726834 72.8243778,17.0956051 C72.5023743,16.6126556 72.0901086,16.3652594 71.6071368,16.3652594 C70.5057357,16.3652594 69.5024996,17.0779356 68.5817176,18.4797192 C67.6609357,19.8972079 66.8069086,22.066641 66.0176662,25.0076413 M58.0742143,14.1938674 C60.0394651,14.0387648 61.9006575,13.8326291 63.6872481,13.6029192 C65.4659806,13.3731871 67.1799284,13.1062236 68.8349796,12.7822667 L67.443013,17.7729366 C68.833015,15.843025 70.1582324,14.4255363 71.4284822,13.553834 C72.6751632,12.6526862 73.970935,12.2246931 75.3334561,12.2246931 C77.1867959,12.2246931 78.6258832,12.8097533 79.6251959,13.9759446 C80.6402136,15.1539119 81.136926,16.8266326 81.136926,18.9901721 C81.136926,20.8160253 80.7972808,22.7439725 80.1042331,24.7563384 C79.4072676,26.7726333 78.427589,28.6456072 77.2044655,30.3850771 C75.7653782,32.4072601 74.2477545,33.9229192 72.624119,34.9261554 C70.992631,35.9372497 69.2747542,36.4477025 67.443013,36.4477025 C66.6910742,36.4477025 65.9901796,36.343633 65.3246241,36.1178521 C64.6728147,35.8842243 64.0818665,35.5681199 63.5458916,35.140138 L62.1205448,40.550954 C62.0223743,40.8749053 61.945797,41.2223975 61.90851,41.5620427 C61.8534143,41.893841 61.8397796,42.2295627 61.8397796,42.5652845 C61.8397796,43.2151293 62.02627,43.6863196 62.4110936,43.9493985 C62.7978763,44.2105185 63.5792495,44.3715203 64.7532933,44.4460942 L64.7532933,45.7104504 L51.4657803,45.7104504 L51.4657803,44.391121 C51.5108585,44.391121 51.575749,44.3849992 51.6601176,44.3694166 C51.7484933,44.3477123 51.8171681,44.339921 51.8505594,44.339921 C52.6770999,44.339921 53.2916056,44.1278862 53.7038992,43.6939996 C54.1201218,43.2620831 54.5422213,42.1371133 54.9878839,40.3034076 L60.2769775,18.7602785 C60.3692488,18.416682 60.439927,18.0652775 60.4968592,17.7315203 C60.5497288,17.4095168 60.5812836,17.1444956 60.5812836,16.9677999 C60.5812836,16.3748872 60.4026401,15.9783043 60.0570957,15.7603815 C59.6997531,15.5169032 59.038149,15.4069902 58.0741754,15.4069902 L58.0742143,14.1938674 Z" id="Path"></path>
                <path d="M82.4551423,2.31078706 C84.4419862,2.14978532 86.3385176,1.93385489 88.182046,1.67075367 C90.0118283,1.40963367 91.7512982,1.1072921 93.3827862,0.736231235 L86.0852557,29.6220469 C86.0379514,29.7810451 85.9831896,29.9714869 85.9203583,30.2228121 C85.8241357,30.5958486 85.7887966,30.8353533 85.7887966,30.9629693 C85.7887966,31.3026145 85.8516279,31.5735516 85.9851375,31.7600643 C86.126494,31.9544573 86.3247827,32.0486765 86.5819792,32.0486765 C86.845047,32.0486765 87.1415173,31.8680295 87.483127,31.4969965 C87.8208244,31.1338104 88.4765462,30.1776726 89.4523013,28.6286389 L90.6165281,29.5121171 C89.1519187,31.9642577 87.740318,33.7469248 86.4131361,34.8502904 C85.0859542,35.9516914 83.7077281,36.4994479 82.2666763,36.4994479 C80.9964321,36.4994479 80.003013,36.1480045 79.3178234,35.4314215 C78.6247869,34.7148218 78.2851361,33.6821345 78.2851361,32.3490646 C78.2851361,31.6933262 78.6404752,29.9538563 79.341381,27.1345784 L79.4120592,26.8499175 L84.2554846,8.0495001 C84.2988933,7.87675576 84.3595542,7.61953141 84.4380794,7.28185628 C84.7463368,6.04498671 84.8817942,5.24789732 84.8817942,4.9043175 C84.8817942,4.43116271 84.7227403,4.08759402 84.3929455,3.85788967 C84.070942,3.6360601 83.5683639,3.51629663 82.8713983,3.51629663 L82.4551757,3.51629663 L82.4551423,2.31078706 Z" id="Path"></path>
                <path d="M105.301467,17.2702862 C105.301467,16.5792086 105.156137,16.0314521 104.853835,15.6191641 C104.551476,15.2107885 104.160792,15.0085818 103.671933,15.0085818 C102.976932,15.0085818 102.309417,15.3462792 101.661531,16.0334166 C101.013645,16.7284177 100.271524,17.8749805 99.4214255,19.4809464 C98.4280008,21.3951474 97.6485754,23.2602688 97.0890429,25.0998681 C96.5137997,26.9551725 96.2291222,28.5238347 96.2291222,29.8254945 C96.2291222,30.6166959 96.3881204,31.2272782 96.702277,31.6906159 C97.0183813,32.1264838 97.4522512,32.3483133 97.9803792,32.3483133 C98.7637281,32.3483133 99.5627876,31.8830055 100.391293,30.9308246 C101.217833,29.9845206 101.999223,28.6494862 102.73938,26.9316093 C103.516841,25.0174083 104.129388,23.1503224 104.598614,21.3715898 C105.063921,19.5791112 105.301467,18.2146257 105.301467,17.2702862 M114.10484,13.0315551 L110.211642,27.3203398 L110.211642,27.3715398 C109.618729,29.5723829 109.320311,30.8524441 109.320311,31.2195759 C109.320311,31.5592211 109.379191,31.8301582 109.516652,32.042193 C109.644262,32.2561756 109.811163,32.3484469 110.034941,32.3484469 C110.665157,32.3484469 111.487774,31.5906201 112.475305,30.069073 C112.773712,29.6352086 113.003444,29.2916121 113.160489,29.0520907 L114.291341,29.9434271 C113.021097,32.1737158 111.754782,33.8228733 110.462939,34.8732302 C109.171096,35.9275161 107.775201,36.447786 106.288993,36.447786 C105.050159,36.447786 104.10386,36.1729199 103.465791,35.629098 C102.808088,35.0656365 102.488072,34.2646125 102.488072,33.1946215 C102.488072,32.8765693 102.511446,32.4662458 102.580343,31.9852385 C102.637275,31.4963898 102.739397,30.8642034 102.874854,30.0926361 C101.698846,32.2424295 100.41682,33.8425074 99.0327062,34.8751947 C97.6544801,35.9275161 96.1132989,36.447786 94.4150561,36.447786 C92.6598811,36.447786 91.2796905,35.9020051 90.2646728,34.806481 C89.245726,33.6991864 88.7372376,32.1972733 88.7372376,30.2850368 C88.7372376,28.0841937 89.2182394,25.7675161 90.2057761,23.3173401 C91.1795667,20.8985686 92.4890735,18.7330646 94.1401956,16.8738368 C95.4418554,15.3797763 96.7886714,14.2312545 98.190455,13.4263071 C99.6020557,12.6213596 100.950831,12.2247766 102.248567,12.2247766 C103.48936,12.2247766 104.451369,12.5271349 105.167969,13.1259245 C105.882604,13.7345422 106.35183,14.6592531 106.577611,15.8902291 L107.294205,13.0316886 L114.10484,13.0315551 Z" id="Path"></path>
                <path d="M111.836095,15.0081366 L111.836095,13.6888072 C113.732627,13.4767725 115.652721,13.2137046 117.610114,12.9191989 C119.551807,12.6227398 120.610017,12.4794354 120.757261,12.4794354 C121.538651,12.4794354 122.561521,15.9171481 123.800356,22.8043551 C124.30295,25.5450966 124.715244,27.7537923 125.03919,29.4068789 C126.515575,26.4128698 127.524705,24.2277318 128.070497,22.8612872 C128.61433,21.5026952 128.881338,20.491601 128.881338,19.8456796 C128.881338,19.3450326 128.425825,18.736426 127.518817,18.0433839 C126.61374,17.3424949 126.150408,16.5375474 126.150408,15.6481811 C126.150408,14.6174528 126.464509,13.7869832 127.104564,13.1567725 C127.730852,12.5363731 128.569174,12.224209 129.615601,12.224209 C130.650253,12.224209 131.466982,12.536362 132.052043,13.1567725 C132.627286,13.7869832 132.925704,14.668497 132.925704,15.7895377 C132.925704,17.1991738 132.248367,19.4706952 130.907444,22.5942792 C129.562593,25.7119752 127.724958,29.2223307 125.398469,33.1489032 C122.765704,37.6251912 120.362643,40.8744267 118.206956,42.9319488 C116.049304,44.9875119 113.972148,46.0103822 111.975487,46.0103822 C110.648305,46.0103822 109.60973,45.7158709 108.849939,45.1249394 C108.094077,44.5300622 107.713199,43.7172622 107.713199,42.6806514 C107.713199,41.7382709 108.03715,40.9745561 108.698765,40.3541568 C109.352539,39.7396511 110.181044,39.4353394 111.190174,39.4353394 C111.979416,39.4353394 112.827556,39.7514438 113.732627,40.3737909 C114.633775,41.0059662 115.248286,41.3043843 115.546704,41.3043843 C116.090537,41.3043843 116.703078,40.8489269 117.39612,39.9399043 C118.108791,39.0191224 118.464147,38.1552782 118.464147,37.3169561 C118.464147,36.7063738 118.407215,35.9269485 118.299249,34.992426 C118.193232,34.0480865 118.022436,32.8956358 117.802554,31.5272267 C117.343145,28.5921144 116.877843,25.912234 116.414511,23.5072086 C115.939408,21.1061123 115.517286,19.2095752 115.138373,17.8234966 C114.804627,16.6337478 114.468894,15.8602159 114.129243,15.4950431 C113.789598,15.1338048 113.239877,14.9551613 112.454564,14.9551613 L112.39368,14.9551613 C112.165951,14.9863265 111.991204,15.0080309 111.836107,15.0080309" id="Path"></path>
                <path d="M142.197267,29.9872198 C140.730693,32.0545589 139.289641,33.6408907 137.885893,34.7364038 C136.495885,35.8436984 135.225641,36.3934194 134.071231,36.3934194 C133.140632,36.3934194 132.414216,36.085162 131.878241,35.4903071 C131.342255,34.8816893 131.06937,34.0669248 131.06937,33.0460191 C131.06937,32.6867286 131.106657,32.2881923 131.177335,31.8405596 C131.242114,31.3889978 131.346184,30.8883676 131.485592,30.3602451 L135.67132,13.9942987 L131.263746,13.9942987 L131.67407,12.5866271 C133.568642,12.1723523 135.243322,11.2692622 136.705972,9.87140202 C138.160765,8.46765384 139.482053,6.52988967 140.642356,4.04829802 L142.146234,4.04829802 L140.179019,12.2646458 L144.20572,12.2646458 L143.799293,13.9942987 L139.648904,13.9942987 L135.63006,29.8026716 C135.537789,30.161962 135.46711,30.4760796 135.418025,30.7725331 C135.384634,31.0611453 135.353246,31.326161 135.353246,31.549994 C135.353246,32.0761853 135.46711,32.4727405 135.704689,32.7554535 C135.922623,33.0362187 136.254422,33.1716761 136.656881,33.1716761 C137.183073,33.1716761 137.80148,32.8654222 138.533784,32.2234076 C139.264125,31.5951558 140.18883,30.5624685 141.298089,29.1390862 L142.197267,29.9872198 Z" id="Path"></path>
                <path d="M146.308237,24.5994716 C149.547656,24.444369 152.278586,23.5569672 154.467647,21.9568893 C156.674384,20.3312893 157.762045,18.5074006 157.762045,16.438097 C157.762045,15.7450549 157.587297,15.224785 157.235909,14.8753227 C156.896264,14.5396288 156.368136,14.3668288 155.659394,14.3668288 C153.696108,14.3668288 151.872214,15.2562006 150.203422,17.0702723 C148.532666,18.8961311 147.238864,21.4012803 146.308237,24.5994716 M145.925434,26.3330535 C145.774283,26.9200726 145.67806,27.4874632 145.609329,28.0273672 C145.528856,28.5515551 145.507263,29.0443495 145.507263,29.4900121 C145.507263,30.8603857 145.839062,31.9068191 146.522281,32.6273422 C147.193725,33.3498354 148.185185,33.8838458 149.477022,33.8838458 C150.749231,33.8838458 152.211881,33.2791571 153.821776,32.4054904 C155.4513,31.5377227 157.283046,30.2223224 159.3013,28.4651773 L160.367368,30.0790013 C157.958413,32.2503933 155.690821,33.8563592 153.558692,34.881194 C151.43442,35.9276274 149.353335,36.4380803 147.309559,36.4380803 C145.308969,36.4380803 143.738342,35.8314271 142.636941,34.6397137 C141.525718,33.4322897 140.974038,31.741905 140.974038,29.5371328 C140.974038,27.4305311 141.405954,25.2866201 142.269804,23.1152281 C143.133648,20.9516886 144.31555,19.010001 145.807646,17.3294278 C147.254586,15.7175683 148.846811,14.4944448 150.560759,13.6384531 C152.300229,12.792273 154.073073,12.3544629 155.898927,12.3544629 C157.581464,12.3544629 158.898829,12.7490925 159.87262,13.5304712 C160.844446,14.3059676 161.335265,15.3759585 161.335265,16.7384796 C161.335265,19.1906201 159.905995,21.320785 157.074935,23.1112991 C154.237988,24.8978897 150.521491,25.9639571 145.925439,26.3330535" id="Path"></path>
                <path d="M177.577474,26.6693151 L177.514643,29.767377 C175.989172,31.9996358 174.336086,33.6644984 172.535755,34.7757165 C170.735418,35.8771231 168.770173,36.4248796 166.641972,36.4248796 C164.311554,36.4248796 162.407165,35.6454542 160.94452,34.0669749 C159.487763,32.5140121 158.761346,30.444714 158.761346,27.8747745 C158.761346,25.98609 159.173617,24.0601074 159.998216,22.0948622 C160.81298,20.1217589 161.959537,18.3705074 163.422182,16.8136267 C164.759181,15.4059495 166.25913,14.3065074 167.922033,13.5526097 C169.569227,12.7849658 171.253729,12.3903418 172.98927,12.3903418 C174.809235,12.3903418 176.254216,12.8144114 177.332059,13.644881 C178.407938,14.4773151 178.947842,15.5826451 178.947842,16.9765763 C178.947842,17.8031224 178.672976,18.5197165 178.107556,19.1087057 C177.549982,19.7035773 176.89032,19.9941485 176.118747,19.9941485 C175.488531,19.9941485 174.980043,19.7958598 174.589348,19.3776726 C174.200617,18.9654013 174.006252,18.4313686 174.006252,17.7638542 C174.006252,17.2985464 174.157403,16.766506 174.477459,16.1461067 C174.785716,15.5355245 174.93492,15.1546465 174.93492,15.001514 C174.93492,14.7148497 174.783768,14.4851731 174.459817,14.3065074 C174.137814,14.1278639 173.713766,14.0394883 173.162086,14.0394883 C172.041051,14.0394883 170.90627,14.3810813 169.736155,15.0878806 C168.575852,15.8064448 167.560834,16.7723773 166.689132,17.9994298 C165.626999,19.4876024 164.806347,21.0719752 164.231103,22.7446904 C163.663713,24.413482 163.382964,26.0351585 163.382964,27.6411245 C163.382964,29.4552017 163.838422,30.906065 164.759226,31.9642799 C165.689825,33.0244538 166.93847,33.7430125 168.518914,33.7430125 C169.765601,33.7430125 170.990694,33.1599168 172.194184,32.3824559 C173.405531,31.5912545 175.410045,30.0166987 177.577513,26.6692984" id="Path"></path>
                <path d="M174.831034,36.4517763 L183.074868,6.58432306 C183.123842,6.40172828 183.153393,6.21718567 183.174987,6.01693245 C183.206152,5.83433767 183.2145,5.64389593 183.2145,5.4907968 C183.2145,4.95876202 183.079042,4.59357245 182.821873,4.38742567 C182.560753,4.20483089 181.812744,4.10471263 180.591579,4.10471263 L178.714676,4.10471263 L179.005236,2.74219715 C180.518925,2.68131367 181.932491,2.50267019 183.249855,2.2455015 C184.55348,1.97063541 185.802125,1.61724967 186.9585,1.15587645 L188.448637,1.15587645 L182.743326,21.7860761 C185.664698,18.8077721 188.35636,16.5028761 190.804577,14.841937 C193.2469,13.210449 195.198411,12.3819439 196.653203,12.3819439 C197.420847,12.3819439 197.976456,12.5645387 198.345552,12.9296726 C198.704843,13.3066048 198.89918,13.8779356 198.89918,14.6455794 C198.89918,14.8851064 198.859667,15.1697672 198.789211,15.5133526 C198.724432,15.8686918 198.636056,16.2574389 198.530039,16.6756205 L194.365915,30.7288128 C194.293289,30.9977798 194.224559,31.3020914 194.171578,31.6279961 C194.114646,31.942097 194.085206,32.2680295 194.085206,32.5821526 C194.085206,32.7627996 194.171578,32.91985 194.320781,33.0651022 C194.469985,33.2025631 194.65258,33.4479335 194.84892,33.4479335 C195.255348,33.4479335 195.826635,33.0003231 196.539311,32.4466563 C197.257869,31.8930285 198.011773,31.135185 198.808868,30.1770994 L199.657007,30.9054806 C198.223807,32.6842131 196.841658,34.0545867 195.51644,34.9871502 C194.185329,35.9295251 192.956312,36.4046389 191.837242,36.4046389 C191.104937,36.4046389 190.527729,36.2240476 190.105624,35.8706006 C189.675656,35.5093624 189.471485,35.030314 189.471485,34.4040267 C189.471485,34.184145 189.489293,33.9465658 189.538212,33.6933151 C189.58162,33.4419898 189.663874,33.1691272 189.763992,32.8687391 L194.041986,18.3345394 C194.120511,18.0164872 194.171544,17.7730368 194.199037,17.6081227 C194.224637,17.4490688 194.232428,17.2900705 194.232428,17.156561 C194.232428,16.7854723 194.13231,16.5027871 193.916324,16.3025338 C193.712136,16.1179912 193.413729,16.0217686 193.021064,16.0217686 C192.412446,16.0217686 191.513263,16.4007043 190.329402,17.1702904 C189.135724,17.9379342 187.775167,19.0354062 186.208464,20.454865 C184.808645,21.7113686 183.773993,22.781354 183.124143,23.6667968 C182.474298,24.5542041 181.999184,25.4730215 181.704689,26.427178 L178.867742,36.4517763 C178.543791,36.4027356 177.397245,36.3653373 177.063482,36.3437443 C176.731684,36.3203704 177.216637,36.3203704 176.87304,36.3203704 C176.525548,36.3203704 176.178039,36.3203704 175.842317,36.3437443 C175.516418,36.3654486 175.178726,36.4026243 174.831034,36.4517763" id="Path"></path>
                <path d="M125.868819,44.6675342 L125.868819,45.0562646 C125.866854,45.2565011 125.888297,45.4390959 125.943448,45.6138382 C126.061264,46.0850451 126.444095,46.3206208 127.097858,46.3206208 C127.341281,46.3206208 127.561218,46.2872295 127.759485,46.2185547 C128.205147,46.0830973 128.430928,45.7473478 128.444669,45.2231711 C128.440745,44.8638806 128.295465,44.5831432 128.004905,44.3868135 C127.796822,44.2513561 127.551396,44.1197944 127.266712,43.984337 L126.404827,43.5936587 C126.063234,43.4425074 125.77854,43.2874048 125.552765,43.1264031 C125.077662,42.7946048 124.838129,42.3214611 124.838129,41.7010618 C124.844251,41.0217658 125.112996,40.5427231 125.637183,40.2580455 C126.029865,40.0440629 126.563853,39.9340942 127.249043,39.9281951 C128.081477,39.9281951 128.684201,40.0852455 129.051339,40.4013498 C129.343846,40.6546229 129.491102,41.1532886 129.491102,41.8954104 L129.491102,42.0348191 L128.307241,42.0348191 L128.307241,41.8679182 L128.283867,41.5066799 C128.211241,40.9647947 127.859798,40.6997679 127.231546,40.713514 C126.434451,40.713514 126.03198,41.033514 126.022163,41.671594 C126.022163,42.0780218 126.273488,42.4097923 126.770173,42.6650187 C127.082326,42.8279683 127.429835,42.9870222 127.818565,43.1519196 C128.211247,43.3129213 128.529277,43.4680239 128.772721,43.6152239 C129.344041,43.9647196 129.630678,44.4869206 129.630678,45.1917443 C129.618991,46.4619885 128.776651,47.1020163 127.100006,47.1020163 C126.381442,47.1120337 125.827798,46.9900998 125.441026,46.7466771 C124.987517,46.4561171 124.742102,46.0477471 124.702833,45.5058785 L124.687251,44.9463405 L124.687251,44.6675787 L125.868819,44.6675342 Z" id="Path"></path>
                <path d="M130.421829,42.2797888 C130.425758,41.7065102 130.480709,41.2883286 130.580883,41.0213206 C130.741885,40.6012024 131.089377,40.298833 131.627316,40.1241018 C132.016047,39.9925401 132.434223,39.927761 132.883814,39.927761 C133.325526,39.927761 133.743735,39.9925401 134.138353,40.1241018 C134.66844,40.2988497 135.013979,40.6012079 135.176934,41.0213206 C135.277053,41.2824406 135.333985,41.7065102 135.341832,42.2797888 L135.341832,44.6180594 C135.341832,45.0382333 135.318458,45.4053373 135.271153,45.709649 C135.139592,46.6304309 134.354301,47.0976921 132.917178,47.1016156 C131.874673,47.1016156 131.175743,46.887633 130.820388,46.4537352 C130.549473,46.1297839 130.415963,45.5152838 130.421862,44.6180594 L130.421829,42.2797888 Z M131.607654,44.6102069 C131.611578,45.1972316 131.654959,45.582033 131.735265,45.7528406 C131.815738,45.925585 131.97084,46.0669415 132.190778,46.1690632 C132.416559,46.2691815 132.646235,46.3202145 132.883814,46.3202145 C133.097797,46.3202145 133.305936,46.2807015 133.502249,46.1926041 C133.879181,46.0434006 134.085345,45.7763815 134.122648,45.3935502 C134.142127,45.1756163 134.152144,44.9164998 134.15604,44.6101958 L134.15604,42.2738897 C134.163831,41.7673436 134.10484,41.4100399 133.987191,41.2058632 C133.800701,40.8760128 133.429623,40.7091676 132.883825,40.7130632 C132.669843,40.7130632 132.471554,40.7442285 132.285025,40.8171328 C131.898242,40.9486945 131.682295,41.2215571 131.637139,41.6279683 C131.611539,41.8125109 131.603748,42.028497 131.607643,42.2738897 L131.607654,44.6102069 Z" id="Path"></path>
                <path d="M136.413871,40.027946 L137.595767,40.027946 L137.595767,44.6828942 L137.607454,45.2974055 C137.648637,45.974737 138.043322,46.3163467 138.78935,46.3202758 C139.53736,46.3202758 139.947689,46.0022236 140.018367,45.3621902 C140.045637,45.1383571 140.05955,44.9125763 140.063446,44.6828942 L140.063446,40.027946 L141.247307,40.027946 L141.247307,44.7575015 C141.243377,45.1442841 141.229498,45.4426855 141.206124,45.6566848 C141.168837,45.9806361 141.039223,46.251562 140.811494,46.4694848 C140.379578,46.8916065 139.717946,47.0977366 138.826615,47.1016601 C137.90191,47.0977366 137.23439,46.8935766 136.82799,46.4812664 C136.600261,46.2456907 136.472651,45.9727725 136.443211,45.6566848 C136.423732,45.4681909 136.413715,45.1717318 136.413715,44.7575015 L136.413871,40.027946 Z" id="Path"></path>
                <path d="M144.333075,40.027946 L145.039857,40.027946 C145.312776,40.027946 145.564045,40.053546 145.791796,40.0907773 C146.665457,40.230186 147.107197,40.7857784 147.120937,41.765457 C147.120937,42.27985 147.005125,42.6646458 146.775393,42.9375418 C146.55156,43.1908149 146.113761,43.3616114 145.471768,43.4538827 L145.471768,43.4499592 C145.872297,43.4894723 146.160881,43.5500775 146.337577,43.632554 C146.59085,43.7582166 146.749848,43.9624045 146.81268,44.2392072 C146.853862,44.421802 146.877459,44.6397359 146.889257,44.8851286 L146.940457,45.7057811 C146.959935,46.0179342 146.993327,46.2633547 147.038628,46.4420149 C147.064228,46.5696253 147.121104,46.7561158 147.213375,47.0015585 L145.980435,47.0015585 L145.860671,46.5558904 C145.82728,46.4302278 145.805576,46.2692817 145.795892,46.0748886 L145.748588,45.4485958 L145.709075,44.7948218 C145.653979,44.2961784 145.412616,43.9938034 144.986587,43.8956385 C144.807944,43.8583516 144.593905,43.8387064 144.368152,43.8387064 L143.549464,43.8387064 L143.549464,47.0015585 L142.361675,47.0015585 L142.361675,40.027946 L144.333075,40.027946 Z M143.549726,40.8132594 L143.549726,43.0514062 L144.395901,43.0514062 C144.649174,43.0514062 144.861208,43.0358236 145.051639,43.0079975 C145.412877,42.9510653 145.66418,42.8057575 145.803578,42.5701818 C145.893901,42.4150792 145.937087,42.1579105 145.937087,41.79665 C145.937087,41.4098674 145.805526,41.1389471 145.54051,40.989738 C145.34812,40.8758737 144.992781,40.8169937 144.462667,40.8130424 L143.549726,40.8132594 Z" id="Path"></path>
                <path d="M151.575677,41.8673505 L151.569555,41.5433992 C151.540059,40.9858257 151.210264,40.7090006 150.574166,40.7129297 C150.00874,40.7148886 149.641608,40.8621331 149.4708,41.1526931 C149.376581,41.2921018 149.325492,41.437354 149.315697,41.5806584 L149.30568,42.1539425 L149.30568,44.9064657 C149.309604,45.4051648 149.35855,45.7271182 149.448984,45.8684747 C149.645325,46.1688851 149.982967,46.3200365 150.464002,46.3200365 C151.090289,46.3161074 151.447604,46.019626 151.526141,45.4287057 L151.575115,44.9790918 L151.575115,44.7395648 L152.758975,44.7395648 L152.758975,44.9829874 L152.748958,45.4188552 C152.709445,45.9391474 152.534975,46.3376726 152.212972,46.6164566 C152.018579,46.7872531 151.786955,46.9050688 151.523859,46.9737992 C151.209702,47.0601714 150.870085,47.1014097 150.499024,47.1014097 C150.180972,47.1075314 149.882554,47.0780358 149.590024,47.0189331 C148.614269,46.8363384 148.125409,46.1864991 148.119521,45.0634994 L148.119521,42.2854542 C148.117556,41.9811481 148.133434,41.7023585 148.176453,41.4412385 C148.219862,41.1231864 148.325656,40.8561784 148.494505,40.6480726 C148.871437,40.1768657 149.548785,39.935402 150.524541,39.9275495 C151.889021,39.9353408 152.625254,40.3692608 152.729307,41.2252803 C152.748785,41.3901777 152.758803,41.5727725 152.758803,41.7750125 L152.758803,42.0459272 L151.574942,42.0459272 L151.575677,41.8673505 Z" id="Path"></path>
                <polygon id="Path" points="153.792397 40.0279516 157.6658 40.0279516 157.6658 40.8132594 154.976125 40.8132594 154.976125 43.0239307 157.498838 43.0239307 157.498838 43.8092385 154.976125 43.8092385 154.976125 46.2142472 157.740368 46.2142472 157.740368 47.0015585 153.792397 47.0015585"></polygon>
                <path d="M160.810676,42.2797888 C160.812641,41.7065102 160.863546,41.2883286 160.967727,41.0213206 C161.124777,40.6012024 161.474273,40.298833 162.012196,40.1241018 C162.400926,39.9925401 162.819108,39.927761 163.268699,39.927761 C163.710411,39.927761 164.130579,39.9925401 164.527162,40.1241018 C165.053297,40.2988497 165.400823,40.6012079 165.565743,41.0213206 C165.665861,41.2824406 165.720845,41.7065102 165.728692,42.2797888 L165.728692,44.6180594 C165.728692,45.0382333 165.705318,45.4053373 165.661965,45.709649 C165.522557,46.6304309 164.743148,47.0976921 163.302096,47.1016156 C162.257627,47.1016156 161.558697,46.887633 161.20727,46.4537352 C160.936356,46.1297839 160.804794,45.5152838 160.810693,44.6180594 L160.810676,42.2797888 Z M161.992573,44.6102069 C161.998694,45.1972316 162.041547,45.582033 162.124134,45.7528406 C162.204607,45.925585 162.355814,46.0669415 162.577644,46.1690632 C162.801477,46.2691815 163.033101,46.3202145 163.268721,46.3202145 C163.486655,46.3202145 163.690843,46.2807015 163.89108,46.1926041 C164.262168,46.0434006 164.468287,45.7763815 164.505591,45.3935502 C164.527295,45.1756163 164.538982,44.9164998 164.541208,44.6101958 L164.541208,42.2738897 C164.549,41.7673436 164.492235,41.4100399 164.374308,41.2058632 C164.185814,40.8760128 163.814769,40.7091676 163.268977,40.7130632 C163.054995,40.7130632 162.858654,40.7442285 162.672136,40.8171328 C162.285353,40.9486945 162.069412,41.2215571 162.026214,41.6279683 C161.998945,41.8125109 161.988927,42.028497 161.992823,42.2738897 L161.992573,44.6102069 Z" id="Path"></path>
                <polygon id="Path" points="170.582664 40.0279516 170.582664 40.8132594 167.993179 40.8132594 167.993179 43.0180316 170.484716 43.0180316 170.484716 43.8013916 167.993179 43.8013916 167.993179 47.0015585 166.807226 47.0015585 166.807226 40.0279516"></polygon>
                <path d="M174.521669,44.6675342 L174.521669,45.0562646 C174.515547,45.2565011 174.537252,45.4390959 174.592347,45.6138382 C174.710163,46.0850451 175.09689,46.3206208 175.744798,46.3206208 C175.988221,46.3206208 176.210106,46.2872295 176.410348,46.2185547 C176.852059,46.0830973 177.079827,45.7473478 177.095537,45.2231711 C177.091608,44.8638806 176.948282,44.5831432 176.655774,44.3868135 C176.447691,44.2513561 176.200317,44.1197944 175.915617,43.984337 L175.053737,43.5936587 C174.714092,43.4425074 174.429409,43.2874048 174.197745,43.1264031 C173.728542,42.7946048 173.488998,42.3214611 173.488998,41.7010618 C173.499016,41.0217658 173.761917,40.5427231 174.290017,40.2580455 C174.678747,40.0440629 175.216687,39.9340942 175.897947,39.9281951 C176.730381,39.9281951 177.331147,40.0852455 177.704172,40.4013498 C177.99668,40.6546229 178.14004,41.1532886 178.14004,41.8954104 L178.14004,42.0348191 L176.958143,42.0348191 L176.958143,41.8679182 L176.934769,41.5066799 C176.86014,40.9647947 176.5107,40.6997679 175.880484,40.713514 C175.079465,40.713514 174.682882,41.033514 174.671101,41.671594 C174.671101,42.0780218 174.924374,42.4097923 175.421075,42.6650187 C175.729332,42.8279683 176.080742,42.9870222 176.469473,43.1519196 C176.860151,43.3129213 177.180179,43.4680239 177.425588,43.6152239 C177.992979,43.9647196 178.28158,44.4869206 178.28158,45.1917443 C178.267667,46.4619885 177.425588,47.1020163 175.750909,47.1020163 C175.03038,47.1120337 174.476735,46.9900998 174.091934,46.7466771 C173.636477,46.4561171 173.391039,46.0477471 173.3557,45.5058785 L173.336222,44.9463405 L173.336222,44.6675787 L174.521669,44.6675342 Z" id="Path"></path>
                <path d="M179.115756,40.027946 L180.297652,40.027946 L180.297652,44.6828942 L180.30767,45.2974055 C180.348852,45.974737 180.747433,46.3163467 181.489566,46.3202758 C182.237581,46.3202758 182.647905,46.0022236 182.720548,45.3621902 C182.743921,45.1383571 182.757835,44.9125763 182.76173,44.6828942 L182.76173,40.027946 L183.947556,40.027946 L183.947556,44.7575015 C183.943632,45.1442841 183.929747,45.4426855 183.902477,45.6566848 C183.871312,45.9806361 183.739528,46.251562 183.513747,46.4694848 C183.077879,46.8916065 182.41431,47.0977366 181.526903,47.1016601 C180.602198,47.0977366 179.932719,46.8935766 179.524354,46.4812664 C179.300521,46.2456907 179.172911,45.9727725 179.143471,45.6566848 C179.125662,45.4681909 179.116201,45.1717318 179.116201,44.7575015 L179.115756,40.027946 Z" id="Path"></path>
                <path d="M188.559401,41.8673505 L188.553279,41.5433992 C188.52601,40.9858257 188.190093,40.7090006 187.553967,40.7129297 C186.990505,40.7148886 186.625332,40.8621331 186.45256,41.1526931 C186.360289,41.2921018 186.309256,41.437354 186.297457,41.5806584 L186.28744,42.1539425 L186.28744,44.9064657 C186.293562,45.4051648 186.34031,45.7271182 186.436644,45.8684747 C186.627085,46.1688851 186.966731,46.3200365 187.445773,46.3200365 C188.074025,46.3161074 188.429381,46.019626 188.511835,45.4287057 L188.55914,44.9790918 L188.55914,44.7395648 L189.743,44.7395648 L189.743,44.9829874 L189.731313,45.4188552 C189.697922,45.9391474 189.515383,46.3376726 189.195327,46.6164566 C188.998987,46.7872531 188.76931,46.9050688 188.506214,46.9737992 C188.19011,47.0601714 187.850476,47.1014097 187.483344,47.1014097 C187.163344,47.1075314 186.86098,47.0780358 186.574344,47.0189331 C185.598589,46.8363384 185.109729,46.1864991 185.10777,45.0634994 L185.10777,42.2854542 C185.101648,41.9811481 185.119457,41.7023585 185.160639,41.4412385 C185.200152,41.1231864 185.303944,40.8561784 185.476744,40.6480726 C185.855679,40.1768657 186.53103,39.935402 187.508744,39.9275495 C188.875188,39.9353408 189.611422,40.3692608 189.71351,41.2252803 C189.731319,41.3901777 189.743006,41.5727725 189.743006,41.7750125 L189.743006,42.0459272 L188.559145,42.0459272 L188.559401,41.8673505 Z" id="Path"></path>
                <path d="M194.276538,41.8673505 L194.270416,41.5433992 C194.24092,40.9858257 193.913073,40.7090006 193.273068,40.7129297 C192.707642,40.7148886 192.342469,40.8621331 192.169697,41.1526931 C192.075478,41.2921018 192.024389,41.437354 192.018545,41.5806584 L192.004632,42.1539425 L192.004632,44.9064657 C192.008561,45.4051648 192.059728,45.7271182 192.14994,45.8684747 C192.346281,46.1688851 192.683979,46.3200365 193.162993,46.3200365 C193.79321,46.3161074 194.146601,46.019626 194.227096,45.4287057 L194.27607,44.9790918 L194.27607,44.7395648 L195.459931,44.7395648 L195.459931,44.9829874 L195.449914,45.4188552 C195.410401,45.9391474 195.23198,46.3376726 194.913928,46.6164566 C194.719535,46.7872531 194.48791,46.9050688 194.22285,46.9737992 C193.912645,47.0601714 193.567112,47.1014097 193.198015,47.1014097 C192.881911,47.1075314 192.577616,47.0780358 192.29098,47.0189331 C191.315224,46.8363384 190.826365,46.1864991 190.820477,45.0634994 L190.820477,42.2854542 C190.814355,41.9811481 190.836059,41.7023585 190.877409,41.4412385 C190.918591,41.1231864 191.020713,40.8561784 191.19151,40.6480726 C191.570445,40.1768657 192.249719,39.935402 193.225474,39.9275495 C194.591919,39.9353408 195.326188,40.3692608 195.430241,41.2252803 C195.449719,41.3901777 195.459736,41.5727725 195.459736,41.7750125 L195.459736,42.0459272 L194.275876,42.0459272 L194.276538,41.8673505 Z" id="Path"></path>
                <polygon id="Path" points="196.492095 40.0279516 200.363823 40.0279516 200.363823 40.8132594 197.675806 40.8132594 197.675806 43.0239307 200.196855 43.0239307 200.196855 43.8092385 197.675806 43.8092385 197.675806 46.2142472 200.440066 46.2142472 200.440066 47.0015585 196.492095 47.0015585"></polygon>
                <path d="M202.179102,44.6675342 L202.179102,45.0562646 C202.175173,45.2565011 202.19858,45.4390959 202.253732,45.6138382 C202.371547,46.0850451 202.754379,46.3206208 203.404212,46.3206208 C203.647635,46.3206208 203.871468,46.2872295 204.069768,46.2185547 C204.511535,46.0830973 204.741211,45.7473478 204.758881,45.2231711 C204.751089,44.8638806 204.605726,44.5831432 204.315166,44.3868135 C204.107083,44.2513561 203.859709,44.1197944 203.575009,43.984337 L202.715088,43.5936587 C202.373495,43.4425074 202.088801,43.2874048 201.861061,43.1264031 C201.389854,42.7946048 201.150349,42.3214611 201.150349,41.7010618 C201.158141,41.0217658 201.421264,40.5427231 201.949409,40.2580455 C202.338139,40.0440629 202.874114,39.9340942 203.559304,39.9281951 C204.391738,39.9281951 204.992503,40.0852455 205.365523,40.4013498 C205.656083,40.6546229 205.801391,41.1532886 205.801391,41.8954104 L205.801391,42.0348191 L204.61753,42.0348191 L204.61753,41.8679182 L204.594156,41.5066799 C204.52153,40.9647947 204.168139,40.6997679 203.53987,40.713514 C202.74474,40.713514 202.340304,41.033514 202.332452,41.671594 C202.332452,42.0780218 202.583777,42.4097923 203.078497,42.6650187 C203.388702,42.8279683 203.740123,42.9870222 204.130818,43.1519196 C204.521496,43.3129213 204.837601,43.4680239 205.084975,43.6152239 C205.652365,43.9647196 205.942931,44.4869206 205.942931,45.1917443 C205.929018,46.4619885 205.088904,47.1020163 203.410295,47.1020163 C202.687802,47.1120337 202.138086,46.9900998 201.753279,46.7466771 C201.295819,46.4561171 201.050426,46.0477471 201.017051,45.5058785 L200.995347,44.9463405 L200.995347,44.6675787 L202.179102,44.6675342 Z" id="Path"></path>
                <path d="M207.668593,44.6675342 L207.668593,45.0562646 C207.662472,45.2565011 207.686402,45.4390959 207.739272,45.6138382 C207.857087,46.0850451 208.243814,46.3206208 208.891723,46.3206208 C209.137149,46.3206208 209.35703,46.2872295 209.553349,46.2185547 C209.999012,46.0830973 210.226751,45.7473478 210.244421,45.2231711 C210.238299,44.8638806 210.091266,44.5831432 209.800706,44.3868135 C209.594571,44.2513561 209.345249,44.1197944 209.060543,43.984337 L208.202593,43.5936587 C207.861,43.4425074 207.5763,43.2874048 207.34856,43.1264031 C206.873457,42.7946048 206.635889,42.3214611 206.635889,41.7010618 C206.643681,41.0217658 206.910756,40.5427231 207.434943,40.2580455 C207.825622,40.0440629 208.359654,39.9340942 209.046803,39.9281951 C209.881201,39.9281951 210.478038,40.0852455 210.849099,40.4013498 C211.141606,40.6546229 211.29081,41.1532886 211.29081,41.8954104 L211.29081,42.0348191 L210.106949,42.0348191 L210.106949,41.8679182 L210.079679,41.5066799 C210.009001,40.9647947 209.65561,40.6997679 209.025393,40.713514 C208.232228,40.713514 207.827792,41.033514 207.81994,41.671594 C207.81994,42.0780218 208.067313,42.4097923 208.569914,42.6650187 C208.876168,42.8279683 209.227617,42.9870222 209.616347,43.1519196 C210.009029,43.3129213 210.325089,43.4680239 210.568539,43.6152239 C211.139853,43.9647196 211.428454,44.4869206 211.428454,45.1917443 C211.414541,46.4619885 210.572463,47.1020163 208.897783,47.1020163 C208.179219,47.1120337 207.627539,46.9900998 207.240767,46.7466771 C206.781359,46.4561171 206.537914,46.0477471 206.502575,45.5058785 L206.48087,44.9463405 L206.48087,44.6675787 L207.668593,44.6675342 Z" id="Path"></path>
            </g>
        </g>
    </g>
</svg>