<?xml version="1.0" encoding="UTF-8"?>
<svg width="109px" height="48px" viewBox="0 0 109 48" version="1.1" xmlns="http://www.w3.org/2000/svg" xmlns:xlink="http://www.w3.org/1999/xlink">
    <!-- Generator: Sketch 60.1 (88133) - https://sketch.com -->
    <title>pragmatic</title>
    <desc>Created with Sketch.</desc>
    <g id="design" stroke="none" stroke-width="1" fill="none" fill-rule="evenodd">
        <g id="main" transform="translate(-877.000000, -352.000000)" fill="#FFB124">
            <g id="pragmatic" transform="translate(877.000000, 352.000000)">
                <path d="M2.04485,30.35665 L2.57085,30.35665 C2.98485,30.35665 3.27235,30.32715 3.43435,30.26765 C3.59585,30.20865 3.72285,30.11065 3.81585,29.97415 C3.90835,29.83815 3.95435,29.67315 3.95435,29.47915 C3.95435,29.14265 3.82435,28.89765 3.56435,28.74315 C3.37485,28.62865 3.02385,28.57165 2.51185,28.57165 L2.04485,28.57165 L2.04485,30.35665 Z M0.38935,26.95715 L2.14535,26.95715 C3.09535,26.95715 3.77985,27.04515 4.19985,27.22065 C4.61935,27.39565 4.95085,27.67965 5.19285,28.07215 C5.43535,28.46415 5.55685,28.93365 5.55685,29.48165 C5.55685,30.08915 5.39785,30.59365 5.08085,30.99515 C4.76335,31.39765 4.33285,31.67765 3.78885,31.83515 C3.46985,31.92565 2.88835,31.97115 2.04485,31.97115 L2.04485,35.65465 L0.38935,35.65465 L0.38935,26.95715 Z" id="Path"></path>
                <path d="M8.56925,30.35665 L9.08775,30.35665 C9.61425,30.35665 9.97675,30.28765 10.17525,30.14915 C10.37375,30.01115 10.47275,29.78165 10.47275,29.46115 C10.47275,29.27115 10.42375,29.10615 10.32575,28.96615 C10.22725,28.82515 10.09575,28.72465 9.93075,28.66315 C9.76575,28.60165 9.46325,28.57165 9.02275,28.57165 L8.56925,28.57165 L8.56925,30.35665 Z M6.91325,26.95715 L8.66775,26.95715 C9.62825,26.95715 10.31225,27.04315 10.71975,27.21465 C11.12725,27.38615 11.45475,27.67065 11.70325,28.06915 C11.95125,28.46715 12.07525,28.93815 12.07525,29.48165 C12.07525,30.05365 11.93825,30.53165 11.66425,30.91565 C11.39025,31.30015 10.97725,31.59065 10.42575,31.78765 L12.48575,35.65465 L10.67625,35.65465 L8.72075,31.97115 L8.56925,31.97115 L8.56925,35.65465 L6.91325,35.65465 L6.91325,26.95715 Z" id="Path"></path>
                <path d="M17.68595,29.2629 L16.51895,32.2489 L18.84545,32.2489 L17.68595,29.2629 Z M16.83595,26.9574 L18.51495,26.9574 L21.85995,35.6544 L20.13945,35.6544 L19.45895,33.8629 L15.90995,33.8629 L15.20245,35.6544 L13.48195,35.6544 L16.83595,26.9574 Z" id="Path"></path>
                <path d="M30.5175,28.3762 L29.3515,29.5292 C28.614,28.7487 27.754,28.3587 26.772,28.3587 C25.9155,28.3587 25.1985,28.6422 24.621,29.2097 C24.0425,29.7777 23.754,30.4677 23.754,31.2792 C23.754,32.1187 24.0535,32.8302 24.6535,33.4137 C25.253,33.9967 25.993,34.2887 26.873,34.2887 C27.445,34.2887 27.9275,34.1682 28.32,33.9282 C28.713,33.6877 29.029,33.3112 29.27,32.7987 L26.7515,32.7987 L26.7515,31.2437 L31.1265,31.2437 L31.1385,31.6107 C31.1385,32.3707 30.941,33.0927 30.547,33.7742 C30.153,34.4562 29.6425,34.9762 29.016,35.3352 C28.389,35.6937 27.654,35.8732 26.8105,35.8732 C25.908,35.8732 25.1025,35.6772 24.3955,35.2847 C23.688,34.8927 23.128,34.3342 22.716,33.6087 C22.304,32.8837 22.0985,32.1007 22.0985,31.2617 C22.0985,30.1107 22.4785,29.1097 23.2395,28.2582 C24.142,27.2447 25.3165,26.7387 26.763,26.7387 C27.52,26.7387 28.2275,26.8787 28.886,27.1582 C29.4415,27.3947 29.9855,27.8012 30.5175,28.3762" id="Path"></path>
                <polygon id="Path" points="33.3996 26.95725 35.0126 26.95725 37.0286 33.02325 39.0631 26.95725 40.6751 26.95725 42.1341 35.65475 40.5331 35.65475 39.6006 30.16175 37.7531 35.65475 36.2941 35.65475 34.4626 30.16175 33.5076 35.65475 31.8936 35.65475"></polygon>
                <path d="M47.33735,29.2629 L46.17035,32.2489 L48.49735,32.2489 L47.33735,29.2629 Z M46.48735,26.9574 L48.16635,26.9574 L51.51135,35.6544 L49.79085,35.6544 L49.11035,33.8629 L45.56135,33.8629 L44.85385,35.6544 L43.13335,35.6544 L46.48735,26.9574 Z" id="Path"></path>
                <polygon id="Path" points="51.33415 26.95725 56.14115 26.95725 56.14115 28.58925 54.55665 28.58925 54.55665 35.65475 52.87715 35.65475 52.87715 28.58925 51.33415 28.58925"></polygon>
                <polygon id="Path" points="57.4365 35.655 59.08 35.655 59.08 26.9575 57.4365 26.9575"></polygon>
                <path d="M68.8129,28.4856 L67.6554,29.5896 C66.8674,28.7571 65.9814,28.3406 64.9969,28.3406 C64.1659,28.3406 63.4664,28.6246 62.8969,29.1931 C62.3279,29.7611 62.0434,30.4616 62.0434,31.2941 C62.0434,31.8736 62.1694,32.3891 62.4214,32.8386 C62.6734,33.2881 63.0299,33.6421 63.4904,33.8981 C63.9514,34.1546 64.4634,34.2826 65.0264,34.2826 C65.5069,34.2826 65.9464,34.1931 66.3439,34.0136 C66.7414,33.8336 67.1784,33.5076 67.6554,33.0341 L68.7779,34.2051 C68.1354,34.8321 67.5279,35.2671 66.9564,35.5096 C66.3854,35.7516 65.7329,35.8731 64.9994,35.8731 C63.6474,35.8731 62.5409,35.4446 61.6794,34.5871 C60.8184,33.7296 60.3879,32.6311 60.3879,31.2911 C60.3879,30.4241 60.5839,29.6536 60.9759,28.9791 C61.3684,28.3056 61.9299,27.7636 62.6609,27.3531 C63.3924,26.9436 64.1794,26.7386 65.0234,26.7386 C65.7404,26.7386 66.4309,26.8901 67.0954,27.1931 C67.7599,27.4961 68.3319,27.9271 68.8129,28.4856" id="Path"></path>
                <path d="M76.01065,30.4646 L76.52615,30.4646 C76.93215,30.4646 77.21365,30.4351 77.37215,30.3771 C77.53015,30.3191 77.65465,30.2236 77.74565,30.0896 C77.83615,29.9556 77.88165,29.7941 77.88165,29.6041 C77.88165,29.2751 77.75415,29.0351 77.49965,28.8836 C77.31415,28.7711 76.97015,28.7151 76.46865,28.7151 L76.01065,28.7151 L76.01065,30.4646 Z M74.38915,27.1341 L76.10915,27.1341 C77.04015,27.1341 77.71065,27.2201 78.12215,27.3916 C78.53365,27.5636 78.85765,27.8416 79.09515,28.2256 C79.33315,28.6101 79.45165,29.0706 79.45165,29.6071 C79.45165,30.2021 79.29565,30.6961 78.98515,31.0901 C78.67415,31.4841 78.25215,31.7581 77.71965,31.9126 C77.40665,32.0011 76.83715,32.0456 76.01065,32.0456 L76.01065,35.6546 L74.38915,35.6546 L74.38915,27.1341 Z" id="Path"></path>
                <polygon id="Path" points="80.497 27.134 82.119 27.134 82.119 34.1075 84.4825 34.1075 84.4825 35.6545 80.497 35.6545"></polygon>
                <path d="M89.538,29.3928 L88.395,32.3183 L90.6745,32.3183 L89.538,29.3928 Z M88.7055,27.1338 L90.3505,27.1338 L93.6275,35.6543 L91.942,35.6543 L91.2755,33.8993 L87.7985,33.8993 L87.1055,35.6543 L85.42,35.6543 L88.7055,27.1338 Z" id="Path"></path>
                <polygon id="Path" points="92.4345 27.134 94.1755 27.134 95.7655 30.199 97.3475 27.134 99.067 27.134 96.573 31.9645 96.573 35.6545 94.94 35.6545 94.94 31.9645"></polygon>
                <path d="M104.21185,30.1848 L103.63035,30.1848 L103.63035,27.7383 L103.09635,27.7383 L103.09635,27.1738 L104.76085,27.1738 L104.76085,27.7383 L104.21185,27.7383 L104.21185,30.1848 Z M107.91535,30.1848 L107.59285,28.2828 L106.95285,30.1848 L106.44785,30.1848 L105.81335,28.2828 L105.48285,30.1848 L104.92435,30.1848 L105.44585,27.1738 L106.00385,27.1738 L106.70185,29.2738 L107.40635,27.1738 L107.96435,27.1738 L108.46985,30.1848 L107.91535,30.1848 Z" id="Path"></path>
                <path d="M88.66255,18.82785 C83.57105,19.14435 85.85755,25.77585 91.48655,25.42535 C96.99205,25.08335 94.08955,18.49035 88.66255,18.82785" id="Path"></path>
                <path d="M86.51215,45.82055 C78.40365,45.82055 71.83115,39.24755 71.83115,31.13955 C71.83115,23.03105 78.40365,16.45805 86.51215,16.45805 C94.62065,16.45805 101.19315,23.03105 101.19315,31.13955 C101.19315,39.24755 94.62065,45.82055 86.51215,45.82055 M86.51215,14.73105 C77.45015,14.73105 70.10415,22.07705 70.10415,31.13955 C70.10415,40.20105 77.45015,47.54705 86.51215,47.54705 C95.57415,47.54705 102.92015,40.20105 102.92015,31.13955 C102.92015,22.07705 95.57415,14.73105 86.51215,14.73105" id="Path"></path>
                <path d="M86.018,3.27905 C82.1235,6.22355 82.8,10.73805 82.8,10.73805 C82.8,10.73805 80.352,4.38355 77.174,0.49955 C76.744,5.50005 78.312,12.12655 78.312,12.12655 C78.312,12.12655 76.3205,8.01855 71.4445,7.78855 C75.4895,10.11655 77.058,14.30305 77.4175,15.42655 C79.7585,13.98255 82.49,13.11055 85.4175,13.00555 C85.0975,11.95805 83.9635,7.54955 86.018,3.27905" id="Path"></path>
            </g>
        </g>
    </g>
</svg>