<?xml version="1.0" encoding="UTF-8"?>
<svg width="100px" height="48px" viewBox="0 0 100 48" version="1.1" xmlns="http://www.w3.org/2000/svg" xmlns:xlink="http://www.w3.org/1999/xlink">
    <!-- Generator: Sketch 60.1 (88133) - https://sketch.com -->
    <title>egt</title>
    <desc>Created with Sketch.</desc>
    <g id="design" stroke="none" stroke-width="1" fill="none" fill-rule="evenodd">
        <g id="main" transform="translate(-100.000000, -160.000000)" fill="#FFB124">
            <g id="egt" transform="translate(100.000000, 160.000000)">
                <path d="M58.3618034,1.69770049 C58.2993217,1.6810569 58.23684,1.66468616 58.1743584,1.64831541 C56.7446469,1.10535248 55.2489068,0.772480733 53.8055531,0.272900264 L55.0202621,0.272900264 C55.0600976,0.499907883 55.2472698,0.472896159 55.406066,0.497452272 C60.1718617,1.23168004 64.9035518,2.14134759 69.5787628,3.32413368 C75.4981501,4.8217837 81.2980311,6.6722232 86.7822295,9.39986162 C89.9584263,10.9793653 92.9733712,12.8093414 95.5012866,15.3451693 C96.8079446,16.6556472 97.9173352,18.1020022 98.5923555,19.8490332 C99.7424001,22.8244155 99.259736,25.5970735 97.5678199,28.2213034 C96.8827043,29.2843102 96.0106895,30.1770613 95.1119358,31.067084 C92.200945,33.9502444 88.661045,35.8260586 85.0084597,37.5310713 C81.0890313,39.3602289 77.0001657,40.7293686 72.8466356,41.9077891 C68.9711354,43.0070845 65.0437944,43.8886489 61.0845306,44.6348819 C57.3394506,45.3404608 53.5744528,45.9093441 49.7930843,46.3690891 C46.2782861,46.7966383 42.7531197,47.1145035 39.2197679,47.3567905 C32.533957,47.815717 25.8418706,47.9537769 19.1435088,47.8078045 C13.4093837,47.6828411 7.68917368,47.3106796 1.98206027,46.7437062 C1.2573821,46.671675 0.527792713,46.627474 0.000109138278,46.4782274 C3.8308627,46.5450746 7.85124402,46.6493016 11.8738081,46.5458931 C17.000033,46.4138358 22.1169812,46.1472656 27.222197,45.6528692 C31.0826908,45.2790706 34.9295422,44.8051376 38.7570216,44.1835951 C45.6357344,43.0671105 52.4257724,41.5653678 59.0471918,39.3673229 C63.8713765,37.7662643 68.5613212,35.8525246 72.888381,33.1461682 C75.7055128,31.3844035 78.3016396,29.3604342 80.214288,26.5869577 C81.6865633,24.4516672 82.4783615,22.1193822 82.1487639,19.4899683 C81.8920161,17.4447169 81.0074504,15.6687643 79.7741878,14.049698 C78.748288,12.7023859 77.5573166,11.5105959 76.2318322,10.4631413 C73.4886416,8.29483655 70.4769708,6.56581338 67.2983184,5.12436957 C66.1643717,4.61005544 65.0113258,4.13803238 63.8681023,3.64418168 C63.6973009,3.57051334 63.5316836,3.48511264 63.338236,3.49548077 L63.3368718,3.49848207 C61.7742845,2.76971122 60.1434858,2.23002244 58.4889495,1.75718085 C58.4889495,1.75718085 58.4908594,1.76809467 58.4905865,1.76809467 C58.4698503,1.70370309 58.4245579,1.68460389 58.3618034,1.69770049" id="Path"></path>
                <path d="M64.9567294,14.8678258 C65.629294,14.2899386 66.2502908,13.6550267 67.0216256,13.1928261 C72.0067893,10.2054385 78.4129334,12.8040209 79.8781148,18.416184 C81.2076918,23.5080304 77.5848467,28.6462605 72.3194705,29.1368371 C68.4014063,29.5019046 64.6931604,27.1971771 63.4050559,23.5023007 C62.3720621,20.5397421 62.8293515,17.7659928 64.7198993,15.2438071 C64.8091199,15.1245736 64.9403586,15.0296233 64.9597307,14.8650973 L64.9567294,14.8678258 Z" id="Path"></path>
                <path d="M34.16421,11.6092842 C34.7721102,11.6098299 35.3800105,11.6103756 35.9876378,11.6109213 C36.1355202,11.6417528 36.282584,11.6774956 36.4315578,11.7025974 C38.5414735,12.0608438 40.3163348,12.9677829 41.5719707,14.7704744 C41.8017067,15.1003449 41.8060723,15.2564126 41.4412776,15.4512244 C40.743884,15.8236588 40.0516744,16.2108269 39.3862038,16.6370118 C39.0219548,16.8702949 38.8386025,16.8116331 38.5834918,16.4735773 C38.0206111,15.7267986 37.3379512,15.1104402 36.3947236,14.8662433 L36.351614,14.8400501 L36.3016832,14.8460527 C34.4711614,14.1221931 31.4736786,14.9058059 30.1116329,16.4637548 L30.1146342,16.4612992 C29.7724857,16.6610223 29.5307444,16.9586969 29.3135593,17.2806548 L29.3116493,17.2831104 C29.0336196,17.494293 28.8426276,17.7723228 28.6988379,18.0860953 L28.6996564,18.0855496 C28.0150866,18.9712068 27.6464721,19.9878298 27.4759435,21.0819411 C27.3452504,21.9212144 27.291227,22.7580322 27.6895817,23.5533774 L27.6898545,23.5550144 C27.9517864,24.4510397 28.4961136,25.1244229 29.2990984,25.5937175 L29.2958243,25.5890791 C29.7730314,25.9724273 30.3127202,26.186884 30.9285329,26.1969793 L30.9517248,26.2130772 L30.9738253,26.1953422 C31.1533578,26.3205784 31.3618119,26.2938395 31.5607164,26.2987508 C33.6943697,26.35141 35.407295,25.4739382 36.7952611,23.9026199 C36.9712465,23.7034425 37.2151706,23.5266385 37.256916,23.1771232 L36.4127314,23.1771232 C35.1478188,23.1779417 33.883179,23.1716662 32.6185392,23.1839443 C32.2873045,23.1872184 32.1549743,23.1211898 32.2703881,22.7544852 C32.4873004,22.0644584 32.6892062,21.3678833 32.8518222,20.6636686 C32.9413156,20.2759549 33.122758,20.1725464 33.5096532,20.1752748 C35.9884564,20.1927369 38.4675323,20.1826416 40.9463355,20.1823688 C41.5214942,20.1823688 41.535955,20.2148374 41.3973494,20.797363 C41.2063574,21.6006207 40.8879465,22.3613145 40.6393841,23.1452002 L40.641294,23.1427446 C40.5782666,23.240969 40.5048711,23.3342823 40.4541218,23.4382365 C38.618416,27.1988687 34.829135,29.7106862 30.14683,29.2321148 C28.578513,29.0716816 27.1796331,28.52981 26.0484148,27.3816753 C25.3120043,26.634351 24.8440739,25.7315046 24.4446278,24.7814558 L24.4427179,24.7724519 C24.4424451,24.7225212 24.4522675,24.6693163 24.4397166,24.622114 C23.8209026,22.29856 24.2334453,20.1021522 25.2538882,17.9791398 C25.8276827,16.785167 26.6893294,15.805651 27.5777149,14.845507 L27.5878102,14.8408686 C27.6500191,14.8422329 27.6827605,14.8124927 27.6822149,14.7491925 L27.6876718,14.7377329 C27.9872563,14.5393741 28.260102,14.3099109 28.4950222,14.0370652 L28.4974778,14.0351553 C28.8025193,13.8812703 29.0603585,13.6651765 29.3037368,13.429165 L29.307011,13.4267094 C30.8008411,12.4864831 32.4065381,11.8444772 34.16421,11.6092842" id="Path"></path>
                <path d="M13.0922006,19.7073717 C13.1025687,19.6492556 13.112664,19.5908666 13.1230321,19.5324776 C13.1844224,19.3775013 13.2589093,19.2263448 13.3058387,19.0670029 C13.9475718,16.8875115 14.5868493,14.7072015 15.2225797,12.5258002 C15.3063434,12.2382208 15.3824673,12.0218542 15.7780936,12.0242891 C18.542839,12.0423176 21.3075844,12.0319495 24.0726027,12.0354965 C24.2251235,12.0357693 24.427575,11.9681036 24.4766872,12.2169389 L24.4502212,12.4193904 C24.162369,13.1034145 24.0016628,13.8272741 23.8052139,14.5391286 C23.7048067,14.9036504 23.5582886,15.08291 23.1206441,15.074179 C21.4691091,15.0403461 19.8162099,15.0722691 18.164402,15.0507142 C17.7851465,15.045803 17.6361728,15.1775875 17.5439509,15.5317412 C17.3324955,16.3456399 17.1005767,17.1565373 16.829368,17.9524282 C16.6651149,18.4340009 16.8189999,18.5142175 17.2700138,18.5079421 C18.8713452,18.4852959 20.4734952,18.5054864 22.0748265,18.4915713 C22.4568105,18.48857 22.6472568,18.5349538 22.4928261,18.9914246 C22.272094,19.6443444 22.0895602,20.3117249 21.9274899,20.9815611 C21.8379965,21.3504485 21.6753804,21.4972395 21.2786628,21.4920554 C19.626855,21.4707735 17.9747743,21.4942382 16.3229664,21.4724105 C15.9581717,21.4674993 15.789826,21.5529 15.6899644,21.9264258 C15.3781018,23.0972066 15.0419559,24.2625306 14.6684301,25.414758 C14.5249133,25.8581322 14.6526051,25.9184311 15.0547796,25.9146113 C16.7068603,25.8976949 18.3592139,25.9148841 20.0112945,25.8987862 C20.3894587,25.8949664 20.4906844,26.0185655 20.3804548,26.3683537 C20.1523558,27.0905762 19.9253482,27.8130716 19.7158027,28.541024 C19.6464999,28.7811282 19.5193538,28.8512495 19.2803409,28.850438 C16.3469769,28.8408814 13.4133399,28.83979 10.4799759,28.8365158 L10.4701534,28.8179623 C10.8480447,27.4922051 11.2232075,26.1656293 11.6049187,24.8409635 C12.0979508,23.1291296 12.5961671,21.4183871 13.0922006,19.7073717" id="Path"></path>
                <path d="M45.1660852,12.2246331 L45.3071464,12.0270928 C48.4091291,12.0295484 51.5111118,12.0322769 54.6130945,12.0344597 C55.5039357,12.0352782 55.5020258,12.0341868 55.2673785,12.8783714 C55.2362741,12.990511 55.2338185,13.1105631 55.2182663,13.2267953 L55.2193576,13.2248854 C54.9978069,13.6095979 54.914589,14.0472423 54.8392836,14.4679704 C54.7517001,14.9580013 54.5282395,15.0927871 54.0564893,15.0712322 C53.2660553,15.0346709 52.4715286,15.0848745 51.680549,15.0518602 C51.2527269,15.0341252 51.0570966,15.1612713 50.9531424,15.5956417 C50.753965,16.4289124 50.4808465,17.2441754 50.2410151,18.0678965 C49.7482558,19.7614497 49.2574064,21.4558215 48.7657384,23.1499204 C48.7561888,23.210765 48.7466392,23.2718825 48.7370896,23.3327271 C48.6781549,23.4713327 48.6050323,23.6055727 48.5624684,23.7488167 C48.0920824,25.3305032 47.6178766,26.9110983 47.167954,28.4985146 C47.0953771,28.7549896 47.0064294,28.856761 46.7360393,28.8518498 C45.9436954,28.8376618 45.1508058,28.8423002 44.358189,28.8523955 C44.0455079,28.856761 43.9486477,28.7839112 44.050692,28.4423084 C44.5955648,26.6196991 45.1153359,24.7897231 45.6427466,22.9622026 C46.1316861,21.2659209 46.6192613,19.5690935 47.1073823,17.8728118 C47.1120207,17.8187884 47.116659,17.7650378 47.1215703,17.7107415 C47.4874563,16.949502 47.5938662,16.1058631 47.8811727,15.3195218 C47.9807613,15.0464033 47.7728529,15.061137 47.6036886,15.061137 C46.7292181,15.0600456 45.854202,15.0614098 44.9794587,15.0614098 C44.3715585,15.061137 44.3808352,15.0630469 44.5521823,14.4532367 C44.7606365,13.7116421 45.0310265,12.9866911 45.1660852,12.2246331" id="Path"></path>
            </g>
        </g>
    </g>
</svg>