<?xml version="1.0" encoding="UTF-8"?>
<svg width="151px" height="47px" viewBox="0 0 151 47" version="1.1" xmlns="http://www.w3.org/2000/svg" xmlns:xlink="http://www.w3.org/1999/xlink">
    <!-- Generator: Sketch 60.1 (88133) - https://sketch.com -->
    <title>relax_gaming</title>
    <desc>Created with Sketch.</desc>
    <g id="design" stroke="none" stroke-width="1" fill="none" fill-rule="evenodd">
        <g id="main" transform="translate(-1989.000000, -352.000000)" fill="#FFB124" fill-rule="nonzero">
            <g id="relax_gaming" transform="translate(1989.000000, 352.000000)">
                <path d="M8.72727273,42.3272727 C8.72727273,44.0727273 8.29090909,45.2363636 7.27272727,46.1090909 C6.69090909,46.6909091 5.81818182,46.8363636 4.65454545,46.8363636 C3.2,46.8363636 2.18181818,46.2545455 1.30909091,45.2363636 C0.581818182,44.2181818 0.290909091,43.2 0.290909091,42.0363636 C0.290909091,40.5818182 0.581818182,39.4181818 1.45454545,38.4 C1.89090909,37.9636364 2.32727273,37.5272727 2.76363636,37.2363636 C3.34545455,36.9454545 3.92727273,36.8 4.65454545,36.8 C5.38181818,36.8 5.96363636,36.9454545 6.69090909,37.0909091 C7.27272727,37.2363636 7.70909091,37.5272727 8,37.9636364 C8.14545455,38.1090909 8.14545455,38.2545455 8.14545455,38.4 C8.14545455,38.5454545 8.14545455,38.6909091 8,38.8363636 C7.85454545,38.9818182 7.70909091,38.9818182 7.56363636,38.9818182 C7.41818182,38.9818182 7.27272727,38.9818182 7.12727273,38.8363636 C6.69090909,38.5454545 6.4,38.2545455 6.10909091,38.1090909 C5.67272727,37.9636364 5.38181818,37.8181818 4.8,37.8181818 C3.78181818,37.8181818 2.90909091,38.2545455 2.32727273,39.1272727 C1.89090909,39.8545455 1.6,40.7272727 1.6,41.7454545 C1.6,43.2 2.03636364,44.2181818 2.76363636,45.0909091 C3.2,45.5272727 3.78181818,45.8181818 4.50909091,45.8181818 C4.94545455,45.8181818 5.52727273,45.6727273 5.96363636,45.5272727 C6.98181818,45.0909091 7.56363636,44.0727273 7.56363636,42.7636364 L7.56363636,42.3272727 L5.81818182,42.3272727 C5.52727273,42.3272727 5.23636364,42.1818182 5.23636364,41.7454545 C5.23636364,41.3090909 5.38181818,41.1636364 5.81818182,41.1636364 L8,41.1636364 C8.43636364,41.1636364 8.72727273,41.6 8.72727273,42.1818182 L8.72727273,42.3272727 Z" id="Path"></path>
                <path d="M150.545455,42.3272727 C150.545455,44.0727273 150.109091,45.2363636 149.090909,46.1090909 C148.509091,46.6909091 147.636364,46.8363636 146.472727,46.8363636 C145.018182,46.8363636 144,46.2545455 143.127273,45.2363636 C142.4,44.2181818 142.109091,43.2 142.109091,42.0363636 C142.109091,40.5818182 142.4,39.4181818 143.272727,38.4 C143.709091,37.9636364 144.145455,37.5272727 144.581818,37.2363636 C145.163636,36.9454545 145.745455,36.8 146.472727,36.8 C147.2,36.8 147.781818,36.9454545 148.509091,37.0909091 C149.090909,37.2363636 149.527273,37.5272727 149.818182,37.9636364 C149.963636,38.1090909 149.963636,38.2545455 149.963636,38.4 C149.963636,38.5454545 149.963636,38.6909091 149.818182,38.8363636 C149.672727,38.9818182 149.527273,38.9818182 149.381818,38.9818182 C149.236364,38.9818182 149.090909,38.9818182 148.945455,38.8363636 C148.509091,38.5454545 148.218182,38.2545455 147.927273,38.1090909 C147.490909,37.9636364 147.2,37.8181818 146.618182,37.8181818 C145.6,37.8181818 144.727273,38.2545455 144.145455,39.1272727 C143.709091,39.8545455 143.418182,40.7272727 143.418182,41.7454545 C143.418182,43.2 143.854545,44.2181818 144.581818,45.0909091 C145.018182,45.5272727 145.6,45.8181818 146.327273,45.8181818 C146.763636,45.8181818 147.345455,45.6727273 147.781818,45.5272727 C148.8,45.0909091 149.381818,44.0727273 149.381818,42.7636364 L149.381818,42.3272727 L147.636364,42.3272727 C147.345455,42.3272727 147.054545,42.1818182 147.054545,41.7454545 C147.054545,41.3090909 147.2,41.1636364 147.636364,41.1636364 L149.818182,41.1636364 C150.4,41.1636364 150.690909,41.4545455 150.690909,42.0363636 L150.690909,42.3272727 L150.545455,42.3272727 Z" id="Path"></path>
                <path d="M68.8,46.1090909 C68.8,46.6909091 68.6545455,46.9818182 68.2181818,46.9818182 C67.9272727,46.9818182 67.6363636,46.8363636 67.6363636,46.4 L66.4727273,38.4 L64.1454545,46.4 C64,46.6909091 63.8545455,46.8363636 63.5636364,46.8363636 C63.2727273,46.8363636 62.9818182,46.6909091 62.9818182,46.4 L60.6545455,38.4 L59.4909091,46.4 C59.4909091,46.8363636 59.2,46.9818182 58.7636364,46.9818182 C58.4727273,46.9818182 58.1818182,46.6909091 58.1818182,46.2545455 C58.1818182,46.1090909 58.1818182,46.1090909 58.1818182,45.9636364 L59.6363636,37.6727273 C59.6363636,37.3818182 59.7818182,37.2363636 59.9272727,37.0909091 C60.0727273,36.9454545 60.3636364,36.8 60.5090909,36.8 C60.8,36.8 60.9454545,36.8 61.0909091,36.9454545 C61.2363636,37.0909091 61.3818182,37.2363636 61.3818182,37.3818182 L63.4181818,44.5090909 L63.4181818,44.5090909 L65.4545455,37.2363636 C65.4545455,37.0909091 65.6,36.9454545 65.7454545,36.8 C65.8909091,36.6545455 66.0363636,36.6545455 66.3272727,36.6545455 C66.6181818,36.6545455 66.7636364,36.6545455 66.9090909,36.8 C67.0545455,36.9454545 67.2,37.0909091 67.2,37.3818182 L68.8,46.1090909 Z" id="Path"></path>
                <path d="M91.4909091,46.2545455 C91.4909091,46.6909091 91.3454545,46.9818182 90.9090909,46.9818182 C90.4727273,46.9818182 90.3272727,46.8363636 90.3272727,46.4 L90.3272727,37.6727273 C90.3272727,37.2363636 90.4727273,37.0909091 90.9090909,37.0909091 C91.3454545,37.0909091 91.4909091,37.2363636 91.4909091,37.6727273 L91.4909091,46.2545455 Z" id="Path"></path>
                <path d="M120.727273,46.2545455 C120.727273,46.6909091 120.581818,46.8363636 120.145455,46.8363636 C119.854545,46.8363636 119.709091,46.6909091 119.418182,46.4 L114.181818,38.9818182 L114.181818,46.1090909 C114.181818,46.5454545 114.036364,46.6909091 113.6,46.6909091 C113.163636,46.6909091 113.018182,46.5454545 113.018182,46.1090909 L113.018182,37.3818182 C113.018182,36.9454545 113.163636,36.8 113.454545,36.8 C113.745455,36.8 113.890909,36.9454545 114.181818,37.2363636 L119.272727,44.6545455 L119.272727,44.6545455 L119.272727,37.5272727 C119.272727,37.3818182 119.272727,37.2363636 119.418182,37.0909091 C119.563636,36.9454545 119.709091,36.9454545 119.854545,36.9454545 C120.290909,36.9454545 120.436364,37.0909091 120.436364,37.5272727 L120.436364,46.2545455 L120.727273,46.2545455 Z" id="Path"></path>
                <path d="M37.5272727,46.4 C37.5272727,46.6909091 37.3818182,46.8363636 36.9454545,46.8363636 C36.8,46.8363636 36.6545455,46.8363636 36.5090909,46.6909091 C36.3636364,46.6909091 36.3636364,46.6909091 36.3636364,46.5454545 L35.7818182,44.8 L31.2727273,44.8 L30.4,46.5454545 C30.2545455,46.8363636 30.1090909,46.9818182 29.8181818,46.9818182 C29.5272727,46.9818182 29.2363636,46.8363636 29.2363636,46.5454545 C29.2363636,46.5454545 29.2363636,46.4 29.2363636,46.4 L29.2363636,46.2545455 L32.4363636,37.8181818 C32.5818182,37.5272727 32.5818182,37.3818182 32.7272727,37.2363636 C32.8727273,37.0909091 33.0181818,37.0909091 33.1636364,37.0909091 C33.3090909,37.0909091 33.4545455,37.0909091 33.7454545,37.2363636 C33.8909091,37.3818182 34.0363636,37.5272727 34.0363636,37.8181818 L37.2363636,46.2545455 C37.5272727,46.2545455 37.5272727,46.4 37.5272727,46.4 M35.3454545,43.6363636 L33.4545455,38.2545455 L33.4545455,38.2545455 L31.4181818,43.6363636 L35.3454545,43.6363636 Z" id="Path"></path>
                <circle id="Path" cx="126.254545" cy="3.92727273" r="3.92727273"></circle>
                <path d="M150.690909,3.92727273 C150.690909,6.10909091 148.945455,7.85454545 146.763636,7.85454545 C144.581818,7.85454545 142.836364,6.10909091 142.836364,3.92727273 C142.836364,1.74545455 144.581818,0 146.763636,0 C148.945455,0 150.690909,1.74545455 150.690909,3.92727273 Z" id="Path"></path>
                <circle id="Path" cx="126.254545" cy="23.1272727" r="3.92727273"></circle>
                <path d="M150.690909,23.1272727 C150.690909,25.3090909 148.945455,27.0545455 146.763636,27.0545455 C144.581818,27.0545455 142.836364,25.3090909 142.836364,23.1272727 C142.836364,20.9454545 144.581818,19.2 146.763636,19.2 C148.945455,19.2 150.690909,20.9454545 150.690909,23.1272727 Z" id="Path"></path>
                <path d="M140.509091,13.5272727 C140.509091,15.7090909 138.763636,17.4545455 136.581818,17.4545455 C134.4,17.4545455 132.654545,15.7090909 132.654545,13.5272727 C132.654545,11.3454545 134.4,9.6 136.581818,9.6 C138.763636,9.6 140.509091,11.3454545 140.509091,13.5272727 Z" id="Path"></path>
                <path d="M115.781818,26.1818182 L104.872727,0.436363636 L104.872727,0.436363636 C104.727273,0.145454545 104.581818,0 104.290909,0 L104.290909,0 L102.109091,0 L101.818182,0 L99.6363636,0 L99.6363636,0 C99.3454545,0 99.2,0.145454545 99.0545455,0.436363636 L99.0545455,0.436363636 L88,26.1818182 C88,26.1818182 88,26.3272727 88,26.3272727 C88,26.6181818 88.1454545,26.7636364 88.4363636,26.7636364 L93.3818182,26.7636364 C93.6727273,26.7636364 93.8181818,26.6181818 93.9636364,26.3272727 L93.9636364,26.3272727 L96.2909091,20.3636364 L107.927273,20.3636364 L110.254545,26.3272727 L110.254545,26.3272727 C110.4,26.6181818 110.545455,26.7636364 110.836364,26.7636364 L115.781818,26.7636364 C116.072727,26.7636364 116.218182,26.6181818 116.218182,26.3272727 C115.927273,26.3272727 115.927273,26.1818182 115.781818,26.1818182 Z M97.8909091,15.7090909 L101.963636,5.38181818 L106.036364,15.7090909 L97.8909091,15.7090909 Z" id="Path"></path>
                <path d="M38.2545455,8.29090909 C38.5454545,7.27272727 38.9818182,6.83636364 38.9818182,6.83636364 C38.9818182,6.83636364 39.5636364,5.81818182 40.8727273,5.23636364 C42.1818182,4.65454545 43.3454545,4.65454545 43.3454545,4.65454545 L53.0909091,4.65454545 C53.3818182,4.65454545 53.6727273,4.36363636 53.6727273,4.07272727 L53.6727273,0.581818182 C53.6727273,0.290909091 53.3818182,0 53.0909091,0 L42.3272727,0 L42.3272727,0 C36.3636364,0 31.5636364,5.23636364 31.5636364,11.6363636 L31.5636364,13.2363636 L31.5636364,13.3818182 L31.5636364,13.6727273 L31.5636364,13.8181818 L31.5636364,15.4181818 C31.5636364,21.8181818 36.3636364,27.0545455 42.3272727,27.0545455 L42.3272727,27.0545455 L53.0909091,27.0545455 C53.3818182,27.0545455 53.6727273,26.7636364 53.6727273,26.4727273 L53.6727273,22.8363636 C53.6727273,22.5454545 53.3818182,22.2545455 53.0909091,22.2545455 L43.3454545,22.2545455 C43.3454545,22.2545455 42.0363636,22.2545455 40.8727273,21.6727273 C39.5636364,21.0909091 38.9818182,20.0727273 38.9818182,20.0727273 C38.9818182,20.0727273 38.5454545,19.4909091 38.2545455,18.6181818 C37.9636364,17.6 37.9636364,16.2909091 37.9636364,16.2909091 L37.9636364,15.7090909 L53.0909091,15.7090909 C53.3818182,15.7090909 53.6727273,15.4181818 53.6727273,15.1272727 L53.6727273,11.4909091 C53.6727273,11.2 53.3818182,10.9090909 53.0909091,10.9090909 L37.9636364,10.9090909 L37.9636364,10.6181818 C37.9636364,10.6181818 38.1090909,9.30909091 38.2545455,8.29090909 Z" id="Path"></path>
                <path d="M71.7090909,26.7636364 L80.5818182,26.7636364 C80.8727273,26.7636364 81.0181818,26.4727273 81.0181818,26.1818182 L81.0181818,22.5454545 C81.0181818,22.2545455 80.8727273,21.9636364 80.5818182,21.9636364 L72.5818182,21.9636364 C72.5818182,21.9636364 71.5636364,21.9636364 70.5454545,21.3818182 C69.5272727,20.8 68.9454545,19.7818182 68.9454545,19.7818182 C68.9454545,19.7818182 68.3636364,19.2 68.3636364,18.1818182 C68.3636364,17.3090909 68.3636364,16.1454545 68.3636364,16.1454545 L68.3636364,13.5272727 L68.3636364,0.436363636 L68.3636364,0.436363636 C68.3636364,0.145454545 68.2181818,0 67.9272727,0 L63.2727273,0 C62.9818182,0 62.6909091,0.290909091 62.6909091,0.581818182 C62.6909091,0.581818182 62.6909091,0.581818182 62.6909091,0.727272727 L62.6909091,13.6727273 L62.6909091,13.6727273 L62.6909091,15.4181818 C62.6909091,15.4181818 62.6909091,15.4181818 62.6909091,15.4181818 L62.6909091,18.1818182 C62.6909091,18.1818182 62.6909091,18.3272727 62.6909091,18.3272727 C62.8363636,22.9818182 66.7636364,26.7636364 71.7090909,26.7636364" id="Path"></path>
                <path d="M24,26.1818182 L24,26.1818182 L17.7454545,15.7090909 C17.7454545,15.7090909 17.7454545,15.7090909 17.7454545,15.7090909 L17.7454545,15.7090909 C20.9454545,14.9818182 23.1272727,12.8 23.1272727,8 C23.2727273,1.6 18.9090909,0.145454545 13.5272727,0 L12.2181818,0 L0.581818182,0 C0.290909091,0 0,0.290909091 0,0.581818182 C0,0.581818182 0,0.581818182 0,0.581818182 L0,26.3272727 C0,26.3272727 0,26.3272727 0,26.3272727 C0,26.6181818 0.290909091,26.9090909 0.581818182,26.9090909 L5.23636364,26.9090909 C5.52727273,26.9090909 5.81818182,26.6181818 5.81818182,26.3272727 L5.81818182,16.2909091 L12.3636364,16.2909091 L18.1818182,26.4727273 L18.1818182,26.4727273 C18.3272727,26.7636364 18.6181818,26.9090909 18.9090909,26.9090909 L23.8545455,26.9090909 L23.8545455,26.9090909 C23.8545455,26.9090909 23.8545455,26.9090909 23.8545455,26.9090909 C24.1454545,26.9090909 24.2909091,26.7636364 24.2909091,26.4727273 C24,26.3272727 24,26.1818182 24,26.1818182 Z M13.6727273,11.4909091 L12.2181818,11.6363636 L5.67272727,11.6363636 L5.67272727,4.8 L12.3636364,4.8 L13.6727273,4.8 C16.7272727,4.8 17.6,6.25454545 17.6,8.14545455 C17.4545455,10.0363636 16.5818182,11.4909091 13.6727273,11.4909091 Z" id="Path"></path>
            </g>
        </g>
    </g>
</svg>