<?xml version="1.0" encoding="UTF-8"?>
<svg width="100px" height="48px" viewBox="0 0 100 48" version="1.1" xmlns="http://www.w3.org/2000/svg" xmlns:xlink="http://www.w3.org/1999/xlink">
    <!-- Generator: Sketch 60.1 (88133) - https://sketch.com -->
    <title>scientific_games</title>
    <desc>Created with Sketch.</desc>
    <g id="design" stroke="none" stroke-width="1" fill="none" fill-rule="evenodd">
        <g id="main" transform="translate(-2189.000000, -352.000000)" fill="#FFB124" fill-rule="nonzero">
            <g id="scientific_games" transform="translate(2189.000000, 352.000000)">
                <path d="M56.8525952,27.4546713 C53.7467128,32.7695502 48.033218,36.3404844 41.4726644,36.3404844 C31.6235294,36.3404844 23.6346021,28.2851211 23.6346021,18.3529412 C23.6346021,8.42076125 31.6235294,0.365397924 41.4726644,0.365397924 C48.215917,0.365397924 54.0788927,4.13564014 57.1183391,9.69965398 L52.0193772,12.8055363 C50.0262976,8.96885813 46.0567474,6.36124567 41.4726644,6.36124567 C34.9121107,6.36124567 29.5806228,11.7259516 29.5806228,18.3529412 C29.5806228,24.9799308 34.9121107,30.3446367 41.4726644,30.3446367 C45.8740484,30.3446367 49.7273356,27.9197232 51.7702422,24.3321799 L56.8525952,27.4546713 Z M59.4269896,15.6622837 L41.5058824,15.6622837 L41.5058824,21.6581315 L59.4269896,21.6581315 L59.4269896,15.6622837 L59.4269896,15.6622837 Z" id="Path"></path>
                <path d="M29.8629758,22.6380623 C29.4477509,21.4920415 28.816609,20.3958478 27.9529412,19.5321799 C25.9764706,17.4726644 22.6380623,16.0941176 19.9806228,15.2968858 C18.2865052,14.7986159 16.5757785,14.300346 14.8816609,13.7854671 C13.4865052,13.3702422 11.9916955,13.0380623 10.7294118,12.2740484 C10.2643599,11.9916955 9.79930796,11.6262976 9.51695502,11.1446367 C8.98546713,10.1979239 9.15155709,9.64982699 9.31764706,9.00207612 C9.79930796,7.59031142 11.4602076,6.7266436 12.8221453,6.47750865 C14.549481,6.16193772 16.1605536,6.31141869 17.8712803,6.79307958 C19.283045,7.1916955 20.5287197,7.92249135 21.7245675,8.76955017 C21.9072664,8.90242215 22.2726644,9.18477509 22.6546713,9.53356401 C22.6878893,9.46712803 22.7211073,9.41730104 22.7543253,9.36747405 C23.5847751,7.60692042 24.6643599,5.96262976 25.9266436,4.51764706 C25.1294118,3.8200692 24.083045,3.10588235 23.0366782,2.49134948 C21.7577855,1.74394464 20.4955017,1.14602076 19.067128,0.780622837 C16.0110727,0.0166089965 12.7889273,-0.0166089965 9.86574394,1.09619377 C7.04221453,2.17577855 4.50103806,4.45121107 3.55432526,7.37439446 C3.08927336,8.83598616 2.93979239,10.7792388 3.30519031,12.2740484 C3.68719723,13.7854671 4.816609,15.5626298 6.01245675,16.5923875 C7.54048443,17.9211073 9.91557093,19.100346 11.9750865,19.7314879 C13.5861592,20.2297578 15.1972318,20.7114187 16.8083045,21.2096886 C18.1038062,21.6083045 19.4657439,21.9404844 20.7280277,22.4387543 C22.0235294,22.9536332 22.8705882,23.3522491 23.4020761,24.6975779 C23.950173,26.0595156 23.5183391,27.2553633 22.5217993,28.2186851 C21.3259516,29.3647059 19.9972318,29.9460208 18.0539792,30.3446367 C16.3598616,30.6934256 14.532872,30.4775087 12.8387543,30.0955017 C9.99861592,29.4643599 7.45743945,27.6705882 5.71349481,25.3121107 C5.46435986,24.9799308 5.24844291,24.6311419 5.03252595,24.2657439 L0.0996539792,27.4712803 C1.81038062,30.2615917 4.28512111,32.7695502 7.17508651,34.3141869 C10.7460208,36.2242215 14.9148789,36.8719723 18.8512111,36.1411765 C21.1266436,35.7093426 23.3024221,34.8290657 25.2290657,33.550173 C29.2982699,30.7266436 31.4242215,27.0062284 29.8629758,22.6380623" id="Path"></path>
                <rect id="Path" x="62.499654" y="0.0830449827" width="6.29480969" height="6.29480969"></rect>
                <rect id="Path" x="62.499654" y="7.64013841" width="6.29480969" height="6.29480969"></rect>
                <rect id="Path" x="62.499654" y="15.2138408" width="6.29480969" height="6.29480969"></rect>
                <rect id="Path" x="62.499654" y="22.7709343" width="6.29480969" height="6.29480969"></rect>
                <rect id="Path" x="62.499654" y="30.3280277" width="6.29480969" height="6.29480969"></rect>
                <rect id="Path" x="70.0567474" y="0.0830449827" width="6.29480969" height="6.29480969"></rect>
                <rect id="Path" x="70.0567474" y="7.64013841" width="6.29480969" height="6.29480969"></rect>
                <rect id="Path" x="70.0567474" y="15.2138408" width="6.29480969" height="6.29480969"></rect>
                <rect id="Path" x="70.0567474" y="22.7709343" width="6.29480969" height="6.29480969"></rect>
                <rect id="Path" x="70.0567474" y="30.3280277" width="6.29480969" height="6.29480969"></rect>
                <rect id="Path" x="77.6138408" y="0.0830449827" width="6.29480969" height="6.29480969"></rect>
                <rect id="Path" x="77.6138408" y="7.64013841" width="6.29480969" height="6.29480969"></rect>
                <rect id="Path" x="77.6138408" y="15.2138408" width="6.29480969" height="6.29480969"></rect>
                <rect id="Path" x="77.6138408" y="22.7709343" width="6.29480969" height="6.29480969"></rect>
                <rect id="Path" x="77.6138408" y="30.3280277" width="6.29480969" height="6.29480969"></rect>
                <rect id="Path" x="85.1709343" y="0.0830449827" width="6.29480969" height="6.29480969"></rect>
                <rect id="Path" x="85.1709343" y="7.64013841" width="6.29480969" height="6.29480969"></rect>
                <rect id="Path" x="85.1709343" y="15.2138408" width="6.29480969" height="6.29480969"></rect>
                <rect id="Path" x="85.1709343" y="22.7709343" width="6.29480969" height="6.29480969"></rect>
                <rect id="Path" x="85.1709343" y="30.3280277" width="6.29480969" height="6.29480969"></rect>
                <rect id="Path" x="92.7280277" y="0.0830449827" width="6.29480969" height="6.29480969"></rect>
                <rect id="Path" x="92.7280277" y="7.64013841" width="6.29480969" height="6.29480969"></rect>
                <rect id="Path" x="92.7280277" y="15.2138408" width="6.29480969" height="6.29480969"></rect>
                <rect id="Path" x="92.7280277" y="22.7709343" width="6.29480969" height="6.29480969"></rect>
                <rect id="Path" x="92.7280277" y="30.3280277" width="6.29480969" height="6.29480969"></rect>
                <path d="M0.199307958,46.7709343 L1.07958478,45.5252595 C1.61107266,46.0733564 2.42491349,46.5384083 3.45467128,46.5384083 C4.3349481,46.5384083 4.75017301,46.1397924 4.75017301,45.7079585 C4.75017301,44.4124567 0.448442907,45.3093426 0.448442907,42.5024221 C0.448442907,41.2567474 1.52802768,40.2269896 3.28858131,40.2269896 C4.48442907,40.2269896 5.46435986,40.5923875 6.19515571,41.2733564 L5.31487889,42.4692042 C4.71695502,41.9044983 3.90311419,41.6553633 3.13910035,41.6553633 C2.47474048,41.6553633 2.09273356,41.9543253 2.09273356,42.4027682 C2.09273356,43.5820069 6.37785467,42.7847751 6.37785467,45.5750865 C6.37785467,46.9370242 5.39792388,47.966782 3.38823529,47.966782 C1.9432526,47.950173 0.91349481,47.4685121 0.199307958,46.7709343" id="Path"></path>
                <path d="M7.00899654,44.0802768 C7.00899654,41.7716263 8.75294118,40.2103806 10.9951557,40.2103806 C12.6394464,40.2103806 13.5861592,41.0906574 14.1176471,42.0373702 L12.7557093,42.7017301 C12.4401384,42.1038062 11.7757785,41.6221453 11.0117647,41.6221453 C9.64982699,41.6221453 8.6532872,42.6685121 8.6532872,44.0802768 C8.6532872,45.4920415 9.63321799,46.5384083 11.0117647,46.5384083 C11.7757785,46.5384083 12.4401384,46.0567474 12.7557093,45.4588235 L14.1176471,46.1231834 C13.5861592,47.0532872 12.6394464,47.966782 10.9951557,47.966782 C8.73633218,47.950173 7.00899654,46.3889273 7.00899654,44.0802768" id="Path"></path>
                <rect id="Path" x="15.0643599" y="40.3432526" width="1.59446367" height="7.47404844"></rect>
                <polygon id="Path" points="18.1536332 47.817301 18.1536332 40.3432526 23.4352941 40.3432526 23.4352941 41.7384083 19.7480969 41.7384083 19.7480969 43.316263 23.3688581 43.316263 23.3688581 44.7114187 19.7480969 44.7114187 19.7480969 46.4221453 23.4352941 46.4221453 23.4352941 47.817301"></polygon>
                <polygon id="Path" points="29.9460208 47.817301 26.3750865 42.9508651 26.3750865 47.817301 24.7972318 47.817301 24.7972318 40.3432526 26.4249135 40.3432526 29.8961938 45.0435986 29.8961938 40.3432526 31.4740484 40.3432526 31.4740484 47.817301"></polygon>
                <polygon id="Path" points="34.5134948 47.817301 34.5134948 41.7384083 32.3211073 41.7384083 32.3211073 40.3432526 38.283737 40.3432526 38.283737 41.7384083 36.1079585 41.7384083 36.1079585 47.817301"></polygon>
                <rect id="Path" x="39.1141869" y="40.3432526" width="1.59446367" height="7.47404844"></rect>
                <polygon id="Path" points="42.2034602 47.817301 42.2034602 40.3432526 47.5017301 40.3432526 47.5017301 41.7384083 43.7979239 41.7384083 43.7979239 43.316263 47.4186851 43.316263 47.4186851 44.7114187 43.7979239 44.7114187 43.7979239 47.817301"></polygon>
                <rect id="Path" x="48.6145329" y="40.3432526" width="1.59446367" height="7.47404844"></rect>
                <path d="M51.3217993,44.0802768 C51.3217993,41.7716263 53.0657439,40.2103806 55.3079585,40.2103806 C56.9522491,40.2103806 57.8989619,41.0906574 58.4304498,42.0373702 L57.0685121,42.7017301 C56.7529412,42.1038062 56.0885813,41.6221453 55.3245675,41.6221453 C53.9626298,41.6221453 52.96609,42.6685121 52.96609,44.0802768 C52.96609,45.4920415 53.9460208,46.5384083 55.3245675,46.5384083 C56.0885813,46.5384083 56.7529412,46.0567474 57.0685121,45.4588235 L58.4304498,46.1231834 C57.8989619,47.0532872 56.9522491,47.966782 55.3079585,47.966782 C53.0491349,47.950173 51.3217993,46.3889273 51.3217993,44.0802768" id="Path"></path>
                <path d="M61.9017301,44.0802768 C61.9017301,41.7217993 63.6955017,40.2103806 65.8878893,40.2103806 C67.432526,40.2103806 68.4124567,40.9910035 68.9771626,41.8878893 L67.6650519,42.6020761 C67.316263,42.0705882 66.6851211,41.6221453 65.8878893,41.6221453 C64.5259516,41.6221453 63.5294118,42.6685121 63.5294118,44.0802768 C63.5294118,45.4920415 64.5093426,46.5384083 65.8878893,46.5384083 C66.5522491,46.5384083 67.166782,46.2394464 67.4657439,45.9737024 L67.4657439,45.0768166 L65.4892734,45.0768166 L65.4892734,43.6816609 L69.0602076,43.6816609 L69.0602076,46.5550173 C68.2961938,47.4020761 67.233218,47.950173 65.8878893,47.950173 C63.6955017,47.950173 61.9017301,46.4387543 61.9017301,44.0802768" id="Path"></path>
                <path d="M75.3882353,47.817301 L74.9231834,46.5550173 L71.7176471,46.5550173 L71.2525952,47.817301 L69.4256055,47.817301 L72.2989619,40.3432526 L74.2920415,40.3432526 L77.1653979,47.817301 L75.3882353,47.817301 Z M73.3121107,41.9377163 L72.149481,45.1598616 L74.4747405,45.1598616 L73.3121107,41.9377163 Z" id="Path"></path>
                <polygon id="Path" points="84.3737024 47.817301 84.3737024 42.4193772 82.2643599 47.817301 81.566782 47.817301 79.4574394 42.4193772 79.4574394 47.817301 77.8629758 47.817301 77.8629758 40.3432526 80.1051903 40.3432526 81.9155709 45.0103806 83.7259516 40.3432526 85.9681661 40.3432526 85.9681661 47.817301"></polygon>
                <polygon id="Path" points="87.4961938 47.817301 87.4961938 40.3432526 92.7778547 40.3432526 92.7778547 41.7384083 89.0906574 41.7384083 89.0906574 43.316263 92.7114187 43.316263 92.7114187 44.7114187 89.0906574 44.7114187 89.0906574 46.4221453 92.7778547 46.4221453 92.7778547 47.817301"></polygon>
                <path d="M93.5750865,46.7709343 L94.4553633,45.5252595 C94.9868512,46.0733564 95.800692,46.5384083 96.8304498,46.5384083 C97.7107266,46.5384083 98.1259516,46.1397924 98.1259516,45.7079585 C98.1259516,44.4124567 93.8242215,45.3093426 93.8242215,42.5024221 C93.8242215,41.2567474 94.9038062,40.2269896 96.6643599,40.2269896 C97.8602076,40.2269896 98.8401384,40.5923875 99.5709343,41.2733564 L98.6906574,42.4692042 C98.0927336,41.9044983 97.2788927,41.6553633 96.5148789,41.6553633 C95.850519,41.6553633 95.4685121,41.9543253 95.4685121,42.4027682 C95.4685121,43.5820069 99.7536332,42.7847751 99.7536332,45.5750865 C99.7536332,46.9370242 98.7737024,47.966782 96.7640138,47.966782 C95.3024221,47.950173 94.2726644,47.4685121 93.5750865,46.7709343" id="Path"></path>
            </g>
        </g>
    </g>
</svg>