<?xml version="1.0" encoding="UTF-8"?>
<svg width="422px" height="48px" viewBox="0 0 422 48" version="1.1" xmlns="http://www.w3.org/2000/svg" xmlns:xlink="http://www.w3.org/1999/xlink">
    <!-- Generator: Sketch 60.1 (88133) - https://sketch.com -->
    <title>wazdan</title>
    <desc>Created with Sketch.</desc>
    <g id="design" stroke="none" stroke-width="1" fill="none" fill-rule="evenodd">
        <g id="main" transform="translate(-1146.000000, -448.000000)" fill="#FFB124" fill-rule="nonzero">
            <g id="wazdan" transform="translate(1146.000000, 448.000000)">
                <path d="M43.3627119,46.8610169 L1.46440678,5.0440678 C-0.162711864,3.41694915 0.976271186,0.73220339 3.25423729,0.73220339 L45.1525424,0.73220339 C46.5355932,0.73220339 47.6745763,1.87118644 47.6745763,3.25423729 L47.6745763,45.0711864 C47.6745763,47.2677966 44.9898305,48.4067797 43.3627119,46.8610169" id="Path"></path>
                <path d="M52.8,45.0711864 L52.8,3.25423729 C52.8,1.87118644 53.9389831,0.73220339 55.3220339,0.73220339 L97.220339,0.73220339 C99.4983051,0.73220339 100.637288,3.41694915 99.0101695,5.0440678 L57.1118644,46.8610169 C55.4847458,48.4067797 52.8,47.2677966 52.8,45.0711864" id="Path"></path>
                <path d="M104.135593,45.0711864 L104.135593,3.25423729 C104.135593,1.87118644 105.274576,0.73220339 106.657627,0.73220339 L148.555932,0.73220339 C150.833898,0.73220339 151.972881,3.41694915 150.345763,5.0440678 L108.447458,46.8610169 C106.820339,48.4067797 104.135593,47.2677966 104.135593,45.0711864" id="Path"></path>
                <polygon id="Path" points="208.59661 0.650847458 208.59661 29.5322034 198.508475 9.11186441 192.732203 9.11186441 182.481356 29.7762712 182.481356 0.650847458 173.369492 0.650847458 173.369492 47.5932203 182.4 47.5932203 195.498305 22.0474576 208.677966 47.5932203 217.627119 47.5932203 217.627119 0.650847458"></polygon>
                <path d="M242.928814,14.1559322 L248.216949,30.6711864 L237.559322,30.6711864 L242.928814,14.1559322 Z M238.372881,0.650847458 L222.020339,47.5118644 L232.189831,47.5118644 L235.037288,38.6440678 L250.738983,38.6440678 L253.586441,47.5118644 L263.755932,47.5118644 L247.40339,0.650847458 L238.372881,0.650847458 Z" id="Path"></path>
                <polygon id="Path" points="265.627119 0.650847458 265.627119 8.78644068 284.745763 8.78644068 265.627119 41.3288136 265.627119 47.5932203 297.355932 47.5932203 297.355932 39.5389831 277.749153 39.5389831 296.705085 6.91525424 296.705085 0.650847458"></polygon>
                <path d="M328.759322,27.1728814 L328.759322,21.0711864 C328.759322,13.0169492 326.562712,8.78644068 320.216949,8.78644068 L313.057627,8.78644068 L313.057627,39.5389831 L320.216949,39.5389831 C326.562712,39.5389831 328.759322,35.3084746 328.759322,27.1728814 Z M303.538983,47.5932203 L303.538983,0.73220339 L320.216949,0.73220339 C330.874576,0.73220339 338.277966,6.18305085 338.277966,21.1525424 L338.277966,27.2542373 C338.277966,42.1423729 330.874576,47.6745763 320.216949,47.6745763 L303.538983,47.6745763 L303.538983,47.5932203 Z" id="Path"></path>
                <path d="M360.732203,14.1559322 L366.020339,30.6711864 L355.362712,30.6711864 L360.732203,14.1559322 Z M356.176271,0.650847458 L339.823729,47.5118644 L349.99322,47.5118644 L352.840678,38.6440678 L368.542373,38.6440678 L371.389831,47.5118644 L381.559322,47.5118644 L365.288136,0.650847458 L356.176271,0.650847458 Z" id="Path"></path>
                <polygon id="Path" points="412.39322 0.650847458 412.39322 30.1016949 394.00678 0.650847458 386.115254 0.650847458 386.115254 47.5932203 395.145763 47.5932203 395.145763 18.5491525 413.450847 47.5932203 421.423729 47.5932203 421.423729 0.650847458"></polygon>
            </g>
        </g>
    </g>
</svg>