<?xml version="1.0" encoding="UTF-8"?>
<svg width="106px" height="48px" viewBox="0 0 106 48" version="1.1" xmlns="http://www.w3.org/2000/svg" xmlns:xlink="http://www.w3.org/1999/xlink">
    <!-- Generator: Sketch 60.1 (88133) - https://sketch.com -->
    <title>greentube</title>
    <desc>Created with Sketch.</desc>
    <g id="design" stroke="none" stroke-width="1" fill="none" fill-rule="evenodd">
        <g id="main" transform="translate(-2304.000000, -160.000000)" fill="#FFB124" fill-rule="nonzero">
            <g id="greentube" transform="translate(2304.000000, 160.000000)">
                <path d="M26.6311111,26.7911111 C25.0488889,26.7911111 23.68,28.16 23.68,29.7422222 C23.68,31.3244444 25.0488889,32.6933333 26.6311111,32.6933333 C28.2133333,32.6933333 29.5822222,31.3244444 29.5822222,29.7422222 C29.5644444,28.0355556 28.2133333,26.7911111 26.6311111,26.7911111" id="Path"></path>
                <path d="M7.44888889,3.50222222 C5.40444444,3.50222222 3.75111111,5.24444444 3.75111111,7.62666667 C3.75111111,9.90222222 5.40444444,11.68 7.44888889,11.68 C9.49333333,11.68 11.1466667,9.86666667 11.1466667,7.62666667 C11.1466667,5.35111111 9.49333333,3.50222222 7.44888889,3.50222222 M14.8266667,14.0444444 C14.8266667,18.8088889 11.9822222,21.7778959 7.37777778,21.7778959 C3.92888889,21.7955556 0.96,19.8044444 0.408888889,16.7644444 L4.42666667,16.7644444 C4.90666667,17.92 6.36444444,18.3466667 7.37777778,18.3466667 C9.97333333,18.3466667 11.1466667,16.64 11.1466667,14.08 L11.1466667,13.4577778 C10.0622222,14.5066667 8.58666667,15.0577778 6.95111111,15.0577778 C3.16444444,15.0577778 0.0711111111,11.6977778 0.0711111111,7.57333333 C0.0711111111,3.43111111 3.11111111,0.0177777778 7.44888889,0.0177777778 C11.7688889,0.0177777778 14.8088889,3.41333333 14.8088889,7.57333333 L14.8088889,14.0444444 L14.8266667,14.0444444 Z" id="Path"></path>
                <path d="M25.2977778,3.59111111 C22.9511111,3.18222222 21.3866667,4.42666667 21.3866667,6.47111111 L21.3866667,14.7911111 L17.7422222,14.7911111 L17.7422222,6.47111111 C17.7422222,2.4 20.5688889,-0.462222222 25.3155556,0.142222222 L25.3155556,3.59111111 L25.2977778,3.59111111 Z" id="Path"></path>
                <path d="M36.64,4.58666667 C35.9644444,3.76888889 34.9688889,3.28888889 33.7955556,3.28888889 C31.68,3.28888889 29.9911111,4.96 29.8844444,7.41333333 L36.64,4.58666667 Z M40.7644444,10.2044444 C39.9288889,13.12 37.3866667,15.1111111 33.8133333,15.1111111 C29.7422222,15.1111111 26.4533333,11.7511111 26.4533333,7.60888889 C26.4533333,3.46666667 29.7422222,0.0533333333 33.8133333,0.0533333333 C37.2622222,0.0533333333 40.16,2.24 40.8533333,6.06222222 L30.6844444,10.3288889 C31.3955556,11.3066667 32.4977778,11.8577778 33.76,11.8577778 C34.9511111,11.8577778 36.1777778,11.3244444 36.8,10.1866667 L40.7644444,10.1866667 L40.7644444,10.2044444 Z" id="Path"></path>
                <path d="M52.7644444,4.58666667 C52.0888889,3.76888889 51.0933333,3.28888889 49.92,3.28888889 C47.8044444,3.28888889 46.1155556,4.96 46.0088889,7.41333333 L52.7644444,4.58666667 Z M56.8888889,10.2044444 C56.0533333,13.12 53.5111111,15.1111111 49.9377778,15.1111111 C45.8666667,15.1111111 42.5777778,11.7511111 42.5777778,7.60888889 C42.5777778,3.46666667 45.8666667,0.0533333333 49.9377778,0.0533333333 C53.3866667,0.0533333333 56.2844444,2.24 56.9777778,6.06222222 L46.8444444,10.3288889 C47.5555556,11.3066667 48.6577778,11.8577778 49.92,11.8577778 C51.1111111,11.8577778 52.3377778,11.3244444 52.96,10.1866667 L56.8888889,10.1866667 L56.8888889,10.2044444 Z" id="Path"></path>
                <path d="M65.8133333,0.0533333333 C69.8311111,0.0533333333 72.1955556,2.72 72.1955556,6.47111111 L72.1955556,14.7911111 L68.4977778,14.7911111 L68.4977778,6.4 C68.4977778,5.58222222 68.2133333,3.66222222 65.7955556,3.66222222 C64.1955556,3.66222222 63.0222222,4.78222222 63.0222222,6.4 L63.0222222,14.7911111 L59.3244444,14.7911111 L59.3244444,6.47111111 C59.3422222,2.80888889 61.9022222,0.0533333333 65.8133333,0.0533333333" id="Path"></path>
                <path d="M56.7288889,35.3777778 C52.5155556,35.84 50.2755556,33.2977778 50.2755556,29.3688889 L50.2755556,17.4044444 L53.9733333,17.4044444 L53.9733333,21.0488889 L56.5688889,21.0488889 L56.5688889,24.3022222 L53.9733333,24.3022222 L53.9733333,29.3866667 C53.9733333,31.3955556 54.88,32.1422222 56.7288889,32.0533333 L56.7288889,35.3777778 Z" id="Path"></path>
                <path d="M65.6355556,35.7333333 C61.6177778,35.7333333 59.2533333,33.0666667 59.2533333,29.3155556 L59.2533333,21.0488889 L62.9511111,21.0488889 L62.9511111,29.44 C62.9511111,30.2577778 63.2355556,32.1777778 65.6533333,32.1777778 C67.2533333,32.1777778 68.4266667,31.0222222 68.4266667,29.44 L68.4266667,21.0488889 L72.1244444,21.0488889 L72.1244444,29.3333333 C72.0888889,32.9777778 69.5288889,35.7333333 65.6355556,35.7333333" id="Path"></path>
                <path d="M82.3644444,24.1422222 C80.32,24.1422222 78.6666667,25.9911111 78.6666667,28.2666667 C78.6666667,30.4888889 80.32,32.32 82.3644444,32.32 C84.4088889,32.32 86.0622222,30.5777778 86.0622222,28.2666667 C86.0266667,25.9022222 84.4088889,24.1422222 82.3644444,24.1422222 M82.3644444,35.7333333 C78.0088889,35.7333333 74.9866667,32.3733333 74.9866667,28.2311111 L74.9866667,14.6666667 L78.7022222,14.6666667 L78.7022222,22.4 C79.7866667,21.2444444 81.2266667,20.7288889 82.8977778,20.7288889 C86.6844444,20.7288889 89.76,24.1066667 89.76,28.2311111 C89.7244444,32.4088889 86.6844444,35.7333333 82.3644444,35.7333333" id="Path"></path>
                <path d="M101.564444,25.2088889 C100.888889,24.3911111 99.8933333,23.9111111 98.72,23.9111111 C96.6044444,23.9111111 94.9155556,25.5822222 94.8088889,28.0355556 L101.564444,25.2088889 Z M105.706667,30.8444444 C104.871111,33.76 102.328889,35.7511111 98.7555556,35.7511111 C94.6844444,35.7511111 91.3955556,32.3911111 91.3955556,28.2488889 C91.3955556,24.1066667 94.6844444,20.6933333 98.7555556,20.6933333 C102.204444,20.6933333 105.102222,22.88 105.795556,26.7022222 L95.6622222,30.9511111 C96.3733333,31.9288889 97.4755556,32.48 98.7377778,32.48 C99.9288889,32.48 101.155556,31.9466667 101.777778,30.8088889 L105.706667,30.8088889 L105.706667,30.8444444 Z" id="Path"></path>
                <path d="M5.79555556,29.7422222 C5.79555556,28.0355556 4.55111111,26.7911111 2.95111111,26.7911111 C1.36888889,26.7911111 0,28.16 0,29.7422222 C0,31.3244444 1.36888889,32.6933333 2.95111111,32.6933333 C4.55111111,32.7111111 5.79555556,31.3422222 5.79555556,29.7422222" id="Path"></path>
                <path d="M10.8088889,26.7911111 C9.22666667,26.7911111 7.85777778,28.16 7.85777778,29.7422222 C7.85777778,31.3244444 9.10222222,32.6933333 10.8088889,32.6933333 C12.3911111,32.6933333 13.76,31.3244444 13.76,29.7422222 C13.76,28.0355556 12.3911111,26.7911111 10.8088889,26.7911111" id="Path"></path>
                <path d="M18.7555556,32.7111111 C20.3377778,32.7111111 21.6,31.3422222 21.6,29.76 C21.6,28.0533333 20.3555556,26.8088889 18.7555556,26.8088889 C17.0488889,26.8088889 15.8044444,28.1777778 15.8044444,29.76 C15.8222222,31.3422222 17.0666667,32.7111111 18.7555556,32.7111111" id="Path"></path>
                <path d="M37.5288889,29.7422222 C37.5288889,28.0355556 36.16,26.7911111 34.5777778,26.7911111 C32.9955556,26.7911111 31.6266667,28.16 31.6266667,29.7422222 C31.6266667,31.3244444 32.9955556,32.6933333 34.5777778,32.6933333 C36.16,32.7111111 37.5288889,31.3422222 37.5288889,29.7422222" id="Path"></path>
                <path d="M42.5422222,26.7911111 C40.96,26.7911111 39.5911111,28.16 39.5911111,29.7422222 C39.5911111,31.3244444 40.8355556,32.6933333 42.5422222,32.6933333 C44.1422222,32.6933333 45.4933333,31.3244444 45.4933333,29.7422222 C45.4933333,28.0355556 44.1422222,26.7911111 42.5422222,26.7911111" id="Path"></path>
                <polygon id="Path" points="105.706667 41.8666667 0.16 41.8666667 0.16 42.2044444 66.6488889 42.2044444 105.706667 42.2044444"></polygon>
                <polygon id="Path" points="37.5822222 44.32 38.4533333 44.32 39.7866667 46.9511111 39.7866667 46.9511111 39.7866667 44.32 40.4622222 44.32 40.4622222 47.8755556 39.5911111 47.8755556 38.2577778 45.2444444 38.2577778 45.2444444 38.2577778 47.8755556 37.5822222 47.8755556"></polygon>
                <path d="M43.0933333,44.2666667 C44.1955556,44.2666667 44.8177778,45.0133333 44.8177778,46.08 C44.8177778,47.1466667 44.1955556,47.9288889 43.0933333,47.9288889 C41.9733333,47.9288889 41.3688889,47.1644444 41.3688889,46.08 C41.3688889,44.9955556 41.9555556,44.2666667 43.0933333,44.2666667 Z M43.0933333,47.36 C43.8044444,47.36 44.0711111,46.72 44.0711111,46.0622222 C44.0711111,45.44 43.7866667,44.8 43.0933333,44.8 C42.4,44.8 42.1155556,45.44 42.1155556,46.0622222 C42.0977778,46.7377778 42.3644444,47.36 43.0933333,47.36 Z" id="Path"></path>
                <polygon id="Path" points="45.3688889 44.32 46.1333333 44.32 47.04 47.0933333 47.04 47.0933333 47.9288889 44.32 48.6222222 44.32 47.4311111 47.8755556 46.56 47.8755556"></polygon>
                <path d="M50.9333333,44.2666667 C52.0355556,44.2666667 52.6577778,45.0133333 52.6577778,46.08 C52.6577778,47.1466667 52.0355556,47.9288889 50.9333333,47.9288889 C49.8133333,47.9288889 49.2088889,47.1644444 49.2088889,46.08 C49.2088889,44.9955556 49.7955556,44.2666667 50.9333333,44.2666667 Z M50.9333333,47.36 C51.6444444,47.36 51.9111111,46.72 51.9111111,46.0622222 C51.9111111,45.44 51.6266667,44.8 50.9333333,44.8 C50.24,44.8 49.9555556,45.44 49.9555556,46.0622222 C49.92,46.7377778 50.2044444,47.36 50.9333333,47.36 Z" id="Path"></path>
                <polygon id="Path" points="53.5644444 44.32 54.6844444 44.32 55.52 47.0044444 55.52 47.0044444 56.3555556 44.32 57.4755556 44.32 57.4755556 47.8755556 56.8 47.8755556 56.8 44.96 56.8 44.96 55.84 47.8755556 55.1644444 47.8755556 54.2044444 44.96 54.2044444 44.96 54.2044444 47.8577778 53.5288889 47.8577778"></polygon>
                <path d="M59.6266667,44.32 L60.4088889,44.32 L61.7955556,47.8755556 L61.0133333,47.8755556 L60.6933333,47.0577778 L59.2533333,47.0577778 L58.9333333,47.8755556 L58.2222222,47.8755556 L59.6266667,44.32 Z M60,45.0311111 L60,45.0311111 L59.4666667,46.4888889 L60.4977778,46.4888889 L60,45.0311111 Z" id="Path"></path>
                <polygon id="Path" points="62.7555556 44.8888889 61.7422222 44.8888889 61.7422222 44.3377778 64.48 44.3377778 64.48 44.8888889 63.4666667 44.8888889 63.4666667 47.8577778 62.7555556 47.8577778"></polygon>
                <polygon id="Path" points="65.12 44.32 65.8311111 44.32 65.8311111 46.4711111 65.8311111 47.8577778 65.12 47.8577778"></polygon>
                <path d="M69.4222222,47.8044444 C69.1555556,47.8755556 68.8888889,47.9288889 68.6044444,47.9288889 C67.4488889,47.9288889 66.6666667,47.36 66.6666667,46.1511111 C66.6666667,44.9244444 67.4133333,44.2666667 68.6044444,44.2666667 C68.8355556,44.2666667 69.1555556,44.32 69.3866667,44.4088889 L69.3333333,45.0133333 C69.0666667,44.8711111 68.8355556,44.8177778 68.5688889,44.8177778 C67.8577778,44.8177778 67.3777778,45.3688889 67.3777778,46.1155556 C67.3777778,46.8266667 67.84,47.3777778 68.5688889,47.3777778 C68.8533333,47.3777778 69.1733333,47.3066667 69.3333333,47.2355556 L69.4222222,47.8044444 Z" id="Path"></path>
                <polygon id="Path" points="73.7066667 44.32 74.5777778 44.32 75.9111111 46.9511111 75.9111111 46.9511111 75.9111111 44.32 76.5866667 44.32 76.5866667 47.8755556 75.7333333 47.8755556 74.4 45.2444444 74.4 45.2444444 74.4 47.8755556 73.7244444 47.8755556 73.7244444 44.32"></polygon>
                <polygon id="Path" points="99.52 44.32 100.284444 44.32 101.191111 47.0933333 101.191111 47.0933333 102.08 44.32 102.773333 44.32 101.582222 47.8755556 100.711111 47.8755556"></polygon>
                <path d="M88.4266667,44.32 L89.2088889,44.32 L90.5955556,47.8755556 L89.8133333,47.8755556 L89.4933333,47.0577778 L88.0533333,47.0577778 L87.7333333,47.8755556 L86.9866667,47.8755556 L88.4266667,44.32 Z M88.8177778,45.0311111 L88.8177778,45.0311111 L88.2844444,46.4888889 L89.3155556,46.4888889 L88.8177778,45.0311111 Z" id="Path"></path>
                <polygon id="Path" points="78.24 44.8711111 77.2266667 44.8711111 77.2266667 44.32 79.9644444 44.32 79.9644444 44.8711111 78.9511111 44.8711111 78.9511111 47.84 78.24 47.84"></polygon>
                <polygon id="Path" points="95.52 44.8711111 94.5066667 44.8711111 94.5066667 44.32 97.2444444 44.32 97.2444444 44.8711111 96.2311111 44.8711111 96.2311111 47.84 95.52 47.84"></polygon>
                <polygon id="Path" points="71.9466667 44.32 72.6577778 44.32 72.6577778 46.4711111 72.6577778 47.8577778 71.9466667 47.8577778"></polygon>
                <polygon id="Path" points="98.0622222 44.32 98.7733333 44.32 98.7733333 46.4711111 98.7733333 47.8577778 98.0622222 47.8577778"></polygon>
                <path d="M93.7422222,47.8044444 C93.4755556,47.8755556 93.2088889,47.9288889 92.9244444,47.9288889 C91.7688889,47.9288889 90.9866667,47.36 90.9866667,46.1511111 C90.9866667,44.9244444 91.7333333,44.2666667 92.9244444,44.2666667 C93.1555556,44.2666667 93.4755556,44.32 93.7066667,44.4088889 L93.6533333,45.0133333 C93.3866667,44.8711111 93.1555556,44.8177778 92.8888889,44.8177778 C92.1777778,44.8177778 91.6977778,45.3688889 91.6977778,46.1155556 C91.6977778,46.8266667 92.16,47.3777778 92.8888889,47.3777778 C93.1733333,47.3777778 93.4933333,47.3066667 93.6533333,47.2355556 L93.7422222,47.8044444 Z" id="Path"></path>
                <path d="M83.9466667,44.3199781 L84.7111111,44.3199781 C85.4755556,44.3199781 86.3822222,44.3022222 86.3822222,45.28 C86.3822222,45.6888889 86.0977778,46.0444444 85.6711111,46.0977778 L85.6711111,46.0977778 C85.8666667,46.1155556 85.9911111,46.3111111 86.0622222,46.4533333 L86.6311111,47.84 L85.8488889,47.84 L85.4222222,46.7377778 C85.3333333,46.4711111 85.2266667,46.3822222 84.9244444,46.3822222 L84.6933333,46.3822222 L84.6933333,47.84 L83.9822222,47.84 L83.9466667,44.3199781 L83.9466667,44.3199781 Z M84.6755556,45.8133333 L84.9066667,45.8133333 C85.2622222,45.8133333 85.6533333,45.76 85.6533333,45.3155556 C85.6533333,44.8888889 85.2444444,44.8533333 84.9066667,44.8533333 L84.6755556,44.8533333 L84.6755556,45.8133333 Z" id="Path"></path>
                <polygon id="Path" points="82.8444444 46.2755556 81.4222222 46.2755556 81.4222222 47.3066667 83.0044444 47.3066667 83.0044444 47.84 80.7466667 47.84 80.7466667 44.2844444 82.9333333 44.2844444 82.9333333 44.8177778 81.44 44.8177778 81.44 45.7244444 82.8622222 45.7244444 82.8622222 46.2755556"></polygon>
                <polygon id="Path" points="105.653333 46.2755556 104.231111 46.2755556 104.231111 47.3066667 105.813333 47.3066667 105.813333 47.84 103.555556 47.84 103.555556 44.2844444 105.742222 44.2844444 105.742222 44.8177778 104.231111 44.8177778 104.231111 45.7244444 105.653333 45.7244444 105.653333 46.2755556"></polygon>
            </g>
        </g>
    </g>
</svg>