<?xml version="1.0" encoding="UTF-8"?>
<svg width="48px" height="48px" viewBox="0 0 48 48" version="1.1" xmlns="http://www.w3.org/2000/svg" xmlns:xlink="http://www.w3.org/1999/xlink">
    <!-- Generator: Sketch 60.1 (88133) - https://sketch.com -->
    <title>boomerang</title>
    <desc>Created with Sketch.</desc>
    <g id="design" stroke="none" stroke-width="1" fill="none" fill-rule="evenodd">
        <g id="main" transform="translate(-1957.000000, -64.000000)" fill="#FFB124">
            <g id="boomerang" transform="translate(1957.000000, 64.000000)">
                <path d="M24,1.84741111e-13 C37.254834,1.84741111e-13 48,10.745166 48,24 C48,37.254834 37.254834,48 24,48 C10.745166,48 -1.49213975e-13,37.254834 -1.49213975e-13,24 C-1.49213975e-13,10.745166 10.745166,1.84741111e-13 24,1.84741111e-13 Z M30.1515957,36.134987 C29.912234,36.134987 29.7021277,36.2307317 29.5212766,36.422221 C29.3404255,36.6137104 29.2047872,36.8530721 29.1143617,37.1403061 C29.0239362,37.4275402 28.956117,37.7014763 28.9109043,37.9621146 C28.8656915,38.2227529 28.8430851,38.4594551 28.8430851,38.672221 C28.8430851,39.1881785 28.9760638,39.6230189 29.2420213,39.9767423 C29.5079787,40.3304657 29.8856383,40.5392423 30.375,40.6030721 C30.6409574,40.5817955 30.8736702,40.4953593 31.0731383,40.3437636 C31.2726064,40.1921678 31.4255319,40.0020083 31.5319149,39.7732848 C31.6382979,39.5445614 31.7167553,39.3118487 31.7672872,39.0751465 C31.8178191,38.8384444 31.8430851,38.6004125 31.8430851,38.3610508 C31.8430851,37.797221 31.6888298,37.2852529 31.3803191,36.8251465 C31.0718085,36.3650402 30.662234,36.134987 30.1515957,36.134987 Z M26.1462766,34.0924338 C26.1515957,34.2147742 26.1542553,34.4062636 26.1542553,34.6669019 C26.1542553,35.24137 26.1329787,35.8105189 26.0904255,36.3743487 C25.8351064,36.2307317 25.5611702,36.1589231 25.268617,36.1589231 C24.9707447,36.1589231 24.7167553,36.2333912 24.5066489,36.3823274 C24.2965426,36.5312636 24.1422872,36.7320614 24.043883,36.984721 C23.9454787,37.2373806 23.8763298,37.4833912 23.8364362,37.7227529 C23.7965426,37.9621146 23.7765957,38.2174338 23.7765957,38.4887104 C23.7765957,39.0153061 23.9109043,39.4860508 24.1795213,39.9009444 C24.4481383,40.315838 24.8244681,40.5232848 25.3085106,40.5232848 C25.6223404,40.5232848 25.9202128,40.4328593 26.2021277,40.2520083 C26.2056738,40.2874692 26.2080378,40.3347506 26.2092199,40.3938522 L26.2092199,40.3938522 L26.2101064,40.49137 L26.6489362,40.5791359 L26.7526596,34.2759444 L26.6569149,34.2328593 C26.5207447,34.1775402 26.3505319,34.1307317 26.1462766,34.0924338 Z M33.1356383,36.0871146 C32.8218085,36.0871146 32.5784574,36.1948274 32.4055851,36.4102529 C32.2327128,36.6256785 32.1462766,36.8929657 32.1462766,37.2121146 C32.1462766,37.4301997 32.1835106,37.6190295 32.2579787,37.778604 C32.3324468,37.9381785 32.4308511,38.0645083 32.5531915,38.1575934 C32.6755319,38.2506785 32.8098404,38.3304657 32.956117,38.3969551 C33.1023936,38.4634444 33.2486702,38.5232848 33.3949468,38.5764763 C33.5412234,38.6296678 33.6755319,38.6855189 33.7978723,38.7440295 C33.9202128,38.8025402 34.018617,38.878338 34.0930851,38.9714231 C34.1675532,39.0645083 34.2047872,39.1775402 34.2047872,39.3105189 C34.2047872,39.5126465 34.125,39.6695614 33.9654255,39.7812636 C33.8058511,39.8929657 33.6010638,39.9488168 33.3510638,39.9488168 C33.2340426,39.9488168 33.1236702,39.9381785 33.0199468,39.9169019 C32.9162234,39.8956253 32.837766,39.8756785 32.7845745,39.8570614 C32.731383,39.8384444 32.6422872,39.7998806 32.5172872,39.74137 L32.4292719,39.700479 C32.3744182,39.675213 32.3272108,39.6539364 32.2876496,39.6366492 L32.2340426,39.6137104 L32.0026596,39.8530721 C32.1515957,40.0392423 32.3537234,40.1934976 32.6090426,40.315838 C32.8643617,40.4381785 33.1382979,40.4993487 33.4308511,40.4993487 C33.8297872,40.4940295 34.1542553,40.3637104 34.4042553,40.1083912 C34.6542553,39.8530721 34.7792553,39.5551997 34.7792553,39.2147742 C34.7792553,38.9647742 34.706117,38.7546678 34.5598404,38.5844551 C34.4135638,38.4142423 34.2353723,38.2852529 34.025266,38.197487 C33.8151596,38.109721 33.606383,38.0272742 33.3989362,37.9501465 C33.1914894,37.8730189 33.0146277,37.7679657 32.8683511,37.634987 C32.7220745,37.5020083 32.6489362,37.3344551 32.6489362,37.1323274 C32.6489362,36.8823274 32.7007979,36.7187636 32.8045213,36.6416359 C32.9082447,36.5645083 33.087766,36.5259444 33.3430851,36.5259444 C33.5944149,36.5259444 33.9333029,36.6073939 34.359749,36.7702928 L34.5478723,36.8450934 L34.6276596,36.5259444 C34.6010638,36.5153061 34.4986702,36.4740827 34.3204787,36.4022742 C34.1422872,36.3304657 34.0079787,36.278604 33.9175532,36.2466891 C33.8271277,36.2147742 33.7047872,36.1801997 33.5505319,36.1429657 C33.3962766,36.1057317 33.2579787,36.0871146 33.1356383,36.0871146 Z M15.375,36.0871146 C15.0611702,36.0871146 14.8178191,36.1948274 14.6449468,36.4102529 C14.4720745,36.6256785 14.3856383,36.8929657 14.3856383,37.2121146 C14.3856383,37.4301997 14.4228723,37.6190295 14.4973404,37.778604 C14.5718085,37.9381785 14.6702128,38.0645083 14.7925532,38.1575934 C14.9148936,38.2506785 15.0492021,38.3304657 15.1954787,38.3969551 C15.3417553,38.4634444 15.4880319,38.5232848 15.6343085,38.5764763 C15.7805851,38.6296678 15.9148936,38.6855189 16.037234,38.7440295 C16.1595745,38.8025402 16.2579787,38.878338 16.3324468,38.9714231 C16.4069149,39.0645083 16.4441489,39.1775402 16.4441489,39.3105189 C16.4441489,39.5126465 16.3643617,39.6695614 16.2047872,39.7812636 C16.0452128,39.8929657 15.8404255,39.9488168 15.5904255,39.9488168 C15.4734043,39.9488168 15.3630319,39.9381785 15.2593085,39.9169019 C15.1555851,39.8956253 15.0771277,39.8756785 15.0239362,39.8570614 C14.9707447,39.8384444 14.8816489,39.7998806 14.7566489,39.74137 C14.6628989,39.697487 14.5863531,39.6625801 14.5270113,39.6366492 L14.4734043,39.6137104 L14.2420213,39.8530721 C14.3909574,40.0392423 14.5930851,40.1934976 14.8484043,40.315838 C15.1037234,40.4381785 15.3776596,40.4993487 15.6702128,40.4993487 C16.0691489,40.4940295 16.393617,40.3637104 16.643617,40.1083912 C16.893617,39.8530721 17.018617,39.5551997 17.018617,39.2147742 C17.018617,38.9647742 16.9454787,38.7546678 16.7992021,38.5844551 C16.6529255,38.4142423 16.474734,38.2852529 16.2646277,38.197487 C16.0545213,38.109721 15.8457447,38.0272742 15.6382979,37.9501465 C15.4308511,37.8730189 15.2539894,37.7679657 15.1077128,37.634987 C14.9614362,37.5020083 14.8882979,37.3344551 14.8882979,37.1323274 C14.8882979,36.8823274 14.9401596,36.7187636 15.043883,36.6416359 C15.1476064,36.5645083 15.3271277,36.5259444 15.5824468,36.5259444 C15.8337766,36.5259444 16.1726646,36.6073939 16.5991107,36.7702928 L16.787234,36.8450934 L16.8670213,36.5259444 C16.8404255,36.5153061 16.7380319,36.4740827 16.5598404,36.4022742 C16.3816489,36.3304657 16.2473404,36.278604 16.1569149,36.2466891 C16.0664894,36.2147742 15.9441489,36.1801997 15.7898936,36.1429657 C15.6356383,36.1057317 15.4973404,36.0871146 15.375,36.0871146 Z M20.3138298,36.1748806 C20.2287234,36.7440295 20.1861702,37.3690295 20.1861702,38.0498806 C20.1861702,38.2839231 20.1928191,38.4953593 20.206117,38.6841891 C20.2194149,38.8730189 20.2526596,39.0831253 20.3058511,39.3145083 C20.3590426,39.5458912 20.4308511,39.7400402 20.5212766,39.8969551 C20.6117021,40.05387 20.7406915,40.1855189 20.9082447,40.2919019 C21.0757979,40.3982848 21.2739362,40.4514763 21.5026596,40.4514763 C21.7597518,40.4514763 22.0279255,40.384987 22.3071809,40.2520083 L22.4760638,40.1642423 L22.5398936,40.3716891 C22.6462766,40.3982848 22.7420213,40.4115827 22.8271277,40.4115827 C22.9228723,40.4115827 23.0239362,40.3903061 23.1303191,40.3477529 C23.0930851,39.8796678 23.0518617,39.2147742 23.0066489,38.3530721 C22.9659574,37.5775402 22.9435771,37.0045083 22.939508,36.6339763 L22.9388298,36.5179657 L22.9388298,36.4381785 L22.5558511,36.36637 C22.5132979,36.7759444 22.4867021,37.3863168 22.4760638,38.197487 C22.4654255,39.0086572 22.4547872,39.5126465 22.4441489,39.7094551 C22.1728723,39.815838 21.9202128,39.8690295 21.6861702,39.8690295 C21.4787234,39.8690295 21.3058511,39.8211572 21.1675532,39.7254125 C21.0292553,39.6296678 20.9268617,39.4926997 20.8603723,39.3145083 C20.793883,39.1363168 20.7486702,38.9528061 20.724734,38.7639763 C20.7007979,38.5751465 20.6888298,38.3504125 20.6888298,38.0897742 C20.6888298,37.940838 20.6954787,37.7227529 20.7087766,37.4355189 C20.7220745,37.1482848 20.7287234,36.9461572 20.7287234,36.8291359 C20.7287234,36.690838 20.7204492,36.5596324 20.7039007,36.4355189 L20.6728723,36.2546678 L20.3138298,36.1748806 Z M18.0558511,35.0498806 C18.0292553,35.4169019 18.0053191,35.8929657 17.9840426,36.4780721 C17.9734043,36.4780721 17.9507979,36.4767423 17.9162234,36.4740827 L17.8693484,36.4710907 L17.8324468,36.4700934 C17.7792553,36.4700934 17.6994681,36.4740827 17.5930851,36.4820614 C17.4867021,36.4900402 17.4095745,36.4940295 17.3617021,36.4940295 C17.2765957,36.4940295 17.2154255,36.4887104 17.1781915,36.4780721 C17.1781915,36.4887104 17.1968085,36.672221 17.2340426,37.028604 C17.2595745,37.028604 17.3378723,37.0277529 17.4689362,37.0260508 L17.5771277,37.0246146 C17.7739362,37.0219551 17.8989362,37.0179657 17.9521277,37.0126465 C17.9521277,37.1030721 17.9507979,37.2706253 17.9481383,37.5153061 C17.9454787,37.759987 17.9441489,37.9514763 17.9441489,38.0897742 C17.9441489,38.3450934 17.9494681,38.5711572 17.9601064,38.7679657 C17.9707447,38.9647742 17.9960106,39.1735508 18.0359043,39.3942955 C18.0757979,39.6150402 18.1276596,39.797221 18.1914894,39.940838 C18.2553191,40.0844551 18.3457447,40.2041359 18.462766,40.2998806 C18.5797872,40.3956253 18.7180851,40.4434976 18.8776596,40.4434976 C19.3085106,40.4434976 19.7340426,40.3690295 20.1542553,40.2200934 C20.106383,40.1296678 20.0319149,39.9860508 19.9308511,39.7892423 C19.6914894,39.8637104 19.4920213,39.9009444 19.3324468,39.9009444 C19.1196809,39.9009444 18.9507979,39.8424338 18.8257979,39.7254125 C18.7007979,39.6083912 18.6183511,39.4395083 18.5784574,39.2187636 C18.5385638,38.9980189 18.5146277,38.7772742 18.5066489,38.5565295 C18.4986702,38.3357848 18.4920213,38.0738168 18.4867021,37.7706253 C18.481383,37.4674338 18.4654255,37.2227529 18.4388298,37.0365827 C18.587766,37.0259444 18.8111702,36.9980189 19.1090426,36.9528061 C19.3473404,36.9166359 19.5362766,36.8915295 19.6758511,36.877487 L19.7712766,36.8690295 L19.6835106,36.509987 C19.5452128,36.4993487 19.337766,36.4887104 19.0611702,36.4780721 C18.7845745,36.4674338 18.5771277,36.4567955 18.4388298,36.4461572 C18.4388298,36.3504125 18.4375,36.2134444 18.4348404,36.0352529 C18.4321809,35.8570614 18.4295213,35.6948274 18.4268617,35.5485508 L18.421875,35.3361173 L18.421875,35.3361173 L18.4148936,35.1376465 L18.0558511,35.0498806 Z M27.5744681,36.2706253 C27.5319149,36.6961572 27.4946809,37.3676997 27.462766,38.2852529 C27.4308511,39.2028061 27.4095745,39.7706253 27.3989362,39.9887104 C27.4202128,40.1004125 27.474734,40.1948274 27.5625,40.2719551 C27.650266,40.3490827 27.7420213,40.3876465 27.837766,40.3876465 C27.9760638,40.3876465 28.0691489,40.3051997 28.1170213,40.1403061 C28.106383,39.9169019 28.0851064,39.3384444 28.0531915,38.4049338 C28.0248227,37.5751465 27.9922511,36.9418395 27.9554768,36.5050126 L27.9414894,36.3504125 L27.5744681,36.2706253 Z M25.3803191,36.7254125 C25.5345745,36.7254125 25.6795213,36.7639763 25.8151596,36.841104 C25.9168883,36.8989497 25.9984209,36.9725036 26.0597573,37.0617656 L26.0597573,37.0617656 L26.1143617,37.1562636 L26.1382979,39.7254125 L26.1110106,39.7804657 C26.0637766,39.8506785 25.9731383,39.9081253 25.8390957,39.9528061 C25.6715426,40.0086572 25.4867021,40.0365827 25.2845745,40.0365827 C24.6781915,40.0365827 24.375,39.5844551 24.375,38.6801997 C24.375,38.4674338 24.3869681,38.2653061 24.4109043,38.0738168 C24.4348404,37.8823274 24.4773936,37.6762104 24.5385638,37.4554657 C24.599734,37.234721 24.7034574,37.0578593 24.849734,36.9248806 C24.9960106,36.7919019 25.1728723,36.7254125 25.3803191,36.7254125 Z M30.1994681,36.5498806 C30.5505319,36.5924338 30.8244681,36.7759444 31.0212766,37.1004125 C31.2180851,37.4248806 31.3164894,37.8051997 31.3164894,38.24137 C31.3164894,38.3903061 31.2965426,38.5605189 31.2566489,38.7520083 C31.2167553,38.9434976 31.1582447,39.1336572 31.081117,39.322487 C31.0039894,39.5113168 30.8989362,39.6695614 30.7659574,39.797221 C30.6329787,39.9248806 30.4840426,39.9887104 30.3191489,39.9887104 C30.0904255,39.9887104 29.8843085,39.8623806 29.7007979,39.609721 C29.5172872,39.3570614 29.4255319,39.0817955 29.4255319,38.7839231 C29.4255319,38.5551997 29.4441489,38.2905721 29.481383,37.9900402 C29.518617,37.6895083 29.6010638,37.3796678 29.7287234,37.0605189 C29.856383,36.74137 30.0132979,36.5711572 30.1994681,36.5498806 Z M27.6861702,34.8424338 C27.5957447,34.8424338 27.525266,34.878338 27.474734,34.9501465 C27.4242021,35.0219551 27.3989362,35.11637 27.3989362,35.2333912 C27.3989362,35.3982848 27.4414894,35.5419019 27.5265957,35.6642423 C27.6117021,35.7865827 27.7287234,35.8477529 27.8776596,35.8477529 C27.9734043,35.8477529 28.0492021,35.8118487 28.1050532,35.7400402 C28.1609043,35.6682317 28.1888298,35.5738168 28.1888298,35.4567955 C28.1888298,35.297221 28.1409574,35.1549338 28.0452128,35.0299338 C27.9494681,34.9049338 27.8297872,34.8424338 27.6861702,34.8424338 Z M27.6974638,19.0876512 C24.0222298,16.5182027 22.1025702,16.5715592 18.5532936,19.3571015 C13.651166,23.204438 7.90828936,29.7807423 5.99669787,32.8512917 C4.08510638,35.9218411 6.61252766,35.6548419 8.04571915,34.6774176 C9.47891064,33.6999934 10.7255489,32.4621228 12.0637617,31.3479726 C16.2390809,27.8717971 20.5832511,24.6777442 26.2230809,23.8930703 C28.2700596,23.60828 30.3405277,23.4858935 32.9424,23.2374524 C30.5762156,21.2612613 28.8279035,19.8779943 27.6974638,19.0876512 Z M33.4090894,24.6178515 C30.8385362,24.5438194 28.2649191,24.5808354 25.467983,24.5808354 C30.1093447,27.971307 34.3084936,31.0443074 38.5185362,34.1036353 C38.8770043,34.3640816 39.287217,34.647538 39.7062809,34.7108988 C40.1518979,34.7782614 40.795983,34.7479149 41.0604936,34.4811324 C41.3335149,34.206013 41.3896851,33.5660686 41.2930043,33.1392167 C41.1895149,32.6803508 40.8538553,32.2361581 40.5236426,31.8683317 C38.5784511,29.7017247 36.6169191,27.5491238 34.6298553,25.4198663 C34.3027064,25.0690473 33.8274723,24.6298567 33.4090894,24.6178515 Z M40.2606383,9.47579244 L39.9015957,9.55557968 L39.9007092,9.65753003 C39.8995272,9.71899575 39.8971631,9.76745911 39.893617,9.8029201 C39.6010638,9.61674989 39.3031915,9.52366479 39,9.52366479 C38.4840426,9.52366479 38.099734,9.71781372 37.8470745,10.1061116 C37.5944149,10.4944095 37.4680851,10.9757924 37.4680851,11.5502605 C37.4680851,11.7789839 37.4800532,11.9944095 37.5039894,12.1965371 C37.5279255,12.3986648 37.5731383,12.6074414 37.6396277,12.8228669 C37.706117,13.0382924 37.7925532,13.2218031 37.8989362,13.3733988 C38.0053191,13.5249946 38.1489362,13.6499946 38.3297872,13.7483988 C38.5106383,13.8468031 38.7207447,13.8960052 38.9601064,13.8960052 C39.2473404,13.8960052 39.5212766,13.8215371 39.7819149,13.672601 C39.7765957,14.2843031 39.6755319,14.7018563 39.4787234,14.9252605 C39.2819149,15.1486648 39,15.2603669 38.6329787,15.2603669 C38.4946809,15.2603669 38.2805851,15.2417499 37.9906915,15.2045158 C37.7007979,15.1672818 37.5345745,15.1460052 37.4920213,15.1406861 C37.4760638,15.1885584 37.4680851,15.2523882 37.4680851,15.3321754 C37.4680851,15.3694095 37.474734,15.422601 37.4880319,15.4917499 C37.5013298,15.5608988 37.5106383,15.6247286 37.5159574,15.6832393 C38.106383,15.7523882 38.518617,15.7869627 38.7526596,15.7869627 C39.0239362,15.7869627 39.2593085,15.7390903 39.4587766,15.6433456 C39.6582447,15.547601 39.8125,15.4265903 39.9215426,15.2803137 C40.0305851,15.1340371 40.1170213,14.9452073 40.1808511,14.7138244 C40.2446809,14.4824414 40.2859043,14.2603669 40.3045213,14.047601 C40.3231383,13.834835 40.3324468,13.5821754 40.3324468,13.2896222 C40.3324468,13.1566435 40.3297872,12.959835 40.3244681,12.6991967 L40.3215957,12.5511116 C40.3190426,12.4113244 40.3174468,12.2964307 40.3168085,12.2064307 L40.3168085,12.2064307 L40.3162061,12.0364905 L40.3153563,11.9338058 C40.3112017,11.5308094 40.2956219,10.8364717 40.268617,9.85079244 C40.2646277,9.7829733 40.2621343,9.69570601 40.261137,9.58899058 L40.261137,9.58899058 L40.2606383,9.47579244 Z M9.29521277,7.42526053 C9.09095745,7.4635584 8.92074468,7.51036691 8.78457447,7.56568606 L8.78457447,7.56568606 L8.68882979,7.60877117 L8.78457447,13.9119627 L9.23138298,13.8241967 L9.2322695,13.726679 C9.23345154,13.6675773 9.2358156,13.620296 9.2393617,13.584835 C9.53191489,13.7710052 9.82712766,13.8640903 10.125,13.8640903 C10.4707447,13.8640903 10.7646277,13.753718 11.0066489,13.5329733 C11.2486702,13.3122286 11.418883,13.0542499 11.5172872,12.7590371 C11.6156915,12.4638244 11.6648936,12.1566435 11.6648936,11.8374946 C11.6648936,11.5449414 11.643617,11.2736648 11.6010638,11.0236648 C11.5585106,10.7736648 11.4867021,10.5263244 11.3856383,10.2816435 C11.2845745,10.0369627 11.1303191,9.84414351 10.9228723,9.70318606 C10.7154255,9.56222861 10.462766,9.49174989 10.1648936,9.49174989 C9.87765957,9.49174989 9.60638298,9.5635584 9.35106383,9.70717542 C9.30851064,9.14334564 9.28723404,8.5741967 9.28723404,7.99972861 C9.28723404,7.73909032 9.28989362,7.54760096 9.29521277,7.42526053 Z M13.6196809,9.43589883 C13.3803191,9.43589883 13.1702128,9.53164351 12.9893617,9.72313287 C12.8085106,9.91462223 12.6728723,10.1539839 12.5824468,10.441218 C12.4920213,10.728452 12.4242021,11.0023882 12.3789894,11.2630265 C12.3337766,11.5236648 12.3111702,11.7603669 12.3111702,11.9731329 C12.3111702,12.4890903 12.4441489,12.9239307 12.7101064,13.2776541 C12.9760638,13.6313776 13.3537234,13.8401541 13.8430851,13.9039839 C14.1090426,13.8827073 14.3417553,13.7962712 14.5412234,13.6446754 C14.7406915,13.4930797 14.893617,13.3029201 15,13.0741967 C15.106383,12.8454733 15.1848404,12.6127605 15.2353723,12.3760584 C15.2859043,12.1393563 15.3111702,11.9013244 15.3111702,11.6619627 C15.3111702,11.0981329 15.1569149,10.5861648 14.8484043,10.1260584 C14.5398936,9.66595202 14.1303191,9.43589883 13.6196809,9.43589883 Z M17.2659574,9.43589883 C17.0265957,9.43589883 16.8164894,9.53164351 16.6356383,9.72313287 C16.4547872,9.91462223 16.3191489,10.1539839 16.2287234,10.441218 C16.1382979,10.728452 16.0704787,11.0023882 16.025266,11.2630265 C15.9800532,11.5236648 15.9574468,11.7603669 15.9574468,11.9731329 C15.9574468,12.4890903 16.0904255,12.9239307 16.356383,13.2776541 C16.6223404,13.6313776 17,13.8401541 17.4893617,13.9039839 C17.7553191,13.8827073 17.9880319,13.7962712 18.1875,13.6446754 C18.3869681,13.4930797 18.5398936,13.3029201 18.6462766,13.0741967 C18.7526596,12.8454733 18.831117,12.6127605 18.8816489,12.3760584 C18.9321809,12.1393563 18.9574468,11.9013244 18.9574468,11.6619627 C18.9574468,11.0981329 18.8031915,10.5861648 18.4946809,10.1260584 C18.1861702,9.66595202 17.7765957,9.43589883 17.2659574,9.43589883 Z M32.0984043,9.36409032 C31.8909574,9.36409032 31.6808511,9.40531372 31.4680851,9.48776053 C31.3085106,9.54959564 31.1698803,9.62713885 31.0521941,9.72039018 L31.0521941,9.72039018 L30.9414894,9.81887755 L31.1010638,10.2257924 L31.242564,10.1263026 C31.5213309,9.94262918 31.774696,9.85079244 32.0026596,9.85079244 C32.4547872,9.85079244 32.7021277,10.1619627 32.7446809,10.7843031 C32.7287234,10.7843031 32.706117,10.7816435 32.6768617,10.7763244 C32.6476064,10.7710052 32.6223404,10.7670158 32.6010638,10.7643563 C32.5797872,10.7616967 32.5585106,10.7603669 32.537234,10.7603669 C32.0478723,10.7603669 31.6103723,10.959835 31.224734,11.3587712 C30.8390957,11.7577073 30.6462766,12.2045158 30.6462766,12.6991967 C30.6462766,12.9917499 30.7513298,13.2404201 30.9614362,13.4452073 C31.1715426,13.6499946 31.4175532,13.7523882 31.6994681,13.7523882 C32.0718085,13.7523882 32.4228723,13.5928137 32.7526596,13.2736648 C32.7473404,13.2896222 32.7446809,13.316218 32.7446809,13.353452 C32.7446809,13.4704733 32.7845745,13.5768563 32.8643617,13.672601 C32.9441489,13.7683456 33.0319149,13.816218 33.1276596,13.816218 C33.25,13.816218 33.3324468,13.7337712 33.375,13.5688776 C33.375,13.3960052 33.3833112,13.1511027 33.3999335,12.8341701 L33.3999335,12.8341701 L33.421875,12.4363421 C33.4384973,12.1186707 33.4468085,11.8711825 33.4468085,11.6938776 C33.4468085,10.1406861 32.9973404,9.36409032 32.0984043,9.36409032 Z M28.1170213,9.51568606 C28.037234,10.3880265 27.9468085,11.6779201 27.8457447,13.3853669 C27.8670213,13.497069 27.9215426,13.5914839 28.0093085,13.6686116 C28.0970745,13.7457393 28.1888298,13.7843031 28.2845745,13.7843031 C28.4228723,13.7843031 28.5159574,13.7045158 28.5638298,13.5449414 C28.5531915,13.5077073 28.543883,13.2390903 28.5359043,12.7390903 C28.5279255,12.2390903 28.525266,11.7843031 28.5279255,11.3747286 C28.5295878,11.1187446 28.5307306,10.928211 28.5313539,10.8031279 L28.5319149,10.6486648 C28.6702128,10.5422818 28.7819149,10.4611648 28.8670213,10.4053137 C28.9521277,10.3494627 29.0598404,10.2949414 29.1901596,10.2417499 C29.3204787,10.1885584 29.4441489,10.1619627 29.5611702,10.1619627 C29.793883,10.1619627 29.9675449,10.2759919 30.0821559,10.5040504 L30.1276596,10.6087712 L30.4787234,10.6327073 C30.4893617,10.5901541 30.4946809,10.5289839 30.4946809,10.4491967 C30.4946809,10.1938776 30.3949468,9.99972861 30.1954787,9.86674989 C29.9960106,9.73377117 29.75,9.66728181 29.4574468,9.66728181 C29.224734,9.66728181 28.9512965,9.78538354 28.6371343,10.021587 L28.5,10.1300478 L28.4760638,9.5954733 L28.1170213,9.51568606 Z M19.6994681,9.49972861 C19.662234,9.97313287 19.6409574,10.7018563 19.6356383,11.6858988 C19.6303191,12.6699414 19.6196809,13.3295158 19.6037234,13.6646222 C19.7101064,13.691218 19.8058511,13.7045158 19.8909574,13.7045158 C19.9654255,13.7045158 20.0328014,13.6950596 20.0930851,13.6761471 L20.1781915,13.6406861 L20.1781915,10.4811116 C20.2579787,10.353452 20.3324468,10.2656861 20.4015957,10.2178137 C20.4707447,10.1699414 20.5611702,10.1460052 20.6728723,10.1460052 C20.7845745,10.1513244 20.8789894,10.191218 20.956117,10.2656861 C21.0332447,10.3401541 21.0930851,10.4452073 21.1356383,10.5808456 C21.1781915,10.7164839 21.2101064,10.8640903 21.231383,11.0236648 C21.2526596,11.1832393 21.2672872,11.3747286 21.275266,11.5981329 C21.2832447,11.8215371 21.287234,12.0356329 21.287234,12.2404201 C21.287234,12.4452073 21.2898936,12.6805797 21.2952128,12.9465371 C21.3005319,13.2124946 21.3111702,13.4491967 21.3271277,13.6566435 C21.3962766,13.6832393 21.4707447,13.6965371 21.5505319,13.6965371 C21.6515957,13.6965371 21.7606383,13.6805797 21.8776596,13.6486648 C21.8723404,13.4997286 21.8656915,13.2178137 21.8577128,12.8029201 C21.849734,12.3880265 21.8404255,11.9771222 21.8297872,11.5702073 C21.8191489,11.1632924 21.8031915,10.8108988 21.7819149,10.5130265 C21.8882979,10.3747286 21.9787234,10.2776541 22.0531915,10.2218031 C22.1276596,10.165952 22.2154255,10.1353669 22.3164894,10.1300478 C22.7526596,10.1406861 22.9707447,10.6991967 22.9707447,11.8055797 C22.9707447,12.0130265 22.962766,12.2989307 22.9468085,12.6632924 C22.9308511,13.0276541 22.9228723,13.2683456 22.9228723,13.3853669 C22.9228723,13.5715371 22.9335106,13.6991967 22.9547872,13.7683456 C22.9760638,13.7789839 23.0132979,13.7843031 23.0664894,13.7843031 C23.125,13.7843031 23.2925532,13.747069 23.5691489,13.672601 C23.5531915,13.5768563 23.5452128,13.4545158 23.5452128,13.3055797 C23.5452128,13.1938776 23.5518617,12.9771222 23.5651596,12.6553137 C23.5784574,12.3335052 23.5851064,12.0768563 23.5851064,11.8853669 C23.5851064,10.566218 23.2952128,9.8241967 22.7154255,9.65930308 C22.6143617,9.62738819 22.4946809,9.61143074 22.356383,9.61143074 C22.0106383,9.61143074 21.7606383,9.77100521 21.606383,10.0901541 C21.356383,9.77100521 21.0505319,9.61143074 20.6888298,9.61143074 C20.4791033,9.61143074 20.3006405,9.70326748 20.1534412,9.88694095 L20.0824468,9.98643074 L20.0585106,9.57951585 L19.6994681,9.49972861 Z M34.1888298,9.49972861 C34.1515957,9.97313287 34.1303191,10.7018563 34.125,11.6858988 C34.1196809,12.6699414 34.1090426,13.3295158 34.0930851,13.6646222 C34.1994681,13.691218 34.2952128,13.7045158 34.3803191,13.7045158 C34.4547872,13.7045158 34.5221631,13.6950596 34.5824468,13.6761471 L34.6675532,13.6406861 L34.6356383,10.4811116 C34.7154255,10.3853669 34.775266,10.3188776 34.8151596,10.2816435 C34.8550532,10.2444095 34.9242021,10.2124946 35.0226064,10.1858988 C35.1210106,10.1593031 35.2579787,10.1460052 35.4335106,10.1460052 C35.587766,10.1460052 35.7167553,10.1965371 35.8204787,10.297601 C35.9242021,10.3986648 36.0013298,10.5422818 36.0518617,10.728452 C36.1023936,10.9146222 36.1369681,11.103452 36.1555851,11.2949414 C36.1742021,11.4864307 36.1835106,11.709835 36.1835106,11.9651541 C36.1835106,12.1194095 36.1795213,12.3361648 36.1715426,12.6154201 C36.1635638,12.8946754 36.1595745,13.084835 36.1595745,13.1858988 C36.1595745,13.3827073 36.1702128,13.5236648 36.1914894,13.6087712 C36.2978723,13.6566435 36.4468085,13.6805797 36.6382979,13.6805797 C36.7287234,13.6805797 36.7898936,13.6752605 36.8218085,13.6646222 C36.8164894,13.0210052 36.8045213,12.4877605 36.7859043,12.0648882 C36.7672872,11.6420158 36.7367021,11.272335 36.6941489,10.9558456 C36.6515957,10.6393563 36.6037234,10.3960052 36.5505319,10.2257924 C36.4973404,10.0555797 36.418883,9.91861159 36.3151596,9.81488819 C36.2114362,9.71116479 36.1037234,9.64600521 35.9920213,9.61940947 C35.8803191,9.59281372 35.731383,9.57951585 35.5452128,9.57951585 C35.2240691,9.57951585 34.9355053,9.6935451 34.6795213,9.92160361 L34.5718085,10.0263244 L34.5478723,9.57951585 L34.1888298,9.49972861 Z M26.0345745,9.49972861 C24.8324468,9.49972861 24.231383,10.1646222 24.231383,11.4944095 C24.231383,11.7178137 24.2513298,11.9452073 24.2912234,12.1765903 C24.331117,12.4079733 24.393617,12.6420158 24.4787234,12.878718 C24.5638298,13.1154201 24.6914894,13.309569 24.8617021,13.4611648 C25.0319149,13.6127605 25.231383,13.6885584 25.4601064,13.6885584 C25.6835106,13.6885584 26.025266,13.6366967 26.4853723,13.5329733 C26.8687943,13.4465371 27.1737219,13.3665652 27.4001551,13.2930575 L27.4001551,13.2930575 L27.5265957,13.2497286 L27.4468085,12.8986648 L27.4329566,12.9002162 C27.3956486,12.9053876 27.287234,12.9234875 27.1077128,12.9545158 C26.8922872,12.9917499 26.6462766,13.0276541 26.3696809,13.0622286 C26.0930851,13.0968031 25.8590426,13.1140903 25.6675532,13.1140903 C25.5079787,13.1140903 25.3696809,13.084835 25.2526596,13.0263244 C25.1356383,12.9678137 25.043883,12.8946754 24.9773936,12.8069095 C24.9109043,12.7191435 24.8577128,12.6074414 24.8178191,12.4718031 C24.7779255,12.3361648 24.7513298,12.209835 24.7380319,12.0928137 C24.724734,11.9757924 24.7154255,11.8401541 24.7101064,11.6858988 C24.7898936,11.6699414 24.9335106,11.6460052 25.1409574,11.6140903 C25.3484043,11.5821754 25.5265957,11.5529201 25.6755319,11.5263244 C25.8244681,11.4997286 25.9960106,11.4571754 26.1901596,11.3986648 C26.3843085,11.3401541 26.543883,11.2749946 26.668883,11.2031861 C26.793883,11.1313776 26.900266,11.0343031 26.9880319,10.9119627 C27.0757979,10.7896222 27.1196809,10.6486648 27.1196809,10.4890903 C27.1196809,10.1965371 27.0106383,9.95850521 26.7925532,9.77499457 C26.5744681,9.59148393 26.3218085,9.49972861 26.0345745,9.49972861 Z M10.0611702,10.0582393 C10.2739362,10.0582393 10.4521277,10.1273882 10.5957447,10.2656861 C10.7393617,10.4039839 10.8430851,10.5861648 10.9069149,10.8122286 C10.9707447,11.0382924 11.0132979,11.2457393 11.0345745,11.434569 C11.0558511,11.6233988 11.0664894,11.816218 11.0664894,12.0130265 C11.0664894,12.2045158 11.0545213,12.3747286 11.0305851,12.5236648 C11.0066489,12.672601 10.962766,12.8148882 10.8989362,12.9505265 C10.8351064,13.0861648 10.7406915,13.1898882 10.6156915,13.2616967 C10.4906915,13.3335052 10.3351064,13.3694095 10.1489362,13.3694095 C9.95212766,13.3694095 9.76994681,13.3414839 9.60239362,13.2856329 C9.46835106,13.240952 9.37771277,13.1835052 9.33047872,13.1132924 L9.33047872,13.1132924 L9.30319149,13.0582393 L9.32712766,10.4890903 L9.38173205,10.3945923 C9.44306848,10.3053303 9.52460106,10.2317765 9.62632979,10.1739307 C9.76196809,10.0968031 9.90691489,10.0582393 10.0611702,10.0582393 Z M38.9760638,10.0103669 C39.1781915,10.0103669 39.3630319,10.0382924 39.5305851,10.0941435 C39.6646277,10.1388244 39.755266,10.1962712 39.8025,10.2664839 L39.8025,10.2664839 L39.8297872,10.3215371 L39.8058511,12.8986648 L39.751496,12.9896721 C39.6906582,13.075942 39.6103723,13.1479999 39.5106383,13.2058456 C39.3776596,13.2829733 39.231383,13.3215371 39.0718085,13.3215371 C38.8590426,13.3215371 38.6808511,13.2523882 38.537234,13.1140903 C38.393617,12.9757924 38.2898936,12.7936116 38.2260638,12.5675478 C38.162234,12.3414839 38.1196809,12.1340371 38.0984043,11.9452073 C38.0771277,11.7563776 38.0664894,11.5635584 38.0664894,11.3667499 C38.0664894,10.9890903 38.1462766,10.6686116 38.3058511,10.4053137 C38.4654255,10.1420158 38.6888298,10.0103669 38.9760638,10.0103669 Z M13.6675532,9.85079244 C14.018617,9.89334564 14.2925532,10.0768563 14.4893617,10.4013244 C14.6861702,10.7257924 14.7845745,11.1061116 14.7845745,11.5422818 C14.7845745,11.691218 14.7646277,11.8614307 14.724734,12.0529201 C14.6848404,12.2444095 14.6263298,12.434569 14.5492021,12.6233988 C14.4720745,12.8122286 14.3670213,12.9704733 14.2340426,13.0981329 C14.1010638,13.2257924 13.9521277,13.2896222 13.787234,13.2896222 C13.5585106,13.2896222 13.3523936,13.1632924 13.168883,12.9106329 C12.9853723,12.6579733 12.893617,12.3827073 12.893617,12.084835 C12.893617,11.8561116 12.912234,11.5914839 12.9494681,11.290952 C12.9867021,10.9904201 13.0691489,10.6805797 13.1968085,10.3614307 C13.3244681,10.0422818 13.481383,9.87206904 13.6675532,9.85079244 Z M17.3138298,9.85079244 C17.6648936,9.89334564 17.9388298,10.0768563 18.1356383,10.4013244 C18.3324468,10.7257924 18.4308511,11.1061116 18.4308511,11.5422818 C18.4308511,11.691218 18.4109043,11.8614307 18.3710106,12.0529201 C18.331117,12.2444095 18.2726064,12.434569 18.1954787,12.6233988 C18.1183511,12.8122286 18.0132979,12.9704733 17.8803191,13.0981329 C17.7473404,13.2257924 17.5984043,13.2896222 17.4335106,13.2896222 C17.2047872,13.2896222 16.9986702,13.1632924 16.8151596,12.9106329 C16.6316489,12.6579733 16.5398936,12.3827073 16.5398936,12.084835 C16.5398936,11.8561116 16.5585106,11.5914839 16.5957447,11.290952 C16.6329787,10.9904201 16.7154255,10.6805797 16.8430851,10.3614307 C16.9707447,10.0422818 17.1276596,9.87206904 17.3138298,9.85079244 Z M32.768617,11.2071754 C32.7792553,11.4944095 32.7845745,11.7178137 32.7845745,11.8773882 C32.7845745,12.0688776 32.7792553,12.3507924 32.768617,12.7231329 C32.3164894,13.0369627 31.9734043,13.1938776 31.7393617,13.1938776 C31.5904255,13.1938776 31.4640957,13.1433456 31.3603723,13.0422818 C31.2566489,12.941218 31.2047872,12.8055797 31.2047872,12.6353669 C31.2047872,12.2417499 31.3603723,11.9066435 31.6715426,11.6300478 C31.9382599,11.3929657 32.2294019,11.2555363 32.5449685,11.2177594 L32.5449685,11.2177594 L32.7047872,11.2071754 Z M26.0824468,10.0343031 C26.2101064,10.0343031 26.3058511,10.0741967 26.3696809,10.1539839 C26.4335106,10.2337712 26.4840426,10.3614307 26.5212766,10.5369627 C26.0585106,10.7656861 25.4654255,10.9837712 24.7420213,11.191218 C24.7845745,10.8667499 24.9375,10.5928137 25.2007979,10.3694095 C25.4640957,10.1460052 25.7579787,10.0343031 26.0824468,10.0343031 Z" id="Path"></path>
            </g>
        </g>
    </g>
</svg>