<?xml version="1.0" encoding="UTF-8"?>
<svg width="261px" height="48px" viewBox="0 0 261 48" version="1.1" xmlns="http://www.w3.org/2000/svg" xmlns:xlink="http://www.w3.org/1999/xlink">
    <!-- Generator: Sketch 60.1 (88133) - https://sketch.com -->
    <title>games_lab</title>
    <desc>Created with Sketch.</desc>
    <g id="design" stroke="none" stroke-width="1" fill="none" fill-rule="evenodd">
        <g id="main" transform="translate(-1743.000000, -160.000000)" fill="#FFB124">
            <g id="games_lab" transform="translate(1743.000000, 160.000000)">
                <path d="M8.80297317,12.3271787 L9.1017285,30.794816 L10.9648889,30.794816 C10.9648889,36.5450016 10.9648889,40.1286576 10.9648889,41.5457839 C10.5668654,41.8460933 0.14069838,34.509381 0.14069838,34.509381 C0.24384306,32.9841475 0.14069838,13.7796166 0.14069838,5.84040953 C5.56230524,4.51493871 13.7039832,2.58192063 24.5657324,0.0413552628 C29.8024729,2.853322 33.0912884,4.78634009 34.4321789,5.84040953 C29.0671538,7.17209199 20.5240852,9.33434838 8.80297317,12.3271787 Z" id="Path"></path>
                <path d="M79.7965414,14.8833792 L59.0320066,14.8833792 L59.0320066,31.2355511 L75.236831,31.2355511 L75.236831,25.9052376 L64.8135906,25.9052376 L64.8135906,20.9332886 L80.7842835,20.9332886 L80.7842835,36.4870244 C72.7901571,36.4870244 64.9094382,36.6740907 57.057254,36.2942243 C55.8229421,36.2347358 53.8159964,33.6681293 53.7135639,32.1601315 C53.3199304,26.3417256 53.4969923,20.4824661 53.5804017,14.6396913 C53.6199113,11.9089539 55.0766481,10.0196563 57.9798783,9.97163543 C65.1399113,9.85194169 72.3043343,9.93221533 79.7965414,9.93221533 L79.7965414,14.8833792 Z" id="Path"></path>
                <path d="M37.1509863,36.1887183 C41.4687415,38.9627486 44.4031797,40.9260138 45.9543007,42.078514 C41.7838339,43.1383173 33.5221915,45.0724359 21.1693736,47.8808698 L11.7065735,41.8360801 C11.6913793,40.4794713 11.6975253,39.2911945 11.7250114,38.2712496 C11.9357297,30.436685 11.7967141,22.5928029 11.7967141,14.0587108 C13.6756192,15.4424756 16.510805,17.6846189 20.3022715,20.7851407 C20.3022715,29.6129006 20.3022715,36.0262155 20.3022715,40.0250854 C23.5079215,39.214226 29.1241598,37.935437 37.1509863,36.1887183 Z" id="Path"></path>
                <path d="M136.767825,36.3876858 L132.599553,36.3876858 L132.599553,24.9879618 L126.553211,36.4486078 L121.105232,36.4486078 C120.641863,35.4140767 120.29991,34.7243445 120.079373,34.3794112 C118.425819,31.7898693 117.207604,28.9337043 115.177977,26.2352196 L115.177977,36.3303475 L111.120186,36.3303475 L111.120186,15.9205127 L114.962835,15.9205127 C119.055768,23.5767851 121.976082,29.1179037 123.723776,32.5438682 C125.443666,29.2626829 128.471342,23.692743 132.806804,15.8340485 C134.288425,15.7821623 135.608765,15.7821623 136.767825,15.8340485 L136.767825,36.3876858 Z" id="Path"></path>
                <path d="M243.909679,32.2549044 C245.933452,32.2549044 249.934174,32.2549044 255.911843,32.2549044 C255.911843,31.2059201 255.911843,29.9569889 255.911843,28.5081106 L243.955773,28.5081106 L243.909679,32.2549044 Z M243.909679,24.069408 L256.367668,24.069408 L256.367668,20.2148395 L243.909679,20.2148395 L243.909679,24.069408 Z M239.587026,15.712348 C245.473238,15.712348 251.174339,15.5876371 256.865197,15.7739866 C259.131151,15.8485265 260.655932,17.2626328 260.651542,19.7432318 C260.649508,21.0047012 260.823919,22.8905748 260.48326,24.176774 C260.33334,24.7428166 259.995782,25.3878088 259.470586,26.1117507 C260.090945,26.7241695 260.428503,27.195002 260.48326,27.5242481 C260.793186,29.3878022 260.632017,31.2959669 260.48326,33.1704327 C260.389607,34.3494519 258.656303,36.3032551 257.591005,36.3598767 C251.667478,36.6723706 245.717612,36.5096731 239.587026,36.5096731 L239.587026,15.712348 Z" id="Path"></path>
                <path d="M89.6482083,24.1316201 L102.332281,24.1316201 L102.332281,20.193911 L89.6482083,20.193911 L89.6482083,24.1316201 Z M89.3423741,28.6591971 L89.3423741,36.4034538 L85.4484751,36.4034538 C85.4484751,30.5119415 85.2245869,24.7150375 85.6350486,18.9611371 C85.7184579,17.7914354 88.1065989,16.007497 89.5794322,15.8526835 C93.663563,15.4240796 97.8281766,15.6240469 101.956939,15.7337065 C104.621648,15.8039459 106.422997,17.3585311 106.518112,19.9179703 C106.720051,25.3572266 106.579572,30.8086673 106.579572,36.3855356 L102.652017,36.3855356 L102.652017,28.6591971 L89.3423741,28.6591971 Z" id="Path"></path>
                <path d="M218.424907,24.176774 L230.635595,24.176774 L230.635595,20.1874604 L218.424907,20.1874604 L218.424907,24.176774 Z M218.225164,36.5647179 C216.605998,36.4830108 215.539968,36.4292561 214.233954,36.3640337 C214.233954,30.605833 214.152739,25.020364 214.269805,19.4391954 C214.32468,16.8381859 216.058716,15.7028871 218.62465,15.7021704 C222.522208,15.7014537 226.424155,15.5824767 230.314396,15.7444574 C232.957155,15.8534002 235.022633,16.9872655 235.040193,20.0197458 C235.06946,25.3722779 235.048241,30.7240933 235.048241,36.3002449 L231.014595,36.3002449 L231.014595,28.5810736 L218.225164,28.5810736 L218.225164,36.5647179 Z" id="Path"></path>
                <path d="M179.967642,15.7000202 L179.967642,19.9280045 L166.118766,19.9280045 L166.118766,24.3000514 C169.657809,24.3000514 173.143442,24.2656484 176.628342,24.3093689 C180.593212,24.3588232 181.608026,25.7170246 181.592117,30.7914658 C181.577296,35.4473374 180.718326,36.4959119 176.736628,36.5252978 C172.015952,36.5604175 167.295276,36.5338985 162.40266,36.5338985 L162.40266,32.882881 L176.959053,32.882881 L176.959053,28.2807642 C173.766085,28.2807642 170.533607,28.3151672 167.303325,28.2728802 C162.580454,28.2105247 161.818795,27.2587086 161.837087,21.6209184 C161.85172,17.0833072 163.11603,15.7351399 167.478192,15.705754 C171.591589,15.6778016 175.705718,15.7000202 179.967642,15.7000202" id="Path"></path>
                <polygon id="Path" points="141.232127 15.8767656 157.64328 15.8767656 157.64328 19.879697 145.219679 19.879697 145.219679 24.2273751 157.564992 24.2273751 157.564992 28.1916031 145.292845 28.1916031 145.292845 32.7277809 157.606697 32.7277809 157.606697 36.3465456 141.232127 36.3465456"></polygon>
                <polygon id="Path" points="193.227166 31.5401609 209.941226 31.5401609 209.941226 36.2404697 188.072615 36.2404697 188.072615 10.200272 193.227166 10.200272"></polygon>
                <path d="M21.5098045,37.2840988 L21.5098045,28.9600083 C22.7397264,28.5543396 24.0742758,28.1149848 25.6495416,27.5953563 L25.6495416,18.9129013 C28.5396019,18.1990392 31.2862567,17.5202968 34.3109426,16.7734652 L34.3109426,34.0925046 C30.2290068,35.1102597 25.9751306,36.1710186 21.5098045,37.2840988" id="Path"></path>
            </g>
        </g>
    </g>
</svg>