<?xml version="1.0" encoding="UTF-8"?>
<svg width="155px" height="48px" viewBox="0 0 155 48" version="1.1" xmlns="http://www.w3.org/2000/svg" xmlns:xlink="http://www.w3.org/1999/xlink">
    <!-- Generator: Sketch 60.1 (88133) - https://sketch.com -->
    <title>splitrock</title>
    <desc>Created with Sketch.</desc>
    <g id="design" stroke="none" stroke-width="1" fill="none" fill-rule="evenodd">
        <g id="main" transform="translate(-344.000000, -448.000000)" fill="#FFB124">
            <g id="splitrock" transform="translate(344.000000, 448.000000)">
                <path d="M41.1392069,7.18646897 C40.6347931,6.74929655 40.1521034,6.28357241 39.623069,5.87888276 C27.7037586,-3.23966897 10.6871379,0.30777931 3.52934483,13.4649517 C0.841137931,18.4062621 0.243413793,23.6970207 1.49058621,29.1905379 C1.62196552,29.7690207 1.88182759,30.1151586 2.48865517,30.3357103 C3.58417241,30.7339862 3.97065517,31.7179862 3.52996552,32.6477793 C3.07934483,33.5982621 1.90975862,33.9777103 0.983275862,33.4739172 C0.0747931034,32.9800552 -0.133344828,31.8804 0.401275862,30.8817103 C0.60237931,30.5057793 0.752172414,29.9808828 0.659068966,29.5869517 C-2.71458621,15.3261931 7.30582759,2.42412414 20.6388621,0.34977931 C28.901069,-0.935668966 36.1002414,1.3284 42.1962414,7.05384828 C42.4712069,7.31184828 42.6098276,7.71488276 42.8119655,8.05046897 C42.4153448,8.18350345 42.018931,8.43136552 41.6216897,8.43281379 C34.6908621,8.45764138 27.7598276,8.43529655 20.829,8.47108966 C19.7378276,8.47688276 18.6332069,8.64529655 17.5598276,8.86233103 C14.3436207,9.5126069 12.5241724,11.5590207 12.0205862,14.7489517 C11.5945862,17.4475034 11.5087241,20.1725379 12.1463793,22.8497793 C12.911069,26.0601931 14.8805172,27.9040552 18.1496897,28.2576414 C20.5031379,28.5121241 22.8917586,28.4556414 25.265069,28.504469 C26.8505172,28.5371586 28.4378276,28.4875034 30.0234828,28.5170897 C32.1721034,28.5572276 33.3154138,29.7485379 33.3214138,31.8971586 C33.3224483,32.2764 33.3267931,32.6558483 33.3195517,33.0348828 C33.2868621,34.7270897 32.313,35.7638483 30.6232759,35.7785379 C26.9336897,35.8106069 23.2438966,35.7940552 19.5541034,35.7967448 C18.1403793,35.7977793 16.7262414,35.8116414 15.312931,35.7913655 C14.3748621,35.7779172 13.5474828,35.7820552 12.8566552,36.6841241 C12.2376207,37.4926759 11.106931,37.3432966 10.3939655,36.5916414 C9.75382759,35.9165379 9.74368966,34.9379172 10.3699655,34.2549517 C11.0278966,33.5372276 12.2268621,33.3772966 12.8587241,34.1361931 C13.5193448,34.9298483 14.2714138,34.9358483 15.1399655,34.9331586 C20.1743793,34.9178483 25.2087931,34.9279862 30.2432069,34.9236414 C31.8958966,34.9221931 32.4582414,34.3499172 32.4754138,32.682331 C32.4783103,32.4065379 32.4791379,32.1305379 32.475,31.8547448 C32.4503793,30.2401241 31.608931,29.3800552 29.9707241,29.3692966 C26.7640345,29.3484 23.5563103,29.4001241 20.3506552,29.3308138 C19.1932759,29.3059862 18.0158276,29.1208138 16.8915517,28.8357103 C13.2586552,27.9146069 11.3839655,25.3451586 11.0438276,21.7898483 C10.812931,19.3776414 10.8644483,16.8830897 11.2039655,14.4839172 C11.7481034,10.6397793 14.223,8.39867586 18.0747931,7.83198621 C19.1256207,7.67743448 20.1979655,7.61143448 21.261,7.60729655 C27.3987931,7.58412414 33.5367931,7.59446897 39.6745862,7.58308966 C40.1305862,7.58226207 40.5865862,7.50053793 41.0425862,7.45626207 C41.0746552,7.36626207 41.106931,7.27646897 41.1392069,7.18646897" id="Path"></path>
                <path d="M11.3214621,43.0259379 C11.5891862,43.2198 11.8453241,43.4324897 12.1262897,43.6044207 C24.4763586,51.1644207 40.7245655,46.2560069 46.6763586,33.1232483 C48.9369103,28.1353862 49.2110483,22.9582138 47.7511862,17.6854552 C47.5817379,17.073869 47.3543586,16.6139379 46.6277379,16.3822138 C45.5653241,16.0431103 45.1941517,14.9573172 45.6588414,14.0326966 C46.1138069,13.1271103 47.2531862,12.7625586 48.1250483,13.2431793 C49.0898069,13.7753172 49.2840828,14.8066966 48.7312552,15.8229724 C48.5169103,16.2171103 48.3900828,16.8022138 48.5117379,17.2153862 C52.7386345,31.5783517 42.847531,45.3582828 28.9144966,47.5840759 C21.937531,48.6984207 15.5864276,47.1706966 9.84670345,43.0768345 C9.54401379,42.8608345 9.35822069,42.4807655 9.11801379,42.1768345 C9.50884138,42.035731 9.89904828,41.7725586 10.2904966,41.7713172 C17.9454621,41.7462828 25.6006345,41.7618 33.2556,41.7380069 C34.1427724,41.7353172 35.0500138,41.637869 35.9123586,41.433869 C39.3162207,40.6290414 41.2548414,38.2329724 41.3657379,34.7008345 C41.4216,32.9146966 41.4373241,31.1227655 41.3665655,29.3376621 C41.1892552,24.8732483 38.4509793,22.2046966 33.9801517,22.1132483 C30.5001517,22.0420759 27.0193241,22.0056621 23.5387034,21.9816621 C22.2017379,21.9723517 20.8811172,21.8206966 20.2848414,20.4626276 C19.5809793,18.8589724 19.5346345,17.1541448 20.4598759,15.5960069 C21.0911172,14.5327655 22.2153931,14.3740759 23.3671862,14.3763517 C27.3671172,14.3848345 31.3670483,14.3736621 35.3669793,14.3796621 C36.2971862,14.3809034 37.1427724,14.4282828 37.8307034,13.4958 C38.4234621,12.6926276 39.5986345,12.8399379 40.3002207,13.5740069 C40.9705655,14.2751793 40.9525655,15.3026276 40.2582207,15.9866276 C39.5402897,16.6940069 38.3909793,16.7887655 37.7808414,15.9860069 C37.1736,15.1875931 36.4573241,15.1408345 35.6107034,15.1441448 C31.9213241,15.1588345 28.231531,15.1505586 24.5419448,15.1505586 C24.3696,15.1505586 24.1970483,15.1486966 24.0247034,15.1524207 C21.0964966,15.2159379 19.7913931,17.2480759 20.9657379,19.9596621 C21.4581517,21.0961448 22.5112552,21.2391103 23.5749103,21.2453172 C26.8161517,21.263731 30.0584276,21.2180069 33.2984276,21.2835931 C34.421669,21.3061448 35.5674621,21.4762138 36.6549103,21.7621448 C39.5462897,22.5220759 41.351669,24.4228345 42.0040138,27.3367655 C42.6511862,30.2283517 42.6648414,33.1693862 42.1080828,36.0586966 C41.3094621,40.2003517 38.3793931,42.5395241 34.009531,42.5806966 C26.9413241,42.6471103 19.8722897,42.6214552 12.8034621,42.6409034 C12.3396,42.6423517 11.8759448,42.6953172 11.4120828,42.7244897 C11.3818759,42.8250414 11.351669,42.9253862 11.3214621,43.0259379" id="Path"></path>
                <path d="M127.647828,17.2759034 C127.647828,16.8981103 127.669138,16.5190759 127.644103,16.1429379 C127.502172,13.9845931 125.883207,12.1992828 123.886448,11.9855586 C121.617,11.7426621 119.799414,12.9900414 119.198586,15.2685931 C118.795966,16.7956966 118.815414,18.3331448 119.403828,19.820731 C120.549,22.7148 124.341207,23.4002483 126.44369,21.096869 C127.430172,20.0158345 127.707414,18.6916966 127.647828,17.2759034 M129.113276,17.2109379 C129.117414,20.7550759 127.316379,23.2196276 124.46369,23.546731 C118.847276,24.1908 117.149276,19.9719724 117.594724,16.2486621 C117.988448,12.9590069 119.452655,11.4163862 122.251345,10.8656276 C125.862931,10.1549379 128.965138,12.6025241 129.111621,16.2815586 C129.124034,16.590869 129.113276,16.9010069 129.113276,17.2109379" id="Path"></path>
                <path d="M107.398221,14.6496 C107.398221,15.2669793 107.321255,15.8986345 107.430703,16.4961517 C107.485117,16.7918069 107.870772,17.2353931 108.126703,17.2492552 C109.18229,17.3071862 110.258566,17.3187724 111.303186,17.1737379 C112.758497,16.9716 113.359324,16.2071172 113.376497,14.8277379 C113.394497,13.3792552 112.791807,12.5818759 111.371462,12.2837379 C110.875117,12.179669 110.349186,12.1844276 109.837324,12.1898069 C106.996221,12.2189793 107.437531,11.8225655 107.398221,14.6496 M112.290497,18.3174621 C113.239324,19.9887724 114.138083,21.5717379 115.087531,23.2438759 C114.157945,23.4718759 113.49029,23.431531 113.035324,22.4661517 C112.507738,21.3466345 111.82291,20.3024276 111.254772,19.2004966 C110.951876,18.6131172 110.57491,18.3648414 109.884497,18.3664966 C107.393462,18.3724966 107.393255,18.3449793 107.393048,20.7958759 C107.393048,21.1405655 107.455738,21.5001517 107.378772,21.8268414 C107.252359,22.3649793 107.854014,23.3330483 106.717738,23.3200138 C105.6696,23.3078069 106.11691,22.3854621 106.109462,21.8758759 C106.063531,18.7732552 106.08629,15.6693931 106.086497,12.5661517 C106.086497,12.3592552 106.100772,12.151531 106.087531,11.9454621 C106.0476,11.3262207 106.332497,11.0806345 106.948014,11.0913931 C108.395876,11.1162207 109.844772,11.0822897 111.292221,11.1166345 C113.080634,11.1590483 114.303186,12.0958759 114.736014,13.6941517 C115.180221,15.3336 114.508428,16.9641517 113.020428,17.8620828 C112.818703,17.9837379 112.620497,18.1111862 112.290497,18.3174621" id="Path"></path>
                <path d="M101.831814,37.6939034 C101.97271,37.3959724 102.123331,37.1023862 102.252434,36.7994897 C103.224021,34.5194897 104.203469,32.2423862 105.151883,29.952869 C105.405952,29.3394207 105.778366,28.8511448 106.438779,29.1333517 C106.724297,29.2554207 106.942986,29.8641103 106.9494,30.2557655 C106.993055,32.9433517 106.992228,35.6321793 106.947331,38.3197655 C106.941538,38.654731 106.592503,38.9841103 106.402572,39.3159724 C106.239538,38.9928 105.943055,38.6729379 105.934986,38.3460414 C105.889262,36.4860414 105.915124,34.6243862 105.910159,32.7633517 C105.909331,32.3992138 105.879331,32.0352828 105.618228,31.5935586 C105.447952,31.8902483 105.247055,32.1736966 105.112366,32.4859034 C104.253952,34.476869 103.430917,36.4835586 102.541676,38.4606621 C102.384228,38.810731 101.976228,39.2628 101.673124,39.2710759 C101.383469,39.2789379 100.958503,38.8245931 100.80209,38.478869 C99.9664345,36.6288 99.1998828,34.7474897 98.4004345,32.880869 C98.2144345,32.4465931 97.9924345,32.0276276 97.5436759,31.6113517 C97.5151241,31.9510759 97.4634,32.2908 97.4617448,32.630731 C97.4536759,34.5606621 97.4818138,36.4914207 97.4319517,38.4201103 C97.4242966,38.7230069 97.0816759,39.0172138 96.8940207,39.3155586 C96.7328483,39.0250759 96.4355379,38.7362483 96.4316069,38.4434897 C96.3964345,35.6524552 96.3943655,32.8603862 96.4322276,30.0691448 C96.4367793,29.7405931 96.6637448,29.2314207 96.9182276,29.1281793 C97.4429172,28.914869 97.8697448,29.1652138 98.1155379,29.7645931 C99.0562966,32.0572138 100.038434,34.332869 101.010228,36.6126621 C101.167469,36.9811448 101.3514,37.3384552 101.523124,37.700731 C101.625952,37.6984552 101.728986,37.6961793 101.831814,37.6939034" id="Path"></path>
                <path d="M64.4362759,13.8685862 C63.5203448,14.1346552 63.0585517,14.0783793 62.6484828,13.3745172 C61.7162069,11.7733448 58.9146207,11.4596897 57.5484828,12.7252759 C56.5804138,13.6223793 56.7148966,15.0220345 57.8757931,15.6648621 C58.3797931,15.9439655 58.9504138,16.1134138 59.5051034,16.2874138 C60.3246207,16.5445862 61.1691724,16.7247931 61.9808276,17.0032759 C63.7309655,17.6038966 64.5823448,18.6671379 64.5316552,20.1054828 C64.4741379,21.7376897 63.5308966,23.0407241 61.749931,23.3682414 C60.4702759,23.6034828 59.0451724,23.6214828 57.8027586,23.2918966 C56.9224138,23.0583103 56.2048966,22.116931 55.4923448,21.4128621 C55.3295172,21.2523103 55.485931,20.7685862 55.4956552,20.4334138 C55.8922759,20.5385172 56.4885517,20.5143103 56.6532414,20.7692069 C57.7853793,22.521 59.4093103,22.6540345 61.2008276,22.2756207 C62.234069,22.0575517 63.0281379,21.203069 63.0835862,20.3274828 C63.1543448,19.209 62.4575172,18.5967931 61.5289655,18.2742414 C60.2985517,17.847 59.0176552,17.567069 57.7795862,17.1588621 C56.7297931,16.8127241 55.8846207,16.2255517 55.6061379,15.0321724 C55.3204138,13.8073448 55.6224828,12.7921034 56.5245517,11.9438276 C58.2941379,10.2795517 61.8691034,10.3921034 63.4777241,12.2043103 C63.8656552,12.6412759 64.0785517,13.2336207 64.4362759,13.8685862" id="Path"></path>
                <path d="M154.18291,11.1893379 C152.73629,12.7187172 151.369531,14.2058897 149.950221,15.6409241 C149.441876,16.1548552 149.3736,16.4993379 149.865186,17.0947862 C151.375945,18.9245793 152.815324,20.813131 154.279945,22.6807862 C154.401393,22.8359586 154.504428,23.0056138 154.663117,23.2375448 C153.622634,23.5183034 152.923324,23.3018897 152.306566,22.4459586 C151.082152,20.747131 149.757807,19.1203034 148.399945,17.3666483 C147.485669,18.1294759 146.528979,18.705269 146.680634,20.0937517 C146.76629,20.8762345 146.687876,21.6758897 146.698634,22.4676828 C146.705255,22.9623724 146.650014,23.3509241 145.999531,23.3580669 C145.391876,23.3645793 145.235462,23.0674759 145.2369,22.5270621 C145.246428,18.9808552 145.226979,15.4342345 145.271876,11.8882345 C145.275186,11.6236138 145.662497,11.2127172 145.94491,11.1345103 C146.518221,10.9754069 146.706497,11.3747172 146.701738,11.9200966 C146.686634,13.5972 146.696152,15.2745103 146.696152,17.2483034 C147.198703,16.8090621 147.512772,16.5783724 147.774497,16.2986483 C149.138979,14.8410621 150.534083,13.4085103 151.8276,11.8898897 C152.481186,11.1225103 153.185462,10.9687862 154.18291,11.1893379" id="Path"></path>
                <path d="M68.7857586,14.9298414 C68.7857586,15.5842552 68.7845172,16.2388759 68.7861724,16.8932897 C68.7878276,17.464531 69.0007241,17.7872897 69.6483103,17.7562552 C70.4732069,17.716531 71.303069,17.7759103 72.1277586,17.734531 C73.5677586,17.6619103 74.4692069,16.9063241 74.6932759,15.6467379 C75.0491379,13.6437724 74.0605862,12.2470138 72.0315517,12.2203241 C68.3098966,12.1710828 68.8325172,11.6482552 68.7857586,14.9298414 L68.7857586,14.9298414 Z M70.6575517,11.1152897 C71.3798276,11.1152897 72.1033448,11.0873586 72.8243793,11.1204621 C74.7958966,11.2112897 76.2534828,12.8087379 76.2834828,14.8803931 C76.3147241,17.0223931 74.9057586,18.6742552 72.8881034,18.7979793 C71.8937586,18.8590138 70.8936207,18.8410138 69.8963793,18.8302552 C69.2545862,18.8230138 68.9566552,19.060531 68.9868621,19.7441172 C69.0278276,20.6712207 68.9833448,21.6016345 69.0005172,22.5299793 C69.0106552,23.0720483 68.8215517,23.4750828 68.2453448,23.3168069 C67.9637586,23.2394276 67.5745862,22.8337034 67.5712759,22.5723931 C67.5265862,19.0297034 67.5493448,15.4863931 67.5331846,11.9432897 C67.5305172,11.3211517 67.770931,11.0701862 68.3872759,11.0912897 C69.1432759,11.1171517 69.9007241,11.0974966 70.6575517,11.0974966 L70.6575517,11.1152897 Z" id="Path"></path>
                <path d="M142.336676,14.3566345 C141.505159,14.629531 141.024952,14.5711862 140.631228,13.8671172 C139.804676,12.3892552 138.457572,11.8267034 136.804055,11.9769103 C135.242814,12.1186345 134.194883,13.0074621 133.602745,14.3994621 C132.82709,16.2230483 132.856469,18.0898759 133.580607,19.9271172 C134.19509,21.4869103 135.396331,22.3656 137.046331,22.4431862 C138.563297,22.5147724 139.852055,21.9938069 140.7384,20.6131862 C140.973641,20.2465655 141.591641,20.1257379 142.217503,19.7953241 C141.940055,21.9137379 140.32171,23.3309793 138.2964,23.5581517 C134.419779,23.9930483 131.960814,21.8845655 131.748952,17.9533241 C131.626676,15.6813931 131.891297,13.5462207 133.7364,11.9196 C135.873228,10.0360138 139.839641,10.409669 141.509917,12.6979448 C141.85771,13.1744276 142.048055,13.7657379 142.336676,14.3566345" id="Path"></path>
                <path d="M115.632869,31.3190069 C115.488662,31.3680414 115.491352,31.3670069 115.347145,31.4160414 L115.347145,32.4964552 C115.346524,34.5285931 115.36411,36.5609379 115.321903,38.5920414 C115.316938,38.8363862 114.988179,39.0741103 114.809628,39.3149379 C114.614317,39.084869 114.252455,38.8570759 114.249352,38.6243172 C114.209214,35.6973517 114.210662,32.7697655 114.238386,29.8425931 C114.240662,29.5980414 114.563628,29.130869 114.643697,29.150731 C115.038869,29.2477655 115.531076,29.3758345 115.755766,29.670869 C116.902179,31.1758345 117.973076,32.7379034 119.07749,34.2749379 C119.766455,35.2332828 120.468248,36.1823172 121.164248,37.1356966 C121.311145,37.0945241 121.313834,37.0936966 121.460524,37.0525241 C121.487007,36.7032828 121.535214,36.3542483 121.536455,36.0050069 C121.54411,34.0074207 121.517421,32.0092138 121.565214,30.012869 C121.572455,29.7052138 121.90411,29.4054207 122.085559,29.1021103 C122.259145,29.4143172 122.579007,29.7242483 122.583559,30.038731 C122.622869,32.8279034 122.619972,35.6181103 122.586662,38.4074897 C122.583145,38.7141103 122.310662,39.270869 122.161283,39.2714897 C121.812041,39.272731 121.333697,39.1022483 121.132386,38.8330759 C119.54611,36.7111448 118.014455,34.5484552 116.461903,32.4012828 C116.195834,32.0332138 115.909283,31.6798345 115.632869,31.3190069" id="Path"></path>
                <path d="M82.8983586,31.9910276 C82.5410483,31.7905448 82.0538069,31.6777862 81.8491862,31.374269 C80.9477379,30.0375103 79.6989103,29.5748897 78.1838069,29.8314414 C76.5745655,30.1039241 75.5961517,31.1655103 75.3553241,32.7253034 C75.191669,33.7854414 75.1728414,34.9347517 75.4022897,35.9752345 C75.9007034,38.2355793 78.3954621,39.3977172 80.4338069,38.2964069 C81.1382897,37.9155103 81.6861517,37.0703379 82.0664276,36.3168207 C82.3904276,35.6746138 82.0726345,35.1155793 81.1800828,35.1724759 C80.7004966,35.2030966 80.2118069,35.2039241 79.7371862,35.1418552 C79.5584276,35.1184759 79.4082207,34.8793034 79.2451862,34.7386138 C79.4057379,34.5958552 79.5619448,34.3357862 79.7278759,34.3293724 C80.7594621,34.2904759 81.7978759,34.2577862 82.8226345,34.3488207 C83.0342897,34.3678552 83.3566345,34.916131 83.3593241,35.2225448 C83.3725655,36.8810276 82.777531,38.2779931 81.2353241,39.0650276 C79.4789793,39.9617172 77.6798069,39.9327517 76.0345655,38.8275103 C73.1624276,36.8984069 73.3173931,31.3246138 76.2474621,29.4908897 C78.071669,28.3490276 80.9769103,28.6817172 82.3349793,30.2379931 C82.6951862,30.6505448 82.9062207,31.1932345 83.1857379,31.676131 L82.8983586,31.9910276 Z" id="Path"></path>
                <path d="M134.047076,31.9745586 C133.695352,31.7813172 133.237903,31.6712483 133.009697,31.3807655 C131.958248,30.0411103 130.642386,29.4913862 129.148593,29.8683517 C127.645076,30.2478 126.646386,31.4647655 126.416524,33.1331793 C126.213559,34.607731 126.29611,36.0274552 127.182455,37.2833172 C128.089076,38.5681448 129.411972,38.8327655 130.855903,38.5863517 C132.1908,38.3583517 133.006386,37.4612483 133.276179,36.2204897 C133.43549,35.4882828 133.224455,35.1684207 132.481283,35.177731 C131.964662,35.1843517 131.442041,35.2129034 130.933283,35.1466966 C130.727421,35.1198 130.551145,34.8667655 130.361214,34.7165586 C130.563352,34.5789724 130.760317,34.3321448 130.968455,34.3222138 C131.8968,34.2785586 132.833628,34.2479379 133.755559,34.3364897 C134.0208,34.3621448 134.439766,34.7866966 134.460455,35.0535931 C134.702731,38.2031793 132.281628,39.8761448 129.571283,39.6380069 C127.2948,39.4379379 125.888524,38.1456621 125.376248,36.1011103 C124.71211,33.4513862 125.432317,30.9015931 127.20211,29.6382828 C129.677007,27.8713862 133.494455,28.9606966 134.047076,31.9745586" id="Path"></path>
                <path d="M91.6165034,35.4457241 C90.9978828,33.7444138 90.4378138,32.2048966 89.8779517,30.6653793 C89.689469,30.666 89.6878138,30.666 89.499331,30.6666207 C88.9510552,32.2071724 88.4029862,33.7477241 87.7988483,35.4457241 L91.6165034,35.4457241 Z M94.1278138,39.3186207 C93.3124345,39.6730345 93.0159517,39.3115862 92.7763655,38.7163448 C91.8370552,36.3815172 91.8269172,36.3618621 89.4430552,36.3926897 C87.2023655,36.4218621 87.6476069,35.9551034 86.7492621,38.3418621 C86.5102966,38.9764138 86.4031241,39.7595172 85.3206414,39.3508966 C85.3661586,39.123931 85.3806414,38.8922069 85.4590552,38.6846897 C86.5541586,35.7875172 87.6391241,32.8862069 88.7828483,30.0084828 C88.9282966,29.6426897 89.3921586,29.1701379 89.7076759,29.1709644 C90.0246414,29.1717931 90.4870552,29.6435172 90.6331241,30.0095172 C91.7559517,32.8214483 92.8187793,35.6571724 93.8940207,38.487931 C93.9889862,38.738069 94.0407103,39.0045517 94.1278138,39.3186207 L94.1278138,39.3186207 Z" id="Path"></path>
                <path d="M97.8102621,17.6526207 C97.8102621,16.2395172 97.7715724,14.8251724 97.8237103,13.4141379 C97.8590897,12.4584828 97.5628138,11.990069 96.534331,12.0846207 C95.8509517,12.1475172 95.1506069,12.1491724 94.4707448,12.0676552 C94.1904,12.033931 93.9446069,11.7105517 93.6830897,11.5189655 C93.9282621,11.3447586 94.1715724,11.0226207 94.4190207,11.0191034 C97.1068138,10.9824828 99.7952276,10.9797931 102.482607,11.0211724 C102.739986,11.0251034 102.991779,11.3898621 103.246055,11.5872414 C102.998814,11.756069 102.762124,12.0486207 102.502676,12.0701379 C101.715228,12.1357241 100.918055,12.122069 100.126883,12.0912414 C99.3688138,12.0616552 99.1002621,12.381931 99.1070897,13.1354483 C99.1341931,16.1335862 99.1190897,19.131931 99.1145379,22.1302759 C99.1141241,22.4033793 99.1619172,22.7306897 99.0319862,22.9334483 C98.9196414,23.1091034 98.5128828,23.283931 98.3674345,23.2077931 C98.1276414,23.0824138 97.8460552,22.7586207 97.8390207,22.5111724 C97.7922621,20.8928276 97.8148138,19.2724138 97.8148138,17.6526207 L97.8102621,17.6526207 Z" id="Path"></path>
                <path d="M79.0325793,17.1798414 C79.0325793,15.4561862 79.0420966,13.7327379 79.0272,12.0092897 C79.0220276,11.4504621 79.121131,11.0712207 79.8100966,11.0931517 C80.4678207,11.1138414 80.4916138,11.5230828 80.4909931,12.0057724 C80.4868552,14.9701862 80.5468552,17.9364621 80.4593379,20.8983931 C80.4264414,22.0146 80.8536828,22.256669 81.8248552,22.220669 C83.1328552,22.1720483 84.4458207,22.174531 85.7527862,22.2359793 C86.0714069,22.2510828 86.6056138,22.5454966 86.6418207,22.7747379 C86.7525103,23.4713586 86.1388552,23.3507379 85.7145103,23.3528069 C83.8187172,23.362531 81.9220966,23.3286 80.0273379,23.3708069 C79.2523034,23.3881862 79.0007172,23.1109448 79.0193379,22.3499793 C79.0613379,20.6275655 79.0323724,18.9032897 79.0325793,17.1798414" id="Path"></path>
                <path d="M90.8410552,17.3431862 C90.8410552,19.0318759 90.8420897,20.7207724 90.8404345,22.4094621 C90.8398138,22.8609103 90.9000207,23.3431862 90.2083655,23.3509324 C89.5371931,23.3582897 89.5357448,22.907669 89.5359517,22.4378069 C89.5361586,18.9913241 89.5349172,15.5448414 89.5374,12.0983586 C89.5376069,11.6125655 89.481331,11.0824966 90.2323655,11.1052552 C90.9287793,11.1261517 90.837331,11.6311862 90.8387793,12.0700138 C90.8441586,13.8278069 90.8410552,15.5853931 90.8410552,17.3431862" id="Path"></path>
                <path d="M111.110048,34.2112138 C111.110048,35.6249379 111.137566,37.0392828 111.087703,38.4513517 C111.077152,38.7445241 110.778807,39.0275586 110.61329,39.3153517 C110.410324,39.0254897 110.035841,38.7383172 110.031083,38.4451448 C109.9866,35.618731 109.9866,32.790869 110.031497,29.9644552 C110.036255,29.6741793 110.414876,29.3899034 110.61991,29.1029379 C110.783359,29.3921793 111.077566,29.6766621 111.08791,29.9710759 C111.137359,31.3829379 111.110048,32.7974897 111.110048,34.2112138" id="Path"></path>
            </g>
        </g>
    </g>
</svg>