<?xml version="1.0" encoding="UTF-8"?>
<svg width="80px" height="48px" viewBox="0 0 80 48" version="1.1" xmlns="http://www.w3.org/2000/svg" xmlns:xlink="http://www.w3.org/1999/xlink">
    <!-- Generator: Sketch 60.1 (88133) - https://sketch.com -->
    <title>gamefish_global</title>
    <desc>Created with Sketch.</desc>
    <g id="design" stroke="none" stroke-width="1" fill="none" fill-rule="evenodd">
        <g id="main" transform="translate(-1615.000000, -160.000000)" fill="#FFB124">
            <g id="gamefish_global" transform="translate(1615.000000, 160.000000)">
                <path d="M3.82935944,0.0525010423 C7.46661818,0.0388027972 11.0510098,0.395781818 14.5613874,1.42593566 C16.8331636,2.09256503 18.9750378,3.03712448 21.0615273,4.13273287 C24.8896112,6.14269091 28.1955692,8.78101259 30.8233175,12.2370126 C30.8716531,12.3009566 30.9325762,12.3573483 30.9733594,12.4258238 C31.971793,14.0974322 33.4646601,14.6588308 35.3729119,14.6422154 C37.3002965,14.6250965 39.2301986,14.8582154 41.1590937,14.982579 C41.339849,14.9941594 41.5382266,14.9694881 41.694814,15.0384671 C41.835793,15.0998937 42.0422266,15.2917259 42.0215832,15.3808448 C41.985835,15.5374322 41.8216951,15.7000615 41.6691357,15.7851524 C41.5422545,15.8561455 41.3549538,15.8294601 41.194842,15.8289566 C38.375765,15.8188867 35.5571916,15.7932084 32.7381147,15.8062993 C32.1611077,15.8088168 31.7401846,15.632593 31.3746462,15.1980755 C30.4169958,14.0586629 29.4301427,12.9434182 28.4729958,11.8040056 C28.0641566,11.3171245 27.6105063,11.0824951 26.937835,11.0814881 C23.2265622,11.0769566 19.7650238,11.9746909 16.570842,13.8607888 C13.5251916,15.6587748 11.0973315,18.015642 9.9261986,21.4545231 C9.11305175,23.842607 9.29733147,26.1763133 10.4307021,28.4229147 C12.2911217,32.1100196 15.4153175,34.3279217 19.1361566,35.8358937 C19.6769119,36.0544112 20.2237091,36.2613483 20.7785622,36.4400895 C21.3782266,36.6334322 21.8489958,37.1587631 21.8489958,35.22898 C21.8489958,33.2991969 21.899849,31.3864951 21.8489958,29.2335441 C21.8348979,28.6560336 22.0203406,28.4410406 22.4840609,28.4229147 C22.9779909,28.4032783 23.3781389,28.6248168 23.3811599,29.2335441 C23.3902228,31.0249846 23.3811599,45.1017399 23.3811599,46.8931804 C23.3746144,47.1504671 23.2921478,47.6283182 22.6500082,47.624487 C22.0078686,47.6197259 21.8489958,47.2437218 21.8489958,46.8931804 C21.8489958,44.0840527 21.9028699,41.4005776 21.8489958,38.6227874 C21.8328839,37.7819482 21.5922126,37.6761734 20.7574154,37.4098238 C15.9888,35.8902713 11.3576392,34.0701315 7.26521958,31.1020196 C7.18365315,31.0431105 7.1046042,30.9796699 7.02958322,30.9132084 C6.3256951,30.2873622 5.59612867,29.6887049 4.92597483,29.0291245 C3.24228252,27.3721175 1.53054545,25.7237006 0.702797203,23.1301901 C-0.124951049,20.5366796 0.347301136,17.8161877 1.60284637,15.0384671 C2.85839161,12.2607465 4.10628252,10.6832224 5.96166713,8.62241119 C6.8301986,7.65821538 7.02102378,6.6184951 6.63635245,5.44132028 C6.08351329,3.75057902 5.09716364,2.31561399 3.92401678,0.998970629 C3.80418462,0.864033566 3.65565315,0.749236364 3.55696783,0.600704895 C3.34298182,0.279474126 3.40239441,0.0544111888 3.82935944,0.0525010423 Z M5.38566713,0.708453147 C5.23310769,0.685795804 5.0599049,0.80311049 4.89626853,0.854970629 C4.95668811,1.03069091 4.98337343,1.22906853 5.08306573,1.37911049 C5.82370909,2.49737622 6.70231049,3.54464895 7.30046434,4.7334042 C8.13979301,6.4024951 8.47361119,8.0730965 7.02958322,9.5856 C6.42186294,10.2225231 5.61324755,11.0960895 5.08306573,11.8040056 C3.5614993,13.8341035 2.50152126,15.7998498 2.10191761,18.3630545 C1.81413075,20.2090253 1.81413075,22.275245 2.60983938,23.8382615 C3.82935944,26.233774 5.08306573,27.6911604 7.30046434,29.6687609 C8.73977952,30.952423 9.58702448,31.2671664 11.1700175,32.3285371 C11.4580175,32.5213762 11.6934713,32.776649 12.0106741,32.9261874 C12.0625343,32.8642573 12.1143944,32.8023273 12.166758,32.7398937 C12.0761287,32.6024392 11.9980867,32.4544112 11.8938629,32.3285371 C11.4235972,31.758579 10.8924084,31.2314182 10.4790378,30.6242014 C7.77828252,26.653628 7.51596084,22.5461035 9.94583497,18.3630545 C11.4694154,15.7408448 13.6802685,13.8028867 16.3266462,12.3588587 C19.2524643,10.7622713 22.3701147,9.84590769 25.7218909,9.78800559 C25.9550098,9.78397762 26.1856112,9.65608951 26.4167161,9.5856 C26.2873175,9.37715245 26.2012196,9.11734825 26.0219748,8.96780979 C24.1806881,7.43264895 22.2452476,6.03645315 20.1542266,4.84618741 C17.9771077,3.60657902 15.7405762,2.46414545 13.3001287,1.93497063 C10.6955413,1.37055105 8.02801678,1.09463497 5.38566713,0.708453147 Z" id="Path"></path>
                <path d="M22.8081063,16.6778517 C22.0669594,16.6572084 21.3796867,15.9387189 21.4139245,15.2202294 C21.4486657,14.487642 22.1747077,13.8023832 22.8876587,13.829572 C23.6227636,13.8577678 24.3135608,14.5792783 24.2904,15.2952503 C24.2672392,16.0167608 23.5366657,16.6979916 22.8081063,16.6778517" id="Path"></path>
                <path d="M28.9791608,35.3677762 C29.8505455,35.3677762 30.6111608,35.0502378 31.261007,34.4151608 L31.261007,34.4151608 L31.3717762,35.2237762 L32.0806993,35.2237762 L32.0806993,30.8040839 L31.1280839,30.8040839 L31.1280839,33.7726993 C30.4486993,34.2674685 29.821007,34.5148531 29.245007,34.5148531 C28.6320839,34.5148531 28.2037762,34.2859301 27.9600839,33.8280839 C27.7163916,33.3702378 27.5945455,32.5763916 27.5945455,31.4465455 C27.5945455,30.5603916 27.6683916,29.8920839 27.8160839,29.4416224 C27.9637762,28.9911608 28.1871608,28.6902378 28.4862378,28.5388531 C28.7853147,28.3874685 29.2265455,28.3117762 29.8099301,28.3117762 C30.5040839,28.3117762 31.1613147,28.3413147 31.7816224,28.4003916 L31.7816224,28.4003916 L31.8813147,27.6693147 C31.2683916,27.5142378 30.5594685,27.4366993 29.7545455,27.4366993 C28.5582378,27.4366993 27.7274685,27.7191608 27.2622378,28.2840839 C26.797007,28.849007 26.5643916,29.881007 26.5643916,31.3800839 C26.5643916,32.7683916 26.7545455,33.7800839 27.1348531,34.4151608 C27.5151608,35.0502378 28.1299301,35.3677762 28.9791608,35.3677762 Z" id="Path" fill-rule="nonzero"></path>
                <path d="M36.7883916,27.5806993 L36.8690949,27.5861247 C37.021007,27.6078265 37.115952,27.6946334 37.1539301,27.8465455 L37.1539301,27.8465455 L39.613007,35.2237762 L38.605007,35.2237762 L37.8517762,32.8311608 L34.7059301,32.8311608 L33.9526993,35.2237762 L32.9446993,35.2237762 L35.4037762,27.8465455 L35.4275125,27.7760148 C35.4844795,27.6458045 35.5984136,27.5806993 35.7693147,27.5806993 L35.7693147,27.5806993 L36.7883916,27.5806993 Z M36.4339301,28.3339301 L36.1237762,28.3339301 L35.9354685,28.9542378 L34.9717762,31.9893147 L37.5859301,31.9893147 L36.6222378,28.9542378 L36.557007,28.7573147 C36.5143403,28.6227506 36.4733147,28.4816224 36.4339301,28.3339301 L36.4339301,28.3339301 Z" id="Path" fill-rule="nonzero"></path>
                <path d="M41.5071608,35.2237762 L41.773007,28.3893147 L41.9945455,28.3893147 L43.7003916,34.0274685 C43.7668531,34.249007 43.9145455,34.3597762 44.1434685,34.3597762 L44.1434685,34.3597762 L45.0185455,34.3597762 C45.2400839,34.3597762 45.3803916,34.249007 45.4394685,34.0274685 L45.4394685,34.0274685 L47.1453147,28.3893147 L47.3779301,28.3893147 L47.6548531,35.2237762 L48.6296224,35.2237762 L48.3083916,27.9905455 C48.3083916,27.7173147 48.1754685,27.5806993 47.9096224,27.5806993 L47.9096224,27.5806993 L46.813007,27.5806993 C46.5914685,27.5806993 46.4511608,27.6914685 46.3920839,27.913007 L46.3920839,27.913007 L44.9631608,32.5542378 C44.9188531,32.6945455 44.8653147,32.8846993 44.8025455,33.1246993 C44.7397762,33.3646993 44.6973147,33.5253147 44.6751608,33.6065455 L44.6751608,33.6065455 L44.4757762,33.6065455 C44.4683916,33.577007 44.4296224,33.4311608 44.3594685,33.169007 C44.2893147,32.9068531 44.2320839,32.7093147 44.1877762,32.5763916 L44.1877762,32.5763916 L42.7588531,27.913007 C42.6923916,27.6914685 42.5557762,27.5806993 42.349007,27.5806993 L42.349007,27.5806993 L41.2413147,27.5806993 C40.9828531,27.5806993 40.8462378,27.7173147 40.8314685,27.9905455 L40.8314685,27.9905455 L40.5323916,35.2237762 L41.5071608,35.2237762 Z" id="Path" fill-rule="nonzero"></path>
                <path d="M51.8086993,35.2348531 C53.3151608,35.2348531 54.4080839,35.2126993 55.0874685,35.1683916 L55.0874685,35.1683916 L55.0431608,34.4151608 L51.9748531,34.4151608 C51.5317762,34.4151608 51.3102378,34.1677762 51.3102378,33.673007 L51.3102378,33.673007 L51.3102378,31.5794685 L54.6111608,31.5794685 L54.6111608,30.793007 L51.3102378,30.793007 L51.3102378,29.1314685 C51.3102378,28.6440839 51.5317762,28.4003916 51.9748531,28.4003916 L51.9748531,28.4003916 L55.0431608,28.4003916 L55.0874685,27.6360839 C54.4080839,27.5917762 53.3151608,27.5696224 51.8086993,27.5696224 C51.3582378,27.5696224 51.0019301,27.6896224 50.7397762,27.9296224 C50.4776224,28.1696224 50.3428531,28.4926993 50.3354685,28.8988531 L50.3354685,28.8988531 L50.3354685,33.9056224 C50.3428531,34.3117762 50.4776224,34.6348531 50.7397762,34.8748531 C51.0019301,35.1148531 51.3582378,35.2348531 51.8086993,35.2348531 Z" id="Path" fill-rule="nonzero"></path>
                <path d="M57.5576224,35.2237762 L57.5576224,31.6902378 L60.7477762,31.6902378 L60.7477762,30.9037762 L57.5576224,30.9037762 L57.5576224,29.1314685 C57.5576224,28.873007 57.6166993,28.6865455 57.7348531,28.5720839 C57.853007,28.4576224 58.0413147,28.4003916 58.2997762,28.4003916 L58.2997762,28.4003916 L61.1686993,28.4003916 L61.2240839,27.6471608 C60.5668531,27.5954685 59.5108531,27.5696224 58.0560839,27.5696224 C57.6056224,27.5696224 57.2474685,27.6896224 56.9816224,27.9296224 C56.7157762,28.1696224 56.5828531,28.5074685 56.5828531,28.9431608 L56.5828531,28.9431608 L56.5828531,35.2237762 L57.5576224,35.2237762 Z" id="Path" fill-rule="nonzero"></path>
                <polygon id="Path" fill-rule="nonzero" points="63.5502378 35.2237762 63.5502378 27.5806993 62.5754685 27.5806993 62.5754685 35.2237762"></polygon>
                <path d="M67.6043916,35.3566993 C68.5496224,35.3566993 69.2123916,35.2200839 69.5926993,34.9468531 C69.973007,34.6736224 70.1631608,34.1160839 70.1631608,33.2742378 C70.1631608,32.6613147 70.0486993,32.185007 69.8197762,31.8453147 C69.5908531,31.5056224 69.1920839,31.2656224 68.6234685,31.1253147 L68.6234685,31.1253147 L67.0726993,30.7376224 C66.7182378,30.649007 66.469007,30.5197762 66.325007,30.3499301 C66.181007,30.1800839 66.109007,29.8920839 66.109007,29.4859301 C66.109007,29.2053147 66.133007,28.9856224 66.181007,28.8268531 C66.229007,28.6680839 66.3268531,28.5517762 66.4745455,28.4779301 C66.6222378,28.4040839 66.7736224,28.3597762 66.9286993,28.345007 C67.0837762,28.3302378 67.3237762,28.3228531 67.6486993,28.3228531 C68.3723916,28.3228531 69.0923916,28.3413147 69.8086993,28.3782378 L69.8086993,28.3782378 L69.8751608,27.6693147 C69.2622378,27.5363916 68.5053147,27.4625455 67.6043916,27.4477762 C67.1391608,27.4477762 66.7680839,27.4699301 66.4911608,27.5142378 C66.2142378,27.5585455 65.9631608,27.649007 65.7379301,27.7856224 C65.5126993,27.9222378 65.3539301,28.1253147 65.2616224,28.3948531 C65.1693147,28.6643916 65.1231608,29.0206993 65.1231608,29.4637762 C65.1231608,30.0619301 65.2394685,30.5326993 65.4720839,30.8760839 C65.7046993,31.2194685 66.0905455,31.4576224 66.6296224,31.5905455 L66.6296224,31.5905455 L68.2136224,31.9893147 C68.5680839,32.0779301 68.8173147,32.2053147 68.9613147,32.3714685 C69.1053147,32.5376224 69.1773147,32.8311608 69.1773147,33.2520839 C69.1773147,33.7616224 69.0720839,34.0939301 68.8616224,34.249007 C68.6511608,34.4040839 68.2431608,34.4816224 67.6376224,34.4816224 C67.3200839,34.489007 66.541007,34.4705455 65.3003916,34.4262378 L65.3003916,34.4262378 L65.2339301,35.1462378 C66.0093147,35.2865455 66.7994685,35.3566993 67.6043916,35.3566993 Z" id="Path" fill-rule="nonzero"></path>
                <polygon id="Path" fill-rule="nonzero" points="72.6665455 35.2237762 72.6665455 31.5573147 76.189007 31.5573147 76.189007 35.2237762 77.1637762 35.2237762 77.1637762 27.5806993 76.189007 27.5806993 76.189007 30.7154685 72.6665455 30.7154685 72.6665455 27.5806993 71.6917762 27.5806993 71.6917762 35.2237762"></polygon>
                <path d="M28.9791608,47.3677762 C29.8505455,47.3677762 30.6111608,47.0502378 31.261007,46.4151608 L31.261007,46.4151608 L31.3717762,47.2237762 L32.0806993,47.2237762 L32.0806993,42.8040839 L31.1280839,42.8040839 L31.1280839,45.7726993 C30.4486993,46.2674685 29.821007,46.5148531 29.245007,46.5148531 C28.6320839,46.5148531 28.2037762,46.2859301 27.9600839,45.8280839 C27.7163916,45.3702378 27.5945455,44.5763916 27.5945455,43.4465455 C27.5945455,42.5603916 27.6683916,41.8920839 27.8160839,41.4416224 C27.9637762,40.9911608 28.1871608,40.6902378 28.4862378,40.5388531 C28.7853147,40.3874685 29.2265455,40.3117762 29.8099301,40.3117762 C30.5040839,40.3117762 31.1613147,40.3413147 31.7816224,40.4003916 L31.7816224,40.4003916 L31.8813147,39.6693147 C31.2683916,39.5142378 30.5594685,39.4366993 29.7545455,39.4366993 C28.5582378,39.4366993 27.7274685,39.7191608 27.2622378,40.2840839 C26.797007,40.849007 26.5643916,41.881007 26.5643916,43.3800839 C26.5643916,44.7683916 26.7545455,45.7800839 27.1348531,46.4151608 C27.5151608,47.0502378 28.1299301,47.3677762 28.9791608,47.3677762 Z" id="Path" fill-rule="nonzero"></path>
                <path d="M38.2465176,47.2348531 C39.5757483,47.2348531 40.5615945,47.209007 41.204056,47.1573147 L41.204056,47.1573147 L41.1597483,46.4040839 L38.4015945,46.4040839 C37.9068253,46.4040839 37.6594407,46.1603916 37.6594407,45.673007 L37.6594407,45.673007 L37.6594407,39.5806993 L36.6957483,39.5806993 L36.6957483,45.7948531 C36.6957483,46.7548531 37.2126714,47.2348531 38.2465176,47.2348531 Z" id="Path" fill-rule="nonzero"></path>
                <path d="M47.8904897,39.4366993 C49.0129512,39.4366993 49.7957205,39.7265455 50.2387974,40.3062378 C50.6818743,40.8859301 50.9034128,41.9179301 50.9034128,43.4022378 C50.9034128,44.8865455 50.6818743,45.9185455 50.2387974,46.4982378 C49.7957205,47.0779301 49.0129512,47.3677762 47.8904897,47.3677762 C46.7680282,47.3677762 45.9834128,47.0779301 45.5366435,46.4982378 C45.0898743,45.9185455 44.8664897,44.8865455 44.8664897,43.4022378 C44.8664897,41.9179301 45.0880282,40.8877762 45.5311051,40.3117762 C45.9815666,39.7283916 46.7680282,39.4366993 47.8904897,39.4366993 Z M47.8904897,40.3117762 C47.1372589,40.3117762 46.6166435,40.5351608 46.3286435,40.9819301 C46.0406435,41.4286993 45.8966435,42.2354685 45.8966435,43.4022378 C45.8966435,44.569007 46.0406435,45.3757762 46.3286435,45.8225455 C46.6166435,46.2693147 47.1372589,46.4926993 47.8904897,46.4926993 C48.6437205,46.4926993 49.1643359,46.2693147 49.4523359,45.8225455 C49.7403359,45.3757762 49.8843359,44.569007 49.8843359,43.4022378 C49.8843359,42.2354685 49.7403359,41.4305455 49.4523359,40.9874685 C49.1643359,40.537007 48.6437205,40.3117762 47.8904897,40.3117762 Z" id="Path" fill-rule="nonzero"></path>
                <path d="M57.9553849,39.4920839 C58.9080003,39.4920839 59.5707695,39.6305455 59.9436926,39.9074685 C60.3166157,40.1843916 60.5030772,40.7105455 60.5030772,41.4859301 C60.5030772,42.0397762 60.3996926,42.4588531 60.1929234,42.7431608 C59.9861541,43.0274685 59.6575387,43.1917762 59.2070772,43.2360839 L59.2070772,43.2360839 L59.2070772,43.2803916 L59.3857439,43.3028873 C59.8463251,43.3769158 60.1800003,43.5632634 60.3867695,43.8619301 C60.6193849,44.1979301 60.7356926,44.6834685 60.7356926,45.3185455 C60.7356926,46.0865455 60.5547695,46.6108531 60.1929234,46.8914685 C59.8310772,47.1720839 59.1996926,47.3123916 58.2987695,47.3123916 C57.0729234,47.3123916 56.1313849,47.2828531 55.4741541,47.2237762 L55.4741541,47.2237762 L55.4741541,39.5806993 L55.6776413,39.562101 C56.2443422,39.5154229 57.00359,39.4920839 57.9553849,39.4920839 Z M58.0772311,43.6348531 L56.4267695,43.6348531 L56.4267695,46.4705455 L56.5256864,46.4726501 C56.7753603,46.4773024 57.157108,46.4801455 57.6709295,46.4811793 L58.1436926,46.4816224 C58.7640003,46.4816224 59.1867695,46.393007 59.4120003,46.2157762 C59.6372311,46.0385455 59.7498464,45.6840839 59.7498464,45.1523916 C59.7498464,44.569007 59.6298464,44.1739301 59.3898464,43.9671608 C59.1498464,43.7603916 58.712308,43.6496224 58.0772311,43.6348531 L58.0772311,43.6348531 Z M57.9110772,40.3228531 L56.4267695,40.3228531 L56.4267695,42.8926993 L58.0661541,42.8926993 C58.6347695,42.8853147 59.0261541,42.793007 59.240308,42.6157762 C59.4544618,42.4385455 59.5615387,42.0988531 59.5615387,41.5966993 C59.5615387,41.0871608 59.4452311,40.7474685 59.2126157,40.5776224 C58.9800003,40.4077762 58.5461541,40.3228531 57.9110772,40.3228531 L57.9110772,40.3228531 Z" id="Path" fill-rule="nonzero"></path>
                <path d="M68.2528955,39.5806993 L68.3335988,39.5861247 C68.4855109,39.6078265 68.5804559,39.6946334 68.618434,39.8465455 L68.618434,39.8465455 L71.0775109,47.2237762 L70.0695109,47.2237762 L69.3162801,44.8311608 L66.170434,44.8311608 L65.4172032,47.2237762 L64.4092032,47.2237762 L66.8682801,39.8465455 L66.8920164,39.7760148 C66.9489834,39.6458045 67.0629175,39.5806993 67.2338186,39.5806993 L67.2338186,39.5806993 L68.2528955,39.5806993 Z M67.898434,40.3339301 L67.5882801,40.3339301 L67.3999724,40.9542378 L66.4362801,43.9893147 L69.050434,43.9893147 L68.0867416,40.9542378 L68.0215109,40.7573147 C67.9788442,40.6227506 67.9378186,40.4816224 67.898434,40.3339301 L67.898434,40.3339301 Z" id="Path" fill-rule="nonzero"></path>
                <path d="M76.6008676,47.2348531 C77.9300984,47.2348531 78.9159445,47.209007 79.5584061,47.1573147 L79.5584061,47.1573147 L79.5140984,46.4040839 L76.7559445,46.4040839 C76.2611753,46.4040839 76.0137907,46.1603916 76.0137907,45.673007 L76.0137907,45.673007 L76.0137907,39.5806993 L75.0500984,39.5806993 L75.0500984,45.7948531 C75.0500984,46.7548531 75.5670215,47.2348531 76.6008676,47.2348531 Z" id="Path" fill-rule="nonzero"></path>
            </g>
        </g>
    </g>
</svg>