<?xml version="1.0" encoding="UTF-8"?>
<svg width="48px" height="48px" viewBox="0 0 48 48" version="1.1" xmlns="http://www.w3.org/2000/svg" xmlns:xlink="http://www.w3.org/1999/xlink">
    <!-- Generator: Sketch 60.1 (88133) - https://sketch.com -->
    <title>bb_ games</title>
    <desc>Created with Sketch.</desc>
    <g id="design" stroke="none" stroke-width="1" fill="none" fill-rule="evenodd">
        <g id="main" transform="translate(-967.000000, -64.000000)" fill="#FFB124">
            <g id="bb_-games" transform="translate(967.000000, 64.000000)">
                <path d="M25.6269881,39.684872 C25.5430085,39.2169739 25.7242513,38.4997447 25.1562784,38.3876903 C23.7605297,38.5379246 22.3820985,38.4257888 21.0053786,38.1937331 C20.4805569,38.1924713 20.5808761,39.0676767 20.4450662,39.4854153 C22.1880204,39.8062981 23.8788998,39.9571844 25.6269881,39.684872 M35.6359253,34.5951606 C36.833236,33.2638737 37.7393684,31.8113236 38.4354092,30.1514526 C38.0040204,29.9718397 37.6130119,29.8090553 37.3015416,29.6793576 C36.4282513,31.0660604 35.5932632,32.3919688 34.7247402,33.7710927 C34.9756197,33.9980129 35.2899423,34.2822234 35.6359253,34.5951606 M14.4473888,12.2748346 C15.9239796,11.5199959 17.3194024,10.8067192 18.7310424,10.0851301 C18.6521969,9.8403219 18.5423022,9.56491273 18.477107,9.27935756 C18.4035993,8.95733379 18.2719457,8.9187056 17.9614533,9.02762241 C16.4502275,9.59156129 14.951674,10.263928 13.7252292,11.3238805 C13.9943633,11.6782574 14.2431239,12.0058635 14.4473888,12.2748346 M8.62366044,17.7851776 C8.96104584,17.9296258 9.26689304,18.0448177 9.55790832,18.1898771 C9.80817657,18.3146037 9.9093107,18.2335986 10.0314703,17.9975919 C10.6943837,16.6568516 11.4396061,15.4314662 12.4002581,14.265164 C12.0624652,13.966855 11.7453718,13.6868007 11.4056231,13.3867803 C10.2098608,14.7158261 9.30580645,16.1524034 8.62366044,17.7851776 M13.0227097,35.8318737 C14.4019151,36.9831402 15.8346214,37.8908618 17.4759117,38.5604985 C17.6556876,38.1240978 17.8166384,37.733293 17.9471104,37.4165664 C16.5550289,36.5590452 15.2201562,35.7367294 13.8388319,34.8858499 C13.6166791,35.1433711 13.3376027,35.4668211 13.0227097,35.8318737 M9.51406452,28.5922676 C9.17447878,28.7219654 8.7799253,28.8726479 8.34967742,29.0370214 C8.9889983,30.7034934 9.77614941,32.2153711 10.8961222,33.5813745 C11.273236,33.2712896 11.6002716,33.0023593 11.8446723,32.8013542 C11.0497793,31.3657548 10.292129,29.9974289 9.51406452,28.5922676 M38.7000204,18.9210825 C38.0556876,17.2589297 37.2820645,15.7348686 36.1439593,14.3795817 C35.7631375,14.6916632 35.4359796,14.9597786 35.2038031,15.1499857 C36.0049711,16.5998873 36.7632733,17.9722472 37.5318438,19.3632285 C37.8859762,19.2292115 38.2705059,19.0836632 38.7000204,18.9210825 M29.0931341,10.5447973 C30.4790628,11.3959212 31.8129983,12.2150995 33.2018608,13.0679756 C33.4217317,12.8117175 33.7065942,12.4797107 34.0119525,12.1237447 C32.6551579,10.9656733 31.2121834,10.0766139 29.5790017,9.40098744 C29.4020374,9.81766655 29.2420238,10.1943321 29.0931341,10.5447973 M21.4101596,8.25750357 C21.4408421,8.5793236 21.4888421,8.85090255 21.4872937,9.12215552 C21.4851749,9.50391443 21.6229813,9.59013514 22.017657,9.58500102 C23.139056,9.57041358 24.2663226,9.57986689 25.3821392,9.68091952 C26.3720068,9.77056299 26.3546486,9.8280163 26.5446927,8.85481426 C26.6030424,8.55613854 26.529657,8.43475314 26.2322852,8.41670221 C24.6171952,8.38149677 23.02309,8.05384992 21.4101596,8.25750357 M28.6923463,39.0592421 C30.3999728,38.497911 31.9323056,37.7500808 33.3371002,36.6716292 C33.037039,36.2818839 32.7782547,35.9457209 32.5871104,35.6975307 C31.1257589,36.4438941 29.7326587,37.1553779 28.3059423,37.8840978 C28.4123328,38.2077514 28.5402377,38.5966818 28.6923463,39.0592421 M39.5413243,21.945001 C39.0831239,22.0086479 38.8111375,22.0738431 38.5381732,22.0778363 C38.1488353,22.0834594 38.1272394,22.2605053 38.1367742,22.6058771 C38.1677419,23.7296801 38.180944,24.8573949 38.1204754,25.9793236 C38.0671375,26.9690282 38.0214194,26.9552149 38.9917284,27.1205664 C39.9044211,27.591439 39.4749881,22.6066513 39.5413243,21.945001 M7.65681494,25.9931776 C8.05324278,25.8790452 8.86170458,26.0152625 8.91504244,25.5068211 C8.72785059,24.1166954 8.80302886,22.7355341 8.99079117,21.3527837 C8.9417725,20.7890078 8.17303905,20.9266513 7.77864856,20.8018839 C7.38613243,21.7626988 7.31091341,24.7654696 7.65681494,25.9931776 M1.80774194,17.2286954 C0.662016978,21.1793236 0.512067912,25.0674866 1.39933447,29.03258 C11.2024177,26.4545969 4.80297453,29.8787328 7.46497793,18.9518873 C5.61172156,18.3873779 3.74338879,17.8182642 1.80774194,17.2286954 M6.9339219,39.5758329 C9.76983362,42.6033779 13.1059966,44.7220604 17.025657,45.9737684 C17.7181121,44.059962 18.2098065,42.0800638 18.850309,40.1462506 C18.9652971,39.7800163 18.7627436,39.7455036 18.5135348,39.6656394 C15.7542683,38.8444238 13.4615959,37.233327 11.3377385,35.3110859 C9.89431579,36.7089535 8.43968761,38.117619 6.9339219,39.5758329 M12.1904109,11.7911674 C14.3766927,10.0320367 16.7373311,8.67569032 19.5009983,8.05234228 C19.8337385,7.97231511 19.8656842,7.82028795 19.8022818,7.53644414 C19.3565501,5.50145603 18.9379559,3.52005025 18.4653311,1.47642377 C14.4607131,2.48047131 11.0228455,4.36196537 8.02137861,7.17351036 C9.41769779,8.72006384 10.7967402,10.247507 12.1904109,11.7911674 M46.0439796,30.6187803 C47.2121154,26.6241453 47.3440136,22.6850078 46.4196672,18.6530893 C44.2102818,19.2138907 42.0710628,19.7568856 39.9108591,20.3052183 C40.6019694,23.169327 40.4895484,25.9302234 39.7132767,28.719439 C41.8377046,29.3568041 43.9209372,29.9818228 46.0439796,30.6187803 M35.2938947,35.9560299 C33.1253379,37.7376937 30.8069134,39.2001453 28.0405161,39.8925188 C27.7556129,39.9701419 27.6959593,40.0859042 27.7592801,40.3710112 C28.1768964,42.2516496 28.5851409,44.1344883 28.9741935,46.021198 C29.0546689,46.4115952 29.2205908,46.4191742 29.5548387,46.3343796 C33.4269881,45.4460537 36.6670696,43.3597243 39.7432666,40.8904136 C38.2034771,39.1828278 36.7539423,37.5752761 35.2938947,35.9560299 M35.8103226,12.8422778 C37.4697046,11.2415307 39.0977114,9.6709365 40.7446655,8.08212835 C37.8366723,5.05865806 34.4621664,2.97228795 30.4790628,1.77114703 C29.8091817,3.98456638 29.1542954,6.1484781 28.4933379,8.33260034 C31.3448557,9.24024041 33.7629066,10.7198058 35.8103226,12.8422778 M28.5300102,0.453347368 C55.9217114,5.66766316 52.9695484,46.5193304 25.2312937,47.9522812 C11.2731952,48.749945 -1.13443803,36.4418975 0.0826757216,22.4309908 C0.881806452,8.18990424 14.4968557,-2.34874431 28.5300102,0.453347368 Z M24.0550818,41.5107778 C23.9687796,41.5230316 23.8710275,41.5013949 23.7926302,41.5425087 C23.7926302,41.5425087 23.7500496,41.528125 23.7500496,41.5280842 C23.3659273,41.619602 22.9840869,41.5060808 22.606036,41.5109297 C22.3033263,41.7661691 23.1342805,42.0492795 23.1067762,42.6254424 C22.5520054,42.2726139 22.2188577,42.0182302 21.5922499,42.378108 C20.6716523,42.8184611 20.9082295,44.3485935 21.9031905,44.4797582 C22.3187287,44.5564034 22.3372278,44.6982438 22.2412686,45.0469161 C21.9688747,45.9544747 23.1906744,46.7233711 23.9361413,46.1868958 C24.3532278,45.9248516 24.6288407,45.5248788 24.4745725,45.052743 C24.3201005,44.5798329 24.5316998,44.5268618 24.8812686,44.4342438 C25.3387355,44.3131436 25.6169562,43.9951538 25.6637338,43.5089195 C25.8282703,42.556743 24.6570784,41.836743 23.8769766,42.4177141 C23.7896557,42.477327 23.7364401,42.6327769 23.5630615,42.5275273 C23.5702329,42.0996835 24.3628034,41.7251776 24.0550818,41.5107778 Z M42.5994662,32.6557161 C42.2642404,31.5577059 40.6599484,31.5640625 40.2301487,32.6290268 C40.1281589,32.8425413 40.2029705,33.0925243 40.0736801,33.3305277 C39.7525935,33.0644496 39.7580944,32.6565311 39.5066037,32.3591185 C39.2721046,32.8025684 39.0569603,33.2119131 38.8389637,33.6197093 C38.7905562,33.71029 38.6948822,33.809346 38.7587328,33.901801 C38.8480095,34.0916822 39.273001,33.6845786 39.7696258,33.8531491 C39.7261895,34.0821474 39.5411572,34.1059436 39.437782,34.2129453 C38.5809942,35.0020115 39.4908346,36.6575226 40.5650893,36.3459708 C41.446529,36.0953358 42.3141148,35.7960896 43.1896462,35.524144 C43.3755341,35.4664054 43.4338431,35.3878452 43.3706037,35.1857806 C43.1072964,34.344273 42.8859586,33.4888706 42.5994662,32.6557161 Z M5.12153073,31.2772034 C4.9443219,31.2281032 4.81857657,31.2417127 4.75655959,31.437054 C3.45143226,35.5553562 2.40826757,34.011166 6.74342547,35.019655 C6.93603667,35.0912475 7.05945942,35.0424326 7.10489236,34.8819301 C7.37973107,33.9112136 7.8043966,33.0027993 8.24165297,32.0986228 C8.31642377,31.943947 8.27266146,31.8618825 8.07137114,31.8331966 C7.08019966,31.6919267 6.0888652,31.5452374 5.12153073,31.2772034 Z M19.8556319,13.1240964 C17.8313195,13.1104054 16.0233331,13.6596346 14.725255,15.2931015 C12.6655742,17.5774207 12.7457236,21.2553698 15.2171939,23.2346975 C15.3888204,23.3958112 15.5482635,23.5081915 15.2349188,23.69029 C13.1590207,24.896891 12.7313399,28.4346295 13.7509121,30.2256244 C14.7063076,31.9039131 16.175564,32.9533935 17.8934587,33.7144666 C20.1141718,33.8729725 22.3707015,33.8057399 24.6018051,33.9080964 C25.011435,33.9204835 25.1297643,33.8107518 25.1313942,33.3917501 C25.1413772,30.7882187 25.1889698,28.1848503 25.2041684,25.5813596 C25.2062058,25.2214411 25.2967864,25.0913358 25.6690105,25.1075939 C26.2404469,25.1325311 26.8141243,25.1019301 27.3869053,25.0998112 C28.5824638,25.0954105 29.4838289,25.6522594 30.1253501,26.6200014 C31.1612618,28.3583511 29.3708781,30.4060523 27.6108917,30.6863104 C27.3891463,30.7361032 27.14662,30.736144 27.1557066,31.0580455 C27.1566846,31.8774683 27.1933569,32.697217 27.1757949,33.5162323 C27.1700496,33.8087144 27.2334112,33.9259436 27.5432109,33.8996618 C32.6636862,34.0881983 36.4702329,26.9745005 31.9179341,23.7597229 C31.6851463,23.6081847 31.7775606,23.5150778 31.9403042,23.3762526 C36.0765759,20.1558112 33.1649562,13.1193698 28.134817,13.1488706 C26.2602499,13.1495633 24.3854384,13.1604835 22.5113195,13.1302085 C22.0568679,13.122874 21.9271701,13.2271049 21.9301854,13.6966329 C21.9466879,16.2480081 21.9184095,18.7997093 21.9231362,21.3512475 C21.9237474,21.6883477 21.8462465,21.8186567 21.4892618,21.797672 C20.8835165,21.7620998 20.2736557,21.793964 19.6681548,21.7563952 C15.9466065,21.4087416 16.6500224,16.7239742 19.8535946,16.1868876 C20.087727,16.1315124 20.1693025,16.0375497 20.1675097,15.8060251 C20.1615199,15.0250268 20.1624163,14.243784 20.1771667,13.462908 C20.1817304,13.219363 20.1116048,13.1258078 19.8556319,13.1240964 Z M17.0653569,28.4865005 C16.7084944,25.2658553 19.4948577,25.0319267 21.5779681,25.1432883 C21.8971396,25.1315531 22.0005963,25.2475192 21.9924876,25.5663647 C21.9728068,26.3460183 21.9860903,27.1265684 21.9860903,27.906711 L21.9860903,27.906711 L21.9710547,27.906711 C21.9710547,28.6869351 21.9581786,29.4674852 21.977289,30.2472204 C21.9851939,30.5685514 21.8778255,30.6736788 21.5586947,30.6641032 C19.6098051,30.6702968 17.5720869,30.9322594 17.0653569,28.4865005 Z M25.6262776,16.1810167 L25.7178662,16.1839946 C26.7102601,16.2448706 27.7109664,16.0626092 28.6770377,16.5351525 C31.5273331,17.9434513 30.1644672,22.2270642 27.0001345,21.6742492 C24.5219817,21.6691151 25.3969426,22.0786228 25.2392924,18.8773324 L25.2392924,18.8773324 L25.2494791,18.8773324 C25.2494791,18.1312136 25.2715233,17.384239 25.2403518,16.6394241 C25.2242567,16.2542832 25.3624706,16.1622357 25.7178662,16.1839946 Z M43.8153372,14.6238601 C42.2619382,16.2420061 40.5097752,16.270855 38.5668346,15.30022 C38.7953032,15.5572115 38.983799,15.8763423 39.2623457,16.055507 C39.6166818,16.2834051 39.9512149,16.8151538 40.5033372,16.3066309 C40.5961589,16.2211844 40.9482947,16.137327 41.0860604,16.4208856 C41.1438805,16.5398261 41.2240299,16.5447565 41.332091,16.555147 C42.4775715,16.6650825 43.5984815,15.7903253 43.8153372,14.6238601 Z M5.66397438,14.5975096 C5.22775626,13.7172832 5.23715273,13.7443135 4.60781664,14.6275355 C4.47245501,14.8175389 4.01148387,15.0222112 4.32348387,15.2781433 C4.68560272,15.5751484 4.7489236,15.0410363 4.92397284,14.8667205 C5.10651952,14.6849073 5.19021392,14.6107885 5.31241426,14.9070194 C5.48420374,15.3234947 5.68231579,15.7294981 5.88148727,16.1339124 C5.92932428,16.2310941 5.92166384,16.4248462 6.08184041,16.3914336 C6.24071307,16.3583063 6.30452292,16.1903878 6.35696435,16.0122418 C6.31401698,15.9186866 6.26662818,15.8085474 6.2136163,15.7012197 C6.05233956,15.3746323 5.88857725,15.0492672 5.72632258,14.7231688 Z M41.4692292,12.3927158 C41.2187572,12.3571436 40.9895959,11.9452319 40.6683463,12.297001 C40.0610934,12.8906852 38.8647199,12.588057 38.5611138,13.5637854 L38.5620219,13.5600813 L38.6557849,13.5833463 C39.0197351,13.7024978 38.5409717,13.9884107 38.6555479,14.1632642 L38.6931749,14.2015171 C38.9316672,14.0850214 39.047348,13.4099246 39.3641969,13.5538024 C39.4507436,13.6062438 39.5544041,13.7909501 39.5236401,13.850237 C39.3291138,14.2248652 39.664747,14.41658 39.7851952,14.6755273 C39.8291613,14.7700604 40.0226689,14.8207497 39.9027912,14.9581895 C39.7037012,15.2429705 39.3451681,14.3976326 39.0202105,14.7398669 C38.9133718,14.8868822 39.1215076,14.9621419 39.2209304,15.0386241 C40.2803531,15.8534017 42.5407946,15.5628346 43.371219,14.5091165 C43.652781,14.1518465 43.5981392,13.7105154 43.1016774,13.4076428 C43.6795518,14.1125256 43.0968693,14.3119008 42.7814058,14.617911 C42.685528,14.7654968 42.2536503,14.645782 42.4124822,14.4743593 C42.7906146,14.2573406 42.4862343,13.7539518 42.8576027,13.5041725 C42.6808829,13.5625222 42.5271443,13.5464679 42.4711171,13.417748 C42.3766248,13.2007701 41.9097046,13.2446954 42.0407878,13.0155749 C42.1874363,12.7591946 42.4473209,13.1524441 42.6672326,13.1201725 C42.8000272,13.1006954 42.9023022,13.5098363 42.9823294,13.1754255 C43.0419423,12.6092862 43.7545671,13.5477718 43.9113616,13.6764102 C43.5690458,12.6878873 42.3539287,12.5265698 41.4692292,12.3927158 Z M6.96086791,13.2207158 C6.47361494,12.2188686 6.46208353,12.2095375 5.7994961,13.097619 C5.66507165,13.2778024 5.21053854,13.4798669 5.55061324,13.7432149 C5.88852835,14.0049331 5.96199525,13.5117718 6.11528557,13.3395341 C6.32219898,13.1070316 6.40662683,13.0979857 6.5303348,13.3908754 C6.70477284,13.8038465 6.90736706,14.2049603 7.09977453,14.6102302 C7.14655212,14.708675 7.13799525,14.8955002 7.30811409,14.8386173 C7.45606655,14.7891912 7.52822954,14.6323151 7.57378472,14.4684306 C7.37066078,14.0551742 7.16419559,13.6386988 6.96086791,13.2207158 Z M41.4942886,13.7783593 C41.4897657,13.5515613 41.6068727,13.5665969 41.7580849,13.6067328 C42.1555314,13.7133677 42.3751986,14.4809195 41.8660238,14.564125 C41.6245161,14.6360027 41.4570866,14.9032625 41.1076401,14.8166343 C40.7750628,14.7778024 40.3679593,14.8723762 40.1610051,14.3304815 C40.0234839,13.9703185 40.2292156,13.8550044 40.3793684,13.678692 C40.4348659,13.6134968 40.6864788,13.6064883 40.6265806,13.7786852 C40.481236,14.1966683 40.9002784,14.1354662 40.9927742,14.1449603 C41.2090187,14.1671674 41.5010526,14.117456 41.4942886,13.7783593 Z M40.2703701,12.8945154 C40.4207674,13.0186716 40.6919389,12.8303389 40.7268591,13.0563626 C40.7716401,13.345911 40.4830696,13.1904204 40.3518234,13.2522744 C40.2291341,13.3101351 40.1014329,13.3600095 39.9717759,13.3996156 C39.8273684,13.4437447 39.6459219,13.6570961 39.5403871,13.3986377 C39.4416163,13.1567633 39.713725,13.1448652 39.8469677,13.0674051 C39.9787844,12.9908007 40.1311375,12.9496054 40.2703701,12.8945154 Z M7.82341732,11.0206207 C7.77207606,10.9240095 7.64518981,10.7645664 7.54336299,10.876254 C7.21909813,11.2321385 6.93154635,11.6213949 6.65198098,11.9700672 C6.63910492,12.1105222 6.7004292,12.1713168 6.76668387,12.2271402 C6.84279932,12.2912761 6.929509,12.2982438 6.99751579,12.2251844 C7.09147844,12.1243355 7.18719321,12.0200638 7.25642241,11.9021419 C7.50705739,11.4753576 7.65663973,11.6024068 7.80805569,11.976546 C7.95058879,12.3288448 8.12433413,12.6687565 8.29221188,13.0102981 C8.345509,13.1186852 8.31731205,13.3538771 8.51685025,13.2795545 C8.68978065,13.2151742 8.8426635,13.025619 8.74491138,12.8209467 C8.45442581,12.2127973 8.139818,11.6159756 7.82341732,11.0206207 Z M26.2537182,3.93278913 C26.914146,2.5488163 25.6022547,0.967138879 24.2512869,2.3465073 C23.8991511,2.70406248 23.9589677,1.7547382 23.0072394,1.83040543 C22.4784244,1.79809304 22.135416,2.07549881 21.9339626,2.5494275 C21.3296435,4.19752258 23.1635857,5.28803531 23.941854,6.50922377 C24.0810141,6.68904493 24.1601776,6.6344746 24.2312998,6.55247218 L24.2915042,6.48029338 C24.5768557,6.15448014 24.8463565,5.8148944 25.1265331,5.48447674 C25.5412564,4.99522716 25.9723599,4.51591986 26.2537182,3.93278913 Z" id="Path"></path>
            </g>
        </g>
    </g>
</svg>