<?xml version="1.0" encoding="UTF-8"?>
<svg width="153px" height="48px" viewBox="0 0 153 48" version="1.1" xmlns="http://www.w3.org/2000/svg" xmlns:xlink="http://www.w3.org/1999/xlink">
    <!-- Generator: Sketch 60.1 (88133) - https://sketch.com -->
    <title>tomhorn</title>
    <desc>Created with Sketch.</desc>
    <defs>
        <linearGradient x1="100%" y1="3.2928269%" x2="0%" y2="96.7071731%" id="linearGradient-1">
            <stop stop-color="#FFB124" stop-opacity="0.5" offset="0%"></stop>
            <stop stop-color="#FFB124" offset="100%"></stop>
        </linearGradient>
        <linearGradient x1="100%" y1="3.29270578%" x2="0%" y2="96.7072942%" id="linearGradient-2">
            <stop stop-color="#FFB124" offset="0%"></stop>
            <stop stop-color="#FFB124" stop-opacity="0.498661495" offset="100%"></stop>
        </linearGradient>
    </defs>
    <g id="design" stroke="none" stroke-width="1" fill="none" fill-rule="evenodd">
        <g id="main" transform="translate(-751.000000, -448.000000)">
            <g id="tomhorn" transform="translate(751.000000, 448.000000)">
                <path d="M59.5613684,27.0653684 C59.5613684,28.5025263 60.6906316,29.6321053 62.094,29.6321053 C62.4022105,29.6321053 62.7101053,29.5635789 63.4629474,29.2901053 L64.524,31.9253684 C63.4973684,32.3362105 62.8127368,32.4729474 62.094,32.4729474 C59.1164211,32.4729474 56.6864211,30.0767368 56.6864211,27.0653684 L56.6864211,9.57536842 L59.5613684,9.57536842 L59.5613684,13.9563158 L64.524,13.9563158 L64.524,16.7971579 L59.5613684,16.7971579 L59.5613684,27.0653684 L59.5613684,27.0653684 Z" id="Path" fill="#FFB124" fill-rule="nonzero"></path>
                <path d="M66.4171579,27.0653684 L66.4171579,18.3031579 C66.4171579,15.2911579 68.8471579,12.8955789 71.8247368,12.8955789 C74.8023158,12.8955789 77.2323158,15.2911579 77.2323158,18.3031579 L77.2323158,27.0653684 C77.2323158,30.0767368 74.8023158,32.4729474 71.8247368,32.4729474 C68.8474737,32.4729474 66.4171579,30.0767368 66.4171579,27.0653684 M71.8247368,15.7361053 C70.4557895,15.7361053 69.2921053,16.8997895 69.2921053,18.3031579 L69.2921053,27.0653684 C69.2921053,28.4681053 70.4557895,29.6321053 71.8247368,29.6321053 C73.2281053,29.6321053 74.3573684,28.5025263 74.3573684,27.0653684 L74.3573684,18.3031579 C74.3573684,16.8656842 73.2281053,15.7361053 71.8247368,15.7361053" id="Path" fill="#FFB124" fill-rule="nonzero"></path>
                <path d="M93.5005263,17.7214737 C93.5005263,16.6604211 92.6109474,15.7364211 91.5154737,15.7364211 C90.4547368,15.7364211 89.5301053,16.6604211 89.5301053,17.7214737 L89.5301053,32.0962105 L86.6898947,32.0962105 L86.6898947,17.7214737 C86.6898947,16.6604211 85.8,15.7364211 84.7045263,15.7364211 C83.6437895,15.7364211 82.7194737,16.6604211 82.7194737,17.7214737 L82.7194737,32.0962105 L79.8789474,32.0962105 L79.8789474,17.7214737 C79.8789474,15.0517895 82.0351579,12.8955789 84.7045263,12.8955789 C86.0396842,12.8955789 87.2374737,13.4087368 88.1273684,14.2986316 C88.9828421,13.4087368 90.1809474,12.8955789 91.5154737,12.8955789 C94.2192632,12.8955789 96.3757895,15.0517895 96.3757895,17.7214737 L96.3757895,32.0962105 L93.5008421,32.0962105 L93.5008421,17.7214737 L93.5005263,17.7214737 Z" id="Path" fill="#FFB124" fill-rule="nonzero"></path>
                <path d="M111.675474,18.3031579 C111.675474,16.8997895 110.545895,15.7702105 109.142526,15.7702105 C107.773579,15.7702105 106.609895,16.8997895 106.609895,18.3031579 L106.609895,32.0962105 L103.734632,32.0962105 L103.734632,6.01578947 L106.609895,6.01578947 L106.609895,13.5454737 C107.362737,13.1349474 108.218526,12.8955789 109.142526,12.8955789 C112.120421,12.8955789 114.550105,15.2911579 114.550105,18.3031579 L114.550105,32.0962105 L111.675158,32.0962105 L111.675158,18.3031579 L111.675474,18.3031579 Z" id="Path" fill="#FFB124" fill-rule="nonzero"></path>
                <path d="M117.100105,27.0653684 L117.100105,18.3031579 C117.100105,15.2911579 119.530105,12.8955789 122.507684,12.8955789 C125.485579,12.8955789 127.915263,15.2911579 127.915263,18.3031579 L127.915263,27.0653684 C127.915263,30.0767368 125.485579,32.4729474 122.507684,32.4729474 C119.530421,32.4729474 117.100105,30.0767368 117.100105,27.0653684 M122.507684,15.7361053 C121.138737,15.7361053 119.975053,16.8997895 119.975053,18.3031579 L119.975053,27.0653684 C119.975053,28.4681053 121.138737,29.6321053 122.507684,29.6321053 C123.911053,29.6321053 125.040632,28.5025263 125.040632,27.0653684 L125.040632,18.3031579 C125.040947,16.8656842 123.911368,15.7361053 122.507684,15.7361053" id="Path" fill="#FFB124" fill-rule="nonzero"></path>
                <path d="M135.866526,15.7361053 C134.497579,15.7361053 133.333895,16.8997895 133.333895,18.3031579 L133.333895,32.0962105 L130.493053,32.0962105 L130.493053,18.3031579 C130.493053,15.2911579 132.888947,12.8955789 135.866526,12.8955789 C137.748947,12.8955789 139.529053,13.8877895 140.692421,15.8731579 L138.262105,17.3106316 C137.577789,16.2151579 136.790842,15.7361053 135.866526,15.7361053" id="Path" fill="#FFB124" fill-rule="nonzero"></path>
                <path d="M149.335263,18.3031579 C149.335263,16.8997895 148.171263,15.7361053 146.802316,15.7361053 C145.399263,15.7361053 144.269368,16.8656842 144.269368,18.3031579 L144.269368,32.0962105 L141.394421,32.0962105 L141.394421,18.3031579 C141.394421,15.2911579 143.824421,12.8955789 146.802316,12.8955789 C149.780211,12.8955789 152.175789,15.2911579 152.175789,18.3031579 L152.175789,32.0962105 L149.335263,32.0962105 L149.335263,18.3031579 Z" id="Path" fill="#FFB124" fill-rule="nonzero"></path>
                <path d="M80.6254737,45.7304211 L80.6254737,40.7412632 C80.6254737,39.5750526 81.5630526,38.6374737 82.7292632,38.6374737 C83.5708421,38.6374737 84.3281053,39.1424211 84.7247368,40.044 L83.7988421,40.4406316 C83.5705263,39.8996842 83.1618947,39.6473684 82.7289474,39.6473684 C82.1156842,39.6473684 81.6230526,40.14 81.6230526,40.7412632 L81.6230526,45.7304211 C81.6230526,46.3313684 82.1276842,46.8366316 82.7289474,46.8366316 C83.3298947,46.8366316 83.8348421,46.3313684 83.8348421,45.7304211 L83.8348421,44.6485263 L82.236,44.6485263 L82.236,43.6386316 L84.8330526,43.6386316 L84.8330526,45.7304211 C84.8330526,46.8966316 83.8951579,47.8342105 82.7292632,47.8342105 C81.5630526,47.8342105 80.6254737,46.8966316 80.6254737,45.7304211" id="Path" fill="#FFB124" fill-rule="nonzero"></path>
                <path d="M92.5152632,44.9011579 L90.3151579,44.9011579 L90.3151579,47.7142105 L89.3175789,47.7142105 L89.3175789,40.7652632 C89.3175789,39.5993684 90.2551579,38.6614737 91.4213684,38.6614737 C92.5872632,38.6614737 93.5251579,39.5993684 93.5251579,40.7652632 L93.5251579,47.7142105 L92.5152632,47.7142105 L92.5152632,44.9011579 Z M91.4213684,39.6593684 C90.8201053,39.6593684 90.3151579,40.1523158 90.3151579,40.7652632 L90.3151579,43.9032632 L92.5152632,43.9032632 L92.5152632,40.7652632 C92.5152632,40.1523158 92.0223158,39.6593684 91.4213684,39.6593684" id="Path" fill="#FFB124" fill-rule="nonzero"></path>
                <polygon id="Path" fill="#FFB124" fill-rule="nonzero" points="102.517579 41.7991579 101.123053 45.8147368 100.570105 45.8147368 99.1872632 41.7991579 99.1872632 47.7138947 98.1896842 47.7138947 98.1896842 38.7454737 99.1992632 38.7454737 100.846421 43.5543158 102.505579 38.7454737 103.515474 38.7454737 103.515474 47.7138947 102.517579 47.7138947"></polygon>
                <rect id="Path" fill="#FFB124" fill-rule="nonzero" x="108.912947" y="38.7457895" width="1" height="8.96842105"></rect>
                <polygon id="Path" fill="#FFB124" fill-rule="nonzero" points="116.233895 41.6911579 116.233895 47.7138947 115.224316 47.7138947 115.224316 38.7457895 116.209895 38.7457895 118.434 44.7925263 118.434 38.7457895 119.431895 38.7457895 119.431895 47.7138947 118.446 47.7138947"></polygon>
                <path d="M124.048105,45.7304211 L124.048105,40.7412632 C124.048105,39.5750526 124.985684,38.6374737 126.151895,38.6374737 C126.993474,38.6374737 127.751053,39.1424211 128.147368,40.044 L127.221474,40.4406316 C126.993158,39.8996842 126.584526,39.6473684 126.151579,39.6473684 C125.538316,39.6473684 125.045684,40.14 125.045684,40.7412632 L125.045684,45.7304211 C125.045684,46.3313684 125.550316,46.8366316 126.151579,46.8366316 C126.752526,46.8366316 127.257789,46.3313684 127.257789,45.7304211 L127.257789,44.6485263 L125.658947,44.6485263 L125.658947,43.6386316 L128.255684,43.6386316 L128.255684,45.7304211 C128.255684,46.8966316 127.317789,47.8342105 126.151895,47.8342105 C124.985684,47.8342105 124.048105,46.8966316 124.048105,45.7304211" id="Path" fill="#FFB124" fill-rule="nonzero"></path>
                <path d="M34.4475789,13.3203158 C40.2590526,19.1744211 40.2258947,28.6313684 34.3730526,34.4447368 C28.5198947,40.2584211 19.0632632,40.2274737 13.2483158,34.3755789 C13.2473684,34.3746316 13.2467368,34.3736842 13.2457895,34.3727368 C13.2312632,34.3582105 13.2148421,34.3455789 13.2,34.3310526 C13.1046316,34.2375789 13.0070526,34.1469474 12.9056842,34.0632632 C12.9028421,34.0610526 12.8993684,34.0591579 12.8965263,34.0566316 C12.7831579,33.9641053 12.6663158,33.8775789 12.5463158,33.798 C12.5390526,33.7926316 12.5308421,33.7897895 12.5235789,33.7841053 C12.4073684,33.708 12.2892632,33.6369474 12.168,33.5728421 C12.1582105,33.5677895 12.1481053,33.564 12.138,33.5589474 C10.854,32.8916842 9.31263158,32.8907368 8.02831579,33.5598947 C7.98473684,33.5826316 7.94336842,33.6107368 7.90010526,33.6353684 C7.68789474,33.7550526 7.48168421,33.8892632 7.28715789,34.0465263 C7.17031579,34.1412632 7.05726316,34.2426316 6.948,34.3509474 C5.20326316,36.084 5.19378947,38.9036842 6.92684211,40.6484211 C16.2069474,49.9923158 31.3048421,50.0434737 40.6487368,40.7630526 C49.9923158,31.4823158 50.0437895,16.3850526 40.7633684,7.04147368 C42.4964211,8.78652632 42.4866316,11.6058947 40.7418947,13.3389474 C38.9977895,15.0710526 36.1806316,15.0622105 34.4475789,13.3203158 Z" id="Path" fill="url(#linearGradient-1)"></path>
                <path d="M7.04147368,6.92684211 C-2.30210526,16.2075789 -2.35357895,31.3051579 6.92684211,40.6487368 C5.19378947,38.904 5.20326316,36.0843158 6.948,34.3512632 C8.69242105,32.6194737 11.5095789,32.628 13.2429474,34.3702105 C7.43115789,28.5161053 7.464,19.0594737 13.3171579,13.2461053 C19.1703158,7.43242105 28.6269474,7.464 34.4418947,13.3152632 C34.4425263,13.3155789 34.4434737,13.3168421 34.4447368,13.3181053 C36.1774737,15.0628421 38.9971579,15.0723158 40.7418947,13.3392632 C42.4866316,11.6062105 42.4964211,8.78684211 40.7633684,7.04210526 C36.1023158,2.34884211 29.9744211,0.000315789474 23.8446316,0.000315789474 C17.7694737,0.000315789474 11.6924211,2.30778947 7.04147368,6.92684211" id="Path" fill="url(#linearGradient-2)"></path>
            </g>
        </g>
    </g>
</svg>