<?xml version="1.0" encoding="UTF-8"?>
<svg width="365px" height="48px" viewBox="0 0 365 48" version="1.1" xmlns="http://www.w3.org/2000/svg" xmlns:xlink="http://www.w3.org/1999/xlink">
    <!-- Generator: Sketch 60.1 (88133) - https://sketch.com -->
    <title>gameart</title>
    <desc>Created with Sketch.</desc>
    <g id="design" stroke="none" stroke-width="1" fill="none" fill-rule="evenodd">
        <g id="main" transform="translate(-1202.000000, -160.000000)" fill="#FFB124" fill-rule="nonzero">
            <g id="gameart" transform="translate(1202.000000, 160.000000)">
                <path d="M209.779838,0.429456297 L243.192352,47.8942877 L230.821263,47.8942877 L224.477115,37.8516173 L194.448146,37.8516173 L185.77781,47.8942877 L184.086037,47.8942877 L184.086037,47.8942877 L0,47.8942877 L0,0.429456297 L209.779838,0.429456297 Z M365,0.00660701996 L365,9.62642808 L341.209444,9.62642808 L341.209444,48 L329.684241,48 L329.684241,9.62642808 L306.845307,9.62642808 L306.845307,0.00660701996 L365,0.00660701996 Z M273.855736,0.00660701996 C278.508111,0.00660701996 282.843279,-0.0991052994 286.86124,0.535168617 C290.8792,1.16944253 292.14803,1.59229181 295.214368,2.75512732 C305.576477,6.56077082 308.960023,17.9777013 299.866744,24.1090158 C296.483198,26.4346869 294.579954,28.126084 289.716107,29.1832072 L289.716107,29.1832072 L307.585458,47.7885754 L294.579954,47.7885754 L277.767961,29.6060564 L259.052723,29.6060564 L259.052723,47.7885754 L248.267671,47.7885754 L248.267671,0.00660701996 L273.855736,0.00660701996 Z M23.7905562,8.25216793 C18.7152375,9.7321404 13.8513905,12.6920853 11.3137312,17.554852 C10.1506373,19.6690984 9.62195829,21.8890571 9.62195829,24.2147281 C9.62195829,34.8916724 21.1471611,39.8601514 31.2977984,40.388713 C37.8534183,40.70585 44.6205098,39.7544391 49.6958285,35.2088094 L49.6958285,21.7833448 L29.0773465,21.7833448 L29.0773465,27.49181 L42.928737,27.49181 L42.928737,32.8831383 C41.8713789,33.3059876 40.3910776,33.6231246 38.5935689,33.9402615 C36.7960603,34.2573985 34.9985516,34.3631108 33.2010429,34.3631108 C27.174102,34.3631108 17.7636153,32.0374398 17.7636153,24.4261528 C17.7636153,19.0348245 21.7815759,15.229181 26.8568946,13.7492085 C28.8658749,13.2206469 31.0863268,12.90351 33.4125145,12.90351 L33.7297219,12.90351 C36.1616454,12.90351 41.3426999,13.1149346 46.2065469,17.554852 L50.8589224,13.4320716 C49.3786211,12.2692361 47.1581692,8.78072953 38.2763615,7.19504474 C33.9411935,6.4550585 27.702781,7.08933242 23.7905562,8.25216793 Z M204.070104,7.82931865 L162.09299,7.82931865 L162.09299,40.4944253 L178.587775,40.4944253 L184.086037,33.4116999 L169.494496,33.4116999 L169.494496,26.2232622 L189.584299,26.2232622 L193.919467,20.7262216 L169.494496,20.7262216 L169.494496,14.7006194 L198.677578,14.7006194 L204.070104,7.82931865 Z M114.088934,7.82931865 L106.898899,7.82931865 L106.898899,40.4944253 L114.511877,40.4944253 L114.511877,17.871989 L129.209154,31.0860289 L143.589224,17.871989 L143.589224,40.4944253 L151.202202,40.4944253 L151.202202,7.82931865 L144.329374,7.82931865 L129.103418,21.3604955 L114.088934,7.82931865 Z M77.6100811,6.4550585 L55.1940904,40.071576 L63.6529548,40.071576 L67.6709154,33.5174123 L87.8664542,33.5174123 L92.5188297,40.071576 L101.08343,40.071576 L77.6100811,6.4550585 Z M209.356895,14.2777701 L198.571842,30.5574673 L220.247683,30.5574673 L209.356895,14.2777701 Z M77.3986095,17.2377151 L84.5886443,28.3375086 L70.1028389,28.3375086 L77.3986095,17.2377151 Z M277.345017,9.41500344 L259.052723,9.41500344 L259.052723,21.6776325 L273.855736,21.6776325 C278.931054,21.6776325 283.160487,20.9376462 286.332561,19.5633861 C289.504635,18.1891259 291.196408,17.871989 291.196408,15.6520303 C291.196408,13.9606332 289.610371,12.4806607 286.649768,11.3178252 C283.58343,10.0492774 280.517092,9.41500344 277.345017,9.41500344 L277.345017,9.41500344 Z" id="Path"></path>
            </g>
        </g>
    </g>
</svg>