<?xml version="1.0" encoding="UTF-8"?>
<svg width="256px" height="48px" viewBox="0 0 256 48" version="1.1" xmlns="http://www.w3.org/2000/svg" xmlns:xlink="http://www.w3.org/1999/xlink">
    <!-- Generator: Sketch 60.1 (88133) - https://sketch.com -->
    <title>irondog</title>
    <desc>Created with Sketch.</desc>
    <g id="design" stroke="none" stroke-width="1" fill="none" fill-rule="evenodd">
        <g id="main" transform="translate(-386.000000, -256.000000)" fill="#FFB124" fill-rule="nonzero">
            <g id="irondog" transform="translate(386.000000, 256.000000)">
                <path d="M248.235294,43.6 C248,43.7176471 247.741176,43.9058824 247.576471,44.1176471 C247.435294,44.2823529 247.270588,44.6117647 247.270588,45.1058824 C247.270588,45.9764706 247.811765,46.5647059 248.611765,46.5647059 C248.941176,46.5647059 249.152941,46.4705882 249.364706,46.2352941 C249.623529,45.9764706 249.764706,45.6470588 249.905882,45.3176471 L250.282353,44.4705882 C250.494118,43.9529412 250.729412,43.4823529 251.105882,43.1294118 C251.552941,42.6823529 252.070588,42.4941176 252.682353,42.4941176 C254.282353,42.4941176 255.364706,43.6941176 255.364706,45.2470588 C255.364706,45.8117647 255.247059,46.5411765 254.658824,47.1294118 C254.235294,47.5529412 253.647059,47.8117647 253.105882,47.9294118 L252.847059,46.9882353 C253.294118,46.9176471 253.694118,46.7058824 253.952941,46.4705882 C254.329412,46.0941176 254.447059,45.6705882 254.447059,45.2235294 C254.447059,44.0235294 253.6,43.4823529 252.729412,43.4823529 C252.329412,43.4823529 252,43.6 251.717647,43.9058824 C251.482353,44.1647059 251.317647,44.4941176 251.105882,44.9411765 L250.729412,45.7176471 C250.564706,46.0470588 250.4,46.4941176 250,46.8705882 C249.623529,47.2470588 249.223529,47.4823529 248.588235,47.4823529 C247.247059,47.4823529 246.352941,46.4470588 246.352941,45.0352941 C246.352941,44.4941176 246.447059,44.0705882 246.752941,43.6470588 C246.988235,43.2941176 247.341176,42.9882353 247.717647,42.8 L248.235294,43.6 L248.235294,43.6 Z" id="Path"></path>
                <polygon id="Path" points="247.435294 37.6941176 255.223529 37.6941176 255.223529 38.6588235 247.435294 38.6588235 247.435294 40.7764706 246.517647 40.7764706 246.517647 35.5764706 247.435294 35.5764706"></polygon>
                <path d="M251.858824,31.8823529 C252.588235,31.8823529 253.388235,31.8823529 253.976471,31.2 C254.282353,30.8470588 254.470588,30.2352941 254.470588,29.7647059 C254.470588,29.2941176 254.282353,28.6823529 253.976471,28.3294118 C253.388235,27.6470588 252.588235,27.6470588 251.858824,27.6470588 L246.517647,27.6470588 L246.517647,26.6823529 L252.117647,26.6823529 C252.847059,26.6823529 253.552941,26.7529412 254.211765,27.2235294 C254.941176,27.7411765 255.388235,28.6588235 255.388235,29.7647059 C255.388235,30.8705882 254.941176,31.7882353 254.211765,32.3058824 C253.552941,32.7764706 252.847059,32.8470588 252.117647,32.8470588 L246.517647,32.8470588 L246.517647,31.8823529 L251.858824,31.8823529 L251.858824,31.8823529 Z" id="Path"></path>
                <path d="M250.870588,16.4941176 C252.705882,16.4941176 253.670588,17.3882353 254.211765,18.0235294 C254.894118,18.8235294 255.223529,19.6470588 255.223529,21.2 L255.223529,22.9647059 L246.517647,22.9647059 L246.517647,21.2 C246.517647,20.3294118 246.611765,19.0823529 247.529412,17.9764706 C248.188235,17.1764706 249.294118,16.4941176 250.870588,16.4941176 Z M250.870588,17.4823529 C248.776471,17.4823529 247.411765,18.9411765 247.411765,21.1529412 L247.411765,22 L254.305882,22 L254.305882,21.1529412 C254.305882,20.4705882 254.235294,19.5058824 253.529412,18.6588235 C252.988235,18 252.117647,17.4823529 250.870588,17.4823529 Z" id="Path"></path>
                <polygon id="Path" points="246.517647 12.3058824 255.223529 12.3058824 255.223529 13.2705882 246.517647 13.2705882"></polygon>
                <path d="M250.894118,0.0235294118 C253.482353,0.0235294118 255.388235,2.02352941 255.388235,4.56470588 C255.388235,7.10588235 253.458824,9.10588235 250.894118,9.10588235 C248.305882,9.10588235 246.4,7.08235294 246.4,4.56470588 C246.4,2.04705882 248.305882,0.0235294118 250.894118,0.0235294118 Z M250.894118,1.05882353 C248.894118,1.05882353 247.294118,2.63529412 247.294118,4.58823529 C247.294118,6.54117647 248.894118,8.11764706 250.894118,8.11764706 C252.894118,8.11764706 254.494118,6.54117647 254.494118,4.58823529 C254.494118,2.63529412 252.894118,1.05882353 250.894118,1.05882353 Z" id="Path"></path>
                <polygon id="Path" points="23.9764706 1.43529412 23.9764706 46.5647059 13.5529412 46.5647059 13.5529412 1.43529412"></polygon>
                <polygon id="Path" points="10.4235294 1.36470588 10.4235294 46.5647059 3.28626015e-14 46.5647059 3.28626015e-14 1.36470588"></polygon>
                <path d="M71.6470588,0.447058824 C78.6823529,0.447058824 84.4941176,2.72941176 89.1294118,7.01176471 C91.5058824,9.2 108.776471,28.6117647 108.776471,28.6117647 L108.776471,28.6117647 L108.776471,1.34117647 L118.917647,1.34117647 L118.917647,46.5647059 L110.070588,46.5647059 L95.4117647,29.7882353 C94.4470588,33.8352941 92.3764706,37.7411765 89.0588235,40.9647059 C84.8705882,45.0352941 79.2,47.6 71.6235294,47.6 C63.1764706,47.6 57.4352941,44.2117647 54.0470588,40.9647059 C49.7176471,36.8941176 47.0117647,30.8235294 47.0117647,24.1882353 C47.0117647,17.6941176 49.9294118,11.1294118 53.9764706,7.08235294 C57.0352941,4.02352941 62.6588235,0.447058824 71.6470588,0.447058824 Z M71.6,10.0470588 C67.6705882,10.0470588 64.1411765,11.4823529 61.7176471,13.9058824 C59.7411765,15.8117647 57.7176471,19.1058824 57.7176471,24.1176471 C57.7176471,28.2352941 59.0588235,31.5529412 61.8352941,34.2588235 C64.7529412,37.0352941 68,37.9764706 71.5058824,37.9764706 C76.0941176,37.9764706 79.3411765,36.2823529 81.5058824,34.1176471 C83.2705882,32.4235294 85.4352941,29.2470588 85.4588235,24.0470588 C85.4588235,19.3882353 83.5529412,15.9294118 81.5294118,13.9058824 C79.3176471,11.7411765 75.7176471,10.0470588 71.6,10.0470588 Z" id="Path"></path>
                <path d="M36.5176471,28.0705882 C39.0117647,27.4588235 41.2470588,26.1176471 42.8,24.6352941 C45.7176471,21.7882353 46.3058824,18.2823529 46.3058824,15.4588235 C46.3058824,10.4470588 44.2823529,7.15294118 42.3764706,5.31764706 C40.2117647,3.29411765 36.6352941,1.31764706 30.8705882,1.31764706 L13.4588235,1.31764706 L13.4588235,9.31764706 L27.9294118,9.31764706 C29.2941176,9.31764706 31.9764706,9.34117647 33.6705882,10.6352941 C34.5411765,11.3176471 35.7647059,12.8470588 35.7647059,15.4117647 C35.7647059,17.6470588 34.8235294,18.9647059 34.0705882,19.6941176 C32.3058824,21.4588235 29.7411765,21.5529412 27.8588235,21.5529412 L25.4588235,21.5529412 L25.4588235,28.8470588 L37.6705882,46.4941176 L50.3764706,46.4941176 L36.5176471,28.0705882 Z" id="Path"></path>
                <path d="M217.435294,6.39488462e-14 C222.823529,6.39488462e-14 228.611765,0.964705882 233.694118,6.21176471 C235.341176,7.92941176 236.658824,10 237.694118,12.1882353 L237.694118,12.1882353 L228.823529,16.4941176 C227.858824,13.7647059 226.164706,12.2823529 225.858824,12.0470588 C224.823529,11.1529412 222.447059,9.57647059 217.929412,9.57647059 C214.447059,9.57647059 211.435294,10.4705882 208.705882,13.1294118 C205.294118,16.4705882 204.094118,20.5882353 203.552941,23.8352941 C204.094118,27.0823529 205.294118,31.2235294 208.705882,34.5411765 C211.435294,37.2 214.447059,38.0941176 217.929412,38.0941176 C222.447059,38.0941176 224.823529,36.5411765 225.858824,35.6470588 C226.188235,35.3647059 228.235294,33.6235294 229.129412,30.2588235 L229.129412,30.2588235 L217.929412,30.2588235 L217.929412,21.7411765 L240.611765,21.7647059 L240.611765,22.2588235 C240.611765,27.7882353 238.705882,36.1882353 233.647059,41.4588235 C228.588235,46.7058824 222.870588,47.6705882 217.458824,47.6705882 C211.976471,47.6705882 206.117647,46.7764706 200.776471,41.3176471 C200.047059,40.5882353 199.247059,39.6470588 198.447059,38.5176471 L198.447059,38.5176471 L198.423529,38.5411765 L198.423529,38.4941176 C198.4,38.4705882 198.4,38.4470588 198.376471,38.4235294 C197.717647,39.4117647 197.011765,40.2823529 196.235294,41.0352941 C191.647059,45.4823529 185.694118,47.6705882 178.588235,47.6705882 C169.505882,47.6705882 163.835294,44.0470588 160.752941,40.9647059 C159.929412,40.1176471 159.152941,39.2 158.423529,38.2352941 C157.976471,38.7764706 157.505882,39.2941176 157.011765,39.7882353 C150.729412,46.1647059 142.870588,46.6352941 139.035294,46.6352941 L139.035294,46.6352941 L124.188235,46.6352941 L124.188235,1.10588235 L138.682353,1.10588235 C144.705882,1.10588235 151.058824,1.95294118 156.658824,7.36470588 C157.341176,8.02352941 157.976471,8.68235294 158.564706,9.41176471 L158.564706,9.41176471 L158.658824,9.57647059 C159.294118,8.42352941 160,7.45882353 160.752941,6.70588235 C163.835294,3.62352941 169.505882,6.39488462e-14 178.588235,6.39488462e-14 C185.717647,6.39488462e-14 191.647059,2.18823529 196.211765,6.63529412 C196.988235,7.38823529 197.694118,8.25882353 198.352941,9.24705882 L198.352941,9.24705882 L198.4,9.17647059 L198.4,9.12941176 L198.423529,9.15294118 C199.247059,8 200.047059,7.08235294 200.752941,6.35294118 C206.094118,0.894117647 211.976471,6.39488462e-14 217.435294,6.39488462e-14 Z M178.517647,9.71764706 C174.564706,9.71764706 171.011765,11.1529412 168.541176,13.6235294 C168.070588,14.0941176 167.576471,14.6352941 167.105882,15.2941176 L167.105882,15.2941176 L167.129412,15.2941176 C167.129412,15.2941176 165.011765,18.3294118 163.647059,23.8352941 C165.011765,29.3411765 167.129412,32.3764706 167.129412,32.3764706 L167.129412,32.3764706 L167.105882,32.3764706 C167.576471,33.0117647 168.047059,33.5764706 168.541176,34.0470588 C170.988235,36.5176471 174.541176,37.9529412 178.517647,37.9529412 C182.682353,37.9529412 186.305882,36.2352941 188.564706,34.0470588 C189.364706,33.2705882 190.117647,32.2823529 190.752941,31.1058824 C191.341176,30.1176471 192.470588,28.0941176 193.129412,25.3411765 C193.247059,24.8470588 193.364706,24.3529412 193.458824,23.8588235 C193.364706,23.3647059 193.247059,22.8705882 193.129412,22.3764706 C192.470588,19.5764706 191.341176,17.5529412 190.752941,16.5647059 C190.094118,15.3882353 189.341176,14.4 188.564706,13.6235294 C186.305882,11.4352941 182.682353,9.71764706 178.517647,9.71764706 Z M137.576471,9.85882353 L134.705882,9.85882353 L134.705882,37.6470588 L137.576471,37.6470588 C139.764706,37.6470588 144.564706,37.4823529 147.976471,34.6117647 C150.705882,32.3294118 151.952941,28.0941176 152.376471,26.8941176 C152.541176,26.4235294 152.752941,25.7882353 152.964706,25.0117647 L152.964706,25.0117647 L152.752941,23.6 C152.047059,18.8235294 150.447059,15.5764706 148.658824,13.7882353 C145.223529,10.3764706 140.8,9.85882353 137.576471,9.85882353 L137.576471,9.85882353 Z" id="Path"></path>
            </g>
        </g>
    </g>
</svg>