<?xml version="1.0" encoding="UTF-8"?>
<svg width="286px" height="48px" viewBox="0 0 286 48" version="1.1" xmlns="http://www.w3.org/2000/svg" xmlns:xlink="http://www.w3.org/1999/xlink">
    <!-- Generator: Sketch 60.1 (88133) - https://sketch.com -->
    <title>oryx</title>
    <desc>Created with Sketch.</desc>
    <g id="design" stroke="none" stroke-width="1" fill="none" fill-rule="evenodd">
        <g id="main" transform="translate(-2114.000000, -256.000000)" fill="#FFB124" fill-rule="nonzero">
            <g id="oryx" transform="translate(2114.000000, 256.000000)">
                <path d="M16.9025568,37.204898 C4.16234579,18.4805211 5.21795101,10.6966962 6.33363132,8.1463929 C0.165363748,14.7720267 -1.66658082,24.1760951 1.58535437,32.521105 C4.83728955,40.8661149 12.6292197,46.7563669 21.7815126,47.7882414 C21.7815126,44.9347261 19.387091,40.9722027 16.9025568,37.204898" id="Path"></path>
                <path d="M24.502098,38.2568219 C38.6619023,19.860328 41.5741419,9.12274835 42.0011565,7.2185057 C37.3972864,2.59365371 31.0872815,-0.00927526709 24.502098,-2.47038745e-05 C17.9172068,-0.00784529918 11.6077444,2.59485988 7.00303951,7.2185057 C7.43432426,9.12274835 10.3422937,19.860328 24.502098,38.2568219" id="Path"></path>
                <path d="M42.5717862,8.1463929 C43.6745932,10.6634675 44.7259074,18.3102239 32.4105131,36.6067812 L32.3676024,36.669085 C29.7629179,40.5942262 27.1367781,44.7976577 27.1367781,47.7882414 C36.2867952,46.7523491 44.0747449,40.8605457 47.3236798,32.5162815 C50.5726147,24.1720172 48.7393711,14.7703037 42.5717862,8.1463929" id="Path"></path>
                <path d="M77.428528,30.2724611 C76.3366479,31.5606958 74.642944,32.202742 72.3517152,32.202742 C70.0604863,32.202742 68.3667825,31.5606958 67.2749023,30.2724611 C66.1787234,28.9842264 65.6327833,27.0042387 65.6327833,24.3283558 C65.6327833,21.4122233 66.1658272,19.332822 67.2362136,18.0942941 C68.3066001,16.8557662 70.0089014,16.2344312 72.3517152,16.2344312 C74.6945289,16.2344312 76.3968302,16.8557662 77.4672167,18.0942941 C78.5376031,19.332822 79.070647,21.4122233 79.070647,24.3283558 C79.070647,27.0042387 78.5247069,28.9842264 77.428528,30.2724611 L77.428528,30.2724611 Z M60.4012158,24.3283558 C60.4012158,32.397427 64.3818498,36.4361048 72.3517152,36.4361048 C80.3172818,36.4361048 84.3022145,32.397427 84.3022145,24.3283558 C84.3022145,20.0618551 83.3135041,16.9427531 81.3446809,14.9669077 C79.3715588,12.9910622 76.3710378,12.0052106 72.3517152,12.0052106 C68.3280938,12.0052106 65.3318715,12.9910622 63.3587495,14.9669077 C61.3856274,16.9427531 60.4012158,20.0618551 60.4012158,24.3283558 Z" id="Path"></path>
                <path d="M93.1119291,23.7330594 L93.1119291,16.1242397 L98.7065382,16.1242397 C100.051643,16.1242397 101.049763,16.4305796 101.709464,17.0432593 C102.369165,17.655939 102.699016,18.6246353 102.699016,19.9493482 C102.699016,21.2699214 102.330611,22.234478 101.598086,22.8347385 C100.861277,23.434999 99.7946168,23.7330594 98.4023902,23.7330594 L93.1119291,23.7330594 Z M87.9756839,35.6844536 L93.1119291,35.6844536 L93.1119291,27.8520886 L97.1472444,27.8520886 C97.8283645,27.8520886 98.3295661,27.9555818 98.6465653,28.1667079 C98.9635646,28.3736943 99.2505775,28.758689 99.5033202,29.3216919 L102.394868,35.6844536 L107.723883,35.6844536 L104.755227,29.0650288 C104.539739,28.5477106 104.278909,28.0491301 103.97558,27.5747268 C103.712393,27.1992189 103.398309,26.8594963 103.041718,26.5646332 C104.485703,26.12421 105.745436,25.2478175 106.635804,24.0642377 C107.504334,22.859173 107.951612,21.4174109 107.912369,19.9493482 C107.912369,17.4489526 107.235533,15.4991409 105.877576,14.0999129 C104.51962,12.7048246 102.471976,12.0052106 99.7303602,12.0052106 L87.9756839,12.0052106 L87.9756839,35.6844536 Z" id="Path"></path>
                <polygon id="Path" points="116.924498 26.933069 108.109422 12.0052106 113.487822 12.0052106 119.519189 22.7064069 125.546261 12.0052106 130.885998 12.0052106 122.075218 26.933069 122.075218 35.6844536 116.924498 35.6844536"></polygon>
                <polygon id="Path" points="138.016934 23.8075745 129.346374 12.0052106 135.416196 12.0052106 141.107729 19.9120907 146.794963 12.0052106 152.864785 12.0052106 144.198524 23.8075745 153.096917 35.6844536 146.949718 35.6844536 141.107729 27.7775735 135.26574 35.6844536 129.118541 35.6844536"></polygon>
                <path d="M159.507449,33.3418563 C157.631156,31.2831661 156.693009,28.462305 156.693009,24.8834151 C156.693009,20.8115994 157.588318,17.6469329 159.374652,15.3894155 C161.165269,13.1360404 164.009695,12.0052106 167.916497,12.0052106 C170.5296,12.0052106 172.864257,12.3365893 174.916184,12.9993467 L174.916184,14.8012183 C172.7313,14.1050173 170.443955,13.7566743 168.143537,13.7698021 C164.746505,13.7698021 162.330456,14.7225159 160.895392,16.6238011 C159.464611,18.5250864 158.749221,21.2755296 158.749221,24.8834151 C158.749221,31.4322866 161.893511,34.7046512 168.182091,34.7046512 C169.351562,34.7046512 170.516748,34.6093798 171.681935,34.4105526 C172.713031,34.253601 173.722055,33.9825775 174.689144,33.602817 L174.689144,25.1775137 L167.728011,25.1775137 L167.728011,23.5579003 L176.59114,23.5579003 L176.59114,34.630091 C175.777223,35.1478702 174.663442,35.5745202 173.241229,35.9183256 C171.823299,36.262131 170.058385,36.4361048 167.955051,36.4361048 C164.202465,36.4361048 161.383742,35.4046887 159.507449,33.3418563" id="Path"></path>
                <path d="M186.097634,27.115217 L191.356391,13.6238442 L196.653753,27.115217 L186.097634,27.115217 Z M180.765957,35.6844536 L182.936374,35.6844536 L185.642962,28.7711081 L197.14703,28.7711081 L199.853617,35.6844536 L201.98543,35.6844536 L192.728987,12.0052106 L190.061004,12.0052106 L180.765957,35.6844536 Z" id="Path"></path>
                <polygon id="Path" points="205.714286 12.0052106 208.157752 12.0052106 217.042693 29.5452372 225.927634 12.0052106 228.371101 12.0052106 228.371101 35.6844536 226.309829 35.6844536 226.309829 14.9485571 217.880085 31.5654244 216.239656 31.5654244 207.775558 14.9485571 207.775558 35.6844536 205.714286 35.6844536"></polygon>
                <polygon id="Path" points="233.726444 35.6844536 235.866748 35.6844536 235.866748 12.0052106 233.726444 12.0052106"></polygon>
                <polygon id="Path" points="242.042553 12.0052106 244.019745 12.0052106 259.186772 32.666592 259.186772 12.0052106 261.275234 12.0052106 261.275234 35.6844536 259.259526 35.6844536 244.135295 15.05619 244.135295 35.6844536 242.042553 35.6844536"></polygon>
                <path d="M268.492251,33.3418563 C266.615958,31.2831661 265.677812,28.462305 265.677812,24.8834151 C265.677812,20.8115994 266.57312,17.6469329 268.359454,15.3894155 C270.150072,13.1360404 272.994498,12.0052106 276.9013,12.0052106 C279.514402,12.0052106 281.849059,12.3365893 283.900987,12.9993467 L283.900987,14.8012183 C281.716102,14.1050173 279.428758,13.7566743 277.12834,13.7698021 C273.731307,13.7698021 271.315258,14.7225159 269.880194,16.6238011 C268.449413,18.5250864 267.734023,21.2755296 267.734023,24.8834151 C267.734023,31.4322866 270.878313,34.7046512 277.166894,34.7046512 C278.33208,34.7046512 279.501551,34.6093798 280.666737,34.4105526 C281.697833,34.253601 282.706857,33.9825775 283.673947,33.602817 L283.673947,25.1775137 L276.712814,25.1775137 L276.712814,23.5579003 L285.575943,23.5579003 L285.575943,34.630091 C284.762025,35.1478702 283.648244,35.5745202 282.230315,35.9183256 C280.808102,36.262131 279.043187,36.4361048 276.939854,36.4361048 C273.187268,36.4361048 270.368544,35.4046887 268.492251,33.3418563" id="Path"></path>
            </g>
        </g>
    </g>
</svg>