<?xml version="1.0" encoding="UTF-8"?>
<svg width="225px" height="48px" viewBox="0 0 225 48" version="1.1" xmlns="http://www.w3.org/2000/svg" xmlns:xlink="http://www.w3.org/1999/xlink">
    <!-- Generator: Sketch 60.1 (88133) - https://sketch.com -->
    <title>high5_games</title>
    <desc>Created with Sketch.</desc>
    <g id="design" stroke="none" stroke-width="1" fill="none" fill-rule="evenodd">
        <g id="main" transform="translate(-2032.000000, -448.000000)" fill="#FFB124" fill-rule="nonzero">
            <g id="high5_games" transform="translate(2032.000000, 448.000000)">
                <path d="M52.8,0.2 L85.9,0.2 C83.3,6.2 80.7,12.1 78.1,18.1 C82.8,18.5 87.7,20.3 90.9,23.9 C92.9,26.2 93.9,29.3 93.9,32.3 C94,36.7 92.3,41.2 89,44.1 C86.1,46.8 82,48 78,47.9 C74.7,48 71.3,46.7 68.9,44.3 C68,43.5 67.2,42.5 66.5,41.6 L52.7,41.6 L52.7,30.6 L56.2,30.6 L56.2,23.2 L69.1,23.2 C69.2,25.7 69.1,28.1 69.1,30.6 L73.2,30.6 L73.2,11.1 L69.1,11.1 L69.1,19.1 C64.8,19.2 60.5,19.1 56.2,19.1 L56.2,11.1 L52.6,11.1 C52.8,7.6 52.8,3.9 52.8,0.2 L52.8,0.2 Z" id="Path"></path>
                <path d="M104.6,0.3 C111.8,0.2 119,0.3 126.2,0.2 L126.2,11.3 L113.1,11.3 C110.2,11.3 107.4,12.8 105.6,15.1 C103.9,17 103.7,19.8 103.9,22.3 C104.2,25.5 106.4,28.4 109.3,29.8 C110.8,30.4 112.4,30.6 114,30.6 C118.1,30.6 122.2,30.6 126.3,30.7 L126.3,41.7 C119.2,41.8 112,41.7 104.9,41.7 C101.9,41.7 99,41.8 96,41.6 C98.6,38.7 99.6,34.8 99.9,31.1 C100.2,26.6 99.4,21.8 96.5,18.3 C93.7,14.7 89.2,12.7 84.8,12.2 C85.7,10 86.6,7.8 87.4,5.6 L101.8,5.6 C102.8,3.8 103.7,2.1 104.6,0.3 Z" id="Path"></path>
                <polygon id="Path" points="0.2 12.1 3.5 12.1 3.5 19.7 16.7 19.7 16.7 12.1 20 12.1 19.9 30.6 16.7 30.6 16.7 23 3.5 23 3.5 30.6 0.2 30.6"></polygon>
                <polygon id="Path" points="23.6 12.1 26.8 12.1 26.8 30.6 23.6 30.6"></polygon>
                <path d="M32.7,14.5 C34.5,12.8 37.1,12.1 39.6,12.2 L49.9,12.2 L49.8,15.5 L39.5,15.5 C37.8,15.4 35.9,16.1 34.8,17.4 C33.2,19.1 32.9,21.6 33.6,23.8 C34.4,26 36.6,27.4 38.9,27.5 L47.8,27.5 L47.8,23.5 L39,23.5 L39,20.5 L51.1,20.5 L51.1,30.7 L39.2,30.7 C36.9,30.7 34.5,29.9 32.8,28.2 C29.2,24.6 29,18 32.7,14.5 Z" id="Path"></path>
                <path d="M140.1,12.3 C141.3,12.2 142.2,13.1 142.8,14.1 C146.1,19.6 149.3,25.2 152.6,30.7 L148.5,30.7 C147.4,29 146.4,27.3 145.4,25.6 L136.6,25.6 C137.3,24.5 137.9,23.4 138.6,22.4 L143.4,22.4 C142.3,20.7 141.3,19 140.3,17.3 C140,17.5 139.9,17.9 139.6,18.1 C137,22.3 134.5,26.5 131.9,30.7 L127.8,30.7 C131,25.4 134.2,20 137.4,14.7 C138,13.5 138.9,12.4 140.1,12.3 L140.1,12.3 Z" id="Path"></path>
                <path d="M158.4,14.1 C158.6,13.1 159.3,12 160.4,12 C161.5,12 162.1,13.1 162.6,13.9 C164.6,17.9 166.7,21.8 168.6,25.7 C170.3,22.6 171.8,19.4 173.5,16.2 C174.2,14.9 174.7,13.5 175.6,12.4 C176.2,11.6 177.4,11.8 178.1,12.4 C178.8,13.1 178.8,14.1 179.1,14.9 C180.4,20.1 181.6,25.3 182.9,30.5 L179.2,30.5 C178.3,26.2 177.4,22 176.5,17.7 C174.7,21.2 170.2,29.8 170.2,29.8 C169.4,31 167.5,31.1 166.9,29.8 C164.7,25.8 162.6,21.8 160.6,17.7 C159.8,21.4 158,30.2 157.9,30.5 L154.2,30.5 C155.8,25.1 157.1,19.6 158.4,14.1 Z" id="Path"></path>
                <polygon id="Path" points="185.3 12.3 201.3 12.3 201.3 15.5 188.6 15.5 188.6 27.4 201.3 27.4 201.3 30.6 185.3 30.6"></polygon>
                <path d="M207.1,12.6 C208.2,12.3 209.3,12.4 210.4,12.4 L223,12.4 L223,15.6 L209.2,15.6 C208.5,15.6 207,16.2 207,17.3 C206.8,18.4 208,19.3 209,19.3 L218,19.3 C219.9,19.3 221.9,20 223.1,21.5 C224.6,23.7 224.5,27.1 222.5,29.1 C221.3,30.3 219.6,30.7 218,30.7 L203.8,30.7 L203.8,27.5 C203.8,27.5 212.8,27.4 217.4,27.5 C218.8,27.5 220.4,27.2 221.1,25.8 C221.5,25.1 221.3,24.3 220.9,23.7 C220.3,22.8 219.1,22.5 218.1,22.6 L209,22.6 C207.2,22.6 205.3,21.7 204.3,20.2 C203.5,19 203.4,17.5 203.7,16.2 C204,14.3 205.5,13 207.1,12.6 L207.1,12.6 Z" id="Path"></path>
                <path d="M108.8,17.9 C110,16.1 112.2,15.6 114.2,15.6 L126.2,15.6 L126.2,19.5 L113.1,19.5 L113.1,23.6 L123.3,23.6 L123.3,26.7 L114.4,26.7 C112.1,26.7 109.7,25.7 108.5,23.7 C107.7,21.7 107.8,19.5 108.8,17.9 L108.8,17.9 Z" id="Path"></path>
                <polygon id="Path" points="189.9 19.7 200.4 19.7 200.4 22.9 189.9 22.9"></polygon>
            </g>
        </g>
    </g>
</svg>