<?xml version="1.0" encoding="UTF-8"?>
<svg width="126px" height="48px" viewBox="0 0 126 48" version="1.1" xmlns="http://www.w3.org/2000/svg" xmlns:xlink="http://www.w3.org/1999/xlink">
    <!-- Generator: Sketch 60.1 (88133) - https://sketch.com -->
    <title>swintt</title>
    <desc>Created with Sketch.</desc>
    <g id="design" stroke="none" stroke-width="1" fill="none" fill-rule="evenodd">
        <g id="main" transform="translate(-1858.000000, -448.000000)" fill="#FFB124">
            <g id="swintt" transform="translate(1858.000000, 448.000000)">
                <path d="M73.1302337,37.7361185 L71.012515,37.7361185 C71.012515,37.7361185 70.3720144,36.2961736 70.1097142,35.6123235 C69.0035798,32.7185786 67.9157455,29.8188957 66.8228278,26.9211921 C66.751661,26.7321684 66.690661,26.5391861 66.5950942,26.260104 C67.5375451,26.260104 68.5470961,26.1997352 69.4244802,26.2502075 C69.5759637,26.2581247 69.6389971,26.6045032 69.7091471,26.8093614 C70.4187811,28.8787255 71.1060485,30.9560068 71.8014491,33.0293296 C71.8858325,33.2807014 71.9783493,33.5300939 72.1277994,33.9497067 C72.2782662,33.5706697 72.3789163,33.3430495 72.4602497,33.1085018 C73.1851337,31.0015309 73.9151011,28.8955496 74.6206684,26.7826407 C74.7487685,26.3966761 74.7487685,26.2383317 74.8473853,26.2383317 C75.5692193,26.2383317 77.5873045,26.2798971 77.5873045,26.2878143 C77.5873045,26.2977108 78.0193883,27.6040526 78.2430552,28.2621718 C78.8662724,30.0969881 79.473223,31.9377425 80.1269403,33.8923069 C80.2387737,33.6864591 80.3180738,33.5835352 80.3556905,33.4677458 C81.0795578,31.2311303 81.8064752,28.9945149 82.5110258,26.7509718 C82.6289593,26.379852 82.6289593,26.2393213 82.9319262,26.2393213 C83.7544103,26.2393213 84.853428,26.2492178 85.7623289,26.2492178 C85.5589954,26.8034234 85.3963285,27.266581 85.2224784,27.7257799 C84.0482273,30.8352692 82.5120425,34.4118746 81.250358,37.7361185 L79.0370726,37.7361185 C79.0370726,37.7361185 78.5012887,36.4574871 78.2908385,35.8785401 C77.6574546,34.1318028 77.035254,32.3811069 76.4059368,30.63338 C76.35307,30.4869114 76.2788533,30.3473703 76.1487199,30.0613606 C75.2133856,32.6690959 74.0096512,35.2867277 73.129217,37.7361185 L73.1302337,37.7361185 Z M55.0010167,35.2708933 L57.0485853,33.452901 C57.8619194,34.3554644 58.8948537,35.0887972 60.2012716,35.2441727 C60.9302222,35.3302724 61.7211896,35.2520899 62.432857,35.0660351 C63.1445243,34.8789907 63.5735581,34.3020231 63.6223581,33.5409801 C63.6721748,32.785875 63.2665244,32.2524521 62.6097571,31.9684217 C61.7252563,31.5864157 60.7939888,31.3053543 59.8840713,30.9767895 C59.2110373,30.7343246 58.5247866,30.5185803 57.872086,30.2315809 C54.3381494,28.6758466 54.9379833,24.3134569 57.2010854,22.7042813 C59.7895212,20.863527 63.879575,21.3375707 65.9891603,23.8601959 L64.2232087,25.7454845 C63.3956412,24.8587556 62.3952403,24.3005914 61.1864225,24.2402225 C60.6192236,24.2170647 60.0523297,24.2917835 59.5119709,24.4609151 C58.8308036,24.6736905 58.3753365,25.1635687 58.2899364,25.9018497 C58.202503,26.6510169 58.4841199,27.2655913 59.1378372,27.6377008 C59.6970044,27.956369 60.3120883,28.1978443 60.9251389,28.4116093 C61.7791397,28.7104845 62.6687239,28.9163323 63.5176413,29.2270833 C65.1707429,29.8327508 66.366344,30.8313106 66.4761441,32.7027441 C66.6011942,34.8107047 65.7553268,36.3961286 63.8043416,37.3521332 C60.9708889,38.7396265 57.0374019,37.8311252 55,35.2708933 L55.0010167,35.2708933 Z M92.5343519,26.288804 L95.076021,26.288804 L95.076021,27.8128694 C95.2498711,27.6644214 95.3301879,27.6149388 95.3871213,27.548632 C96.6244058,26.1146251 98.2297239,25.7484535 100.027192,26.1284802 C101.763661,26.4946518 102.941978,27.7742729 103.016195,29.6021617 C103.121929,32.232659 103.042628,34.8700839 103.042628,37.6015258 C102.232344,37.6015258 101.435277,37.6232981 100.643293,37.5767844 C100.531459,37.5698569 100.358626,37.2264473 100.355576,37.0374236 C100.335243,35.1214557 100.342359,33.2054878 100.342359,31.2905095 C100.342359,31.1054444 100.346426,30.9193897 100.339309,30.7343246 C100.293559,29.532886 99.7943754,28.7807499 98.8366745,28.4650506 C97.7956069,28.1206514 96.498339,28.43833 95.8985051,29.3636554 C95.5213214,29.943592 95.2478378,30.6808833 95.2132711,31.3607748 C95.121771,33.210436 95.2031044,36.9206446 95.2031044,36.9206446 L95.2031044,37.5461052 L92.5343519,37.5461052 L92.5343519,26.288804 L92.5343519,26.288804 Z M113.999255,36.7336002 C112.606421,37.5777741 111.162753,37.9845214 109.563535,37.5757948 C107.8718,37.1433165 106.823615,35.8409333 106.789049,34.0922167 C106.760582,32.4643367 106.759565,30.8361599 106.787015,29.2082799 C106.794132,28.743143 106.794132,28.6392295 106.766682,28.6392295 L104.587963,28.6392295 C104.34193,28.6392295 103.528596,26.288804 103.528596,26.288804 L106.767699,26.288804 L106.767699,21.7116595 L109.436451,21.7116595 L109.436451,26.2492178 L112.05132,26.2492178 C112.21297,26.2492178 112.21297,26.3382866 112.329887,26.7242512 C112.514921,27.3318981 112.750788,27.9247001 112.998854,28.6392295 L109.562518,28.6392295 L109.562518,31.3330646 C109.545235,31.9921734 109.543201,32.6522718 109.545235,33.3113806 C109.550318,34.8760218 110.650352,35.6796199 112.210937,35.2441727 C112.551521,35.149166 112.871771,34.9898319 113.281488,34.8285185 L113.999255,36.7336002 L113.999255,36.7336002 Z M119.603127,28.6402191 L119.603127,30.4968079 C119.603127,31.4043196 119.599061,32.3118312 119.603127,33.2183533 C119.611261,35.0056663 120.947162,35.8547885 122.655164,35.1580729 C122.86663,35.0719731 123.069964,34.9641009 123.342431,34.8344564 C123.563048,35.4134033 123.799931,36.1328809 123.973781,36.6959934 C124.008348,36.8068345 123.861948,36.8741309 123.735881,36.9434066 C122.33898,37.7301806 120.857695,38.0429109 119.295077,37.4946432 C117.867676,36.9938789 117.005542,35.9705778 116.919125,34.4999537 C116.820508,32.8353576 116.876425,31.1628443 116.861175,29.4932999 C116.859141,29.2310419 116.837791,28.9687839 116.821525,28.649126 C116.175941,28.649126 115.585257,28.6303226 114.997623,28.6560536 C114.626539,28.6728777 114.277822,28.6689191 114.267656,28.6402191 C113.999255,27.8801658 113.866072,26.9657265 113.616988,26.2749488 L116.821525,26.2749488 C116.881508,26.2749488 116.881508,26.1265009 116.871341,25.6752192 C116.844908,24.5005012 116.874391,23.3257833 116.857108,22.1500757 C116.851008,21.7591628 116.821525,21.5740978 116.919125,21.5740978 C117.613509,21.5740978 118.789793,21.6176425 119.603127,21.6176425 L119.603127,23.2436421 C119.603127,24.068023 119.623461,24.8933934 119.594994,25.7177743 C119.580761,26.1383767 119.580761,26.2749488 119.603127,26.2838557 L122.46708,26.2838557 C122.65618,26.3145349 122.493513,26.3145349 123.018114,28.6392295 L119.603127,28.6392295 L119.603127,28.6402191 Z M87.4510138,37.5461052 L90.1197663,37.5461052 L90.1197663,26.288804 L87.4510138,26.288804 L87.4510138,37.5461052 Z M86.9447133,22.7814742 C86.9345467,21.7660904 87.7153474,21.0109853 88.7879317,21.0000991 C89.8655994,20.9902026 90.6484335,21.7225457 90.6545677,22.7498053 C90.6606335,23.7562823 89.8513661,24.5173253 88.7858984,24.5044599 C87.7326307,24.492584 86.95488,23.7641995 86.9447133,22.7824639 M124.881666,26.4491277 C124.264215,26.4491277 123.763331,26.9366015 123.763331,27.5377459 C123.763331,28.1388902 124.264215,28.626364 124.881666,28.626364 C125.499116,28.626364 126,28.1388902 126,27.5377459 C126,26.9366015 125.499116,26.4491277 124.881666,26.4491277 Z M124.881666,26.6470583 C125.386827,26.6470583 125.796666,27.0459247 125.796666,27.5377459 C125.796666,28.029567 125.386827,28.4284334 124.881666,28.4284334 C124.376504,28.4284334 123.966665,28.029567 123.966665,27.5377459 C123.966665,27.0459247 124.376504,26.6470583 124.881666,26.6470583 Z M124.706799,28.1117445 L124.706799,27.6367111 L124.866416,27.6574939 L125.194799,28.1127342 L125.377799,28.1127342 L125.079916,27.6901524 L124.997566,27.6367111 C125.035182,27.6276063 125.071782,27.6136522 125.105332,27.5951457 C125.170399,27.5599141 125.221233,27.5039987 125.248683,27.4368013 C125.262916,27.3990955 125.270033,27.3592125 125.269016,27.3190326 C125.271049,27.2704406 125.258849,27.2223435 125.235466,27.1794915 C125.213099,27.1418847 125.182599,27.1099189 125.144983,27.0864642 C125.105332,27.0621187 125.061616,27.0450967 125.015866,27.0359919 C124.966049,27.0255015 124.914199,27.0201574 124.863366,27.0201574 C124.757632,27.0203554 124.652915,27.0286684 124.548199,27.0448987 L124.548199,28.1117445 L124.706799,28.1117445 L124.706799,28.1117445 Z M124.835916,27.5347769 L124.706799,27.5347769 L124.706799,27.1616778 C124.745432,27.1577192 124.784066,27.1544533 124.822699,27.1517812 L124.822699,27.1527709 L124.867432,27.1527709 C124.943682,27.1527709 125.001632,27.1686053 125.041282,27.2002742 C125.081949,27.2319431 125.102282,27.2764775 125.102282,27.3318981 C125.103299,27.3640618 125.096182,27.3959286 125.081949,27.4249254 C125.068732,27.4500626 125.049416,27.4714391 125.025016,27.4872736 C124.999599,27.5039987 124.971132,27.5160725 124.941649,27.5229011 C124.907082,27.5310162 124.871499,27.5349748 124.835916,27.5347769 L124.835916,27.5347769 Z" id="text"></path>
                <path d="M0,31.9916257 C1.50167022,29.404164 2.98723673,26.8608466 4.45267362,24.3064931 C4.64994397,23.963371 4.84620784,23.7988329 5.27396242,23.8028461 C7.66435569,23.8289314 10.054749,23.8229117 12.4441358,23.8068592 C12.8215663,23.8038493 13.05507,23.9152135 13.2674375,24.2282372 C14.5486883,26.1113957 15.8490623,27.9825148 17.1433973,29.857647 C17.3175186,30.1104738 17.4936528,30.3612941 17.7664093,30.553924 L16.0553909,27.6072877 C13.8985014,23.8831085 11.7476506,20.1559196 9.57667031,16.4387634 C9.36228978,16.0715626 9.33813423,15.8046898 9.56257957,15.4204332 C12.4692978,10.4401462 15.3589058,5.45082972 18.2384491,0.455495548 C18.4296805,0.124412813 18.6319833,-0.000997314048 19.0194786,0 C24.80574,0.0130486202 30.5920015,0.0120453392 36.3782629,0 C36.7577064,0 36.9740999,0.106353755 37.1683508,0.444459457 C40.0811079,5.51804955 43.0119817,10.5806056 45.916687,15.6572075 C46.0304193,15.8558571 46.0263934,16.2310842 45.912661,16.4317404 C44.5897419,18.779719 43.2449821,21.1154575 41.8786837,23.438655 C41.7719966,23.6192456 41.4781041,23.7968264 41.2697624,23.7988329 C38.7958312,23.8229117 36.3219,23.8018428 33.8479687,23.8249182 C33.4111558,23.8289314 33.1716133,23.6724195 32.9391161,23.3282941 C31.6649106,21.4401193 30.3695691,19.5659903 29.07926,17.6878483 C28.9625081,17.5172905 28.8377044,17.3537557 28.6343952,17.2303521 C28.7219591,17.404923 28.8004646,17.5845103 28.8970868,17.7530615 C31.5240032,22.2909016 34.1499132,26.8307482 36.7909203,31.3605619 C36.9821518,31.6876316 36.9942295,31.9123665 36.7969592,32.2494689 C33.8451506,37.3237633 30.9065269,42.405783 27.9811888,47.4953272 C27.7668083,47.8685478 27.5333046,48.0009809 27.1025305,48 C21.3575348,47.9849284 15.6135456,47.9849284 9.86955639,48 C9.41362033,48.0019842 9.16904535,47.8695511 8.9395676,47.4682387 C5.97447346,42.3073611 2.98824321,37.1565164 0,31.9916257 Z" id="symbol"></path>
            </g>
        </g>
    </g>
</svg>