<?xml version="1.0" encoding="UTF-8"?>
<svg width="179px" height="47px" viewBox="0 0 179 47" version="1.1" xmlns="http://www.w3.org/2000/svg" xmlns:xlink="http://www.w3.org/1999/xlink">
    <!-- Generator: Sketch 60.1 (88133) - https://sketch.com -->
    <title>nextgen</title>
    <desc>Created with Sketch.</desc>
    <g id="design" stroke="none" stroke-width="1" fill="none" fill-rule="evenodd">
        <g id="main" transform="translate(-1559.000000, -256.000000)" fill="#FFB124">
            <g id="nextgen" transform="translate(1559.000000, 256.000000)">
                <path d="M31.5667428,42.2617959 L31.5667428,42.2353469 C31.56225,39.6 33.654,37.4392653 36.519,37.4348491 C38.22225,37.4326531 39.2505,37.8808163 40.23825,38.7 L38.9295,40.2516735 C38.199,39.6565714 37.5495,39.3134694 36.45525,39.3149388 C34.941,39.3171429 33.74025,40.6300408 33.7425,42.2052245 L33.7425,42.2324082 C33.7455,43.9266122 34.93725,45.1697143 36.6135,45.1667755 C37.3695,45.1653061 38.04525,44.9786939 38.57175,44.6076735 L38.5695,43.2837551 L36.47475,43.2866939 L36.47175,41.5263673 L40.581,41.5197551 L40.587,45.5444082 C39.615,46.3540408 38.2785,47.0174694 36.549,47.0204154 C33.60225,47.0248163 31.57125,45.0022041 31.5667428,42.2617959" id="Path"></path>
                <path d="M59.64225,42.9472653 L58.38075,39.9438367 L57.12825,42.9509388 L59.64225,42.9472653 Z M57.444,37.4958367 L59.3625,37.492898 L63.43275,46.8205714 L61.257,46.8235102 L60.3885,44.7465306 L56.388,44.7531429 L55.52625,46.8323265 L53.4045,46.836 L57.444,37.4958367 L57.444,37.4958367 Z" id="Path"></path>
                <polyline id="Path" points="76.50375 37.5333061 78.747 37.5296327 81.24 41.4448163 83.721 37.5222857 85.96425 37.5186122 85.97925 46.7867755 83.9115 46.7897143 83.90175 40.7387755 81.24525 44.7017143 81.19125 44.7017143 78.54975 40.7872653 78.55875 46.7977959 76.51875 46.8007347 76.50375 37.5333061"></polyline>
                <polyline id="Path" points="99.9555 37.4973061 102.03675 37.4943673 102.05175 46.7625306 99.96975 46.7647347 99.9555 37.4973061"></polyline>
                <polyline id="Path" points="116.02725 37.4730612 117.9465 37.4701224 122.38875 43.1691429 122.37975 37.4635102 124.434 37.4605714 124.449 46.728 122.6775 46.7309388 118.08675 40.8460408 118.0965 46.737551 116.04225 46.7404898 116.02725 37.4730612"></polyline>
                <path d="M137.918993,42.1001633 L137.918993,42.0737143 C137.9145,39.439102 140.0055,37.2776327 142.87125,37.2732164 C144.5745,37.2710204 145.602,37.7191837 146.58975,38.539102 L145.281,40.0900408 C144.55125,39.4949388 143.901,39.1518367 142.806,39.1533061 C141.29325,39.1555102 140.09175,40.4684082 140.09475,42.0443265 L140.09475,42.0707755 C140.097,43.7649796 141.28875,45.0073469 142.96425,45.0051429 C143.72175,45.0036735 144.39675,44.8177959 144.92325,44.4460408 L144.921,43.1221224 L142.82625,43.1250612 L142.824,41.3647347 L146.93175,41.3588571 L146.9385,45.3835102 C145.9665,46.1924082 144.63,46.8558367 142.89975,46.8587827 C139.95375,46.8631837 137.9235,44.8405714 137.918993,42.1001633" id="Path"></path>
                <polyline id="Path" points="0.04125 27.2953469 0 1.06383673 6.96075 1.05355102 19.84275 17.0720816 19.81725 1.03371429 26.74275 1.02342857 26.784 27.2549388 19.8585 27.2652245 6.97725 11.2466939 7.00275 27.2850612 0.04125 27.2953469"></polyline>
                <polyline id="Path" points="46.8885 6.768 38.613 6.7804898 38.6205 11.1636735 46.434 11.1519184 46.443 16.9273469 38.6295 16.939102 38.637 21.4618776 46.91175 21.4493878 46.92075 27.2248163 31.6845 27.2475918 31.64325 1.01608163 46.8795 0.992571429 46.8885 6.768"></polyline>
                <polyline id="Path" points="92.46225 6.70040816 92.4945 27.1572245 85.53375 27.1675102 85.5015 6.71069388 79.7835 6.7195102 79.7745 0.944816327 98.17125 0.916897959 98.18025 6.69159184 92.46225 6.70040816"></polyline>
                <path d="M114.13575,12.4427755 L127.950813,12.4222041 C127.953,13.8137143 127.89525,15.0773878 127.779,16.2139592 C127.662,17.3512653 127.42725,18.4062857 127.074,19.3812245 C126.579,20.7506939 125.90625,21.9636735 125.055,23.0201633 C124.2045,24.0766531 123.2055,24.9597551 122.05875,25.6687347 C120.9105,26.3777143 119.6505,26.9191837 118.27875,27.2916735 C116.9055,27.664898 115.46175,27.8529796 113.94675,27.8552029 C111.86325,27.8581224 109.962,27.5245714 108.2445,26.8545306 C106.527,26.1852245 105.05175,25.2426122 103.81875,24.0259592 C102.58575,22.8100408 101.62425,21.3509388 100.935,19.6471837 C100.24575,17.9434286 99.89925,16.0596735 99.89623,13.9951837 C99.89325,11.9542041 100.227,10.0807347 100.89975,8.37477551 C101.57175,6.66955102 102.528,5.21265306 103.76925,4.00408163 C105.0105,2.79697959 106.506,1.85510204 108.25725,1.17991837 C110.0085,0.504734694 111.9615,0.165306122 114.11625,0.161615519 C116.91,0.157959184 119.361,0.744979592 121.47075,1.92489796 C123.579,3.10481633 125.2515,4.93420408 126.48675,7.41453061 L119.88525,10.1027755 C119.26725,8.66644898 118.46625,7.63567347 117.483,7.01044898 C116.499,6.38595918 115.38,6.07444898 114.12525,6.07665306 C113.08275,6.07738776 112.137,6.27061224 111.285,6.65485714 C110.433,7.03836735 109.70625,7.58497959 109.10325,8.29322449 C108.501,9.00146939 108.0285,9.85444898 107.68725,10.8521633 C107.34525,11.8498776 107.17575,12.9636735 107.17725,14.1928163 C107.17875,15.3066122 107.32875,16.3381224 107.6265,17.2880816 C107.9235,18.2395102 108.36825,19.0616327 108.9615,19.7566531 C109.55475,20.4516735 110.289,20.9894694 111.1665,21.3707755 C112.0425,21.7528163 113.061,21.9416327 114.22125,21.9401633 C114.90825,21.9394286 115.5705,21.8630204 116.2095,21.7109388 C116.8485,21.5595918 117.42225,21.3156735 117.9315,20.978449 C118.43925,20.6412245 118.85925,20.2062857 119.19,19.6714286 C119.52075,19.1380408 119.74425,18.4878367 119.862,17.7222857 L114.144,17.731102 L114.13575,12.4427755" id="Path"></path>
                <polyline id="Path" points="146.87025 6.61812245 138.5955 6.63061224 138.60225 11.0137959 146.41575 11.0020408 146.42475 16.7774694 138.61125 16.7892245 138.61875 21.312 146.89425 21.2995102 146.90325 27.0749388 131.667 27.0977143 131.62575 0.866204082 146.862 0.842693878 146.87025 6.61812245"></polyline>
                <polyline id="Path" points="151.91025 27.0668571 151.86825 0.835346939 158.82975 0.825061224 171.711 16.8435918 171.6855 0.80522449 178.611 0.794938776 178.65225 27.026449 171.7275 27.0367347 158.8455 11.0182041 158.871 27.0565714 151.91025 27.0668571"></polyline>
                <path d="M69.4035,14.6079184 L78.40275,27.1785306 L69.867,27.1910204 L65.4315,20.1364898 M58.91775,11.2628571 L51.7905,0.840489796 L60.43275,0.827265306 L63.01425,5.64244898" id="Path"></path>
                <polyline id="Path" points="58.161 27.2093878 49.6965 27.2218776 68.58375 0.81477551 77.22525 0.80155102 58.161 27.2093878"></polyline>
            </g>
        </g>
    </g>
</svg>