<?xml version="1.0" encoding="utf-8"?>
<!-- Generator: Adobe Illustrator 24.3.0, SVG Export Plug-In . SVG Version: 6.00 Build 0)  -->
<svg version="1.1" id="Шар_1" xmlns="http://www.w3.org/2000/svg" xmlns:xlink="http://www.w3.org/1999/xlink" x="0px" y="0px"
	 viewBox="0 0 595.3 139.7" style="enable-background:new 0 0 595.3 139.7;" xml:space="preserve">
<style type="text/css">
	.st0{fill:#FFB123;}
</style>
<path id="Shape" class="st0" d="M19.5,93.1c6.2,0,12.4,0,18.6,0c1,0,2.6,0,3.6,0.5c1.6,1,3.1,3.1,2.6,4.7
	c-2.1,10.4-4.7,20.7-6.7,30.6c-1,3.6-4.1,5.7-7.8,5.7c-6.7,0-12.9,0-19.7,0c-2.6,0-4.7-1.6-4.7-4.1V130c0-1.6,0.5-3.6,1-5.2
	c2.1-8.3,3.6-17.1,5.7-25.4C12.2,95.7,15.9,93.1,19.5,93.1 M539.4,9.8c2.6-0.5,5.2-0.5,7.8-0.5c12.9,0,26.4,0,39.4,0
	c1,0,2.6,1,3.1,2.1c0,0.5,0,1.6,0,2.1c-5.7,24.9-11.4,50.2-17.1,75.1c-0.5,2.1-2.6,4.1-4.7,3.6c-2.6,0-5.2,0-7.8,0
	c-1.6,0-3.1-1.6-2.6-3.6c2.1-7.8,3.6-16.1,5.7-23.8c0.5-1.6,0.5-2.6-0.5-4.1c-0.5-1-2.1-1-3.1-1c-5.7,0-10.9,0-16.6,0
	c-2.1,0-3.6-2.6-2.6-4.7c2.1-4.7,5.7-8.8,10.4-11.4c4.1-2.1,9.3-2.6,14-2.6c2.1,0,3.6-1.6,4.1-3.1c1-5.2,2.6-9.8,3.1-15
	c0.5-2.1-1.6-3.6-3.1-3.6c-7.2,0-14.5,0-21.2,0c-2.1,0-3.6,1-4.7,2.6c-0.5,0.5-0.5,1.6-1,2.6c-4.7,20.7-9.3,41.4-14,62.1
	c0,1.6-1,3.1-2.6,4.1c-1,0.5-2.1,1-3.6,0.5c-4.1,0-8.8,0-12.9,0c-1.6,0-3.1-1.6-3.1-3.1c0-0.5,0-1,0.5-1.6
	c4.1-17.6,8.3-35.2,11.9-52.3c1-5.2,2.1-10.4,4.7-14.5C525.9,14.4,532.6,10.3,539.4,9.8 M467.4,20.1c-1.6,0.5-3.1,1.6-3.6,3.6
	c-3.6,16.1-7.2,32.1-10.9,48.2c-0.5,2.6-1.6,4.7-1.6,7.2c0,1.6,1.6,2.6,3.1,2.6c6.7,0,13.5,0,20.7,0c1,0,1.6,0,2.6,0
	c1.6-0.5,3.1-2.1,3.6-3.6c1-4.7,2.1-9.3,3.1-14c0.5-1.6-0.5-3.6-2.6-3.6c-5.7,0-11.9,0-17.6,0c-1.6,0-3.6-1.6-3.1-3.1
	c0.5-2.6,2.1-5.2,4.1-7.2c4.1-4.7,10.4-7.2,16.6-7.8c2.1,0,4.7,0,6.7-1c1-0.5,1.6-1.6,2.1-2.6c0-4.7,1-8.8,2.1-12.9
	c0-1.6,0.5-3.1,0-4.1c-1-1.6-2.6-1.6-4.1-1.6C481.4,20.1,474.6,20.1,467.4,20.1 M460.1,9.8c3.6-0.5,7.2-0.5,10.9-0.5
	c12.4,0,24.9,0,36.8,0c1.6,0,3.1,1.6,3.1,3.1c0,0.5-0.5,1.6-0.5,2.1c-1.6,6.2-2.6,11.9-4.1,18.1c-0.5,3.1-1.6,6.2-3.1,8.8
	c-1.6,4.1-5.7,7.2-9.8,9.3c3.1,2.6,5.2,6.2,5.7,10.4c0.5,2.6-0.5,5.2-0.5,7.8c-1,5.2-2.1,9.8-4.7,14.5c-3.6,6.2-10.4,9.8-17.6,9.8
	c-15,0-30.6,0-45.6,0c-1.6,0-2.6-1-3.1-2.6c0-1,0.5-2.1,0.5-3.1c4.1-17.6,8.3-35.2,11.9-53.3c1-3.1,1-6.7,2.6-9.8
	c1.6-4.1,4.1-7.8,7.8-10.4C452.9,11.8,456.5,10.3,460.1,9.8 M381.4,9.8c2.6-0.5,5.2-0.5,7.8-0.5c12.9,0,26.4,0,39.4,0
	c1.6,0,2.6,0.5,3.1,2.1c0.5,0.5,0,1.6,0,2.1c-5.7,24.3-10.9,48.7-16.6,73c-0.5,2.1-0.5,4.1-2.6,5.7c-1,1-3.1,1-4.7,1
	c-2.1,0-4.1,0-6.7,0c-1.6-0.5-2.6-2.1-2.1-3.6c4.7-20.7,9.8-41.9,14.5-62.7c0.5-1.6,0.5-2.6,0.5-4.1c0-0.5-0.5-1.6-1-2.1
	c-2.1-1-5.7,0-6.2,2.6c-2.6,10.9-5.2,22.3-7.8,33.1c-0.5,2.6-3.1,3.6-5.7,3.6c-2.1,0-4.7,0-6.7,0c-1.6,0-3.1-2.1-2.6-3.6
	c2.6-10.9,4.7-21.7,7.2-32.6c0.5-1,0-2.6-1-3.1c-2.1-1-4.7-0.5-5.7,1.6c-0.5,1-1,2.6-1,3.6c-4.7,20.7-9.3,41.9-14.5,62.7
	c-0.5,2.1-2.6,4.1-4.7,4.1c-4.7,0-9.3,0-14,0c-1.6,0-3.1-2.1-2.6-3.6c4.7-20.7,9.3-41.4,14-62.1c1.6-5.2,4.1-9.8,8.8-13.5
	C374.2,11.3,377.8,10.3,381.4,9.8 M302.7,9.3c3.1-0.5,6.7,0,9.8,0c12.4,0,24.3,0,36.8,0c1,0,2.6,1,3.1,2.1c0.5,1.6,0,3.1-0.5,4.7
	c-5.2,24.3-10.9,48.2-16.6,72c-0.5,2.1-2.1,4.1-4.1,4.7c-2.6,0-5.7,0-8.3,0c-2.1,0-3.1-2.1-2.6-3.6c1.6-6.7,3.1-14,4.7-20.7
	c0.5-1.6,1-3.6,1-5.7c0-1.6-1.6-2.6-3.1-2.6c-5.7,0-11.4,0-17.1,0c-2.1,0-3.1-2.6-2.6-4.1c2.6-6.2,7.8-10.9,14-12.9
	c3.6-1,7.2-1,10.9-1c2.1,0,3.6-1.6,4.1-3.1c1-5.2,2.6-9.8,3.1-15c0.5-1.6-1-3.6-3.1-3.6c-7.2,0-14.5,0-21.7,0
	c-2.1,0-4.7,1.6-5.2,3.6c-5.7,21.7-10.4,43-15.5,64.7c-0.5,2.1-2.6,4.1-4.7,4.1c-4.7,0-9.3,0-14,0c-2.1,0-3.6-2.1-3.1-3.6
	c4.1-19.7,8.8-38.8,13.5-58c0.5-2.6,1-5.7,2.6-8.3c1.6-3.6,4.1-6.7,7.2-8.8C295,11.3,298.6,9.8,302.7,9.3 M237.5,9.3
	c1,0,1.6,0,2.6,0c4.1,0,8.3,0,12.4,0c1.6,0,3.6,1.6,3.1,3.6c-4.1,18.6-8.3,37.3-12.4,55.9c-0.5,1-0.5,2.6,0,4.1c0.5,1,1,1.6,2.6,1.6
	c5.7,0,11.4,0,17.1,0c2.1,0,4.1,2.1,3.1,4.1c-1.6,4.1-4.1,7.8-7.8,9.8c-3.6,2.6-8.8,4.1-13.5,4.1c-8.3,0-16.6,0-24.3,0
	c-2.1,0-3.6-1.6-3.1-3.6c5.7-25.4,11.9-50.7,17.1-76.1C234.4,11.3,235.9,9.8,237.5,9.3 M170.2,9.8c2.1-0.5,4.7-0.5,6.7-0.5
	c13.5,0,27.4,0,40.9,0c1.6,0,2.6,1,3.1,2.6c0,1,0,2.1-0.5,3.1c-5.2,23.8-10.9,47.6-16.1,71.5c-0.5,1.6-0.5,3.1-1.6,4.7
	c-1,1-2.6,1.6-3.6,1.6c-2.6,0-5.2,0-7.8,0c-1.6,0-3.1-2.1-2.6-3.6c2.1-8.3,3.6-16.1,5.7-24.3c0.5-2.1-0.5-4.1-2.6-4.1
	c-5.7,0-11.9,0-17.6,0c-2.1,0-3.1-2.6-2.6-4.1c1.6-3.6,4.1-7.2,7.8-9.8c3.1-2.1,6.2-3.6,9.8-4.1c2.6-0.5,4.7-0.5,7.2-0.5
	c2.1,0,3.6-1.6,4.1-3.1c0-4.7,1-9.3,2.1-14c0-1,0.5-2.1,0-3.1s-2.1-1.6-3.6-1.6c-7.2,0-14.5,0-21.2,0c-2.1,0-4.1,2.1-4.7,4.1
	c-4.7,21.7-9.8,43-14.5,64.2c-0.5,2.1-2.6,4.1-4.7,4.1c-4.7,0-9.3,0-14,0c-1.6,0-3.1-1.6-2.6-3.6c4.1-19.7,8.8-39.4,13.5-58.5
	c0.5-2.6,1-5.7,2.6-7.8c1.6-3.1,3.1-5.7,5.7-7.8C161.9,11.8,166,10.3,170.2,9.8 M114.2,9.3c0.5,0,1.6,0,2.1,0c6.7,0,13.5,0,20.2,0
	c2.6,0,4.7,2.1,4.7,4.7c0,0.5-0.5,1.6-0.5,2.1c-2.1,8.8-3.6,17.1-5.7,25.9c-1,5.2-4.1,9.8-7.8,12.9c-5.7,4.7-12.4,7.8-19.7,10.4
	c-5.7,1.6-11.4,3.1-17.6,4.1c-0.5,0-1,0.5-1.6,0.5c-0.5,0.5,0,1,0.5,1c1.6,0.5,3.1,0.5,5.2,0.5c5.2,1,10.4,2.6,15,5.2
	c2.6,1.6,5.2,3.1,7.2,5.7c3.6,4.1,5.7,9.8,5.2,15.5c-1.6,10.4-4.1,20.2-6.7,30.6c-0.5,2.6-2.6,4.7-4.7,5.7c-1.6,0.5-3.1,0.5-4.7,0.5
	c-6.2,0-11.9,0-18.1,0c-2.6,0-5.2-2.6-4.7-5.2c1.6-6.7,3.1-13.5,4.7-20.2c0.5-3.6,1.6-7.2,1-11.4c-0.5-3.1-1.6-6.7-4.1-9.3
	c-3.1-2.6-6.7-4.7-10.9-5.7c-3.6-1-7.8-1.6-11.4-3.1c-1.6-0.5-3.1-1.6-4.1-3.1c-2.1-3.1-2.1-7.2-0.5-9.8c1-1.6,2.6-2.6,4.1-3.6
	c3.1-1.6,6.2-1.6,9.8-2.6c6.7-1,12.9-2.1,19.2-4.7c4.1-2.1,7.8-4.1,10.4-8.3c1-1,1.6-2.6,1.6-4.1c2.1-8.8,4.1-18.6,6.2-28.5
	C109.1,12.4,111.7,10.3,114.2,9.3 M37.1,9.8c1-0.5,2.1-0.5,3.6-0.5c6.2,0,12.4,0,18.6,0c2.6,0,4.7,2.6,4.1,5.2
	c-2.1,10.4-4.7,20.7-6.7,31.1c-1,3.6-4.1,5.7-7.8,5.7c-6.2,0-12.9,0-19.2,0c-1.6,0-3.6-0.5-4.7-2.6c-0.5-1-0.5-2.6-0.5-3.6
	c2.1-9.3,4.1-19.2,6.2-28.5c0-1,0.5-2.1,1-2.6C32.9,11.8,35,10.3,37.1,9.8"/>
<path id="Shape_1_" class="st0" d="M451.9,105c6.7,0,13.5,0,20.2,0c-0.5,1.6-0.5,3.1-1,4.7c-4.7,0-9.8,0-14.5,0
	c-0.5,2.6-1,5.2-1.6,7.2c4.7,0,9.3,0,14,0c-0.5,1.6-0.5,3.1-1,4.7c-4.7,0-9.3,0-14,0c-0.5,2.6-1,5.2-1.6,7.8c5.2,0,9.8,0,15,0
	c-0.5,1.6-0.5,3.1-1,4.7c-6.7,0-13.5,0-20.2,0C447.7,124.7,449.8,114.9,451.9,105 M337.4,134.6c2.1-9.8,4.1-19.7,5.7-29.5
	c2.1,0,3.6,0,5.7,0c2.1,7.2,3.6,15,5.7,22.3c4.7-7.2,9.3-15,14-22.3c2.1,0,3.6,0,5.7,0c-2.1,9.8-4.1,19.7-5.7,29.5
	c-1.6,0-3.1,0-5.2,0c1.6-6.7,2.6-13.5,4.1-20.7c-4.1,6.7-7.8,13.5-11.9,20.7c-1.6,0-3.1,0-4.7,0c-1.6-6.7-2.6-13.5-4.1-20.7
	c-1.6,6.7-2.6,13.5-4.1,20.7C340.5,134.6,339,134.6,337.4,134.6 M231.3,134.6c6.2-9.8,12.4-19.7,18.1-29.5c2.1,0,4.1,0,5.7,0
	c2.1,9.8,4.7,19.7,6.7,29.5c-2.1,0-3.6,0-5.7,0c-0.5-2.6-1-5.2-1.6-7.8c-3.1,0-6.7,0-9.8,0c1-1.6,2.1-3.1,2.6-4.7c2.1,0,4.1,0,6.2,0
	c-1-3.6-1.6-7.2-2.6-10.9c-1.6,2.1-2.6,4.7-4.1,6.7c-3.6,5.7-6.7,11.4-10.4,17.1C234.9,134.6,232.8,134.6,231.3,134.6 M550.8,106.6
	c5.7-2.6,12.4-2.1,18.1-0.5c-0.5,1.6-0.5,3.1-1,5.2c-4.1-1.6-9.3-2.1-14-1c-2.1,0.5-3.6,2.1-3.6,4.1c0,1,0.5,2.1,1.6,2.6
	c3.1,0.5,6.2,0,9.3,0.5c1.6,0.5,3.1,1,4.1,2.6c1,1,1,3.1,1,4.1c-0.5,2.6-1,5.2-3.1,6.7c-2.1,2.1-4.7,3.1-7.8,3.1
	c-4.7,0.5-8.8,0-13.5-1c0.5-1.6,0.5-3.1,1-5.2c3.1,1,6.7,1.6,10.4,1.6c1.6,0,3.1,0,4.7-1c1.6-1,2.6-2.6,2.6-4.1c0-1-0.5-2.1-1.6-2.1
	c-3.1-0.5-6.7,0-9.8-0.5c-2.1-0.5-3.6-1.6-4.1-3.6C544.5,113.9,546.6,108.7,550.8,106.6 M149.5,105c4.1-0.5,8.8-0.5,12.9,1
	c-0.5,1.6-0.5,3.1-1,4.7c-3.6-1.6-7.8-2.1-11.9-1c-2.1,0.5-4.1,1.6-5.7,3.1c-2.6,2.6-3.1,6.7-3.1,10.4c0,2.1,1,4.1,2.6,5.7
	c2.6,1.6,5.7,1.6,8.8,1c0.5-3.1,1-5.7,1.6-8.8c2.1,0,3.6,0,5.7,0c-1,4.1-1.6,8.3-2.6,12.4c-5.2,1.6-10.9,2.1-16.1,0.5
	c-4.1-1-6.2-5.2-6.2-9.3c0-4.7,1-9.8,4.1-13.5C141.7,107.6,145.3,106.1,149.5,105 M35.5,59.5c3.6-0.5,7.8,0.5,10.4,3.1
	c2.1,2.1,3.6,5.2,3.6,7.8c0,3.6-1.6,7.2-4.1,9.8c-1.6,1.6-4.1,2.6-6.2,3.1c-4.7,0.5-9.8-1.6-11.9-5.7c-1.6-2.6-2.1-5.7-1.6-8.8
	C26.2,64.1,30.4,60.5,35.5,59.5"/>
</svg>
