<?xml version="1.0" encoding="utf-8"?>
<!-- Generator: Adobe Illustrator 24.2.3, SVG Export Plug-In . SVG Version: 6.00 Build 0)  -->
<svg version="1.1" id="Шар_1" xmlns="http://www.w3.org/2000/svg" xmlns:xlink="http://www.w3.org/1999/xlink" x="0px" y="0px"
	 viewBox="0 0 250.1 119" style="enable-background:new 0 0 250.1 119;" xml:space="preserve">
<style type="text/css">
	.st0{fill-rule:evenodd;clip-rule:evenodd;fill:#FFB124;}
	.st1{fill:#FFB124;}
</style>
<g id="Page-1_1_">
	<g id="Artboard_1_" transform="translate(-702.000000, -688.000000)">
		<g id="igrosoft" transform="translate(702.000000, 688.000000)">
			<path id="Path" class="st0" d="M4.2,53.5c6.2-29,57.5-51.8,119.5-51.8c66.1,0,120.1,25.9,120.1,57.7c0,3.7-0.8,7.5-2.2,10.9l0,0
				c0.4-1.9,0.6-3.9,0.6-5.9c0.1-31.8-54-57.7-120.1-57.7C63.7,6.8,14.9,27,4.2,53.5L4.2,53.5z"/>
			<path id="Path_1_" class="st0" d="M245.3,65.5c-6.2,29-57.6,51.8-119.5,51.8C59.6,117.3,5.6,91.6,5.6,59.6c0-3.8,0.7-7.5,2.2-11
				l0,0c-0.4,1.9-0.6,3.9-0.6,5.9c0,31.8,54,57.7,120.1,57.7c58.6,0,107.2-20.1,117.9-46.8V65.5z"/>
			<path id="Path_2_" class="st1" d="M21.1,76.3v-1.1h1.5c1.1,0.1,2.3-0.2,3.2-0.9c0.8-1.1,1.4-2.5,1.6-3.9l6.4-28.9
				c0-0.5,0.2-1,0.3-1.5c0.1-0.5,0-0.9,0-1.3c0.2-0.6,0.1-1.3-0.3-1.8c-0.6-0.4-1.2-0.5-1.9-0.5h-2l0.2-1.1h21.8l-0.2,1.1h-1.4
				c-1.1-0.1-2.3,0.2-3.2,0.9c-0.8,1.1-1.4,2.5-1.6,3.9l-6.3,29.2c0,0.5-0.2,1.1-0.3,1.5c-0.1,0.5,0,0.9,0,1.2
				c-0.1,0.6,0.2,1.2,0.6,1.6c0.6,0.4,1.3,0.5,2,0.5h1.7L43,76.3H21.1z"/>
			<path id="Shape" class="st1" d="M77.4,49.2l-6.1,25.4c-0.6,2.4-1.3,4.9-2.1,7.2c-0.5,1.4-1.1,2.7-2,3.9c-1.1,1.6-2.6,2.8-4.4,3.7
				c-1.8,0.9-3.8,1.3-5.8,1.3c-2.2,0.1-4.3-0.5-6.1-1.8c-1.5-1.3-2.3-3.1-2.1-5.1c-0.1-1.2,0.3-2.3,1-3.3c0.6-0.8,1.6-1.2,2.6-1.2
				c1,0,2,0.5,2.6,1.2c0.7,0.9,1,2,0.9,3.1c0.1,1.1-0.3,2.1-0.9,3c-0.5,0.7-1.3,1.2-2.1,1.2h-0.6h-0.5c0.2,0.6,0.7,1.2,1.3,1.5
				c0.7,0.4,1.4,0.5,2.2,0.5c2.7,0,5-4.4,7.1-13.3c0.4-1.6,0.7-2.8,0.9-3.9l0.8-3.5c-0.9,2.3-2.3,4.3-3.9,6.1
				c-1.2,1.2-2.7,1.9-4.4,1.9c-2,0-3.8-1.1-4.8-2.9c-1.3-2.2-1.9-4.7-1.8-7.2c0-2.7,0.4-5.3,1.3-7.8c0.8-2.4,2.2-4.6,3.9-6.4
				c1.1-1.2,2.4-2.3,3.9-3c1.2-0.7,2.5-1,3.9-1.1c1.4-0.1,2.7,0.5,3.5,1.7c0.9,1.4,1.4,3.1,1.3,4.8l1.5-5.9L77.4,49.2z M61.8,54.8
				l-3.9,16.3c-0.1,0.4-0.2,0.8-0.3,1.2c0,0.3,0,0.5,0,0.8c0,0.4,0.1,0.7,0.3,1c0.2,0.3,0.5,0.4,0.8,0.4c0.5,0,1-0.4,1.7-1.1
				c0.8-0.9,1.4-1.9,2-3c1.3-2.5,2.3-5.1,3-7.8c0.7-2.3,1.1-4.8,1.2-7.2c0-1.2-0.1-2.3-0.5-3.4c-0.4-0.9-0.8-1.3-1.4-1.3
				c-0.6,0-1.2,0.4-1.5,1C62.6,52.6,62.1,53.7,61.8,54.8L61.8,54.8z"/>
			<path id="Path_3_" class="st1" d="M78.8,76.3l5.3-22.2v-0.7c0-0.2,0-0.5,0-0.7c0-0.3,0-0.7-0.2-0.9c-0.1-0.2-0.3-0.3-0.6-0.3
				c-0.5,0-1.2,0.9-2,2.6c-1,2.1-1.8,4.3-2.5,6.6l-0.5-0.3c0.8-3.2,2.1-6.2,3.9-9c1-1.6,2.8-2.7,4.7-2.7c1.4-0.1,2.7,0.5,3.5,1.7
				c0.9,1.4,1.3,3.1,1.2,4.8c0,0.6,0,1.4,0,2.4c0,1-0.2,2.2-0.4,3.7c1-3.6,2.4-7,4.1-10.3c0.8-1.4,2.3-2.2,3.9-2.3
				c1.2,0,2.2,0.5,2.8,1.5c0.8,1.2,1.1,2.7,1,4.1c-0.1,1.5-0.5,2.9-1.4,4.2c-0.5,1-1.6,1.6-2.7,1.6c-1,0-2-0.5-2.5-1.4
				c-1-1.8-1.2-3.8-0.7-5.8c0.2-0.7,0.4-1.3,0.8-1.8l0,0c-0.9,0-2.2,2.4-3.9,7.3c-2.1,5.9-3.7,11.9-4.9,18H78.8z"/>
			<path id="Shape_1_" class="st1" d="M117.4,48.6c3.2-0.1,6.2,1.2,8.4,3.6c2.2,2.5,3.4,5.7,3.4,9.1c0.1,4.1-1.5,8-4.2,11
				c-2.5,3-6.2,4.7-10.1,4.7c-3.2,0.1-6.2-1.2-8.3-3.6c-2.2-2.6-3.4-5.8-3.2-9.2c-0.1-4.1,1.4-8,4.1-11
				C109.9,50.3,113.5,48.6,117.4,48.6z M120.6,55c0-0.8,0.3-1.4,0.3-1.7c0-0.3,0-0.6,0-0.9c0-0.7-0.2-1.4-0.6-2
				c-0.4-0.5-1-0.7-1.6-0.7c-0.8,0-1.5,0.4-1.9,1c-0.6,1-1.1,2.1-1.3,3.2l-3.9,16.7c0,0.2,0,0.3,0,0.5c-0.2,0.7-0.3,1.4-0.4,2.1
				c0,0.7,0.2,1.4,0.6,2c0.4,0.5,1,0.7,1.7,0.7c0.8,0,1.5-0.4,2-1c0.6-1,1.1-2.1,1.3-3.2L120.6,55z"/>
			<path id="Path_4_" class="st1" d="M133.9,72.9c0.5,1,1.4,1.7,2.5,2.1c1.4,0.6,2.9,1,4.4,0.9c1.2,0.1,2.4-0.3,3.4-1.1
				c0.8-0.8,1.2-2,1.1-3.1c0-1.8-1.3-3.4-3.9-4.9l-2.1-1.2c-1.7-0.9-3.1-2.1-4.3-3.6c-0.8-1.2-1.2-2.5-1.2-3.9
				c-0.1-2.6,1.1-5.1,3-6.8c2.2-1.8,5-2.8,7.9-2.7c2.5-0.1,4.9,0.6,6.9,2.1c1.7,1.1,2.7,3,2.7,5.1c0.1,0.9-0.2,1.8-0.8,2.5
				c-0.6,0.6-1.4,0.9-2.2,0.9c-1.1,0-2.1-0.4-2.8-1.1c-0.7-0.8-1.1-1.8-1.1-2.8c-0.1-0.9,0.2-1.8,0.7-2.5c0.5-0.6,1.2-1,2-0.9h0.6
				h0.7c-0.6-0.8-1.3-1.3-2.2-1.6c-1.1-0.4-2.3-0.7-3.4-0.7c-1.2-0.1-2.4,0.3-3.2,1.1c-0.8,0.8-1.2,1.9-1.1,3c0,1.8,1.4,3.5,4.2,5.2
				l1.1,0.7c1.7,1,3.2,2.3,4.5,3.9c0.9,1.3,1.3,2.8,1.2,4.3c0.1,2.6-1,5-3,6.7c-4.4,3.3-10.4,3.5-15,0.4c-1.8-1.2-2.8-3.3-2.8-5.4
				c-0.1-1,0.3-2.1,0.9-2.9c0.6-0.7,1.6-1.1,2.5-1c1.1-0.1,2.1,0.3,2.9,1.1s1.1,1.8,1.1,2.9c0.1,1-0.2,2-0.8,2.8
				c-0.5,0.7-1.4,1.1-2.2,1c-0.5,0-1-0.1-1.4-0.3L133.9,72.9z"/>
			<path id="Shape_2_" class="st1" d="M170.2,48.6c3.2-0.1,6.2,1.2,8.4,3.6c2.2,2.5,3.4,5.8,3.3,9.1c0.1,4.1-1.5,8-4.2,11
				c-2.5,3-6.2,4.7-10.1,4.7c-3.2,0.1-6.2-1.2-8.3-3.6c-2.2-2.6-3.3-5.9-3.2-9.3c-0.1-4.1,1.4-8.1,4.3-11.1
				C162.8,50.2,166.4,48.6,170.2,48.6L170.2,48.6z M173.4,55c0-0.8,0.3-1.4,0.3-1.7c0-0.4,0-0.6,0-0.9c0-0.7-0.2-1.4-0.6-2
				c-0.4-0.5-1-0.7-1.6-0.7c-0.8,0-1.5,0.4-1.9,1c-0.6,1-1.1,2.1-1.3,3.2l-3.9,16.7c0,0.2,0,0.3,0,0.5c-0.2,0.7-0.3,1.4-0.4,2.1
				c0,0.7,0.2,1.4,0.6,2c0.4,0.5,1,0.8,1.6,0.7c0.8,0,1.5-0.4,2-1c0.6-1,1.1-2.1,1.3-3.2L173.4,55z"/>
			<path id="Path_5_" class="st1" d="M197.2,50.8c-1.4,8.2-2.7,15.6-3.9,22c-1.2,6.4-2.7,12.4-3.9,17.8h-11.5l0.3-1.1
				c0.8,0,1.4-0.5,1.8-1.2c0.9-1.8,1.5-3.7,1.9-5.7l8.3-31.8h-4.8l0.4-1.7h4.8c1-3.7,2.7-7.2,5.1-10.2c1.6-2.1,4.1-3.4,6.7-3.5
				c1.5,0,2.9,0.6,3.9,1.6c1,1.1,1.6,2.5,1.6,3.9c0.1,1.1-0.3,2.2-0.9,3.1c-0.5,0.8-1.4,1.2-2.3,1.2c-0.9,0-1.8-0.4-2.4-1.1
				c-0.6-0.8-0.9-1.9-0.9-2.9c0-1.1,0.2-2.1,0.8-3c0.4-0.7,1.2-1.2,2-1.2l0,0c-0.2-0.1-0.5-0.1-0.7-0.2c-0.3-0.1-0.7-0.1-1,0
				c-1.1,0-2,0.7-2.6,2.1c-1.2,3.4-2,6.9-2.4,10.5h5.3l-0.4,1.7L197.2,50.8z"/>
			<path id="Path_6_" class="st1" d="M207.9,50.8h-4.2l0.4-1.7h4.2l3.2-13.3h8.5l-3.2,13.3h4.4l-0.4,1.7h-4.3l-4.7,19.7
				c0,0.6-0.1,1-0.2,1.3c0,0.2,0,0.5,0,0.7c0,0.4,0.1,0.9,0.3,1.2c0.2,0.3,0.5,0.5,0.8,0.5c0.7,0,1.5-0.9,2.5-2.5
				c1.2-2.3,2.1-4.6,2.9-7.1l0.6,0.4c-0.7,3.3-2,6.4-3.9,9.2c-1.3,1.8-3.3,2.8-5.5,2.8c-1.5,0.1-2.9-0.5-3.9-1.6
				c-1-1.3-1.5-2.9-1.4-4.5c0-0.9,0.1-1.8,0.2-2.7c0-1,0.5-2.3,0.9-3.9L207.9,50.8z"/>
			<path id="Shape_3_" class="st1" d="M231.9,3.1c1.9,0,3.7,0.5,5.3,1.4c1.6,0.9,3,2.3,3.9,3.9c0.9,1.7,1.4,3.5,1.4,5.4
				c0,1.9-0.5,3.7-1.4,5.3c-0.9,1.7-2.3,3-3.9,3.9c-3.3,1.9-7.4,1.9-10.8,0c-1.6-0.9-3-2.3-3.9-3.9c-0.9-1.6-1.4-3.5-1.4-5.3
				c0-1.9,0.5-3.8,1.5-5.4c0.9-1.6,2.3-3,3.9-3.9C228.1,3.6,230,3.1,231.9,3.1z M231.9,4.9c-1.6,0-3.1,0.4-4.5,1.2
				C226,6.8,224.8,8,224,9.4c-0.8,1.4-1.2,2.9-1.2,4.5c0,1.6,0.4,3.1,1.2,4.5c0.8,1.4,1.9,2.6,3.4,3.4c1.4,0.8,2.9,1.2,4.5,1.2
				c1.6,0,3.1-0.4,4.5-1.2c1.4-0.8,2.6-1.9,3.4-3.4c0.8-1.4,1.2-2.9,1.2-4.5c0-1.5-0.5-3-1.2-4.4c-0.8-1.4-2-2.6-3.4-3.4
				C234.9,5.4,233.4,4.9,231.9,4.9L231.9,4.9z M227.1,19.9V8.2h3.9c1-0.1,2,0.1,3,0.4c1.2,0.4,2,1.5,2,2.8c0,0.8-0.3,1.6-0.9,2.2
				c-0.6,0.6-1.5,1-2.4,1.1c0.4,0.1,0.7,0.3,1,0.6c0.7,0.7,1.3,1.5,1.8,2.3l1.4,2.3h-2.3l-1-1.9c-0.5-1-1.2-1.9-2-2.7
				c-0.4-0.3-1-0.5-1.5-0.4h-1.1v5H227.1z M229,13.5h2.3c0.8,0.1,1.6-0.1,2.3-0.5c0.4-0.3,0.6-0.8,0.6-1.3c0-0.3-0.1-0.7-0.3-0.9
				c-0.2-0.3-0.5-0.5-0.8-0.6c-0.6-0.2-1.2-0.3-1.9-0.2H229V13.5z"/>
		</g>
	</g>
</g>
</svg>
