<?xml version="1.0" encoding="utf-8"?>
<!-- Generator: Adobe Illustrator 24.2.3, SVG Export Plug-In . SVG Version: 6.00 Build 0)  -->
<svg version="1.1" id="Шар_1" xmlns="http://www.w3.org/2000/svg" xmlns:xlink="http://www.w3.org/1999/xlink" x="0px" y="0px"
	 viewBox="0 0 250.1 80.5" style="enable-background:new 0 0 250.1 80.5;" xml:space="preserve">
<style type="text/css">
	.st0{fill:#FFB124;}
</style>
<g id="__x0023_Layer_x0020_1">
	<path class="st0" d="M89.2,43.7V19.8h13.5c2.1,0,3.7,0.2,4.6,0.7c1.1,0.6,2,1.5,2.5,2.8c0.4,0.9,0.6,1.8,0.6,2.8
		c0,1.2-0.3,2.4-1,3.5c-0.7,1.1-1.5,1.8-2.5,2.2c2.3,1.1,3.5,2.9,3.5,5.6c0,1.6-0.4,2.9-1.1,3.9c-0.6,0.9-1.5,1.5-2.5,1.9
		c-1,0.3-2.5,0.5-4.5,0.5C102.5,43.7,89.2,43.7,89.2,43.7z M94.3,29.6h6.9c0.7,0,1.3,0,1.6-0.1c0.3-0.1,0.7-0.2,1-0.5
		c0.7-0.6,1.1-1.4,1.1-2.4c0-1-0.3-1.7-1-2.1c-0.5-0.3-1.3-0.5-2.5-0.5h-7C94.3,24,94.3,29.6,94.3,29.6z M94.3,39.5h6.9
		c0.7,0,1.3,0,1.6-0.1c0.3-0.1,0.7-0.2,0.9-0.5c0.7-0.6,1.1-1.4,1.1-2.4c0-1-0.3-1.7-1-2.2c-0.5-0.3-1.3-0.5-2.5-0.5h-7
		C94.3,33.8,94.3,39.5,94.3,39.5z M132.2,19.8V24h-6.6c-1.7,0-3,0.1-3.8,0.4c-0.8,0.2-1.4,0.7-2,1.4c-0.4,0.5-0.6,1-0.7,1.4
		c-0.1,0.5-0.2,1.3-0.3,2.5h13.5v4.2h-13.5c0.2,2.1,0.8,3.5,1.8,4.3c1,0.8,2.8,1.2,5.2,1.2h6.4v4.2h-6.6c-1.8,0-3.4-0.1-4.7-0.3
		c-2.1-0.3-3.9-1.3-5.1-2.8c-1.8-2.2-2.7-5.2-2.7-8.9c0-4.2,1.3-7.4,3.8-9.7c0.9-0.8,1.8-1.3,2.8-1.6c1-0.3,2.3-0.5,4-0.5
		C123.6,19.8,132.2,19.8,132.2,19.8z M136,19.8h5.1v13.5c0.1,1.7,0.1,2.8,0.2,3.4c0.2,1.1,0.7,1.8,1.6,2.2c0.9,0.4,2.4,0.6,4.6,0.6
		h4.9v4.2H147c-2.5,0-4.4-0.1-5.6-0.4c-2.6-0.8-4.3-2.4-5-5c-0.3-1-0.4-2.7-0.4-5V19.8z M153.8,43.7l9.9-23.9h5.9l9.9,23.9h-6
		l-2.3-5.5h-9.1l-2.3,5.5C159.8,43.7,153.8,43.7,153.8,43.7z M166.7,25.5l-3.4,8.4h6.8L166.7,25.5z M184.5,24h-7.6v-4.2h20.6V24
		h-7.9v19.7h-5.1V24z M205.2,34.6v9.1h-5.1V19.8h11.7c3.4,0,5.7,0.4,7,1.3c0.9,0.6,1.6,1.3,2.1,2.3c0.5,0.9,0.7,2,0.7,3.1
		c0,2.3-0.6,4-1.7,5.3c-0.7,0.7-1.7,1.3-2.9,1.7c0.9,0.3,1.6,0.7,2.1,1c0.5,0.4,0.9,0.9,1.3,1.7c0.3,0.6,0.5,1.1,0.6,1.6
		c0.1,0.5,0.2,1.3,0.3,2.4c0.1,1.7,0.3,2.9,0.6,3.6h-5.7c-0.2-0.6-0.3-1.7-0.5-3.4c-0.1-1.4-0.4-2.5-0.8-3.2
		c-0.4-0.7-0.9-1.3-1.7-1.7c-0.9-0.5-2.3-0.7-4-0.7H205.2L205.2,34.6z M205.2,30.4h7.1c1.2,0,2-0.2,2.5-0.5c0.8-0.5,1.1-1.5,1.1-2.8
		c0-1.5-0.6-2.4-1.7-2.8c-0.4-0.1-1.1-0.2-2-0.2h-7.1V30.4z M223.5,43.7l9.9-23.9h5.9l9.9,23.9h-6l-2.3-5.5h-9.1l-2.3,5.5H223.5
		L223.5,43.7z M236.3,25.5l-3.4,8.4h6.8L236.3,25.5z M112.9,59.1h11.7v14.2H114c-1.9,0-3.3-0.1-4.4-0.4c-1.1-0.3-2.1-0.8-2.9-1.4
		c-2.5-1.9-3.8-5.3-3.8-10c0-3.1,0.6-5.7,1.8-7.7c0.9-1.5,2.1-2.6,3.6-3.3c1.5-0.7,3.5-1,6-1h10.4v4.2h-9.8c-2.1,0-3.6,0.5-4.6,1.4
		c-1.1,1.1-1.7,3.1-1.7,5.9c0,1.5,0.1,2.8,0.4,4c0.3,1.2,0.7,2.1,1.2,2.6c0.5,0.5,1.1,0.9,1.9,1.2c0.8,0.2,1.8,0.4,2.9,0.4h4.6v-5.7
		h-6.6C112.9,63.3,112.9,59.1,112.9,59.1z M126.7,73.3l9.9-23.9h5.9l9.9,23.9h-6l-2.3-5.5H135l-2.3,5.5
		C132.7,73.3,126.7,73.3,126.7,73.3z M139.5,55.1l-3.4,8.4h6.8L139.5,55.1z M162.3,49.4l6,18.7l6.3-18.7h7.4v23.9h-4.8v-18l-6.3,18
		h-5.2l-5.9-18v18h-4.8V49.4C154.9,49.4,162.3,49.4,162.3,49.4z M204.8,49.4v4.2h-6.6c-1.7,0-3,0.1-3.8,0.4c-0.8,0.2-1.4,0.7-2,1.4
		c-0.4,0.5-0.6,1-0.7,1.4c-0.1,0.5-0.2,1.3-0.3,2.5h13.5v4.2h-13.5c0.2,2.1,0.8,3.5,1.8,4.3c1,0.8,2.8,1.2,5.2,1.2h6.4v4.2h-6.6
		c-1.8,0-3.4-0.1-4.7-0.3c-2.1-0.3-3.9-1.3-5.1-2.8c-1.8-2.2-2.7-5.2-2.7-8.9c0-4.2,1.3-7.4,3.8-9.7c0.9-0.8,1.8-1.3,2.8-1.6
		c1-0.3,2.3-0.5,4-0.5H204.8L204.8,49.4z M208.8,73.3v-4.2h10.9c1.8,0,2.9-0.2,3.5-0.5c0.8-0.5,1.3-1.3,1.3-2.3c0-1.2-0.5-2-1.5-2.6
		c-0.6-0.3-1.5-0.5-2.7-0.5h-4.4c-2.7,0-4.7-0.5-5.9-1.5c-0.7-0.6-1.3-1.4-1.8-2.3c-0.4-0.9-0.6-1.9-0.6-3c0-1.7,0.5-3.2,1.5-4.6
		c1-1.3,2.5-2.1,4.6-2.3c0.7-0.1,1.8-0.1,3.2-0.1h11.9v4.2h-10.7c-1.6,0-2.7,0.1-3.2,0.2c-1.1,0.3-1.6,1.1-1.6,2.5
		c0,1.2,0.4,1.9,1.4,2.3c0.6,0.3,1.6,0.4,3,0.4h3.8c2,0,3.4,0.2,4.4,0.5c1.7,0.6,2.9,1.6,3.5,3c0.5,1.2,0.8,2.4,0.8,3.7
		c0,1.4-0.3,2.7-1,3.9c-0.9,1.6-2.4,2.6-4.2,2.9c-0.9,0.1-2.3,0.2-4.1,0.2H208.8L208.8,73.3z"/>
</g>
<path class="st0" d="M45.7,4.1l-10.3,7.1l-9-8.8c-0.8-0.8-2.2-0.8-3,0L2.2,23.9c-0.8,0.8-0.8,2.2,0,3l9.2,9.2c0,0-5.5,5.3-5.5,17
	C5.8,69,20,73,25.7,73s9.1,0,17.9-8.8c0,10.3-12.7,13.4-12.7,13.4h-4.8l-0.5,0.8v0.6h39v-0.8c0,0,0,0-0.8-0.5
	c-11.6-0.2-16.7-10.3-16.4-13.7c4.1,5.1,8.4,9.2,17.9,9.2c9.4,0,20.1-7.5,20.1-20.7c0-11.3-9.1-22-18.2-30.8
	C56.6,11.6,45.7,4.1,45.7,4.1z M23.3,45.3L4.8,26.7c-0.8-0.8-0.8-2.2,0-3L23.4,5.1c0.8-0.8,2.2-0.8,3,0L45,23.7c0.8,0.8,0.8,2.2,0,3
	L26.3,45.3C25.5,46.2,24.1,46.2,23.3,45.3z"/>
</svg>
