<?xml version="1.0" encoding="utf-8"?>
<!-- Generator: Adobe Illustrator 24.3.0, SVG Export Plug-In . SVG Version: 6.00 Build 0)  -->
<svg version="1.1" id="Шар_1" xmlns="http://www.w3.org/2000/svg" xmlns:xlink="http://www.w3.org/1999/xlink" x="0px" y="0px"
	 viewBox="0 0 163.7 47.9" style="enable-background:new 0 0 163.7 47.9;" xml:space="preserve">
<style type="text/css">
	.st0{fill-rule:evenodd;clip-rule:evenodd;fill:#FFB124;}
</style>
<path class="st0" d="M161.7,1.3H94.5v2.6h2.3v30.8H112v-6.3h-8.6V3.8h58.3V1.3z M2.1,7.5v6.4H7v25.8h6.7V13.8h4.8V7.5H2.1z
	 M74.4,7.5v32.2h15.2v-6.3h-8.6v-6.7h6.8v-6.3h-6.8v-6.7h8.6V7.5H74.4z M157,22.8c1.4-1.6,2.1-3.7,2.1-5.8c0-5.1-4.1-9.3-9.3-9.3
	h-7.3v32.1h7.3c5.6,0,10-4.4,10-10C160,26.9,158.9,24.5,157,22.8z M149.5,13.8c1.7,0,3,1.3,3,3s-1.4,3-3,3h-0.1L149.5,13.8
	L149.5,13.8L149.5,13.8z M153.3,29.8c0,2.1-1.7,3.7-3.7,3.7h-0.3V26h0.3C151.7,26,153.3,27.8,153.3,29.8z M31.8,7.5
	c6.6,0,11.8,5.3,11.8,11.8c0,3.7-1.7,7-4.4,9.1l5.7,11.3h-7.4L33.2,31c-0.6,0.1-1,0.1-1.4,0.1h-0.6v8.6h-6.7V7.5H27H31.8z
	 M31.3,13.8v11v0.1h0.1c3,0,5.6-2.6,5.6-5.6C36.9,16.4,34.3,13.8,31.3,13.8L31.3,13.8z M61.5,31.3c0,1.7-1.4,3-3,3
	c-1.7,0-3.1-1.3-3.1-3V7.5h-6.7v23.4c0,5.3,4.4,9.7,9.7,9.7s9.7-4.4,9.7-9.7V7.5h-6.7L61.5,31.3L61.5,31.3z M136.9,44.3h24.8v2.6
	H94.5v-2.6H115l6.8-31.8h8.1L136.9,44.3z M130.2,44.3l-0.7-3.3h-6.8l-0.9,3.3H130.2z M126.1,24.8l-2.1,9.8h4.1L126.1,24.8z"/>
</svg>
