<?xml version="1.0" encoding="utf-8"?>
<!-- Generator: Adobe Illustrator 24.3.0, SVG Export Plug-In . SVG Version: 6.00 Build 0)  -->
<svg version="1.1" id="Шар_1" xmlns="http://www.w3.org/2000/svg" xmlns:xlink="http://www.w3.org/1999/xlink" x="0px" y="0px"
	 viewBox="0 0 202.5 34.3" style="enable-background:new 0 0 202.5 34.3;" xml:space="preserve">
<style type="text/css">
	.st0{fill:#FFB124;}
</style>
<polygon class="st0" points="2.5,32.1 2.5,2.6 13.5,2.6 20.8,21.5 27.6,2.6 39.7,2.6 39.7,32.1 32.1,32.1 32.1,9.2 24.5,32.1 
	16.6,32.1 9.4,9.1 9.4,32.1 "/>
<polygon class="st0" points="47.8,2.6 47.8,32.1 69.5,32.1 69.5,25.7 56.2,25.7 56.2,19.9 68.1,19.9 68.1,14.2 55.8,14.2 55.8,8 
	69.5,8 69.5,2.6 "/>
<polygon class="st0" points="108.6,2.3 108.6,32.1 116.8,32.1 116.8,19 126.2,32.1 136.7,32.1 124.5,16.1 135.4,2.3 125.7,2.3 
	116.6,14.4 116.6,2.3 "/>
<path class="st0" d="M140.9,2.3v19.6c0,0-0.3,10.2,13,10.2s13-10.2,13-10.2V2.2h-7.6v17.8c0,0,0.1,6.8-5.4,6.8
	c-5.5,0-5.2-7.5-5.2-7.5V2.3C148.7,2.3,140.9,2.3,140.9,2.3z"/>
<path class="st0" d="M97.9,20.1c0,0-0.4-1.7-2.4-2.4c0.8-0.1,5.5-1.7,5.2-7.8s-4.8-7.8-7.9-7.8c-3.1,0-15.8,0-15.8,0v29.9h7.9V20.2
	c0,0,3.7-0.8,4.9,1c1.4,1.8,4.1,10.9,4.1,10.9h8.6L97.9,20.1z M89,14.7c-1.7,0-4.2-0.1-4.2-0.1V7.8h4c0,0,4.1,0.1,4.1,3.1
	C92.9,13.9,90.7,14.7,89,14.7z"/>
<path class="st0" d="M196,20.1c0,0-0.4-1.6-2.4-2.4c0.4-0.1,5.5-1.7,5.2-7.8s-4.8-7.8-7.9-7.8s-15.8,0-15.8,0v29.9h7.9V20.2
	c0,0,3.7-0.8,4.9,1c1.4,1.8,4.1,10.9,4.1,10.9h8.6L196,20.1z M187.1,14.7c-1.7,0-4.2-0.1-4.2-0.1V7.8h4c0,0,4.1,0.1,4.1,3.1
	S188.8,14.7,187.1,14.7z"/>
</svg>
