<?xml version="1.0" encoding="utf-8"?>
<!-- Generator: Adobe Illustrator 24.3.0, SVG Export Plug-In . SVG Version: 6.00 Build 0)  -->
<svg version="1.1" id="Шар_1" xmlns="http://www.w3.org/2000/svg" xmlns:xlink="http://www.w3.org/1999/xlink" x="0px" y="0px"
	 viewBox="0 0 250.1 34.3" style="enable-background:new 0 0 250.1 34.3;" xml:space="preserve">
<style type="text/css">
	.st0{fill:#FFB124;}
</style>
<g>
	<path class="st0" d="M31.6,13.8H16.4v6.8h6c-1.2,2.1-3.4,3.5-6,3.5c-3.8,0-6.8-3.1-6.8-6.8c0-3.8,3.1-6.8,6.8-6.8
		c1,0,2,0.2,2.9,0.6l4-7.7c-2.1-1-4.4-1.6-6.9-1.6C7.8,1.8,0.9,8.7,0.9,17.3s7,15.5,15.5,15.5c8.6,0,15.5-7,15.5-15.5
		C31.9,16.2,31.8,15,31.6,13.8z M128.1,23.4c-3.4,0-6.1-2.7-6.1-6.1c0-3.4,2.7-6.1,6.1-6.1c3.4,0,6.1,2.7,6.1,6.1
		C134.2,20.7,131.4,23.4,128.1,23.4z M128.1,1.8c-8.6,0-15.5,7-15.5,15.5c0,8.6,7,15.5,15.5,15.5c8.6,0,15.5-7,15.5-15.5
		c0-4.1-1.6-8.1-4.5-11C136.1,3.4,132.2,1.8,128.1,1.8z M150.5,2.9h10l6.2,10.1l6.2-10.1h10v28.8h-9.5V17.5l-6.7,10.3h-0.2
		l-6.7-10.3v14.2h-9.4L150.5,2.9L150.5,2.9z M73.2,2.9h10L89.4,13l6.2-10.1h10v28.8H96V17.5l-6.7,10.3h-0.2l-6.7-10.3v14.2h-9.4
		L73.2,2.9L73.2,2.9z M231.1,11.1h-8.4V2.9h26.6v8.1h-8.5v20.7h-9.6L231.1,11.1L231.1,11.1z M207.5,21.1l-2.6-7l-2.6,7H207.5z
		 M200.3,2.9h9.5l12.1,28.7h-10.4l-1.5-3.8h-10l-1.5,3.8h-10.2L200.3,2.9z M53.6,21.1l-2.6-7l-2.6,7H53.6z M46.3,2.9h9.5l12.1,28.7
		H57.5l-1.5-3.8H46l-1.5,3.8H34.4L46.3,2.9z"/>
</g>
</svg>
