<?xml version="1.0" encoding="UTF-8"?>
<svg width="200px" height="48px" viewBox="0 0 200 48" version="1.1" xmlns="http://www.w3.org/2000/svg" xmlns:xlink="http://www.w3.org/1999/xlink">
    <!-- Generator: Sketch 60.1 (88133) - https://sketch.com -->
    <title>booongo</title>
    <desc>Created with Sketch.</desc>
    <g id="design" stroke="none" stroke-width="1" fill="none" fill-rule="evenodd">
        <g id="main" transform="translate(-2246.000000, -64.000000)" fill="#FFB124" fill-rule="nonzero">
            <g id="booongo" transform="translate(2246.000000, 64.000000)">
                <path d="M18.2857143,0.0457142857 C29.8971429,-0.594285714 40.8685714,8.68571429 42.4685714,20.0685714 C43.4742857,26.56 41.9657143,33.5542857 37.76,38.6742857 C33.3714286,44.3428571 26.4228571,48.1371429 19.1542857,47.9542857 C12.3885714,48.32 5.66857143,45.3942857 1.14285714,40.4114286 C0.0457142857,39.2685714 0.594285714,37.0285714 2.19428571,36.6171429 C3.65714286,35.9771429 4.61714286,37.44 5.53142857,38.3085714 C9.69142857,42.3314286 15.7257143,44.1142857 21.3942857,43.2457143 C26.8342857,42.6971429 31.7257143,39.3142857 34.8342857,34.9257143 C37.76,30.8114286 38.7657143,25.4628571 37.8514286,20.5257143 C37.12,15.9085714 34.4228571,11.7485714 30.8114286,8.86857143 C23.7714286,2.88 12.2057143,3.24571429 5.53142857,9.69142857 C4.61714286,10.3771429 3.97714286,11.7485714 2.69714286,11.5657143 C0.868571429,11.6571429 -0.274285714,9.18857143 0.914285714,7.81714286 C5.30285714,2.97142857 11.7485714,7.14706072e-16 18.2857143,0.0457142857 Z" id="Path"></path>
                <path d="M56.64,7.54285714 C57.8742857,7.72571429 58.9257143,8.77714286 58.9257143,10.0571429 C59.0171429,12.6171429 59.0171429,15.1771429 58.88,17.6914286 C60.48,16.0914286 62.5828571,14.8571429 64.9142857,14.8571429 C67.7028571,14.6742857 70.4457143,16.1371429 72.0914286,18.3771429 C74.6971429,21.5771429 75.1085714,26.1485714 73.7828571,29.9428571 C72.5028571,33.4171429 69.2571429,36.5714286 65.3257143,36.48 C62.8571429,36.6171429 60.5714286,35.3828571 58.9257143,33.6457143 C59.1542857,35.2457143 57.8285714,36.8457143 56.1828571,36.7085714 C54.6742857,36.7542857 53.4857143,35.2914286 53.6228571,33.7828571 L53.6228571,10.1028571 C53.5771429,8.54857143 55.1314286,7.31428571 56.64,7.54285714 Z M62.72,19.2914286 C58.0114286,21.3485714 57.8285714,29.0285714 62.0342857,31.7257143 C63.4057143,32.5028571 65.2342857,32.2742857 66.3314286,31.1314286 C68.7542857,28.8914286 69.0742857,25.0057143 67.7485714,22.1257143 C66.9257143,20.2057143 64.8685714,18.4685714 62.72,19.2914286 Z" id="Path"></path>
                <path d="M12.0685714,11.1085714 C12.5257143,8.86857143 16.2285714,9.09714286 16.4571429,11.3371429 C16.5942857,14.0342857 16.5028571,16.6857143 16.4571429,19.3828571 C18.2857143,18.6514286 20.3428571,18.1942857 22.3085714,18.6057143 C26.7428571,19.3828571 30.1714286,23.7714286 29.8971429,28.2514286 C30.0342857,33.2342857 25.5085714,37.76 20.5257143,37.7142857 C18.4228571,37.7142857 16.2742857,37.6685714 14.1714286,37.6228571 C12.6628571,37.6685714 11.3828571,35.7942857 12.1142857,34.4228571 C12.4342857,33.6 13.3028571,33.1428571 14.1257143,33.0971429 C16.5485714,32.9142857 19.0171429,33.0057143 21.44,32.8228571 C24.96,31.8628571 26.1028571,26.7885714 23.4057143,24.3657143 C20.7085714,21.5771429 16.4571429,23.5885714 13.1657143,22.72 C11.9771429,22.1714286 11.7942857,20.7542857 11.84,19.6114286 C12.0228571,16.8228571 11.84,13.9428571 12.0685714,11.1085714 Z" id="Path"></path>
                <path d="M83.84,15.4514286 C85.0742857,15.0857143 86.4,14.7657143 87.6342857,15.0857143 C89.1428571,15.5428571 89.7828571,17.6457143 88.6857143,18.8342857 C87.7257143,20.16 85.8514286,19.3371429 84.6628571,20.2971429 C81.0057143,22.8114286 81.0514286,28.8914286 84.6628571,31.4514286 C85.8971429,32.4114286 87.9542857,31.6342857 88.8228571,33.1885714 C89.92,34.6514286 88.5942857,36.9828571 86.7657143,36.8 C81.1428571,36.8914286 76.48,31.5428571 76.5714286,26.1028571 C76.48,21.44 79.4514286,16.9142857 83.84,15.4514286 L83.84,15.4514286 Z" id="Path"></path>
                <path d="M113.737143,25.5542857 C114.102857,31.4514286 108.8,37.0742857 102.857143,36.7085714 C96.9142857,36.8 92.0228571,30.9485714 92.5714286,25.1428571 C92.8,20.7085714 95.9542857,16.5485714 100.297143,15.3142857 C106.742857,13.2114286 113.92,18.9257143 113.737143,25.5542857 Z M101.668571,19.52 C96.7771429,21.76 96.8685714,30.2628571 101.942857,32.2285714 C105.965714,33.28 108.662857,28.5257143 108.114286,25.0514286 C108.022857,21.8971429 105.097143,18.24 101.668571,19.52 Z" id="Path"></path>
                <path d="M118.445714,15.1314286 C122.514286,14.3085714 126.445714,17.0971429 128.365714,20.5714286 C130.514286,24.64 129.965714,30.1257143 126.674286,33.4628571 C124.708571,35.6571429 121.782857,37.0742857 118.811429,36.7085714 C117.028571,36.4342857 116.434286,33.92 117.668571,32.7314286 C118.674286,31.68 120.365714,32.2742857 121.462857,31.4514286 C125.028571,28.9828571 125.165714,22.9942857 121.691429,20.3885714 C120.685714,19.52 119.222857,19.84 118.08,19.3371429 C116.525714,18.4685714 116.708571,15.7257143 118.445714,15.1314286 L118.445714,15.1314286 Z" id="Path"></path>
                <path d="M133.211429,17.4171429 C133.211429,15.4971429 135.68,14.4457143 137.188571,15.4514286 C137.965714,15.8628571 138.24,16.6857143 138.605714,17.4171429 C140.114286,15.8628571 142.171429,14.7657143 144.411429,14.9028571 C148.251429,14.7657143 151.908571,18.1028571 151.954286,21.9885714 C152,25.92 151.954286,29.8971429 151.954286,33.8285714 C152.137143,35.4285714 150.582857,36.9371429 149.028571,36.7085714 C147.794286,36.6628571 146.651429,35.52 146.651429,34.2857143 C146.605714,30.6285714 146.651429,26.9714286 146.651429,23.2685714 C146.788571,20.8914286 144.457143,18.7885714 142.125714,19.1085714 C140.297143,19.2914286 138.56,20.9371429 138.56,22.8571429 C138.468571,26.6971429 138.605714,30.5371429 138.514286,34.3771429 C138.377143,36.3428571 135.771429,37.4857143 134.217143,36.2971429 C133.257143,35.7028571 133.165714,34.4685714 133.165714,33.4171429 C133.211429,28.0228571 133.12,22.72 133.211429,17.4171429 L133.211429,17.4171429 Z" id="Path"></path>
                <path d="M170.468571,17.6457143 C170.56,15.4971429 173.257143,14.2628571 174.857143,15.68 C175.862857,16.3657143 175.908571,17.6457143 175.862857,18.7428571 C175.817143,24.4114286 175.862857,30.0342857 175.862857,35.7028571 C175.862857,39.0857143 173.531429,42.0114286 170.697143,43.6114286 C165.942857,46.3085714 159.131429,44.8914286 156.251429,40.1371429 C155.337143,38.4 157.165714,36.2514286 159.04,36.8 C160.502857,37.5771429 161.142857,39.36 162.742857,40.0457143 C165.165714,41.28 168.32,40.4114286 169.874286,38.2171429 C170.925714,36.9828571 170.422857,35.2914286 170.56,33.8285714 C168.777143,35.7028571 166.217143,36.8457143 163.611429,36.5714286 C160.091429,36.3885714 157.211429,33.6 155.931429,30.4914286 C153.965714,25.7828571 155.154286,19.7942857 159.222857,16.64 C162.468571,13.9885714 167.68,14.4914286 170.468571,17.6457143 Z M164.297143,19.52 C160.045714,21.8514286 159.862857,29.0285714 163.84,31.7257143 C165.211429,32.64 167.131429,32.32 168.274286,31.1771429 C171.2,28.3885714 171.154286,23.1771429 168.32,20.3428571 C167.36,19.2914286 165.668571,18.88 164.297143,19.52 Z" id="Path"></path>
                <path d="M194.057143,16.0457143 C197.577143,17.9657143 200.045714,21.8971429 199.771429,26.0114286 C199.954286,31.6342857 194.88,36.8914286 189.211429,36.7085714 C183.542857,36.8914286 178.514286,31.6342857 178.605714,26.0114286 C178.422857,21.3028571 181.622857,16.6857143 186.194286,15.3142857 C188.754286,14.5828571 191.68,14.7657143 194.057143,16.0457143 Z M188.022857,19.4285714 C183.222857,21.3028571 182.902857,29.0742857 187.108571,31.7714286 C188.525714,32.64 190.537143,32.5028571 191.771429,31.36 C194.971429,28.7085714 195.017143,23.2685714 192.045714,20.4342857 C191.04,19.4285714 189.44,18.9714286 188.022857,19.4285714 Z" id="Path"></path>
                <path d="M14.3542857,26.1942857 C15.7714286,25.0971429 18.1028571,26.1028571 18.1485714,27.9314286 C18.3771429,29.8057143 15.8171429,31.3142857 14.3542857,29.9885714 C13.0742857,29.12 13.0742857,27.0628571 14.3542857,26.1942857 L14.3542857,26.1942857 Z" id="Path"></path>
            </g>
        </g>
    </g>
</svg>