<?xml version="1.0" encoding="utf-8"?>
<!-- Generator: Adobe Illustrator 24.3.0, SVG Export Plug-In . SVG Version: 6.00 Build 0)  -->
<svg version="1.1" id="Шар_1" xmlns="http://www.w3.org/2000/svg" xmlns:xlink="http://www.w3.org/1999/xlink" x="0px" y="0px"
	 viewBox="0 0 595.3 90.8" style="enable-background:new 0 0 595.3 90.8;" xml:space="preserve">
<style type="text/css">
	.st0{fill-rule:evenodd;clip-rule:evenodd;fill:#FFB123;}
</style>
<g id="Page-1">
	<g id="Group-29">
		<path id="Fill-1" class="st0" d="M51.9,36.5h-2h-3.2H27.7c-0.3,0.9-0.3,0.9-0.3,1.7s0,1.5,0.3,2.3h18.7c-1.2,4.1-5.2,7.3-9.6,7.3
			c-5.5,0-10.2-4.7-10.2-10.2s4.7-10.2,10.2-10.2c4.7,0,8.5,3.2,9.9,7.3h5.2c-0.3-0.9-0.6-2-0.9-2.9l-1.5,0.6
			c-0.6-1.5-1.2-2.6-2.3-3.8c-0.9-1.2-2-2-3.5-2.9l0.9-1.2c-1.7-0.9-3.5-1.7-5.5-2l-0.3,1.2c-1.5-0.3-2.9-0.3-4.4,0
			c-1.5,0.3-2.9,0.9-4.1,1.5l-0.6-0.9c-1.7,1.2-3.5,2.3-5,4.1l1.2,0.9c-0.9,1.2-1.7,2.3-2,3.8c-0.6,1.5-0.9,2.9-0.9,4.4h-1.5
			c0,0,0,0,0,0.3c0,2,0.3,4.1,1.2,5.8l1.5-0.6c0.6,1.5,1.2,2.6,2.3,3.8c0.9,1.2,2,2,3.5,2.9l-0.6,1.2c1.7,1.2,3.5,1.7,5.8,2l0.3-1.2
			c1.5,0.3,2.9,0.3,4.4,0s2.9-0.9,4.1-1.5l0.6,1.2c1.7-0.9,3.5-2.3,4.7-3.8l-1.2-0.9c0.9-1.2,1.7-2.3,2-3.8c0.6-1.5,0.9-2.9,0.9-4.4
			h1.5v-0.3C52.2,36.8,51.9,37.4,51.9,36.5"/>
		<g id="Group-5" transform="translate(0.000000, 0.058983)">
			<g id="Clip-4">
			</g>
			<path id="Fill-3" class="st0" d="M37.6,52.7C28.9,53,21.9,46,22.2,37.2c0.3-7.9,6.7-14.3,14.6-14.6c8.7-0.3,15.7,6.7,15.4,15.4
				C51.6,46,45.5,52.4,37.6,52.7L37.6,52.7z M43.7,4.9C43.4,4.3,42.9,4,42.3,4H31.8c-0.6,0-1.2,0.3-1.5,0.9L6.7,67
				c-0.3,0.6,0,0.9,0.6,0.9h14c0.6,0,1.2-0.3,1.7-0.9c0,0,7.6-9,14.3-9s14.3,9,14.3,9c0.3,0.3,1.2,0.9,1.7,0.9H67
				c0.6,0,0.9-0.3,0.6-0.9L43.7,4.9z"/>
		</g>
		<path id="Fill-6" class="st0" d="M108.7,48.2L102,29.8l-6.7,18.4H108.7z M127.1,68h-10.8l-4.4-11.4H92.1L88,68H77.5l19.2-49.5
			h10.5L127.1,68z"/>
		<path id="Fill-8" class="st0" d="M152.7,68v-5.2c-1.2,2-2.9,3.5-5.2,4.7c-2,1.2-4.4,1.7-6.7,1.7s-4.7-0.6-6.4-1.5
			c-2-1.2-3.2-2.6-4.1-4.4c-0.9-2-1.2-4.7-1.2-7.9V31.9h9.6v16.6c0,5,0.3,8.2,0.6,9.3c0.3,1.2,0.9,2,2,2.6c0.9,0.6,2,0.9,3.5,0.9
			c1.7,0,3.2-0.6,4.4-1.5c1.2-0.9,2-2,2.6-3.2c0.6-1.5,0.6-4.7,0.6-9.6V31.9h9.6v35.8h-9.3V68z"/>
		<path id="Fill-10" class="st0" d="M184.2,31.9v7.6h-6.4V54c0,2.9,0,4.7,0.3,5.2c0,0.6,0.3,0.9,0.9,1.2c0.6,0.3,0.9,0.6,1.7,0.6
			s2-0.3,3.8-0.9l0.9,7.3c-2.3,0.9-4.7,1.5-7.6,1.5c-1.7,0-3.2-0.3-4.7-0.9c-1.5-0.6-2.3-1.5-2.9-2.3c-0.6-0.9-1.2-2-1.5-3.8
			c-0.3-1.2-0.3-3.2-0.3-6.7V39.4h-4.4v-7.6h4.4v-7l9.6-5.5v12.8h6.1V31.9z"/>
		<path id="Fill-12" class="st0" d="M197,18.2v18.4c3.2-3.5,6.7-5.2,11.1-5.2c2.3,0,4.1,0.3,5.8,1.2c1.7,0.9,3.2,1.7,4.1,3.2
			c0.9,1.2,1.5,2.6,1.7,4.1c0.3,1.5,0.6,3.8,0.6,7.3v21h-9.6V49.1c0-3.8-0.3-6.1-0.6-7.3c-0.3-0.9-0.9-1.7-2-2.3
			c-0.9-0.6-2-0.9-3.5-0.9s-2.9,0.3-4.4,1.2c-1.2,0.9-2,2-2.6,3.5c-0.6,1.5-0.9,3.8-0.9,7v18.1h-9.3V18.8h9.6V18.2z"/>
		<path id="Fill-14" class="st0" d="M247.7,46.7c0-2.6-0.9-5-2-6.4c-1.5-1.5-2.9-2-5-2c-2,0-3.8,0.9-5.2,2.3c-1.5,1.5-2,3.5-2,6.1
			H247.7z M247.2,56.3l9.6,1.5c-1.2,3.5-3.2,6.1-5.8,7.9s-5.8,2.6-9.9,2.6c-6.1,0-10.8-2-14-6.1c-2.3-3.2-3.5-7.3-3.5-12.5
			c0-5.8,1.5-10.5,4.7-14s7-5,11.9-5c5.2,0,9.6,1.7,12.5,5.2c3.2,3.5,4.7,9,4.4,16.3h-23.9c0,2.9,0.9,5,2.3,6.7
			c1.5,1.7,3.2,2.3,5.5,2.3c1.5,0,2.6-0.3,3.8-1.2C246,59.6,246.6,58.4,247.2,56.3L247.2,56.3z"/>
		<path id="Fill-16" class="st0" d="M294.1,68h-9.6V49.6c0-3.8-0.3-6.4-0.6-7.6c-0.3-1.2-1.2-2-2-2.6c-0.9-0.6-2-0.9-3.2-0.9
			c-1.7,0-3.2,0.6-4.4,1.5c-1.2,0.9-2.3,2-2.6,3.5c-0.6,1.5-0.6,4.4-0.6,8.2V68h-9.6V31.9h8.7v5.2c3.2-4.1,7-6.1,11.9-6.1
			c2,0,4.1,0.3,5.8,1.2c1.7,0.9,2.9,1.7,4.1,2.9c0.9,1.2,1.5,2.6,1.7,4.1c0.3,1.5,0.6,3.5,0.6,6.4V68H294.1z"/>
		<path id="Fill-18" class="st0" d="M316.8,31.9v7.6h-6.4V54c0,2.9,0,4.7,0.3,5.2c0,0.6,0.3,0.9,0.9,1.2c0.6,0.3,0.9,0.6,1.7,0.6
			c0.9,0,2-0.3,3.8-0.9l0.9,7.3c-2.3,0.9-4.7,1.5-7.6,1.5c-1.7,0-3.2-0.3-4.7-0.9c-1.5-0.6-2.3-1.5-2.9-2.3c-0.6-0.9-1.2-2-1.5-3.8
			c-0.3-1.2-0.3-3.2-0.3-6.7V39.4h-4.4v-7.6h4.4v-7l9.6-5.5v12.8h6.1V31.9z"/>
		<g id="Clip-21">
		</g>
		<path id="Fill-20" class="st0" d="M320,68h9.6V31.9H320V68z M320,27.2h9.6v-8.7H320V27.2z"/>
		<path id="Fill-22" class="st0" d="M367.2,42.7l-9.3,1.7c-0.3-1.7-1.2-3.2-2-4.4c-1.2-0.9-2.6-1.5-4.4-1.5c-2.3,0-4.4,0.9-5.5,2.3
			c-1.5,1.7-2,4.4-2,8.2c0,4.4,0.6,7.3,2,9c1.5,1.7,3.5,2.6,5.8,2.6c1.7,0,3.2-0.6,4.4-1.5c1.2-1.2,2-2.9,2.3-5.2l9.3,1.5
			c-0.9,4.4-2.9,7.6-5.5,9.6c-2.6,2.3-6.4,3.2-11.1,3.2c-5.2,0-9.3-1.7-12.5-5c-3.2-3.2-4.7-7.9-4.7-13.7c0-5.8,1.5-10.5,4.7-14
			c3.2-3.2,7.3-5,12.8-5c4.4,0,7.9,0.9,10.5,2.9C364,35.9,366.1,38.9,367.2,42.7"/>
		<path id="Fill-23" class="st0" d="M397,50.5v-5.8h21v18.4c-3.2,2.6-6.4,4.4-9.9,5.8c-3.5,1.2-7,2-10.5,2c-5,0-9.3-1.2-13.4-3.2
			s-7-5.2-9-9c-2-4.1-2.9-8.5-2.9-13.1c0-5,0.9-9.3,2.9-13.4c2-4.1,5-7.3,8.7-9.3s8.2-2.9,13.1-2.9c3.5,0,6.7,0.6,9.6,1.7
			c2.9,1.2,5.2,2.9,6.7,5c1.7,2,2.9,4.7,3.8,8.2l-5.8,1.7c-0.9-2.6-1.7-4.4-2.9-5.8s-2.6-2.6-4.7-3.5c-2-0.9-4.4-1.2-6.7-1.2
			c-2.9,0-5.5,0.6-7.9,1.5s-4.1,2-5.2,3.5c-1.5,1.5-2.3,3.2-3.2,5c-1.2,3.2-2,6.4-2,9.9c0,4.4,0.9,8.2,2.3,11.1
			c1.5,2.9,3.8,5.2,6.7,6.7c2.9,1.5,6.1,2,9.3,2c2.9,0,5.5-0.6,8.5-1.7c2.6-1.2,4.7-2.3,6.1-3.5v-9.3H397V50.5z"/>
		<path id="Fill-24" class="st0" d="M446.5,52c-2.3,0.9-5.5,1.7-9.9,2.3c-2.6,0.3-4.4,0.9-5.2,1.2s-1.7,1.2-2.3,2
			c-0.6,0.9-0.9,1.7-0.9,2.9c0,1.7,0.6,2.9,1.7,4.1c1.2,1.2,2.9,1.7,5.5,1.7c2.3,0,4.4-0.6,6.1-1.5c1.7-1.2,3.2-2.3,4.1-4.1
			c0.6-1.5,0.9-3.5,0.9-6.1V52z M447.1,65.4c-2.3,2-4.4,3.2-6.4,4.1c-2,0.9-4.4,1.2-6.7,1.2c-4.1,0-7-0.9-9-2.9
			c-2-2-3.2-4.4-3.2-7.3c0-1.7,0.3-3.5,1.2-5c0.9-1.5,1.7-2.6,3.2-3.5c1.2-0.9,2.6-1.5,4.4-2c1.2-0.3,2.9-0.6,5.5-0.9
			c5-0.6,8.5-1.2,10.8-2c0-0.9,0-1.5,0-1.5c0-2.6-0.6-4.4-1.7-5.2c-1.5-1.5-3.8-2-7-2c-2.9,0-5,0.6-6.4,1.5
			c-1.5,0.9-2.3,2.9-2.9,5.2l-5.8-0.9c0.6-2.6,1.5-4.7,2.6-6.1s2.9-2.9,5.2-3.5c2.3-0.9,5-1.2,8.2-1.2s5.5,0.3,7.6,1.2
			c2,0.6,3.2,1.7,4.4,2.6c0.9,1.2,1.5,2.6,2,4.1c0.3,1.2,0.3,2.9,0.3,5.5v8.2c0,5.5,0,9.3,0.3,10.8c0.3,1.5,0.9,2.9,1.5,4.4h-6.4
			C447.7,68.6,447.1,67.1,447.1,65.4L447.1,65.4z"/>
		<path id="Fill-25" class="st0" d="M458.7,69.8V33.9h5.5v5c1.2-1.7,2.6-3.2,4.4-4.4c1.7-1.2,4.1-1.7,6.4-1.7c2.6,0,5,0.6,6.4,1.7
			c1.7,1.2,2.9,2.6,3.5,4.7c2.9-4.1,6.4-6.4,11.1-6.4c3.5,0,6.4,0.9,8.2,2.9c2,2,2.9,5,2.9,9v24.8H501V46.7c0-2.3-0.3-4.1-0.6-5.2
			c-0.3-1.2-1.2-2-2-2.6c-1.2-0.6-2.3-0.9-3.8-0.9c-2.6,0-4.7,0.9-6.4,2.6c-1.7,1.7-2.6,4.4-2.6,8.2v21h-6.1V46.4
			c0-2.6-0.6-4.7-1.5-6.1c-0.9-1.5-2.6-2-5-2c-1.7,0-3.2,0.6-4.7,1.5s-2.6,2.3-3.2,4.1c-0.6,1.7-0.9,4.4-0.9,7.6V70h-5.5V69.8z"/>
		<path id="Fill-26" class="st0" d="M512.9,69.8h6.1V33.9h-6.1V69.8z M512.9,27.2h6.1v-7h-6.1V27.2z"/>
		<path id="Fill-27" class="st0" d="M524.9,69.8V33.9h5.5v5.2c2.6-4.1,6.4-5.8,11.4-5.8c2,0,4.1,0.3,6.1,1.2
			c1.7,0.9,3.2,1.7,4.1,3.2c0.9,1.2,1.5,2.6,2,4.4c0.3,1.2,0.3,3.2,0.3,5.8V70h-6.1V48.2c0-2.6-0.3-4.4-0.6-5.5
			c-0.6-1.2-1.5-2.3-2.6-2.9c-1.2-0.9-2.6-1.2-4.4-1.2c-2.6,0-5,0.9-6.7,2.3c-1.7,1.7-2.9,4.7-2.9,9.3v19.5H524.9z"/>
		<path id="Fill-28" class="st0" d="M563.9,51.4c0,4.7,0.9,8.2,2.9,10.2c1.7,2,4.1,3.2,7,3.2c2.9,0,5.2-1.2,7-3.2
			c2-2,2.9-5.5,2.9-10.2c0-4.4-0.9-7.6-2.9-9.9c-2-2.3-4.4-3.5-7-3.5s-5,1.2-7,3.2C564.8,43.8,563.9,47,563.9,51.4 M559,73l5.8,0.9
			c0.3,1.7,0.9,3.2,2,4.1c1.5,1.2,3.5,1.7,6.1,1.7c2.9,0,5-0.6,6.4-1.7c1.5-1.2,2.6-2.6,3.2-4.7c0.3-1.2,0.6-3.8,0.6-7.9
			c-2.6,3.2-6.1,4.7-9.9,4.7c-5,0-8.7-1.7-11.4-5.2c-2.6-3.5-4.1-7.9-4.1-12.8c0-3.5,0.6-6.7,1.7-9.6c1.2-2.9,2.9-5.2,5.5-6.7
			c2.3-1.5,5.2-2.3,8.5-2.3c4.4,0,7.9,1.7,10.5,5.2v-4.4h5.5v31.2c0,5.5-0.6,9.6-1.7,11.9c-1.2,2.3-2.9,4.1-5.5,5.5
			c-2.3,1.5-5.5,2-9,2c-4.4,0-7.9-0.9-10.5-2.9C560.2,79.7,558.7,76.7,559,73"/>
	</g>
</g>
</svg>
