<?xml version="1.0" encoding="utf-8"?>
<!-- Generator: Adobe Illustrator 24.3.0, SVG Export Plug-In . SVG Version: 6.00 Build 0)  -->
<svg version="1.1" id="Шар_1" xmlns="http://www.w3.org/2000/svg" xmlns:xlink="http://www.w3.org/1999/xlink" x="0px" y="0px"
	 viewBox="0 0 595.3 355.2" style="enable-background:new 0 0 595.3 355.2;" xml:space="preserve">
<style type="text/css">
	.st0{fill:#FFB123;}
</style>
<rect x="7.2" y="34.2" class="st0" width="24" height="24"/>
<rect x="7.2" y="60.8" class="st0" width="24" height="24"/>
<rect x="7.2" y="87.4" class="st0" width="24" height="24"/>
<rect x="7.2" y="114" class="st0" width="24" height="24"/>
<rect x="7.2" y="140.6" class="st0" width="24" height="24"/>
<rect x="7.2" y="167.2" class="st0" width="24" height="24"/>
<rect x="7.2" y="193.8" class="st0" width="24" height="24"/>
<rect x="7.2" y="220.5" class="st0" width="24" height="24"/>
<rect x="7.2" y="247.1" class="st0" width="24" height="24"/>
<rect x="33.7" y="34.2" class="st0" width="24" height="24"/>
<rect x="33.3" y="7.5" class="st0" width="24" height="24"/>
<rect x="60.2" y="34.5" class="st0" width="24" height="24"/>
<rect x="59.9" y="7.5" class="st0" width="24" height="24"/>
<rect x="86.7" y="34.5" class="st0" width="24" height="24"/>
<rect x="86.4" y="7.5" class="st0" width="24" height="24"/>
<rect x="113.2" y="34.5" class="st0" width="24" height="24"/>
<rect x="113" y="7.5" class="st0" width="24" height="24"/>
<rect x="139.7" y="34.5" class="st0" width="24" height="24"/>
<rect x="139.5" y="7.5" class="st0" width="24" height="24"/>
<rect x="166.2" y="34.5" class="st0" width="24" height="24"/>
<rect x="166.1" y="7.5" class="st0" width="24" height="24"/>
<rect x="192.7" y="34.4" class="st0" width="24" height="24"/>
<rect x="192.6" y="7.5" class="st0" width="24" height="24"/>
<rect x="219.2" y="34.1" class="st0" width="24" height="24"/>
<rect x="193.1" y="61.2" class="st0" width="24" height="24"/>
<rect x="219.2" y="60.8" class="st0" width="24" height="24"/>
<rect x="245.2" y="61.2" class="st0" width="24" height="24"/>
<rect x="219.2" y="87.4" class="st0" width="24" height="24"/>
<rect x="245.2" y="87.6" class="st0" width="24" height="24"/>
<rect x="219.2" y="114" class="st0" width="24" height="24"/>
<rect x="245.2" y="114" class="st0" width="24" height="24"/>
<rect x="219.2" y="140.6" class="st0" width="24" height="24"/>
<rect x="245.2" y="140.3" class="st0" width="24" height="24"/>
<rect x="193.1" y="140.3" class="st0" width="24" height="24"/>
<rect x="219.2" y="167.2" class="st0" width="24" height="24"/>
<rect x="192.7" y="167.2" class="st0" width="24" height="24"/>
<rect x="166.2" y="167.2" class="st0" width="24" height="24"/>
<rect x="139.7" y="167.2" class="st0" width="24" height="24"/>
<rect x="113.2" y="167.2" class="st0" width="24" height="24"/>
<rect x="86.7" y="167.2" class="st0" width="24" height="24"/>
<rect x="60.2" y="167.2" class="st0" width="24" height="24"/>
<rect x="166" y="194.2" class="st0" width="24" height="24"/>
<rect x="139.5" y="194.2" class="st0" width="24" height="24"/>
<rect x="113.1" y="194.2" class="st0" width="24" height="24"/>
<rect x="86.6" y="194.2" class="st0" width="24" height="24"/>
<rect x="60.1" y="194.2" class="st0" width="24" height="24"/>
<rect x="33.7" y="167.2" class="st0" width="24" height="24"/>
<rect x="219.2" y="7.5" class="st0" width="24" height="24"/>
<rect x="33.3" y="60.8" class="st0" width="24" height="24"/>
<rect x="33.3" y="87.4" class="st0" width="24" height="24"/>
<rect x="33.3" y="114" class="st0" width="24" height="24"/>
<rect x="33.3" y="140.6" class="st0" width="24" height="24"/>
<rect x="33.6" y="193.8" class="st0" width="24" height="24"/>
<rect x="33.3" y="220.4" class="st0" width="24" height="24"/>
<rect x="324.2" y="60.9" class="st0" width="24" height="24"/>
<rect x="324.2" y="87.5" class="st0" width="24" height="24"/>
<rect x="324.2" y="114.1" class="st0" width="24" height="24"/>
<rect x="324.2" y="140.7" class="st0" width="24" height="24"/>
<rect x="324.2" y="167.3" class="st0" width="24" height="24"/>
<rect x="324.2" y="193.9" class="st0" width="24" height="24"/>
<rect x="350.7" y="167.3" class="st0" width="24" height="24"/>
<rect x="350.4" y="60.8" class="st0" width="24" height="24"/>
<rect x="350.4" y="87.4" class="st0" width="24" height="24"/>
<rect x="350.4" y="114" class="st0" width="24" height="24"/>
<rect x="350.4" y="140.7" class="st0" width="24" height="24"/>
<rect x="350.7" y="193.9" class="st0" width="24" height="24"/>
<rect x="350.4" y="220.5" class="st0" width="24" height="24"/>
<rect x="378" y="193.9" class="st0" width="24" height="24"/>
<rect x="378" y="220.5" class="st0" width="24" height="24"/>
<rect x="377.7" y="247.1" class="st0" width="24" height="24"/>
<rect x="377.8" y="7.6" class="st0" width="24" height="24"/>
<rect x="377.8" y="34.2" class="st0" width="24" height="24"/>
<rect x="404.2" y="7.6" class="st0" width="24" height="24"/>
<rect x="404.2" y="34.2" class="st0" width="24" height="24"/>
<rect x="430.3" y="7.6" class="st0" width="24" height="24"/>
<rect x="430.3" y="34.2" class="st0" width="24" height="24"/>
<rect x="456.6" y="7.6" class="st0" width="24" height="24"/>
<rect x="456.6" y="34.2" class="st0" width="24" height="24"/>
<rect x="483.1" y="7.6" class="st0" width="24" height="24"/>
<rect x="483.1" y="34.2" class="st0" width="24" height="24"/>
<rect x="509.5" y="34.2" class="st0" width="24" height="24"/>
<rect x="509.4" y="60.8" class="st0" width="24" height="24"/>
<rect x="536.6" y="34.2" class="st0" width="24" height="24"/>
<rect x="536.6" y="60.8" class="st0" width="24" height="24"/>
<rect x="456.6" y="114" class="st0" width="24" height="24"/>
<rect x="456.6" y="140.7" class="st0" width="24" height="24"/>
<rect x="483.7" y="114" class="st0" width="24" height="24"/>
<rect x="483.7" y="140.7" class="st0" width="24" height="24"/>
<rect x="510.3" y="114" class="st0" width="24" height="24"/>
<rect x="510.3" y="140.7" class="st0" width="24" height="24"/>
<rect x="536.6" y="114.1" class="st0" width="24" height="24"/>
<rect x="536.6" y="140.7" class="st0" width="24" height="24"/>
<rect x="563.7" y="114.1" class="st0" width="24" height="24"/>
<rect x="563.7" y="140.7" class="st0" width="24" height="24"/>
<rect x="563.1" y="167.3" class="st0" width="24" height="24"/>
<rect x="563.1" y="193.9" class="st0" width="24" height="24"/>
<rect x="536.6" y="167.3" class="st0" width="24" height="24"/>
<rect x="536.6" y="193.9" class="st0" width="24" height="24"/>
<rect x="536.6" y="220.5" class="st0" width="24" height="24"/>
<rect x="510.3" y="193.9" class="st0" width="24" height="24"/>
<rect x="510.2" y="220.5" class="st0" width="24" height="24"/>
<rect x="510.2" y="247.2" class="st0" width="24" height="24"/>
<rect x="483.1" y="220.5" class="st0" width="24" height="24"/>
<rect x="483.1" y="247.1" class="st0" width="24" height="24"/>
<rect x="456.6" y="220.5" class="st0" width="24" height="24"/>
<rect x="456.6" y="247.1" class="st0" width="24" height="24"/>
<rect x="430.3" y="220.5" class="st0" width="24" height="24"/>
<rect x="430.3" y="247.1" class="st0" width="24" height="24"/>
<rect x="404.2" y="220.5" class="st0" width="24" height="24"/>
<rect x="404.2" y="247.1" class="st0" width="24" height="24"/>
<rect x="377.5" y="60.8" class="st0" width="24" height="24"/>
<rect x="350.4" y="34.2" class="st0" width="24" height="24"/>
<rect x="33.3" y="247.1" class="st0" width="24" height="24"/>
<g>
	<polygon class="st0" points="348.6,309.5 343.3,309.5 343.3,313.8 337,313.8 337,320.2 331.7,320.2 331.7,313.8 325.6,313.8 
		325.6,309.5 320.3,309.5 320.3,302.6 316.7,302.6 316.7,309.5 316.7,310.9 316.7,345.2 325.6,345.2 325.6,329.3 332.4,329.3 
		332.4,334.9 336.5,334.9 336.5,329.3 343.3,329.3 343.3,345.2 352.1,345.2 352.1,310.9 352.2,310.9 352.2,302.6 348.6,302.6 	"/>
	<polygon class="st0" points="140.3,308.8 140.3,318.6 140.3,320.1 128.1,320.1 128.1,303.4 119.3,303.4 119.3,345.7 128.1,345.7 
		128.1,329 140.3,329 140.3,330.8 140.3,340.3 140.3,345.7 149.2,345.7 149.2,330.8 145.2,330.8 145.2,329 145.2,325.4 145.2,323.7 
		145.2,320.1 145.2,318.6 149.2,318.6 149.2,302.8 140.3,302.8 	"/>
	<polygon class="st0" points="107.6,303.6 86.8,303.6 86.8,308.8 81.5,308.8 81.5,340.3 86,340.3 86,345.9 106.8,345.9 106.8,339.6 
		112,339.6 112,330.1 103.2,330.1 103.2,337 90.4,337 90.4,312.5 103.2,312.5 103.2,319.1 112,319.1 112,309.6 107.6,309.6 	"/>
	<polygon class="st0" points="156.2,303.4 156.2,312.5 156.2,336.2 156.2,345.3 156.2,345.7 165.1,345.7 165.1,345.3 187.5,345.3 
		187.5,336.2 165.1,336.2 165.1,328.9 182,328.9 182,319.8 165.1,319.8 165.1,312.5 187.5,312.5 187.5,303.4 165.1,303.4 	"/>
	<polygon class="st0" points="193.5,312.6 204.7,312.6 204.7,345.9 213.5,345.9 213.5,312.6 224.7,312.6 224.7,303.5 193.5,303.5 	
		"/>
	<polygon class="st0" points="257.3,328.3 263.6,328.3 263.6,336.2 249.3,336.2 249.3,312.6 266.8,312.6 266.8,303.5 246,303.5 
		246,308.8 240.4,308.8 240.4,340.3 246,340.3 246,345.3 266.8,345.3 266.8,340.6 272.7,340.6 272.7,328.3 272.7,319.8 272.7,319.2 
		257.3,319.2 	"/>
	<path class="st0" d="M305,303.4h-20.2v5.4h-5.5V346h8.9v-12.4h12.4V346h8.9v-37.2H305V303.4z M288.2,324.5v-12h12.4v12H288.2z"/>
	<polygon class="st0" points="587.1,303.6 555.9,303.6 555.9,312.7 567.1,312.7 567.1,346 575.9,346 575.9,312.7 587.1,312.7 	"/>
	<polygon class="st0" points="358.2,303.4 358.2,312.5 358.2,336.2 358.2,345.3 358.2,345.7 367.1,345.7 367.1,345.3 389.5,345.3 
		389.5,336.2 367.1,336.2 367.1,328.9 384.1,328.9 384.1,319.8 367.1,319.8 367.1,312.5 389.5,312.5 389.5,303.4 367.1,303.4 	"/>
	<polygon class="st0" points="402.1,308.8 396.6,308.8 396.6,323.9 402.1,323.9 402.1,328.9 417.9,328.9 417.9,336.9 396.1,336.9 
		396.1,346 421,346 421,339.9 427,339.9 427,324.8 421.8,324.8 421.8,319.8 405.7,319.8 405.7,312.5 427,312.5 427,303.4 
		402.1,303.4 	"/>
	<polygon class="st0" points="450.3,308.8 444.9,308.8 444.9,323.9 450.3,323.9 450.3,328.9 466.2,328.9 466.2,336.9 444.4,336.9 
		444.4,346 469.3,346 469.3,339.9 475.3,339.9 475.3,324.8 470,324.8 470,319.8 454,319.8 454,312.5 475.3,312.5 475.3,303.4 
		450.3,303.4 	"/>
	<path class="st0" d="M70.5,303.6H49.7v5.2h-6.6v31.5H49v5.6h20.8v-5.4H75V309h-4.5V303.6z M66.2,312.5V337H51.9v-24.5H66.2z"/>
	<path class="st0" d="M32.1,303.6H16H7.2v8.9v7.8v8.9v16.7H16v-16.7h16v-4.4h5.7v-16H32L32.1,303.6L32.1,303.6z M16,312.5h12.8v7.8
		H16V312.5z"/>
	<path class="st0" d="M507.1,303.3h-19.9v6.1h-5.7v31.1h5.7v5.8h19.9v-5.8h5.3v-31.1h-5.3L507.1,303.3L507.1,303.3z M503,312.7v24.1
		h-12v-24.1H503z"/>
	<polygon class="st0" points="519.3,303.4 519.3,312.8 519.3,319.7 519.3,329.1 519.3,346 528.7,346 528.7,329.1 544.5,329.1 
		544.5,319.7 528.7,319.7 528.7,312.8 549.9,312.8 549.9,303.4 	"/>
</g>
</svg>
