<?xml version="1.0" encoding="utf-8"?>
<!-- Generator: Adobe Illustrator 25.1.0, SVG Export Plug-In . SVG Version: 6.00 Build 0)  -->
<svg version="1.1" id="Шар_1" xmlns="http://www.w3.org/2000/svg" xmlns:xlink="http://www.w3.org/1999/xlink" x="0px" y="0px"
	 viewBox="0 0 185 39" style="enable-background:new 0 0 185 39;" xml:space="preserve">
<style type="text/css">
	.st0{fill:#FFB124;}
	.st1{fill-rule:evenodd;clip-rule:evenodd;fill:#FFB124;}
</style>
<g id="Icons">
	<g id="SE" transform="translate(-878.000000, -629.000000)">
		<g id="Fugaso" transform="translate(878.000000, 629.000000)">
			<path id="FutureGamingSolutions" class="st0" d="M16,37l0.6-3h3.5l0.2-0.8h-3.5l0.4-2.1h3.4l0.2-0.8h-4.3L15.1,37H16z M23.6,37.1
				c0.6,0,1.2-0.3,1.8-1l0,0L25.2,37H26l1-4.8h-0.8l-0.4,2.1c-0.1,0.4-0.2,0.7-0.2,0.9c-0.1,0.3-0.2,0.5-0.4,0.7
				c-0.2,0.2-0.3,0.3-0.6,0.5c-0.2,0.1-0.4,0.2-0.7,0.2c-0.2,0-0.4-0.1-0.5-0.2c-0.1-0.1-0.2-0.2-0.2-0.4c0-0.1,0-0.3,0.1-0.6l0,0
				l0.6-3.1h-0.8L22.5,35c-0.1,0.5-0.2,0.8-0.2,1c0,0.3,0.1,0.6,0.3,0.8S23.2,37.1,23.6,37.1z M29.8,37.1c0.2,0,0.4,0,0.6-0.1l0,0
				l0.1-0.7c-0.1,0-0.3,0.1-0.5,0.1c-0.1,0-0.2,0-0.3-0.1c-0.1-0.1-0.1-0.1-0.1-0.2c0-0.1,0-0.3,0.1-0.6l0,0l0.6-2.7h0.8l0.1-0.6
				h-0.8l0.4-1.8L29.9,31l-0.3,1.2H29l-0.1,0.6h0.7L29,35.6c-0.1,0.4-0.1,0.6-0.1,0.7c0,0.2,0.1,0.4,0.2,0.5
				C29.2,37,29.5,37.1,29.8,37.1z M34,37.1c0.6,0,1.2-0.3,1.8-1l0,0L35.6,37h0.8l1-4.8h-0.8l-0.4,2.1C36.1,34.7,36,35,36,35.2
				c-0.1,0.3-0.2,0.5-0.4,0.7s-0.3,0.3-0.6,0.5c-0.2,0.1-0.4,0.2-0.7,0.2c-0.2,0-0.4-0.1-0.5-0.2c-0.1-0.1-0.2-0.2-0.2-0.4
				c0-0.1,0-0.3,0.1-0.6l0,0l0.6-3.1h-0.8L32.9,35c-0.1,0.5-0.2,0.8-0.2,1c0,0.3,0.1,0.6,0.3,0.8C33.4,37,33.7,37.1,34,37.1z
				 M39.8,37l0.4-1.9c0.2-0.8,0.4-1.4,0.7-1.7s0.6-0.5,0.9-0.5c0.2,0,0.3,0.1,0.5,0.2l0,0l0.3-0.8c-0.2-0.1-0.4-0.2-0.6-0.2
				c-0.2,0-0.5,0.1-0.7,0.3s-0.5,0.5-0.7,0.8l0,0l0.2-1H40L39,37H39.8z M45.6,37.1c0.6,0,1.1-0.2,1.5-0.5c0.4-0.4,0.7-0.7,0.8-1.1
				l0,0L47,35.4c-0.2,0.3-0.4,0.6-0.6,0.8s-0.6,0.3-0.8,0.3c-0.3,0-0.6-0.1-0.8-0.4s-0.3-0.6-0.3-1c0-0.1,0-0.2,0-0.3l0,0h3.6
				c0-0.2,0.1-0.5,0.1-0.7c0-0.6-0.2-1.1-0.5-1.5s-0.8-0.5-1.4-0.5c-0.5,0-0.9,0.1-1.3,0.4s-0.7,0.6-1,1.1s-0.4,1-0.4,1.5
				c0,0.4,0.1,0.8,0.2,1.1s0.4,0.6,0.7,0.7C44.9,37,45.2,37.1,45.6,37.1z M47.3,34.2h-2.7c0.1-0.5,0.4-0.9,0.6-1.1
				c0.3-0.2,0.6-0.4,1-0.4c0.3,0,0.6,0.1,0.8,0.3s0.3,0.5,0.3,1C47.4,34,47.4,34.1,47.3,34.2L47.3,34.2z M57.3,37.1
				c0.5,0,0.9-0.1,1.4-0.2c0.5-0.1,0.9-0.3,1.3-0.6l0,0l0.6-2.7h-2.9l-0.2,0.8h2l-0.3,1.4c-0.7,0.4-1.3,0.6-1.9,0.6
				c-0.6,0-1-0.2-1.4-0.5c-0.3-0.3-0.5-0.9-0.5-1.5c0-0.7,0.1-1.3,0.4-1.8c0.3-0.5,0.6-0.9,1-1.2c0.4-0.3,0.9-0.4,1.4-0.4
				s0.8,0.1,1.1,0.4c0.3,0.2,0.5,0.6,0.6,1.1l0,0l0.9-0.1c-0.1-0.5-0.2-0.8-0.4-1.1c-0.2-0.3-0.5-0.5-0.9-0.7s-0.8-0.3-1.3-0.3
				c-0.7,0-1.3,0.2-1.8,0.5s-1,0.8-1.3,1.5c-0.4,0.7-0.5,1.4-0.5,2.2s0.2,1.4,0.6,1.9C55.6,36.8,56.3,37.1,57.3,37.1z M64.1,37.1
				c0.3,0,0.6-0.1,0.8-0.2c0.3-0.1,0.5-0.3,0.8-0.5c0,0.2,0.1,0.4,0.1,0.6l0,0h0.8c-0.1-0.3-0.1-0.5-0.1-0.7s0-0.6,0.1-0.9l0,0
				l0.3-1.2c0.1-0.3,0.1-0.6,0.1-0.9c0-0.3-0.1-0.6-0.4-0.8c-0.3-0.3-0.8-0.4-1.4-0.4s-1,0.1-1.4,0.4s-0.6,0.6-0.8,1.1l0,0l0.8,0.1
				c0.1-0.3,0.3-0.5,0.5-0.7s0.5-0.2,0.8-0.2c0.4,0,0.6,0.1,0.8,0.2c0.1,0.1,0.2,0.3,0.2,0.5c0,0.1,0,0.3-0.1,0.6
				c-0.2,0.1-0.6,0.1-1.1,0.2s-0.9,0.1-1.1,0.1c-0.3,0.1-0.5,0.1-0.7,0.3c-0.2,0.1-0.4,0.3-0.5,0.5s-0.2,0.4-0.2,0.7
				c0,0.4,0.1,0.7,0.4,1C63.3,37,63.7,37.1,64.1,37.1z M64.4,36.5c-0.3,0-0.5-0.1-0.7-0.2c-0.2-0.1-0.2-0.3-0.2-0.6
				c0-0.2,0.1-0.3,0.2-0.5c0.1-0.1,0.2-0.2,0.4-0.3s0.5-0.1,1-0.2c0.3,0,0.5-0.1,0.7-0.1c0.1,0,0.3-0.1,0.4-0.1
				c-0.1,0.5-0.2,0.8-0.3,1.1c-0.1,0.3-0.3,0.5-0.6,0.6C64.9,36.4,64.6,36.5,64.4,36.5z M69.9,37l0.5-2.3c0.1-0.5,0.2-0.9,0.4-1.1
				c0.2-0.3,0.4-0.5,0.6-0.6s0.5-0.2,0.7-0.2s0.3,0,0.4,0.1s0.1,0.2,0.1,0.4c0,0.1,0,0.3-0.1,0.5l0,0L71.9,37h0.8l0.5-2.3
				c0.1-0.5,0.2-0.9,0.4-1.1c0.1-0.2,0.3-0.4,0.6-0.6s0.5-0.2,0.8-0.2c0.2,0,0.3,0,0.4,0.1s0.2,0.2,0.2,0.4c0,0.1,0,0.3-0.1,0.6l0,0
				L74.7,37h0.8l0.7-3.1c0.1-0.3,0.1-0.6,0.1-0.7c0-0.3-0.1-0.6-0.3-0.8s-0.5-0.3-0.9-0.3c-0.3,0-0.6,0.1-0.9,0.2s-0.5,0.4-0.8,0.7
				c-0.1-0.3-0.2-0.5-0.4-0.7c-0.2-0.2-0.5-0.2-0.8-0.2s-0.5,0.1-0.8,0.2S71,32.6,70.7,33l0,0l0.2-0.8h-0.8L69,37H69.9z M80.1,31.3
				l0.2-0.9h-0.8l-0.2,0.9H80.1z M78.9,37l1-4.8h-0.8l-1,4.8H78.9z M82.4,37l0.5-2.3c0.2-0.7,0.4-1.3,0.7-1.6s0.7-0.5,1.1-0.5
				c0.2,0,0.4,0.1,0.5,0.2c0.1,0.1,0.2,0.2,0.2,0.4c0,0.1,0,0.4-0.1,0.7l0,0L84.6,37h0.8l0.6-2.9c0.1-0.4,0.1-0.7,0.1-0.8
				c0-0.4-0.1-0.6-0.3-0.9s-0.5-0.3-0.9-0.3c-0.3,0-0.6,0.1-0.9,0.2c-0.3,0.2-0.6,0.4-0.9,0.7l0,0l0.2-0.8h-0.7l-1,4.8H82.4z
				 M89.9,38.9c0.4,0,0.8-0.1,1.1-0.2s0.5-0.4,0.7-0.7s0.3-0.7,0.4-1.2l0,0l1-4.7h-0.8L92.1,33c-0.3-0.6-0.8-0.9-1.5-0.9
				c-0.4,0-0.7,0.1-1.1,0.3s-0.7,0.6-0.9,1s-0.4,1-0.4,1.5c0,0.7,0.2,1.2,0.5,1.5S89.5,37,90,37s0.9-0.2,1.4-0.7l0,0l-0.1,0.4
				c-0.1,0.6-0.3,1-0.4,1.1c-0.2,0.3-0.6,0.4-1.1,0.4c-0.2,0-0.4,0-0.6-0.1C89.1,38,89,38,89,37.9c-0.1-0.1-0.1-0.2-0.1-0.4l0,0
				L88,37.4c0,0.1,0,0.2,0,0.2c0,0.2,0.1,0.5,0.2,0.7s0.3,0.3,0.6,0.4C89.1,38.9,89.5,38.9,89.9,38.9z M90.1,36.3
				c-0.2,0-0.4-0.1-0.6-0.2c-0.2-0.1-0.3-0.3-0.4-0.5S89,35.2,89,34.9c0-0.2,0-0.4,0.1-0.7s0.2-0.6,0.4-0.8s0.3-0.4,0.5-0.5
				s0.4-0.2,0.6-0.2c0.3,0,0.6,0.1,0.8,0.4s0.3,0.6,0.3,1s-0.1,0.7-0.2,1.1c-0.2,0.4-0.4,0.7-0.6,0.9C90.7,36.2,90.4,36.3,90.1,36.3
				z M101.5,37.1c0.5,0,0.9-0.1,1.3-0.3s0.7-0.4,0.9-0.7c0.2-0.3,0.3-0.6,0.3-1c0-0.3-0.1-0.6-0.2-0.8s-0.3-0.4-0.6-0.6
				c-0.2-0.1-0.5-0.3-1-0.5c-0.6-0.3-1-0.4-1.1-0.5c-0.2-0.1-0.4-0.3-0.5-0.4c-0.1-0.1-0.1-0.3-0.1-0.4c0-0.3,0.1-0.5,0.3-0.7
				c0.3-0.2,0.6-0.3,1.1-0.3c0.3,0,0.5,0,0.7,0.1s0.4,0.2,0.5,0.3c0.1,0.1,0.2,0.3,0.3,0.5c0,0.1,0.1,0.3,0.1,0.4l0,0l0.9-0.1
				c0-0.1,0-0.1,0-0.1c0-0.3-0.1-0.6-0.3-0.9s-0.4-0.5-0.8-0.7s-0.8-0.3-1.4-0.3c-0.5,0-0.9,0.1-1.2,0.2s-0.6,0.4-0.8,0.6
				s-0.3,0.6-0.3,0.9c0,0.3,0.1,0.6,0.2,0.8s0.4,0.4,0.7,0.6c0.2,0.1,0.5,0.3,1.1,0.5c0.7,0.3,1.1,0.5,1.2,0.7s0.2,0.4,0.2,0.6
				c0,0.3-0.1,0.6-0.4,0.8s-0.7,0.4-1.2,0.4c-0.4,0-0.7-0.1-1-0.2s-0.5-0.3-0.6-0.5s-0.2-0.5-0.2-0.7l0,0v-0.2l-0.9,0.1
				c0,0.9,0.2,1.4,0.7,1.8C100.1,36.9,100.7,37.1,101.5,37.1z M108.2,37.1c0.5,0,0.9-0.1,1.3-0.4s0.7-0.6,1-1.1
				c0.2-0.5,0.3-1,0.3-1.6s-0.2-1.1-0.5-1.5c-0.4-0.4-0.8-0.5-1.4-0.5c-0.7,0-1.3,0.3-1.8,0.8c-0.6,0.6-0.8,1.4-0.8,2.3
				c0,0.4,0.1,0.7,0.2,1s0.4,0.5,0.7,0.7C107.5,37,107.8,37.1,108.2,37.1z M108.2,36.5c-0.3,0-0.6-0.1-0.8-0.4s-0.3-0.6-0.3-1
				c0-0.2,0-0.5,0.1-0.8s0.2-0.6,0.4-0.8c0.2-0.2,0.4-0.4,0.6-0.5s0.4-0.2,0.7-0.2c0.3,0,0.6,0.1,0.8,0.4c0.2,0.2,0.3,0.6,0.3,1
				c0,0.3,0,0.6-0.1,0.9c-0.1,0.2-0.1,0.4-0.3,0.6c-0.1,0.2-0.2,0.4-0.4,0.5c-0.1,0.1-0.3,0.3-0.5,0.3
				C108.6,36.4,108.4,36.5,108.2,36.5z M113.4,37l1.4-6.7H114l-1.4,6.7H113.4z M117.5,37.1c0.6,0,1.2-0.3,1.8-1l0,0l-0.2,0.9h0.8
				l1-4.8h-0.8l-0.4,2.1c-0.1,0.4-0.2,0.7-0.2,0.9c-0.1,0.3-0.2,0.5-0.4,0.7c-0.2,0.2-0.3,0.3-0.6,0.5c-0.2,0.1-0.4,0.2-0.7,0.2
				c-0.2,0-0.4-0.1-0.5-0.2s-0.2-0.2-0.2-0.4c0-0.1,0-0.3,0.1-0.6l0,0l0.6-3.1H117l-0.6,2.8c-0.1,0.5-0.2,0.8-0.2,1
				c0,0.3,0.1,0.6,0.3,0.8C116.9,37,117.2,37.1,117.5,37.1z M123.8,37.1c0.2,0,0.4,0,0.6-0.1l0,0l0.1-0.7c-0.1,0-0.3,0.1-0.5,0.1
				c-0.1,0-0.2,0-0.3-0.1c-0.1-0.1-0.1-0.1-0.1-0.2c0-0.1,0-0.3,0.1-0.6l0,0l0.6-2.7h0.8l0.1-0.6h-0.8l0.4-1.8l-0.9,0.6l-0.3,1.2
				h-0.7l-0.1,0.6h0.7l-0.6,2.8c-0.1,0.4-0.1,0.6-0.1,0.7c0,0.2,0.1,0.4,0.2,0.5C123.2,37,123.4,37.1,123.8,37.1z M128.5,31.3
				l0.2-0.9h-0.8l-0.2,0.9H128.5z M127.3,37l1-4.8h-0.8l-1,4.8H127.3z M132,37.1c0.5,0,0.9-0.1,1.3-0.4c0.4-0.3,0.7-0.6,1-1.1
				c0.2-0.5,0.3-1,0.3-1.6s-0.2-1.1-0.5-1.5c-0.4-0.4-0.8-0.5-1.4-0.5c-0.7,0-1.3,0.3-1.8,0.8c-0.6,0.6-0.8,1.4-0.8,2.3
				c0,0.4,0.1,0.7,0.2,1s0.4,0.5,0.7,0.7S131.6,37.1,132,37.1z M132,36.5c-0.3,0-0.6-0.1-0.8-0.4s-0.3-0.6-0.3-1
				c0-0.2,0-0.5,0.1-0.8s0.2-0.6,0.4-0.8s0.4-0.4,0.6-0.5c0.2-0.1,0.4-0.2,0.7-0.2s0.6,0.1,0.8,0.4c0.2,0.2,0.3,0.6,0.3,1
				c0,0.3,0,0.6-0.1,0.9c-0.1,0.2-0.1,0.4-0.3,0.6c-0.1,0.2-0.2,0.4-0.4,0.5c-0.1,0.1-0.3,0.3-0.5,0.3
				C132.4,36.4,132.2,36.5,132,36.5z M137.2,37l0.5-2.3c0.2-0.7,0.4-1.3,0.7-1.6s0.7-0.5,1.1-0.5c0.2,0,0.4,0.1,0.5,0.2
				c0.1,0.1,0.2,0.2,0.2,0.4c0,0.1,0,0.4-0.1,0.7l0,0l-0.6,3.1h0.8l0.6-2.9c0.1-0.4,0.1-0.7,0.1-0.8c0-0.4-0.1-0.6-0.3-0.9
				s-0.5-0.3-0.9-0.3c-0.3,0-0.6,0.1-0.9,0.2c-0.3,0.2-0.6,0.4-0.9,0.7l0,0l0.2-0.8h-0.7l-1,4.8C136.5,37,137.2,37,137.2,37z
				 M145,37.1c0.4,0,0.8-0.1,1.1-0.2c0.3-0.1,0.5-0.3,0.7-0.6c0.1-0.2,0.2-0.5,0.2-0.7c0-0.4-0.1-0.7-0.4-0.9
				c-0.2-0.2-0.6-0.4-1.2-0.6c-0.4-0.2-0.6-0.3-0.7-0.4c-0.1-0.1-0.2-0.2-0.2-0.4s0.1-0.3,0.2-0.4c0.2-0.1,0.4-0.2,0.7-0.2
				c0.4,0,0.6,0.1,0.8,0.3s0.3,0.4,0.3,0.7l0,0l0.8-0.1c0-0.5-0.2-0.8-0.5-1.1s-0.8-0.4-1.4-0.4c-0.5,0-1,0.1-1.3,0.4
				s-0.5,0.6-0.5,1c0,0.2,0.1,0.4,0.2,0.6c0.1,0.2,0.3,0.3,0.5,0.4c0.1,0.1,0.4,0.2,0.8,0.4c0.4,0.2,0.7,0.3,0.8,0.5
				c0.1,0.1,0.2,0.3,0.2,0.4c0,0.2-0.1,0.4-0.3,0.5s-0.5,0.2-0.8,0.2s-0.5-0.1-0.7-0.2c-0.2-0.1-0.3-0.2-0.4-0.4
				c-0.1-0.2-0.1-0.4-0.1-0.6l0,0l-0.8,0.1c0,0.6,0.2,1.1,0.6,1.3C144,37,144.4,37.1,145,37.1z"/>
			<g id="Group-77">
				<path id="Combined-Shape" class="st1" d="M179.4,0.4c3.7,0.1,5.1,2,4.5,5.6c-0.6,3.2-1.1,6.4-1.7,9.6c-0.7,3.8-2.8,5.6-6.8,5.7
					c-2.6,0-5.2,0-7.8,0s-5.2,0-7.8,0c-4-0.1-5.5-2-4.8-5.9c0.5-3.1,1.1-6.2,1.6-9.3c0.6-3.7,2.7-5.7,6.5-5.8
					C168.5,0.3,173.9,0.3,179.4,0.4z M178.2,3.7c-5.1,0-10.1,0-15.2,0c-1.3,0-2.1,0.7-2.4,2.1c-0.6,3.4-1.2,6.8-1.8,10.2
					c-0.3,1.8,0.1,2.3,2,2.3c2.4,0,4.8,0,7.2,0c2.5,0,5,0,7.5,0c1.3,0,2.2-0.6,2.4-1.8c0.7-3.6,1.3-7.2,1.9-10.8
					C180.1,4.3,179.5,3.7,178.2,3.7z"/>
				<path id="Fill-9" class="st1" d="M150.1,0.5c0,0.1,0,0.2,0,0.2c-0.2,3-0.2,3-3.1,3c-5.1,0-10.2,0-15.3,0c-2.1,0-2.7,0.6-3,2.7
					c-0.2,1.7,0.2,2.2,2,2.2c4,0,8,0,12,0c1.3,0,2.6,0.1,3.9,0.6c1.8,0.6,2.6,1.8,2.6,3.6c0,1.6-0.3,3.2-0.8,4.7
					c-0.9,2.7-3.1,3.8-5.7,3.9c-6.4,0.2-12.8,0.1-19.1,0.1c-0.7,0-0.8-0.3-0.7-0.9c0.2-2.4,0.2-2.4,2.5-2.4c5.4,0,10.8,0,16.2,0
					c2.4,0,2.8-0.4,3.2-2.6c0.1-0.3,0.1-0.7,0.2-1c0.4-2.3-0.1-2.8-2.5-2.8c-3.5,0-7,0-10.5,0c-0.6,0-1.1,0-1.7,0
					c-3.4,0-5.5-1.1-5.6-3.2c-0.2-3.8,0.8-6.6,4.3-7.7c0.6-0.2,1.2-0.3,1.8-0.4C137.1,0.5,143.6,0.5,150.1,0.5"/>
				<path id="Fill-11" class="st1" d="M87.7,0.5c-0.6,3.1-0.6,3.1-3.7,3.1c-4.6,0-9.2,0-13.8,0c-2.9,0-3.2,0.2-3.7,3.1
					c-0.6,3.2-1.1,6.3-1.7,9.5c-0.2,1.2,0.2,1.9,1.4,1.9c4.4,0,8.8,0,13.2,0c1,0,1.7-0.6,1.8-1.8c0.2-1.6,0.7-3.3,0.8-4.9
					c0.1-1.4,0.7-1.6,1.9-1.6c2.5,0.1,2.5,0,2.1,2.5c-0.3,1.4-0.6,2.7-0.7,4.1c-0.4,2.8-2.1,4.1-4.7,4.7c-1.1,0.2-2.2,0.4-3.3,0.4
					c-3.5,0-7,0-10.5,0c-1,0-2-0.1-3-0.4c-2.6-0.7-3.5-2-3-4.6c0.6-3.7,1.4-7.4,1.9-11.1C63.1,3,64.4,1.7,66.6,1
					c0.8-0.3,1.6-0.5,2.4-0.5C75.2,0.5,81.4,0.5,87.7,0.5"/>
				<path id="Fill-13" class="st1" d="M34.7,0.4c-0.9,5.3-1.8,10.4-2.7,15.5c-0.3,1.8,0.1,2.3,1.8,2.3c4.6,0,9.2,0,13.8,0
					c1.5,0,2.3-0.7,2.6-2.2C51,11.3,52,6.6,52.7,1.9c0.2-1.4,0.8-1.5,1.9-1.5c2.5,0.1,2.5,0,2.1,2.4c-0.8,4.5-1.6,9-2.4,13.4
					c-0.7,3.6-2.5,5.2-6.1,5.2c-5.1,0-10.1,0-15.2,0c-1.1,0-2.2-0.2-3.2-0.7c-1.6-0.7-2.2-2-2-3.7c0.4-3,0.9-5.9,1.4-8.9
					c0.4-2.2,0.9-4.3,1.2-6.5c0.1-1.1,0.5-1.4,1.6-1.3C32.8,0.5,33.7,0.4,34.7,0.4"/>
				<path id="Fill-15" class="st1" d="M25.4,0.4c-0.2,3.2-0.2,3.2-3.3,3.2c-4.6,0-9.1,0-13.7,0C7.5,3.6,7.1,3.8,7,4.9
					S6.7,7.2,6.4,8.3C6.1,9.4,6.6,9.6,7.6,9.5c4.6,0,9.1,0,13.7,0c0.5,0,1.7-0.6,1.3,0.7c-0.2,0.9,0.6,2.5-1.5,2.5
					c-4.6,0-9.1,0-13.7,0c-1.3,0-2,0.1-2.1,1.7c-0.1,1.9-0.7,3.7-0.9,5.6c-0.1,1.2-0.6,1.6-1.8,1.4c-0.8-0.1-1.5,0-2.5,0
					c0.5-3.1,1-6,1.5-9C2.2,8.8,2.9,5.2,3.5,1.6c0.1-0.6,0-1.2,1-1.2C11.5,0.4,18.4,0.4,25.4,0.4"/>
				<path id="Fill-17" class="st1" d="M106.5,4.9c-2.9,3.5-5.7,6.8-8.5,10.1c-1.3,1.5-2.7,3-3.8,4.6c-1,1.4-2.1,2.1-3.9,1.8
					c-0.6-0.1-1.3,0-2.2,0c3.6-4.3,7.1-8.4,10.5-12.5c2.1-2.5,4.2-4.9,6.2-7.4c1.6-1.9,3.7-1.7,4.7,0.5c3,6.2,6.1,12.4,9.1,18.6
					c0.1,0.2,0.1,0.4,0.3,0.8c-1.4,0-2.6,0-3.9,0c-1,0-1-0.8-1.2-1.3c-2.2-4.5-4.3-9.1-6.5-13.6C107.1,6,106.9,5.5,106.5,4.9"/>
				<path id="Combined-Shape_1_" class="st1" d="M13.5,18c0.4,0.2,0.6,0.4,0.5,0.9c-0.3,1.5,0.9,2.2,1.6,3.2c0.3,0.3,0.7,0.4,1,0
					c0.1-0.1,0.1-0.1,0.2-0.2l0.2-0.2c0.4-0.4,0.7-0.8,0.5-1.4c-0.2-0.5-0.3-0.8,0.1-1.2c0.3-0.2,0.6-0.2,0.9,0
					c0.4,0.3,0.4,0.7,0.2,1.2c-0.4,0.9-0.1,1.8,0.7,2.1c1.1,0.3,1.7-0.7,2-1.6c0.2-0.4,0-1,0.6-1.3c0.3-0.1,0.6,0.1,0.7,0.3
					c0.4,0.6-0.2,0.9-0.4,1.4c-0.8,1.7-0.6,3.6-0.8,5.4c-0.2,1.2-0.5,1.8-1.8,1.9c-2.6,0.3-5.1,0.9-7.5,2c-0.9,0.4-1.3,0.2-1.7-0.5
					c-0.8-1-1.6-2-2.4-3.1c-0.5-0.6-0.8-1.5-1.8-1.5c-0.4,0-0.7-0.4-0.6-0.9C5.8,24.3,6,24,6.2,23.9C6.6,23.7,6.8,24,7,24.3
					c0.1,0.1,0.1,0.2,0.2,0.3c0.7,0.7,1.7,1.2,2.5,0.5s0.5-1.7-0.5-2.3c-0.4-0.3-0.5-0.6-0.3-1c0.1-0.2,0.3-0.5,0.6-0.5
					c0.4-0.1,0.7,0.2,0.8,0.5c0.1,1.3,1.1,1.8,2,1.7c0.8-0.1,0.9-0.8,0.9-1.4v-0.3c0-0.2,0-0.4,0.1-0.5v0.1v-0.1
					c0-0.8,0.1-1.4-0.5-1.9c-0.3-0.3-0.3-0.7,0.1-1C12.9,18,13.2,17.9,13.5,18z M14,21.7c-0.4,2.4-0.9,2.8-3.1,2.3
					c0.2,1.5-0.6,2.1-2.2,2.3c0.7,1,1.3,1.6,1.7,2.4c0.6,1.2,1.4,1.3,2.6,0.7c2.1-0.9,4.3-1.5,6.5-1.7c0.7-0.1,1.1-0.3,1.2-1.1
					c0.1-1.2,0.2-2.5,0.4-3.8c-0.4,0.2-0.7,0.3-1.1,0.4c-1,0.3-1.4-0.9-2-1c-0.7-0.2-1.2,1.2-2.3,0.8C15,22.8,14.7,21.9,14,21.7z"/>
			</g>
		</g>
	</g>
</g>
</svg>
