<?xml version="1.0" encoding="utf-8"?>
<!-- Generator: Adobe Illustrator 25.2.1, SVG Export Plug-In . SVG Version: 6.00 Build 0)  -->
<svg version="1.1" id="Шар_1" xmlns="http://www.w3.org/2000/svg" xmlns:xlink="http://www.w3.org/1999/xlink" x="0px" y="0px"
	 viewBox="0 0 211 47" style="enable-background:new 0 0 211 47;" xml:space="preserve">
<style type="text/css">
	.st0{fill:#FFB123;}
</style>
<g>
	<path class="st0" d="M22,1.9c-11.9,3.8-6.7,18.4,3.3,11.7c0.5-0.3,1.1-0.7,1.7-1c10.1-1.9,17.8,5.8,18.4,17.5
		c0.9-5.8,0.1-10.9-1.5-15C41,5.5,28.9-0.4,22,1.9z"/>
	<path class="st0" d="M29.5,29.6c0,0.4,0.1,0.9,0.1,1.4c-3,9.9-13.6,13-24.5,7.8c4.4,3.3,9,5.1,13.2,5.8c0,0,0,0,0,0
		c10,2.7,21.7-5,23.2-12.3C43.9,20.2,28.5,17.7,29.5,29.6z"/>
	<path class="st0" d="M12.8,25.3c-0.5-0.3-1.1-0.6-1.7-0.9C4.6,16.5,7.8,6.1,17.8,0C11.9,2.2,7.6,5.6,4.7,9.2
		c-1.1,1.3-2,2.8-2.8,4.4c-0.7,1.4-1.2,2.8-1.4,4.2c0,0,0,0.1,0,0.1c-1.3,6.2,0.1,12.8,3.5,16C13.2,42.4,23.5,30.7,12.8,25.3z"/>
	<path class="st0" d="M58.7,39.9h6.1v1.3c0,1.5-0.2,2.3-0.8,2.7c-0.6,0.4-1.7,0.6-3.5,0.6h-1h-0.8c-0.2,0-0.4,0-0.8,0
		c-0.2,0-0.4,0-0.8,0c-0.2,0-0.4,0-0.8,0c-1.3-0.2-2.1-0.6-2.3-1.5c-0.2-0.8-0.4-1.7-0.4-2.5v-2.1v-1.9c0-1.7,0.4-2.9,0.8-3.3
		c0.4-0.4,1.7-0.6,3.8-0.6c0.6,0,1.3,0,1.9,0s1.3,0,1.9,0c1.3,0,2.1,0.4,2.3,0.8c0.2,0.4,0.4,1.3,0.4,2.1h2.1v-0.6
		c0-1.3-0.4-2.1-1-2.7c-0.6-0.6-1.7-1-3.3-1c-0.4,0-0.8,0-1,0c-0.4,0-0.8,0-1,0c-0.4,0-0.8,0-1,0h-1c-2.5,0-4.2,0.4-5,1.3
		s-1.5,2.3-1.5,4.2v1v1c0,0.4,0,0.6,0,1v1c0,2.3,0.6,3.8,1.7,4.4c1,0.6,3.1,1,6.1,1c0.6,0,1.3,0,1.9,0c0.6,0,1.3,0,1.9-0.2
		c1.7-0.2,2.7-0.6,3.1-1.7c0.4-0.8,0.6-1.9,0.6-3.1v-1v-0.8c0-0.2,0-0.6,0-0.8h-7.9V39.9z"/>
	<path class="st0" d="M81.5,31.7c-0.8-0.6-2.3-1-4.2-1h-8.8v14.8l1.9,0.2v-6.1h6.3c1.3,0,2.1,0.2,2.7,0.6s0.8,1,0.8,2.1v3.3h2.1
		v-3.8c0-0.8-0.2-1.5-0.6-2.1c-0.4-0.4-1.3-0.8-2.3-0.8c1.7-0.2,2.5-0.6,2.9-1.5c0.4-0.8,0.4-1.5,0.4-2.5
		C82.7,33.4,82.3,32.3,81.5,31.7z M79.2,38c-0.6,0.4-1.7,0.6-3.1,0.6H70l0.4-6.3h6.7c1.5,0,2.5,0.2,2.7,0.8c0.4,0.6,0.4,1.3,0.4,2.5
		C80.2,36.7,79.8,37.6,79.2,38z"/>
	<path class="st0" d="M129.1,31.5c-0.4-0.2-0.8-0.4-1.3-0.6c-0.4-0.2-0.8-0.2-1.3-0.2c-0.2,0-0.4,0-0.6,0h-9.2v14.8l1.9,0.2v-5.8
		h5.4c0.2,0,0.2,0,0.4,0c0.2,0,0.2,0,0.4,0c0.8,0,1.5,0,2.3-0.2s1.5-0.4,2.1-0.8c0.4-0.2,0.6-0.6,0.8-1c0.2-0.4,0.2-0.8,0.4-1.3
		c0-0.2,0-0.4,0-0.6c0-0.2,0-0.4,0-0.6c0-0.2,0-0.2,0-0.4s0-0.4,0-0.4c0-0.6-0.2-1-0.4-1.7C129.9,32.1,129.5,31.7,129.1,31.5z
		 M127,38c-0.8,0.2-1.9,0.4-3.5,0.4h-5l0.2-6.1h5.8c0.2,0,0.2,0,0.2,0h0.4c1.5,0,2.3,0.2,2.5,0.8c0.4,0.6,0.4,1.3,0.4,2.3
		C128,36.9,127.6,37.8,127,38z"/>
	<path class="st0" d="M96.7,31.5c-1.3-0.4-3.1-0.8-5.6-0.8h-0.8c-2.9,0-4.8,0.6-5.2,1.9c-0.4,1.3-0.8,2.9-0.8,5v0.8v1.7
		c0,0.4,0,1,0,1.5c0.2,1.9,0.8,3.1,1.9,3.5c1,0.6,2.7,0.8,4.8,0.8h0.4c0.2,0,0.2,0,0.4,0h0.2h0.2h0.2c2.3,0,4-0.4,4.8-1
		s1.3-2.1,1.5-3.8c0-0.8,0-1.7,0-2.7v-2.7C98.6,33.4,98,31.9,96.7,31.5z M96.5,37.1v1.3c0,0.4,0,0.8,0,1.3c0,0.4,0,0.8,0,1.3
		c0,1.9-0.4,2.9-1.5,3.1c-0.8,0.4-2.3,0.6-4.4,0.6c-1.9,0-3.1-0.2-3.5-0.6c-0.4-0.4-0.8-1.5-0.8-2.9v-2.3v-2.9
		c0-1.7,0.4-2.7,0.8-2.9c0.6-0.4,1.7-0.6,3.3-0.6h0.6c2.1,0,3.3,0.2,4.2,0.4c0.8,0.4,1.3,1.5,1.3,3.1V37.1z"/>
	<path class="st0" d="M112.8,41.3c0,1.3-0.4,2.3-1,2.5c-0.6,0.4-1.9,0.6-3.3,0.6h-2.1c-1.5,0-2.7-0.2-3.1-0.6
		c-0.6-0.4-0.8-1.3-0.8-2.5V30.9h-2.1v10.4c0,2.1,0.6,3.3,1.9,4c1.3,0.4,3.1,0.6,5.4,0.6c0.4,0,0.6,0,1,0c0.4,0,0.6,0,1,0
		c2.1,0,3.5-0.4,4.2-1c0.6-0.6,1-1.9,1-3.3V31.1h-2.1V41.3z"/>
	<polygon class="st0" points="104.9,21.9 107.8,21.9 107.8,13.4 117.6,1.5 114.2,1.5 106.5,11.1 98.8,1.5 95.5,1.5 104.9,13.4 	"/>
	<path class="st0" d="M54.8,11.5c2.1,0.6,4.4,0.8,7.1,0.8c0.4,0,0.8,0,1.3,0c0.4,0,0.8,0,1.3,0c1.7,0,2.7,0.4,3.3,0.8
		c0.4,0.4,0.8,1.3,0.8,2.7c0,1.7-0.4,2.9-1.3,3.1c-0.8,0.4-2.3,0.6-4.4,0.6h-2.5c-2.3,0-4-0.2-4.6-0.8s-1-1.9-1-3.8h-2.7v0.2v0.2
		v0.2v0.2c0,2.5,0.8,4.2,2.7,4.8c1.7,0.6,4,0.8,6.7,0.8h1.3c0.4,0,0.8,0,1.3,0c0.4,0,0.8,0,1.3,0c0.4,0,0.8,0,1.3,0
		c2.3-0.2,3.8-0.8,4.4-1.9c0.2-0.8,0.4-2.1,0.4-3.8c0-2.7-0.8-4.4-2.7-4.8c-1.9-0.4-4-0.6-6.5-0.6c-0.6,0-1,0-1.7,0
		c-0.6,0-1,0-1.7,0c-1.7,0-2.7-0.4-3.1-1C55.2,8.8,55,7.9,55,6.9c0-0.2,0-0.2,0-0.4c0-0.2,0-0.4,0-0.4c0-0.4,0.2-0.6,0.4-1
		c0.2-0.4,0.4-0.6,0.8-0.8C56.6,4,57.1,4,57.5,3.8c0.4,0,1-0.2,1.5-0.2c0.4,0,0.8,0,1.3,0c0.4,0,0.8,0,1,0h1.5c2.1,0,3.3,0.2,4,0.8
		c0.6,0.4,1,1.5,1,3.1h2.9V6.9c0-2.7-0.8-4.2-2.7-4.8c-1.7-0.4-4-0.8-6.7-0.8h-0.6c-2.7,0-4.8,0.4-6.5,0.8c-1.7,0.4-2.3,2.1-2.3,4.6
		C51.8,9.4,52.9,11.1,54.8,11.5z"/>
	<polygon class="st0" points="76.3,12.5 78.8,12.5 90.5,22.1 94.4,22.1 81.3,11.5 93,1.5 89.2,1.5 78.8,10.4 76.3,10.4 76.3,1.5 
		73.3,1.5 73.3,22.1 76.3,22.1 	"/>
	<polygon class="st0" points="147,20.2 140.1,1.5 135.9,1.5 129.1,20.2 122,1.5 119,1.5 127,22.1 131.4,22.1 138.2,3.5 144.9,22.1 
		149.3,22.1 157.4,1.5 154.3,1.5 	"/>
	<polygon class="st0" points="183.7,20.2 169.3,1.5 164.7,1.5 164.7,22.1 167.5,22.1 167.5,3.3 181.9,21.9 186.5,21.9 186.5,1.5 
		183.7,1.5 	"/>
	<path class="st0" d="M208.4,3.5c-1.3-1.5-3.8-2.3-7.5-2.3H189v20.7h12.7c4,0,6.5-1,7.3-2.9c0.8-2.1,1.3-4.2,1.3-6.9V10
		C210.2,7.1,209.6,5,208.4,3.5z M207.3,12.1v1c0,0.4,0,0.6,0,1c0,0.4,0,0.6,0,1c0,0.6-0.2,1.5-0.4,2.1c-0.2,0.4-0.4,0.8-0.8,1.5
		c-0.4,0.4-1,0.8-1.7,0.8c-0.6,0.2-1.3,0.2-2.1,0.4c-0.4,0-0.6,0-1,0h-1h-8.3V3.5h9c1.7,0,3.1,0.2,4.2,0.6c1,0.4,1.9,1.5,2.1,2.9
		c0.2,0.8,0.2,1.7,0.2,2.5S207.3,11.3,207.3,12.1z"/>
	<rect x="159.3" y="1.5" class="st0" width="2.9" height="20.5"/>
</g>
</svg>
