<?xml version="1.0" encoding="UTF-8"?>
<svg width="162px" height="50px" viewBox="0 0 162 50" version="1.1" xmlns="http://www.w3.org/2000/svg" xmlns:xlink="http://www.w3.org/1999/xlink">
    <title>mascot_gaming_hover</title>
    <g id="UI" stroke="none" stroke-width="1" fill="none" fill-rule="evenodd">
        <g id="new_des_footer_se" transform="translate(-1735.000000, -655.000000)" fill="#FFB124" fill-rule="nonzero">
            <g id="mascot_gaming_hover" transform="translate(1735.000000, 655.000000)">
                <path d="M0,28.6 C0.242524986,28.0281171 0.387856665,27.4197519 0.43,26.8 C1.29928974,23.3239498 3.76027449,20.4632236 7.06745791,19.0844098 C10.3746413,17.7055959 14.1389215,17.9709169 17.22,19.8 C17.74,20.11 17.99,20.39 17.78,21.05 C17.5659709,21.6915283 17.3052745,22.3165312 17,22.92 C16.73,23.45 16.53,23.57 16,23.17 C13.9437417,21.6751091 11.288564,21.2745801 8.88283563,22.0963881 C6.4771073,22.918196 4.62190743,24.8594909 3.91,27.3 C3.67262948,28.1796552 3.56482819,29.0892286 3.59,30 C3.59,34.62 3.59,39.23 3.59,43.84 C3.59,44.49 3.8,44.61 4.4,44.61 C17.26,44.61 30.12,44.61 42.98,44.61 C43.64,44.61 43.76,44.41 43.76,43.81 C43.76,39.3 43.76,34.81 43.76,30.3 C43.7068276,29.805114 43.9059734,29.3166433 44.29,29 C45.2155759,28.2018729 46.0146731,27.267907 46.66,26.23 C47.11,27.03 46.95,27.89 47.31,28.61 L47.31,28.93 C47.2034542,29.2035494 47.1757387,29.5014918 47.23,29.79 C47.23,35.8766667 47.23,41.97 47.23,48.07 C47.2702154,48.3610344 47.2497873,48.6572416 47.17,48.94 C46.9412039,49.0148642 46.6981148,49.035407 46.46,49 L0.8,49 C0.588049761,49.0343546 0.371950239,49.0343546 0.16,49 C0.0626469042,48.7242192 0.0385274525,48.4278945 0.09,48.14 C0.09,42.0866667 0.09,36.0366667 0.09,29.99 C0.150959066,29.684456 0.119629917,29.3676835 0,29.08 L0,28.6 Z" id="Path"></path>
                <path d="M47.31,20.44 C46.99,20.75 47.09,21.18 47.03,21.54 C46.3686005,25.2372209 43.9179667,28.3663742 40.487009,29.8945824 C37.0560512,31.4227907 33.0907574,31.1514032 29.9,29.17 C29.7103266,29.0952758 29.5598816,28.9456134 29.4841692,28.7563323 C29.4084567,28.5670512 29.4141842,28.3549199 29.5,28.17 C29.7027361,27.3705394 30.0157378,26.6031803 30.43,25.89 C30.65,25.5 30.82,25.48 31.2,25.76 C33.3378244,27.3725078 36.1533674,27.775663 38.6577983,26.827876 C41.1622292,25.8800889 43.005407,23.7138683 43.54,21.09 C43.6682682,20.4313648 43.7252632,19.7608354 43.71,19.09 C43.71,14.45 43.71,9.81 43.71,5.18 C43.71,4.52 43.5,4.4 42.9,4.4 C30.06,4.4 17.2233333,4.4 4.39,4.4 C3.72,4.4 3.56,4.58 3.56,5.24 C3.56,9.71 3.56,14.24 3.56,18.67 C3.63095795,19.1695812 3.44249591,19.6708902 3.06,20 C2.09659799,20.8297465 1.27276613,21.8088909 0.62,22.9 C0.346664715,22.1126801 0.181816889,21.2918052 0.13,20.46 C0.0953975059,20.2782994 0.0953975059,20.0917006 0.13,19.91 L0.13,1.63 C0.0927843584,1.44816777 0.0961990597,1.2603592 0.14,1.08 C0.366084802,0.99368575 0.61037668,0.966159904 0.85,1 L46.51,1 C46.7185368,0.964941627 46.9314632,0.964941627 47.14,1 C47.2455083,1.27379365 47.2731966,1.57144311 47.22,1.86 C47.22,7.65333333 47.22,13.4366667 47.22,19.21 C47.1657387,19.4985082 47.1934542,19.7964506 47.3,20.07 L47.31,20.44 Z" id="Path"></path>
                <line x1="47.31" y1="48.91" x2="47.13" y2="48.91" id="Path"></line>
                <path d="M47.16,29.72 C47.16,29.45 46.98,29.13 47.31,28.92" id="Path"></path>
                <path d="M11.61,30.86 C9.43828913,30.8967791 7.30008105,30.3215076 5.44,29.2 C5.05677595,29.0306319 4.86596186,28.5969635 5,28.2 C5.18041955,27.4248349 5.48069864,26.682572 5.89,26 C6.15,25.57 6.33,25.56 6.74,25.86 C9.13464315,27.6402548 12.334385,27.9004804 14.9852227,26.5305598 C17.6360604,25.1606392 19.2746642,22.4000155 19.2076423,19.4168743 C19.1406205,16.4337332 17.3796876,13.7494864 14.67,12.5 C14.5372047,12.4031004 14.3685397,12.3694438 14.2087238,12.4079537 C14.0489079,12.4464635 13.9140846,12.5532498 13.84,12.7 C13.2654473,13.510994 12.2943007,13.9440417 11.3070323,13.8294852 C10.3197639,13.7149288 9.47358177,13.0710096 9.1,12.15 C8.96102203,11.8451063 8.72073817,11.5977552 8.42,11.45 C7.28194666,10.8185247 6.7479192,9.47147681 7.14414661,8.23174686 C7.54037403,6.99201691 8.7566623,6.2043837 10.05,6.35 C10.4003494,6.40065879 10.7569875,6.31863204 11.05,6.12 C11.8935233,5.59627242 12.9548859,5.57180723 13.8216451,6.05611154 C14.6884043,6.54041586 15.2238847,7.4571218 15.22,8.45 C15.22,8.9 15.45,9 15.78,9.15 C20.317525,11.0508735 23.1038146,15.6690177 22.6697455,20.5694297 C22.2356763,25.4698417 18.6810057,29.5263157 13.88,30.6 C13.1382224,30.7870091 12.3748515,30.8744436 11.61,30.86 Z" id="Path"></path>
                <path d="M24.55,29.63 C24.73,25.12 26.55,21.75 30.38,19.63 C33.9169971,17.5623091 38.3100453,17.631673 41.78,19.81 C42.0130663,19.8895441 42.1994867,20.067357 42.2899514,20.2964058 C42.380416,20.5254545 42.3658112,20.782664 42.25,21 C42.0536221,21.6926772 41.7855038,22.3629731 41.45,23 C41.19,23.47 41.03,23.63 40.45,23.23 C38.0690381,21.4862644 34.9085093,21.2335467 32.2807118,22.5767791 C29.6529142,23.9200114 28.0066893,26.6297628 28.025574,29.5809043 C28.0444587,32.5320459 29.7252274,35.2205074 32.37,36.53 C32.83,36.75 33.11,36.87 33.53,36.32 C34.1194209,35.5725159 35.0578082,35.1890933 36.0020255,35.3099367 C36.9462428,35.4307801 37.7578234,36.0381683 38.14,36.91 C38.2810233,37.2432113 38.5314777,37.5183584 38.85,37.69 C40.0020986,38.3352419 40.5272314,39.7125773 40.0971458,40.9610542 C39.6670603,42.2095311 38.4050589,42.9712198 37.1,42.77 C36.8158634,42.7297614 36.5281331,42.813531 36.31,43 C35.4736871,43.5369659 34.4121773,43.5789694 33.5360505,43.1097641 C32.6599238,42.6405588 32.1065623,41.733719 32.09,40.74 C32.09,40.27 31.87,40.14 31.51,39.97 C27.3409221,38.2132122 24.6084249,34.1537264 24.55,29.63 L24.55,29.63 Z" id="Path"></path>
                <path d="M22.21,26.11 C23.106392,28.9517088 22.8291404,32.0338823 21.44,34.67 C20.2498301,37.0204173 18.2556035,38.8656091 15.82,39.87 C15.4167362,39.9706215 15.1431375,40.3452413 15.17,40.76 C15.1244185,41.7084252 14.5893127,42.5650417 13.756984,43.0220065 C12.9246552,43.4789713 11.9146747,43.4706375 11.09,43 C10.7405686,42.7737491 10.3238289,42.6748618 9.91,42.72 C8.64040592,42.833302 7.46777314,42.0333989 7.11,40.81 C6.74463361,39.6225601 7.23028439,38.3384665 8.29,37.69 C8.67358597,37.4830759 8.97907924,37.1565141 9.16,36.76 C9.57418787,35.9062082 10.4020284,35.3287515 11.3463324,35.234933 C12.2906365,35.1411144 13.2159153,35.5443951 13.79,36.3 C14.11,36.71 14.33,36.75 14.73,36.54 C17.3009035,35.3415742 19.0089351,32.8313434 19.18,30 C19.158276,29.7091389 19.2728018,29.4246717 19.49,29.23 C20.5598056,28.3443265 21.4784621,27.2905735 22.21,26.11 L22.21,26.11 Z" id="Path"></path>
                <path d="M25.11,22.89 C24.4876202,21.038748 24.3975348,19.0499383 24.85,17.15 C25.6101459,13.5395637 28.1130838,10.5420332 31.53,9.15 C31.94,8.97 32.12,8.82 32.14,8.32 C32.1769806,7.34323233 32.7315061,6.46013455 33.5952296,6.00250541 C34.4589531,5.54487627 35.5010568,5.58202728 36.33,6.1 C36.6209519,6.30331609 36.9794578,6.38577245 37.33,6.33 C38.621707,6.17992633 39.8336683,6.98227005 40.2,8.23 C40.6003533,9.44237335 40.0898515,10.7688411 38.98,11.4 C38.6571084,11.5611872 38.3968388,11.824974 38.24,12.15 C37.8665811,13.0552661 37.0338287,13.6886606 36.0617226,13.8068057 C35.0896166,13.9249507 34.1293886,13.5094665 33.55,12.72 C33.21,12.27 32.97,12.32 32.55,12.52 C29.9822943,13.7290805 28.2822612,16.2465111 28.12,19.08 C28.148282,19.3432386 28.0477272,19.6039363 27.85,19.78 C26.7787084,20.6660294 25.8539951,21.7156129 25.11,22.89 L25.11,22.89 Z" id="Path"></path>
                <polygon id="Path" points="68.91 15.87 74.77 1.76 77.46 1.76 77.46 19.11 75.7 19.11 75.7 4.11 75.7 4.11 69.43 19.11 68.5 19.11 62.23 4.11 62.23 4.11 62.23 19.11 60.36 19.11 60.36 1.76 63.06 1.76"></polygon>
                <path d="M81.87,19.11 L79.82,19.11 L87.36,1.76 L89.08,1.76 L96.62,19.11 L94.56,19.11 L92.65,14.55 L83.78,14.55 L81.87,19.11 Z M84.45,12.93 L92,12.93 L88.22,3.82 L84.45,12.93 Z" id="Shape"></path>
                <path d="M107.18,4.63 C106.43548,3.51459088 105.159374,2.87274016 103.82,2.94 C103.367316,2.94014601 102.916675,3.00067991 102.48,3.12 C102.051116,3.23374256 101.647439,3.42710069 101.29,3.69 C100.933726,3.95373562 100.642894,4.29589103 100.44,4.69 C100.22502,5.12474784 100.118648,5.6051358 100.13,6.09 C100.0868,6.76511781 100.325826,7.4278695 100.79,7.92 C101.263725,8.38012932 101.820161,8.74656231 102.43,9 C103.128602,9.28736853 103.843108,9.53444075 104.57,9.74 C105.317531,9.95139647 106.038776,10.2466034 106.72,10.62 C107.363996,10.9848881 107.923029,11.4825632 108.36,12.08 C108.836496,12.8161726 109.067547,13.6843645 109.02,14.56 C109.029047,15.2969043 108.857373,16.0247986 108.52,16.68 C108.18953,17.2921794 107.736843,17.8299579 107.19,18.26 C106.639583,18.6923684 106.021166,19.0303012 105.36,19.26 C104.714762,19.4754167 104.040176,19.5900963 103.36,19.6 C102.330197,19.6 101.310587,19.3960781 100.36,19 C99.3811503,18.570037 98.540188,17.8778869 97.93,17 L99.54,15.84 C99.8930398,16.459936 100.394777,16.9822925 101,17.36 C101.725608,17.7564618 102.54347,17.9531627 103.37,17.93 C103.814875,17.9278704 104.256751,17.8570353 104.68,17.72 C105.11102,17.5921145 105.514532,17.3852722 105.87,17.11 C106.221909,16.8360322 106.517361,16.4964324 106.74,16.11 C106.968957,15.6972845 107.086157,15.2319294 107.08,14.76 C107.096482,14.2310942 106.964868,13.7081024 106.7,13.25 C106.442354,12.8487165 106.101283,12.5076463 105.7,12.25 C105.256868,11.9675812 104.779734,11.7424546 104.28,11.58 L102.64,11.04 C102.08,10.86 101.53,10.65 101,10.43 C100.486156,10.2119952 100.007589,9.91878833 99.58,9.56 C99.1588408,9.19006961 98.8184288,8.73732169 98.58,8.23 C98.3071628,7.59958472 98.1773864,6.91655095 98.2,6.23 C98.181424,5.47521579 98.3461289,4.72718119 98.68,4.05 C99.0014349,3.44865592 99.452264,2.92610392 100,2.52 C100.536349,2.10673316 101.147577,1.80111936 101.8,1.62 C102.448966,1.42521286 103.122444,1.32419117 103.8,1.32 C104.711463,1.30951965 105.616904,1.46890446 106.47,1.79 C107.339282,2.14068666 108.106213,2.70470788 108.7,3.43 L107.18,4.63 Z" id="Path"></path>
                <path d="M126.88,16.36 C126.227338,17.320291 125.343539,18.1009225 124.31,18.63 C123.738169,18.9227355 123.134066,19.1475959 122.51,19.3 C121.840235,19.4710041 121.151233,19.5550287 120.46,19.55 C119.229274,19.5619211 118.008617,19.3273103 116.87,18.86 C114.699209,17.9856961 112.979746,16.2626209 112.11,14.09 C111.640784,12.9309654 111.406254,11.6903344 111.42,10.44 C111.406254,9.18642322 111.64076,7.94252205 112.11,6.78 C112.540259,5.70579688 113.183121,4.72959947 114,3.91 C114.821715,3.09074581 115.797009,2.44168264 116.87,2 C118.008617,1.53268972 119.229274,1.29807886 120.46,1.31 C121.567814,1.31355015 122.664533,1.53085671 123.69,1.95 C124.788046,2.38832334 125.745746,3.11783502 126.46,4.06 L124.92,5.21 C124.711082,4.89888024 124.462297,4.61647646 124.18,4.37 C123.856397,4.08609387 123.500637,3.84108954 123.12,3.64 C122.707279,3.42655124 122.275372,3.2524491 121.83,3.12 C121.38434,2.99350536 120.923264,2.92956038 120.46,2.93 C119.427241,2.90949366 118.402744,3.11780819 117.46,3.54 C116.609651,3.92877657 115.847469,4.48680196 115.22,5.18 C114.602313,5.87976907 114.123763,6.69092885 113.81,7.57 C113.156475,9.41723498 113.156475,11.432765 113.81,13.28 C114.123763,14.1590712 114.602313,14.9702309 115.22,15.67 C115.847469,16.363198 116.609651,16.9212234 117.46,17.31 C118.402744,17.7321918 119.427241,17.9405063 120.46,17.92 C120.915985,17.9201909 121.371093,17.8800343 121.82,17.8 C122.276396,17.718015 122.720143,17.5768229 123.14,17.38 C123.58561,17.1767333 123.999814,16.9106996 124.37,16.59 C124.778744,16.2199228 125.135336,15.7960495 125.43,15.33 L126.88,16.36 Z" id="Path"></path>
                <path d="M146.75,10.44 C146.763746,11.6903344 146.529216,12.9309654 146.06,14.09 C145.182402,16.2574366 143.46559,17.9778551 141.3,18.86 C138.995162,19.7804301 136.424838,19.7804301 134.12,18.86 C131.949337,17.982037 130.227963,16.2606633 129.35,14.09 C128.884204,12.9302689 128.653078,11.6896621 128.67,10.44 C128.653077,9.1870936 128.88418,7.9432165 129.35,6.78 C129.78371,5.70520337 130.429955,4.72903478 131.25,3.91 C132.070026,3.08868337 133.045759,2.43932848 134.12,2 C136.424838,1.07956988 138.995162,1.07956988 141.3,2 C142.369088,2.43893408 143.341003,3.084612 144.16,3.9 C144.980045,4.71903478 145.62629,5.69520337 146.06,6.77 C146.530539,7.93563563 146.76507,9.1830646 146.75,10.44 Z M144.840003,10.44 C144.840811,9.46571168 144.675092,8.4984519 144.35,7.58 C144.036237,6.70092885 143.557687,5.88976907 142.94,5.19 C140.812222,2.97877261 137.533429,2.32460953 134.72,3.55 C133.869651,3.93877657 133.107469,4.49680196 132.48,5.19 C131.855221,5.88459294 131.375802,6.69722398 131.07,7.58 C130.416475,9.42723498 130.416475,11.442765 131.07,13.29 C131.375802,14.172776 131.855221,14.9854071 132.48,15.68 C133.107469,16.373198 133.869651,16.9312234 134.72,17.32 C137.524395,18.6249125 140.851081,17.9611941 142.94,15.68 C143.557687,14.9802309 144.036237,14.1690712 144.35,13.29 C144.67416,12.3747626 144.840003,11.4109475 144.840003,10.44 L144.840003,10.44 Z" id="Shape"></path>
                <polygon id="Path" points="155.84 19.11 154.07 19.11 154.07 3.38 148.27 3.38 148.27 1.76 161.64 1.76 161.64 3.38 155.84 3.38"></polygon>
                <path d="M73.18,34.35 C72.5822884,33.7235466 71.8647403,33.2236435 71.07,32.88 C69.193015,32.1360892 67.0985824,32.1612368 65.24,32.95 C64.3896505,33.3387766 63.6274695,33.896802 63,34.59 C62.3801262,35.2957149 61.9014673,36.1138482 61.59,37 C60.9364746,38.847235 60.9364746,40.862765 61.59,42.71 C61.9082031,43.5809637 62.3864164,44.384769 63,45.08 C63.6274695,45.773198 64.3896505,46.3312234 65.24,46.72 C66.1827435,47.1421918 67.2072412,47.3505063 68.24,47.33 C69.10741,47.3328348 69.9714455,47.2218886 70.81,47 C71.5749901,46.7980088 72.3109728,46.4989109 73,46.11 L73,40.3 L68.89,40.3 L68.89,38.68 L74.79,38.68 L74.79,47.18 C73.784518,47.7677604 72.700234,48.2088821 71.57,48.49 C70.4813544,48.7876659 69.3585809,48.9422994 68.23,48.95 C66.999274,48.9619211 65.7786175,48.7273103 64.64,48.26 C63.5678408,47.8212893 62.5926078,47.1756647 61.77,46.36 C60.9499026,45.5371598 60.3037471,44.5577241 59.87,43.48 C58.9637209,41.1310511 58.9637209,38.5289489 59.87,36.18 C60.7390497,34.0034491 62.4634491,32.2790497 64.64,31.41 C65.7786175,30.9426897 66.999274,30.7080789 68.23,30.72 C69.4521514,30.6909256 70.6691814,30.8875488 71.82,31.3 C72.8295721,31.6822746 73.7440071,32.279387 74.5,33.05 L73.18,34.35 Z" id="Path"></path>
                <path d="M79.13,48.51 L77.07,48.51 L84.62,31.16 L86.33,31.16 L93.88,48.51 L91.82,48.51 L89.91,44 L81,44 L79.13,48.51 Z M81.7,42.33 L89.22,42.33 L85.48,33.22 L81.7,42.33 Z" id="Shape"></path>
                <polygon id="Path" points="104.78 45.27 110.64 31.16 113.33 31.16 113.33 48.51 111.57 48.51 111.57 33.51 111.57 33.51 105.3 48.51 104.36 48.51 98 33.51 98 33.51 98 48.51 96.23 48.51 96.23 31.16 98.92 31.16"></polygon>
                <polygon id="Path" points="119.8 48.51 118 48.51 118 31.16 119.77 31.16"></polygon>
                <polygon id="Path" points="137 45.86 137.05 45.86 137.05 31.16 138.82 31.16 138.82 48.51 136.61 48.51 126.31 33.66 126.31 33.66 126.31 48.51 124.5 48.51 124.5 31.16 126.71 31.16"></polygon>
                <path d="M156.37,34.35 C155.776116,33.7236044 155.061835,33.2236083 154.27,32.88 C152.393015,32.1360892 150.298582,32.1612368 148.44,32.95 C147.58806,33.3360601 146.82536,33.8944657 146.2,34.59 C145.572926,35.2904937 145.093388,36.1101299 144.79,37 C144.136475,38.847235 144.136475,40.862765 144.79,42.71 C145.098227,43.5916522 145.577377,44.4038279 146.2,45.1 C146.82536,45.7955343 147.58806,46.3539399 148.44,46.74 C149.382744,47.1621918 150.407241,47.3705063 151.44,47.35 C152.304878,47.3445309 153.165393,47.2268824 154,47 C154.774142,46.7968372 155.519904,46.4978604 156.22,46.11 L156.22,40.3 L152.08,40.3 L152.08,38.68 L158,38.68 L158,47.18 C156.994518,47.7677604 155.910234,48.2088821 154.78,48.49 C153.691354,48.7876659 152.568581,48.9422994 151.44,48.95 C150.209274,48.9619211 148.988617,48.7273103 147.85,48.26 C145.675437,47.3826791 143.952765,45.6563951 143.08,43.48 C142.173721,41.1310511 142.173721,38.5289489 143.08,36.18 C143.94905,34.0034491 145.673449,32.2790497 147.85,31.41 C148.988617,30.9426897 150.209274,30.7080789 151.44,30.72 C152.658899,30.6907809 153.872677,30.8874265 155.02,31.3 C156.03257,31.6821347 156.950299,32.2791701 157.71,33.05 L156.37,34.35 Z" id="Path"></path>
            </g>
        </g>
    </g>
</svg>