<?xml version="1.0" encoding="UTF-8"?>
<svg width="216px" height="48px" viewBox="0 0 216 48" version="1.1" xmlns="http://www.w3.org/2000/svg" xmlns:xlink="http://www.w3.org/1999/xlink">
    <title>Ct_gaming</title>
    <g id="design" stroke="none" stroke-width="1" fill="none" fill-rule="evenodd">
        <g id="main" transform="translate(-1343.000000, -535.000000)" fill="#FFB124" fill-rule="nonzero">
            <g id="Ct_gaming" transform="translate(1343.000000, 535.000000)">
                <path d="M139.36367,31.7288136 L124.409549,31.7288136 L126.770726,27.7431025 L132.602118,27.7431025 L128.702598,21.1926731 L128.094416,21.1926731 L121.833719,31.6941552 L117.397569,31.6941552 L126.484523,16.2711864 L130.240941,16.2711864 L139.36367,31.7288136 Z M167.024687,31.7288136 L171.906043,31.7288136 L171.906043,16.2711864 L167.024687,16.2711864 L167.024687,31.7288136 Z M72.6518058,20.1269092 L79.4901446,20.1269092 L79.4901446,31.7288136 L83.8164406,31.7288136 L83.8164406,20.1269092 L90.5501109,20.1269092 L90.5501109,16.2711864 L72.6518058,16.2711864 L72.6518058,20.1269092 Z M58.7283192,16.2711864 C57.5877865,16.2711864 56.5898204,16.4107587 55.7700625,16.6899032 C54.9503046,16.9690477 54.308755,17.3877645 53.7741303,17.9111604 C53.2751472,18.4345564 52.9187308,19.0975246 52.6692393,19.865172 C52.4553894,20.6328194 52.3128228,21.4702529 52.3128228,22.4123656 L52.3128228,25.6225275 C52.3128228,26.5646402 52.4197477,27.4020737 52.6692393,28.1697211 C52.8830891,28.9373685 53.2751472,29.5654436 53.7741303,30.0888396 C54.2731133,30.6122355 54.9503046,31.0309523 55.7700625,31.3100968 C56.5898204,31.5892413 57.5877865,31.7288136 58.7283192,31.7288136 L71.0246872,31.7288136 L71.0246872,27.7858974 L59.1203773,27.7858974 C58.2293361,27.7858974 57.6234281,27.6114321 57.3026533,27.2276084 C56.9462368,26.8437847 56.7680286,26.2157095 56.7680286,25.2735968 L56.7680286,22.6566171 C56.7680286,21.7145043 56.9462368,21.0515361 57.3026533,20.7026055 C57.6590698,20.3536749 58.2649778,20.1792095 59.1203773,20.1792095 L71.0246872,20.1792095 L71.0246872,16.2711864 L58.7283192,16.2711864 L58.7283192,16.2711864 Z M201.302653,20.6926248 C201.65907,20.3444801 202.264978,20.1704077 203.120377,20.1704077 L208.929966,20.1704077 L208.929966,20.1704077 L214.989046,20.1704077 L214.989046,16.2711864 L202.728319,16.2711864 C201.552145,16.2711864 200.58982,16.4452588 199.770062,16.7237746 C198.950305,17.0022904 198.308755,17.4200641 197.77413,17.9422813 C197.275147,18.4644984 196.918731,19.1259734 196.669239,19.8918919 C196.455389,20.6578104 196.312823,21.4933578 196.312823,22.4333486 L196.312823,25.6362803 C196.312823,26.5762712 196.419748,27.4118186 196.669239,28.1777371 C196.883089,28.9436555 197.275147,29.5703161 197.77413,30.0925332 C198.273113,30.6147503 198.950305,31.032524 199.770062,31.3110399 C200.58982,31.5895557 201.587786,31.7288136 202.728319,31.7288136 L215.024687,31.7288136 L215.024687,23.9651855 L210.961539,23.9651855 L210.961539,27.7599634 L203.156019,27.7599634 C202.264978,27.7599634 201.65907,27.585891 201.338295,27.2029317 C200.981878,26.8199725 200.80367,26.193312 200.80367,25.2533211 L200.80367,22.6422355 C200.768029,21.7022446 200.946237,21.0407696 201.302653,20.6926248 Z M102.861975,20.6926248 C103.218392,20.3444801 103.8243,20.1704077 104.679699,20.1704077 L110.489288,20.1704077 L110.489288,20.1704077 L116.548368,20.1704077 L116.548368,16.2711864 L104.287641,16.2711864 C103.147109,16.2711864 102.149142,16.4452588 101.329385,16.7237746 C100.509627,17.0022904 99.868077,17.4200641 99.3334523,17.9422813 C98.8344693,18.4644984 98.4780528,19.1259734 98.2285613,19.8918919 C98.0147114,20.6578104 97.8721448,21.4933578 97.8721448,22.4333486 L97.8721448,25.6362803 C97.8721448,26.5762712 97.9790698,27.4118186 98.2285613,28.1777371 C98.4780528,28.9436555 98.8344693,29.5703161 99.3334523,30.0925332 C99.8324354,30.6147503 100.509627,31.032524 101.329385,31.3110399 C102.149142,31.5895557 103.147109,31.7288136 104.287641,31.7288136 L116.584009,31.7288136 L116.584009,23.9651855 L112.520862,23.9651855 L112.520862,27.7599634 L104.715341,27.7599634 C103.8243,27.7599634 103.218392,27.585891 102.897617,27.2029317 C102.541201,26.8199725 102.362992,26.193312 102.362992,25.2533211 L102.362992,22.6422355 C102.327351,21.7022446 102.505559,21.0407696 102.861975,20.6926248 Z M152.522933,26.7962674 L152.202727,26.7962674 L147.292909,16.2711864 L140.17723,16.2711864 L140.17723,31.7288136 L144.588951,31.7288136 L144.588951,20.7521615 L145.05147,20.7521615 L150.388229,31.7288136 L154.37301,31.7288136 L159.709769,20.7521615 L160.207867,20.7521615 L160.207867,31.7288136 L164.584009,31.7288136 L164.584009,16.2711864 L157.46833,16.2711864 L152.522933,26.7962674 Z M190.362471,27.7688821 L189.866362,27.7688821 L181.503385,16.2711864 L175.16028,16.2711864 L175.16028,31.7288136 L179.51895,31.7288136 L179.51895,20.2658541 L179.979623,20.2658541 L188.200854,31.7288136 L194.685704,31.7288136 L194.685704,16.2711864 L190.362471,16.2711864 L190.362471,27.7688821 Z M36.0125654,36.7162304 L25.9853403,46.8691099 C24.8041885,48.0753927 22.8942408,48.0753927 21.713089,46.8691099 L1.13089005,26.0356021 C-0.0502617801,24.8293194 -0.0502617801,22.8942408 1.13089005,21.713089 L6.8104712,15.9832461 L11.886911,15.9832461 C17.6167539,15.9832461 20.2303665,14.6010471 21.1602094,11.0575916 L12.6408377,11.0575916 L11.660733,11.0575916 L21.713089,0.904712042 C22.8942408,-0.301570681 24.8041885,-0.301570681 25.9853403,0.904712042 L36.0125654,11.0575916 L30.7853403,11.0575916 C23.2963351,11.0575916 21.1099476,13.3696335 21.1099476,19.8534031 L21.1099476,27.895288 C21.1099476,34.3790576 23.2963351,36.6910995 30.7853403,36.6910995 L36.0125654,36.6910995 L36.0125654,36.7162304 Z M46.5424084,26.0356021 L40.8376963,31.8157068 L31.0617801,31.8157068 C27.5685864,31.8157068 26.7141361,30.8858639 26.7141361,27.6691099 L26.7141361,20.1549738 C26.7141361,16.9884817 27.5685864,15.9832461 31.0366492,15.9832461 L40.8879581,15.9832461 L46.5675393,21.713089 C47.7235602,22.8942408 47.7235602,24.8544503 46.5424084,26.0356021 Z" id="Shape"></path>
            </g>
        </g>
    </g>
</svg>