<?xml version="1.0" encoding="utf-8"?>
<!-- Generator: Adobe Illustrator 25.2.1, SVG Export Plug-In . SVG Version: 6.00 Build 0)  -->
<svg version="1.1" id="Шар_1" xmlns="http://www.w3.org/2000/svg" xmlns:xlink="http://www.w3.org/1999/xlink" x="0px" y="0px"
	 viewBox="0 0 158 26" style="enable-background:new 0 0 158 26;" xml:space="preserve">
<style type="text/css">
	.st0{fill:#FFB123;}
</style>
<g>
	<path class="st0" d="M143.7,11.9c0-0.1,0-0.2,0-0.3c0-0.1,0-0.3-0.1-0.4c-0.2-1.2-0.8-2.2-1.8-3c-0.6-0.4-1.3-0.7-2.1-0.8
		c-1.2-0.1-2.3,0-3.3,0.7c-0.3,0.2-0.6,0.4-0.8,0.6v-1c0,0-0.1-0.1-0.2-0.1c-1.1,0-2.2,0-3.3,0c-0.2,0-0.2,0.1-0.2,0.3
		c0,3.9,0,7.8,0,11.7c0,0.2,0.1,0.3,0.3,0.3c1.1,0,2.1,0,3.2,0c0.1,0,0.2,0,0.2,0c0,0,0,0,0,0c0,0,0,0,0,0c0,0,0,0,0,0c0,0,0,0,0,0
		c0-0.7,0-1.4,0-2.1c0-1.5,0-3.1,0-4.6c0,0,0,0,0-0.1c0,0,0,0,0,0.1c0.1-0.1,0.1-0.2,0.1-0.4c0,0,0,0.1-0.1,0.1c0,0,0-0.1,0-0.1
		c0-1,0.7-1.9,1.8-1.9c0.1,0,0.2,0,0.2,0c-0.1,0-0.2,0-0.2,0.1h0.7c-0.1,0-0.2,0-0.2-0.1c0.1,0,0.2,0,0.2,0c1.1,0.2,1.7,1,1.7,1.9
		c0,0.1,0,0.2,0,0.3c0,2.2,0,4.3,0,6.5c0,0,0,0.1,0,0.1c0,0,0-0.1,0-0.1c0-2.2,0-4.3,0-6.5c0-0.1,0-0.2,0-0.3c0,2.3,0,4.6,0,6.9
		c0,0.2,0.1,0.3,0.3,0.3c1.1,0,2.1,0,3.2,0c0.1,0,0.2,0,0.2-0.1c0,0,0,0,0,0c0,0,0,0,0,0L143.7,11.9z M132.2,19.8
		C132.2,19.8,132.2,19.8,132.2,19.8C132.2,19.8,132.2,19.8,132.2,19.8z M132.3,19.9c0.6,0,1.2,0,1.9,0c0.1,0,0.2,0,0.3,0
		C133.8,19.8,133.1,19.8,132.3,19.9C132.3,19.9,132.3,19.9,132.3,19.9z M135.4,19.8c-0.1,0-0.2,0-0.3,0c0.2,0,0.4,0,0.6,0
		C135.5,19.8,135.5,19.8,135.4,19.8z M140.2,19.8C140.2,19.8,140.2,19.8,140.2,19.8C140.2,19.8,140.2,19.8,140.2,19.8z M143.3,19.8
		c-1,0-2,0-3,0c0,0,0,0,0,0C141.3,19.8,142.4,19.8,143.3,19.8c0.1,0,0.1,0,0.2,0C143.5,19.9,143.4,19.8,143.3,19.8z"/>
	<path class="st0" d="M75.6,16.5C75.5,16.6,75.5,16.6,75.6,16.5l-0.4,0c0,0,0,0-0.1,0c-0.2,0-0.3,0-0.5,0c-0.5-0.1-1-0.3-1-1
		c0,0,0-0.1,0-0.1c0-0.1,0-0.2,0-0.3c0,0.2,0,0.3,0,0.5l0-4.3c0.7,0,1.4,0,2.1,0c0.1,0,0.2,0.1,0.3-0.1c0,0,0,0,0,0
		c0-1.1,0-2.3,0-3.4c0,0,0,0,0,0c-0.1-0.1-0.2-0.1-0.3-0.1c-0.7,0-1.4,0-2.1,0c0,0,0,0-0.1,0c-0.1-0.1,0-0.2,0-0.3
		c0-0.9,0-1.9,0-2.8c0-0.2,0-0.2-0.2-0.2c-1.1,0.3-2.1,0.6-3.2,1c-0.2,0-0.2,0.1-0.2,0.3c0,0.7,0,1.4,0,2c-0.6,0-1.1,0-1.7,0
		c-0.2,0-0.3,0.1-0.3,0.3c0,1,0,2,0,3.1c0,0.2,0.1,0.2,0.2,0.2c0.6,0,1.1,0,1.7,0c0,0,0,0,0,0c0,0,0,0.1,0,0.1c0,1.6,0,3.1,0,4.7
		c0,0,0,0,0,0.1c0,0.1,0,0.2,0,0.3c0,0,0,0,0,0.1c0,0.5,0.1,1,0.3,1.5c0.3,0.8,0.8,1.3,1.6,1.6c0.5,0.2,1,0.3,1.5,0.4
		c0.1,0,0.2,0,0.4,0h1.5c0.1,0,0.1,0,0.2,0c-0.1,0-0.1,0-0.2,0.1c0.1,0,0.3,0.1,0.4-0.1c0,0-0.1,0-0.1,0c0,0,0.1,0,0.1,0
		c0.5,0,0.5,0,0.5-0.5c0-0.7,0-1.5,0-2.2c0-0.2,0.1-0.5,0-0.6C76,16.5,75.8,16.5,75.6,16.5z M68.2,7.7C68.1,7.8,68.1,7.8,68.2,7.7
		C68.1,7.8,68.1,7.8,68.2,7.7z M68.1,7.9C68.1,7.9,68.1,7.9,68.1,7.9c0,0,0,0.1,0,0.2v2.9c0,0.1,0,0.1,0,0.2c0,0,0,0,0,0
		C68.1,10,68.1,8.9,68.1,7.9z M68.1,11.2C68.1,11.2,68.2,11.2,68.1,11.2C68.2,11.2,68.1,11.2,68.1,11.2z M68.3,11.2
		C68.3,11.2,68.3,11.2,68.3,11.2c0,0,0,0,0.1,0C68.3,11.2,68.3,11.2,68.3,11.2z M68.5,11.2c0.3,0,0.6,0,0.9,0
		C69,11.2,68.8,11.2,68.5,11.2z M73.7,14.6c0,0.1,0,0.3,0,0.4c0-1.2,0-2.4,0-3.6c0,0,0,0,0,0c0,0,0,0.1,0,0.1
		C73.7,12.6,73.7,13.6,73.7,14.6z M73.7,11.3L73.7,11.3c0.1-0.1,0.2,0,0.3,0c0.6,0,1.3,0,1.9,0c0.1,0,0.1,0,0.2,0
		c-0.2,0-0.4,0-0.5,0C74.9,11.3,74.3,11.2,73.7,11.3L73.7,11.3C73.7,11.3,73.7,11.3,73.7,11.3C73.7,11.3,73.7,11.3,73.7,11.3
		C73.7,11.3,73.7,11.3,73.7,11.3c0,0.1,0,0.1,0,0.1C73.7,11.3,73.7,11.3,73.7,11.3z"/>
	<path class="st0" d="M128.5,2.3c-0.1,0-0.1,0-0.2,0c-0.1,0-0.2,0-0.3,0c-0.1,0-0.1,0-0.2,0c-1,0.2-1.7,0.9-1.9,1.9c0,0,0,0.1,0,0.1
		c0,0.1,0,0.2,0,0.4c0,0,0,0.1,0,0.1c0.1,1,0.9,1.7,1.9,1.9c0.2,0,0.5,0,0.7,0l-0.7,0c0.2,0.1,0.5,0.1,0.7,0c0,0,0,0,0,0
		c0.4-0.1,0.8-0.3,1.2-0.6s0.5-0.7,0.6-1.2c0-0.2,0-0.5,0-0.7C130.1,3.1,129.5,2.5,128.5,2.3z"/>
	<path class="st0" d="M33.2,0.1C33.2,0.1,33.2,0.1,33.2,0.1C32.8,0,32.4,0,31.9,0c-0.1,0-0.3,0-0.4,0c0,0-0.1,0-0.1,0
		c-0.2,0-0.5,0.1-0.7,0.2c0,0,0,0,0,0l-0.4,0.1c0,0,0,0,0,0l-0.5,0.2c0,0,0,0,0,0c-0.2,0.1-0.4,0.2-0.6,0.4c0,0,0,0,0,0c0,0,0,0,0,0
		c-0.1,0.1-0.4,0.2-0.5,0.4c0,0,0,0,0,0c-0.2,0.2-0.3,0.4-0.5,0.6c0,0,0,0,0,0c-0.2,0.2-0.3,0.4-0.4,0.6c0,0,0,0,0,0
		c-0.1,0.1-0.2,0.3-0.3,0.4c0,0,0,0,0,0c0,0,0,0,0,0c-0.1,0.1-0.2,0.2-0.2,0.4c0,0,0,0,0,0C27.3,3.6,27.2,3.8,27,4c0,0,0,0,0,0
		c0,0,0,0,0,0c-0.1,0.2-0.3,0.4-0.3,0.6c0,0,0,0,0,0l-0.3,0.5c0,0,0,0,0,0l-0.5,0.7c0,0,0,0,0,0c0,0,0,0,0,0
		c-0.1,0.2-0.3,0.4-0.3,0.6c0,0,0,0,0,0c-0.1,0.2-0.3,0.3-0.3,0.5c0,0,0,0,0,0c-0.1,0.2-0.3,0.4-0.4,0.6c0,0,0,0,0,0c0,0,0,0,0,0
		c-0.2,0.2-0.3,0.4-0.4,0.7c0,0,0,0,0,0l-0.5,0.7c0,0,0,0,0,0l-0.8,1.2c0,0,0,0,0,0c0,0,0,0,0,0C23,10.1,23,10,23,9.9l-2.4-3.8
		c0,0,0-0.1-0.1-0.1c-0.8-1.2-1.6-2.5-2.4-3.7c-0.7-1.1-1.7-1.9-3-2.2c0,0,0,0,0,0c0,0,0,0,0,0C14.7,0,14.2,0,13.8,0
		c-0.1,0-0.1,0-0.2,0c0,0,0,0,0,0c0,0,0,0,0,0c0,0,0,0,0,0c-0.4,0-0.8,0.1-1.1,0.2c0,0,0,0,0,0c-0.5,0.1-1,0.4-1.4,0.7c0,0,0,0,0,0
		c0,0,0,0,0,0c-0.6,0.5-1,1-1.4,1.7c0,0,0,0,0,0C9.2,3.3,8.8,3.8,8.5,4.4c0,0,0,0,0,0C7.9,5.2,7.4,6,6.9,6.9c0,0,0,0,0,0
		c0,0,0,0,0,0C6.8,7.1,6.7,7.2,6.5,7.4C6.3,7.9,6,8.3,5.7,8.7c0,0,0,0,0,0C5.4,9.1,5.2,9.5,4.9,9.9c0,0,0,0,0,0c0,0,0,0,0,0
		l-0.9,1.3c0,0,0,0,0,0l-0.7,1.1c0,0,0,0,0,0c0,0,0,0,0,0c-0.3,0.4-0.6,0.8-0.8,1.3c0,0,0,0,0,0C2.1,14.4,1.5,15.2,1,16c0,0,0,0,0,0
		c0,0,0,0,0,0l-0.1,0.2c0,0,0,0,0,0c0,0,0,0,0,0c-0.4,0.5-0.6,1-0.8,1.6c0,0,0,0,0,0C0.1,18,0.1,18.2,0,18.4c0,0.1,0,0.2,0,0.4v0.5
		c0.1,0.1,0,0.2,0,0.4c0,0.3,0.1,0.6,0.2,0.9c0.5,1.3,1.3,2.3,2.6,2.9c0,0,0,0,0,0c0.4,0.2,0.9,0.3,1.3,0.4c0,0,0,0,0.1,0
		c0,0,0,0-0.1,0l0.4,0c0,0,0,0-0.1-0.1c0,0,0,0,0.1,0h0.1c0,0,0,0,0,0c0,0,0,0,0,0c0.3,0,0.7,0,1-0.1c0,0,0,0,0,0
		c0.5-0.1,1-0.3,1.5-0.5c0,0,0,0,0,0c0,0,0,0,0,0c0.7-0.4,1.2-0.8,1.6-1.5c0,0,0,0,0,0c0.3-0.5,0.6-0.9,0.9-1.4c0,0,0,0,0,0
		c0,0,0.1-0.1,0.1-0.1c0.3-0.5,0.7-1,1-1.6c0,0,0,0,0,0c0.5-0.7,0.9-1.4,1.3-2.1c0.3-0.4,0.6-0.9,0.9-1.3c0,0,0,0,0,0
		c0.2-0.4,0.5-0.7,0.7-1.1c0,0,0,0,0,0c0,0,0,0,0,0c0.2-0.1,0.1-0.4,0.4-0.4c0,0,0,0,0,0c0,0,0,0,0,0c0.1,0.2,0.2,0.4,0.4,0.5
		c0,0,0,0,0,0c0.1,0.3,0.3,0.5,0.5,0.7c0,0,0,0,0,0c0.2,0.3,0.3,0.6,0.5,0.8l0.5,0.8c0,0,0,0,0,0l0.5,0.8c0,0,0,0,0,0
		c0.2,0.3,0.3,0.6,0.6,0.9c0,0,0,0,0,0c0,0,0,0,0,0c0.1,0.3,0.3,0.6,0.5,0.8c0,0,0,0,0,0c0.1,0.3,0.3,0.5,0.5,0.7c0,0,0,0,0,0
		l0.4,0.6c0,0,0,0,0,0c0.1,0.2,0.2,0.3,0.3,0.5c0,0,0,0,0,0c0.1,0.1,0.1,0.2,0.2,0.3c0,0,0,0,0,0l0.3,0.5c0,0,0,0,0,0c0,0,0,0,0,0
		c0.2,0.2,0.3,0.5,0.6,0.7c0,0,0,0,0,0c0.2,0.3,0.5,0.4,0.7,0.6c0,0,0,0,0,0c0,0,0,0,0,0c0.2,0.2,0.5,0.3,0.8,0.4c0,0,0,0,0,0
		c0.3,0.1,0.6,0.2,0.9,0.3l0.6,0.1c0.1,0,0.2,0,0.3,0c0,0,0,0,0,0c0,0,0,0,0,0c0.1,0,0.3,0,0.4,0c0.2-0.1,0.4,0,0.5-0.1c0,0,0,0,0,0
		c0,0,0,0,0,0c0.3,0,0.6-0.1,0.9-0.2c0,0,0,0,0,0c1-0.4,1.8-1,2.3-1.9c0.5-0.7,0.9-1.4,1.4-2.2c0.5-0.8,1.1-1.7,1.6-2.5
		c0.2-0.2,0.4-0.5,0.5-0.8c0.2-0.3,0.4-0.6,0.6-1l0,0c0,0,0,0,0,0c0.4-0.5,0.7-1.1,1-1.6c0,0,0,0,0,0c0,0,0,0,0,0
		c0.5-0.7,0.9-1.4,1.4-2.1c0.5-0.7,0.9-1.4,1.3-2.1c0,0,0,0,0,0c0,0,0,0,0,0c0.4-0.7,0.8-1.3,1.3-2c0,0,0,0,0,0c0,0,0,0,0,0
		C36.8,6.7,37,6,37.1,5.2c0-0.3,0-0.5,0-0.8C36.8,2.2,35.3,0.5,33.2,0.1z M25.2,19C25.2,19,25.2,19,25.2,19C25.2,19,25.2,19,25.2,19
		C25.2,19,25.2,19,25.2,19C25.2,19,25.2,19,25.2,19L25.2,19C25.2,19,25.2,19,25.2,19z M22.3,17.9L22.3,17.9
		C22.3,17.9,22.3,17.9,22.3,17.9C22.3,17.9,22.2,17.9,22.3,17.9C22.2,17.8,22.3,17.8,22.3,17.9C22.3,17.9,22.3,17.9,22.3,17.9z
		 M15,12.8C15,12.8,15,12.8,15,12.8C15,12.8,15,12.8,15,12.8C15,12.8,15,12.8,15,12.8C15,12.8,15,12.8,15,12.8
		C15,12.8,15,12.8,15,12.8z M25.2,19.1C25.2,19.1,25.2,19.1,25.2,19.1C25.2,19.1,25.2,19.1,25.2,19.1C25.2,19.1,25.2,19.1,25.2,19.1
		z M27.3,18.8L27.3,18.8C27.3,18.8,27.3,18.8,27.3,18.8C27.3,18.8,27.3,18.8,27.3,18.8z M28.2,10.8L28.2,10.8
		C28.2,10.8,28.2,10.8,28.2,10.8C28.2,10.8,28.2,10.8,28.2,10.8C28.2,10.8,28.2,10.8,28.2,10.8L28.2,10.8z M2.8,17.4
		C2.8,17.4,2.8,17.4,2.8,17.4C2.8,17.4,2.8,17.4,2.8,17.4C2.8,17.4,2.8,17.4,2.8,17.4z M20,5.7C20,5.7,20,5.7,20,5.7
		C20,5.7,20,5.7,20,5.7C20,5.7,20,5.7,20,5.7C20,5.7,20,5.7,20,5.7L20,5.7z"/>
	<path class="st0" d="M104,7.7c-1.1,0-2.1,0-3.2,0c-0.2,0-0.3,0.1-0.3,0.3c0,0.2,0.1,0.5-0.1,0.8c0,0,0,0,0,0
		c-0.2-0.2-0.4-0.4-0.6-0.5c-0.6-0.4-1.3-0.6-2-0.8c0,0,0,0,0,0c-0.1-0.1-0.2,0-0.2,0c0,0,0,0,0,0h-1c0,0,0,0,0,0
		c-0.1,0-0.2,0-0.2,0c0,0,0,0,0,0c-1,0.2-1.9,0.5-2.7,1.2c-0.6,0.5-1.2,1.2-1.5,1.9c-0.5,0.9-0.7,1.9-0.8,2.9c0,0,0,0.1,0,0.1
		c0,0.1,0,0.3,0,0.4c0,0.1,0,0.1,0,0.2c0,0.3,0,0.7,0.1,1c0.2,0.8,0.5,1.6,0.9,2.3c0.5,0.8,1.1,1.4,1.9,1.9c0.8,0.5,1.7,0.8,2.6,0.8
		c0,0,0,0,0,0c0.2,0.1,0.4,0.1,0.6,0c0,0,0,0,0,0c0.4,0,0.9-0.1,1.3-0.2c0.7-0.2,1.3-0.6,1.8-1.1c0,0,0,0,0,0c0.1,0.2,0,0.5,0,0.8
		c0,0.2,0.1,0.3,0.3,0.3c1.1,0,2.1,0,3.2,0c0.2,0,0.3,0,0.3-0.3c0-3.9,0-7.8,0-11.7C104.3,7.7,104.2,7.7,104,7.7z M97.7,16.7
		c-1.7,0-2.9-1.2-2.9-3c0-1.7,1.2-2.9,2.9-2.9c1.7,0,2.8,1.2,2.8,2.9C100.6,15.6,99.5,16.7,97.7,16.7z"/>
	<path class="st0" d="M129.7,7.7c-1,0-2.1,0-3.1,0c-0.1,0-0.2,0-0.3,0.1c0,0,0,0,0,0v12.1c0.1,0.1,0.1,0.1,0.2,0.1
		c1.1,0,2.1,0,3.2,0c0.2,0,0.3-0.1,0.3-0.3c0-3.9,0-7.7,0-11.6C130,7.8,130,7.7,129.7,7.7z M127.2,19.8c0.4,0,0.9,0,1.3,0
		C128.1,19.8,127.7,19.8,127.2,19.8z M128.9,19.8c0.3,0,0.6,0,0.9,0c0,0,0,0,0,0C129.5,19.8,129.2,19.8,128.9,19.8z M129.9,19.8
		C129.9,19.8,129.8,19.8,129.9,19.8C129.8,19.8,129.9,19.8,129.9,19.8z"/>
	<path class="st0" d="M158,7.9c0-0.2-0.1-0.2-0.2-0.2c-1,0-2.1,0-3.1,0c-0.2,0-0.3,0.1-0.3,0.3c0,0.3,0.1,0.6,0,0.9c0,0,0,0,0,0
		c0,0,0,0,0,0c-0.6-0.6-1.2-1-2-1.3c-0.6-0.2-1.3-0.2-1.9-0.2c0,0,0,0,0,0c-0.1,0-0.2,0-0.2,0c0,0,0,0,0,0c-0.2,0-0.4,0.1-0.6,0.1
		c-1.8,0.4-3,1.5-3.8,3.1c-0.3,0.6-0.6,1.3-0.6,2.1c0,0,0,0,0,0c-0.1,0.1,0,0.2,0,0.3c0,0,0,0,0,0c0,0.3,0,0.6,0,1c0,0,0,0,0,0
		c0,0.1,0,0.2,0,0.2c0,0,0,0,0,0c0,0.5,0.2,0.9,0.3,1.3c0.4,1.1,1,2,2,2.8c1,0.8,2,1.2,3.2,1.2c1,0.1,1.9-0.1,2.8-0.6
		c0.4-0.2,0.8-0.6,1.1-1c-0.1,0.5,0,0.9-0.1,1.4c0,0.7-0.3,1.3-0.8,1.8c-0.4,0.3-0.9,0.5-1.4,0.5c0,0,0,0-0.1,0h-0.7c0,0,0,0-0.1,0
		c-1,0-1.7-0.4-2.2-1.3c-0.1-0.1-0.2-0.2-0.3-0.1c-0.9,0.6-1.8,1.1-2.8,1.6c-0.2,0.1-0.1,0.1-0.1,0.2c0.3,0.4,0.6,0.8,0.9,1.1
		c0.5,0.5,1,0.8,1.7,1.1c0.7,0.3,1.5,0.5,2.4,0.5c0.2,0,0.5,0,0.7,0h0.2c0.2-0.1,0.4,0,0.6,0c0.6,0,1.1-0.2,1.6-0.3
		c1.2-0.4,2.2-1,3-2c0.6-0.8,0.9-1.8,1.1-2.8c0,0,0,0,0,0c0,0,0,0,0,0c0.1-0.1,0-0.1,0-0.2C158,15.8,158,11.9,158,7.9z M151.5,16.3
		c-1.7,0-2.9-1.1-2.9-2.8c0-1.7,1.2-2.8,3-2.8c1.7,0,2.9,1.2,2.9,2.8C154.4,15.2,153.2,16.3,151.5,16.3z M157.9,7.8
		C157.9,7.9,157.9,7.9,157.9,7.8C158,7.9,157.9,7.9,157.9,7.8z M158,10.3c0-0.8,0-1.6,0-2.3c0,0,0,0,0,0C158,8.8,158,9.5,158,10.3z"
		/>
	<path class="st0" d="M124.5,11.9C124.5,12,124.5,12,124.5,11.9C124.5,12,124.5,12,124.5,11.9c0-0.3-0.1-0.6-0.1-0.9
		c-0.2-1.1-0.7-2.1-1.6-2.8c-0.6-0.5-1.3-0.7-2-0.9c0,0,0,0,0,0c-0.1-0.1-0.1,0-0.2,0c0,0,0,0,0,0h-1c0,0,0,0,0,0
		c-0.1,0-0.2,0-0.2,0c0,0,0,0,0,0c-0.1,0-0.3,0-0.4,0.1c-0.8,0.2-1.5,0.5-2.1,1.2c-0.2,0.3-0.2,0.2-0.4,0c-0.4-0.4-0.8-0.8-1.4-1
		c-0.8-0.3-1.7-0.4-2.5-0.2c-0.7,0.1-1.3,0.3-1.8,0.8c-0.2,0.1-0.3,0.4-0.5,0.5v-1c0,0,0,0,0,0c0,0,0,0,0,0c0,0-0.1-0.1-0.2-0.1
		c-1.1,0-2.2,0-3.3,0c-0.2,0-0.2,0.1-0.2,0.3c0,3.9,0,7.8,0,11.7c0,0.2,0.1,0.3,0.3,0.3c1.1,0,2.1,0,3.2,0c0.1,0,0.2,0,0.2,0
		c0,0,0,0,0,0c0,0,0,0,0,0c0,0,0,0,0,0c0,0,0,0,0,0c0-2.3,0-4.6,0-7c0-0.3,0.1-0.7,0.2-1c0.3-0.6,0.7-1,1.4-1.1c0.1,0,0.1,0,0.2,0
		c-0.1,0-0.1,0-0.2,0.1h0.7c-0.1,0-0.1,0-0.2-0.1c0.1,0,0.1,0,0.2,0c0.4,0,0.7,0.2,0.9,0.4c0.3,0.3,0.4,0.7,0.5,1.1c0,0,0,0,0,0
		c0,2.4,0,4.8,0,7.3c0,0.2,0.1,0.3,0.3,0.3c1.1,0,2.1,0,3.2,0c0.2,0,0.3-0.1,0.3-0.3c0-2.3,0-4.7,0-7c0,0,0,0,0,0.1c0,0,0,0,0-0.1
		c0-0.2,0-0.3,0.1-0.5c0.2-0.7,0.8-1.3,1.4-1.3c0.1,0,0.1,0,0.2,0c-0.1,0-0.1,0-0.2,0.1l0.7,0c-0.1,0-0.1,0-0.2-0.1
		c0.1,0,0.1,0,0.2,0c0.6,0.1,1,0.4,1.2,0.9c0.1,0.2,0.1,0.3,0.1,0.5c0,0,0,0,0,0c0,0.1,0,0.1,0,0.2c0,0,0,0,0,0c0,0.1,0,0.1,0,0.2
		c0,2.4,0,4.7,0,7.1c0,0,0,0,0,0c0.1,0.1,0.2,0,0.3,0c1,0,2.1,0,3.1,0c0.3,0,0.3-0.1,0.3-0.3c0-2.4,0-4.9,0-7.3
		C124.5,12.1,124.5,12,124.5,11.9z M106.5,19.8C106.5,19.8,106.4,19.8,106.5,19.8C106.5,19.8,106.5,19.8,106.5,19.8z M106.6,19.9
		c0.6,0,1.2,0,1.9,0c0.1,0,0.1,0,0.2,0C108,19.8,107.3,19.8,106.6,19.9C106.6,19.9,106.6,19.9,106.6,19.9z M109.7,19.8
		c-0.1,0-0.2,0-0.3,0c0.2,0,0.3,0,0.5,0C109.8,19.8,109.7,19.8,109.7,19.8z M116.9,19.9c-1,0-2,0-3,0c0,0,0,0-0.1,0c0,0,0.1,0,0.1,0
		L116.9,19.9C116.9,19.9,116.9,19.8,116.9,19.9C117,19.8,116.9,19.9,116.9,19.9z M124.3,19.8C124.3,19.8,124.3,19.8,124.3,19.8
		C124.3,19.8,124.3,19.8,124.3,19.8z M122,19.8C122,19.8,122,19.8,122,19.8C122,19.8,122,19.8,122,19.8z M124.4,19.8
		C124.4,19.8,124.4,19.8,124.4,19.8C124.4,19.8,124.4,19.8,124.4,19.8z"/>
	<path class="st0" d="M68,13.1c0,0.5,0,0.9,0,1.4C68,14,68,13.5,68,13.1c0-0.1-0.1-0.2-0.1-0.3c-0.2-1.3-0.7-2.6-1.7-3.5
		c-1-1-2.2-1.6-3.6-1.8c0,0,0,0,0,0c-0.1-0.1-0.1,0-0.2,0c0,0,0,0,0,0l-1.1,0c0,0,0,0,0,0c-0.1,0-0.1,0-0.2,0c0,0,0,0,0,0
		c-0.2,0-0.3,0-0.5,0.1c-1.6,0.3-3,1.1-3.9,2.4c-0.7,1-1.1,2.2-1.2,3.4c0,0.1,0,0.1,0,0.2c0,0.2,0,0.4,0,0.5c0,0.1,0,0.1,0,0.2
		c0,0.9,0.3,1.7,0.7,2.5c0.2,0.4,0.5,0.9,0.8,1.2c0.4,0.5,0.9,0.9,1.5,1.2c1,0.5,2,0.8,3.1,0.9c0.4,0,0.8,0,1.2,0
		c0.4,0,0.8-0.1,1.2-0.2c1.4-0.3,2.5-1,3.4-2.2c0.1-0.1,0.1-0.2,0-0.2c-0.9-0.5-1.8-1-2.7-1.6c-0.1,0-0.2-0.1-0.2,0
		c-0.1,0.1-0.2,0.2-0.3,0.3c-0.5,0.3-1,0.6-1.6,0.6c-0.2,0-0.4,0-0.6,0c-0.2,0-0.5,0-0.7-0.1c-0.8-0.2-1.5-0.6-1.8-1.5c0,0,0,0,0,0
		c0,0,0,0,0,0c0.1-0.1,0.2-0.1,0.4-0.1c2.6,0,5.2,0,7.8,0c0.1,0,0.2,0,0.2,0c0.1,0,0.2-0.1,0.2-0.2c0,0,0,0,0,0
		c0-0.2,0.1-0.4,0.1-0.6c0,0,0,0,0,0C68.1,14,68.1,13.5,68,13.1z M59.2,12.3c0.4-1.2,1.6-1.8,2.9-1.7c1,0.1,1.8,0.7,2.1,1.7
		c0,0.1,0,0.1,0,0.2H62c-0.9,0-1.7,0-2.6,0C59.2,12.5,59.2,12.5,59.2,12.3z M59.4,15.2c0,0,0.1,0,0.2,0
		C59.5,15.2,59.4,15.2,59.4,15.2z M61.4,15.2c0.1,0,0.2,0,0.3,0h5.8c0,0,0,0,0,0c0,0,0,0,0,0C65.5,15.2,63.5,15.2,61.4,15.2z"/>
	<path class="st0" d="M62.7,20.2h-1.2C61.9,20.3,62.3,20.3,62.7,20.2z"/>
	<path class="st0" d="M130.3,4.9c0.1-0.2,0.1-0.5,0-0.7C130.4,4.4,130.4,4.6,130.3,4.9z"/>
	<path class="st0" d="M151.5,25.1l-0.7-0.1C151,25.2,151.3,25,151.5,25.1z"/>
	<path class="st0" d="M152.3,25l-0.6,0.1C151.9,25.1,152.1,25.2,152.3,25z"/>
	<path class="st0" d="M89.8,19.9c0.2-0.2,0-0.4,0.1-0.5L89.8,19.9z"/>
	<path class="st0" d="M54.1,11.5c0,0,0,0.1,0,0.1C54.1,11.6,54.1,11.6,54.1,11.5C54,11.3,54,11,53.9,10.7c-0.4-1.3-1.1-2.3-2.4-2.9
		c-0.8-0.3-1.6-0.4-2.4-0.4c0,0,0,0,0,0c-0.1,0-0.1,0-0.2,0c0,0,0,0-0.1,0c-1,0.2-2,0.5-2.6,1.3v-1c0,0,0,0,0,0c0,0,0,0,0,0
		c0,0-0.1-0.1-0.2-0.1c-1.1,0-2.2,0-3.3,0c-0.2,0-0.2,0.1-0.2,0.3c0,3.9,0,7.8,0,11.7c0,0.2,0.1,0.3,0.3,0.3c1.1,0,2.1,0,3.2,0
		c0.1,0,0.2,0,0.2,0c0,0,0,0,0,0c0-0.8,0-1.6,0-2.4c0-1.5,0-3,0-4.5c0,0,0,0,0,0c0,0,0,0,0,0c0.1-0.1,0.1-0.2,0.1-0.3
		c0,0,0,0.1-0.1,0.1c0,0,0-0.1,0-0.1c0-1,0.8-1.9,1.8-1.9c0.1,0,0.2,0,0.2,0c-0.1,0-0.2,0-0.2,0.1h0.7c-0.1,0-0.2,0-0.2-0.1
		c0.1,0,0.2,0,0.2,0c1.2,0.2,1.7,1,1.7,2.1c0.1,0.1,0,0.2,0,0.3c0,2.1,0,4.3,0,6.4c0,0,0,0,0,0c0,0,0,0,0-0.1c0-2.1,0-4.2,0-6.3
		c0-0.1,0-0.2,0-0.3c0,2.2,0,4.5,0,6.7c0,0.2,0.1,0.3,0.3,0.3c1,0,2.1,0,3.1,0c0.1,0,0.2,0,0.3-0.1c0,0,0,0,0,0v-7.9
		c0,0,0-0.1,0-0.2c0,0.1,0,0.1,0.1,0.2C54.2,11.8,54.2,11.6,54.1,11.5z M42.5,19.7c0,0,0-0.1,0-0.1C42.5,19.7,42.5,19.7,42.5,19.7z
		 M42.7,19.8C42.7,19.8,42.6,19.8,42.7,19.8C42.6,19.8,42.7,19.8,42.7,19.8z M42.5,9.9c0,3.2,0,6.5,0,9.7c0,0,0,0,0-0.1
		C42.5,16.3,42.5,13.1,42.5,9.9z M42.8,19.9c0.6,0,1.2,0,1.8,0c0.1,0,0.1,0,0.2,0C44.1,19.8,43.5,19.8,42.8,19.9
		C42.8,19.9,42.8,19.9,42.8,19.9z M45.9,19.8c-0.1,0-0.2,0-0.3,0c0.2,0,0.4,0,0.5,0C46,19.8,45.9,19.8,45.9,19.8z M53.8,19.8
		c-1,0-2,0-3,0c0,0,0,0,0,0C51.8,19.8,52.9,19.8,53.8,19.8c0.1,0,0.1,0,0.1,0C53.9,19.8,53.9,19.8,53.8,19.8z"/>
	<path class="st0" d="M73.8,20l-0.4-0.1C73.6,20,73.7,19.9,73.8,20z"/>
	<path class="st0" d="M143.7,11.9c0-0.1,0.1-0.2-0.1-0.3C143.6,11.7,143.7,11.8,143.7,11.9z"/>
	<path class="st0" d="M89.8,17.2c0-3.1,0-6.3,0-9.4l0,0l0,0c0,0,0,0,0,0c0,0,0,0,0,0c0-0.1-0.1-0.1-0.2-0.1c-1.1,0-2.1,0-3.2,0
		c-0.1,0-0.1,0-0.2,0c0,0,0,0,0,0v1.2c-0.2-0.2-0.4-0.4-0.6-0.5c-0.6-0.5-1.4-0.8-2.1-0.9c0,0,0,0,0,0c-0.1-0.1-0.1,0-0.2,0
		c0,0,0,0,0,0c-0.6,0-1.2,0-1.7,0.1c-1.5,0.3-2.7,1-3.5,2.2c-0.7,0.9-1.1,2-1.2,3.1c0,0,0,0,0,0.1c-0.1,0.1,0,0.2,0,0.3
		c0,0,0,0,0,0.1c0,0.2,0,0.4,0,0.6c0,0,0,0,0,0c0,0.1,0,0.2,0,0.3c0,0,0,0,0,0.1c0.1,0.7,0.3,1.5,0.6,2.1c0.6,1.3,1.6,2.3,3,2.9
		c0.8,0.4,1.8,0.5,2.7,0.5c1.1-0.1,2.1-0.4,2.9-1.2c0.1-0.1,0.2-0.2,0.3-0.3c0,0.5,0,0.9,0,1.4c-0.1,0.8-0.4,1.5-1.2,1.9
		c-0.4,0.2-0.8,0.3-1.2,0.3c-1.3,0.1-2.3-0.2-3-1.4c-0.1-0.2-0.2-0.1-0.3,0c-0.9,0.5-1.9,1.1-2.8,1.6c-0.2,0.1-0.1,0.1-0.1,0.2
		c0.5,0.8,1.2,1.5,2,2c1,0.6,2.2,0.8,3.4,0.8c0.3,0,0.5,0,0.8,0c0,0,0,0,0.1,0c0,0,0,0-0.1,0c0.1,0,0.2,0.1,0.3-0.1c0,0,0,0,0,0
		c0,0,0,0,0,0c0.5-0.1,1-0.2,1.6-0.3c1.2-0.4,2.2-1,3-1.9c0.7-0.8,0.9-1.8,1.1-2.8c0-0.2,0-0.4,0-0.5C89.8,18.7,89.8,17.9,89.8,17.2
		z M83.3,16.3c-1.7,0-2.9-1.1-2.9-2.8c0-1.6,1.2-2.8,2.9-2.8c1.7,0,2.9,1.2,2.9,2.8C86.2,15.2,85,16.3,83.3,16.3z"/>
</g>
</svg>
