<?xml version="1.0" encoding="utf-8"?>
<!-- Generator: Adobe Illustrator 25.2.1, SVG Export Plug-In . SVG Version: 6.00 Build 0)  -->
<svg version="1.1" id="Layer_1" xmlns="http://www.w3.org/2000/svg" xmlns:xlink="http://www.w3.org/1999/xlink" x="0px" y="0px"
	 viewBox="0 0 300 54.5" style="enable-background:new 0 0 300 54.5;" xml:space="preserve">
<style type="text/css">
	.st0{fill:#FFB123;}
</style>
<path class="st0" d="M3.2,3.6L2.8,3.9V29L3,29.9c1.3,3.6,3.7,5.4,7.2,5.4h26.2v3.3H14.8c-4.2,0-8.1-1.2-11.7-3.6H2.8
	c0.7,1.7,1.5,3.4,2.6,5c6.5,8.5,14.1,12.8,23,12.8h22l0.3-0.3V27.4l-0.2-0.9c-1.3-3.6-3.7-5.4-7.2-5.4H17.2v-3.3h21.6
	c4.2,0,8.1,1.2,11.7,3.6h0.3c-0.7-1.7-1.5-3.4-2.6-5c-6.5-8.5-14.1-12.8-23-12.8L3.2,3.6L3.2,3.6z"/>
<path class="st0" d="M79,41.6c-3.1,0-5.6-0.6-7.5-1.7c-2.3-1.4-3.4-3.5-3.4-6.5v-0.6h1.3v0.5c0,4.7,3.2,7.1,9.7,7.1
	c2.2,0,4-0.3,5.5-1c2-0.9,3-2.4,3-4.3c0-1.3-0.4-2.4-1.1-3.1c-0.6-0.6-1.6-1.1-3-1.5c-0.7-0.2-2.5-0.6-5.2-1.2
	c-3.1-0.7-5.2-1.3-6.2-1.8c-2.1-1.1-3.1-2.7-3.1-4.9c0-4.1,3.2-6.2,9.4-6.2c6.6,0,9.9,2.5,10,7.6h-1.3c-0.1-2.5-1.1-4.3-2.8-5.2
	c-1.3-0.8-3.3-1.2-6-1.2c-5.4,0-8.1,1.7-8.1,5c0,1.6,0.8,2.9,2.3,3.7c1,0.5,2.7,1,5.1,1.5c4.4,0.8,7.3,1.6,8.8,2.5
	c1.7,1,2.5,2.6,2.5,4.9c0,2.3-1.2,3.9-3.5,5.1C83.7,41.2,81.5,41.6,79,41.6z"/>
<path class="st0" d="M106.1,41.9c-3.6,0-6.1-1.4-7.5-4.3v9.8h-1.3V23.6h1.3v3.9c0.7-1.4,1.7-2.4,3-3.2c1.3-0.7,2.8-1.1,4.4-1.1
	c2.8,0,5,0.9,6.5,2.6c1.5,1.7,2.3,4,2.3,6.7c0,2.8-0.7,5.1-2.2,6.8C111.1,41,108.9,41.9,106.1,41.9z M106.2,24.4
	c-2.3,0-4.2,0.7-5.6,2.2c-1.4,1.5-2.1,3.4-2.1,5.8c0,2.5,0.6,4.5,1.8,6c1.3,1.5,3.3,2.3,5.8,2.3c2.4,0,4.2-0.8,5.5-2.4
	c1.2-1.5,1.8-3.4,1.8-5.7c0-2.4-0.6-4.3-1.8-5.8C110.4,25.2,108.6,24.4,106.2,24.4z"/>
<path class="st0" d="M124.3,19.8c-0.3,0-0.5-0.2-0.6-0.5v-2.5c0.1-0.4,0.3-0.5,0.6-0.5c0.2,0,0.5,0.2,0.7,0.5v2.5
	C124.8,19.7,124.6,19.8,124.3,19.8z M123.8,41.3V23.4h1.3v17.9H123.8z"/>
<path class="st0" d="M147.7,41.5V29.8c0-1.7-0.5-3-1.6-3.9c-1.1-0.9-2.5-1.4-4.3-1.4c-2.1,0-3.8,0.6-5,1.9c-1.2,1.3-1.8,3-1.8,5.1
	v10h-1.3V23.8h1.3V27c1.2-2.4,3.5-3.6,6.8-3.6c2.1,0,3.8,0.5,5.1,1.5c1.4,1.1,2.1,2.6,2.1,4.6v12L147.7,41.5L147.7,41.5z"/>
<path class="st0" d="M166.4,42c-2.8,0-5-0.9-6.7-2.6c-1.6-1.7-2.4-3.9-2.4-6.7c0-2.8,0.8-5.1,2.5-6.8c1.7-1.7,3.9-2.5,6.7-2.5
	s5,0.8,6.7,2.5c1.6,1.7,2.5,3.9,2.5,6.8c0,2.8-0.8,5-2.5,6.7C171.4,41.2,169.1,42,166.4,42z M166.4,24.7c-2.4,0-4.3,0.7-5.7,2.2
	c-1.4,1.5-2.1,3.4-2.1,5.9c0,2.4,0.7,4.4,2.1,5.9c1.4,1.5,3.3,2.2,5.7,2.2c2.4,0,4.3-0.7,5.7-2.2c1.4-1.5,2.1-3.4,2.1-5.9
	c0-2.5-0.7-4.4-2.1-5.9C170.8,25.4,168.8,24.7,166.4,24.7z"/>
<path class="st0" d="M208.8,41.6V30c0-3.5-1.7-5.3-5-5.3c-1.8,0-3.3,0.5-4.4,1.6c-1.1,1.1-1.6,2.5-1.6,4.2v11.2h-1.3V30
	c0-3.5-1.7-5.3-5.1-5.3c-1.9,0-3.4,0.7-4.5,2.2c-0.9,1.3-1.4,2.9-1.4,4.8v10h-1.3V23.9h1.3V27c1.2-2.3,3.3-3.5,6.3-3.5
	c2.9,0,4.8,1.2,5.7,3.6c1.1-2.4,3.2-3.6,6.3-3.6c4.3,0,6.4,2,6.4,6.1v12L208.8,41.6L208.8,41.6z"/>
<path class="st0" d="M220,33.2c0.1,5.1,2.7,7.7,7.5,7.7c1.6,0,3.1-0.4,4.4-1.1c1.3-0.8,2.2-1.9,2.7-3.3h1.3c-0.6,2-1.7,3.5-3.3,4.4
	c-1.5,0.8-3.2,1.2-5.2,1.2c-2.9,0-5.1-0.8-6.6-2.5c-1.4-1.6-2.1-3.8-2.1-6.7c0-2.8,0.8-5,2.4-6.7c1.6-1.7,3.8-2.6,6.5-2.6
	c2.7,0,4.9,0.8,6.5,2.3c1.6,1.6,2.4,3.7,2.4,6.3v1L220,33.2L220,33.2L220,33.2z M227.7,24.7c-2.2,0-4,0.7-5.4,2
	c-1.4,1.3-2.1,3.1-2.3,5.3h15c-0.1-2.2-0.7-4-2.1-5.3C231.7,25.3,229.9,24.7,227.7,24.7z"/>
<path class="st0" d="M259.3,41.6V30c0-1.7-0.5-3-1.6-3.9c-1.1-0.9-2.5-1.4-4.3-1.4c-2.1,0-3.8,0.6-5,1.9c-1.2,1.3-1.8,3-1.8,5.1v10
	h-1.3V23.9h1.3v3.2c1.2-2.4,3.5-3.6,6.8-3.6c2.1,0,3.8,0.5,5.1,1.5c1.4,1.1,2.1,2.6,2.1,4.6v12H259.3L259.3,41.6z"/>
<path class="st0" d="M285.6,41.6v-4c-1.6,2.9-4.1,4.4-7.7,4.4c-2.7,0-4.9-0.9-6.4-2.7c-1.5-1.7-2.2-3.9-2.2-6.5c0-2.7,0.7-5,2.2-6.7
	c1.6-1.8,3.8-2.7,6.6-2.7c3.6,0,6.1,1.4,7.5,4.3v-4.3h1.3v18.2L285.6,41.6L285.6,41.6L285.6,41.6z M277.9,24.7
	c-2.3,0-4.1,0.8-5.5,2.4c-1.2,1.5-1.9,3.4-1.9,5.7c0,2.3,0.6,4.2,1.8,5.7c1.3,1.6,3.2,2.4,5.5,2.4c2.3,0,4.2-0.8,5.6-2.4
	c1.4-1.5,2.1-3.4,2.1-5.7c0-2.5-0.7-4.5-2-5.9C282.3,25.4,280.4,24.7,277.9,24.7z"/>
<path class="st0" d="M295.9,41.6V17h1.3v24.6H295.9z"/>
</svg>
