<?xml version="1.0" encoding="UTF-8"?>
<svg width="189px" height="48px" viewBox="0 0 189 48" version="1.1" xmlns="http://www.w3.org/2000/svg" xmlns:xlink="http://www.w3.org/1999/xlink">
    <!-- Generator: Sketch 60.1 (88133) - https://sketch.com -->
    <title>quickspin</title>
    <desc>Created with Sketch.</desc>
    <g id="design" stroke="none" stroke-width="1" fill="none" fill-rule="evenodd">
        <g id="main" transform="translate(-1172.000000, -352.000000)" fill="#FFB124" fill-rule="nonzero">
            <g id="quickspin" transform="translate(1172.000000, 352.000000)">
                <path d="M104.47504,0.819341811 C103.975767,0.449251828 103.401204,0.270887163 102.831746,0.270887163 C101.933054,0.270887163 101.045529,0.716798828 100.490746,1.54816522 L85.0751715,24.5071047 C84.1649951,25.8598705 84.4766818,27.7286913 85.7725586,28.6782994 C86.2721507,29.0467193 86.8454374,29.2240819 87.4148958,29.2240819 C88.3148634,29.2240819 89.2007939,28.7818444 89.7581294,27.9528162 L105.170194,4.99053648 C106.079414,3.63977485 105.768684,1.76961798 104.47504,0.819341811" id="Path"></path>
                <path d="M188.011558,37.9679588 L171.549584,2.09394774 C171.056372,1.01774745 170.033899,0.390130955 168.967401,0.390130955 C168.552988,0.390130955 168.132833,0.485325581 167.731501,0.685401302 C166.306738,1.40119808 165.705696,3.18918696 166.389685,4.68090344 L182.850063,40.5589227 C183.341361,41.6337869 184.365429,42.2600673 185.433522,42.2600673 C185.847935,42.2600673 186.26809,42.1638707 186.669741,41.9637949 C188.094504,41.2483321 188.696184,39.4600093 188.011558,37.9679588" id="Path"></path>
                <path d="M152.061665,14.9903143 C152.084315,14.8359989 152.108562,14.6783432 152.108562,14.5156773 L152.108562,11.134431 C152.108562,11.0235376 152.086868,10.9176545 152.077297,10.8090992 C152.077297,10.7873881 152.081125,10.7683492 152.081125,10.7466382 C152.081125,5.03629671 147.64573,0.390130955 142.194242,0.390130955 C142.180206,0.390130955 142.163936,0.396143248 142.150217,0.396143248 C142.132033,0.396143248 142.118953,0.390130955 142.102044,0.390130955 L134.986208,0.390130955 C133.405123,0.390130955 132.126474,1.73254219 132.126474,3.38692456 C132.126474,5.042309 133.405123,6.38238211 134.986208,6.38238211 L142.111296,6.38238211 C142.125014,6.38238211 142.137775,6.380044 142.152769,6.380044 C142.166487,6.380044 142.180206,6.38238211 142.194242,6.38238211 C144.491217,6.38238211 146.360063,8.3413873 146.360063,10.7466382 C146.360063,10.8571975 146.379842,10.9610766 146.392284,11.0696319 C146.391008,11.0913429 146.385584,11.113054 146.385584,11.134431 L146.385584,14.303577 C146.376014,14.3904212 146.359105,14.4745933 146.359105,14.5637757 C146.359105,16.9663543 144.491217,18.9256935 142.194242,18.9256935 C142.180206,18.9256935 142.166487,18.9280317 142.152769,18.9280317 C142.137775,18.9280317 142.123738,18.9256935 142.111296,18.9256935 L134.986208,18.9256935 C133.405123,18.9256935 132.125197,20.2654327 132.125197,21.9198151 C132.125197,23.5741974 133.405123,24.9166086 134.986208,24.9166086 L142.102044,24.9166086 C142.117039,24.9166086 142.132033,24.9092603 142.146708,24.9092603 C142.163936,24.9092603 142.177972,24.9166086 142.194242,24.9166086 C147.50855,24.9166086 151.845047,20.5015821 152.061665,14.9903143" id="Path"></path>
                <path d="M117.433808,0.390130955 C111.982002,0.390130955 107.545331,5.03629671 107.545331,10.7466382 C107.545331,12.4006865 108.828765,13.7407596 110.407617,13.7407596 C111.987744,13.7407596 113.269903,12.4006865 113.269903,10.7466382 C113.269903,8.3413873 115.137471,6.38238211 117.433808,6.38238211 C119.730783,6.38238211 121.599628,8.3413873 121.599628,10.7466382 C121.599628,12.4006865 122.88051,13.7407596 124.461914,13.7407596 C126.042042,13.7407596 127.322924,12.4006865 127.322924,10.7466382 C127.322924,5.03629671 122.886253,0.390130955 117.433808,0.390130955" id="Path"></path>
                <path d="M124.461914,28.9214629 C122.88051,28.9214629 121.599628,30.2652103 121.599628,31.9195926 C121.599628,34.3245095 119.730783,36.2815105 117.433808,36.2815105 C115.137471,36.2815105 113.269903,34.3245095 113.269903,31.9195926 C113.269903,30.2652103 111.987744,28.9214629 110.407617,28.9214629 C108.828765,28.9214629 107.545331,30.2652103 107.545331,31.9195926 C107.545331,37.6262599 111.982002,42.2720916 117.433808,42.2720916 C122.886253,42.2720916 127.322924,37.6262599 127.322924,31.9195926 C127.322924,30.2652103 126.042042,28.9214629 124.461914,28.9214629" id="Path"></path>
                <path d="M9.88911579,0.390130622 C4.43890435,0.390130622 0,5.03629637 0,10.7466378 C0,12.4006862 1.27992556,13.7407594 2.86228617,13.7407594 C4.44113752,13.7407594 5.72329625,12.4006862 5.72329625,10.7466378 C5.72329625,8.34138696 7.5921407,6.38238177 9.88911579,6.38238177 C12.1851338,6.38238177 14.0542973,8.34138696 14.0542973,10.7466378 C14.0542973,12.4006862 15.3351799,13.7407594 16.9162644,13.7407594 C18.497668,13.7407594 19.7772746,12.4006862 19.7772746,10.7466378 C19.7772746,5.03629637 15.3418795,0.390130622 9.88911579,0.390130622" id="Path"></path>
                <path d="M16.9162644,28.9214629 C15.3351799,28.9214629 14.0542973,30.2652103 14.0542973,31.9195926 C14.0542973,34.3245095 12.1851338,36.2815105 9.88911579,36.2815105 C7.5921407,36.2815105 5.72329625,34.3245095 5.72329625,31.9195926 C5.72329625,30.2652103 4.44113752,28.9214629 2.86228617,28.9214629 C1.27992556,28.9214629 0,30.2652103 0,31.9195926 C0,37.6262599 4.43890435,42.2720916 9.88911579,42.2720916 C10.6742346,42.2720916 11.4360647,42.1638703 12.1726919,41.9855057 L14.3707694,46.2027945 C14.877061,47.1727776 15.8220111,47.7329229 16.8058821,47.7619823 C16.8310849,47.7643204 16.8601162,47.7643204 16.8865952,47.7643204 C17.3514136,47.7643204 17.8184652,47.6450767 18.2536143,47.3982387 C19.6439224,46.60161 20.1537231,44.7835596 19.3954025,43.3325931 L17.1166117,38.9609887 C18.7621391,37.1102048 19.7772746,34.6401548 19.7772746,31.9195926 C19.7772746,30.2652103 18.497668,28.9214629 16.9162644,28.9214629" id="Path"></path>
                <path d="M77.9066954,28.9214633 C76.3288011,28.9214633 75.0456853,30.2652105 75.0456853,31.9195929 C75.0456853,34.3245097 73.1755648,36.2815108 70.8795467,36.2815108 C68.5835287,36.2815108 66.7134081,34.3245097 66.7134081,31.9195929 C66.7134081,30.2652105 65.4338016,28.9214633 63.8523981,28.9214633 C62.2735467,28.9214633 60.9904309,30.2652105 60.9904309,31.9195929 C60.9904309,37.6262602 65.426783,42.272092 70.8795467,42.272092 C76.3323104,42.272092 80.7699386,37.6262602 80.7699386,31.9195929 C80.7699386,30.2652105 79.4877799,28.9214633 77.9066954,28.9214633" id="Path"></path>
                <path d="M41.7816577,28.9214633 C40.2028065,28.9214633 38.9228808,30.2652105 38.9228808,31.9195929 C38.9228808,34.3245097 37.0514843,36.2815108 34.7545091,36.2815108 C32.4584911,36.2815108 30.5896466,34.3245097 30.5896466,31.9195929 C30.5896466,30.2652105 29.3097211,28.9214633 27.7295937,28.9214633 C26.1485092,28.9214633 24.8663504,30.2652105 24.8663504,31.9195929 C24.8663504,37.6262602 29.3017455,42.272092 34.7545091,42.272092 C40.2047206,42.272092 44.6436249,37.6262602 44.6436249,31.9195929 C44.6436249,30.2652105 43.3627423,28.9214633 41.7816577,28.9214633" id="Path"></path>
                <path d="M70.8795467,0.390130955 C65.426783,0.390130955 60.9904309,5.03629671 60.9904309,10.7466382 C60.9904309,12.4006865 62.2735467,13.7407596 63.8523981,13.7407596 C65.4338016,13.7407596 66.7134081,12.4006865 66.7134081,10.7466382 C66.7134081,8.3413873 68.5835287,6.38238211 70.8795467,6.38238211 C73.1755648,6.38238211 75.0456853,8.3413873 75.0456853,10.7466382 C75.0456853,12.4006865 76.3288011,13.7407596 77.9066954,13.7407596 C79.4877799,13.7407596 80.7699386,12.4006865 80.7699386,10.7466382 C80.7699386,5.03629671 76.3323104,0.390130955 70.8795467,0.390130955" id="Path"></path>
                <path d="M110.407617,15.4445764 C110.241086,15.4445764 110.077427,15.4312157 109.911534,15.4145149 L120.141687,30.6543394 C120.674457,28.6759613 122.405483,27.2179805 124.461914,27.2179805 C124.589524,27.2179805 124.717452,27.230005 124.847295,27.2393575 L114.69658,12.1237871 C114.135416,14.0457164 112.425127,15.4445764 110.407617,15.4445764" id="Path"></path>
                <path d="M90.2781393,13.7948703 L90.2781393,3.38692456 C90.2781393,1.73254219 88.9962997,0.390130955 87.4161722,0.390130955 C85.8360448,0.390130955 84.553886,1.73254219 84.553886,3.38692456 L84.553886,22.3186304 L90.2781393,13.7948703" id="Path"></path>
                <path d="M63.8523981,27.2179805 C64.939952,27.2179805 65.93786,27.6288205 66.7169174,28.3025312 L66.7169174,14.3600258 C65.93786,15.0360746 64.939952,15.4445764 63.8523981,15.4445764 C62.7683534,15.4445764 61.7707644,15.0397488 60.9936212,14.3660381 L60.9936212,28.299859 C61.7707644,27.6261483 62.7683534,27.2179805 63.8523981,27.2179805" id="Path"></path>
                <path d="M188.340472,34.7533865 L188.340472,3.38692456 C188.340472,1.73254219 187.061823,0.390130955 185.480738,0.390130955 C183.898378,0.390130955 182.618771,1.73254219 182.618771,3.38692456 L182.618771,22.2815546 L188.340472,34.7533865" id="Path"></path>
                <path d="M134.986208,17.2195387 L137.854235,17.2195387 L137.854235,8.08853701 L134.986208,8.08853701 C133.903438,8.08853701 132.909039,7.68337532 132.129983,7.01267073 L132.129983,18.2944029 C132.909039,17.6267045 133.903438,17.2195387 134.986208,17.2195387" id="Path"></path>
                <path d="M158.667382,0.390130955 C157.085022,0.390130955 155.804139,1.73254219 155.804139,3.38692456 L155.804139,39.2696201 C155.804139,40.9253385 157.085022,42.2650775 158.667382,42.2650775 C160.249742,42.2650775 161.527116,40.9253385 161.527116,39.2696201 L161.527116,3.38692456 C161.527116,1.73254219 160.249742,0.390130955 158.667382,0.390130955" id="Path"></path>
                <path d="M87.4148962,30.9278987 C86.4862164,30.9278987 85.5955004,30.6316263 84.8346275,30.0748213 C84.737963,30.0036758 84.6470411,29.9218419 84.553886,29.843348 L84.553886,39.2696201 C84.553886,40.9253385 85.8360448,42.2650775 87.4161722,42.2650775 C88.9962997,42.2650775 90.2781393,40.9253385 90.2781393,39.2696201 L90.2781393,29.843348 C89.4805786,30.5314214 88.4724617,30.9278987 87.4148962,30.9278987" id="Path"></path>
                <path d="M52.8112855,0.390130955 C51.2333912,0.390130955 49.9502754,1.73254219 49.9502754,3.38692456 L49.9502754,39.2696201 C49.9502754,40.9253385 51.2333912,42.2650775 52.8112855,42.2650775 C54.3926891,42.2650775 55.6745287,40.9253385 55.6745287,39.2696201 L55.6745287,3.38692456 C55.6745287,1.73254219 54.3926891,0.390130955 52.8112855,0.390130955" id="Path"></path>
                <path d="M97.1799115,19.8582669 L93.3994733,25.4851042 L100.238717,40.5505723 C100.730014,41.6311148 101.755677,42.2600673 102.826961,42.2600673 C103.236907,42.2600673 103.655467,42.1662088 104.053928,41.9711433 C105.480924,41.2600227 106.086113,39.4720339 105.40723,37.9766432 L97.1799115,19.8582669" id="Path"></path>
                <path d="M166.108625,8.00169279 L166.108625,39.2696201 C166.108625,40.9253385 167.389507,42.2650775 168.970591,42.2650775 C170.549763,42.2650775 171.830644,40.9253385 171.830644,39.2696201 L171.830644,20.4738588 L166.108625,8.00169279" id="Path"></path>
                <path d="M134.986208,26.6204254 C133.903438,26.6204254 132.909039,26.2129256 132.129983,25.5478993 L132.129983,39.2696201 C132.129983,40.9253385 133.412141,42.2650775 134.992269,42.2650775 C136.57112,42.2650775 137.854235,40.9253385 137.854235,39.2696201 L137.854235,26.6204254 L134.986208,26.6204254" id="Path"></path>
                <path d="M27.7295937,27.2179805 C28.8161905,27.2179805 29.8137795,27.6288205 30.5928369,28.3025312 L30.5928369,3.38692456 C30.5928369,1.73254219 29.3097211,0.390130955 27.7295937,0.390130955 C26.1485092,0.390130955 24.8663504,1.73254219 24.8663504,3.38692456 L24.8663504,28.299859 C25.6476409,27.6261483 26.6420398,27.2179805 27.7295937,27.2179805" id="Path"></path>
                <path d="M41.7816577,27.2179801 C42.8679355,27.2179801 43.8645675,27.6261479 44.6413917,28.2998587 L44.6413917,3.38692423 C44.6413917,1.73254185 43.3627423,0.390130622 41.7816577,0.390130622 C40.2002542,0.390130622 38.9228808,1.73254185 38.9228808,3.38692423 L38.9228808,28.3025308 C39.6997051,27.6261479 40.6972941,27.2179801 41.7816577,27.2179801" id="Path"></path>
                <path d="M2.86228617,27.2179801 C3.94760691,27.2179801 4.94998131,27.6288201 5.72552942,28.3025308 L5.72552942,14.3600254 C4.94998131,15.0360742 3.94760691,15.444576 2.86228617,15.444576 C1.77568936,15.444576 0.779057382,15.0397484 0.00223317023,14.3660377 L0.00223317023,28.2998587 C0.779057382,27.6261479 1.77568936,27.2179801 2.86228617,27.2179801" id="Path"></path>
                <path d="M16.9162644,15.4445764 C15.8277535,15.4445764 14.8311215,15.0360746 14.0542973,14.3600258 L14.0542973,28.3025312 C14.8311215,27.6261483 15.8277535,27.2179805 16.9162644,27.2179805 C18.0015851,27.2179805 18.9982171,27.6261483 19.7750413,28.299859 L19.7750413,14.3660381 C18.9982171,15.0360746 18.0015851,15.4445764 16.9162644,15.4445764" id="Path"></path>
            </g>
        </g>
    </g>
</svg>