<?xml version="1.0" encoding="utf-8"?>
<!-- Generator: Adobe Illustrator 25.2.1, SVG Export Plug-In . SVG Version: 6.00 Build 0)  -->
<svg version="1.1" id="Слой_1" xmlns="http://www.w3.org/2000/svg" xmlns:xlink="http://www.w3.org/1999/xlink" x="0px" y="0px"
	 viewBox="0 0 614.5 270" style="enable-background:new 0 0 614.5 270;" xml:space="preserve">
<style type="text/css">
	.st0{display:none;}
	.st1{display:inline;fill:url(#SVGID_1_);}
	.st2{display:inline;fill:url(#SVGID_2_);}
	.st3{display:inline;fill:url(#SVGID_3_);}
	.st4{display:inline;fill:url(#SVGID_4_);}
	.st5{display:inline;fill:url(#SVGID_5_);}
	.st6{display:inline;fill:url(#SVGID_6_);}
	.st7{display:inline;fill:url(#SVGID_7_);}
	.st8{display:inline;fill:url(#SVGID_8_);}
	.st9{display:inline;fill:url(#SVGID_9_);}
	.st10{display:inline;fill:url(#SVGID_10_);}
	.st11{display:inline;fill:url(#SVGID_11_);}
	.st12{display:inline;fill:url(#SVGID_12_);}
	.st13{display:inline;fill:url(#SVGID_13_);}
	.st14{display:inline;fill:url(#SVGID_14_);}
	.st15{display:inline;fill:url(#SVGID_15_);}
	.st16{display:inline;fill:url(#SVGID_16_);}
	.st17{display:inline;fill:url(#SVGID_17_);}
	.st18{display:inline;fill:url(#SVGID_18_);}
	.st19{display:inline;fill:url(#SVGID_19_);}
	.st20{display:inline;fill:url(#SVGID_20_);}
	.st21{display:inline;fill:url(#SVGID_21_);}
	.st22{display:inline;fill:url(#SVGID_22_);}
	.st23{display:inline;fill:url(#SVGID_23_);}
	.st24{display:inline;fill:url(#SVGID_24_);}
	.st25{display:inline;fill:url(#SVGID_25_);}
	.st26{display:inline;fill:url(#SVGID_26_);}
	.st27{display:inline;fill:url(#SVGID_27_);}
	.st28{display:inline;fill:url(#SVGID_28_);}
	.st29{display:inline;fill:url(#SVGID_29_);}
	.st30{display:inline;fill:url(#SVGID_30_);}
	.st31{display:inline;fill:url(#SVGID_31_);}
	.st32{display:inline;}
	.st33{fill:#666766;stroke:#666766;stroke-width:2;}
	.st34{fill:url(#SVGID_32_);}
	.st35{fill:url(#SVGID_33_);}
	.st36{display:inline;fill:#ED1C24;}
	.st37{fill:url(#SVGID_34_);}
	.st38{fill:url(#SVGID_35_);}
	.st39{fill:url(#SVGID_36_);}
	.st40{fill:url(#SVGID_37_);}
	.st41{fill:url(#SVGID_38_);}
	.st42{fill:url(#SVGID_39_);}
	.st43{fill:url(#SVGID_40_);}
	.st44{fill:url(#SVGID_41_);}
	.st45{fill:url(#SVGID_42_);}
	.st46{fill:url(#SVGID_43_);}
	.st47{fill:url(#SVGID_44_);}
	.st48{fill:#FFB123;}
</style>
<g id="Layer_4" class="st0">
	
		<linearGradient id="SVGID_1_" gradientUnits="userSpaceOnUse" x1="40.15" y1="1076.6836" x2="40.15" y2="885.0526" gradientTransform="matrix(1 0 0 1 0 -810.1102)">
		<stop  offset="0" style="stop-color:#636466"/>
		<stop  offset="1" style="stop-color:#BCBEC0"/>
	</linearGradient>
	<path class="st1" d="M20,210.9c-0.2,0.1-0.4,0.1-0.7,0.2c-1.8,0.4-4.3,0.8-7.4,0.8c-2.4,0-3.3,0.6-3.3,1.6c0,1.4,1.4,2,4.1,2
		c8.2,0,21-0.6,24.9-0.6c3.1,0,18.2,0.6,30,0.6c2.7,0,4.1-0.6,4.1-2c0-1-0.8-1.6-2.4-1.6c-2.4,0-7-0.4-10-0.8
		c-0.7-0.1-1.3-0.2-1.8-0.4c-6.9-0.2-12.7-0.4-14.5-0.4C39.5,210.2,28.2,210.8,20,210.9z"/>
	
		<linearGradient id="SVGID_2_" gradientUnits="userSpaceOnUse" x1="110.45" y1="1076.6833" x2="110.45" y2="885.0536" gradientTransform="matrix(1 0 0 1 0 -810.1102)">
		<stop  offset="0" style="stop-color:#636466"/>
		<stop  offset="1" style="stop-color:#BCBEC0"/>
	</linearGradient>
	<path class="st2" d="M163,213.5c0-0.9,0.6-1.4,2.2-1.6c-0.2,0-0.5-0.1-0.8-0.1c-1.6,0-3.5-0.2-5.7-0.6c-0.5-0.1-1.1-0.2-1.8-0.4h-8
		c-11.4,0-16.6-1-21.9-3.9c-8.8-4.7-16.6-14.3-28-30c-8.2-11.2-17.6-25.1-20.2-28.2c-1-1.2-2.2-1.4-3.7-1.4l-17.8-0.4
		c-1,0-1.6,0.4-1.6,1.6v2.9c0,0.1,0,0.2,0,0.3l14.1,0.3c1.4,0,2.7,0.2,3.7,1.4c2.7,3.1,12.1,17,20.2,28.2c11.4,15.7,19.2,25.3,28,30
		c5.3,2.9,10.4,3.9,21.9,3.9H163c0.8,0,1.5-0.1,2.1-0.2C163.7,215.1,163,214.5,163,213.5z"/>
	
		<linearGradient id="SVGID_3_" gradientUnits="userSpaceOnUse" x1="18.6" y1="1076.6833" x2="18.6" y2="885.0537" gradientTransform="matrix(1 0 0 1 0 -810.1102)">
		<stop  offset="0" style="stop-color:#636466"/>
		<stop  offset="1" style="stop-color:#BCBEC0"/>
	</linearGradient>
	<path class="st3" d="M30.6,195.1c1-8.6,1-24.7,1-43.5v-36c0-31.1,0-36.8-0.4-43.3c-0.4-6.1-1.6-9.3-6.5-11
		c-4.6-0.1-9.8-0.2-14.6-0.2c-3.1,0-4.5,0.4-4.5,1.8c0,1.4,1.2,1.8,3.5,1.8c2.9,0,6.3,0.2,8,0.6c6.7,1.4,8.4,4.7,8.8,11.7
		c0.4,6.5,0.4,12.3,0.4,43.3v36c0,18.8,0,34.9-1,43.5c-0.4,2.6-0.8,4.9-1.4,6.7c0.3-0.1,0.6-0.1,0.8-0.2
		C28.8,205.5,29.8,201.1,30.6,195.1z"/>
	
		<linearGradient id="SVGID_4_" gradientUnits="userSpaceOnUse" x1="77.75" y1="1076.6832" x2="77.75" y2="885.053" gradientTransform="matrix(1 0 0 1 0 -810.1102)">
		<stop  offset="0" style="stop-color:#636466"/>
		<stop  offset="1" style="stop-color:#BCBEC0"/>
	</linearGradient>
	<path class="st4" d="M94.3,108.1c0,13.1-3.6,21.6-8.1,26.9c0.4-0.3,0.9-0.6,1.4-0.9c6.1-4.5,12.1-13.9,12.1-30.7
		c0-29-19.2-37.4-31.3-37.4c-5.1,0-8.8,0.2-10.8,0.8c-1.4,0.4-1.8,1.2-1.8,2.9v1.2c2-0.2,4.4-0.2,7.3-0.2
		C75.1,70.7,94.3,79,94.3,108.1z"/>
	
		<linearGradient id="SVGID_5_" gradientUnits="userSpaceOnUse" x1="196.75" y1="1076.6836" x2="196.75" y2="885.0526" gradientTransform="matrix(1 0 0 1 0 -810.1102)">
		<stop  offset="0" style="stop-color:#636466"/>
		<stop  offset="1" style="stop-color:#BCBEC0"/>
	</linearGradient>
	<path class="st5" d="M174.3,210.9c-0.2,0.1-0.5,0.1-0.7,0.2c-1.8,0.4-4.3,0.8-7.4,0.8c-0.4,0-0.8,0-1.1,0.1
		c1.1,0.2,1.7,0.7,1.7,1.6c0,1.1-0.6,1.6-1.8,1.9c0.6,0.1,1.2,0.2,2,0.2c8.2,0,21.1-0.6,25.7-0.6c5.5,0,18.4,0.6,31.9,0.6
		c2.2,0,3.9-0.6,3.9-2c0-1-1-1.6-3.3-1.6c-3.1,0-7.6-0.4-10.4-0.8c-0.8-0.1-1.4-0.2-2.1-0.4c-6.4-0.2-11.6-0.4-14.7-0.4
		C193.8,210.2,182.5,210.8,174.3,210.9z"/>
	
		<linearGradient id="SVGID_6_" gradientUnits="userSpaceOnUse" x1="174.25" y1="1076.6833" x2="174.25" y2="885.0533" gradientTransform="matrix(1 0 0 1 0 -810.1102)">
		<stop  offset="0" style="stop-color:#636466"/>
		<stop  offset="1" style="stop-color:#BCBEC0"/>
	</linearGradient>
	<path class="st6" d="M184.9,196.1c1-8.6,1-24.7,1-44.5v-36c0-31.1,0-36.8-0.4-43.3c-0.4-6.2-2-9.6-5.6-11c-4.4-0.1-9-0.3-12.4-0.3
		c-3.3,0-4.9,0.4-4.9,1.6c0,1.6,1.2,2,3.3,2c2.4,0,5.1,0.2,7.4,0.8c4.5,1,6.5,4.5,6.9,11.4c0.4,6.5,0.4,12.3,0.4,43.3v36
		c0,19.8,0,36-1,44.5c-0.2,2.2-0.6,4.1-1.1,5.6c0.2,0,0.3-0.1,0.5-0.1C183,205.5,184.3,202.1,184.9,196.1z"/>
	
		<linearGradient id="SVGID_7_" gradientUnits="userSpaceOnUse" x1="218" y1="1076.6854" x2="218" y2="885.0535" gradientTransform="matrix(1 0 0 1 0 -810.1102)">
		<stop  offset="0" style="stop-color:#636466"/>
		<stop  offset="1" style="stop-color:#BCBEC0"/>
	</linearGradient>
	<path class="st7" d="M212.8,65.6c0.3-0.1,0.7-0.2,1-0.2c2.4-0.4,4.1-0.6,6.1-0.6s3.3-0.4,3.3-2c0-1.2-1.6-1.6-4.3-1.6
		c-0.4,0-0.9,0-1.3,0C215.2,61.8,213.7,63.3,212.8,65.6z"/>
	
		<linearGradient id="SVGID_8_" gradientUnits="userSpaceOnUse" x1="164.95" y1="1076.6826" x2="164.95" y2="885.0548" gradientTransform="matrix(1 0 0 1 0 -810.1102)">
		<stop  offset="0" style="stop-color:#636466"/>
		<stop  offset="1" style="stop-color:#BCBEC0"/>
	</linearGradient>
	<path class="st8" d="M166.9,213.5c0-0.9-0.6-1.4-1.7-1.6c-1.6,0.2-2.2,0.7-2.2,1.6c0,1,0.7,1.6,2.1,1.9
		C166.2,215.1,166.9,214.6,166.9,213.5z"/>
	
		<linearGradient id="SVGID_9_" gradientUnits="userSpaceOnUse" x1="164.95" y1="1076.6826" x2="164.95" y2="885.0548" gradientTransform="matrix(1 0 0 1 0 -810.1102)">
		<stop  offset="0" style="stop-color:#636466"/>
		<stop  offset="1" style="stop-color:#BCBEC0"/>
	</linearGradient>
	<path class="st9" d="M166.9,213.5c0-0.9-0.6-1.4-1.7-1.6c-1.6,0.2-2.2,0.7-2.2,1.6c0,1,0.7,1.6,2.1,1.9
		C166.2,215.1,166.9,214.6,166.9,213.5z"/>
	
		<linearGradient id="SVGID_10_" gradientUnits="userSpaceOnUse" x1="418.6895" y1="1076.6631" x2="418.6895" y2="885.0482" gradientTransform="matrix(1 0 0 1 0 -810.1102)">
		<stop  offset="0" style="stop-color:#636466"/>
		<stop  offset="1" style="stop-color:#BCBEC0"/>
	</linearGradient>
	<path class="st10" d="M411.1,10.4c1.7-0.8,4-1.7,5.7-1.8c3.6-0.3,7.5-0.5,7.5-0.5c3.2-0.6,1.7-2.2,1.1-2.5c-0.9-0.4-4.6-0.1-9,0.2
		c-1,0.5-1.8,0.9-2,1C413.1,7.6,412,8.9,411.1,10.4z"/>
	
		<linearGradient id="SVGID_11_" gradientUnits="userSpaceOnUse" x1="289.05" y1="1076.6846" x2="289.05" y2="885.0533" gradientTransform="matrix(1 0 0 1 0 -810.1102)">
		<stop  offset="0" style="stop-color:#636466"/>
		<stop  offset="1" style="stop-color:#BCBEC0"/>
	</linearGradient>
	<path class="st11" d="M285.2,65c1.4-0.2,3-0.3,4.6-0.3c1.8,0,3.1-0.4,3.1-1.8c0-1.4-2.2-1.8-4.7-1.8c-0.1,0-0.2,0-0.3,0
		c-0.3,0.1-0.5,0.3-0.7,0.4C286,62.4,285.4,63.5,285.2,65z"/>
	
		<linearGradient id="SVGID_12_" gradientUnits="userSpaceOnUse" x1="273.1" y1="1076.6835" x2="273.1" y2="885.0536" gradientTransform="matrix(1 0 0 1 0 -810.1102)">
		<stop  offset="0" style="stop-color:#636466"/>
		<stop  offset="1" style="stop-color:#BCBEC0"/>
	</linearGradient>
	<path class="st12" d="M313.4,218.4c1.7,0,2.9-1.2,4.6-4.8c-2.2-0.5-3.5-3.6-7.1-12.4L259.4,76.4c-4.4-10.6-7.8-13.2-14.3-15.2
		c-3.8-0.1-7.8-0.2-11.6-0.2c-3.1,0-5.3,0.2-5.3,1.8c0,1.2,0.6,1.8,2.4,1.8c1.6,0,4.9,0,8,0.8c7.4,2,10.8,4.3,15.5,15.5l51.5,124.8
		C309.5,215.5,310.7,218.4,313.4,218.4z"/>
	
		<linearGradient id="SVGID_13_" gradientUnits="userSpaceOnUse" x1="359.15" y1="1076.6835" x2="359.15" y2="885.0538" gradientTransform="matrix(1 0 0 1 0 -810.1102)">
		<stop  offset="0" style="stop-color:#636466"/>
		<stop  offset="1" style="stop-color:#BCBEC0"/>
	</linearGradient>
	<path class="st13" d="M325.9,174.3c8.8-22.5,39-98.2,40.2-101.8c1.4-4.1,21.7-54.6,28.4-66.9c-2.7,0.4-3.3,1.5-4.1,2.6
		c-5,7-28.1,64.6-29.6,69c-1.1,3.2-25.8,65-37,93.6l1.3,3.5L325.9,174.3L325.9,174.3z"/>
	
		<linearGradient id="SVGID_14_" gradientUnits="userSpaceOnUse" x1="564.15" y1="1076.6854" x2="564.15" y2="885.0535" gradientTransform="matrix(1 0 0 1 0 -810.1102)">
		<stop  offset="0" style="stop-color:#636466"/>
		<stop  offset="1" style="stop-color:#BCBEC0"/>
	</linearGradient>
	<path class="st14" d="M557.8,65.6c0.3-0.1,0.7-0.2,1-0.2c2.5-0.4,5.7-0.6,8-0.6c2.5,0,3.7-0.4,3.7-1.8c0-1.4-1.4-1.8-4.3-1.8
		c-1.1,0-2.3,0-3.6,0C560.2,61.9,558.7,63.3,557.8,65.6z"/>
	
		<linearGradient id="SVGID_15_" gradientUnits="userSpaceOnUse" x1="609.05" y1="1076.6832" x2="609.05" y2="885.0538" gradientTransform="matrix(1 0 0 1 0 -810.1102)">
		<stop  offset="0" style="stop-color:#636466"/>
		<stop  offset="1" style="stop-color:#BCBEC0"/>
	</linearGradient>
	<path class="st15" d="M613,187.6c0-0.2,0-0.4,0-0.5c0-2.4-0.2-3.5-1.6-3.5c-1.6,0-2,1.2-2.2,3.1c-0.3,3.2-2.1,7.7-4.1,10.7
		c1.5-0.8,2.9-1.8,4.1-3.1C610.6,192.8,612,190.2,613,187.6z"/>
	
		<linearGradient id="SVGID_16_" gradientUnits="userSpaceOnUse" x1="558.7" y1="1076.6836" x2="558.7" y2="885.0527" gradientTransform="matrix(1 0 0 1 0 -810.1102)">
		<stop  offset="0" style="stop-color:#636466"/>
		<stop  offset="1" style="stop-color:#BCBEC0"/>
	</linearGradient>
	<path class="st16" d="M567.9,210.9c-9.2-0.4-16.5-0.6-24.9-0.6c-2.2,0-6.7,0-11.7,0.2c-4,0-8.4,0.3-12.2,0.4
		c-0.2,0.1-0.5,0.1-0.7,0.2c-1.8,0.4-4.3,0.8-7.4,0.8c-2.5,0-3.3,0.6-3.3,1.6c0,1.4,1.4,2,4.1,2c4.1,0,9.4-0.4,14.1-0.4
		c4.9-0.2,9.4-0.2,11.7-0.2c8.4,0,15.7,0.2,24.9,0.6c9.2,0.2,19.8,0.6,34.5,0.6c10.2,0,11.6-1,12.7-5c-1.7,0.3-4.1,0.4-7.4,0.4
		C587.7,211.5,577.1,211.1,567.9,210.9z"/>
	
		<linearGradient id="SVGID_17_" gradientUnits="userSpaceOnUse" x1="518.35" y1="1076.6833" x2="518.35" y2="885.0537" gradientTransform="matrix(1 0 0 1 0 -810.1102)">
		<stop  offset="0" style="stop-color:#636466"/>
		<stop  offset="1" style="stop-color:#BCBEC0"/>
	</linearGradient>
	<path class="st17" d="M529.7,195.1c1-8.6,1-24.7,1-43.5v-36c0-31.1,0-36.8-0.4-43.3c-0.4-6.1-1.7-9.3-6.5-11
		c-4.5-0.1-9.2-0.2-13.3-0.2c-3.1,0-4.5,0.4-4.5,1.8c0,1.4,1.2,1.8,3.5,1.8c2.7,0,5.1,0.2,6.7,0.6c6.7,1.4,8.4,4.7,8.8,11.7
		c0.4,6.5,0.4,12.3,0.4,43.3v36c0,18.8,0,34.9-1,43.5c-0.4,2.6-0.8,4.9-1.4,6.7c0.3-0.1,0.6-0.1,0.8-0.2
		C527.8,205.5,528.9,201.1,529.7,195.1z"/>
	
		<linearGradient id="SVGID_18_" gradientUnits="userSpaceOnUse" x1="470.75" y1="1076.6837" x2="470.75" y2="885.0527" gradientTransform="matrix(1 0 0 1 0 -810.1102)">
		<stop  offset="0" style="stop-color:#636466"/>
		<stop  offset="1" style="stop-color:#BCBEC0"/>
	</linearGradient>
	<path class="st18" d="M448.7,211c-1.7,0.8-4.4,1-7.2,1c-1.8,0-3.1,0.4-3.1,1.8s2.2,1.8,4.7,1.8c10.2,0,20-0.6,25.1-0.6
		c7.1,0,18.8,0.6,29.6,0.6c3.1,0,5.3-0.2,5.3-1.8c0-1.2-0.6-1.8-2.5-1.8c-1.6,0-4.9,0-8-0.8c-0.4-0.1-0.8-0.2-1.2-0.4
		c-6.9-0.2-13.4-0.4-18-0.4C468.5,210.4,458.9,211,448.7,211z"/>
	
		<linearGradient id="SVGID_19_" gradientUnits="userSpaceOnUse" x1="372.15" y1="1076.6835" x2="372.15" y2="885.0532" gradientTransform="matrix(1 0 0 1 0 -810.1102)">
		<stop  offset="0" style="stop-color:#636466"/>
		<stop  offset="1" style="stop-color:#BCBEC0"/>
	</linearGradient>
	<path class="st19" d="M334,251.3c2.1-4.2,4.2-9.2,9-19.1c4.8-9.7,17.3-38.9,20.9-47.4c8-19.2,11.8-28.6,22.8-53.7
		c13.1-29.8,22.7-52.1,27.2-62.3c2.1-4.7,3.6-8,4.8-10.4c-0.2,0-0.4-0.1-0.7-0.1c-2.9,0-4.1,3.3-9.4,15.1
		c-4.5,10.2-14.1,32.5-27.2,62.3c-11,25.1-14.9,34.5-22.8,53.7c-3.6,8.5-16.1,37.6-20.9,47.4c-4.8,9.9-7,14.9-9,19.1
		c-0.9,1.9-1.9,3.9-3.1,5.7c1.1-0.5,1.9-0.9,2.1-1C330.3,258.9,332.3,254.8,334,251.3z"/>
	
		<linearGradient id="SVGID_20_" gradientUnits="userSpaceOnUse" x1="434.95" y1="1076.6833" x2="434.95" y2="885.053" gradientTransform="matrix(1 0 0 1 0 -810.1102)">
		<stop  offset="0" style="stop-color:#636466"/>
		<stop  offset="1" style="stop-color:#BCBEC0"/>
	</linearGradient>
	<path class="st20" d="M456.9,201.6c0-2.7-1.8-8.4-4.7-15.7L417,93.1h-0.8c-0.9,2.2-2,5-3.2,8.1l33.8,89.3
		c2.9,7.4,4.7,13.1,4.7,15.7c0,0.3,0,0.5,0,0.8c1.4-0.2,2.5-0.6,3.3-1.2C456.2,204.9,456.9,203.4,456.9,201.6z"/>
	
		<linearGradient id="SVGID_21_" gradientUnits="userSpaceOnUse" x1="323.5106" y1="1076.6831" x2="323.5106" y2="885.0359" gradientTransform="matrix(1 0 0 1 0 -810.1102)">
		<stop  offset="1.560000e-02" style="stop-color:#636466"/>
		<stop  offset="1" style="stop-color:#BCBEC0"/>
	</linearGradient>
	<path class="st21" d="M325.8,266.1c-1.8,0-3.7,0.1-5.5,0.2c-1.7,0.8-4.1,1.7-5.8,1.8c-3.6,0.3-7.5,0.5-7.5,0.5
		c-3.2,0.6-1.7,2.2-1.1,2.5c1.3,0.6,8-0.3,14.4-0.4c6.2-0.1,12.2,0.6,13,0.6c5.7,0,6.4-1.4,7.5-2.9c0.3-0.5,0.7-1.1,1.2-2
		c-0.9,0.1-2,0.2-3.4,0.2C338,266.7,332,266,325.8,266.1z"/>
	
		<linearGradient id="SVGID_22_" gradientUnits="userSpaceOnUse" x1="377.65" y1="1076.6102" x2="377.65" y2="884.9806" gradientTransform="matrix(1 0 0 1 0 -810.1102)">
		<stop  offset="0" style="stop-color:#636466"/>
		<stop  offset="1" style="stop-color:#BCBEC0"/>
	</linearGradient>
	<path class="st22" d="M410.9,97.8c-8.8,22.5-39,98.2-40.2,101.8c-1.4,4.1-21.7,54.6-28.4,66.9c2.7-0.5,3.3-1.5,4.1-2.6
		c5-7,28.1-64.6,29.6-69c1.1-3.2,25.8-65,37-93.6l-1.3-3.5L410.9,97.8L410.9,97.8z"/>
</g>
<g id="Layer_3" class="st0">
	
		<radialGradient id="SVGID_23_" cx="318.5583" cy="1076.6837" r="191.6305" gradientTransform="matrix(1 0 0 1 0 -810.1102)" gradientUnits="userSpaceOnUse">
		<stop  offset="0" style="stop-color:#BCBEC0"/>
		<stop  offset="1" style="stop-color:#636466"/>
	</radialGradient>
	<path class="st23" d="M74.9,148.6c0,0,9.7,1.3,10.7,6.7c1,5.3,26,40.3,52,49.3l9.7,3.3c0,0-6-3-20.7-19.7s-27.7-37-27.7-37
		s2,5.7-2.7,2s-6.3-10.7-6.3-10.7s-2.7,1-2.3,4s-1,4.3-1,4.3S84.2,148.2,74.9,148.6z"/>
	
		<radialGradient id="SVGID_24_" cx="318.5577" cy="1076.6833" r="191.6295" gradientTransform="matrix(1 0 0 1 0 -810.1102)" gradientUnits="userSpaceOnUse">
		<stop  offset="0" style="stop-color:#808285"/>
		<stop  offset="0.9758" style="stop-color:#BCBEC0"/>
	</radialGradient>
	<path class="st24" d="M25.6,74.6c0,0,8.3-0.7,8.3,3.3s0,119.7,0,119.7s-2.3,1.3-4.7,5c-2.3,3.7-4.7,6.7-8.7,8s-4,1.3-4,1.3
		s7.7,1.7,12-2.7c4.3-4.3,9-8,9-8v-51.3c0,0,4-9,10.3-6.7s13,3.7,15.3,3c2.3-0.7-10-1.3-16-5.7c-6-4.3-9.3,0-9.3,0v-65
		c0,0,6.7-10.7,21-11.3c0,0-10.7-4-23.3,8.3C35.6,72.6,28.2,75.9,25.6,74.6z"/>
	
		<radialGradient id="SVGID_25_" cx="318.5613" cy="1076.6877" r="191.6327" gradientTransform="matrix(1 0 0 1 0 -810.1102)" gradientUnits="userSpaceOnUse">
		<stop  offset="0" style="stop-color:#808285"/>
		<stop  offset="0.9758" style="stop-color:#BCBEC0"/>
	</radialGradient>
	<path class="st25" d="M25.6,62.2c0,0,0.3,6,4.7,5s9.7-5.7,15.3-5.7S29.9,65.6,25.6,62.2z"/>
	
		<radialGradient id="SVGID_26_" cx="318.558" cy="1076.6836" r="191.6299" gradientTransform="matrix(1 0 0 1 0 -810.1102)" gradientUnits="userSpaceOnUse">
		<stop  offset="0" style="stop-color:#808285"/>
		<stop  offset="0.9758" style="stop-color:#BCBEC0"/>
	</radialGradient>
	<path class="st26" d="M68.2,65.2c0,0,18.3,3.3,24.3,14.3c0,0-1,1,1,8s5.3,0.7,5.7,3.3c0.3,2.7,8.3,18.7-13,48.3
		c0,0,21.3-17.7,18.3-47.7c0,0-1.7-14.3,1.3-14.7l-2.7-3.7c0,0-0.7,7.3-4.3,5.7C95.2,77.2,90.6,65.2,68.2,65.2z"/>
	
		<radialGradient id="SVGID_27_" cx="318.5575" cy="1076.6844" r="191.6299" gradientTransform="matrix(1 0 0 1 0 -810.1102)" gradientUnits="userSpaceOnUse">
		<stop  offset="0" style="stop-color:#BCBEC0"/>
		<stop  offset="1" style="stop-color:#636466"/>
	</radialGradient>
	<path class="st27" d="M177.9,209.6c0,0,7.3-6.3,10.3-6.7s5.3-2.7,5.3-2.7V73.9c0,0,6.3-7.3,9.3-7.7c3-0.3-5.3-0.3-9.3,2.7
		s-6.3,4-6.3,4s1.3-0.3,1.3,1.7s0,122.7,0,122.7s-2.3,0.3-4,4.3S180.2,209.9,177.9,209.6z"/>
	
		<radialGradient id="SVGID_28_" cx="318.5583" cy="1076.6827" r="191.6285" fx="146.9782" fy="991.3495" gradientTransform="matrix(1 0 0 1 0 -810.1102)" gradientUnits="userSpaceOnUse">
		<stop  offset="0.4062" style="stop-color:#BCBEC0"/>
		<stop  offset="1" style="stop-color:#636466"/>
	</radialGradient>
	<path class="st28" d="M248.6,67.2c0,0,8.3,10.7,15,6.7s13.7-11.7,13.7-11.7s-9.3,7.3-6.7,15.3s35.7,90.3,37.7,91.7
		c2,1.3,2.3-2.7,2.3-2.7s3.7,2.7,2.3,7.7c-1.3,5,2,8.3,2,8.3s1.3-2.7,6.3-4.7s8.3-5.3,0.7,2c-7.7,7.3-13.7,25-13.7,25s1.3-2.7,0-9.7
		s-51-116.3-51-116.3S253.6,70.2,248.6,67.2z"/>
	
		<radialGradient id="SVGID_29_" cx="318.5589" cy="1076.6832" r="191.629" gradientTransform="matrix(1 0 0 1 0 -810.1102)" gradientUnits="userSpaceOnUse">
		<stop  offset="0" style="stop-color:#BCBEC0"/>
		<stop  offset="1" style="stop-color:#636466"/>
	</radialGradient>
	<path class="st29" d="M327.9,175.9c0,0,62-166.7,76.3-167.7l-4.7,0.3C399.6,8.6,321.6,170.2,327.9,175.9z"/>
	
		<radialGradient id="SVGID_30_" cx="-594.4414" cy="604.8835" r="191.6292" gradientTransform="matrix(6.123234e-17 -1 1.022 6.258129e-17 -299.6402 -327.8677)" gradientUnits="userSpaceOnUse">
		<stop  offset="0" style="stop-color:#BCBEC0"/>
		<stop  offset="1" style="stop-color:#636466"/>
	</radialGradient>
	<path class="st30" d="M325.2,266.2c0,0,3.7-0.7,10.3-7.7c6.7-7,65.3-151,67.7-158.3c2.3-7.3,7-5.7,10.7-9s5.3-6,5.3-6s4,6,1,9.3
		s0,12,0,12s38.3,90.7,38,93.3c-0.3,2.7-4.3,5-4.3,5s11.7-8.7,11.7-7s-8.7,11.3-11.7,13s11.3-9.7,15-9.3c3.7,0.3,6.3,7.3,12.7,9.7
		c6.3,2.3,11,2.3,11,2.3s-14-4-19-13.3s-23.3-56.3-23.3-56.3s1,10.7-5.3-3s-19-49-19-49s1.7,0-1.7-6c-3.3-6-3.7-16.3-3.3-17.3
		c0.3-1-1,14.3-6,16.3s-9.7,6-9.7,6l-5,11.3c0,0-63.3,149.7-66.3,151C330.9,254.6,324.2,265.2,325.2,266.2z"/>
	
		<radialGradient id="SVGID_31_" cx="318.5583" cy="1076.6826" r="191.6302" fx="508.438" fy="1050.8402" gradientTransform="matrix(1 0 0 1 0 -810.1102)" gradientUnits="userSpaceOnUse">
		<stop  offset="0" style="stop-color:#636466"/>
		<stop  offset="1" style="stop-color:#BCBEC0"/>
	</radialGradient>
	<path class="st31" d="M522.2,209.9c0,0,15.7-9.7,19-9.3c3.3,0.3,16.3,5.7,18.7,8.3s18.7,0.7,24,1c3.9,0.2,10.9-0.1,14.3-0.2
		c1.2-0.1,2-0.1,2-0.1l8.7-10.7c0,0-2.3,6.7-9.3,7s-30.3,5.3-36.3,1.3s-10.3-10.7-15-10.3c-4.7,0.3-6,0.3-6,0.3s-3.3-12.7-3.3-54.3
		s0-68.7,0-68.7l11-8.7c0,0-10.7,3.3-12.7,8.3s-5.3,0.7-5.3,0.7s3.7,1.3,3.7,10s1.7,109.3-0.3,112.3S532.2,211.6,522.2,209.9z"/>
</g>
<g id="Layer_1" class="st0">
	<g class="st32">
		<path class="st33" d="M313.3,219.6c3.7,0,5-2.6,9.9-13.6l1.1-2.6c1.9-4.2,4.6-10.6,8.1-18.7l0.5-1.1c4.7-10.9,11.2-25.7,18.6-42.6
			c10.4-23.6,14.3-33,21.4-50.2l1.5-3.6c4.1-9.7,16.3-38,20.8-47.3c2.7-5.6,4.6-9.6,6.1-12.9v-0.1c1.1-2.5,2-4.4,2.9-6.2l0.3-0.6
			c1.9-3.8,3.5-6.8,5.4-8c0.7-0.4,4.8-2.4,7-2.6c3.5-0.3,7.2-0.5,7.4-0.5c0.1,0,0.2,0,0.3,0c2-0.4,3.2-1.4,3.4-2.8
			c0.2-1.5-1-2.7-1.9-3.2c-0.6-0.3-1.3-0.4-2.6-0.4c-1.3,0-3.1,0.1-5.2,0.3c-2.3,0.2-4.9,0.3-7.5,0.4c-0.4,0-0.8,0-1.2,0
			c-4.1,0-8-0.3-10.1-0.5C398.6,3,398.1,3,397.8,3c-6,0-7.4,1.4-8.9,3.5l-0.1,0.1c-5.2,7.3-28.3,65-29.9,69.4
			c-0.6,1.8-8.9,22.7-18.5,46.9l-0.7,1.8c-6.6,16.6-13.4,33.7-18,45.3c-0.3,0.7-0.9,1.1-1.7,1.1l0,0c-0.7,0-1.4-0.5-1.7-1.2
			L286.2,85c-3-7.7-4.6-12.9-4.6-15.1c0-1.3,0.4-2.2,1.3-2.8c0.7-0.5,2.1-1.1,6.9-1.1c3.1,0,4.9-1.3,4.9-3.6c0-2.4-2.2-3.6-6.5-3.6
			c-6,0-12,0.2-16.8,0.4c-3.4,0.1-6.3,0.2-8.3,0.2c-3.1,0-7.3-0.1-11.8-0.3c-5.5-0.2-11.8-0.3-17.8-0.3c-1.6,0-5,0-6.4,1.5
			c-0.3,0.4-0.8,0.6-1.3,0.6l0,0c-0.5,0-1-0.2-1.3-0.6c-0.9-1-2.8-1.5-5.4-1.5c-4.4,0-10,0.2-15,0.4c-3.9,0.1-7.6,0.2-9.9,0.2
			c-2.7,0-7-0.1-11.6-0.3c-5.3-0.2-10.8-0.3-15-0.3c-5.9,0-6.7,1.8-6.7,3.4c0,1.8,0.9,3.8,5.1,3.8c2.7,0,5.1,0.3,7,0.8
			c2.6,0.6,5.1,2.2,5.6,9.8c0.4,6.5,0.4,12.1,0.4,43.2v36c0,20,0,35.9-1,44.4c-0.7,6.6-2.1,8.2-4.5,8.6c-2.4,0.5-4.6,0.8-7,0.8
			c-0.3,0-0.6,0-0.9,0c-0.1,0-0.1,0-0.1,0c-0.1,0-0.1,0-0.2,0c-0.2,0-0.4,0-0.7,0c-1.5,0-3.2-0.2-5.4-0.6l-0.2-0.1
			c-3-0.6-10.9-2.2-21.7-13.3c-10.4-10.9-22.2-25.8-37.1-44.6l-5-6.3c-0.6-0.8-0.5-1.9,0.2-2.5c17.5-14.9,24.9-28.3,24.9-44.9
			c0-15.4-9.6-26-14.7-29.5c-11.7-8-26.1-9.1-38.6-9.1c-3.1,0-8.3,0.1-13.9,0.3s-11.4,0.3-14.9,0.3c-1.6,0-4.4-0.1-8.1-0.2H30
			c-5.9-0.2-13.1-0.4-19.8-0.4c-5.6,0-6.3,1.8-6.3,3.6c0,2.4,1.8,3.6,5.3,3.6c3.1,0,6.3,0.2,7.6,0.6c5.4,1.2,7,3.2,7.4,10
			c0.4,6.5,0.4,12.1,0.4,43.2v36c0,18.7,0,34.8-1,43.3c-0.8,6-1.8,9.2-4.5,9.7c-2.4,0.5-4.6,0.8-7,0.8c-4.4,0-5.1,2.1-5.1,3.4
			c0,3.2,3.2,3.8,5.9,3.8c4.9,0,11.4-0.2,16.7-0.4H30c3.4-0.1,6.4-0.2,7.9-0.2c1,0,3.5,0.1,6.6,0.2c6.2,0.2,15.5,0.4,23.5,0.4
			c2.7,0,5.9-0.7,5.9-3.8c0-1.6-1.1-3.4-4.2-3.4c-2.3,0-6.8-0.4-9.8-0.8c-4.7-0.6-5.8-3.6-6.4-9.7c-1-8.5-1-24.7-1-43.5v-0.9
			c0-0.5,0.2-0.9,0.5-1.3c0.3-0.3,0.8-0.5,1.3-0.5l15.8,0.4c0.8,0,1.2,0.1,1.4,0.2c0.2,0.1,0.4,0.2,0.6,0.4l0,0c0,0,0.1,0.1,0.3,0.3
			c1.5,1.7,5.2,7.1,9.7,13.3l0.1,0.1c3.2,4.6,6.9,9.9,10.4,14.6c12.1,16.6,19.8,25.9,28.6,30.6c5.8,3.1,11.3,4.1,22.7,4.1H163
			c0.6,0,1.2,0,1.8-0.1c0.1,0,0.2,0,0.3,0s0.2,0,0.2,0c0.6,0.1,1.2,0.1,1.8,0.1c4.7,0,10.8-0.2,16.2-0.4h0.2
			c3.8-0.1,7.4-0.2,9.4-0.2c2.2,0,5.5,0.1,9.4,0.2c6.3,0.2,14.2,0.4,22.4,0.4c4.2,0,5.7-2,5.7-3.8c0-1-0.5-3.4-5.1-3.4
			c-3,0-7.4-0.4-10.2-0.8c-4.9-0.6-6-3.2-6.6-8.4c-0.8-8.7-0.8-24.5-0.8-44.6v-36c0-31.1,0-36.7,0.4-43.2c0.4-6.8,1.8-9.2,6.1-10
			c2.3-0.4,3.9-0.6,5.8-0.6c2,0,3.4-0.5,4.2-1.4c0.3-0.4,0.9-0.6,1.4-0.6c0,0,0,0,0.1,0c0.6,0,1.1,0.3,1.4,0.7
			c0.7,0.9,1.9,1.4,3.6,1.4c1.5,0,4.7,0,7.5,0.8c6.7,1.8,9.8,3.7,14.4,14.5L303.9,206C308.3,216.8,309.5,219.6,313.3,219.6z
			 M92.5,107.4c0,18.2-7.1,26.1-11.3,29.2c-3.3,2.4-5.6,3.1-13.4,3.1c-5.3,0-10.7-0.6-14.3-1.7c-0.7-0.2-1.2-0.9-1.3-1.7
			c0-0.1,0-0.3,0-0.5V74.2c0-0.9,0.6-1.6,1.5-1.8c2.4-0.5,6.5-0.5,9.4-0.5C74,71.9,92.5,79.4,92.5,107.4z"/>
		<path class="st33" d="M468.2,216.2c3.2,0,7.3,0.1,11.7,0.3h0.1c5.5,0.2,11.8,0.4,17.8,0.4c1.6,0,5,0,6.4-1.6
			c0.3-0.4,0.8-0.6,1.3-0.6l0,0c0.5,0,1,0.2,1.3,0.5c0.9,0.9,2.6,1.4,5,1.4c2,0,4.2-0.1,6.7-0.2c2.5-0.1,5-0.2,7.5-0.2
			c4.9-0.2,9.4-0.2,11.6-0.2c7.9,0,15.1,0.2,24.9,0.6c2,0,4,0.1,6.2,0.1h0.8c7.7,0.2,16.5,0.4,27.6,0.4c10.7,0,13-1.1,14.6-6.8
			c1.7-6.1,3.1-21.6,3.1-24c0-3.8-1-5.3-3.4-5.3s-3.7,1.5-4,4.7c-0.4,3.5-2.7,8.9-4.8,11.2c-4.4,4.8-11.5,5.1-22.6,5.1
			c-15.8,0-20.6-1.5-23.5-4.1c-3.5-3-3.7-16.7-3.7-42.6v-36c0-31.1,0-36.7,0.4-43.2c0.4-6.8,1.8-9.2,6.1-10c2.4-0.4,5.6-0.6,7.7-0.6
			c5.5,0,5.5-2.7,5.5-3.6c0-1.1,0-3.6-6.1-3.6c-4.5,0-11.1,0.2-17.1,0.4c-4.6,0.1-8.6,0.2-10.7,0.2c-2.3,0-6-0.1-10.4-0.2
			c-5.7-0.2-12.1-0.4-17.6-0.4c-5.5,0-6.3,1.8-6.3,3.6c0,2.4,1.8,3.6,5.3,3.6c2.6,0,4.9,0.2,6.4,0.6c5.5,1.2,7,3.2,7.4,10
			c0.4,6.5,0.4,12.1,0.4,43.2v36c0,18.7,0,34.8-1,43.3c-0.8,6-1.8,9.2-4.5,9.7c-2.3,0.5-4.6,0.8-7,0.8c-2,0-3.5,0.4-4.3,1.3
			c-0.3,0.4-0.8,0.6-1.3,0.6l0,0c-0.5,0-1-0.2-1.3-0.6c-0.7-0.8-1.9-1.2-3.4-1.2s-4.7,0-7.5-0.8c-6.7-1.9-9.8-3.7-14.4-14.5
			L427.4,69.5c-4.4-10.8-5.6-13.6-9.4-13.6c-3.7,0-5,2.6-9.9,13.6l-1.1,2.6c-1.8,4.2-4.5,10.4-8,18.2l-0.4,0.9
			c-4.5,10.2-11.2,25.7-18.8,43.2c-10.3,23.5-14.2,32.9-21.3,50l-1.5,3.7c-4.1,9.7-16.3,38-20.8,47.3c-2.7,5.6-4.6,9.6-6.1,12.8v0.1
			c-1.1,2.3-2,4.4-2.9,6.2l-0.3,0.6c-1.9,3.8-3.5,6.8-5.4,8c-0.7,0.4-4.8,2.4-7,2.6c-3.6,0.3-7.4,0.5-7.4,0.5c-0.1,0-0.2,0-0.3,0
			c-2,0.4-3.2,1.4-3.4,2.8c-0.2,1.5,1,2.7,1.9,3.1c0.6,0.3,1.3,0.4,2.6,0.4c1.3,0,3.1-0.1,5.1-0.3c2.3-0.2,4.9-0.3,7.5-0.4
			c0.4,0,0.8,0,1.2,0c4.1,0,8,0.3,10.1,0.5c0.9,0.1,1.4,0.1,1.6,0.1c6,0,7.4-1.4,8.9-3.5l0.1-0.1c5.2-7.3,28.3-64.9,29.9-69.4
			c0.6-1.8,9-22.9,18.7-47.3l0.7-1.8c6.6-16.5,13.3-33.5,17.8-45c0.3-0.7,0.9-1.1,1.7-1.1l0,0c0.7,0,1.4,0.5,1.7,1.2l32.2,85.1
			c3,7.7,4.6,12.9,4.6,15.1c0,1.4-0.4,2.2-1.3,2.9c-0.7,0.5-2.1,1.1-6.9,1.1c-3.1,0-4.9,1.3-4.9,3.6c0,2.4,2.2,3.6,6.5,3.6
			c6,0,12-0.2,16.7-0.4C463.1,216.4,466.1,216.2,468.2,216.2z"/>
		<path class="st33" d="M408.1,183.6c0.8,0.4,2.2,0.4,3.1,0l16.1-8.6c0.9-0.5,0.9-1.2,0.1-1.7l-15.3-8.2c-0.8-0.4-2.2-0.4-3.1,0
			l-16.1,8.6c-0.9,0.5-0.9,1.2-0.1,1.7L408.1,183.6z"/>
	</g>
	<g class="st32">
		
			<linearGradient id="SVGID_32_" gradientUnits="userSpaceOnUse" x1="215.4611" y1="1043.173" x2="215.4611" y2="766.4363" gradientTransform="matrix(1 0 0 1 0 -810.1102)">
			<stop  offset="0" style="stop-color:#424242"/>
			<stop  offset="0.3455" style="stop-color:#737373"/>
			<stop  offset="0.5636" style="stop-color:#BCBEC0"/>
			<stop  offset="0.7879" style="stop-color:#737577"/>
			<stop  offset="1" style="stop-color:#999B9E"/>
		</linearGradient>
		<path class="st34" d="M313.4,219.6c-3.8,0-5.1-2.8-9.4-13.6L252.4,81.2c-4.5-10.8-7.7-12.6-14.4-14.5c-2.8-0.8-6-0.8-7.5-0.8
			c-1.7,0-2.9-0.5-3.6-1.4c-0.3-0.4-0.8-0.7-1.4-0.7c0,0,0,0-0.1,0c-0.5,0-1,0.2-1.4,0.6c-0.8,1-2.2,1.4-4.2,1.4
			c-1.9,0-3.5,0.2-5.8,0.6c-4.3,0.8-5.7,3.1-6.1,10c-0.4,6.5-0.4,12.1-0.4,43.2v36c0,20,0,35.9,0.8,44.6c0.6,5.2,1.7,7.7,6.6,8.4
			c2.8,0.4,7.2,0.8,10.2,0.8c4.6,0,5.1,2.4,5.1,3.4c0,1.9-1.5,3.8-5.7,3.8c-8.2,0-16.1-0.2-22.4-0.4c-3.9-0.1-7.3-0.2-9.4-0.2
			c-2,0-5.6,0.1-9.4,0.2h-0.2c-5.4,0.2-11.5,0.4-16.2,0.4c-0.6,0-1.2,0-1.8-0.1c-0.1,0-0.2,0-0.2,0s-0.2,0-0.3,0
			c-0.6,0.1-1.2,0.1-1.8,0.1h-19.4c-11.4,0-16.9-1-22.7-4.1c-8.8-4.7-16.5-14-28.6-30.6c-3.4-4.7-7.1-10-10.4-14.6l-0.1-0.1
			c-4.4-6.3-8.2-11.6-9.7-13.3c-0.2-0.2-0.2-0.3-0.3-0.3l0,0c-0.2-0.1-0.4-0.3-0.6-0.4c-0.2-0.1-0.6-0.2-1.4-0.2l-15.8-0.4
			c-0.5,0-0.9,0.2-1.3,0.5c-0.3,0.3-0.5,0.8-0.5,1.3v0.9c0,18.8,0,35,1,43.5c0.6,6,1.8,9,6.4,9.7c3,0.4,7.4,0.8,9.8,0.8
			c3.1,0,4.2,1.9,4.2,3.4c0,3.2-3.2,3.8-5.9,3.8c-8,0-17.3-0.3-23.5-0.4c-3.1-0.1-5.6-0.2-6.6-0.2c-1.5,0-4.5,0.1-7.9,0.2h-0.4
			c-5.2,0.2-11.8,0.4-16.7,0.4c-2.7,0-5.9-0.7-5.9-3.8c0-1.3,0.7-3.4,5.1-3.4c2.3,0,4.6-0.2,7-0.8c2.8-0.6,3.7-3.7,4.5-9.7
			c1-8.4,1-24.6,1-43.3v-35.9c0-31.1,0-36.7-0.4-43.2c-0.4-6.8-1.9-8.8-7.4-10c-1.3-0.3-4.5-0.6-7.6-0.6c-3.5,0-5.3-1.2-5.3-3.6
			c0-1.8,0.8-3.6,6.3-3.6c6.7,0,14,0.2,19.8,0.4h0.1c3.6,0.1,6.5,0.2,8.1,0.2c3.5,0,9.3-0.2,14.9-0.3c5.5-0.2,10.7-0.3,13.9-0.3
			c12.5,0,26.9,1.1,38.6,9.1c5.1,3.4,14.7,14,14.7,29.5c0,16.6-7.5,30.1-24.9,44.9c-0.7,0.6-0.8,1.7-0.2,2.5l5,6.3
			c14.9,18.8,26.7,33.7,37.1,44.6c10.8,11.1,18.7,12.7,21.7,13.3l0.2,0.1c2.2,0.4,3.9,0.6,5.4,0.6c0.2,0,0.4,0,0.7,0
			c0.1,0,0.1,0,0.2,0c0.1,0,0.1,0,0.1,0c0.3,0,0.6,0,0.9,0c2.3,0,4.6-0.2,7-0.8c2.4-0.5,3.8-2,4.5-8.6c1-8.5,1-24.3,1-44.4v-36
			c0-31.1,0-36.7-0.4-43.2c-0.4-7.6-2.9-9.2-5.6-9.8c-1.9-0.5-4.2-0.8-7-0.8c-4.2,0-5.1-2.1-5.1-3.8c0-1.6,0.8-3.4,6.7-3.4
			c4.2,0,9.7,0.2,15,0.3c4.6,0.1,8.8,0.3,11.6,0.3c2.2,0,6-0.1,9.9-0.3c5-0.2,10.7-0.4,15-0.4c2.7,0,4.6,0.5,5.4,1.5
			c0.3,0.4,0.8,0.6,1.3,0.6l0,0c0.5,0,1-0.2,1.3-0.6c1.4-1.5,4.8-1.5,6.4-1.5c6,0,12.3,0.2,17.8,0.3c4.5,0.1,8.7,0.3,11.8,0.3
			c2.1,0,5-0.1,8.3-0.2c4.8-0.2,10.8-0.4,16.8-0.4c4.3,0,6.5,1.2,6.5,3.6c0,2.3-1.8,3.6-4.9,3.6c-4.8,0-6.2,0.5-6.9,1.1
			c-0.9,0.7-1.3,1.5-1.3,2.8c0,2.2,1.6,7.4,4.6,15.1l32.2,85.1c0.3,0.7,0.9,1.2,1.7,1.2l0,0c0.7,0,1.4-0.4,1.7-1.1
			c4.5-11.5,11.4-28.7,18-45.3l0.7-1.9c9.6-24.2,17.9-45.1,18.5-46.9c1.5-4.5,24.6-62.1,29.9-69.4l0.1-0.1c1.4-2,2.9-3.5,8.9-3.5
			c0.3,0,0.7,0,1.6,0.1c2.1,0.2,6,0.5,10.1,0.5c0.4,0,0.8,0,1.2,0c2.6,0,5.2-0.2,7.5-0.4c2.1-0.2,3.9-0.3,5.2-0.3
			c1.3,0,2,0.1,2.6,0.4c0.9,0.4,2.1,1.6,1.9,3.2c-0.2,1.4-1.4,2.3-3.4,2.7c-0.1,0-0.2,0-0.3,0c-0.2,0-3.9,0.2-7.4,0.5
			c-2.2,0.2-6.3,2.1-7,2.6c-1.9,1.2-3.5,4.2-5.4,8l-0.3,0.6c-0.9,1.8-1.8,3.7-2.9,6.2v0.1c-1.5,3.2-3.4,7.3-6.1,12.9
			c-4.5,9.3-16.7,37.6-20.8,47.3l-1.5,3.6c-7.1,17.2-11,26.6-21.4,50.2c-7.4,16.9-13.9,31.7-18.6,42.6l-0.5,1.1
			c-3.5,8.1-6.3,14.4-8.1,18.7l-1.1,2.6C318.3,217,317,219.6,313.4,219.6L313.4,219.6z M63.1,71.8c-2.9,0-7,0.1-9.4,0.5
			c-0.8,0.2-1.5,0.9-1.5,1.8v61.7c0,0.2,0,0.4,0,0.5c0,0.8,0.5,1.4,1.3,1.7c3.6,1.1,8.9,1.7,14.3,1.7c7.9,0,10.2-0.7,13.4-3.1
			c4.2-3.1,11.3-11,11.3-29.2C92.5,79.3,74,71.8,63.1,71.8L63.1,71.8z"/>
		
			<linearGradient id="SVGID_33_" gradientUnits="userSpaceOnUse" x1="458.9889" y1="1096.173" x2="458.9889" y2="819.4363" gradientTransform="matrix(1 0 0 1 0 -810.1102)">
			<stop  offset="0" style="stop-color:#424242"/>
			<stop  offset="0.3455" style="stop-color:#737373"/>
			<stop  offset="0.5636" style="stop-color:#BCBEC0"/>
			<stop  offset="0.7879" style="stop-color:#737577"/>
			<stop  offset="1" style="stop-color:#999B9E"/>
		</linearGradient>
		<path class="st35" d="M307.9,272.6c-1.3,0-2.1-0.1-2.6-0.4c-0.9-0.4-2.1-1.6-1.9-3.1c0.2-1.4,1.4-2.3,3.4-2.8c0.1,0,0.2,0,0.3,0
			c0,0,3.8-0.2,7.4-0.5c2.1-0.2,6.3-2.1,7-2.6c1.9-1.2,3.5-4.2,5.4-8l0.3-0.6c0.9-1.8,1.8-3.8,2.9-6.2v-0.1
			c1.5-3.2,3.3-7.2,6.1-12.8c4.5-9.2,16.7-37.6,20.8-47.3l1.5-3.7c7.1-17.1,11-26.6,21.3-50c7.6-17.5,14.4-32.9,18.8-43.2l0.4-0.9
			c3.4-7.9,6.1-14.1,8-18.2l1.1-2.6c4.9-11,6.2-13.6,9.9-13.6c3.8,0,5.1,2.8,9.4,13.6l51.5,124.8c4.5,10.8,7.7,12.6,14.4,14.5
			c2.8,0.8,6,0.8,7.5,0.8s2.7,0.4,3.4,1.2c0.3,0.4,0.8,0.6,1.3,0.6l0,0c0.5,0,1-0.2,1.3-0.6c0.8-0.9,2.2-1.3,4.3-1.3
			c2.3,0,4.6-0.2,7-0.8c2.8-0.6,3.7-3.7,4.5-9.7c1-8.4,1-24.6,1-43.3v-36c0-31.1,0-36.7-0.4-43.2c-0.4-6.8-1.9-8.8-7.4-10
			c-1.5-0.4-3.8-0.6-6.4-0.6c-3.5,0-5.3-1.2-5.3-3.6c0-1.8,0.8-3.6,6.3-3.6c5.5,0,11.9,0.2,17.6,0.4c4.4,0.1,8,0.2,10.4,0.2
			c2.1,0,6.1-0.1,10.7-0.2c6-0.2,12.6-0.4,17.1-0.4c6.1,0,6.1,2.5,6.1,3.6c0,0.9,0,3.6-5.5,3.6c-2.1,0-5.2,0.2-7.7,0.6
			c-4.3,0.8-5.7,3.1-6.1,10c-0.4,6.5-0.4,12.1-0.4,43.2v36c0,25.9,0.2,39.6,3.7,42.6c2.9,2.6,7.7,4.1,23.5,4.1
			c11.1,0,18.1-0.4,22.6-5.1c2.2-2.3,4.5-7.7,4.8-11.2c0.3-3.1,1.7-4.7,4-4.7c2.4,0,3.4,1.5,3.4,5.3c0,2.4-1.4,17.9-3.1,24
			c-1.6,5.8-3.9,6.8-14.6,6.8c-11.2,0-19.9-0.2-27.6-0.4h-0.8c-2.1-0.1-4.2-0.1-6.2-0.1c-9.8-0.4-17-0.6-24.9-0.6
			c-2.2,0-6.7,0-11.6,0.2c-2.5,0-5,0.1-7.5,0.2c-2.4,0.1-4.7,0.2-6.7,0.2c-2.3,0-4-0.5-5-1.4c-0.3-0.3-0.8-0.5-1.3-0.5l0,0
			c-0.5,0-1,0.2-1.3,0.6c-1.4,1.6-4.8,1.6-6.4,1.6c-6,0-12.2-0.2-17.8-0.4h-0.1c-4.4-0.1-8.5-0.3-11.7-0.3c-2.1,0-5.2,0.1-8.4,0.2
			c-4.8,0.2-10.7,0.4-16.7,0.4c-4.3,0-6.5-1.2-6.5-3.6c0-2.3,1.8-3.6,4.9-3.6c4.8,0,6.2-0.5,6.9-1.1c0.9-0.7,1.3-1.5,1.3-2.9
			c0-2.2-1.6-7.4-4.6-15.1l-32.2-85.1c-0.3-0.7-0.9-1.2-1.7-1.2l0,0c-0.7,0-1.4,0.4-1.7,1.1c-4.5,11.5-11.3,28.5-17.8,45l-0.7,1.8
			c-9.7,24.4-18.1,45.5-18.7,47.3c-1.5,4.5-24.6,62.1-29.9,69.4l-0.1,0.1c-1.5,2-2.9,3.5-8.9,3.5c-0.3,0-0.7,0-1.6-0.1
			c-2.1-0.2-6-0.5-10.1-0.5c-0.4,0-0.8,0-1.2,0c-2.6,0-5.2,0.2-7.5,0.4C311,272.4,309.2,272.6,307.9,272.6L307.9,272.6z"/>
	</g>
	<path class="st36" d="M427.5,173.2c0.8,0.4,0.8,1.2-0.1,1.7l-16.1,8.6c-0.9,0.5-2.3,0.5-3.1,0l-15.3-8.2c-0.8-0.4-0.8-1.2,0.1-1.7
		l16.1-8.6c0.9-0.5,2.3-0.5,3.1,0L427.5,173.2z"/>
	<g class="st32">
		
			<linearGradient id="SVGID_34_" gradientUnits="userSpaceOnUse" x1="86.8" y1="869.7659" x2="86.8" y2="1023.3074" gradientTransform="matrix(1 0 0 1 0 -810.1102)">
			<stop  offset="0" style="stop-color:#808285"/>
			<stop  offset="0.2727" style="stop-color:#FFFFFF"/>
			<stop  offset="0.4909" style="stop-color:#E7E8E9"/>
			<stop  offset="0.5515" style="stop-color:#9D9FA2"/>
			<stop  offset="0.7636" style="stop-color:#BCBEC0"/>
			<stop  offset="0.9939" style="stop-color:#A5A7AA"/>
		</linearGradient>
		<path class="st37" d="M26.9,119.3c0-31.1,0-36.8-0.4-43.3c-0.4-6.9-2-10.2-8.8-11.6c-1.6-0.4-5.1-0.6-8-0.6
			c-2.2,0-3.5-0.4-3.5-1.8s1.5-2,4.6-2c10.8,0,23.7,0.6,28,0.6c7,0,22.5-0.6,28.8-0.6c12.9,0,26.6,1.2,37.6,8.8
			c5.7,3.9,13.9,14.3,13.9,28c0,15.1-6.3,29-27,45.8c18.2,22.9,32.3,41.1,44.3,53.7c11.4,11.9,19.8,13.3,22.9,13.9
			c2.2,0.4,4.1,0.6,5.7,0.6s2.4,0.6,2.4,1.6c0,1.6-1.4,2-3.9,2h-19.4c-11.4,0-16.6-1-21.9-3.9c-8.8-4.7-16.6-14.3-28-30
			C86,169.3,76.6,155.4,74,152.3c-1-1.2-2.2-1.4-3.7-1.4l-17.8-0.4c-1,0-1.6,0.4-1.6,1.6v2.9c0,19,0,35.1,1,43.7
			c0.6,5.9,1.8,10.4,8,11.2c3.1,0.4,7.6,0.8,10,0.8c1.6,0,2.4,0.6,2.4,1.6c0,1.4-1.4,2-4.1,2c-11.8,0-27-0.6-30-0.6
			c-3.9,0-16.8,0.6-24.9,0.6c-2.7,0-4.1-0.6-4.1-2c0-1,0.8-1.6,3.3-1.6c3.1,0,5.5-0.4,7.4-0.8c4.1-0.8,5.1-5.3,5.9-11.2
			c1-8.6,1-24.7,1-43.5L26.9,119.3L26.9,119.3z M51,135.4c0,2.2,0.4,3.1,1.8,3.7c4.3,1.4,10.4,2,15.5,2c8.2,0,10.8-0.8,14.5-3.5
			C89.1,133.2,95,123.8,95,107c0-29-19.2-37.4-31.3-37.4c-5.1,0-8.8,0.2-10.8,0.8c-1.4,0.4-1.8,1.2-1.8,2.9
			C51,73.3,51,135.4,51,135.4z"/>
		
			<linearGradient id="SVGID_35_" gradientUnits="userSpaceOnUse" x1="87.8" y1="1023.7668" x2="87.8" y2="866.4196" gradientTransform="matrix(1 0 0 1 0 -810.1102)">
			<stop  offset="0" style="stop-color:#808285"/>
			<stop  offset="0.2727" style="stop-color:#FFFFFF"/>
			<stop  offset="0.4909" style="stop-color:#E7E8E9"/>
			<stop  offset="0.5515" style="stop-color:#9D9FA2"/>
			<stop  offset="0.7394" style="stop-color:#BCBEC0"/>
			<stop  offset="0.9879" style="stop-color:#E9E9EA"/>
		</linearGradient>
		<path class="st38" d="M144.2,210.9c-11.7,0-15.8-1.1-20.2-3.4c-7.9-4.2-15.2-13.1-26.8-29c-3.4-4.8-7.2-10-10.4-14.7
			c-4.7-6.6-8.3-11.9-10-13.8c-2.2-2.7-5.3-2.7-6.4-2.7l-17.7-0.4c-3.2,0-5.3,2.1-5.3,5.2v2.9c0,19,0,35.4,1,44.2
			c0.3,2.9,0.8,8.1,4.5,11.5c-2.9-0.1-5.6-0.1-7.8-0.2c-3.3-0.1-5.6-0.2-6.7-0.2c-1.6,0-4.8,0.1-8.4,0.2c-1.4,0-2.8,0.1-4.2,0.1
			c2.6-3.1,3.3-7.9,3.8-11.4c1-8.9,1-25.1,1-44v-36c0-31.3,0-36.9-0.4-43.5c-0.3-5-1.3-9.1-4.6-11.9c1.7,0,3.4,0.1,5,0.2
			c3.7,0.1,6.6,0.2,8.3,0.2c3.6,0,9.5-0.2,15.1-0.3c5.5-0.2,10.6-0.3,13.7-0.3c11.7,0,25.1,1,35.6,8.2c5,3.4,12.3,12.8,12.3,25
			c0,15.5-7.7,28.4-25.6,43c-1.5,1.2-1.8,3.5-0.6,5c2.5,3.1,4.8,6.1,7.2,9c15,18.9,26.9,33.9,37.4,45c6.2,6.5,11.7,10.1,16,12.1
			L144.2,210.9L144.2,210.9z M63.7,66c-6,0-9.6,0.3-11.9,1c-2,0.6-4.4,2.1-4.4,6.3v62.1c0,2.6,0.5,5.5,4,7c0.1,0,0.2,0.1,0.3,0.1
			c4.2,1.4,10.4,2.2,16.7,2.2c8.5,0,12.1-0.9,16.6-4.2c5.1-3.7,13.6-13,13.6-33.6C98.6,74.6,75.8,66,63.7,66L63.7,66z"/>
		
			<linearGradient id="SVGID_36_" gradientUnits="userSpaceOnUse" x1="196.2" y1="869.7659" x2="196.2" y2="1023.3074" gradientTransform="matrix(1 0 0 1 0 -810.1102)">
			<stop  offset="0" style="stop-color:#808285"/>
			<stop  offset="0.2727" style="stop-color:#FFFFFF"/>
			<stop  offset="0.4909" style="stop-color:#E7E8E9"/>
			<stop  offset="0.5515" style="stop-color:#9D9FA2"/>
			<stop  offset="0.7636" style="stop-color:#BCBEC0"/>
			<stop  offset="0.9939" style="stop-color:#A5A7AA"/>
		</linearGradient>
		<path class="st39" d="M181.2,119.3c0-31.1,0-36.8-0.4-43.3c-0.4-6.9-2.4-10.4-6.9-11.4c-2.2-0.6-4.9-0.8-7.4-0.8
			c-2,0-3.3-0.4-3.3-2c0-1.2,1.6-1.6,4.9-1.6c7.8,0,20.6,0.6,26.6,0.6c5.1,0,17.2-0.6,24.9-0.6c2.7,0,4.3,0.4,4.3,1.6
			c0,1.6-1.2,2-3.3,2c-2,0-3.7,0.2-6.1,0.6c-5.5,1-7.1,4.5-7.6,11.7c-0.4,6.5-0.4,12.3-0.4,43.3v36c0,19.8,0,36,0.8,44.8
			c0.6,5.5,2,9.2,8.2,10c2.9,0.4,7.4,0.8,10.4,0.8c2.2,0,3.3,0.6,3.3,1.6c0,1.4-1.6,2-3.9,2c-13.5,0-26.4-0.6-31.9-0.6
			c-4.7,0-17.6,0.6-25.7,0.6c-2.6,0-4.1-0.6-4.1-2c0-1,0.8-1.6,3.3-1.6c3.1,0,5.5-0.4,7.4-0.8c4.1-0.8,5.3-4.3,5.9-10.2
			c1-8.6,1-24.7,1-44.5V119.3L181.2,119.3z"/>
		
			<linearGradient id="SVGID_37_" gradientUnits="userSpaceOnUse" x1="193.95" y1="1023.7658" x2="193.95" y2="866.4205" gradientTransform="matrix(1 0 0 1 0 -810.1102)">
			<stop  offset="0" style="stop-color:#808285"/>
			<stop  offset="0.2727" style="stop-color:#FFFFFF"/>
			<stop  offset="0.4909" style="stop-color:#E7E8E9"/>
			<stop  offset="0.5515" style="stop-color:#9D9FA2"/>
			<stop  offset="0.7394" style="stop-color:#BCBEC0"/>
			<stop  offset="0.9879" style="stop-color:#E9E9EA"/>
		</linearGradient>
		<path class="st40" d="M180.2,210.6c2.7-3,3.2-7.6,3.5-10.5c1-8.7,1-24.7,1-44.9v-36c0-31.3,0-36.9-0.4-43.5
			c-0.2-3.8-1-8.7-4.2-11.9c0.9,0,1.9,0.1,2.8,0.1c4.6,0.1,8.9,0.3,11.7,0.3c2.4,0,6-0.1,10.1-0.3c0.8,0,1.7-0.1,2.5-0.1
			c-3,2.9-3.8,7.3-4,11.9c-0.4,6.6-0.4,12.3-0.4,43.5v36c0,20.2,0,36.1,0.8,45.1c0.4,3.8,1.3,7.7,4.2,10.3c-1.8-0.1-3.4-0.1-5-0.1
			c-4.1-0.1-7.3-0.2-9.5-0.2c-2.1,0-5.6,0.1-9.7,0.2C182.6,210.5,181.4,210.6,180.2,210.6L180.2,210.6z"/>
		
			<linearGradient id="SVGID_38_" gradientUnits="userSpaceOnUse" x1="327.7894" y1="869.7662" x2="327.7894" y2="1023.3075" gradientTransform="matrix(1 0 0 1 0 -810.1102)">
			<stop  offset="0" style="stop-color:#808285"/>
			<stop  offset="0.2727" style="stop-color:#FFFFFF"/>
			<stop  offset="0.4909" style="stop-color:#E7E8E9"/>
			<stop  offset="0.5515" style="stop-color:#9D9FA2"/>
			<stop  offset="0.7636" style="stop-color:#BCBEC0"/>
			<stop  offset="0.9939" style="stop-color:#A5A7AA"/>
		</linearGradient>
		<path class="st41" d="M391,7.2c1.1-1.5,1.8-2.9,7.5-2.9c0.8,0,6.8,0.8,13,0.6c6.5-0.1,13.2-1.1,14.4-0.4c0.6,0.3,2.1,1.9-1.1,2.5
			c0,0-3.9,0.2-7.5,0.5c-2.7,0.2-7.3,2.5-7.8,2.8c-2.6,1.7-4.6,5.9-6.3,9.3c-2.1,4.2-4.2,9.2-9,19.1c-4.8,9.7-17.3,38.9-20.9,47.4
			c-8,19.2-11.8,28.6-22.8,53.7c-13.1,29.8-22.7,52.1-27.2,62.3c-5.3,11.9-6.5,15.1-9.4,15.1c-2.7,0-3.9-2.9-7.8-12.5L254.7,80
			c-4.7-11.2-8.2-13.5-15.5-15.5c-3.1-0.8-6.3-0.8-8-0.8c-1.8,0-2.4-0.6-2.4-1.8c0-1.6,2.2-1.8,5.3-1.8c10.8,0,22.5,0.6,29.6,0.6
			c5.1,0,14.9-0.6,25.1-0.6c2.5,0,4.7,0.4,4.7,1.8s-1.2,1.8-3.1,1.8c-3.3,0-6.3,0.2-8,1.4c-1.4,1-2,2.4-2,4.3
			c0,2.7,1.8,8.4,4.7,15.7l35.1,92.8h0.8c8.8-22.5,39-98.2,40.2-101.8C362.9,71.8,386,14.2,391,7.2z"/>
		
			<linearGradient id="SVGID_39_" gradientUnits="userSpaceOnUse" x1="326.8" y1="1023.767" x2="326.8" y2="866.4204" gradientTransform="matrix(1 0 0 1 0 -810.1102)">
			<stop  offset="0" style="stop-color:#808285"/>
			<stop  offset="0.2727" style="stop-color:#FFFFFF"/>
			<stop  offset="0.4909" style="stop-color:#E7E8E9"/>
			<stop  offset="0.5515" style="stop-color:#9D9FA2"/>
			<stop  offset="0.7394" style="stop-color:#BCBEC0"/>
			<stop  offset="0.9879" style="stop-color:#E9E9EA"/>
		</linearGradient>
		<path class="st42" d="M314,213.4c-1-1.5-2.8-5.8-4.5-9.9L258.1,78.7c-3.5-8.3-6.6-12.3-10.8-14.8c1.5,0,3,0.1,4.5,0.1
			c4.5,0.1,8.7,0.3,12,0.3c2.2,0,5.1-0.1,8.6-0.2c2-0.1,4.1-0.2,6.4-0.2c-1,1.3-1.9,3.1-1.9,5.6c0,2,0.6,5.8,5,17l35.1,92.7
			c0.5,1.4,1.9,2.3,3.4,2.3h0.8c1.5,0,2.8-0.9,3.4-2.3c4.1-10.4,12.6-32,20.9-52.9c11.6-29.3,18.7-47.2,19.4-49
			c1.6-4.8,24.5-61.6,29.1-68l0.1-0.2c0.5-0.8,0.9-1.2,4.5-1.2c0.1,0,0.6,0.1,1.1,0.1c1.5,0.1,3.8,0.3,6.6,0.5
			c-2.5,2.3-4.3,5.8-5.8,9l-0.3,0.6c-0.9,1.9-1.9,3.9-3,6.4c-1.5,3.2-3.3,7.2-6,12.7c-5,10.1-17.8,40-20.9,47.5l-1.5,3.6
			c-7.1,17.1-11,26.6-21.3,50.1c-7.6,17.4-14.2,32.6-19,43.7c-3.5,8.1-6.3,14.4-8.1,18.6l-1.1,2.5C316.8,208.1,315,212.1,314,213.4
			L314,213.4z"/>
		
			<linearGradient id="SVGID_40_" gradientUnits="userSpaceOnUse" x1="559.9" y1="869.7659" x2="559.9" y2="1023.3074" gradientTransform="matrix(1 0 0 1 0 -810.1102)">
			<stop  offset="0" style="stop-color:#808285"/>
			<stop  offset="0.2727" style="stop-color:#FFFFFF"/>
			<stop  offset="0.4909" style="stop-color:#E7E8E9"/>
			<stop  offset="0.5515" style="stop-color:#9D9FA2"/>
			<stop  offset="0.7636" style="stop-color:#BCBEC0"/>
			<stop  offset="0.9939" style="stop-color:#A5A7AA"/>
		</linearGradient>
		<path class="st43" d="M551.5,155.2c0,26.1,0,40.2,4.3,43.9c3.5,3.1,8.8,4.5,24.7,4.5c10.8,0,18.8-0.2,23.9-5.7
			c2.5-2.7,4.9-8.4,5.3-12.3c0.2-1.8,0.6-3.1,2.2-3.1c1.4,0,1.6,1,1.6,3.5c0,2.2-1.4,17.6-3.1,23.5c-1.2,4.5-2.2,5.5-12.9,5.5
			c-14.7,0-25.3-0.4-34.5-0.6c-9.2-0.4-16.5-0.6-24.9-0.6c-2.2,0-6.7,0-11.7,0.2c-4.7,0-10,0.4-14.1,0.4c-2.7,0-4.1-0.6-4.1-2
			c0-1,0.8-1.6,3.3-1.6c3.1,0,5.5-0.4,7.3-0.8c4.1-0.8,5.1-5.3,5.9-11.2c1-8.6,1-24.7,1-43.5v-36c0-31.1,0-36.8-0.4-43.3
			c-0.4-6.9-2-10.2-8.8-11.7c-1.6-0.4-4.1-0.6-6.7-0.6c-2.2,0-3.5-0.4-3.5-1.8S508,60,511,60c9.6,0,22.5,0.6,28,0.6
			c4.9,0,19.8-0.6,27.8-0.6c2.9,0,4.3,0.4,4.3,1.8s-1.2,1.8-3.7,1.8c-2.2,0-5.5,0.2-8,0.6c-5.5,1-7.2,4.5-7.6,11.7
			c-0.4,6.5-0.4,12.3-0.4,43.3L551.5,155.2L551.5,155.2z"/>
		
			<linearGradient id="SVGID_41_" gradientUnits="userSpaceOnUse" x1="566.5999" y1="1023.7659" x2="566.5999" y2="866.4207" gradientTransform="matrix(1 0 0 1 0 -810.1102)">
			<stop  offset="0" style="stop-color:#808285"/>
			<stop  offset="0.2727" style="stop-color:#FFFFFF"/>
			<stop  offset="0.4909" style="stop-color:#E7E8E9"/>
			<stop  offset="0.5515" style="stop-color:#9D9FA2"/>
			<stop  offset="0.7394" style="stop-color:#BCBEC0"/>
			<stop  offset="0.9879" style="stop-color:#E9E9EA"/>
		</linearGradient>
		<path class="st44" d="M597.7,211.5c-11.1,0-19.8-0.2-27.5-0.4c-2.4-0.1-4.7-0.1-7-0.2c-9.8-0.4-17-0.6-25-0.6
			c-2.2,0-6.8,0-11.7,0.2c-0.5,0-1.1,0-1.7,0c2.5-3.1,3.2-7.8,3.7-11.2c1.1-8.9,1.1-25.1,1.1-44v-36c0-31.3,0-36.9-0.4-43.5
			c-0.3-5-1.3-9.1-4.7-11.9c1.4,0,2.7,0.1,4,0.1c4.3,0.1,8.1,0.2,10.5,0.2c2.2,0,6.2-0.1,10.9-0.2c0.8,0,1.5,0,2.3-0.1
			c-3,2.9-3.7,7.3-4,11.8c-0.4,6.6-0.4,12.3-0.4,43.5v36c0,28.8,0,41.9,5.5,46.7c4.6,4.1,11.2,5.4,27.1,5.4c10.4,0,20.2,0,26.5-6.9
			c0.6-0.7,1.2-1.5,1.8-2.4c-0.5,4.1-1.2,8.3-1.8,10.6c-0.5,1.9-0.7,2-1,2.1C604.8,211.4,600.9,211.5,597.7,211.5L597.7,211.5z"/>
		
			<linearGradient id="SVGID_42_" gradientUnits="userSpaceOnUse" x1="404.9106" y1="869.7664" x2="404.9106" y2="1023.3076" gradientTransform="matrix(1 0 0 1 0 -810.1102)">
			<stop  offset="0" style="stop-color:#808285"/>
			<stop  offset="0.2727" style="stop-color:#FFFFFF"/>
			<stop  offset="0.4909" style="stop-color:#E7E8E9"/>
			<stop  offset="0.5515" style="stop-color:#9D9FA2"/>
			<stop  offset="0.7636" style="stop-color:#BCBEC0"/>
			<stop  offset="0.9939" style="stop-color:#A5A7AA"/>
		</linearGradient>
		<path class="st45" d="M341.6,267.4c-1.1,1.5-1.8,2.9-7.5,2.9c-0.8,0-6.8-0.8-13-0.6c-6.5,0.1-13.2,1.1-14.4,0.4
			c-0.6-0.3-2.1-1.9,1.1-2.5c0,0,3.9-0.2,7.5-0.5c2.7-0.2,7.3-2.5,7.8-2.9c2.6-1.7,4.6-5.9,6.3-9.3c2.1-4.2,4.2-9.2,9-19.1
			c4.8-9.7,17.3-38.9,20.9-47.4c8-19.2,11.8-28.6,22.8-53.7c13.1-29.8,22.7-52.1,27.2-62.3c5.3-11.8,6.5-15.1,9.4-15.1
			c2.7,0,3.9,2.9,7.8,12.5L478,194.6c4.7,11.2,8.2,13.5,15.5,15.5c3.1,0.8,6.3,0.8,8,0.8c1.8,0,2.5,0.6,2.5,1.8
			c0,1.6-2.2,1.8-5.3,1.8c-10.8,0-22.5-0.6-29.6-0.6c-5.1,0-14.9,0.6-25.1,0.6c-2.5,0-4.7-0.4-4.7-1.8s1.2-1.8,3.1-1.8
			c3.3,0,6.3-0.2,8-1.4c1.4-1,2-2.4,2-4.3c0-2.7-1.8-8.4-4.7-15.7l-35.1-92.8h-0.8c-8.8,22.5-39,98.2-40.2,101.7
			C369.7,202.9,346.6,260.4,341.6,267.4z"/>
		
			<linearGradient id="SVGID_43_" gradientUnits="userSpaceOnUse" x1="405.9" y1="1023.767" x2="405.9" y2="866.4208" gradientTransform="matrix(1 0 0 1 0 -810.1102)">
			<stop  offset="0" style="stop-color:#808285"/>
			<stop  offset="0.2727" style="stop-color:#FFFFFF"/>
			<stop  offset="0.4909" style="stop-color:#E7E8E9"/>
			<stop  offset="0.5515" style="stop-color:#9D9FA2"/>
			<stop  offset="0.7394" style="stop-color:#BCBEC0"/>
			<stop  offset="0.9879" style="stop-color:#E9E9EA"/>
		</linearGradient>
		<path class="st46" d="M334.1,266.7c-0.1,0-0.6,0-1.1-0.1c-1.5-0.1-3.8-0.3-6.6-0.5c2.5-2.3,4.3-5.8,5.8-9l0.3-0.6
			c0.9-1.9,1.9-3.9,3-6.4c1.5-3.2,3.3-7.2,6-12.7c5-10.1,17.8-40,20.9-47.5l1.5-3.6c7.1-17.1,11-26.6,21.3-50.1
			c7.6-17.4,14.2-32.6,19-43.7c3.5-8.1,6.3-14.4,8.1-18.7l1.1-2.5c2.2-4.8,3.9-8.8,5-10.2c1,1.5,2.8,5.8,4.5,9.9l51.7,125
			c3.5,8.3,6.6,12.4,10.8,14.8c-1.5,0-3-0.1-4.5-0.1c-4.5-0.1-8.7-0.3-12-0.3c-2.2,0-5.1,0.1-8.6,0.2c-2,0.1-4.1,0.1-6.4,0.2
			c1-1.3,1.9-3.1,1.9-5.6c0-2-0.6-5.8-5-17l-35.1-92.7c-0.5-1.4-1.9-2.3-3.4-2.3h-0.8c-1.5,0-2.8,0.9-3.4,2.3
			c-4.1,10.4-12.6,32-20.9,52.9c-11.6,29.3-18.7,47.2-19.4,49c-1.6,4.8-24.5,61.6-29.1,68l-0.1,0.2
			C338,266.3,337.7,266.7,334.1,266.7L334.1,266.7z"/>
		<g>
			
				<linearGradient id="SVGID_44_" gradientUnits="userSpaceOnUse" x1="538.9" y1="873.0735" x2="538.9" y2="1020.4496" gradientTransform="matrix(1 0 0 1 0 -810.1102)">
				<stop  offset="0" style="stop-color:#9D9FA2"/>
				<stop  offset="0.4848" style="stop-color:#F8F8F9"/>
				<stop  offset="1" style="stop-color:#95979A"/>
			</linearGradient>
			<path class="st47" d="M538.7,197.8c0-0.3,0.1-0.6,0.1-1c0.1,0.3,0.2,0.7,0.3,1C539.1,197.8,538.8,197.8,538.7,197.8z"/>
		</g>
	</g>
</g>
<g>
	<path class="st48" d="M552.1,75.8c0.2-1.6,0.4-3.2,0.6-5l-0.2-0.6C552.2,72.1,552.1,73.9,552.1,75.8z"/>
	<path class="st48" d="M304.1,204.4c0.1,0.2,0.1,0.3,0.2,0.5c0.1,0.9,0.4,1.7,0.8,2.5c-0.1-0.3-0.1-0.6-0.1-0.9
		c0.3,0.8,0.6,1.5,0.9,2.2c0,0,0,0,0,0.1c0.3,0.7,0.6,1.4,0.9,2c-0.1,0-0.1,0-0.2,0c0.5,1.2,0.9,2.5,1.9,3.4c0-0.1,0-0.3-0.1-0.4
		c0.1,0.2,0.2,0.3,0.3,0.5c0,0,0,0.1,0,0.1c1.3,1.5,3,2.4,5,1.5c0.4-0.7,0.9-1.5,1.4-2.2c0.5-0.8,0.9-1.6,1.4-2.4
		c0.7-1.3,1.3-2.6,2-3.9c0.9-2.4,2.1-4.8,3.3-7.1c1.2-4.2,3.3-8.1,5.1-12c1.3-3.5,2.7-7.1,4.5-10.4c5.3-13.5,11.6-26.6,17.2-40
		c2.7-6.1,5.9-12,8.2-18.3c4.5-11.8,9.8-23.4,14.5-35.1c5.3-12.1,10-24.4,15.9-36.1c4.3-11,9.9-21.5,15-32.1c0.7-1.7,1.5-3.3,2.2-5
		l0.4,0.1c0.4-1,0.9-2,1.4-2.9c-0.1,0-0.1-0.1-0.2-0.1c0,0,0,0,0,0c0,0,0,0,0,0l0.4,0.2c0.7-0.7,1.4-1.4,2-2c0,0,0,0,0,0
		c0.3-0.1,1-0.3,1.3-0.4c1.1-0.4,2.2-0.9,3.3-1.3c1-0.3,2-0.8,3.1-0.7c1.1,0,2.2,0,3.3,0.1c1-0.2,1.9-0.4,2.9-0.6
		c-0.4,0-1,0-1.6-0.1c0,0,0,0,0,0c0.6,0,1.2,0,1.6,0.1c0.9-0.2,1.8-0.2,2.6-0.7c-0.1-0.1-0.1-0.2-0.2-0.3c0,0,0,0,0-0.1
		c0.1,0.1,0.2,0.2,0.2,0.4c1.1-0.6,0.1-2-0.7-2.3c-0.1,0-0.2,0-0.2,0c0,0,0.1,0,0.1,0c-1.6-1.1-3.7-0.2-5.5-0.4l0.2,0.5
		c0,0,0.1,0,0.1,0c0,0,0,0,0,0c-1.1,0.1-3.4,0.2-4.5,0.2c-1,0.1-2,0.2-2.9,0.3c-0.1,0-0.2,0-0.3,0c1-0.1,2.1-0.2,3.2-0.3
		c-1.4-0.1-2.7-0.2-4.1-0.2c-3,0.1-6,0.1-9,0.1c0,0.1,0,0.2,0,0.3c0,0-0.1,0-0.1,0c0-0.1,0-0.2,0-0.3c-0.4-0.1-1.2-0.1-1.7-0.2l0,0
		c-0.9-0.3-1.7-0.5-2.6-0.7c-1.2,0.1-2.4,0.3-3.5,0.6l0.8,0.2c0,0,0,0,0,0c0,0-0.1,0-0.1,0l-0.7-0.2c-1.5,0.1-2.7,0.8-3.6,1.8
		c-0.4,0.4-0.7,0.9-1.1,1.3c-5.1,7.1-28.4,65.2-29.7,69.4c-0.8,2.4-14.3,36.3-25.9,65.6c-2,4.9-3.9,9.8-5.9,14.7
		c-0.5,1.3-1.1,2.7-1.7,4.1c-0.3,0.8-0.5,1.6-0.9,2.4c-0.1,0.4-0.5,1.1-0.6,1.5c-0.2,0.6-0.5,1.2-0.7,1.8c-0.1,0.4-0.5,1.1-0.6,1.5
		c-0.3,0.9-0.7,1.8-1.1,2.7c-0.3,0.9-0.6,1.7-1,2.6c0,0,0,0,0.1,0.1c-0.9,2.2-1.6,4.1-2.3,5.7h-0.8l-3.3-8.7c0-0.1,0-0.2,0-0.3
		c-0.5-1.6-1-3.1-1.5-4.6c-0.1-0.1-0.4-0.4-0.6-0.6l-0.2-0.4c0.1-0.5,0-0.7-0.3-0.7l-29.7-78.3c-1.3-3.4-2.4-6.5-3.2-9.1
		c0-0.8-0.7-2.4-0.7-3.2c-0.1-0.3-0.3-0.5-0.4-0.8c-0.3-1.2-0.4-2.1-0.4-2.8c0-1.8,0.7-3.3,2.1-4.3c1-0.7,2.6-1.1,4.4-1.3
		c-0.1,0.2-0.2,0.3-0.4,0.6c1.6-0.2,3.1-0.5,4.7-0.4h0.5c1.3,0,1.9-1.2,2.3-2.3c-0.1,0-0.2,0.1-0.4,0.1c0,0,0,0,0,0
		c0.1,0,0.3-0.1,0.4-0.1l-0.3-0.5c-0.1-0.1-0.3-0.1-0.4-0.2c-0.5-0.6-1.5-0.9-2.8-1c-0.4-0.1-0.8-0.1-1.2-0.2c-1,0.1-2,0.1-3,0.1
		c-0.9,0-1.7,0-2.5,0l-0.3,0c-4.8,0-9.5,0.1-14.3,0l-0.1,0.5c-2.2,0.1-4.1,0.1-5.6,0.1c-1.5,0-3.1,0-4.9-0.1l-0.2-0.6
		c-1.7,0.1-3.4,0.2-5.1,0.3h0.1v0.2c0,0-0.1,0-0.1,0V57c-0.9-0.1-1.7-0.3-2.5-0.4c-0.5,0.1-1.4,0.3-1.9,0.4v-0.1
		c-2.5-0.1-4.9-0.1-7.3-0.1c-0.4,0-0.7,0.1-1.1,0.1c-1.5,0-3,0-4.5-0.1c-1.2,0-2.4-0.1-3.6-0.1c-1,0.1-2.1,0.2-3.1,0.5
		c0,0,0,0,0,0.1c0,0-0.1,0-0.1,0c0,0,0-0.1,0-0.1l-0.6,0.2c-0.8,1.3-0.9,2.9,0.6,3.7c2.8-0.6,5.6-0.2,8.4,0.3c0.1,0,0.1,0,0.2-0.1
		c1.4,0.4,2.6,0.9,3.9,1.4c1.5,0.4,2.7,1.1,3.9,2c1.2,0.8,2.2,1.8,3.2,2.9c0.7,0.7,1.3,1.3,1.9,2c0.2,0.3,0.4,0.7,0.6,1
		c0.4,1.5,1.1,3,1.9,4.5c0,0,0,0.1,0,0.1c0.7,1.5,1.4,3,2,4.5c17.5,41.6,34.4,83.4,51.6,125.1C304,204.6,304.1,204.5,304.1,204.4z
		 M399.1,0.9C399.1,0.9,399.1,0.9,399.1,0.9L399.1,0.9C399.1,0.9,399.1,0.9,399.1,0.9z"/>
	<path class="st48" d="M613.6,194.7c0-0.5,0-1.2,0-1.8c0,0,0.1-0.1,0.1-0.1c0.2-0.9,0.4-1.7,0.6-2.6c0.1-2.7,0.2-5.3,0.2-8
		c-0.3,0.5-0.5,1-0.8,1.5c0-0.1,0-0.2,0-0.3c0.2-0.4,0.5-0.9,0.7-1.3c0-0.3-0.1-0.9-0.2-1.2l-0.4-0.1c0,0,0,0-0.1,0.1
		c-0.5-0.3-1-0.4-1.5-0.2c-0.1,0-0.1,0-0.2,0c-1.7,0-2.1,1.2-2.3,3.1c-0.4,4-2.9,9.7-5.4,12.4c-5.1,5.6-13.2,5.8-24.1,5.8
		c-0.6,0-1.1,0-1.7,0c-0.2,0-0.3-0.1-0.4-0.1c-2-0.1-3.9,0-5.9-0.1c-0.1,0-0.1,0-0.2,0c-0.1,0-0.1,0-0.2,0c-0.8-0.2-1.5-0.4-2.3-0.5
		c-0.5,0-1.5,0-2,0c-0.3,0-1,0-1.4,0c0,0,0,0.1-0.1,0.1c-3.3-0.4-5.7-1-7.6-1.8c-0.2-0.2-0.6-0.5-0.8-0.7c-1.6-0.8-2.3-3.4-4.1-3.8
		c-0.2-0.5-0.4-1-0.6-1.6c0.2-0.8,0.3-1.6-0.1-2.4c0,0,0-0.1,0-0.1c-0.1-0.6-0.4-1-0.8-1.3c-0.1-0.7-0.2-1.4-0.3-2.2
		c0.3,0.1,0.6,0.2,0.8,0.2c-0.2-2.6,0.3-5.3-0.5-7.9c-0.2,1.8,0,3.8-0.5,5.7c0-0.1,0-0.2,0-0.3c0.5-1.7,0.3-3.7,0.5-5.5
		c-0.5-31.2,0.2-62.4-0.3-93.6c0.2-3.3,0.1-6.7,0.2-10.1c-0.1-1.9,0.1-3.8,0.4-5.6c0.1-0.7,0.1-1.5,0.2-2.3
		c-0.1-0.1-0.3-0.5-0.4-0.7c0,0,0,0,0,0c0.1,0.2,0.3,0.5,0.4,0.7l0.5-0.3c0.3-0.8,0.5-1.4,0.8-2.1c-0.1-0.3-0.4-0.6-0.5-0.9
		c1.2-1.8,2.9-2.9,5.6-3.4c2.4-0.4,5.7-0.6,8-0.6c2.5,0,3.7-0.5,3.7-1.9c0,0,0,0,0-0.1c0.3,0,0.6,0,0.8,0v-0.6
		c-0.8-0.7-1.7-1.1-2.7-1.4c-0.9,0.1-1.7,0.1-2.5,0.1c-0.3,0-1,0.1-1.3,0.1c-1.2,0-3.4,0-4.5,0V57c0,0-0.1,0-0.1,0v-0.1
		c-3.3-0.1-6.5-0.1-9.8-0.1c-1.9,0.1-3.8-0.2-5.7,0.4c-0.1,0-0.2,0-0.3,0c-3.2,0.2-6.4,0.3-9.5,0.1c0,0,0,0,0.1,0
		c-1.6-0.2-3.2-0.4-4.8-0.6c-0.9,0-1.7,0.1-2.5,0.1v0.5c0,0-0.1,0-0.1,0v-0.4c-0.8-0.1-1.6-0.1-2.4-0.2c-2.7,0.1-5.3,0.2-8,0.2
		c-0.5,0-1.4,0-1.9,0c0,0-0.1,0-0.1,0c-0.5,0-1.3,0-1.8,0c-1.3,0-2.6-0.1-3.9-0.1c-0.9,0.1-2.3-0.1-3,0.5c-0.8,0.3-1.1,0.8-1.1,1.5
		c0,1,0.5,1.5,1.4,1.7c0.2,0.2,0.3,0.4,0.6,0.5h0.5c2.5-0.5,5,0,7.5,0.4l0.7,0.1c0.1,0,0.5,0.1,0.7,0.1c5.9,1.6,7.4,4.9,7.8,11.5
		c0.4,6.6,0.4,12.4,0.4,43.7v36.3c0,19,0,35.2-1,43.9c-0.8,5.9-1.9,10.5-6,11.3c-1.8,0.4-4.3,0.8-7.4,0.8c-2.5,0-3.3,0.6-3.3,1.6
		c0,0.3,0.1,0.6,0.2,0.9c0,0,0,0.1,0,0.1c0.1,0.1,0.2,0.1,0.2,0.2c0.2,0.2,0.4,0.3,0.7,0.5c0.5,0.3,0.9,0.7,1.5,0.9
		c1.2-0.1,3.5-0.2,4.6-0.3c0.1,0,0.1-0.1,0.2-0.1c1.2,0,3.3,0.1,4.5,0.1c0.4,0,1.4,0,1.9,0h0.5c0,0,0,0.1,0,0.1h0.6
		c0.9,0,1.8,0,2.7,0c0.4,0,1.4,0,1.9,0s1.5,0,2,0s1.5,0,2,0c1.1,0,2.2,0.1,3.2,0.1c3.3-0.1,6.6-0.1,9.9-0.1v-0.6
		c-5.2-0.2-10.4,0.2-15.6-0.1c0.5,0,1,0,1.5,0c4.7,0.2,9.5-0.1,14.2,0c1.1,0,2.3,0,3.4,0c1.4,0,2.8,0.1,4.1,0.1c-2.5,0-5,0-7.5,0
		v0.7c2.6,0,5.2,0,7.8,0c2,0,4-0.2,6-0.2c-1.4-0.2-2.7-0.4-4.1-0.4c0.6,0,1.3,0,1.9,0.1c0.7,0.1,1.4,0.2,2.1,0.3
		c1.1,0.1,3.3,0.2,4.4,0.2h0l-0.1,0.6c1.3,0,2.7,0,4,0c1.1,0,3.4,0,4.5,0v0.1c1.7,0,3.4,0,5.2,0v-0.1c2.2,0,4.5,0,6.7-0.1
		c-0.8-0.1-1.5-0.2-2.2-0.3c0.2,0,0.4,0,0.5,0c0.6,0.1,1.1,0.2,1.7,0.3c1.1,0.1,3.2,0.2,4.3,0.3c5.2,0.5,10.7,1.2,15.9,0.1
		c0.4,0,1.3-0.1,1.8-0.2c1.6-0.4,3.1-0.8,4.6-1.3c1.5-2,2.3-4.5,2.8-7c-0.2-0.6-0.4-1.2-0.6-1.7c0,0,0-0.1,0-0.1
		c0.2,0.6,0.4,1.1,0.6,1.7c0.2-0.9,0.4-1.8,0.6-2.7l0.6-0.2c-0.1-1.3-0.2-2.6-0.3-3.8c0.2-0.2,0.4-0.5,0.6-0.7
		c0.1-0.3,0.2-0.9,0.2-1.2c0-0.5-0.1-1.5-0.1-2c-0.4,0.4-0.7,0.7-1.1,1.1c0-0.1,0-0.1,0-0.2C613,195.3,613.3,195,613.6,194.7z
		 M551.3,99.1c0,0.1,0,0.2,0,0.3c0-0.1,0-0.1,0-0.2c0-4.2-0.3-8.4,0.4-12.5C551.1,90.8,551.3,95,551.3,99.1z M521.9,212.5
		C521.9,212.5,522,212.5,521.9,212.5c0,0.1,0,0.2,0,0.3C521.9,212.7,521.9,212.6,521.9,212.5z"/>
	<path class="st48" d="M225.6,210.7C225.6,210.7,225.6,210.7,225.6,210.7c0-0.6-0.3-1-1.1-1.3c-0.6-0.4-1.3-0.5-2-0.4
		c-0.2,0.1-0.6,0.1-0.9,0.1c-2.4,0-5.4-0.3-7.9-0.6l-0.2,0l-0.6-0.1c-0.3,0-0.7-0.1-1-0.1c0,0-0.1,0-0.1,0
		c-6.1-0.8-7.6-4.5-8.2-10.1c0-0.5-0.1-1.1-0.1-1.6c0.1,0,0.2-0.1,0.2-0.1c-0.1-2.8,0.5-5.7-0.4-8.4c-0.1,1.2-0.1,2.4-0.1,3.5
		c0-0.2,0-0.4,0-0.6c0-1,0-2,0.1-2.9c-0.2-3.6-0.2-7.3-0.2-10.9h0c0-26.5,0-52.9,0-79.4H203c0.1-5.2-0.2-10.5-0.1-15.8
		c0-0.5,0-1,0-1.4c0.1-3,0.2-6,0.7-9c0.2-1,0.5-3,0.6-4c0.2-0.7,0.5-1.3,0.8-2c0-0.1-0.1-0.2-0.2-0.3c1.1-2.1,3-3.4,6-3.9
		c2.5-0.4,4.1-0.6,6.2-0.6c1.4,0,2.4-0.2,2.9-0.8c0,0,0.1,0,0.1,0c0.2-0.1,0.5-0.4,0.7-0.5c0-2.4-2.6-2.7-4.4-2.9
		c-0.4,0.1-1,0.2-1.4,0.3c0,0-0.1,0.1-0.1,0.1c0,0,0,0,0,0c0,0,0.1-0.1,0.1-0.1c-1.1-0.1-3.3-0.1-4.4-0.1v0c-3.1,0-6.2,0-9.3,0
		c-1.8,0.1-3.7-0.1-5.4,0.5c0.6,0,1.4,0.1,2.2,0.1c-0.4,0-0.8,0-1.2,0c-0.4,0-0.8-0.1-1.1-0.1c-2.9,0.1-5.9,0.3-8.8,0.1
		c-0.7,0-1.3,0-2,0c-1.1,0-2.3-0.1-3.5-0.1c0,0,0.1,0,0.1,0c0,0,0.1,0,0.1,0c1.8,0,3.5,0,5.3,0c-1-0.2-3.1-0.5-4.2-0.7
		c-0.2,0.1-0.8,0.2-1.1,0.3l0,0v0c-1.3-0.2-2.6-0.2-3.9-0.2l-0.5,0.2c-1.2-0.1-3.4-0.2-4.5-0.2c-1.2,0.1-3.6,0.1-4.8,0.1
		c0,0,0.1,0.1,0.1,0.1c0,0,0,0,0,0c-0.1-0.1-0.1-0.2-0.2-0.2h-0.6c-1.1,0-3.4,0-4.5,0c-1.3,0-2.6,0.2-3.8,0.8
		c-0.2,0.9,0.1,1.9,0.4,2.7c0-0.2,0-0.4,0-0.6c0,0.1,0.1,0.1,0.1,0.2c0,0.1,0,0.2,0,0.3c0.1,0,0.2,0.1,0.4,0.1
		c0.3,0.2,0.7,0.3,1.2,0.4c0.2,0.1,0.7,0.1,0.9,0.1c0.1,0,0.2,0,0.3,0c0.1,0,0.1,0,0.1,0c0.3,0,0.5,0,0.8,0c-0.4,0-0.8,0-1.2,0
		c0.4,0.2,1.1,0.5,1.5,0.5c0.9,0,1.8,0,2.7,0c0.3,0,1-0.1,1.3-0.1c-1.3-0.2-2.7-0.3-4-0.4c0.7,0,1.3,0,2,0.1
		c0.7,0.1,1.4,0.2,2.1,0.3l0.6,0.1c0.3,0,0.8,0.2,1.1,0.2c0,0,0,0,0,0c0.1,0,0.1,0,0.2,0c-0.1,0.1-0.2,0.1-0.3,0.2
		c0.4,0.1,1.1,0.3,1.5,0.4c0.7,0,1.4,0.5,1.9,1c0.4,0.4,0.9,0.9,1.3,1.3c0.1,0.2,0.4,0.5,0.6,0.7c0.2,0.3,0.6,1,0.8,1.4
		c0.4,0.9,0.6,1.9,0.9,2.8c0.2,1,0.2,2,0.2,3.1c0,0.2,0.1,0.5,0.2,0.7c-0.1,2.9,0.3,5.7,0.5,8.6c0,0.8,0,1.6,0,2.5h0
		c0,27.1-0.1,54.3,0,81.4c0,6.6-0.1,12.6-0.2,17.8c-0.2-0.2-0.3-0.4-0.4-0.5c-0.1,0.5-0.1,1.6-0.1,2.2c0.3,4.1,0,8-0.5,12.1
		c0,0-0.1,0.1-0.1,0.1c0,1,0,2.1-0.1,3.1l0.1,0c0,0,0,0.1,0,0.1l-0.1,0c-0.5,1.8-1.1,3.5-1.7,5.2c-0.9,1.3-2.1,2.1-3.9,2.5
		c-1.2,0.3-2.7,0.5-4.5,0.7c-0.2,0-0.3-0.1-0.4-0.1c-1.1,0-2.2,0.1-3.2,0.2c-0.3-0.1-0.6-0.1-1-0.1c-1.7,0-3.5-0.2-5.8-0.6
		c-3.1-0.6-11.6-2-23.1-14c-9.2-9.6-19.5-22.4-31.9-37.9c-0.4-0.6-0.9-1.2-1.3-1.8c-0.1-0.1-0.2-0.3-0.4-0.4c-1.6-2-3.1-3.9-4.8-6
		l0.1-0.2c-0.1,0-0.2,0-0.3,0c-1.9-2.4-3.9-4.9-6-7.5c0-0.2,0-0.5,0-0.7c0.8-0.6,1.5-1.2,2.2-1.9c0.8-0.1,1.6-1.3,2.4-1.7
		c2.2-2,4.4-4,6.7-5.8c0.1-1.9,2-2.9,3-4.3c6.8-7.6,11.4-17.2,12.5-27.3c0.1-1.2,0.1-2.5,0.1-3.7c0.2-2,0-3.9-0.4-5.8
		c-0.1-0.7-0.2-1.3-0.3-1.9c0.1-0.3,0.2-0.8,0.3-1.1c-0.3-0.6-0.6-1.2-1-1.8c-0.7-2.5-1.6-4.8-2.7-6.9c0-0.7-1.1-2.2-1.6-3
		c0,0,0,0-0.1,0.1c-1.6-2.6-3.5-4.8-5.3-6.5c0,0,0,0,0,0c-0.3-0.3-0.6-0.6-0.9-0.8c-0.8-0.7-1.5-1.3-2.3-1.8c-0.1,0-0.1-0.1-0.2-0.1
		c-0.2-0.3-0.6-0.7-0.8-1c-1-0.4-1.9-1-2.9-1.4c0,0,0,0,0-0.1c-1.5-0.9-3-1.6-4.6-2.2c-0.2,0-0.3,0.1-0.5,0.1c0,0,0,0,0,0
		c0.1,0,0.3-0.1,0.4-0.1c-1.7-0.6-3.4-1.4-5.2-1.5c-4.1-1.1-8.4-1.8-12.7-2.2c-0.1,0-0.2,0-0.3,0c0,0,0,0,0,0c0,0-0.1,0-0.1,0
		c0,0,0,0,0,0c0,0-4.3-0.4-4.6-0.3c-3.2-0.1-6.4-0.2-9.5-0.1c-0.8,0-1.7,0-2.7,0.1c0.2,0,0.4,0,0.7-0.1c-2.7,0-5.3-0.1-8-0.1v0.4
		c-2.9,0.1-5.9,0.2-8.6,0.2c-1.1,0-2.1,0-3.2-0.1c-2.5,0.1-5.1,0.1-7.6,0.1c-0.4,0-0.9,0-1.5,0c-1,0-2.1-0.1-3.2-0.1v-0.2
		c-1.3-0.4-2.6-0.4-3.9-0.5L21,56.9l0,0.1c-2.2-0.1-4.5-0.1-6.7-0.1c-0.8,0-1.7,0-2.5,0c0,0,0-0.1-0.1-0.1c-0.4,0-1,0-1.3,0
		c-1,0-2.1,0-3.2,0c-1.1,0-2.1,0-3.2,0c-1.1,0.1-3.2-0.3-3.3,1.3c0.1,0.1,0.1,0.1,0.2,0.2c0,0,0,0,0,0c-0.1-0.1-0.1-0.1-0.2-0.2
		C0.5,59.3,1,60.4,2,60.9c0.3,0,0.8,0,1.1,0c2.3-0.3,4.6-0.2,6.9,0.3h0.7l0.6,0.1c1.1,0.2,2.1,0.5,3.2,0.7l0.5,0.1
		c0,0,0.1,0,0.1,0.1c0,0,0,0,0,0c0.2,0.1,0.6,0.4,0.8,0.5c0.6,0.5,1.3,1.1,1.9,1.7c0.8,0.8,1.3,1.8,1.8,2.7c0.1,0.2,0.4,0.7,0.5,0.9
		c0.3,2.6,0.7,5.2,0.7,7.8c0.1-0.1,0.3-0.3,0.5-0.4c0,0.1,0,0.1,0,0.2c-0.1,0.1-0.2,0.2-0.3,0.2c-0.1,0.9-0.1,1.7-0.1,2.6
		c0,1.7,0,3.5,0,5.2c0,2.2,0,4.3,0,6.4c0,26.3,0,52.5,0,78.7h0.6c0-8.8,0-17.7,0-26.6l0.1,0c0,0,0,0,0,0c-0.1,8.9,0,17.8-0.1,26.7
		c0,0,0,0,0,0h-0.6c0.2,5.9-0.5,11.8,0.4,17.7c0,1-0.1,1.9-0.1,2.8c-0.1,0.2-0.2,0.3-0.3,0.4c0,0,0-0.1,0-0.1
		c-0.9,3.7-0.6,7.8-1.3,11.6c0.1,0,0.1,0,0.2-0.1c-0.3,1.2-0.6,2.2-1,3.2c-0.1-0.1-0.2-0.3-0.4-0.4c-0.3,0.8-0.6,1.6-1,2.4l-0.4,0.4
		c-0.5,0.4-1,0.8-1.5,1.2c-0.1,0-0.1,0-0.2,0.1c-0.1,0-0.1,0-0.2,0.1c-0.2,0.1-0.4,0.1-0.7,0.2c-1.8,0.4-4.3,0.8-7.4,0.8
		c-0.3,0-0.6,0-0.8,0c-0.2,0-0.3,0-0.4,0c-0.3,0.1-0.6,0.1-0.9,0.2c0,0,0,0,0,0c-0.1,0-0.3,0.1-0.4,0.2c0,0,0,0,0,0
		c-1,0.5-1.6,1.4-1.3,2.9l0.4,0.2c0.1-0.5-0.1-1.8,0.2-1.8c0,0,0,0.1,0,0.1c-0.1,0.4,0,1.1,0,1.5c0.4,0.2,1.1,0.6,1.5,0.8l0.5,0.1
		c1.1-0.1,3.4-0.3,4.5-0.4c0.1,0,0.2-0.1,0.2-0.1c-0.1,0.1-0.2,0.1-0.3,0.2c1.2,0,3.5,0.1,4.7,0.1c0.4-0.1,1.3-0.1,1.8-0.1
		c0.2-0.2,0.4-0.3,0.6-0.5c0,0,0.1,0,0.1,0c-0.2,0.2-0.5,0.4-0.7,0.7h0.6c0.5,0,1.5,0,2,0s1.5,0,2,0c1.1,0,2.2,0,3.3,0
		c1.1,0,2.2,0,3.2,0c4.6-0.1,9.2-0.1,13.8-0.1v-0.7c-5.7-0.3-11.6,0.4-17.3-0.1c0.3,0,0.7,0,1,0c4.3,0.3,8.7-0.1,13-0.1
		c1.6,0,3.5,0.1,5.5,0.2c1.5,0.1,3,0.3,4.5,0.5L49,213c0-0.1,0.1-0.3,0.2-0.5c0,0,0.1,0,0.1,0c-0.1,0.2-0.2,0.4-0.3,0.5
		c1.2,0,3.5,0,4.6,0c0.3,0,0.8-0.1,1.1-0.1c0.1,0,0.1,0.1,0.2,0.1c1.1,0,2.2,0,3.3,0c-0.2-0.1-0.3-0.2-0.5-0.3c2,0,3.9,0,5.8,0
		c2.7,0,4.1-0.7,4.1-2.1c0-1-0.8-1.6-2.5-1.6c-2.5,0-7-0.4-10.1-0.8c-6.1-0.8-7.4-5.3-8-11.3c0-0.1,0-0.3,0-0.4
		c0.5-0.6,0-2.5-0.3-3.8c0-0.2,0-0.4,0-0.6c0,0,0-0.1,0-0.1c0-0.4-0.1-0.9-0.1-1.3c-0.1-1.2-0.1-2.4-0.2-3.8c0-1.5,0-3,0-4.5h-0.1
		C46,174.1,46,164,46,152.8v-2.9c0-0.4,0.1-0.7,0.2-1c0.4-0.3,0.8-0.4,1.4-0.3c1.1,0,2.2,0,3.3,0c3,0,6.1,0.1,9.1,0l5.6,0.1
		c0.7,0,1.3,0,1.9,0.2c0.5,0.3,0.9,0.6,1.4,1v0c0.4,0.3,0.7,0.7,1.1,1c0.6,0.7,1.3,1.7,2.2,2.9c1.5,2.3,2.7,4.8,4.8,6.7
		c0.1,0.2,0.3,0.4,0.4,0.5c0,0,0,0-0.1,0c1.7,2.5,3.5,4.9,4.9,7.7c4.2,5.5,8.3,11.4,12.6,16.9c0,0.1,0,0.3,0.1,0.4
		c2.7,3.7,5.4,7.5,8.8,10.6c1.3,1.4,2.5,2.8,3.7,4c-0.3,0-0.5,0.1-0.6,0.1c0.9,1.1,2,2.1,3,3.3c0,0,0-0.1,0-0.1
		c0.7,0.4,1.4,0.8,2.1,1.2c0,0,0.1-0.1,0.1-0.1c0,0-0.1,0.1-0.1,0.1c1.5,1.2,2.9,2.4,4.6,3.3c5.1,3.5,11.5,4.1,17.5,4.8
		c0.1,0,0.2,0,0.3,0c1,0.3,2.2,0.4,3.3,0.4c1.9-0.1,3.9-0.1,5.8-0.1c1.3,0,2.5,0,3.8,0l0,0.2c1.1,0,2.1,0,3.2,0c1.1,0,2.1,0,3.2,0
		c2.8,0.2,5.6-0.2,8.4-0.6c0.4,0,1.2-0.1,1.6-0.2c-0.3-0.1-0.8-0.2-1.2-0.2c0.2,0,0.4,0,0.7,0c0.2,0,0.4,0.1,0.5,0.1
		c0.4,0,1.2,0,1.6,0c2.4,0.1,4.8,0.1,7.2,0c0.1-0.1,0.2-0.2,0.3-0.3c0,0,0.1,0,0.1,0c-0.2,0.1-0.3,0.2-0.5,0.4
		c0.3,0.1,1,0.1,1.3,0.1c0.8,0,1.7,0,2.6,0c1.1-0.1,2.2-0.1,3.3-0.1c0.9,0,1.7,0,2.6,0c1.4,0,2.7,0,4,0c4.1-0.1,8.3,0,12.4,0
		l-0.1-0.6c-0.1,0-0.2,0-0.3,0c0.2,0,0.3,0,0.5,0l0.1,0.5c0.3,0.1,1,0.1,1.4,0.1c1.1,0,3.4,0,4.5,0c0.8,0,1.7,0,2.6,0
		c1.3-0.1,2.6-0.1,3.9-0.1h0.6c1,0,2.1,0.1,3.2,0c-0.1-0.1-0.1-0.1-0.2-0.1c2.3,0,4.6,0,6.9,0c2.1,0,3.6-0.6,3.9-1.8
		c0,0,0.1,0,0.1,0C225.7,210.9,225.6,210.8,225.6,210.7z M88.1,120c0-0.1-0.1-0.2-0.1-0.2c-0.1,0.4-0.4,1.2-0.5,1.6
		c-0.8,2.2-1.7,4.2-2.7,6.3c-3.4,4.9-8,10.1-14.4,10.7c-2.9,0.5-5.9,0.4-8.8,0.5c-0.7,0-1.3,0-2-0.1l-0.2-0.1c0,0-0.1,0-0.1,0.1
		c-2.4-0.2-4.8-0.4-7-0.9c0-0.1,0-0.3-0.1-0.4c-0.3,0-0.9,0.1-1.2,0.1l-0.2,0c-0.9-0.2-1.8-0.4-2.6-0.7c0.4-3.9-2.4-7.2-2-11.1
		c0.2-13.4-0.1-26.8,0.2-40.2c-0.2-5.5-0.1-10.9-0.2-16.4l0,0c0.2-0.3,0.4-0.7,0.5-1c0.1-0.1,0.2-0.2,0.4-0.3
		c0.9-0.3,1.9-0.6,2.9-0.6c0.6,0,1.6,0,2.1,0L52,67c0,0,0,0,0,0l0.1,0.3c0.3,0,0.9,0.1,1.2,0.1c2.6,0,5.2-0.1,7.8-0.1l0-0.1
		c4.8,0.4,9.6,1.8,13.6,4.6c1.2,0.9,0.7,1,2,1.5c0.2,0.2,0.5,0.4,0.7,0.6c3.4,3,5.9,5.8,8.3,10.6c-0.1-0.4-0.2-0.8-0.2-1.2
		c0.1,1,0.8,2.1,1.1,3.1c-0.3-0.7-0.6-1.3-0.8-1.9c0.2,0.7,0.6,1.3,0.8,1.9c0,0.1,0,0.2,0.1,0.3c1,1.9,1.6,3.9,1.9,6
		c0.4,2.2,0.9,4.3,1.4,6.5c0,0.2,0,0.4,0,0.6c-0.1,0.9-0.2,1.8-0.3,2.7c0.1,0.9,0.2,1.7,0.3,2.6c0.1-0.1,0.1-0.3,0.2-0.4
		c0,2.4-0.1,4.7-0.4,6.8c-0.1-0.5-0.2-0.9-0.4-1.4c-0.2,2.1-0.4,4.3-0.7,6.4c-0.3,1.1-0.6,2.2-0.6,3.3c0,0,0,0.1,0.1,0.1
		C88.1,119.9,88.1,120,88.1,120z M78.5,74.3C78.5,74.3,78.5,74.3,78.5,74.3C78.5,74.3,78.5,74.3,78.5,74.3
		C78.5,74.3,78.5,74.3,78.5,74.3z M82.6,78.6c-0.3-0.3-0.5-0.6-0.7-0.9C82.2,78,82.4,78.3,82.6,78.6z M147.2,213.2L147.2,213.2
		c1.1-0.1,3.3-0.2,4.5-0.2c0,0,0.1,0.1,0.1,0.1C150.7,213.1,148.5,213.2,147.2,213.2z M179.9,212.4c0.5,0,0.9,0,1.4,0
		c3.2,0.2,6.5,0,9.7-0.2c0.7,0,1.5,0,2.3,0C188.9,212.3,184.3,212.8,179.9,212.4z"/>
	<path class="st48" d="M503.4,210.5c-0.2-0.2-0.5-0.5-0.7-0.7c-0.3,0-0.6,0-0.8,0c-0.1,0-0.2-0.1-0.3-0.1c0.4,0,0.8,0,1.1,0
		c-0.9-0.7-2-0.5-2.9-0.7c-0.5,0-1.5,0.1-2,0.2l-0.6,0.1c0.6,0.1,1.2,0.1,1.8,0.2c-0.4,0-0.8,0-1.3,0c-0.2,0-0.3,0-0.5-0.1l-0.5-0.1
		l-0.6-0.1c-0.5,0-1.4-0.1-1.9-0.2c0,0-0.1,0.1-0.2,0.1c0,0-0.1,0-0.1,0c0.1-0.1,0.2-0.1,0.3-0.2c-0.4-0.1-1.1-0.3-1.4-0.4
		c-0.7-0.2-1.3-0.4-2-0.6c-0.7-0.2-1.3-0.5-1.9-0.8c-0.3-0.1-1-0.4-1.3-0.6l-0.6-0.2c-0.5-0.4-0.9-0.7-1.4-1.1
		c-0.8-0.5-1.5-1.1-2.1-1.8c-2.4-1.8-2.8-6.1-5.5-7.1c-0.3-0.7-0.6-1.4-1-2.1c-0.2-0.8-0.3-1.6-0.4-2.2c-0.1,0.2-0.2,0.4-0.3,0.6
		l-0.1-0.2c0.1-0.2,0.2-0.3,0.3-0.5c-12.8-31.4-25.8-62.6-38.7-93.9c-3.3-8.6-7.3-16.9-10.2-25.6c-0.6-0.8-1.1-1.7-1.6-2.6
		c-0.1-0.2-0.4-0.5-0.5-0.7l-0.1,0l-0.9-2.1c-0.1-0.2-0.1-0.4-0.2-0.5c0.4-0.2,0.7-0.6,0.8-1.2c-0.4-0.6-0.7-1.4-1.1-2.1
		c0,0,0,0,0,0l-0.2-0.5c-0.2-0.3-0.5-1-0.7-1.3c-0.3-0.6-0.6-1.2-0.9-1.8c-0.1-0.3-0.4-0.8-0.6-1c-0.1,0.2-0.2,0.4-0.4,0.6
		c0.1-0.2,0.2-0.5,0.4-0.6l0.2-0.5c-0.1-0.3-0.5-0.9-0.6-1.2c-0.2-0.4-0.6-1.1-0.8-1.4c-0.8-0.5-1.4-1.2-2.4-1.2
		c-0.3-0.1-1-0.2-1.4-0.2c-0.1,0.1-0.3,0.2-0.4,0.3c-2.6,0.4-3.9,3.9-9,15.2c-4.5,10.3-14.2,32.8-27.4,62.9
		c-11.1,25.4-15,34.8-23,54.2c-3.5,8.5-16.2,38-21,47.8c-4.9,10-7,15.1-9.1,19.3c-1.8,3.5-3.8,7.7-6.4,9.4c-0.4,0.3-2.8,1.5-5.2,2.3
		c0,0-0.1,0-0.1,0l-0.6,0.1l-0.5,0.1c-0.8,0.2-1.5,0.3-2.3,0.5c-1,0.1-1.9,0.1-2.8,0.2l-0.1-0.1l-0.6-0.2c-1,0.1-2,0.1-3,0.5
		c-0.1,0-0.2,0-0.2,0c-2.6,0.5-2.1,1.6-1.5,2.2c0,0.1,0,0.2,0,0.3c0.4,0.2,1.1,0.4,1.4,0.6h0.6c1.8-0.1,3.8,0,5.7-0.1
		c0.6-0.4,1.2-0.6,1.9-0.7c0.9-0.1,1.9-0.1,2.9-0.2c0.2,0,0.3,0,0.4,0c0,0,0.1,0,0.1,0c0,0,0.1,0,0.1,0c0,0-0.1,0-0.1,0
		c1.3,0,2.7,0.1,4,0.1c0.8,0,1.6,0,2.5,0l0.6-0.1c2.2,0.2,4.4,0.5,6.6,0.8c2.8,0,5.8,0,8.5-1.2c1.6-2.5,3-5.2,4.5-7.8
		c4.9-11.8,10.3-23.4,15-35.2c1.1-2.4,1.7-5,3.3-7.2c2.4-3.5,2.8-7.9,4.5-11.7c11.9-30.9,24.3-61.5,36.5-92.3
		c0.8-2.2,1.6-4.4,2.6-6.6c0.3-0.6,0.5-1.2,0.8-1.8c-0.1-0.3-0.3-0.8-0.5-1.2c0,0,0-0.1,0-0.1c0.2,0.4,0.4,0.9,0.5,1.2
		c0.1-0.4,0.4-1.1,0.6-1.5c0.4-1.1,0.8-2.2,1.3-3.3c0.3-0.9,0.5-1.8,0-2.5c0.3-0.8,0.6-1.6,0.9-2.3c0.5-0.6,1-1.2,1.5-1.7l35.5,93.5
		c2.9,7.5,4.8,13.2,4.8,15.9c0,1.8-0.7,3.3-2.1,4.3c-0.8,0.6-2,0.9-3.4,1.1l-0.3,0c-0.3,0-1-0.1-1.3-0.1c-0.5,0-1.5,0-2,0
		c-0.3,0-0.9,0-1.2,0c-0.3,0.1-1,0.4-1.4,0.5c0,0-0.1,0.1-0.1,0.1c-0.9,0.3-1.4,0.8-1.4,1.7c0,0.8,0.7,1.3,1.8,1.6
		c0.1,0.1,0.1,0.1,0.2,0.2l0.6,0.1c0.3,0,0.5,0,0.8-0.1c0.5,0,0.9,0.1,1.4,0.1c6.3,0,12.4-0.2,17.4-0.4l0.7,0.1
		c6.2,0.1,12.4,0,18.6,0l0.3-0.1c4.3,0.1,9.1,0.3,13.8,0.3l-0.1,0.3c0.3,0.1,1,0.1,1.3,0.1c0.5,0,1.5,0.1,2,0.1s1.4,0.1,1.9,0.1
		c1.3-0.1,2.7-0.2,4-0.5c0.7-0.4,1.3-0.7,2-1.1C503.8,211.6,503.6,211,503.4,210.5C503.4,210.4,503.4,210.5,503.4,210.5z"/>
	<path class="st48" d="M41.7,212.4l0.1,0.7c1.1,0,2.2,0.1,3.4,0.1c1-0.1,2.1-0.2,3.2-0.2C46.2,212.6,43.9,212.3,41.7,212.4z"/>
	<polygon class="st48" points="395.3,172.5 411.5,182.4 428.7,172.9 411.5,162.1 	"/>
</g>
</svg>
