<?xml version="1.0" encoding="utf-8"?>
<!-- Generator: Adobe Illustrator 25.2.1, SVG Export Plug-In . SVG Version: 6.00 Build 0)  -->
<svg version="1.1" id="Шар_1" xmlns="http://www.w3.org/2000/svg" xmlns:xlink="http://www.w3.org/1999/xlink" x="0px" y="0px"
	 viewBox="0 0 239 49" style="enable-background:new 0 0 239 49;" xml:space="preserve">
<style type="text/css">
	.st0{fill:#FFB124;}
</style>
<g id="Page-1">
	<g id="gamshy">
		<g id="Ресурс-2">
			<path id="Path" class="st0" d="M22,32.9c0.5-0.2,0.4-0.6,0.5-0.8c0-0.4-0.1-0.8,0-1.1c0.7-2.3-0.9-3.2-2.5-4.2
				c-0.4-0.2-0.8-0.4-1-1c3.1-1.9,6.3-3.7,9.5-6c-0.7,8.8-0.9,17.3-1.7,25.8c-0.9-0.2-1.2-1.1-1.7-1.7c-3.5-4.3-7.4-8.2-12-11.4
				c-3.8-2.7-8-4.8-12.4-6.2C0.5,26.3,0.2,26.2,0,26C14.3,18.3,27.4,8.9,40.9,0c0.3,0.9-0.1,1.6-0.1,2.3c-0.1,2.9-0.8,5.7-1,8.5
				c-0.2,3-0.8,5.9-1,8.8c-0.2,2.7-0.7,5.4-0.9,8.1c-0.3,3.1-0.7,6.2-1.1,9.2c-0.3,2.6-0.6,5.2-0.9,7.9c-0.1,0.9-0.3,1.4-1.1,1.8
				c-1.4,0.8-2.7,1.6-4.3,2.2c-0.4-0.8-0.1-1.7,0-2.4c0.1-1.8,0.5-3.6,0.5-5.5c0.1-2.4,0.3-4.9,0.6-7.3c0.2-1.7,0.1-3.5,0.4-5.2
				c0.5-2.9,0.6-5.9,0.9-8.8c0.3-2.4,0.4-4.8,0.5-7.4c-7.4,4.3-14.6,8.9-22.2,13C15.1,27.5,18.7,30.1,22,32.9z"/>
		</g>
		<g id="text" transform="translate(50.790984, 15.100524)">
			<path id="Path_1_" class="st0" d="M80.3,14.7l-7.5-6.1v9.1c-1.4,0.4-2.6,0.3-3.9,0.2V0.4l11.4,9.2l11.5-9.2v17.5
				c-1.3,0.2-2.5,0.2-3.8,0V8.6L80.3,14.7z"/>
			<path id="Path_2_" class="st0" d="M18.5,3.2l-2.4,2c-2.5-1.5-5.1-2.2-8-1.1C5.8,4.9,4.1,6.3,3.9,9c-0.2,2.6,1.4,4.3,3.6,5.4
				c3.8,1.8,8.2,0.4,10-3.4h-5.6c-1.1-1-0.7-2-1.1-3.1h10.9c0.5,2.4-0.2,4.9-2,6.7c-4.2,4.6-12.4,4.9-16.9,0.7
				C-0.8,11.8-1,7.2,2.5,3.6C6.6-0.5,14.3-0.8,18.5,3.2z"/>
			<path id="Path_3_" class="st0" d="M141.4,7.6h9.2V0.7c1.3-0.5,2.3-0.3,3.6-0.2v17.4c-1,0.6-2.1,0-3.4,0.3v-7.1h-9.5V18
				c-1.2,0.3-2.5,0.3-3.7,0V0.5h3.4C141.6,2.8,140.9,5.2,141.4,7.6z"/>
			<path id="Path_4_" class="st0" d="M107,14.2c1-0.8,2.2-0.9,3.3-1.2c2.1,2.3,4.5,3,6.4,1.8c0.7-0.4,1.4-0.8,1.4-1.8
				c0-1-0.6-1.4-1.3-1.8c-1.5-0.7-3.1-0.8-4.6-1.1c-2.5-0.5-4.5-1.6-4.6-4.4c-0.1-2.7,1.8-4.1,4.1-4.9c3.8-1.3,7.7-0.1,9.7,3.2
				c-0.8,1.1-2.1,0.7-3,1.3c-3.1-2.5-5.2-2.5-7,0c0.7,1.6,2.1,1.9,3.6,2.1c1.5,0.1,3,0.5,4.4,1.1c2.5,1.2,3.5,4.4,2.1,6.6
				c-1.7,2.6-4.4,3.5-7.4,3.4C110.5,18.3,108.2,16.9,107,14.2z"/>
			<path id="Path_5_" class="st0" d="M44.5,7.5c-0.9,1.5-1.7,2.7-2,4.3c2.3-0.2,2.7,1.5,3.5,3.2h-9.8l8.1-14.9l9.7,17.7h-3.8
				C48.5,14.6,46.6,11.2,44.5,7.5z"/>
			<path id="Path_6_" class="st0" d="M176,18c2.3-7.4-3.2-11.8-6.7-17.1c3.7-0.8,3.9-0.7,5.4,1.3c1.1,1.6,2.3,3.1,3.4,4.7
				c3-2.2,3.3-7.9,9.1-6.1c-3.2,5.4-9.1,9.7-6.7,17.3C179,18.3,177.4,18.3,176,18L176,18z"/>
		</g>
	</g>
</g>
</svg>
