<?xml version="1.0" encoding="UTF-8"?>
<svg width="194px" height="48px" viewBox="0 0 194 48" version="1.1" xmlns="http://www.w3.org/2000/svg" xmlns:xlink="http://www.w3.org/1999/xlink">
    <!-- Generator: Sketch 60.1 (88133) - https://sketch.com -->
    <title>yggdrasil</title>
    <desc>Created with Sketch.</desc>
    <g id="design" stroke="none" stroke-width="1" fill="none" fill-rule="evenodd">
        <g id="main" transform="translate(-1616.000000, -448.000000)" fill="#FFB124">
            <g id="yggdrasil" transform="translate(1616.000000, 448.000000)">
                <path d="M135.748729,24.2765965 C137.874205,23.4798941 139.331238,21.7661377 139.331238,19.0386441 L139.331238,18.9903026 C139.331238,17.3971847 138.829407,16.0695865 137.898291,15.1282899 C136.799424,14.0178698 135.151977,13.41439 133.026359,13.41439 L125.937165,13.41439 L125.937165,30.3106775 L129.614596,30.3106775 L129.614596,16.7694624 L132.71594,16.7694624 C134.506766,16.7694624 135.605492,17.5904073 135.605492,19.1832383 L135.605492,19.2315798 C135.605492,20.6554307 134.578599,21.6211131 132.787202,21.6211131 L130.975139,21.6211131 L130.975139,24.9038885 L131.951293,24.9038885 L135.533802,30.3106775 L139.832498,30.3106775 L135.748729,24.2765965 Z" id="Path"></path>
                <polygon id="Path" points="62.0279557 30.3109644 65.7059559 30.3109644 65.7059559 24.8605676 72.1299855 13.4142466 67.9508673 13.4142466 63.8910425 20.9321391 59.9023377 13.4142466 55.6034985 13.4142466 62.0279557 24.9331516"></polygon>
                <path d="M82.3675566,21.5142454 L82.3675566,24.4211907 L84.1009457,24.4211907 L84.1009457,26.2075311 C83.1695448,26.8838818 81.9753278,27.2212682 80.6381582,27.2212682 C77.6767736,27.2212682 75.5753849,24.9523734 75.5753849,21.8628207 L75.5753849,21.8143357 C75.5753849,18.9419611 77.7005753,16.5522843 80.3756271,16.5522843 C82.3096914,16.5522843 83.45602,17.1797197 84.7457288,18.2660407 L87.0624728,15.4420076 C85.3188218,13.9454293 83.5039084,13.1246279 80.494778,13.1246279 C75.4315772,13.1246279 71.7302028,17.0592245 71.7302028,21.8628207 L71.7302028,21.9108753 C71.7302028,26.9074071 75.3125688,30.6005831 80.5187222,30.6005831 C83.575456,30.6005831 85.9396608,29.3936234 87.659225,27.9212876 L87.659225,21.5142454 L82.3675566,21.5142454 Z" id="Path"></path>
                <path d="M100.731761,21.5142454 L100.731761,24.4211907 L102.465008,24.4211907 L102.465008,26.2075311 C101.533607,26.8838818 100.33939,27.2212682 99.0015074,27.2212682 C96.0408354,27.2212682 93.9393042,24.9523734 93.9393042,21.8628207 L93.9393042,21.8143357 C93.9393042,18.9419611 96.0643521,16.5522843 98.7394039,16.5522843 C100.673611,16.5522843 101.819939,17.1797197 103.109791,18.2660407 L105.426535,15.4420076 C103.683169,13.9454293 101.867828,13.1246279 98.8584123,13.1246279 C93.795639,13.1246279 90.0941221,17.0592245 90.0941221,21.8628207 L90.0941221,21.9108753 C90.0941221,26.9074071 93.6766307,30.6005831 98.882499,30.6005831 C101.939375,30.6005831 104.30358,29.3936234 106.023002,27.9212876 L106.023002,21.5142454 L100.731761,21.5142454 Z" id="Path"></path>
                <path d="M114.68895,13.4145335 C119.943276,13.4145335 123.572818,17.0590811 123.572818,21.8144792 L123.572818,21.8628207 C123.572818,26.6176449 119.943276,30.310821 114.68895,30.310821 L108.943339,30.310821 L108.943339,13.4145335 L114.68895,13.4145335 Z M114.68895,16.7694624 L112.621054,16.7694624 L112.621054,26.9557486 L114.68895,26.9557486 C117.69751,26.9557486 119.728064,24.9038885 119.728064,21.9108753 L119.728064,21.8628207 C119.728064,18.8695206 117.69751,16.7694624 114.68895,16.7694624 Z" id="Path"></path>
                <polygon id="Path" points="158.695968 30.371212 151.531378 13.3538555 148.140138 13.3538555 140.975691 30.371212 144.725097 30.371212 149.788012 17.8194915 151.987031 23.2710359 149.035053 23.2710359 147.728954 26.5398969 153.30553 26.5398969 154.851071 30.371212"></polygon>
                <path d="M159.44793,27.7372456 C161.454112,29.5473982 164.0093,30.4407836 166.540687,30.4407836 C170.146997,30.4407836 172.678241,28.5577601 172.678241,25.2024008 L172.678241,25.1543462 C172.678241,22.2096745 170.767978,20.9786158 167.376453,20.0853739 C164.487044,19.3368696 163.770286,18.9748104 163.770286,17.8646772 L163.770286,17.8160488 C163.770286,16.9956777 164.510845,16.3438564 165.919848,16.3438564 C167.328992,16.3438564 168.785883,16.9712918 170.266575,18.0094148 L172.177123,15.2093372 C170.481218,13.8333975 168.403488,13.0612245 165.967594,13.0612245 C162.552552,13.0612245 160.116657,15.0885552 160.116657,18.1542958 L160.116657,18.2023504 C160.116657,21.5578532 162.290021,22.4991498 165.657174,23.3681492 C168.451519,24.0921242 169.024612,24.5749654 169.024612,25.5164054 L169.024612,25.5646035 C169.024612,26.5542415 168.117013,27.1580083 166.612519,27.1580083 C164.701971,27.1580083 163.125217,26.361019 161.621293,25.1060047 L159.44793,27.7372456 L159.44793,27.7372456 Z" id="Path"></path>
                <polygon id="Path" points="175.458334 30.3105341 179.135906 30.3105341 179.135906 13.4141031 175.458334 13.4141031"></polygon>
                <polygon id="Path" points="182.200907 13.41439 185.878194 13.41439 185.878194 26.9315061 193.6793 26.9315061 193.6793 30.3106775 182.200907 30.3106775"></polygon>
                <path d="M26.2776338,46.8537501 L26.2776338,38.9523207 L34.2599555,28.545804 C32.5447825,27.7921912 30.8844904,26.8926579 29.3123795,25.8654978 L23.4991421,33.4442157 L17.6859047,25.8654978 C16.1137938,26.8926579 14.4536447,27.7921912 12.7384717,28.545804 L20.7206505,38.9523207 L20.7206505,46.8586094 C22.5741692,47.0772757 24.4399791,47.0728452 26.2776338,46.8537501" id="Path"></path>
                <path d="M47.0004852,24.9430974 C46.8862928,26.7977595 46.5522907,28.6497062 45.9900467,30.4580625 C37.1071913,29.9264032 29.1620286,25.914662 23.4991421,19.7679941 C17.8373991,25.9133757 9.89438015,29.9246881 1.01381145,30.4580625 C0.458856299,28.6667136 0.118279908,26.8144811 -5.71676694e-05,24.9429545 C2.97809257,24.836051 5.83676189,24.2603725 8.50420535,23.28695 C6.14103681,21.3262419 3.40113333,19.8040098 0.409263346,18.8445934 C0.768847987,17.0462414 1.34338307,15.2729003 2.1397287,13.5621578 C6.59537686,14.9964946 10.5946841,17.4477014 13.8645319,20.6425166 C15.8503938,19.3796827 17.6648956,17.8714567 19.2655904,16.1605713 C13.7834967,15.2084437 8.92495939,12.4393848 5.33254304,8.49638767 C6.53563665,7.03375284 7.88607992,5.74962407 9.34714263,4.65086146 C11.4596309,7.00402566 14.1505131,8.82738847 17.1961207,9.89728141 C16.10822,7.26070849 15.3487475,4.45391884 14.9688683,1.52807751 C16.720057,0.849211438 18.5445631,0.382294498 20.4006545,0.135330166 C20.7819628,3.75904582 21.860288,7.17509991 23.4991421,10.2468617 C25.1387109,7.17367072 26.217179,3.75590159 26.5982015,0.130470914 C28.4365708,0.373004752 30.2603624,0.835491198 32.0298447,1.52493329 C31.6499655,4.45191797 30.890493,7.25970806 29.8021635,9.89728141 C32.8459132,8.82810307 35.5350804,7.00631236 37.6471399,4.65543487 C39.1646557,5.79464361 40.5076672,7.0856325 41.6690284,8.49281469 C38.0763262,12.4375268 33.2165026,15.2081579 27.7326939,16.1605713 C29.3332457,17.8714567 31.1478905,19.3796827 33.1337524,20.6425166 C36.4036002,17.4477014 40.4030503,14.9964946 44.8588414,13.5620149 C45.6421814,15.254035 46.219289,17.029234 46.5834471,18.8463084 C43.5937209,19.8058677 40.8556754,21.3275282 38.4940789,23.28695 C41.1620941,24.2606584 44.021478,24.8363368 47.0004852,24.9430974" id="Path"></path>
            </g>
        </g>
    </g>
</svg>