<svg xmlns="http://www.w3.org/2000/svg" width="50" height="50" viewBox="0 0 50 50">
  <defs>
    <style>
      .cls-1 {
        fill: #fff;
        fill-rule: evenodd;
      }
    </style>
  </defs>
  <path id="casque_1" data-name="casque 1" class="cls-1" d="M17.146,1.25H21.2V3.424C30.836,3.558,37.01,9.845,39.671,17.306c0.716,2.006,3.067,9.1.81,10.537-2.207,1.534-15.434.534-19.284,0.5v0.167C22.867,35.621,23,45,31.244,45.069V49.25C24.809,48.5,22.5,45.34,19.9,40.72c-7.091-.1-12.06-5.6-12.64-12.376a23.459,23.459,0,0,1-5.348-.335c-1.76-2.568-.287-7.6.486-10.2C4.693,10.086,8.486,4.521,17.146,3.424V1.25ZM43.4,27.341c1.429,0.595,8.61,4.905,5.185,7.024C44.97,36.6,32.093,31.841,30.92,30.518,36.184,30.657,42.122,31.491,43.4,27.341Zm-26.09,1h-6c0.348,3.992,3.337,7.76,7.292,8.028V36.2A30.9,30.9,0,0,1,17.308,28.344Z"/>
</svg>
