<?xml version="1.0" encoding="UTF-8"?>
<svg width="124px" height="48px" viewBox="0 0 124 48" version="1.1" xmlns="http://www.w3.org/2000/svg" xmlns:xlink="http://www.w3.org/1999/xlink">
    <!-- Generator: Sketch 61.2 (89653) - https://sketch.com -->
    <title>flexepin_balck_BG</title>
    <desc>Created with Sketch.</desc>
    <defs>
        <linearGradient x1="50%" y1="1.56809431e-12%" x2="50%" y2="100%" id="linearGradient-1">
            <stop stop-color="#EEEFEF" offset="38.39%"></stop>
            <stop stop-color="#A6A8AB" offset="100%"></stop>
        </linearGradient>
    </defs>
    <g id="design" stroke="none" stroke-width="1" fill="none" fill-rule="evenodd">
        <g id="icon_all" transform="translate(-64.000000, -448.000000)" fill-rule="nonzero">
            <g id="flexepin_balck_BG" transform="translate(64.000000, 448.000000)">
                <path d="M116.689655,48 L6.62068966,48 C2.97931034,48 0,45.0206897 0,41.3793103 L0,6.62068966 C0,2.97931034 2.97931034,0 6.62068966,0 L116.689655,0 C120.331034,0 123.310345,2.97931034 123.310345,6.62068966 L123.310345,41.3793103 C123.310345,45.0206897 120.331034,48 116.689655,48 Z" id="Path" fill="url(#linearGradient-1)"></path>
                <path d="M116.689655,2.06896552 C119.172414,2.06896552 121.241379,4.13793103 121.241379,6.62068966 L121.241379,41.3793103 C121.241379,43.862069 119.172414,45.9310345 116.689655,45.9310345 L6.62068966,45.9310345 C4.13793103,45.9310345 2.06896552,43.862069 2.06896552,41.3793103 L2.06896552,6.62068966 C2.06896552,4.13793103 4.13793103,2.06896552 6.62068966,2.06896552 L116.689655,2.06896552 M116.689655,0 L6.62068966,0 C2.97931034,0 0,2.97931034 0,6.62068966 L0,41.3793103 C0,45.0206897 2.97931034,48 6.62068966,48 L116.689655,48 C120.331034,48 123.310345,45.0206897 123.310345,41.3793103 L123.310345,6.62068966 C123.310345,2.97931034 120.331034,0 116.689655,0 L116.689655,0 Z" id="Shape" fill="#414142"></path>
                <g id="Layer_1-2" transform="translate(4.965517, 7.448276)">
                    <path d="M64.5517241,22.0965517 C61.2413793,23.2551724 60.2482759,20.7724138 60.2482759,20.7724138 C64.3862069,19.6137931 67.862069,16.3034483 68.3586207,12.662069 C68.8551724,9.02068966 65.0482759,7.36551724 63.3931034,7.69655172 C55.9448276,8.52413793 54.7862069,18.4551724 55.4482759,21.1034483 C56.1103448,23.7517241 57.9310345,26.2344828 62.2344828,26.5655172 C66.537931,26.8965517 72,22.4275862 72,22.4275862 L72,17.6275862 C69.9310345,19.6137931 67.3655172,21.1862069 64.5517241,22.0965517 Z M62.5655172,11.6689655 C65.2137931,10.5103448 65.0482759,13.1586207 65.0482759,13.1586207 C64.3034483,16.9655172 59.9172414,17.6275862 59.9172414,17.6275862 C59.9172414,17.1310345 59.9172414,12.8275862 62.5655172,11.6689655 Z" id="Shape" fill="#BD202E"></path>
                    <path d="M3.64137931,7.69655172 L0.662068966,9.02068966 L0.662068966,10.8413793 L3.64137931,10.8413793 L3.64137931,26.2344828 L7.6137931,26.2344828 L7.6137931,10.8413793 L12.0827586,10.8413793 L12.0827586,7.69655172 L7.6137931,7.69655172 L7.6137931,5.37931034 C7.6137931,5.37931034 7.6137931,2.06896552 12.9103448,3.72413793 L13.9034483,0.744827586 C13.9034483,0.744827586 4.13793103,-2.06896552 3.64137931,5.54482759 L3.64137931,7.69655172 Z" id="Path" fill="#414142"></path>
                    <rect id="Rectangle" fill="#414142" x="15.5586207" y="0.248275862" width="3.97241379" height="25.9034483"></rect>
                    <path d="M37.1586207,17.9586207 L37.1586207,15.1448276 C37.1586207,15.1448276 36.9931034,7.44827586 29.3793103,7.44827586 C21.7655172,7.44827586 20.937931,15.2275862 20.937931,15.2275862 C20.7724138,15.8896552 20.7724138,16.4689655 20.7724138,17.1310345 C20.7724138,17.7931034 20.7724138,18.3724138 20.937931,19.0344828 C22.262069,25.6551724 26.8965517,26.4827586 30.2068966,26.4827586 C32.2758621,26.4827586 34.262069,25.9862069 36.1655172,25.1586207 L36.1655172,22.1793103 C24.3310345,26.6482759 24.9103448,17.8758621 24.9103448,17.8758621 L37.1586207,17.8758621 L37.1586207,17.9586207 Z M29.3793103,10.1793103 C33.6827586,10.1793103 33.3517241,14.9793103 33.3517241,14.9793103 L24.9103448,14.9793103 C24.9103448,14.9793103 25.0758621,10.1793103 29.3793103,10.1793103 Z" id="Shape" fill="#414142"></path>
                    <polygon id="Path" fill="#414142" points="37.6551724 7.69655172 42.2896552 7.69655172 46.4275862 14.1517241 50.7310345 7.69655172 55.2 7.69655172 48.9103448 16.8 55.5310345 26.1517241 50.8965517 26.1517241 46.4275862 19.2827586 41.9586207 26.1517241 37.4896552 26.1517241 43.9448276 16.8"></polygon>
                    <path d="M80.4413793,7.53103448 C78.537931,7.6137931 76.8827586,8.68965517 75.9724138,10.3448276 L75.1448276,7.69655172 L72,7.69655172 L72,34.4275862 L75.9724138,34.4275862 L75.9724138,24.0827586 C75.9724138,24.0827586 77.462069,26.5655172 81.4344828,26.5655172 C81.4344828,26.5655172 88.7172414,27.062069 88.7172414,16.6344828 C88.7172414,6.20689655 80.4413793,7.53103448 80.4413793,7.53103448 Z M80.4413793,23.337931 C78.9517241,23.337931 75.9724138,23.337931 75.9724138,16.5517241 C75.9724138,9.76551724 80.4413793,10.5931034 80.4413793,10.5931034 C81.9310345,10.5931034 84.7448276,11.0896552 84.7448276,16.7172414 C84.7448276,22.3448276 81.9310345,23.337931 80.4413793,23.337931 Z" id="Shape" fill="#414142"></path>
                    <rect id="Rectangle" fill="#414142" x="90.537931" y="7.69655172" width="3.97241379" height="18.4551724"></rect>
                    <path d="M90.3724138,2.89655172 C90.3724138,1.73793103 91.2827586,0.744827586 92.4413793,0.744827586 C92.4413793,0.744827586 92.5241379,0.744827586 92.5241379,0.744827586 C93.6,0.662068966 94.5103448,1.40689655 94.6758621,2.4 C94.6758621,2.48275862 94.6758621,2.56551724 94.6758621,2.64827586 C94.6758621,2.8137931 94.8413793,4.96551724 92.6896552,4.96551724 C90.537931,5.04827586 90.3724138,3.55862069 90.3724138,2.89655172 Z" id="Path" fill="#414142"></path>
                    <path d="M96.0827586,7.69655172 L96.0827586,26.2344828 L99.8896552,26.2344828 L99.8896552,15.8068966 C99.8896552,15.8068966 99.5586207,10.6758621 104.689655,10.6758621 C106.344828,10.6758621 108.331034,11.337931 108.331034,13.9862069 L108.331034,26.2344828 L112.303448,26.2344828 L112.303448,13.3241379 C112.303448,13.3241379 112.303448,7.36551724 105.682759,7.53103448 C105.682759,7.53103448 101.048276,7.6137931 99.7241379,10.3448276 C99.4758621,9.51724138 99.2275862,8.60689655 99.062069,7.69655172 L96.0827586,7.69655172 Z" id="Path" fill="#414142"></path>
                </g>
            </g>
        </g>
    </g>
</svg>