<?xml version="1.0" encoding="UTF-8"?>
<svg width="193px" height="48px" viewBox="0 0 193 48" version="1.1" xmlns="http://www.w3.org/2000/svg" xmlns:xlink="http://www.w3.org/1999/xlink">
    <!-- Generator: Sketch 60.1 (88133) - https://sketch.com -->
    <title>directa24</title>
    <desc>Created with Sketch.</desc>
    <g id="design" stroke="none" stroke-width="1" fill="none" fill-rule="evenodd">
        <g id="icon_all" transform="translate(-236.000000, -448.000000)" fill-rule="nonzero">
            <g id="directa24" transform="translate(236.000000, 448.000000)">
                <path d="M89.914668,12.3586669 C92.9804458,7.86417789 99.1466681,6.22459565 104.266668,7.42231122 C105.797335,7.78035567 107.243557,8.42328901 108.452446,9.44097792 C108.935113,9.84720015 109.422224,10.2615113 109.688891,10.8444446 C108.619557,11.5508446 107.664002,12.4416891 106.667557,13.2444446 C106.349335,13.5010669 105.932446,14.0547558 105.511113,14.117778 C105.162668,14.1698669 104.85689,13.7444446 104.630224,13.5378669 C104.126224,13.077778 103.49689,12.7076446 102.844446,12.4973335 C101.887113,12.188978 100.920002,12.0027557 99.9111126,12.1040891 C97.8853348,12.3074669 95.835557,13.7918224 94.7662236,15.4666669 C92.8693347,18.4399114 92.9066681,22.9083559 95.2213348,25.6737782 C96.1813348,26.8210671 97.3911126,27.7056893 98.8444459,28.1080004 C101.324446,28.7943115 104.224002,27.790756 105.600002,25.6000004 C106.38489,25.9320893 107.061335,26.6262226 107.741335,27.1360004 C108.572446,27.7597337 109.690668,28.3126226 110.311113,29.155556 C109.356446,30.257956 108.405335,31.2703116 107.111113,31.9839116 C101.796446,34.9134227 94.2897792,33.4155561 90.4284458,28.8000004 C86.7368902,24.3871115 86.7324457,17.024178 89.914668,12.3586669 Z M139.680816,7.81836695 L139.822224,7.82222234 L142.133335,7.82222234 C142.491558,7.82222234 142.987558,7.72382234 143.24978,8.02026679 C143.664891,8.48942235 143.879113,9.11884458 144.11378,9.68888903 C144.384002,10.3458668 144.682669,10.9842668 144.944002,11.6444446 C145.608891,13.3261335 146.430224,14.9509336 147.123558,16.6222225 C148.543113,20.0432892 150.013336,23.4800892 151.557336,26.8444448 C152.150224,28.1377782 152.710224,29.4490671 153.27378,30.755556 C153.506313,31.2947916 153.787771,31.8273143 153.994363,32.3806583 L154.133336,32.8000005 L149.511113,32.8000005 C149.093336,32.8000005 148.127113,32.978756 147.813336,32.6575116 C147.568891,32.4072005 147.504002,31.9557338 147.362669,31.6444449 C146.95378,30.7432893 146.584002,29.8081782 146.215113,28.8888893 C146.064002,28.5116449 145.965336,27.8671115 145.587558,27.6469337 C145.398669,27.537156 145.151755,27.5469461 144.929636,27.5532074 L144.800002,27.555556 L143.022224,27.555556 C140.856891,27.555556 138.600891,27.3704004 136.444446,27.5608004 C135.820446,27.6159115 135.686224,28.3053338 135.493335,28.8000004 C135.133335,29.7215116 134.760002,30.637156 134.392891,31.555556 C134.264891,31.8759116 134.174224,32.4901338 133.890669,32.7086227 C133.572891,32.9542894 132.753187,32.8263499 132.293558,32.8033206 L132.17778,32.8000005 L127.733335,32.8000005 C128.430224,30.8401782 129.379557,28.9204449 130.231113,27.0222226 C131.272891,24.7013337 132.229335,22.3387559 133.232891,20.0000003 C134.048891,18.0986669 134.948446,16.230578 135.72178,14.3111113 C136.360002,12.7258669 137.088891,11.1747557 137.752002,9.60000014 C137.927113,9.18320014 138.144002,8.82648902 138.365335,8.43653346 C138.480002,8.23422234 138.544891,7.97813345 138.775113,7.87582234 C139.026542,7.76435567 139.385725,7.80459513 139.680816,7.81836695 Z M10.0680025,0.000628553621 C14.2870605,0.0126840932 18.6865177,0.217523178 22.4888892,2.23696892 C23.813067,2.94023115 25.142667,3.81685339 26.1845337,4.9039823 C29.2176004,8.06888901 30.3111116,12.076178 30.3111116,16.3555558 C30.3111116,18.6631114 30.0423116,20.8856003 29.1053338,23.0222226 C27.9428449,25.6731559 25.9527115,27.9458671 23.5555559,29.5538671 C20.6120892,31.5282671 16.9350225,32.5514672 13.4222224,32.7920005 C12.125852,32.8808153 10.8015187,32.827161 9.49356393,32.8068091 L8.71111124,32.8000005 L0,32.8000005 C0.243608004,31.7768005 0.120721602,30.5878565 0.0937082414,29.5102532 L0.0888888902,29.155556 L0.0888888902,-1.13686838e-13 L10.0680025,0.000628553621 Z M110.933335,7.73333345 C111.672891,7.90951123 112.487113,7.82222234 113.244446,7.82222234 L113.244446,7.82222234 L130.755558,7.82222234 L130.755558,12.5333335 L123.644446,12.5333335 L123.644446,32.8000005 L118.222224,32.8000005 L118.222224,14.2222224 C118.222224,13.8130669 118.36178,13.0743113 118.080002,12.739378 C117.74578,12.3429335 116.733335,12.5333335 116.266668,12.5333335 L116.266668,12.5333335 L112.888891,12.5333335 C112.241779,12.5333335 111.566224,12.4715557 110.933335,12.6222224 L110.933335,12.6222224 Z M56.0000008,7.83742234 C57.674312,8.00480012 59.4144009,8.6642668 60.7097787,9.74391126 C63.2578676,11.8675557 63.4690676,16.4426669 61.9393787,19.2000003 C61.1080898,20.6984892 59.281512,22.0956448 57.511112,22.1333337 C57.9526772,23.2848119 63.1612652,31.4388518 63.787374,32.7246107 L63.8222232,32.8000005 L57.0705685,32.8000005 C56.9170938,32.4443857 56.7942823,32.177719 56.7021342,32.0000005 C56.395112,31.4078227 56.0735119,30.8208893 55.7800897,30.2222227 C54.9434675,28.5153782 54.0203564,26.843556 53.1458675,25.1555559 C52.784465,24.4578769 52.2495163,23.7148975 51.9932607,22.9531502 L51.9111119,22.666667 L49.9555563,22.666667 C49.7192007,22.6671114 49.3932452,22.6251559 49.2091563,22.8091559 C49.0481563,22.9702337 49.0601535,23.2399281 49.0653707,23.4631747 L49.0666674,23.5555559 L49.0666674,32.6222227 L43.733334,32.6222227 L43.733334,7.82222234 L52.7111119,7.82222234 C53.7935119,7.82222234 54.9229342,7.729689 56.0000008,7.83742234 Z M83.8222235,7.82222234 L83.8222235,12.7111113 L72.3555566,12.7111113 L72.4444455,17.5111114 L83.2000012,17.5111114 L83.2000012,17.5111114 L83.2000012,22.5777781 L72.4444455,22.5777781 L72.3555566,27.8222223 L84.5333346,27.8222223 L84.5333346,32.7111116 L67.0222232,32.6222227 L67.0222232,7.82222234 L83.8222235,7.82222234 Z M39.1111117,15.7333336 L39.1111117,32.6222227 L33.9555561,32.6222227 L33.9555561,15.7333336 L39.1111117,15.7333336 Z M7.288889,6.66666677 C7.46506678,7.40657789 7.37777789,8.22062234 7.37777789,8.97777791 L7.37777789,26.0444448 C11.5508446,26.0444448 16.1404447,26.3342226 19.6444447,23.6667559 C21.4208003,22.3144892 22.3448892,20.1078225 22.6031114,17.9555558 C22.9782226,14.8292447 22.4915559,11.773778 20.1265781,9.50177792 C19.634667,9.02915569 19.0800003,8.63671124 18.4888892,8.29626679 C15.0595558,6.32142232 11.0928891,6.66666677 7.288889,6.66666677 Z M140.711113,15.2000002 L137.77778,22.7555559 L143.733335,22.7555559 L140.711113,15.2000002 Z M52.8000008,12.4444446 L49.2444452,12.4444446 L49.2444452,18.0444447 C50.4935119,18.0444447 51.7343119,17.9872892 52.9777786,17.9568892 C53.9708452,17.9325336 55.0170675,17.9758225 55.9111119,17.4638225 C57.4024009,16.6096891 57.4474675,14.006578 55.9999119,13.0784891 C55.0724453,12.4837335 53.8637341,12.4444446 52.8000008,12.4444446 Z M35.5555561,7.16746677 C37.0141339,6.76542232 38.6008006,7.36426678 39.3101339,8.71111124 C40.1391117,10.2850668 39.3312006,12.5086224 37.6000006,13.0376891 C36.2065783,13.4635558 34.6194672,13.005778 33.8466672,11.7333335 C32.8622227,10.1122668 33.6789338,7.68480011 35.5555561,7.16746677 Z" id="text" fill="#9FCE0A"></path>
                <path d="M187.508783,25.6477838 C188.906579,26.3052329 188.906579,28.1239745 187.508783,31.1040088 C186.591658,32.690903 185.89148,33.7887062 185.408251,34.3974182 C182.688399,37.8235482 180.155862,39.8442348 178.100147,41.1069272 C170.612455,45.7061316 160.974806,47.1098702 155.199497,47.4789506 C148.490203,47.9077189 138.680147,48.0903729 128.308914,44.4417576 C126.785255,43.905732 124.232905,43.085116 121.875895,41.3648911 C120.919832,40.6671246 120.009011,39.7732165 119.256118,38.7636354 C118.503224,37.7540542 118.514899,37.2452748 118.396199,36.6988468 C118.153573,35.5819219 118.493453,35.202035 118.626364,34.928377 C118.759274,34.6547191 119.351658,34.4786082 119.60462,34.6547191 C119.900729,34.860868 119.996832,35.7142181 120.242999,36.0460488 C120.549057,36.4586126 120.975503,36.4807327 121.07416,36.3685294 C121.761382,35.5869482 122.472778,35.056664 123.739583,34.928377 C125.006387,34.8000901 125.623331,35.8464332 126.599669,36.0460488 C127.192732,36.1673027 125.289919,34.0079553 125.99585,33.8645435 C126.466471,33.7689356 128.27743,34.7947886 131.428729,36.9421023 C135.354774,38.8408934 138.087937,40.0169365 139.628218,40.4702316 C148.984705,43.2237891 155.38461,43.0568737 160.60841,42.3048166 C165.112547,41.6563675 173.0575,39.1072055 176.69288,36.1980973 C180.32826,33.2889892 182.696107,29.9067595 183.623441,28.4737102 C185.210331,26.0214236 186.270592,25.0654048 187.508783,25.6477838 Z M178.044447,7.46666678 L178.044447,21.3333337 L181.244447,21.3333337 L181.242616,24.632837 C183.022124,22.2723814 186.18561,19.7793948 187.804546,19.9165236 C190.474251,20.1426557 194.58124,28.7758398 192.474443,30.1304786 C190.367645,31.4851173 188.700514,24.4948366 187.209819,24.2506678 C185.719124,24.006499 182.389921,29.9957684 180.327435,28.3061311 C179.573211,27.6882525 180.013487,26.3701168 181.006052,24.9575594 C180.604833,24.9477673 179.704027,24.9534925 178.303713,24.9739157 L178.044447,24.9777781 L178.044447,28.6222226 L172.800003,28.6222226 L172.800003,24.9777781 L166.57778,24.9777781 L166.57778,21.3333337 C169.237738,13.3048533 170.71403,8.70392823 171.006656,7.53055843 L171.022225,7.46666678 L178.044447,7.46666678 Z M159.776891,7.11111122 C162.01778,7.11111122 164.339558,7.75893345 165.395558,9.9555557 C167.072002,13.4434669 164.80178,17.2310225 162.938669,20.1142225 C162.517336,20.7661336 162.116447,21.4272892 161.679114,22.0697781 C161.021336,23.0360892 160.448002,24.0863115 159.688002,24.9777781 L159.688002,24.9777781 L165.46578,24.9777781 L165.395558,28.6222226 L153.958225,28.6222226 L153.866669,25.5124448 C154.06341,25.1946967 154.206225,24.9545485 154.295113,24.7920004 C154.744002,23.9768004 155.242669,23.1989337 155.719113,22.4000003 C156.776891,20.6256003 157.867558,18.8699558 158.875558,17.0666669 C159.48978,15.9675558 160.150225,14.8816891 160.568891,13.6888891 C160.820447,12.9739557 161.116447,12.0379557 160.846225,11.2888891 C160.516447,10.3756446 159.536002,10.102489 158.933336,10.9337779 C158.608891,11.3808891 158.621336,11.9187557 158.621336,12.4444446 L158.621336,14.6666669 L153.910225,14.6666669 C153.910225,12.7167113 153.624891,10.4924446 154.995558,8.88888902 C156.296891,7.36675567 157.887113,7.11111122 159.776891,7.11111122 Z M173.200891,11.0222224 L170.623114,20.8888892 L173.200891,20.8888892 L173.200891,11.0222224 Z" id="arrow" fill="#FFFFFF"></path>
            </g>
        </g>
    </g>
</svg>