<?xml version="1.0" encoding="UTF-8"?> <svg xmlns="http://www.w3.org/2000/svg" id="Layer_1" data-name="Layer 1" viewBox="0 0 256 256"><defs><style>.cls-1{fill:#f25822;}</style></defs><title>sticpay</title><path class="cls-1" d="M30.66,137.8c0,5.1-1.61,9.07-4.83,11.95S18.12,154,12.38,154a26,26,0,0,1-6.83-.84A17.78,17.78,0,0,1,0,150.67V138.6a27.68,27.68,0,0,0,6.32,3.05,20,20,0,0,0,6.45,1.25,5.53,5.53,0,0,0,3.68-1.06,3.79,3.79,0,0,0,1.25-3,4.22,4.22,0,0,0-.39-1.75,7.84,7.84,0,0,0-1.12-1.64c-.49-.56-1.78-1.74-3.88-3.57a22.36,22.36,0,0,1-5.58-6.63A16,16,0,0,1,5,117.79a15.63,15.63,0,0,1,2.14-8.14,14.69,14.69,0,0,1,6.08-5.59,19.11,19.11,0,0,1,8.79-2,27.14,27.14,0,0,1,14.11,3.72l-4.45,10.26c-3.74-2-6.92-3-9.55-3a4.91,4.91,0,0,0-3.24,1,3.53,3.53,0,0,0-1.12,2.82A5.14,5.14,0,0,0,18.86,120,24,24,0,0,0,23,123.87a21.94,21.94,0,0,1,5.73,6.33A14.88,14.88,0,0,1,30.66,137.8Z"></path><path class="cls-1" d="M53.31,153.31H40.48L48.25,114H37.84l2.27-11.17H73.85L71.53,114H61.09Z"></path><path class="cls-1" d="M68.15,153.31l10.13-50.52h13L81.17,153.31Z"></path><path class="cls-1" d="M117.22,113.26a9.14,9.14,0,0,0-6.41,2.68,18.35,18.35,0,0,0-4.49,7.43,31.5,31.5,0,0,0-1.62,10.27c0,3.09.61,5.39,1.83,6.93a6.48,6.48,0,0,0,5.28,2.24,22.79,22.79,0,0,0,5.51-.66,45.91,45.91,0,0,0,6.56-2.43v11.19A33.67,33.67,0,0,1,109.43,154c-5.68,0-10.09-1.71-13.14-5.09s-4.59-8.24-4.59-14.51A41.68,41.68,0,0,1,95,117.5a26.2,26.2,0,0,1,9-11.57A22.76,22.76,0,0,1,117.21,102,28.68,28.68,0,0,1,133,106.57l-4.86,10.52a33.77,33.77,0,0,0-5.61-2.85A14.58,14.58,0,0,0,117.22,113.26Z"></path><path class="cls-1" d="M169,117.93c0,5.8-1.86,10.38-5.63,13.66s-8.9,4.94-15.41,4.94h-2.82l-3.3,16.78H129l10.12-50.52h12.25c5.68,0,10,1.32,13,3.93S169,113.07,169,117.93Zm-21.56,7.56h2.08a6.15,6.15,0,0,0,4.83-2,7.26,7.26,0,0,0,1.83-5.13,4.61,4.61,0,0,0-1.18-3.28,4.24,4.24,0,0,0-3.25-1.25H149.8Z"></path><path class="cls-1" d="M195.31,143.85H180.6l-4.12,9.46h-13.3l24.4-50.52h16.51l4,50.52H195.63Zm-10-10.78h9.61l-.57-14.65-.05-3c0-1.73,0-3.24.14-4.53a38.57,38.57,0,0,1-2,5.73Z"></path><path class="cls-1" d="M231.45,121.51l10.24-18.73H256l-20.07,30.91-4,19.62H219.09L223,133.7l-7.77-30.9H228.5Z"></path></svg> 