<?xml version="1.0" encoding="UTF-8"?>
<svg width="155px" height="48px" viewBox="0 0 155 48" version="1.1" xmlns="http://www.w3.org/2000/svg" xmlns:xlink="http://www.w3.org/1999/xlink">
    <!-- Generator: Sketch 60.1 (88133) - https://sketch.com -->
    <title>trustly</title>
    <desc>Created with Sketch.</desc>
    <g id="design" stroke="none" stroke-width="1" fill="none" fill-rule="evenodd">
        <g id="icon_all" transform="translate(-2470.000000, -64.000000)">
            <g id="trustly" transform="translate(2470.000000, 64.000000)">
                <path d="M145.968213,28.41105 C146.323354,27.5338 146.679079,26.65626 147.033638,25.77814 C147.498614,24.62713 147.962717,23.47583 148.425945,22.32453 C148.592008,21.91215 148.828283,21.55226 149.18663,21.27937 C149.428732,21.09493 149.699677,20.99749 150.007331,20.99778 C151.265913,20.99952 152.524496,20.99401 153.782787,21.003 C154.010031,21.00474 154.243102,21.03751 154.461024,21.09928 C154.782953,21.19034 154.896575,21.40436 154.822283,21.72655 C154.787614,21.87358 154.731677,22.01771 154.671661,22.1572 C151.787992,28.90724 148.902283,35.65699 146.019197,42.40761 C145.867409,42.76257 145.676,43.08708 145.394276,43.35649 C145.096528,43.6404 144.751583,43.78917 144.331472,43.7854699 C143.236913,43.77728 142.142354,43.78482 141.048087,43.78047 C140.852016,43.7796 140.654197,43.76249 140.460165,43.73175 C139.966346,43.65519 139.802614,43.39622 139.944496,42.92613 C139.985283,42.79128 140.043551,42.66136 140.098906,42.53057 C140.81152,40.84596 141.522386,39.15961 142.242575,37.47819 C142.326189,37.28186 142.324441,37.11772 142.244906,36.92226 C140.262055,32.05026 138.284157,27.17681 136.30626,22.30336 C136.249157,22.16213 136.187685,22.02061 136.150685,21.87358 C136.040268,21.43046 136.215654,21.14626 136.662567,21.05636 C136.854268,21.01808 137.053252,21.00155 137.24874,21.00097 C138.85722,20.99691 140.465992,21.00329 142.074764,20.9954288 C142.519929,20.99285 142.88148,21.15409 143.192047,21.45714 C143.454835,21.71466 143.62585,22.02554 143.747339,22.37006 C144.421205,24.27942 145.099732,26.18762 145.777677,28.0964 C145.816425,28.20544 145.860709,28.31332 145.901787,28.42149 C145.923929,28.41801 145.946362,28.41482 145.968213,28.41105" id="Fill-4" fill="#FFFFFF"></path>
                <path d="M128.000348,26.5493294 C128.000348,23.0947632 128.000348,19.640488 128.000948,16.1859218 C128.000948,16.0549788 127.996148,15.9231629 128.008149,15.7928019 C128.048052,15.3563254 128.333375,15.0714517 128.782811,15.0182016 C128.90582,15.0039433 129.03033,15.0019064 129.15394,15.0019064 C130.585054,15.0007425 132.016768,14.9972507 133.447882,15.0042343 C133.739805,15.0056892 134.035629,15.0214024 134.320652,15.0772714 C134.786289,15.1686405 134.947402,15.3656369 134.988505,15.8157897 C134.999606,15.9356752 134.999606,16.0561427 134.999606,16.1760283 C135.000206,23.0193982 135.000206,29.8627682 134.999006,36.7058471 C134.999006,36.8801467 134.993005,37.0561923 134.973204,37.229328 C134.921,37.6812266 134.685781,37.91576 134.221344,37.9780307 C134.076732,37.9972356 133.928821,37.9983996 133.782409,37.9983996 C132.249287,38 130.716465,38.0013094 129.183642,37.9972356 C128.959225,37.9969447 128.732707,37.9838504 128.510689,37.9521331 C128.251168,37.9140141 128.085255,37.7597924 128.047752,37.4993614 C128.02795,37.358816 128.007549,37.2171066 128.007549,37.0765612 C128.003048,35.0099903 128.001548,32.9442924 128.000348,30.8783035 C127.999748,29.4350212 128.000348,27.9920298 128.000348,26.5493294" id="Fill-8" fill="#FFFFFF"></path>
                <path d="M115.835532,25.5150499 C115.577471,25.5150499 115.349998,25.5162052 115.12197,25.5144723 C114.965687,25.5127395 114.807735,25.5173604 114.652843,25.498299 C114.380877,25.465086 114.183716,25.3091291 114.096398,25.0393816 C114.04384,24.8776486 114.007967,24.7017639 114.00602,24.5313666 C113.996844,23.7073947 114.000737,22.8825563 114.001293,22.0582956 C114.001293,22.0149742 114.004352,21.9716529 114.008523,21.9283316 C114.058856,21.3845043 114.328875,21.1040708 114.855566,21.0746123 C115.16841,21.0572838 115.482366,21.0671033 115.795488,21.0653704 C115.909224,21.0647928 116.022682,21.0653704 116.166173,21.0653704 C116.172847,20.9362728 116.183136,20.831724 116.183136,20.7271751 C116.184527,20.1521565 116.193704,19.5771379 116.180912,19.0024081 C116.170345,18.5004581 116.387806,18.1440679 116.798813,17.9213962 C117.027398,17.7972083 117.276839,17.6883273 117.528783,17.6426955 C118.761805,17.4188686 119.998721,17.2155471 121.235914,17.0142472 C121.397481,16.9882544 121.568224,17.0021173 121.732294,17.0217563 C121.983681,17.05237 122.123279,17.2230561 122.15498,17.4740311 C122.183623,17.6990133 122.197805,17.92775 122.199474,18.1547538 C122.204479,19.0333106 122.201142,19.9118675 122.201699,20.7907131 C122.201699,20.8658034 122.21171,20.9406049 122.218384,21.0451538 C122.313488,21.0520852 122.402753,21.0639264 122.492574,21.0642152 C123.004804,21.0662368 123.516477,21.0624823 124.028429,21.0662368 C124.470582,21.0697025 124.738655,21.2536738 124.872135,21.6935299 C124.946383,21.9375734 124.986149,22.2018336 124.991433,22.458296 C125.006727,23.1956252 124.996994,23.9335321 124.996438,24.6711502 C124.996438,24.7361322 124.992545,24.8011142 124.988374,24.866385 C124.954726,25.4084794 124.76841,25.6028479 124.244778,25.6123785 C123.722259,25.6216204 123.200018,25.6135338 122.678056,25.6155554 C122.597411,25.6155554 122.516767,25.626819 122.418048,25.634328 C122.412486,25.756783 122.403865,25.8627759 122.403865,25.9681912 C122.402753,28.0187347 122.402753,30.0684119 122.403309,32.1189554 C122.403309,32.7361402 122.604642,32.9862487 123.193901,33.0728914 C123.388559,33.1011947 123.589057,33.0965737 123.786775,33.0907976 C124.012579,33.0844438 124.064858,33.0907976 124.136048,33.3146245 C124.232821,33.6227836 124.314577,33.9378742 124.374643,34.2558529 C124.53037,35.0876226 124.619913,35.9271903 124.621025,36.7759998 C124.621025,36.8843031 124.608512,36.9931841 124.612127,37.1009099 C124.619357,37.3186718 124.530092,37.4457477 124.320417,37.4908019 C123.779545,37.6077696 123.243956,37.7605495 122.69919,37.8448817 C121.768722,37.9892862 120.831303,38.0609108 119.889712,37.9349901 C118.830214,37.7928961 117.858868,37.4419932 117.078565,36.6466134 C116.371121,35.9248798 115.990425,35.0344818 115.89393,34.02134 C115.840538,33.4616282 115.839981,32.8946963 115.839703,32.3318076 C115.836644,30.1406141 115.843596,27.9494206 115.846377,25.7585159 C115.846377,25.6949779 115.840538,25.6311511 115.835532,25.5150499" id="Fill-7" fill="#FFFFFF"></path>
                <path d="M105.078031,38 C102.815391,37.9391362 100.941554,37.7503402 99.1025272,37.2607707 C98.8990019,37.2067023 98.7016525,37.1263385 98.4981272,37.0704974 C98.2999356,37.0155427 98.2050507,36.8858378 98.1651878,36.6784282 C98.0307207,35.9781989 97.9897349,35.2702879 98.0020868,34.5603087 C98.0091049,34.1513984 98.0672149,33.7433746 98.1073585,33.3356462 C98.1157802,33.2481914 98.1407647,33.1619184 98.1646263,33.0771227 C98.3055501,32.5772122 98.4164363,32.5074848 98.8959139,32.6428033 C100.396668,33.0667818 101.926336,33.1793503 103.471725,33.1167137 C103.742905,33.1060773 104.015769,33.0505317 104.281054,32.9843497 C104.430119,32.9468269 104.580868,32.867054 104.702141,32.7674855 C104.973883,32.5444167 104.991568,32.1697793 104.732459,31.9331196 C104.559814,31.7750509 104.357411,31.6444597 104.15164,31.5378003 C103.773785,31.3422088 103.379928,31.1826629 102.999546,30.9920942 C102.353038,30.6691615 101.700353,30.3568652 101.072653,29.997296 C100.410423,29.6194086 99.8178136,29.1295436 99.3599517,28.4928373 C98.2833728,26.9954695 98.0506521,25.350374 98.6777909,23.5947783 C98.9714289,22.7710487 99.5435456,22.1603425 100.220934,21.6595456 C101.133008,20.9853165 102.161303,20.6029973 103.236759,20.3447693 C104.520512,20.0363139 105.823636,19.9778137 107.134339,20.0064729 C108.114349,20.0277457 109.093516,20.0714731 110.058367,20.2765191 C110.284912,20.3243828 110.503877,20.4100649 110.728456,20.4667923 C110.957247,20.5241107 111.076836,20.680702 111.08245,20.9138163 C111.092276,21.3227265 111.107154,21.7345913 111.073186,22.1408424 C111.024059,22.7267304 110.898856,23.3008002 110.703191,23.8544835 C110.673996,23.9378019 110.641432,24.0199385 110.60578,24.0997115 C110.358181,24.6575312 110.222591,24.7269632 109.647386,24.6516221 C108.768999,24.5363945 107.890611,24.4267806 107.010259,24.3328258 C106.73936,24.3041666 106.462284,24.3224848 106.18942,24.3410985 C106.02295,24.3523258 105.855639,24.3913259 105.695345,24.4415533 C105.469642,24.5112808 105.303453,24.6563494 105.26359,24.9187138 C105.224289,25.1731008 105.382337,25.314033 105.553298,25.4266015 C105.82925,25.6083066 106.112502,25.7808525 106.403613,25.9350802 C107.052648,26.2792857 107.716562,26.5921729 108.358299,26.9493785 C109.135064,27.3810388 109.850911,27.9078357 110.471032,28.5702466 C111.586632,29.7615226 112.102042,31.1906402 111.983295,32.8573039 C111.948766,33.3406689 111.883919,33.8314203 111.758154,34.2961716 C111.430549,35.5093113 110.701226,36.3968592 109.65272,36.9998836 C108.826828,37.4743849 107.933281,37.7305447 107.007732,37.844295 C106.245284,37.9379544 105.475257,37.9689772 105.078031,38" id="Fill-6" fill="#FFFFFF"></path>
                <path d="M94.9867582,27.9965829 C94.9867582,29.8311399 94.9972947,31.6659929 94.9813476,33.500846 C94.9753674,34.250122 94.8252936,34.9813397 94.5356826,35.672296 C93.9257054,37.1270342 92.8484208,37.8917043 91.3288884,37.9911736 C91.2220997,37.9979825 91.1150262,37.9976865 91.0082375,37.9976865 C88.5153615,37.9976865 86.0230551,38.0059756 83.5301791,37.9911736 C83.05262,37.9879172 82.5642395,37.9458796 82.099495,37.8375291 C80.5210153,37.4692559 79.57444,36.4094344 79.2070868,34.7974991 C79.084351,34.2613715 79.013728,33.6994885 79.0111651,33.1482629 C78.9940789,29.6677261 78.9994895,26.1868933 79.0083174,22.7060604 C79.0086022,22.4215664 79.0535958,22.1273031 79.1341857,21.8555389 C79.3061868,21.2753014 79.6763877,21.0094579 80.2587422,21.0050173 C80.9433291,21.0005767 81.6284855,21.0041292 82.3130724,21.0041292 C82.9871229,21.0041292 83.6611733,20.9913995 84.334939,21.010642 C84.5863908,21.017747 84.849803,21.0612648 85.0847382,21.152445 C85.6374766,21.3673697 85.917975,21.8271191 85.9185445,22.4440654 C85.9193988,25.0681599 85.9162664,27.6931424 85.9222465,30.3175329 C85.9228161,30.6043952 85.9393327,30.8980664 85.9991344,31.1766396 C86.1215855,31.7494761 86.4747002,32.0508443 87.0023789,32.0842968 C87.6100779,32.1224859 88.0591601,31.8560503 88.2379956,31.2977198 C88.3208637,31.0398693 88.3578838,30.7547833 88.3584533,30.4815388 C88.3672812,27.8681018 88.3621553,25.2549608 88.3664269,22.6415238 C88.3667116,22.3537734 88.3840826,22.0630626 88.4285067,21.7797527 C88.4965667,21.3457588 88.7588398,21.0944212 89.1805841,21.0358054 C89.3178432,21.0168589 89.4570957,21.0056094 89.5954939,21.0053133 C90.8684155,21.002945 92.1413371,21.0017608 93.4145434,21.0062014 C93.6061936,21.0067935 93.7998371,21.0236678 93.9886396,21.0571202 C94.5607424,21.1589578 94.9172743,21.5565389 94.9819171,22.1586833 C94.9987185,22.3129199 94.9992881,22.4692288 94.9992881,22.6249456 C95.0004272,24.4153927 95,26.2058398 95,27.9965829 C94.9955861,27.9965829 94.9910297,27.9965829 94.9867582,27.9965829" id="Fill-1" fill="#FFFFFF"></path>
                <path d="M64.8562895,30.3118545 C64.8562895,28.5309091 64.8499211,26.7496727 64.8606316,24.9687273 C64.8632368,24.5669818 64.8950789,24.1597091 64.9645526,23.7640727 C65.1402632,22.7656727 65.7108158,22.0648727 66.6298947,21.648 C67.232,21.3751273 67.8685526,21.2343273 68.5221842,21.1994182 C69.2814737,21.1586909 70.0427895,21.1447273 70.8032368,21.1400727 C72.5968158,21.1296 74.3906842,21.1310545 76.1848421,21.1278545 C76.2279737,21.1278545 76.2716842,21.1272727 76.3151053,21.1281455 C76.8277632,21.136 76.9722105,21.2808727 76.9727895,21.7952 C76.9736579,22.9096727 76.9730789,24.0241455 76.9727895,25.1383273 C76.9727895,25.2148364 76.9753947,25.2925091 76.9661316,25.3675636 C76.9279211,25.6869818 76.7464211,25.8917818 76.4274211,25.9325091 C76.1807895,25.9633455 75.9286579,25.9493818 75.6797105,25.9682909 C75.1279737,26.0096 74.5753684,26.0494545 74.0250789,26.1082182 C73.5639474,26.1568 73.1488421,26.3490909 72.7467632,26.5719273 C72.0387105,26.9655273 71.6809211,27.5758545 71.6291053,28.3773091 C71.6172368,28.5623273 71.6175263,28.7485091 71.6175263,28.9338182 C71.6166579,31.4033455 71.6181053,33.8725818 71.6146316,36.3412364 C71.6143421,36.5696 71.5981316,36.8011636 71.5578947,37.0251636 C71.4719211,37.5008 71.1893947,37.7474909 70.7146579,37.7902545 C70.6388158,37.7972364 70.5623947,37.8004364 70.4868421,37.8004364 C69.1057632,37.8010182 67.7252632,37.8033455 66.3444737,37.7972364 C66.1511053,37.7966545 65.9531053,37.7704727 65.7652368,37.7239273 C65.2702368,37.5997091 64.9871316,37.2642909 64.9043421,36.7659636 C64.8684474,36.5515636 64.8583158,36.3307636 64.8580263,36.1131636 C64.8545526,34.1792 64.8562895,32.2455273 64.8562895,30.3118545" id="Fill-9" fill="#FFFFFF"></path>
                <path d="M53.8507402,15.02697 C56.6408898,15.02697 59.431622,15.02523 62.222063,15.02987 C62.482811,15.03045 62.7485118,15.04582 63.0034331,15.09744 C63.4092677,15.17951 63.5770787,15.39208 63.5913543,15.80678 C63.6038819,16.17653 63.5954331,16.54715 63.5954331,16.91777 C63.5957244,17.84345 63.5971811,18.76942 63.5951417,19.6951 C63.593685,20.29221 63.445685,20.46244 62.8466929,20.47607 C62.0373543,20.49434 61.2271417,20.48419 60.4178031,20.48535 C59.7282047,20.48651 59.0386063,20.48564 58.3492992,20.48564 C58.2945276,20.48564 58.2397559,20.48448 58.1849843,20.48593 C57.6171654,20.50101 57.5012126,20.61846 57.5009213,21.18976 C57.5003386,26.22242 57.5009213,31.2545 57.4991732,36.28716 C57.4991732,36.47189 57.4875197,36.6572 57.4668346,36.84077 C57.430126,37.16528 57.248622,37.38887 56.9351417,37.47703 C56.7163465,37.53822 56.486189,37.5852 56.2604016,37.58897 C55.4175591,37.60521 54.5752992,37.6025108 53.7324567,37.6025108 C52.8132835,37.6025108 51.8944016,37.60173 50.9752283,37.59071 C50.769252,37.58781 50.5597795,37.55707 50.3605039,37.50603 C50.1084961,37.44136 49.9421417,37.26794 49.9022283,37.0052 C49.8745512,36.82308 49.8585276,36.63719 49.8585276,36.45333 C49.8564882,31.4314 49.8570709,26.40976 49.8564882,21.38841 C49.8561969,21.23645 49.8582362,21.08275 49.843378,20.93166 C49.8177402,20.67095 49.7172283,20.56075 49.4625984,20.51725 C49.3230472,20.49376 49.1794173,20.48709 49.0378268,20.48709 C47.7355433,20.48477 46.4335512,20.48709 45.1312677,20.48419 C44.945685,20.4839 44.7574803,20.48071 44.5753937,20.45055 C44.2747323,20.40067 44.1421732,20.24784 44.109252,19.94624 C44.0955591,19.81661 44.091189,19.68553 44.0908976,19.55503 C44.0896178,18.38952 44.0888583,17.22372 44.0906063,16.0585 C44.092063,15.30653 44.3230945,15.07047 45.0855276,15.03422 C45.238189,15.02726 45.3917244,15.02726 45.5449685,15.02726 C48.3132677,15.02697 51.0821496,15.02697 53.8507402,15.02697" id="Fill-2" fill="#FFFFFF"></path>
                <path d="M19.9418421,19.9208727 C19.9418421,19.9211636 19.9418421,19.9214545 19.9418421,19.9214545 C18.4412105,19.9214545 16.9402895,19.9188364 15.4393684,19.9229091 C14.938,19.9246545 14.7776316,20.0919273 14.7738684,20.5966545 C14.7698158,21.1214545 14.7724211,21.6459636 14.773,22.1707636 C14.7735789,22.8130909 14.8679474,22.9105455 15.5065263,22.9140364 C16.0831579,22.9169455 16.6592105,22.9143273 17.2355526,22.9149091 C17.7788947,22.9154909 17.7797632,22.9157818 17.7797632,23.4557091 C17.7800526,25.9586909 17.7797632,28.4610909 17.7809211,30.9640727 C17.7809211,31.1168 17.7812105,31.2706909 17.8020526,31.4216727 C17.8512632,31.7824 17.9621316,31.9031273 18.3303421,31.9124364 C19.2427632,31.9342545 20.1557632,31.9348364 21.0687632,31.940089 C21.1874474,31.9406545 21.3078684,31.9255273 21.4256842,31.9066182 C21.6899737,31.8641455 21.8335526,31.7332364 21.8830526,31.4670545 C21.9102632,31.3184 21.9125789,31.1633455 21.9125789,31.0109091 C21.9143158,28.4645818 21.9131579,25.9179636 21.9143158,23.3713455 C21.9143158,22.9262545 21.9253158,22.9163636 22.3768947,22.9152 C23.0400789,22.9134545 23.7038421,22.9178182 24.3667368,22.912 C24.5175526,22.9111273 24.6692368,22.8866909 24.8188947,22.8619636 C24.9636316,22.8384 25.0472895,22.7392 25.0747895,22.5989818 C25.0933158,22.5032727 25.1034474,22.4043636 25.1037368,22.3069091 C25.1063421,21.7384727 25.1083684,21.1700364 25.1043158,20.6018909 C25.1002632,20.0901818 24.9445263,19.9333818 24.4443158,19.9220364 C24.3574737,19.9197091 24.2703421,19.9208727 24.1832105,19.9208727 C22.7694211,19.9208727 21.3556316,19.9208727 19.9418421,19.9208727 Z M19.9606579,15.1909818 C22.319,15.1909818 24.6773421,15.1909818 27.0356842,15.1909818 C27.1335263,15.1909818 27.2316579,15.1944727 27.3292105,15.1886545 C27.5393684,15.1767273 27.5717895,15.1461818 27.5903158,14.9381818 C27.5978421,14.8517818 27.5946579,14.7636364 27.5946579,14.6763636 C27.5949474,13.6608 27.6079737,12.6446545 27.5891579,11.6290909 C27.5796053,11.1182545 27.5503684,10.6018909 27.4632368,10.0994909 C27.1451053,8.26356364 26.2630789,6.73774545 24.8339474,5.55578182 C23.1500789,4.16290909 21.2126316,3.59505455 19.0369474,3.84901818 C17.9161053,3.97934545 16.8760263,4.33890909 15.9363947,4.9536 C13.6159737,6.47156364 12.4245,8.64087273 12.353,11.4193455 C12.3249211,12.5216 12.3460526,13.6256 12.3457632,14.7284364 C12.3457632,15.1898182 12.3472105,15.1906909 12.8202105,15.1906909 C15.2005526,15.1909818 17.5803158,15.1909818 19.9606579,15.1909818 Z M31.658,15.1674182 C31.8539737,15.1773091 31.9920526,15.1898182 32.1307105,15.1901091 C33.7726053,15.1918545 35.4147895,15.1860364 37.0566842,15.1953455 C37.6483684,15.1988364 38.2226842,15.3154909 38.7576316,15.5848727 C39.7710789,16.0951273 40.1282895,16.9282909 39.9071316,18.0040727 C39.5493421,19.7451636 39.1440789,21.4769455 38.7593684,23.2128 C38.0649211,26.3435636 37.3713421,29.4740364 36.6766053,32.6042182 C36.4803421,33.4882909 36.2863947,34.3729455 36.0834737,35.2549818 C35.8765,36.1550545 35.4379474,36.8957091 34.6109211,37.3588364 C34.1144737,37.6366545 33.5699737,37.7277091 33.0136053,37.7538909 C32.6879474,37.7693091 32.3608421,37.7570909 32.0348947,37.7570909 C23.705,37.7570909 15.3753947,37.7576727 7.0455,37.7553455 C6.34960526,37.7553455 5.68439474,37.6174545 5.09792105,37.2139636 C4.46657895,36.7799273 4.08563158,36.1675636 3.91136842,35.4301091 C3.64244737,34.2946909 3.39205263,33.1543273 3.13818421,32.0151273 C2.20347368,27.8202182 1.2705,23.6253091 0.337526316,19.4304 C0.233605263,18.9617455 0.108842105,18.4957091 0.0425526315,18.0218182 C-0.00521052643,17.6808727 -0.0199736843,17.3198545 0.0361842104,16.9821091 C0.133157895,16.4008727 0.494710526,15.9799273 0.998973684,15.6855273 C1.58747368,15.3416727 2.23184211,15.1994182 2.90313158,15.1950545 C4.53431579,15.1854545 6.1655,15.1915636 7.79668421,15.1909818 C8.28386842,15.1906909 8.28502632,15.1901091 8.28531579,14.7063273 C8.28560526,13.7227636 8.28792105,12.7389091 8.28531579,11.7556364 C8.27026316,6.31534545 12.0160526,1.59214545 17.2885263,0.328436364 C18.5894211,0.0165818182 19.9079737,-0.0386909091 21.2372368,0.0977454545 C23.4945526,0.329309091 25.5052368,1.17236364 27.2672632,2.59403636 C29.4212368,4.33192727 30.7994211,6.56785455 31.3977632,9.28145455 C31.5723158,10.0718545 31.6600263,10.8741818 31.6603158,11.6846545 C31.6606053,12.7010909 31.6588684,13.7172364 31.658,14.7333818 C31.6577105,14.8628364 31.658,14.992 31.658,15.1674182 L31.658,15.1674182 Z" id="Fill-11" fill="#6AB644"></path>
                <path d="M23.2791842,43.3312 C23.2351842,40.9157818 25.3086842,38.7313455 27.9177105,38.7589818 C30.3851842,38.7851636 32.4757632,40.8549818 32.4572368,43.4088727 C32.4378421,45.9633455 30.3151316,48.0645818 27.7249211,47.9985455 C25.3856842,47.9392 23.2108684,45.9418182 23.2791842,43.3312" id="Fill-12" fill="#6AB644"></path>
                <path d="M16.6641316,43.3757091 C16.7113158,45.8821818 14.6022105,48.0029091 12.0736579,47.9991323 C9.54047368,47.9962182 7.47363158,45.8641455 7.48430067,43.3649455 C7.49563158,40.8008727 9.6195,38.7473455 12.1011579,38.7574896 C14.5619737,38.768 16.7046579,40.8238545 16.6641316,43.3757091" id="Fill-13" fill="#6AB644"></path>
            </g>
        </g>
    </g>
</svg>