<?xml version="1.0" encoding="UTF-8"?>
<svg width="107px" height="48px" viewBox="0 0 107 48" version="1.1" xmlns="http://www.w3.org/2000/svg" xmlns:xlink="http://www.w3.org/1999/xlink">
    <!-- Generator: Sketch 60.1 (88133) - https://sketch.com -->
    <title>jeton_voucher</title>
    <desc>Created with Sketch.</desc>
    <g id="design" stroke="none" stroke-width="1" fill="none" fill-rule="evenodd">
        <g id="icon_all" transform="translate(-2077.000000, -160.000000)">
            <g id="jeton_voucher" transform="translate(2077.000000, 160.000000)">
                <path d="M106.730139,25.0746269 C105.429996,25.0613255 104.129853,25.0460198 102.82971,25.035725 C102.163922,25.030532 102.163554,25.0347228 102.163554,24.3673774 C102.163462,21.6496192 102.165209,18.9318609 102.160705,16.2141027 C102.160245,15.9579149 102.143518,15.6973542 102.095358,15.4461772 C101.832866,14.0750444 101.171949,13.5189385 99.8101355,13.5043617 C98.5617372,13.4908781 97.6991724,14.1738024 97.4364969,15.4197567 C97.3589258,15.7876394 97.3306178,16.1717388 97.329423,16.5486408 C97.3205998,19.205632 97.317383,21.8627142 97.3326398,24.5196142 C97.3348456,24.9070845 97.2455102,25.053946 96.8255786,25.0441977 C95.662196,25.0171395 94.4975267,25.0236991 93.3336846,25.0414646 C92.9829603,25.0468398 92.8493248,24.9550058 92.8500571,24.58439 C92.8605377,19.8018242 92.8598024,15.0191673 92.8513468,10.2365104 C92.8507035,9.90069675 92.9529061,9.78781744 93.298024,9.79346596 C94.4312604,9.81205142 95.5652321,9.81742662 96.6981009,9.79146165 C97.1108637,9.78198671 97.3057105,9.88648434 97.2388009,10.3175029 C97.2281394,10.3864695 97.2604914,10.4619957 97.2851229,10.6056685 C97.4578197,10.49862 97.5958668,10.4186296 97.7282156,10.3301665 C101.258619,7.9712715 105.888437,9.97649625 106.526009,14.1379981 C106.57325,14.4461158 106.661207,14.7481294 106.730139,15.0530584 L106.730139,25.0746269 Z" id="Fill-1" fill="#FF5500"></path>
                <path d="M60.1997791,15.2455319 C60.0261272,13.9866582 58.8099193,13.1549219 57.2991661,13.1973528 C55.9423609,13.235495 54.7004643,14.1589367 54.594487,15.2455319 L60.1997791,15.2455319 Z M54.3637491,18.80425 C54.5534219,19.6317888 54.9324913,20.217791 55.5021543,20.6829793 C56.6903716,21.6530494 58.4789126,21.7119963 59.7476028,20.8435779 C59.8498972,20.7735898 59.9885609,20.7404663 60.1146105,20.725319 C60.1990425,20.7150078 60.2912087,20.7665636 60.3797841,20.7910184 C61.6154196,21.1338415 62.8509631,21.4768472 64.1318991,21.832354 C63.5807431,22.8143777 62.8728768,23.591547 61.9705498,24.1919666 C58.0786661,26.7819833 51.0908801,25.4501103 49.9534878,18.940485 C49.5097823,16.4012028 49.9423468,14.0168617 51.656676,11.9965136 C53.3269938,10.027995 55.4822662,9.13530427 58.0933059,9.34280491 C59.8344287,9.48104742 61.3864311,10.0422299 62.6527274,11.2592202 C64.0059417,12.559886 64.6267979,14.2040138 64.7967668,16.0258037 C64.8598376,16.7034201 64.8335965,17.3919864 64.8075395,18.0741653 C64.7836002,18.7015946 64.6497243,18.803885 64.0301572,18.8039762 C61.0378383,18.8044325 58.0455194,18.80425 55.0532005,18.80425 L54.3637491,18.80425 Z" id="Fill-7" fill="#FF5500"></path>
                <path d="M86.9007665,17.3439419 C86.8517217,16.9383521 86.8340692,16.5259189 86.7480814,16.1283588 C86.4206002,14.6136704 85.3030327,13.6158922 83.7898308,13.4560287 C82.2917336,13.2978077 81.0160215,14.0681088 80.3884476,15.5190161 C79.9618757,16.505206 79.9509567,17.5333692 80.1661534,18.5605287 C80.7160199,21.1842245 83.716218,22.255091 85.666001,20.5207728 C86.6062245,19.6844093 86.8994926,18.5711133 86.9007665,17.3439419 M83.4714487,25.4328358 C78.9200139,25.4354804 75.5566655,21.9785235 75.5820896,17.3240502 C75.6073482,12.765933 78.9907149,9.32147681 83.4509755,9.31343284 C87.9626467,9.30532622 91.3430106,12.7570821 91.3432836,17.372502 C91.3435566,22.0232342 88.0162411,25.4302794 83.4714487,25.4328358" id="Fill-9" fill="#FF5500"></path>
                <path d="M47.9984528,11.3297593 C47.9984528,13.5452207 47.9989047,15.760682 47.9983624,17.9763268 C47.9972779,21.7322212 45.6065144,24.6404098 41.9584153,25.3244251 C37.931091,26.0796022 33.828482,22.7852509 33.6731226,18.684827 C33.6590237,18.3115943 33.7406348,18.1733057 34.1334166,18.1788996 C35.6089243,18.1994411 37.0847934,18.1906376 38.5604819,18.183393 C38.798085,18.1822926 38.931573,18.2243844 39.0083038,18.4978438 C39.3144133,19.5884718 40.116245,20.1483208 41.1088642,20.007006 C42.045901,19.8736693 42.6698692,19.078968 42.6714056,17.965781 C42.6778224,13.4431548 42.6744785,8.92052868 42.6749303,4.39790254 C42.6749303,4.24503305 42.6714056,3.93956917 42.6761053,3.93956917 C42.6808049,3.93956917 48.9594548,3.93956917 47.9984528,3.93956917 C47.9983624,3.93956917 47.9984528,8.62533558 47.9984528,10.9171859 L47.9984528,11.3297593 Z" id="Fill-11" fill="#FF5500"></path>
                <path d="M74.5026447,21.7009019 C74.5024588,22.5341001 74.4930729,23.3673892 74.5073841,24.2002239 C74.5113801,24.4313598 74.3625994,24.6402275 74.1373374,24.7099409 C72.603437,25.1847557 71.0641467,25.2398357 69.5717859,24.6120512 C67.931295,23.9219155 67.0937181,22.6072674 67.0333137,20.9014243 C66.9561819,18.722675 67.0012529,16.5397447 66.9936326,14.3585414 C66.9914952,13.7279393 66.9914023,13.7279393 66.3558549,13.7259397 C65.1987852,13.7222132 65.1986922,13.7222132 65.1987852,12.5658064 C65.1988781,11.7629658 65.2094721,10.9599434 65.1943245,10.1574664 C65.1879124,9.81762473 65.2842806,9.64584065 65.6673375,9.68328776 C65.9433392,9.71037329 66.2264036,9.66710915 66.5025912,9.69337667 C66.9039553,9.73155091 67.0045054,9.55340446 66.9993013,9.19238522 C66.9832245,8.08678653 67.0058994,6.9806425 66.9872205,5.8751347 C66.9792285,5.40113789 66.9792285,5.40113789 67.9112221,5.41640759 C68.8058171,5.43106455 69.7111609,5.42883213 70.6034004,5.42267907 C71.5128121,5.41640759 71.5128121,5.3837777 71.5068646,5.8264171 C71.4911594,6.97746131 71.5104888,8.12895998 71.4952483,9.28000419 C71.4909736,9.59948622 71.6028611,9.70164775 71.9237479,9.69374023 C72.651203,9.67592559 73.3795873,9.6971032 74.107321,9.68446934 C74.4910285,9.67774341 74.4417687,9.81324918 74.4420544,10.4541347 C74.4424261,11.287911 74.4420544,12.1000029 74.4424261,12.9789971 C74.442699,13.6242614 74.4763456,13.7353924 74.1046261,13.7295754 C73.3768923,13.7181231 72.6486009,13.7369375 71.921053,13.7220314 C71.5958914,13.7153964 71.4940402,13.837463 71.4959918,14.1488558 C71.507608,16.0725648 71.4969211,17.9963646 71.5079797,19.9200736 C71.5121616,20.6317505 71.7797996,20.9395985 72.5022364,20.960867 C73.1415939,20.9795906 73.7842039,20.8892449 74.5026447,20.8419815 L74.5026447,21.7009019 Z" id="Fill-16" fill="#FF5600"></path>
                <path d="M26.9394985,29.2813433 C26.9403045,19.7869366 26.9411104,10.2925299 26.9420955,0.798214925 C26.9420955,0.630053731 26.9176478,0.454824627 26.9565134,0.296301493 C26.9817672,0.193220149 27.093797,0.0475477612 27.1800358,0.0372671642 C27.4596179,0.00413059701 27.7475284,0.0043141791 28.0272,0.0371753731 C28.1113791,0.047088806 28.2135582,0.194505224 28.2452597,0.298779851 C28.283409,0.424441791 28.2558269,0.571215672 28.2558269,0.708810448 C28.2559164,10.0043978 28.2557373,19.3000769 28.2570806,28.5956642 C28.2570806,28.8243157 28.2738269,29.0527836 28.2827821,29.2813433 L26.9394985,29.2813433 Z" id="Fill-4" fill="#FF5500"></path>
                <path d="M10.9242343,25.4328358 C9.10911711,25.4355952 7.40751994,25.0063777 5.81028345,24.168923 C5.63875446,24.0791792 5.51764796,23.8934992 5.37313433,23.7522752 C5.53504141,23.6547678 5.68519866,23.5132665 5.86079846,23.4661302 C10.542041,22.2076838 15.2254116,20.9574631 19.911095,19.7156531 C20.0662483,19.6745243 20.2483243,19.7347848 20.4179104,19.7477242 C20.3762772,19.9153815 20.3759996,20.1098418 20.2869045,20.2466295 C18.0831178,23.6285194 14.9332387,25.3098984 10.9242343,25.4328358" id="Fill-20" fill="#FF5600"></path>
                <path d="M21.8138468,14.2429478 C21.792179,15.6862626 21.9596709,15.4566774 20.8230664,15.7596099 C14.696172,17.3932459 8.56653479,19.0167932 2.44247459,20.6607906 C2.00509396,20.7782189 1.78466656,20.6785139 1.56286777,20.3002345 C0.501689477,18.4903651 -0.0312310248,16.5527968 0.00140795604,14.4536282 C0.00799060763,14.0296317 0.142752114,13.8447638 0.559013402,13.7353337 C5.96986159,12.3128324 11.3762299,10.8736077 16.7836039,9.43801845 C17.6798502,9.20016235 18.5812164,8.97848447 19.4686858,8.71154395 C19.8379543,8.60047779 20.0243713,8.7119984 20.2079541,9.01593067 C21.2257966,10.7006462 21.7799279,12.5156963 21.8138468,14.2429478" id="Fill-13" fill="#FF5500"></path>
                <path d="M10.9113216,3.58208955 C12.7568469,3.58853643 14.4842557,4.03530523 16.1063223,4.89218771 C16.2530423,4.96964237 16.354867,5.13118277 16.4776119,5.25367349 C16.3370939,5.35175817 16.2099057,5.49920753 16.054114,5.54092805 C11.3398182,6.80230622 6.62311557,8.05475085 1.90456162,9.29991971 C1.75987806,9.3381405 1.59066402,9.284263 1.43283582,9.2733954 C1.46153186,9.12014385 1.44718384,8.9397233 1.52512597,8.81760097 C3.36805944,5.92958283 5.99309874,4.22438302 9.39404181,3.71609256 C9.89520419,3.64112456 10.4053456,3.62528365 10.9113216,3.58208955" id="Fill-18" fill="#FF5600"></path>
                <path d="M19.2689552,47.8889552 L25.4355224,33.3886567 L23.898806,33.3886567 L19.1310448,44.6776119 L14.4420896,33.3886567 L12.9053731,33.3886567 L18.9734328,47.8889552 L19.2689552,47.8889552 Z M34.6656716,47.8889552 C36.0119403,47.8889552 37.2597015,47.560597 38.4089552,46.9038806 C39.558209,46.2471642 40.461194,45.3441791 41.1179104,44.1949254 C41.7746269,43.0456716 42.1029851,41.7979104 42.1029851,40.4516418 C42.1029851,39.1053731 41.7713433,37.8576119 41.1080597,36.7083582 C40.4447761,35.5591045 39.5319403,34.659403 38.3695522,34.0092537 C37.2071642,33.3591045 35.9528358,33.0340299 34.6065672,33.0340299 C33.2602985,33.0340299 32.0158209,33.3623881 30.8731343,34.0191045 C29.7304478,34.6758209 28.8307463,35.5820896 28.1740299,36.7379104 C27.5173134,37.8937313 27.1889552,39.1546269 27.1889552,40.520597 C27.1889552,41.8471642 27.520597,43.081791 28.1838806,44.2244776 C28.8471642,45.3671642 29.7567164,46.2635821 30.9125373,46.9137313 C32.0683582,47.5638806 33.319403,47.8889552 34.6656716,47.8889552 Z M34.6558209,46.5098507 C33.0008955,46.5098507 31.5889552,45.9253731 30.42,44.7564179 C29.2510448,43.5874627 28.6665672,42.1591045 28.6665672,40.4713433 C28.6665672,38.7835821 29.2346269,37.3519403 30.3707463,36.1764179 C31.5068657,35.0008955 32.9220896,34.4131343 34.6164179,34.4131343 C36.2713433,34.4131343 37.6865672,34.9976119 38.8620896,36.1665672 C40.0376119,37.3355224 40.6253731,38.7671642 40.6253731,40.4614925 C40.6253731,42.2083582 40.0441791,43.6531343 38.881791,44.7958209 C37.719403,45.9385075 36.3107463,46.5098507 34.6558209,46.5098507 Z M49.8062687,47.8889552 C50.7913433,47.8889552 51.6483582,47.6328358 52.3773134,47.120597 C53.1062687,46.6083582 53.6152239,45.9713433 53.9041791,45.2095522 C54.1931343,44.4477612 54.3376119,43.3510448 54.3376119,41.919403 L54.3376119,41.919403 L54.3376119,33.3886567 L52.938806,33.3886567 L52.938806,41.919403 C52.938806,42.9832836 52.8829851,43.7352239 52.7713433,44.1752239 C52.6597015,44.6152239 52.459403,45.0191045 52.1704478,45.3868657 C51.8814925,45.7546269 51.5268657,46.0402985 51.1065672,46.2438806 C50.6862687,46.4474627 50.1970149,46.5492537 49.638806,46.5492537 C49.080597,46.5492537 48.5585075,46.4277612 48.0725373,46.1847761 C47.5865672,45.941791 47.2089552,45.6134328 46.9397015,45.1997015 C46.6704478,44.7859701 46.5128358,44.3558209 46.4668657,43.9092537 C46.4208955,43.4626866 46.3979104,42.799403 46.3979104,41.919403 L46.3979104,41.919403 L46.3979104,33.3886567 L44.979403,33.3886567 L44.979403,41.919403 C44.979403,43.3379104 45.0614925,44.3295522 45.2256716,44.8943284 C45.3898507,45.4591045 45.6820896,45.9713433 46.1023881,46.4310448 C46.5226866,46.8907463 47.0480597,47.2486567 47.6785075,47.5047761 C48.3089552,47.7608955 49.018209,47.8889552 49.8062687,47.8889552 Z M64.8385075,47.8889552 C66.1256716,47.8889552 67.301194,47.6492537 68.3650746,47.1698507 C69.4289552,46.6904478 70.3089552,45.9910448 71.0050746,45.0716418 L71.0050746,45.0716418 L69.901791,44.2244776 C68.5752239,45.7743284 66.9137313,46.5492537 64.9173134,46.5492537 C63.1310448,46.5492537 61.6435821,45.9746269 60.4549254,44.8253731 C59.2662687,43.6761194 58.6719403,42.2444776 58.6719403,40.5304478 C58.6719403,38.8164179 59.279403,37.3683582 60.4943284,36.1862687 C61.7092537,35.0041791 63.1573134,34.4131343 64.8385075,34.4131343 C66.900597,34.4131343 68.5883582,35.2274627 69.901791,36.8561194 L69.901791,36.8561194 L71.0050746,36.0089552 C70.3220896,35.0501493 69.4420896,34.3146269 68.3650746,33.8023881 C67.2880597,33.2901493 66.0731343,33.0340299 64.7202985,33.0340299 C63.3674627,33.0340299 62.1032836,33.3558209 60.9277612,33.999403 C59.7522388,34.6429851 58.8328358,35.5328358 58.1695522,36.6689552 C57.5062687,37.8050746 57.1746269,39.0429851 57.1746269,40.3826866 C57.1746269,42.5498507 57.8904478,44.3426866 59.3220896,45.761194 C60.7537313,47.1797015 62.5925373,47.8889552 64.8385075,47.8889552 Z M75.260597,47.5343284 L75.260597,40.6979104 L82.4516418,40.6979104 L82.4516418,47.5343284 L83.8701493,47.5343284 L83.8701493,33.3886567 L82.4516418,33.3886567 L82.4516418,39.318806 L75.260597,39.318806 L75.260597,33.3886567 L73.8223881,33.3886567 L73.8223881,47.5343284 L75.260597,47.5343284 Z M95.3758209,47.5343284 L95.3758209,46.1355224 L88.7364179,46.1355224 L88.7364179,40.5797015 L95.3758209,40.5797015 L95.3758209,39.200597 L88.7364179,39.200597 L88.7364179,34.7874627 L95.4349254,34.7874627 L95.4349254,33.3886567 L87.3179104,33.3886567 L87.3179104,47.5343284 L95.3758209,47.5343284 Z M99.3555224,47.5343284 L99.3555224,40.9540299 L100.163284,40.9540299 L105.246269,47.5343284 L106.999701,47.5343284 L101.897015,40.9540299 C103.46,41.0065672 104.668358,40.6880597 105.52209,39.9985075 C106.375821,39.3089552 106.802687,38.36 106.802687,37.1516418 C106.802687,36.5474627 106.684478,35.9958209 106.44806,35.4967164 C106.211642,34.9976119 105.886567,34.5904478 105.472836,34.2752239 C105.059104,33.96 104.563284,33.7334328 103.985373,33.5955224 C103.407463,33.4576119 102.330448,33.3886567 100.754328,33.3886567 L100.754328,33.3886567 L97.9370149,33.3886567 L97.9370149,47.5343284 L99.3555224,47.5343284 Z M101.954313,39.5755026 L101.798507,39.5749254 L99.3555224,39.5749254 L99.3555224,34.7677612 L101.857612,34.7677612 C103.039701,34.7677612 103.913134,34.958209 104.47791,35.3391045 C105.042687,35.72 105.325075,36.3307463 105.325075,37.1713433 C105.325075,38.0119403 105.039403,38.6259701 104.46806,39.0134328 C103.896716,39.4008955 103.006866,39.5880597 101.798507,39.5749254 L101.954313,39.5755026 Z" id="VOUCHER" fill="#FF5500" fill-rule="nonzero"></path>
            </g>
        </g>
    </g>
</svg>