<?xml version="1.0" encoding="UTF-8"?>
<svg width="171px" height="48px" viewBox="0 0 171 48" version="1.1" xmlns="http://www.w3.org/2000/svg" xmlns:xlink="http://www.w3.org/1999/xlink">
    <!-- Generator: Sketch 60.1 (88133) - https://sketch.com -->
    <title>jeton_wallet</title>
    <desc>Created with Sketch.</desc>
    <g id="design" stroke="none" stroke-width="1" fill="none" fill-rule="evenodd">
        <g id="icon_all" transform="translate(-2232.000000, -160.000000)">
            <g id="jeton_wallet" transform="translate(2232.000000, 160.000000)">
                <path d="M170.768222,40.9730073 C168.687993,40.9512723 166.607764,40.9262622 164.527536,40.9094399 C163.462275,40.9009544 163.461687,40.9078024 163.461687,39.8173317 C163.46154,35.376399 163.464334,30.9354664 163.457128,26.4945337 C163.456393,26.0759121 163.429629,25.6501447 163.352573,25.2397108 C162.932586,22.9992215 161.875119,22.0905208 159.696217,22.0667016 C157.69878,22.0446689 156.318676,23.1605963 155.898395,25.1965386 C155.774281,25.7976746 155.728989,26.4253093 155.727077,27.0411833 C155.71296,31.3828199 155.707813,35.7246053 155.732224,40.066093 C155.735753,40.6992359 155.592816,40.9392139 154.920926,40.9232848 C153.059514,40.8790705 151.196043,40.8897891 149.333895,40.9188187 C148.772737,40.927602 148.55892,40.7775414 148.560091,40.1719393 C148.57686,32.3570233 148.575684,24.5419585 148.562155,16.7268936 C148.561126,16.1781598 148.72465,15.9937102 149.276838,16.0029401 C151.090017,16.0333096 152.904371,16.0420929 154.716962,15.999665 C155.377382,15.9841825 155.689137,16.1549361 155.582081,16.8592388 C155.565023,16.9719331 155.616786,17.0953461 155.656197,17.3301137 C155.932512,17.1551918 156.153387,17.0244842 156.365145,16.8799317 C162.013791,13.0253968 169.421499,16.3020194 170.441614,23.1020905 C170.5172,23.6055679 170.657931,24.099071 170.768222,24.597338 L170.768222,40.9730073 Z" id="Fill-1" fill="#FF5500"></path>
                <path d="M96.3196465,24.9118479 C96.0418035,22.8547947 94.0958709,21.4957022 91.6786657,21.5650361 C89.5077775,21.627362 87.520743,23.136305 87.3511791,24.9118479 L96.3196465,24.9118479 Z M86.9819985,30.7269446 C87.285475,32.0791783 87.8919861,33.0367308 88.8034468,33.7968684 C90.7045945,35.3820041 93.5662602,35.4783259 95.5961644,34.0592932 C95.7598355,33.9449297 95.9816974,33.8908045 96.1833767,33.8660531 C96.318468,33.8492042 96.465934,33.9334486 96.6076546,33.9734087 C98.5846714,34.5335964 100.561541,35.0940822 102.611039,35.6749955 C101.729189,37.279664 100.596603,38.5495916 99.1528796,39.5307028 C92.9258658,43.7629004 81.7454082,41.5865632 79.9255804,30.9495584 C79.2156516,26.8002633 79.9077549,22.9041485 82.6506816,19.6028137 C85.32319,16.3861706 88.771626,14.9274759 92.9492895,15.2665408 C95.735086,15.4924349 98.2182898,16.4094309 100.244364,18.3980449 C102.409507,20.5233882 103.402877,23.2099629 103.674827,26.1868451 C103.77574,27.2940992 103.733754,28.4192458 103.692063,29.5339551 C103.65376,30.5592014 103.439559,30.7263482 102.448251,30.7264973 C97.6605413,30.7272428 92.8728311,30.7269446 88.0851209,30.7269446 L86.9819985,30.7269446 Z" id="Fill-7" fill="#FF5500"></path>
                <path d="M139.041226,28.3407391 C138.962755,27.6779882 138.934511,27.0040547 138.79693,26.3544246 C138.27296,23.8793593 136.484852,22.2489473 134.063729,21.9877235 C131.666774,21.7291836 129.625634,22.9878885 128.621516,25.3587327 C127.939001,26.970209 127.921531,28.6502714 128.265846,30.3286937 C129.145632,34.6159243 133.945949,36.3657657 137.065602,33.5318159 C138.569959,32.1651624 139.039188,30.3459893 139.041226,28.3407391 M133.554318,41.558336 C126.272022,41.5626574 120.890665,35.9138426 120.931343,28.3082352 C120.971757,20.8600778 126.385144,15.2316898 133.521561,15.2185456 C140.740235,15.205299 146.148817,20.8456151 146.149254,28.3874075 C146.14969,35.9869018 140.825986,41.5541587 133.554318,41.558336" id="Fill-9" fill="#FF5500"></path>
                <path d="M76.7975245,18.5133088 C76.7975245,22.1334669 76.7982475,25.7536251 76.7973799,29.374083 C76.7956446,35.5113742 72.9704231,40.2634781 67.1334645,41.3811882 C60.6897456,42.6151798 54.1255712,37.2320695 53.8769961,30.5318024 C53.8544378,29.9219243 53.9850157,29.6959548 54.6134666,29.7050954 C56.9742788,29.7386612 59.3356695,29.7242759 61.696771,29.712438 C62.0769361,29.7106398 62.2905168,29.7794197 62.413286,30.226264 C62.9030613,32.0083966 64.185992,32.9232136 65.7741826,32.6922991 C67.2734416,32.4744213 68.2717907,31.1758456 68.274249,29.3568506 C68.2845159,21.966687 68.2791655,14.5765235 68.2798886,7.1863599 C68.2798886,6.93656464 68.274249,6.43742366 68.2817684,6.43742366 C68.2892878,6.43742366 78.3351276,6.43742366 76.7975245,6.43742366 C76.7973799,6.43742366 76.7975245,14.0941654 76.7975245,17.8391463 L76.7975245,18.5133088 Z" id="Fill-11" fill="#FF5500"></path>
                <path d="M119.204232,35.4601972 C119.203934,36.8216785 119.188917,38.1833084 119.211815,39.5441957 C119.218208,39.9218816 118.980159,40.2631802 118.61974,40.3770949 C116.165499,41.1529625 113.702635,41.2429656 111.314857,40.217139 C108.690072,39.0894279 107.349949,36.941237 107.253302,34.1538167 C107.129891,30.5936477 107.202005,27.0266467 107.189812,23.4624677 C107.186392,22.432037 107.186244,22.432037 106.169368,22.4287696 C104.318056,22.4226803 104.317908,22.4226803 104.318056,20.5330624 C104.318205,19.2211867 104.335155,17.9090139 104.310919,16.5977322 C104.30066,16.0424166 104.454849,15.7617141 105.06774,15.8229043 C105.509343,15.8671632 105.962246,15.7964677 106.404146,15.83939 C107.046328,15.9017683 107.207209,15.6106694 107.198882,15.0207486 C107.173159,13.2141533 107.209439,11.4066669 107.179553,9.6002201 C107.166766,8.82568915 107.166766,8.82568915 108.657955,8.85064048 C110.089307,8.87459058 111.537857,8.87094271 112.965441,8.86088835 C114.420499,8.85064048 114.420499,8.79732186 114.410983,9.52061347 C114.385855,11.4014687 114.416782,13.2830665 114.392397,15.1639217 C114.385558,15.685969 114.564578,15.8529053 115.077997,15.839984 C116.241925,15.8108741 117.40734,15.8454793 118.571714,15.824835 C119.185646,15.8138445 119.10683,16.0352667 119.107287,17.082501 C119.107882,18.444927 119.107287,19.7719197 119.107882,21.2082336 C119.108318,22.2626229 119.162153,22.4442157 118.567402,22.4347104 C117.403028,22.4159969 116.237761,22.4467405 115.073685,22.4223832 C114.553426,22.4115413 114.390464,22.6110034 114.393587,23.1198324 C114.412173,26.2632548 114.395074,29.4068256 114.412768,32.550248 C114.419459,33.7131583 114.847679,34.216195 116.003578,34.2509487 C117.02655,34.2815437 118.054726,34.133915 119.204232,34.0566847 L119.204232,35.4601972 Z" id="Fill-16" fill="#FF5600"></path>
                <path d="M43.1031976,47.8469609 C43.1044872,32.3326963 43.1057767,16.8184318 43.1073528,1.30431715 C43.1073528,1.02953461 43.0682364,0.743202795 43.1304215,0.484169247 C43.1708275,0.315729946 43.3500752,0.0776950651 43.4880573,0.0608961321 C43.9353887,0.00674957129 44.3960454,0.00704955224 44.84352,0.0607461416 C44.9782066,0.0769451127 45.1416931,0.317829813 45.1924155,0.48821899 C45.2534543,0.693555948 45.209323,0.933390715 45.209323,1.15822643 C45.2094663,16.3476117 45.2091797,31.5371469 45.211329,46.7265321 C45.211329,47.1001584 45.238123,47.4734847 45.2524513,47.8469609 L43.1031976,47.8469609 Z" id="Fill-4" fill="#FF5500"></path>
                <path d="M17.4787748,41.558336 C14.5745874,41.5628449 11.8520319,40.8614853 9.29645352,39.4930487 C9.02200714,39.3464035 8.82823674,39.0429945 8.59701493,38.8122285 C8.85606626,38.6528972 9.09631786,38.4216781 9.37727753,38.3446554 C16.8672657,36.2883004 24.3606585,34.2453866 31.857752,32.2162161 C32.1059972,32.14901 32.397319,32.2474782 32.6686567,32.2686217 C32.6020435,32.5425809 32.6015994,32.8603372 32.4590472,33.0838541 C28.9329885,38.6100061 23.8931819,41.3574511 17.4787748,41.558336" id="Fill-20" fill="#FF5600"></path>
                <path d="M34.902155,23.2735828 C34.8674863,25.6320206 35.1354734,25.2568686 33.3169062,25.7518732 C23.5138751,28.4213039 13.7064557,31.0742494 3.90795934,33.7606109 C3.20815034,33.9524939 2.85546649,33.7895716 2.50058843,33.1714471 C0.802703164,30.2140433 -0.0499696397,27.0479743 0.00225272966,23.6178435 C0.0127849722,22.9250152 0.228403382,22.6229332 0.894421443,22.4441197 C9.55177854,20.1196921 18.2019679,17.7679376 26.8537663,15.4221238 C28.2877604,15.0334568 29.7299462,14.6712257 31.1498973,14.2350335 C31.7407268,14.0535467 32.0389941,14.2357761 32.3327266,14.7324144 C33.9612746,17.4853112 34.8478847,20.4511804 34.902155,23.2735828" id="Fill-13" fill="#FF5500"></path>
                <path d="M17.4581145,5.85328676 C20.4109551,5.86382123 23.1748091,6.59386046 25.7701156,7.9940429 C26.0048677,8.12060711 26.1677871,8.38457099 26.3641791,8.58472605 C26.1393503,8.74500058 25.9358491,8.98593911 25.6865824,9.05411223 C18.1437091,11.1152578 10.5969849,13.1618056 3.04729859,15.1964645 C2.8158049,15.2589189 2.54506243,15.1708808 2.29253731,15.1531227 C2.33845097,14.9027031 2.31549414,14.6078883 2.44020156,14.4083352 C5.38889511,9.68919067 9.58895798,6.90282161 15.0304669,6.07225338 C15.8323267,5.94975246 16.648553,5.92386775 17.4581145,5.85328676" id="Fill-18" fill="#FF5600"></path>
            </g>
        </g>
    </g>
</svg>