<?xml version="1.0" encoding="UTF-8"?>
<svg width="197px" height="48px" viewBox="0 0 197 48" version="1.1" xmlns="http://www.w3.org/2000/svg" xmlns:xlink="http://www.w3.org/1999/xlink">
    <!-- Generator: Sketch 60.1 (88133) - https://sketch.com -->
    <title>webmoney</title>
    <desc>Created with Sketch.</desc>
    <g id="design" stroke="none" stroke-width="1" fill="none" fill-rule="evenodd">
        <g id="icon_all" transform="translate(-477.000000, -64.000000)" fill="#006CB4" fill-rule="nonzero">
            <g id="webmoney" transform="translate(477.000000, 64.000000)">
                <path d="M173.91096,0.739172174 C177.474,0.739172174 180.863493,1.59026087 183.904453,3.11279304 C184.381253,3.33651478 184.861147,3.6058713 185.33672,3.87550609 L183.252507,5.80441043 L180.125467,2.44134957 L174.73928,7.37113043 L171.567067,3.83131826 L161.661093,13.0194922 L168.004027,20.2345739 L165.527547,22.4727374 L171.7844,29.6878191 L169.30792,31.9288765 L178.259973,42.1919722 L183.557307,37.1708661 L188.16456,42.5512626 C187.2516,43.2683409 186.252507,43.9869217 185.167387,44.6126748 C181.86536,46.5416348 178.041253,47.6577391 173.95608,47.6577391 C161.400027,47.6577391 151.190507,37.1296278 151.190507,24.1778643 C151.147973,11.3158678 161.35768,0.736222609 173.912347,0.736222609 L173.91096,0.739172174 Z M169.739707,22.7422052 L175.172453,17.7210991 L180.038,23.325273 L174.6052,28.3434296 L169.739707,22.7407026 L169.739707,22.7422052 Z M173.60616,32.4236243 L178.996613,27.3583861 L183.904453,32.961113 L178.471653,37.9821635 L173.607547,32.4236243 L173.60616,32.4236243 Z M165.87608,13.1961878 L171.304613,8.1780313 L176.172933,13.7793113 L170.740187,18.8004174 L165.87608,13.1961878 Z M175.8244,10.508967 L179.863013,6.74387478 L183.513573,10.9109426 L179.470747,14.7202226 L175.821573,10.508967 L175.8244,10.508967 Z M183.035173,27.7618087 L187.073787,23.9982191 L190.724347,28.2094191 L186.682907,31.9760139 L183.033787,27.7618087 L183.035173,27.7618087 Z M186.596827,36.2329043 L190.638267,32.4678122 L194.286,36.63488 L190.245947,40.44416 L186.596827,36.2329043 Z M188.247813,16.8700104 L190.943067,14.3623791 L193.374427,17.1409252 L190.682,19.6500035 L188.246427,16.8700104 L188.247813,16.8700104 Z M184.772293,8.58000696 L187.467493,6.02679652 L189.90168,8.85097739 L187.206427,11.3615026 L184.77368,8.58150957 L184.772293,8.58000696 Z M191.68248,25.1644104 L194.374853,22.6538296 L196.849947,25.4323757 L194.1124,27.9414539 L191.681093,25.1644104 L191.68248,25.1644104 Z M179.56104,18.9329252 L183.60104,15.16928 L187.25016,19.3364035 L183.2116,23.1014957 L179.56104,18.9343722 L179.56104,18.9329252 Z M12.6223787,16.9008974 L12.417792,16.9008974 L8.56969067,32.14976 L5.42573333,32.14976 L0.705568,10.486873 L3.96946667,10.486873 L7.23195733,26.6501009 L7.43515733,26.6501009 L11.221168,10.486873 L13.8147893,10.486873 L17.8646773,26.6501009 L18.070704,26.6501009 L21.0425067,10.486873 L24.4517493,10.486873 L19.7301707,32.14976 L16.5833973,32.14976 M28.591952,22.926247 L35.262272,22.926247 C35.1169387,19.7192348 33.629616,18.4352278 32.0562293,18.4352278 C30.2782293,18.4352278 28.9094507,19.8738365 28.5905387,22.926247 M37.5934293,28.6717774 L37.5934293,30.995367 C36.2810933,31.7904696 34.5341387,32.4015304 32.4344053,32.4015304 C27.5378507,32.4015304 25.5312533,29.2225113 25.5312533,24.3957426 C25.5312533,19.7501217 27.7749173,16.3899548 32.1437173,16.3899548 C35.784384,16.3899548 38.028048,18.8636939 38.028048,23.8436174 L38.028048,24.9744696 L28.5312533,24.9744696 C28.5312533,28.6408904 29.9564693,30.2605913 32.959312,30.2605913 C34.534112,30.2605913 35.9903787,29.6774678 37.5919893,28.6703304 M44.8084107,29.9528348 C45.739744,30.379687 46.761392,30.4414609 47.4895253,30.4414609 C49.6485227,30.4414609 51.275536,29.0352974 51.275536,24.0848696 C51.275536,20.2049113 49.9349813,18.9532939 47.9848213,18.9532939 C46.819248,18.9532939 45.9739893,19.2888765 44.809824,19.960487 L44.809824,29.9511652 L44.8084107,29.9528348 Z M44.8366773,17.7019548 C45.711568,17.2133287 47.1960533,16.568153 48.7708533,16.568153 C52.3833013,16.568153 54.3362773,19.1964939 54.3362773,24.0850922 C54.3362773,29.798233 51.7116107,32.5811757 47.489568,32.5811757 C45.9444,32.5811757 43.5553867,32.0597148 41.807024,31.0792904 L41.807024,9.75949913 L44.8380907,8.99378087 L44.8380907,17.7019548 L44.8366773,17.7019548 Z M67.4511467,27.5527235 L67.5950933,27.5527235 L73.8279733,10.4721252 L77.440416,10.4721252 L77.440416,32.1365148 L74.2936373,32.1365148 L74.2936373,16.431193 L74.0325707,16.431193 L68.0889707,32.1365148 L66.226304,32.1365148 L60.282704,16.7993322 L60.0188107,16.7993322 L60.0188107,32.1365148 L57.3969653,32.1365148 L57.3969653,10.4721252 L60.9247467,10.4721252 M90.297024,24.3957426 C90.297024,20.2728626 88.6968213,18.5309496 86.7170347,18.5309496 C84.7950987,18.5309496 83.1328107,20.2714157 83.1328107,24.3957426 C83.1328107,28.5819548 84.6483467,30.2605913 86.7170347,30.2605913 C88.7843093,30.2605913 90.298432,28.5819548 90.298432,24.3942957 M80.0763467,24.3942957 C80.0763467,19.0462887 82.873168,16.3885078 86.7184427,16.3885078 C90.566544,16.3885078 93.3619573,19.0448417 93.3619573,24.392793 C93.3619573,29.6156383 90.711888,32.3985809 86.719856,32.3985809 C82.7264107,32.3985809 80.0777547,29.6156383 80.0777547,24.392793 M95.6648907,18.6516591 C96.9772213,17.8271165 99.745824,16.3899548 103.092976,16.3899548 C106.589712,16.3899548 107.899221,17.824167 107.899221,20.9693496 L107.899221,32.033447 L104.870976,32.033447 L104.870976,21.6775791 C104.870976,19.2627757 103.737856,18.8357565 102.249131,18.8357565 C101.084965,18.8357565 99.5962453,19.386713 98.6931307,19.9356661 L98.6931307,32.0348939 L95.6648907,32.0348939 L95.6648907,18.6502122 L95.6648907,18.6516591 Z M114.314133,22.926247 L120.983045,22.926247 C120.841925,19.7192348 119.353211,18.4352278 117.779824,18.4352278 C116.001824,18.4352278 114.633045,19.8738365 114.31272,22.926247 M123.312789,28.6717774 L123.312789,30.995367 C122.003275,31.7904696 120.254912,32.4015304 118.155179,32.4015304 C113.265675,32.4015304 111.254843,29.2225113 111.254843,24.3957426 C111.254843,19.7501217 113.495691,16.3899548 117.865899,16.3899548 C121.506565,16.3899548 123.753056,18.8636939 123.753056,23.8436174 L123.753056,24.9744696 L114.256277,24.9744696 C114.256277,28.6408904 115.681499,30.2605913 118.68152,30.2605913 C120.254912,30.2605913 121.715408,29.6774678 123.312789,28.6703304 M135.856133,16.3914574 L138.974693,16.3914574 L133.699979,31.6609113 C132.242299,35.8780104 130.468533,38.0778852 127.117141,38.0778852 L127.117141,35.5776557 C129.098341,35.5776557 130.320368,33.9285148 131.021691,31.6638609 L125.428043,16.3914574 L128.631264,16.3914574 L132.362245,27.6322504 L132.537232,27.6322504 L135.856187,16.3899548 L135.856133,16.3914574 Z" id="path5590"></path>
            </g>
        </g>
    </g>
</svg>