<?xml version="1.0" encoding="UTF-8"?>
<svg width="176px" height="48px" viewBox="0 0 176 48" version="1.1" xmlns="http://www.w3.org/2000/svg" xmlns:xlink="http://www.w3.org/1999/xlink">
    <!-- Generator: Sketch 60.1 (88133) - https://sketch.com -->
    <title>perfectmoney</title>
    <desc>Created with Sketch.</desc>
    <g id="design" stroke="none" stroke-width="1" fill="none" fill-rule="evenodd">
        <g id="icon_all" transform="translate(-293.000000, -256.000000)">
            <g id="perfectmoney" transform="translate(293.000000, 256.000000)">
                <ellipse id="Oval" fill="#D70D0D" fill-rule="nonzero" cx="166.42623" cy="8.85245902" rx="8.6557377" ry="8.85245902"></ellipse>
                <path d="M161.12551,7.63994039 C161.11225,7.63994039 161.09899,7.63994039 161.072469,7.62563338 C161.045948,7.61132638 161.059209,7.56840537 161.059209,7.52548435 C161.059209,7.46825633 161.059209,7.41102832 161.059209,7.3681073 C161.059209,7.32518629 161.059209,7.26795827 161.059209,7.19642325 L161.059209,7.11058122 L161.059209,6.69567809 L161.059209,6.0947839 L161.059209,5.40804769 L161.059209,4.93591654 L161.059209,4.63546945 L161.032688,4.33502235 C161.032688,4.27779434 160.992907,4.22056632 160.953126,4.19195231 L160.886825,4.1490313 C160.621619,4.07749627 160.409454,4.12041729 160.197289,4.09180328 L160.197289,3.93442623 L161.324415,3.93442623 L162.093513,3.93442623 C162.345459,3.93442623 162.597404,3.93442623 162.84935,3.93442623 C163.141077,3.94873323 163.366502,4.00596125 163.525626,4.06318927 C163.777572,4.1490313 163.923435,4.24918033 163.989737,4.27779434 C164.095819,4.34932936 164.175381,4.42086438 164.228422,4.46378539 C164.294724,4.53532042 164.374286,4.62116244 164.453848,4.72131148 C164.453848,4.72131148 164.54667,4.86438152 164.626232,4.99314456 C164.878177,5.4366617 164.851657,5.99463487 164.851657,5.99463487 C164.851657,6.0947839 164.811876,6.69567809 164.414067,7.13919523 C164.254943,7.32518629 164.082559,7.43964232 164.002997,7.48256334 C163.843873,7.58271237 163.69801,7.62563338 163.578667,7.6685544 C163.512366,7.69716841 163.353242,7.74008942 163.114556,7.78301043 C162.902392,7.82593145 162.610665,7.85454545 162.239376,7.84023845 L161.443758,7.86885246 C161.218332,7.86885246 160.979647,7.86885246 160.740961,7.84023845 C160.528796,7.82593145 160.316631,7.79731744 160.130987,7.78301043 C159.733178,7.69716841 159.335369,7.61132638 158.95082,7.51117735 L160.184028,7.65424739 C160.369673,7.65424739 160.568577,7.65424739 160.767482,7.65424739 C160.992907,7.65424739 161.231593,7.65424739 161.53658,7.63994039 C161.695703,7.62563338 161.815046,7.62563338 161.96091,7.61132638 C162.106773,7.59701937 162.279157,7.58271237 162.464801,7.53979136 C162.544363,7.52548435 162.783049,7.46825633 163.008474,7.3538003 C163.180858,7.28226528 163.538886,7.09627422 163.777572,6.69567809 C164.056038,6.22354694 164.069299,5.60834575 163.857134,5.16482861 C163.817353,5.07898659 163.724531,4.89299553 163.525626,4.72131148 C163.432804,4.64977645 163.313461,4.56393443 163.074776,4.50670641 C162.650446,4.37794337 162.226116,4.40655738 161.934389,4.46378539 C161.788526,4.53532042 161.669183,4.63546945 161.655923,4.70700447 C161.642662,4.73561848 161.642662,4.83576751 161.642662,4.87868852 C161.642662,4.87868852 161.642662,4.89299553 161.642662,4.90730253 C161.642662,4.92160954 161.642662,4.93591654 161.642662,4.96453055 C161.642662,5.62265276 161.642662,6.75290611 161.642662,7.16780924 L161.642662,7.3681073 C161.642662,7.38241431 161.642662,7.48256334 161.642662,7.48256334 C161.642662,7.48256334 161.642662,7.49687034 161.642662,7.51117735 C161.642662,7.53979136 161.642662,7.53979136 161.642662,7.53979136 C161.629402,7.55409836 161.616142,7.55409836 161.616142,7.55409836 C161.576361,7.55409836 161.350935,7.55409836 161.297894,7.55409836 C161.284634,7.55409836 161.258113,7.55409836 161.218332,7.55409836 C161.165291,7.63994039 161.138771,7.63994039 161.12551,7.63994039 Z" id="Path" fill="#FFFFFF" fill-rule="nonzero"></path>
                <path d="M172.046635,4.61930783 C172.033142,4.61930783 172.033142,4.63318588 172.033142,4.63318588 C172.033142,4.63318588 172.019648,4.64706393 172.019648,4.66094197 C172.006155,4.70257611 172.006155,4.74421025 172.006155,4.74421025 C172.019648,4.79972244 172.006155,4.86911267 172.006155,4.92462486 C172.019648,5.14667361 172.006155,5.3826004 172.006155,5.60464915 C172.006155,6.85367335 172.006155,8.0888195 172.006155,9.3378437 L172.006155,10.309307 L172.006155,11.2807702 L172.006155,11.8497701 C172.006155,11.8497701 172.006155,11.8914043 172.033142,11.9191604 C172.060129,11.9469165 172.087116,11.9330384 172.10061,11.9330384 C172.276025,11.9330384 172.451441,11.9330384 172.64035,11.9330384 C172.64035,12.0163067 172.64035,12.099575 172.64035,12.1967213 L170.764751,12.1967213 L170.764751,11.9330384 L170.91318,11.9330384 L171.250518,11.9330384 C171.250518,11.9330384 171.290998,11.9330384 171.317985,11.8914043 C171.344972,11.8636482 171.331479,11.8220141 171.331479,11.8220141 C171.331479,9.90684361 171.358466,7.90840489 171.358466,5.99323445 L168.970113,12.1967213 C168.106528,10.1011363 167.296917,8.00555122 166.433331,5.90996617 C166.433331,7.83901466 166.392851,9.78194119 166.392851,11.7109897 C166.392851,11.7665019 166.392851,11.808136 166.392851,11.8358921 C166.392851,11.8636482 166.406344,11.8914043 166.419838,11.8914043 C166.433331,11.8914043 166.433331,11.8914043 166.446825,11.8914043 C166.446825,11.8914043 166.703202,11.8914043 166.716695,11.8914043 C166.81115,11.8914043 166.919098,11.8914043 167.013553,11.8914043 L167.013553,12.1967213 L166.500799,12.1967213 C166.0825,12.1967213 165.664201,12.1967213 165.245902,12.1967213 C165.245902,12.099575 165.245902,11.9885506 165.245902,11.8914043 C165.340356,11.8914043 165.461798,11.8914043 165.569746,11.8914043 C165.637214,11.8914043 165.880097,11.8914043 165.934071,11.8914043 C165.988045,11.8914043 166.001539,11.1142337 166.015032,10.0733802 C166.028526,8.81047793 166.001539,7.17286842 166.015032,6.04874664 C166.015032,6.04874664 166.042019,5.95160031 166.042019,4.74421025 C166.042019,4.73033221 166.042019,4.68869807 166.015032,4.66094197 C165.974552,4.61930783 165.907084,4.61930783 165.880097,4.61930783 C165.772149,4.61930783 165.596733,4.61930783 165.367343,4.61930783 C165.367343,4.53603955 165.367343,4.41113713 165.367343,4.32786885 L166.622241,4.32786885 L169.105048,10.8366727 L171.506895,4.39725909 L172.721311,4.39725909 L172.721311,4.60542979" id="Path" fill="#FFFFFF" fill-rule="nonzero"></path>
                <path d="M162.491803,12.1825913 L162.130478,12.1825913 L160.952827,12.1967213 C160.91268,12.1967213 160.57812,12.1967213 160.52459,12.1967213 L160.52459,11.984771 L161.086651,11.984771 L161.140181,11.970641 C161.207093,11.9282509 161.19371,11.8717308 161.19371,11.8717308 L161.19371,11.5608703 C161.19371,10.6282888 161.19371,9.70983737 161.19371,8.7772559 C161.19371,8.69247576 161.19371,8.62182565 161.19371,8.53704552 C161.19371,8.52291549 161.19371,8.49465545 161.19371,8.45226538 C161.19371,8.42400534 161.19371,8.40987532 161.19371,8.39574529 C161.19371,8.3392252 161.19371,8.31096516 161.207093,8.29683514 C161.220475,8.28270511 161.24724,8.26857509 161.314152,8.26857509 C161.434594,8.26857509 161.488123,8.25444507 161.541653,8.26857509 C161.555035,8.26857509 161.5818,8.26857509 161.63533,8.26857509 C161.675477,8.26857509 161.715624,8.26857509 161.729006,8.26857509 C161.729006,8.26857509 161.742389,8.26857509 161.755771,8.28270511 C161.769154,8.29683514 161.769154,8.31096516 161.769154,8.31096516 C161.769154,8.3392252 161.769154,8.38161527 161.769154,8.40987532 L161.769154,8.56530556 L161.769154,10.4163385 C161.769154,11.1793597 161.769154,11.7304306 161.769154,11.7869507 C161.769154,11.8010807 161.769154,11.9423809 161.782536,11.9565109 C161.795918,11.970641 161.889595,11.970641 161.902978,11.970641 L162.465038,11.970641 L162.465038,12.1825913 L162.491803,12.1825913 Z" id="Path" fill="#FFFFFF" fill-rule="nonzero"></path>
                <path d="M113.295909,15.3479758 C114.739818,15.3479758 116.323345,15.3395705 117.906497,15.3606772 C118.07082,15.3629186 118.232523,15.5411111 118.395536,15.6376787 C118.248431,15.7857989 118.116299,15.9550257 117.948046,16.0734471 C117.858398,16.1365803 117.705679,16.1066948 117.583092,16.1278014 C115.842354,16.4272171 115.406093,16.8726983 115.438658,18.6753562 C115.530177,23.7431953 115.665678,28.8101004 115.808666,33.8768187 C115.843851,35.1256604 116.329334,35.5713284 117.595631,35.6882555 C117.719716,35.6996494 117.873745,35.6589304 117.963018,35.7183279 C118.136325,35.8341343 118.273885,36.0039215 118.42623,36.1512945 C118.25311,36.2777477 118.081488,36.5117887 117.907246,36.5136566 C115.635733,36.5390593 113.363847,36.5416743 111.092708,36.5138434 C110.89058,36.5114152 110.692007,36.2562674 110.49175,36.1186072 C110.68527,35.9798263 110.865875,35.7454116 111.074554,35.7168336 C112.91149,35.4661687 113.067391,35.3135657 113.068889,33.5066117 C113.072445,28.9981925 113.070012,24.4893996 113.070012,19.9809804 C112.957344,19.9432499 112.84505,19.9053326 112.732569,19.8676022 C109.938892,25.5126055 107.145027,31.1576089 104.261701,36.9836066 C101.536897,31.113341 98.9103492,25.4548891 96.2838017,19.7962505 C96.2328953,19.8039086 96.182176,19.8117536 96.1312696,19.8194117 C96.0133613,21.6652169 95.8600805,23.5095278 95.7859668,25.357014 C95.6850897,27.8735626 95.6431667,30.3923525 95.5810309,32.9103954 C95.5726089,33.2520243 95.5647484,33.5981362 95.6077942,33.9356559 C95.7861539,35.3301895 96.0996402,35.6118606 97.5177213,35.7009569 C97.6419929,35.7088018 97.795648,35.665281 97.8854829,35.7231843 C98.0666499,35.839551 98.2131931,36.0093382 98.3741472,36.156898 C98.1956004,36.2796155 98.0185508,36.5065588 97.8386939,36.5088002 C95.8166603,36.5334557 93.7940653,36.533269 91.7722189,36.5048777 C91.6058372,36.5024495 91.4431987,36.2448736 91.2786885,36.1057191 C91.4149381,35.9727284 91.530039,35.7620354 91.6908061,35.7181411 C93.7998672,35.1419107 93.9295663,35.0780303 94.0738636,32.9399073 C94.3922159,28.2250911 94.6673353,23.5070996 94.9024032,18.787427 C95.0023445,16.7815474 94.803772,16.6214731 92.8620284,16.1179018 C92.6307036,16.0577572 92.4512209,15.7998077 92.247408,15.6337562 C92.4781714,15.5383093 92.7076247,15.3638525 92.9398853,15.35993 C94.4339517,15.3350877 95.9285796,15.3472287 97.3288809,15.3472287 C98.9824043,21.4401415 102.641491,26.5406678 105.111202,32.2908309 C107.898517,26.6798223 111.047417,21.3056566 113.295909,15.3479758" id="Fill-4" fill="#D70D0D"></path>
                <path d="M136.450274,23.2131148 C136.498844,23.9301423 136.541039,24.5532426 136.592234,25.30614 C137.383985,24.9210012 138.015211,24.516818 138.706446,24.3017837 C139.646908,24.0092779 140.639879,23.6620428 141.599094,23.6914413 C143.807259,23.7591133 145.04158,25.1879913 145.071585,27.4614753 C145.10159,29.7399515 145.120531,32.0187974 145.107216,34.2974585 C145.10159,35.2494891 145.526908,35.7095109 146.476184,35.8089851 C146.712847,35.8337612 146.92438,36.0911367 147.147541,36.2418272 C146.902064,36.3529498 146.658088,36.5567054 146.410924,36.5604034 C144.788978,36.584255 143.165907,36.5781534 141.543961,36.5454268 C141.302797,36.5408044 141.065759,36.3455539 140.826846,36.2386839 C141.042318,36.0855898 141.240537,35.8385685 141.47645,35.7964122 C142.328023,35.6436879 142.716397,35.1699837 142.715085,34.333883 C142.711897,32.2086858 142.767968,30.0821944 142.703083,27.9592159 C142.645699,26.0923187 141.447945,25.1151422 139.476069,25.1731996 C137.530634,25.2305175 136.514784,26.2284024 136.512159,28.0925261 C136.509533,30.0945824 136.504845,32.0966387 136.514409,34.098695 C136.520223,35.3123538 136.685437,35.4798698 137.882252,35.80917 C138.074283,35.8620503 138.205366,36.1301498 138.364579,36.2987752 C138.172736,36.3928874 137.982018,36.5659502 137.788675,36.5687237 C136.105032,36.5934998 134.421013,36.5977524 132.73737,36.5764893 C132.555841,36.5742706 132.376938,36.3714394 132.196721,36.2616111 C132.339056,36.1079623 132.4557,35.8611258 132.627477,35.8152716 C133.984631,35.4530599 134.100525,35.3376846 134.106901,33.9343223 C134.11684,31.7475546 134.087398,29.5602323 134.12134,27.3738345 C134.13353,26.5830333 134.017074,25.9223991 133.27408,25.4686638 C132.777501,25.165434 132.815945,24.8721886 133.370658,24.6277558 C134.361941,24.1914007 135.339722,23.7254622 136.450274,23.2131148" id="Fill-6" fill="#D70D0D"></path>
                <path d="M7.61020608,25.9652066 L5.08221002,25.9652066 C5.08221002,25.6103615 5.08350245,25.287909 5.08184075,24.9654564 C5.07020887,22.7285335 5.09051851,20.4906905 5.03420542,18.254872 C4.99746344,16.7856145 4.6226583,16.4727324 3.16811893,16.2837149 C2.86809019,16.2448807 2.5968642,15.9851885 2.31234463,15.8274592 C2.60258782,15.6842696 2.89209249,15.4192401 3.18362811,15.4168475 C6.03620912,15.392369 8.90171444,15.2443942 11.7386016,15.4584424 C15.7942518,15.7643306 18.1570012,19.2722909 17.0307395,22.9981643 C16.3776923,25.1579709 14.5863822,26.1026907 12.6735835,26.7396818 C9.79681559,27.6982052 6.81166803,27.6926838 3.83076704,27.2653237 C2.54165891,27.0805392 1.2632595,26.8228716 0,26.7347125 C1.80681927,26.7347125 3.61566951,26.7879024 5.42008855,26.7192524 C7.13016009,26.6542834 8.86903439,26.6264921 10.5351633,26.2876592 C13.247977,25.7360665 14.7147022,23.4971192 14.3993489,20.782407 C14.0479921,17.7572054 12.4595938,16.272672 9.46964578,16.1753104 C9.43881206,16.1742061 9.40816297,16.1749423 9.37732924,16.1743902 C7.66227261,16.1383167 7.61020608,16.1881938 7.61020608,17.8709472 C7.61020608,20.5355983 7.61020608,23.2002493 7.61020608,25.9652066" id="Fill-8" fill="#D70D0D"></path>
                <path d="M39.0621112,25.0071925 C39.2819259,24.8141492 39.472026,24.5268247 39.7269077,24.4443052 C40.7486492,24.1134805 40.9738162,23.4193462 41.0173731,22.3900932 C41.1067017,20.2697909 41.4869017,18.1920552 42.7518975,16.3966033 C44.2154832,14.3196144 46.571247,13.3319946 48.8629675,13.9553713 C49.4472944,14.1144359 50.0288529,14.5051899 50.464791,14.9401907 C50.9034976,15.3781787 50.8257965,16.0052893 50.3498082,16.4395433 C49.8514877,16.8939605 49.2804493,16.8635291 48.7610887,16.4401034 C48.4997473,16.2270837 48.2969124,15.9414394 48.0379703,15.7246858 C46.4966835,14.4349923 44.6298274,14.9189074 44.0034201,16.860542 C43.6549649,17.9409496 43.4925494,19.0979024 43.3709222,20.234132 C43.2653521,21.2182047 43.3616941,22.2228139 43.3185063,23.2160346 C43.291191,23.8431453 43.5506867,24.0281606 44.1329834,24.0122915 C45.2344562,23.9824202 46.3374056,24.0037035 47.4189455,24.0037035 C47.7135083,25.1190232 47.5961261,25.287236 46.5664484,25.2952639 C45.7058305,25.3019849 44.8411522,25.2495235 43.9868094,25.3251352 C43.7514914,25.3458584 43.3605867,25.728211 43.3574491,25.949072 C43.3173989,28.7782576 43.3325331,31.6080032 43.339362,34.4377489 C43.3415767,35.2551024 43.7450317,35.7087728 44.5648612,35.757687 C44.7488706,35.7687021 44.9579807,35.725202 45.1113526,35.7998802 C45.3357814,35.9089105 45.5203445,36.1019538 45.7217029,36.2591515 C45.5089016,36.3749028 45.2953621,36.5907229 45.0829299,36.5901639 C43.6708373,36.5854955 42.2592985,36.5242593 40.8472059,36.5044696 C40.3885665,36.4981219 39.9271587,36.5972573 39.470734,36.5739203 C39.2922615,36.5647722 39.1237553,36.3523126 38.9508197,36.232454 C39.0746615,36.0870181 39.1722954,35.8596228 39.3265902,35.8088416 C40.923615,35.2832934 40.9974403,35.1791173 40.9856283,33.5201399 C40.9692021,31.1881248 40.9662491,28.855923 40.9655109,26.5239078 C40.9653263,25.3247618 40.973078,25.3262554 39.7604982,25.2943304 C39.5790726,25.2894763 39.3983853,25.2616587 39.2171443,25.2444827 C39.1654666,25.1655104 39.1137889,25.0863515 39.0621112,25.0071925" id="Fill-10" fill="#D70D0D"></path>
                <path d="M121.096606,29.9264998 C121.157873,31.5428453 121.483593,33.3702683 122.941197,34.767197 C124.244261,36.0158712 126.427923,35.9006033 127.51061,34.554637 C129.409518,32.1942389 129.145796,27.2644036 127.005844,25.1184186 C125.623589,23.7324236 123.457119,23.879381 122.284086,25.4408723 C121.354475,26.6786127 121.115077,28.117238 121.096606,29.9264998 M131.409562,29.7332129 C131.440835,33.7653667 128.794106,36.532909 124.852907,36.5894311 C121.194633,36.6418761 118.44695,33.8737779 118.426347,30.115895 C118.405252,26.2095723 121.219871,23.2713519 125.037622,23.2139032 C128.667731,23.1594197 131.380117,25.9343747 131.409562,29.7332129" id="Fill-12" fill="#D70D0D"></path>
                <path d="M166.805145,33.6408942 C167.701798,31.591963 168.501506,29.7846202 169.282311,27.9690691 C169.552,27.3424315 169.777333,26.6967654 170.017826,26.0578153 C170.27329,25.379129 170.051888,24.9817673 169.316373,24.887184 C169.070079,24.8552831 168.798332,24.8562159 168.590217,24.7452158 C168.445173,24.6681687 168.34411,24.4327365 168.316598,24.2538305 C168.306866,24.1911481 168.575058,24.0131748 168.717669,24.0116824 C170.306042,23.995079 171.89479,23.9958252 173.483164,24.0161597 C173.623903,24.0180252 173.76221,24.1904019 173.901639,24.2836793 C173.784668,24.4411315 173.684915,24.7179788 173.548106,24.7375671 C172.209208,24.9287857 171.626225,25.9389799 171.124465,26.979769 C168.602943,32.20834 166.110618,37.4505295 163.608934,42.6886148 C162.914968,44.14169 162.297548,44.5700198 161.186042,44.4357003 C160.448656,44.3465271 160.02625,43.9551352 160.006225,43.2374589 C159.985451,42.4960902 160.387644,41.8306493 161.132142,41.9082561 C162.676908,42.0692529 163.190458,41.0437612 163.752106,39.987488 C163.781115,39.9326409 163.811809,39.8783535 163.845683,39.8263047 C165.196559,37.7439802 165.419459,35.6551262 164.321428,33.3198334 C163.334379,31.2210921 162.653514,28.9772111 161.875329,26.7842596 C161.509256,25.7522385 161.000947,24.9410983 159.797174,24.7802881 C159.629297,24.7579015 159.49436,24.4909416 159.344262,24.3370339 C159.523743,24.2306977 159.701913,24.0346286 159.883078,24.0318303 C161.565215,24.0058992 163.248102,24.0036605 164.930426,24.0243681 C165.118141,24.0266068 165.303798,24.2135347 165.49039,24.3148339 C165.34179,24.4717265 165.22145,24.7086511 165.039724,24.7726394 C163.792719,25.2132818 163.76502,25.2095507 164.196035,26.4887568 C164.859495,28.4589619 165.554958,30.4183468 166.247427,32.3786645 C166.367205,32.7183808 166.537515,33.0403744 166.805145,33.6408942" id="Fill-14" fill="#D70D0D"></path>
                <path d="M150.007241,27.0163211 C151.74227,27.0163211 153.296949,27.0590434 154.846202,26.9879015 C155.260409,26.9689551 155.991164,26.6119456 155.997525,26.3936905 C156.012305,25.8722931 155.826342,25.193752 155.462648,24.8432437 C154.603365,24.0144317 153.481602,23.9977143 152.408293,24.4201075 C151.24799,24.8766785 150.353348,25.6293334 150.007241,27.0163211 M154.024898,28.0067347 C152.872639,28.0076634 151.718323,27.9682847 150.569806,28.0342255 C150.268412,28.0515002 149.747005,28.3774897 149.73129,28.5909153 C149.532605,31.3054509 150.996361,34.6461465 154.760143,34.8508419 C155.822974,34.9086098 156.693482,34.5356258 157.467267,33.8308942 C157.702433,33.6167256 158.050225,33.5247798 158.346568,33.3767379 C158.250032,33.7196305 158.246477,34.1353368 158.041806,34.3942708 C156.495172,36.3509507 154.417215,36.9104266 152.044225,36.425436 C149.648972,35.9359874 148.310751,34.3498768 147.758475,32.0473324 C146.85504,28.2790427 148.844131,24.5142822 152.27883,23.4820751 C154.652195,22.768799 156.901521,23.5010215 158.016363,25.3603689 C158.157986,25.5966416 158.272295,25.8559472 158.357045,26.118039 C158.824758,27.5633519 158.51139,27.999862 157.014334,28.005063 C156.017917,28.0085922 155.021314,28.0058059 154.024898,28.0067347" id="Fill-16" fill="#D70D0D"></path>
                <path d="M19.5161937,27.0289432 C21.067667,27.0289432 22.619515,27.0696174 24.1666808,27.0021985 C24.585264,26.9839972 25.2272788,26.7330797 25.3514491,26.4245868 C25.6187056,25.7604263 25.3905918,24.9848294 24.6850872,24.6904518 C23.9994348,24.4046176 23.1942943,24.2203762 22.4599477,24.2684796 C20.9757098,24.3654292 19.5759377,25.7557831 19.5161937,27.0289432 M23.3851383,28.0138546 C22.2318339,28.0147833 21.076844,27.9807952 19.9265363,28.039485 C19.6497282,28.053786 19.1955608,28.3375772 19.1502377,28.5624928 C18.5481147,31.5508437 20.9624126,34.6348441 24.0204108,34.8519593 C25.1439367,34.931822 26.0908524,34.5778259 26.901986,33.7961 C27.1119331,33.5936574 27.4424921,33.5147233 27.7178018,33.3791424 C27.6419512,33.7030507 27.6593687,34.0958638 27.4758289,34.3400951 C25.9934639,36.3134467 23.9426873,36.8691426 21.5965614,36.4679718 C19.357001,36.0850023 17.9484264,34.7204644 17.2762587,32.5868301 C16.1222052,28.9244752 17.847105,24.9120244 21.1491362,23.6695093 C23.0390346,22.9583598 24.8918504,23.0046059 26.518238,24.3358986 C26.9802714,24.7142249 27.3760057,25.2528338 27.6198515,25.7981289 C28.3161791,27.356566 27.8636973,28.0110687 26.1904883,28.0127403 C25.2553716,28.0136689 24.3202549,28.012926 23.3851383,28.0138546" id="Fill-18" fill="#D70D0D"></path>
                <path d="M50.0193559,27.0131469 C51.7516559,27.0131469 53.3127348,27.0555483 54.8685568,26.9850653 C55.2874103,26.9660963 56.0417597,26.5917369 56.0346757,26.4029764 C56.0134106,25.8409724 55.8440668,25.1238686 55.4533747,24.7688502 C54.6062806,23.9989307 53.4946573,23.9901901 52.4526864,24.4041613 C51.294503,24.8646252 50.3696834,25.5967926 50.0193559,27.0131469 M54.0849197,28.0006523 C53.0228604,28.0008383 51.9606133,27.9969329 50.898554,28.0017681 C49.7525738,28.0069753 49.7005692,28.0657421 49.7388686,29.2308498 C49.8366825,32.2032225 51.5207327,34.3125043 54.1521315,34.7759438 C55.5106362,35.0152883 56.6798964,34.7115978 57.6569084,33.7051234 C57.8307579,33.5260334 58.1489814,33.48419 58.4007441,33.3789304 C58.3536208,33.6478443 58.3829086,33.9641808 58.2475463,34.1782333 C57.0668337,36.0429634 54.6261813,36.9445503 52.1571797,36.4613979 C49.8280463,36.0057692 48.098938,34.269545 47.7388478,31.8645695 C47.3400828,29.2018383 47.7842815,26.737538 49.8779858,24.8043707 C52.0024799,22.8427497 55.420332,22.668681 57.3045157,24.4274077 C57.6824413,24.7800085 58.0303282,25.2136926 58.2486727,25.6763882 C59.0326854,27.3361783 58.6008776,27.9993505 56.8028678,28.0004664 C55.8968225,28.0010243 54.9909649,28.0006523 54.0849197,28.0006523" id="Fill-20" fill="#D70D0D"></path>
                <path d="M59.4098361,30.4306596 C59.4138024,26.500328 62.0410594,23.5688363 65.7932583,23.2478208 C66.9589973,23.1483116 68.1657223,23.2764929 69.3286282,23.4584579 C70.3151245,23.6130626 70.6934419,24.2965088 70.475102,25.2355682 C70.411451,25.5099212 70.2123763,25.8734764 69.9866702,25.9551826 C69.7834402,26.0288306 69.3919015,25.8393697 69.1990597,25.6500961 C68.1058488,24.5774208 66.8766477,23.9732446 65.2916052,24.2920113 C64.1827177,24.5150168 63.2936811,25.0852737 62.6719033,25.9877901 C60.3428806,29.3666047 62.334194,34.3139538 66.1804529,34.7863882 C67.7154434,34.9749122 69.0449374,34.6387173 70.0905516,33.4277412 C70.2586508,33.2332204 70.5693508,33.1597598 70.8143222,33.030454 C70.794868,33.3269202 70.8724958,33.67717 70.7408497,33.9116069 C69.6130746,35.9184691 67.0881881,36.9212443 64.348928,36.4922866 C61.9439774,36.1158009 60.0590009,34.2998988 59.6019224,31.8949999 C59.4972854,31.3446073 59.4547884,30.782596 59.4098361,30.4306596" id="Fill-22" fill="#D70D0D"></path>
                <path d="M29.2648691,24.6244732 C30.4870129,24.0101777 31.5895341,23.4559474 32.855177,22.8196721 C32.8896138,23.6259113 32.9195194,24.3285048 32.9561312,25.1866616 C33.5884995,24.7262242 34.0967141,24.2199325 34.7013517,23.9523861 C35.3603633,23.6609652 36.1239539,23.4085773 36.8146835,23.4707269 C37.66201,23.546898 37.9739348,24.4319611 37.6375417,25.2857599 C37.3625911,25.9834268 36.6057066,26.2663211 35.8937711,25.9305618 C35.729562,25.8528748 35.57949,25.7429762 35.4178183,25.6588468 C34.1213636,24.9852439 33.0596228,25.507452 32.9936491,27.0303062 C32.8849014,29.5485011 32.9400002,32.0750331 32.9418127,34.597965 C32.9423564,35.2831262 33.3648416,35.6103589 33.9644043,35.7132467 C34.2310176,35.7589115 34.5213742,35.7035832 34.7711316,35.7890389 C34.9759399,35.8591467 35.1367053,36.0700384 35.3170454,36.2184016 C35.1212994,36.3483851 34.9250097,36.5909201 34.7294449,36.5901639 C33.3434545,36.5859936 31.9576453,36.5215702 30.5714737,36.4995905 C30.1212579,36.4925797 29.6677796,36.5948992 29.2204638,36.5662876 C29.0473736,36.5551083 28.8873331,36.3201526 28.7213115,36.1869478 C28.8518088,36.0491955 28.9596504,35.836788 29.1160659,35.7854388 C30.5602364,35.3107903 30.5890545,35.2844525 30.5903233,33.6916801 C30.592317,31.5776469 30.5669425,29.4634243 30.6017418,27.3501491 C30.617329,26.4126 30.540843,25.5838126 29.6179369,25.1173118 C29.5041142,25.0597097 29.4452092,24.8834929 29.2648691,24.6244732" id="Fill-24" fill="#D70D0D"></path>
                <path d="M80.1561487,35.1636203 C80.0225466,35.4136921 79.9420091,35.7209934 79.7463103,35.9043919 C78.6046712,36.9753188 76.2688931,37.3230395 74.8848886,36.6105993 C73.8510721,36.0783467 73.4929809,35.118479 73.4856422,34.0160098 C73.4702121,31.6875467 73.4796207,29.3590835 73.4790562,27.0304315 C73.4786798,25.323937 73.4790562,25.323937 71.6065574,25.0578107 C71.9044335,24.7478652 72.0559119,24.454352 72.279272,24.3805014 C73.4807497,23.9838619 74.3072008,23.1798168 74.9499961,22.1236223 C75.0755068,21.9175586 75.3430873,21.7985667 75.5451839,21.6393443 C75.6595924,21.8928158 75.8756138,22.1476095 75.8724149,22.3995701 C75.8513396,24.0121933 75.8966891,23.8714807 77.3806128,23.8760137 C78.1018758,23.8782802 78.8229506,23.8865907 79.5438373,23.8737472 C79.9743746,23.8660033 80.274697,23.9415537 80.2619013,24.4821167 C80.2492938,25.0036033 80.0328961,25.2045674 79.5137298,25.1904017 C78.5739992,25.1647145 77.6306933,25.223455 76.693409,25.1686809 C76.0826029,25.1329834 75.7815278,25.3732336 75.7879257,25.9430725 C75.8161515,28.4575785 75.7632752,30.9798284 75.949189,33.4835684 C76.0905061,35.3863051 77.6521449,36.0966677 79.379375,35.2467258 C79.5649125,35.1553098 79.7630576,35.0892032 79.9553693,35.0113863 C80.0223585,35.0621939 80.0891595,35.1128127 80.1561487,35.1636203" id="Fill-26" fill="#D70D0D"></path>
                <path d="M5.05237032,28.7213115 C5.9936914,28.7897816 6.75861912,28.845483 7.62018294,28.9080314 C7.62018294,30.3209223 7.61461848,31.7306673 7.6216668,33.1404122 C7.63149734,35.1275271 8.00858222,35.5235437 10.0049248,35.7807694 C10.2267613,35.8094529 10.4178077,36.0768566 10.6229508,36.2334126 C10.3834936,36.3522176 10.1451492,36.5720623 9.9043936,36.574468 C7.6237071,36.5977849 5.34264963,36.5955642 3.06214861,36.5648452 C2.82658649,36.5616993 2.59436304,36.3259399 2.36065574,36.1982523 C2.55170218,36.0533546 2.72586977,35.8162999 2.93639182,35.7779936 C4.68882563,35.4596999 4.97799205,35.1673138 5.04253978,33.2497794 C5.09206347,31.7784113 5.05237032,30.3040824 5.05237032,28.7213115" id="Fill-28" fill="#D70D0D"></path>
                <path d="M95.3264262,45.7517377 C97.0654426,45.7517377 97.7610492,44.7287869 97.7610492,43.0511475 L97.7610492,38.1307541 L96.7074098,38.1307541 L96.7074098,42.6931148 C96.7074098,44.1661639 96.5335082,44.7799344 95.2650492,44.7799344 C94.2727869,44.7799344 93.853377,44.2991475 93.853377,43.2148197 L93.853377,43.0511475 L92.7997377,43.0511475 L92.7997377,43.3682623 C92.7997377,44.9538361 93.6385574,45.7517377 95.3264262,45.7517377 Z M101.433443,45.7108197 C102.364328,45.7108197 103.090623,45.3630164 103.694164,44.6264918 L103.694164,45.557377 L104.686426,45.557377 L104.686426,40.0539016 L103.694164,40.0539016 L103.694164,42.8567869 C103.694164,44.0843279 102.824656,44.872 101.658492,44.872 C100.66623,44.872 100.338885,44.3707541 100.338885,43.2557377 L100.338885,40.0539016 L99.346623,40.0539016 L99.346623,43.5421639 C99.346623,45.0868197 100.103607,45.7108197 101.433443,45.7108197 Z M108.502033,45.7108197 C110.302426,45.7108197 111.212852,45.1072787 111.212852,43.9922623 C111.212852,43 110.711607,42.6317377 109.484066,42.4271475 L108.297443,42.2327869 C107.458623,42.0895738 107.049443,41.9872787 107.049443,41.4553443 C107.049443,40.9847869 107.550689,40.7188197 108.481574,40.7188197 C109.473836,40.7188197 110.00577,41.0257049 110.077377,41.711082 L111.038951,41.711082 C111.038951,40.524459 110.179672,39.88 108.532721,39.88 C106.896,39.88 106.05718,40.4937705 106.05718,41.6292459 C106.05718,42.6419672 106.701639,42.9283934 107.990557,43.1432131 L109.218098,43.3580328 C109.913705,43.4705574 110.22059,43.6137705 110.22059,44.0434098 C110.22059,44.5446557 109.627279,44.872 108.502033,44.872 C107.550689,44.872 106.977836,44.4730492 106.88577,43.7672131 L105.801443,43.7672131 C105.924197,45.1175082 106.793705,45.7108197 108.502033,45.7108197 Z M114.210098,45.7108197 C114.486295,45.7108197 114.79318,45.6699016 115.130754,45.6187541 L115.130754,44.7083279 C114.864787,44.7697049 114.649967,44.7901639 114.455607,44.7901639 C113.96459,44.7901639 113.780459,44.6162623 113.780459,44.1559344 L113.780459,40.8927213 L115.130754,40.8927213 L115.130754,40.0539016 L113.780459,40.0539016 L113.780459,38.652459 L112.788197,38.652459 L112.788197,40.0539016 L111.826623,40.0539016 L111.826623,40.8927213 L112.788197,40.8927213 L112.788197,44.4423607 C112.788197,45.3016393 113.238295,45.7108197 114.210098,45.7108197 Z M120.460328,47.5112131 L120.460328,44.7492459 C121.022951,45.3937049 121.698098,45.7108197 122.577836,45.7108197 C124.327082,45.7108197 125.534164,44.5241967 125.534164,42.8158689 C125.534164,41.0973115 124.327082,39.88 122.588066,39.88 C121.65718,39.88 120.920656,40.2687213 120.460328,40.8824918 L120.460328,40.0539016 L119.468066,40.0539016 L119.468066,47.5112131 L120.460328,47.5112131 Z M122.475541,44.7901639 C121.227541,44.7901639 120.460328,44.0331803 120.460328,42.8158689 C120.460328,41.5883279 121.227541,40.8006557 122.475541,40.8006557 C123.723541,40.8006557 124.480525,41.5780984 124.480525,42.8158689 C124.480525,44.0434098 123.723541,44.7901639 122.475541,44.7901639 Z M129.308852,45.7108197 C130.771672,45.7108197 131.825311,45.0356721 132.214033,43.8490492 L131.058098,43.8490492 C130.833049,44.4525902 130.178361,44.7901639 129.308852,44.7901639 C128.132459,44.7901639 127.344787,44.0843279 127.344787,43.0102295 L132.306098,43.0102295 L132.306098,42.8158689 C132.306098,40.9847869 131.191082,39.88 129.308852,39.88 C127.467541,39.88 126.291148,41.0359344 126.291148,42.8158689 C126.291148,44.5855738 127.457311,45.7108197 129.308852,45.7108197 Z M131.24223,42.3043934 L127.365246,42.3043934 C127.528918,41.3632787 128.255213,40.8006557 129.308852,40.8006557 C130.372721,40.8006557 131.088787,41.3735082 131.24223,42.3043934 Z M134.413377,45.557377 L134.413377,42.8670164 C134.413377,41.7008525 135.221508,40.9029508 136.162623,40.9029508 C136.377443,40.9029508 136.602492,40.9336393 136.878689,41.0154754 L136.878689,39.9720656 C136.745705,39.900459 136.612721,39.88 136.43882,39.88 C135.620459,39.88 134.914623,40.2584918 134.413377,40.9847869 L134.413377,40.0539016 L133.421115,40.0539016 L133.421115,45.557377 L134.413377,45.557377 Z M139.078033,45.557377 L139.078033,40.8927213 L140.428328,40.8927213 L140.428328,40.0539016 L139.078033,40.0539016 L139.078033,39.6856393 C139.078033,39.2048525 139.251934,39.0514098 139.76341,39.0514098 C139.95777,39.0514098 140.17259,39.0616393 140.428328,39.1127869 L140.428328,38.2125902 C140.131672,38.1512131 139.835016,38.1307541 139.507672,38.1307541 C138.51541,38.1307541 138.08577,38.5399344 138.08577,39.4810492 L138.08577,40.0539016 L137.113967,40.0539016 L137.113967,40.8927213 L138.08577,40.8927213 L138.08577,45.557377 L139.078033,45.557377 Z M144.008656,45.7108197 C145.471475,45.7108197 146.525115,45.0356721 146.913836,43.8490492 L145.757902,43.8490492 C145.532852,44.4525902 144.878164,44.7901639 144.008656,44.7901639 C142.832262,44.7901639 142.04459,44.0843279 142.04459,43.0102295 L147.005902,43.0102295 L147.005902,42.8158689 C147.005902,40.9847869 145.890885,39.88 144.008656,39.88 C142.167344,39.88 140.990951,41.0359344 140.990951,42.8158689 C140.990951,44.5855738 142.157115,45.7108197 144.008656,45.7108197 Z M145.942033,42.3043934 L142.065049,42.3043934 C142.228721,41.3632787 142.955016,40.8006557 144.008656,40.8006557 C145.072525,40.8006557 145.78859,41.3735082 145.942033,42.3043934 Z M150.729443,45.7108197 C152.23318,45.7108197 153.28682,44.892459 153.522098,43.5012459 L152.478689,43.5012459 C152.345705,44.309377 151.680787,44.7901639 150.770361,44.7901639 C149.614426,44.7901639 148.816525,44.0638689 148.816525,42.8260984 C148.816525,41.5780984 149.583738,40.8006557 150.841967,40.8006557 C151.650098,40.8006557 152.253639,41.2098361 152.448,41.8849836 L153.48118,41.8849836 C153.245902,40.6574426 152.202492,39.88 150.749902,39.88 C148.969967,39.88 147.762885,41.066623 147.762885,42.8158689 C147.762885,44.5651148 148.980197,45.7108197 150.729443,45.7108197 Z M156.519344,45.7108197 C156.795541,45.7108197 157.102426,45.6699016 157.44,45.6187541 L157.44,44.7083279 C157.174033,44.7697049 156.959213,44.7901639 156.764852,44.7901639 C156.273836,44.7901639 156.089705,44.6162623 156.089705,44.1559344 L156.089705,40.8927213 L157.44,40.8927213 L157.44,40.0539016 L156.089705,40.0539016 L156.089705,38.652459 L155.097443,38.652459 L155.097443,40.0539016 L154.135869,40.0539016 L154.135869,40.8927213 L155.097443,40.8927213 L155.097443,44.4423607 C155.097443,45.3016393 155.547541,45.7108197 156.519344,45.7108197 Z" id="Justperfect" fill="#FFFFFF" fill-rule="nonzero"></path>
            </g>
        </g>
    </g>
</svg>