<?xml version="1.0" encoding="UTF-8"?>
<svg width="109px" height="48px" viewBox="0 0 109 48" version="1.1" xmlns="http://www.w3.org/2000/svg" xmlns:xlink="http://www.w3.org/1999/xlink">
    <!-- Generator: Sketch 60.1 (88133) - https://sketch.com -->
    <title>boleto</title>
    <desc>Created with Sketch.</desc>
    <g id="design" stroke="none" stroke-width="1" fill="none" fill-rule="evenodd">
        <g id="icon_all" transform="translate(-272.000000, -352.000000)" fill-rule="nonzero">
            <g id="boleto" transform="translate(272.000000, 352.000000)">
                <path d="M7.89285714,48 L7.89285714,0 L12.7142857,0 L12.714,21.12 L14.642,21.12 L14.6428571,0 L16.5714285,0 L16.571,21.12 L17.535,21.12 L17.5357143,0 L20.4285714,0 L20.428,21.12 L23.321,21.12 L23.3214285,0 L25.25,0 L25.249,21.12 L26.214,21.12 L26.2142857,0 L27.1785714,0 L27.178,21.12 L28.142,21.12 L28.1428571,0 L32.9642857,0 L32.964,21.12 L34.892,21.12 L34.8928571,0 L39.7142857,0 L39.714,21.12 L41.642,21.12 L41.6428571,0 L43.5714285,0 L43.571,21.12 L44.535,21.12 L44.5357143,0 L47.4285714,0 L47.428,21.12 L50.321,21.12 L50.3214285,0 L53.2142857,0 L53.214,21.12 L56.107,21.12 L56.1071428,0 L59,0 L58.999,21.12 L61.892,21.12 L61.8928571,0 L64.7857143,0 L64.785,21.12 L65.749,21.12 L65.75,0 L68.6428571,0 L68.642,21.12 L70.571,21.12 L70.5714285,0 L71.5357143,0 L71.535,21.12 L73.464,21.12 L73.4642857,0 L75.3928571,0 L75.392,21.12 L76.357,21.12 L76.3571428,0 L77.3214285,0 L77.321,21.12 L78.285,21.12 L78.2857143,0 L83.1071428,0 L83.107,21.12 L85.035,21.12 L85.0357143,0 L89.8571428,0 L89.857,21.12 L91.785,21.12 L91.7857143,0 L93.7142857,0 L93.714,21.12 L94.678,21.12 L94.6785714,0 L97.5714285,0 L97.571,21.12 L100.464,21.12 L100.464285,0 L103.357142,0 L103.357,21.12 L105.285714,21.12 L105.285714,0 L108.178571,0 L108.178571,48 L7.89285714,48 Z M5,0 L5,48 L0,48 L0,0 L5,0 Z" id="Shape" fill="#FFFFFF"></path>
                <path d="M9.71428571,47.04 L9.71428571,22.08 L18.7815233,22.08 C20.6510569,22.08 22.1466837,22.3702326 23.2684038,22.8539535 C24.3901239,23.3376744 25.231414,24.1116279 25.8857507,25.175814 C26.5400875,26.24 26.8205175,27.304186 26.8205175,28.4651163 C26.8205175,29.5293023 26.5400875,30.4967442 25.9792274,31.464186 C25.4183673,32.4316279 24.5770773,33.2055814 23.4553571,33.7860465 C24.950984,34.2697674 26.0727041,34.9469767 26.8205175,36.0111628 C27.5683309,37.0753488 28.0357143,38.3330233 28.0357143,39.784186 C28.0357143,40.9451163 27.7552843,42.0093023 27.2879009,43.0734884 C26.8205175,44.0409302 26.2596574,44.8148837 25.511844,45.3953488 C24.7640306,45.975814 23.9227405,46.3627907 22.8944971,46.6530233 C21.8662536,46.9432558 20.5575802,47.04 18.9684767,47.04 L9.71428571,47.04 L9.71428571,47.04 Z M12.9859694,32.5283721 L18.2206633,32.5283721 C19.6228134,32.5283721 20.6510569,32.4316279 21.3053936,32.2381395 C22.1466837,31.947907 22.7075437,31.5609302 23.1749271,30.9804651 C23.5488338,30.4 23.8292638,29.6260465 23.8292638,28.7553488 C23.8292638,27.8846512 23.6423105,27.2074419 23.2684038,26.5302326 C22.8944971,25.8530233 22.333637,25.4660465 21.5858236,25.2725581 C20.8380102,25.0790698 19.6228134,24.8855814 17.9402332,24.8855814 L13.0794461,24.8855814 L13.0794461,32.5283721 L12.9859694,32.5283721 Z M12.9859694,44.0409302 L18.9684767,44.0409302 C19.9967201,44.0409302 20.7445335,44.0409302 21.1184402,43.944186 C21.8662536,43.8474419 22.4271137,43.5572093 22.9879738,43.2669767 C23.4553571,42.9767442 23.9227405,42.4930233 24.2031706,41.9125581 C24.4836006,41.332093 24.6705539,40.5581395 24.6705539,39.784186 C24.6705539,38.8167442 24.4836006,38.0427907 24.0162172,37.3655814 C23.5488338,36.6883721 22.8944971,36.2046512 22.053207,35.9144186 C21.2119169,35.624186 20.0901968,35.5274419 18.5010933,35.5274419 L12.8924927,35.5274419 L12.8924927,44.0409302 L12.9859694,44.0409302 Z" id="Shape" fill="#000000"></path>
                <path d="M30.9285714,37.9667692 C30.9285714,34.6929231 31.8653061,32.3544615 33.645102,30.7643077 C35.1438776,29.4547692 37.0173469,28.8 39.1718367,28.8 C41.6073469,28.8 43.5744898,29.5483077 45.0732653,31.1384615 C46.5720408,32.7286154 47.3214286,34.88 47.3214286,37.6861538 C47.3214286,39.9310769 46.9467347,41.7083077 46.2910204,43.0178462 C45.6353061,44.3273846 44.604898,45.2627692 43.2934694,46.0110769 C41.9820408,46.7593846 40.5769388,47.04 39.0781633,47.04 C36.6426531,47.04 34.6755102,46.2916923 33.0830612,44.7015385 C31.6779592,43.2049231 30.9285714,40.96 30.9285714,37.9667692 L30.9285714,37.9667692 Z M33.9261224,37.9667692 C33.9261224,40.2116923 34.3944898,41.8953846 35.424898,43.0178462 C36.4553061,44.1403077 37.6730612,44.7015385 39.1718367,44.7015385 C40.6706122,44.7015385 41.8883673,44.1403077 42.825102,43.0178462 C43.7618367,41.8953846 44.3238776,40.2116923 44.3238776,37.8732308 C44.3238776,35.7218462 43.8555102,34.0381538 42.825102,33.0092308 C41.7946939,31.8867692 40.5769388,31.3255385 39.1718367,31.3255385 C37.6730612,31.3255385 36.4553061,31.8867692 35.424898,33.0092308 C34.3944898,34.0381538 33.9261224,35.7218462 33.9261224,37.9667692 L33.9261224,37.9667692 Z" id="Shape" fill="#000000"></path>
                <polygon id="Path" fill="#000000" points="51.1785714 47.04 51.1785714 22.08 54.0714286 22.08 54.0714286 47.04"></polygon>
                <path d="M71.0809801,41.0535385 L74.2261213,41.4276923 C73.7495847,43.2049231 72.7965116,44.608 71.4622093,45.5433846 C70.127907,46.5723077 68.4123754,47.04 66.4109219,47.04 C63.8376246,47.04 61.7408638,46.2916923 60.2159468,44.7015385 C58.6910299,43.1113846 57.9285714,40.96 57.9285714,38.0603077 C57.9285714,35.1606154 58.6910299,32.8221538 60.2159468,31.232 C61.7408638,29.6418462 63.7423173,28.8 66.2203073,28.8 C68.60299,28.8 70.5091362,29.5483077 72.0340532,31.232 C73.5589701,32.8221538 74.3214286,35.0670769 74.3214286,37.9667692 C74.3214286,38.1538462 74.3214286,38.4344615 74.3214286,38.7150769 L61.0737126,38.7150769 C61.1690199,40.6793846 61.7408638,42.0824615 62.6939369,43.1113846 C63.64701,44.1403077 64.886005,44.608 66.4109219,44.608 C67.5546096,44.608 68.5076827,44.3273846 69.2701412,43.7661538 C70.0325997,43.2049231 70.6044435,42.3630769 71.0809801,41.0535385 L71.0809801,41.0535385 Z M61.1690199,36.2830769 L71.0809801,36.2830769 C70.9856728,34.7864615 70.6044435,33.664 69.9372924,33.0092308 C68.9842193,31.8867692 67.7452243,31.3255385 66.2203073,31.3255385 C64.7906977,31.3255385 63.64701,31.7932308 62.6939369,32.7286154 C61.8361711,33.5704615 61.2643272,34.7864615 61.1690199,36.2830769 L61.1690199,36.2830769 Z" id="Shape" fill="#000000"></path>
                <path d="M84.5470958,44.9656471 L84.9285714,47.7063529 C84.0702512,47.9021176 83.3072998,48 82.6397174,48 C81.5906593,48 80.7323391,47.8042353 80.0647567,47.5105882 C79.4925432,47.1190588 79.0156986,46.7275294 78.8249608,46.1402353 C78.538854,45.5529412 78.4434851,44.3783529 78.4434851,42.4207059 L78.4434851,31.8494118 L76.25,31.8494118 L76.25,29.4023529 L78.4434851,29.4023529 L78.4434851,24.8997647 L81.4952904,23.04 L81.4952904,29.4023529 L84.5470958,29.4023529 L84.5470958,31.8494118 L81.4952904,31.8494118 L81.4952904,42.6164706 C81.4952904,43.4974118 81.5906593,44.0847059 81.6860283,44.3783529 C81.7813972,44.672 81.972135,44.8677647 82.1628728,44.9656471 C82.4489796,45.1614118 82.7350863,45.1614118 83.2119309,45.1614118 C83.5934066,45.1614118 83.9748823,45.0635294 84.5470958,44.9656471 L84.5470958,44.9656471 Z" id="Path" fill="#000000"></path>
                <path d="M86.8571429,37.9667692 C86.8571429,34.6929231 87.7938776,32.3544615 89.5736735,30.7643077 C91.072449,29.4547692 92.9459184,28.8 95.1004082,28.8 C97.5359184,28.8 99.5030612,29.5483077 101.001837,31.1384615 C102.500612,32.7286154 103.25,34.88 103.25,37.6861538 C103.25,39.9310769 102.875306,41.7083077 102.219592,43.0178462 C101.563878,44.3273846 100.533469,45.2627692 99.2220408,46.0110769 C97.9106122,46.7593846 96.5055102,47.04 95.0067347,47.04 C92.5712245,47.04 90.6040816,46.2916923 89.0116327,44.7015385 C87.6065306,43.2049231 86.8571429,40.96 86.8571429,37.9667692 L86.8571429,37.9667692 Z M89.9483673,37.9667692 C89.9483673,40.2116923 90.4167347,41.8953846 91.4471429,43.0178462 C92.477551,44.1403077 93.6953061,44.7015385 95.1940816,44.7015385 C96.6928571,44.7015385 97.9106122,44.1403077 98.8473469,43.0178462 C99.7840816,41.8953846 100.346122,40.2116923 100.346122,37.8732308 C100.346122,35.7218462 99.8777551,34.0381538 98.8473469,33.0092308 C97.8169388,31.8867692 96.5991837,31.3255385 95.1940816,31.3255385 C93.6953061,31.3255385 92.477551,31.8867692 91.4471429,33.0092308 C90.4167347,34.0381538 89.9483673,35.7218462 89.9483673,37.9667692 L89.9483673,37.9667692 Z" id="Shape" fill="#000000"></path>
            </g>
        </g>
    </g>
</svg>