<?xml version="1.0" encoding="UTF-8"?>
<svg width="183px" height="48px" viewBox="0 0 183 48" version="1.1" xmlns="http://www.w3.org/2000/svg" xmlns:xlink="http://www.w3.org/1999/xlink">
    <!-- Generator: Sketch 60.1 (88133) - https://sketch.com -->
    <title>astropay</title>
    <desc>Created with Sketch.</desc>
    <g id="design" stroke="none" stroke-width="1" fill="none" fill-rule="evenodd">
        <g id="icon_all" transform="translate(-2207.000000, -352.000000)" fill-rule="nonzero">
            <g id="astropay" transform="translate(2207.000000, 352.000000)">
                <path d="M12.0481799,1 L0,37 L7.08618844,37 L10.4882227,26.4894217 L20.262848,26.4894217 L23.764454,37 L31,37 L18.9352248,1 L12.0481799,1 Z M18.5535332,20.5148096 L12.2141328,20.5148096 L14.8527837,12.5768688 C15.0353319,12.0352609 15.2012848,11.493653 15.3506424,10.9689704 C15.5165953,11.5105783 15.6825482,12.0691114 15.8816916,12.6445698 L18.5535332,20.5148096 Z" id="Shape" fill="#FFFFFF"></path>
                <path d="M43.7056673,21.4457388 C40.3016453,20.1545064 39.9195612,19.558553 39.9195612,18.6149601 C39.9195612,17.4230533 40.9616088,16.6946658 42.6462523,16.6946658 C44.6435101,16.6946658 46.2065814,17.4561619 46.9533821,17.9031269 L48.4122486,18.7805028 L50.3400366,13.1851625 L49.4716636,12.6554261 C47.8043876,11.6125077 45.286106,11 42.7330896,11 C37.0365631,11 32.9031079,14.4267321 32.9031079,19.1612508 C32.9031079,23.5150215 36.9497258,25.832618 40.3363803,27.0079706 C43.7230347,28.2164316 43.9835466,29.0441447 43.9835466,30.0705089 C43.9835466,31.9908032 41.8647166,32.2722256 40.5968921,32.2722256 C38.6343693,32.2722256 36.5329068,31.4776211 35.3345521,30.7988964 L33.893053,29.9877376 L32,35.6658492 L32.9204753,36.1790313 C34.9872029,37.3378296 37.7659963,38 40.5100548,38 C46.7797075,38 51,34.639485 51,29.6400981 C51,24.624157 46.8144424,22.5548743 43.7056673,21.4457388 L43.7056673,21.4457388 Z" id="Path" fill="#FFFFFF"></path>
                <path d="M61.6954774,5 L54.758794,7.06040609 L54.758794,11.1309645 L51,11.1309645 L51,16.9939086 L54.758794,16.9939086 L54.758794,28.6527919 C54.758794,31.9025381 55.4251256,34.2309645 56.8090452,35.7553299 C58.158794,37.1959391 60.1919598,38 62.5326633,38 C64.6341709,38 66.1547739,37.5812183 66.8723618,37.3299492 L67.8120603,37.0116751 L67.4532663,31.1152284 L65.8472362,31.584264 C65.3688442,31.7182741 64.8221106,31.8187817 63.6773869,31.8187817 C62.840201,31.8187817 61.6954774,31.8187817 61.6954774,28.5020305 L61.6954774,16.9939086 L68,16.9939086 L68,11.1309645 L61.6954774,11.1309645 L61.6954774,5 Z" id="Path" fill="#FFFFFF"></path>
                <path d="M84,11.2598376 L82.7256028,11.0974391 C82.3467279,11.0487196 81.967853,11 81.4684271,11 C79.2640643,11 77.2146958,11.8607121 75.6647532,13.3547783 L75.5786452,11.4871955 L69,11.4871955 L69.0861079,12.8188632 C69.2238806,14.7838851 69.2927669,17.0412242 69.2927669,19.9156777 L69.2927669,37 L76.3880597,37 L76.3880597,23.4884447 C76.3880597,22.8550906 76.4397245,22.2217364 76.5086108,21.7670206 C77.0252583,19.119925 78.7990815,17.4634603 81.1584386,17.4634603 C81.7095293,17.4634603 82.0711825,17.4634603 82.3811711,17.5284197 L84,17.8532167 L84,11.2598376 Z" id="Path" fill="#FFFFFF"></path>
                <path d="M95.6705261,11 C88.2144088,11 83,16.6215554 83,24.6736069 C83,32.5272505 88.0519662,38 95.2806637,38 C101.404751,38 107.999961,33.7011635 107.999961,24.2767912 C108.016167,16.4562156 102.931712,11 95.6705261,11 Z M101.226064,24.4255971 C101.226064,28.9559094 98.8219133,32.2461727 95.4918391,32.2461727 C92.1942535,32.2461727 89.8063467,28.9889773 89.8063467,24.524801 C89.8063467,21.6313533 91.0246665,16.7537866 95.5893047,16.7537866 C100.040233,16.7372933 101.226064,21.7636252 101.226064,24.4255971 L101.226064,24.4255971 Z" id="Shape" fill="#FFFFFF"></path>
                <path d="M131.673484,4.09243697 C129.405405,2.04201681 125.978086,1 121.509131,1 C118.518627,1 115.679328,1.21848739 113.075237,1.65546218 L112,1.84033613 L112,37 L118.871439,37 L118.871439,23.9411765 C119.577064,24.0084034 120.316289,24.0252101 121.021914,24.0252101 C125.658875,24.0252101 129.590212,22.5966387 132.076698,19.9915966 C134.025566,17.9915966 135,15.302521 135,12.0084034 C135,8.81512605 133.823959,6.00840336 131.673484,4.09243697 L131.673484,4.09243697 Z M128.128561,12.2436975 C128.128561,17.2352941 123.726808,17.9915966 121.105917,17.9915966 C120.232286,17.9915966 119.493061,17.9579832 118.871439,17.8739496 L118.871439,7.13445378 C119.543462,7.05042017 120.450694,7 121.609934,7 C124.583638,7 128.128561,7.90756303 128.128561,12.2436975 Z" id="Shape" fill="#FFFFFF"></path>
                <path d="M157.422394,30.5642595 L157.422394,21.8066095 C157.422394,14.8335373 153.701931,11 146.957529,11 C143.83166,11 140.586873,11.8261934 138.310425,13.2307222 L137.427027,13.7594859 L139.312741,19.1627907 L140.739768,18.2209302 C142.183784,17.2625459 144.273359,16.7007344 146.328958,16.7007344 C147.738996,16.6842105 148.77529,16.998164 149.437838,17.6425949 C149.998456,18.1878825 150.338224,18.9810282 150.440154,20.0220318 C144.986873,20.1707466 140.994595,21.4430845 138.548263,23.8059976 C136.866409,25.4418605 136,27.5238678 136,30.002448 C136,33.9847001 138.972973,38 144.681081,38 C147.110425,38 149.403861,37.2399021 151.187645,35.9179927 L151.374517,37.4712362 L158,37.4712362 L157.762162,36.000612 C157.541313,34.5630355 157.422394,32.74541 157.422394,30.5642595 L157.422394,30.5642595 Z M145.76834,32.2827417 C144.732046,32.2827417 142.999228,31.9192166 142.999228,29.5067319 C142.999228,28.5648715 143.288031,27.8378213 143.899614,27.2594859 C144.715058,26.4828641 146.532819,25.5905753 150.576062,25.5079559 L150.576062,28.3004896 C150.576062,28.498776 150.559073,28.878825 150.440154,29.2423501 C149.964479,30.630355 148.435521,32.2827417 145.76834,32.2827417 Z" id="Shape" fill="#FFFFFF"></path>
                <path d="M175.661963,11 L170.675433,25.6769991 C170.542014,26.0426774 170.425273,26.4249775 170.308531,26.8072776 C170.175112,26.4415993 170.058371,26.0925427 169.924952,25.7601078 L164.488133,11 L157,11 L166.389352,34.4532794 L166.422707,34.5197664 C166.572803,34.8189578 166.622835,35.0017969 166.639513,35.0682839 C166.58948,35.2012579 166.489416,35.4339623 166.422707,35.583558 C165.605516,37.3122192 164.404747,38.9245283 163.1873,39.8885894 L163.153945,39.9218329 C161.786402,41.0853549 160.385504,41.6006289 159.835151,41.7668464 L158.634381,42.1491465 L160.402181,48 L161.536241,47.8005391 C162.220013,47.6841869 164.654907,47.1024259 167.440026,44.7753819 C170.775497,41.8333333 172.993586,37.1460018 175.895446,29.5332435 L183,11 L175.661963,11 Z" id="Path" fill="#FFFFFF"></path>
                <path d="M26.1638767,11 C30.6,6.48333333 38.1330396,3.8 46.3022026,3.8 C49.4828194,3.8 52.5964758,4.2 55.5259912,5.01666667 L55.7603524,5.08333333 L61,3.5 L58.6563877,2.6 C54.2035242,0.9 49.0475771,0 43.7577093,0 C36.0740088,0 28.9092511,1.85 23.569163,5.2 L23,5.56666667 L25.2096916,12 L26.1638767,11 Z" id="Path" fill="#FF0000"></path>
            </g>
        </g>
    </g>
</svg>