<?xml version="1.0" encoding="UTF-8"?>
<svg width="59px" height="47px" viewBox="0 0 59 47" version="1.1" xmlns="http://www.w3.org/2000/svg" xmlns:xlink="http://www.w3.org/1999/xlink">
    <!-- Generator: Sketch 60.1 (88133) - https://sketch.com -->
    <title>mastercard</title>
    <desc>Created with Sketch.</desc>
    <g id="design" stroke="none" stroke-width="1" fill="none" fill-rule="evenodd">
        <g id="icon_all" transform="translate(-261.000000, -64.000000)" fill-rule="nonzero">
            <g id="mastercard" transform="translate(261.000000, 64.000000)">
                <path d="M58.3925342,28.9895132 L58.3925342,29.7086346 L58.2111376,29.7086346 L58.0012196,29.2146807 L57.7924424,29.7086346 L57.609905,29.7086346 L57.609905,28.9895132 L57.7388221,28.9895132 L57.7388221,29.5318014 L57.9350498,29.0637831 L58.0685303,29.0637831 L58.264758,29.5329803 L58.264758,28.9895132 L58.3925342,28.9895132 Z M57.2414076,28.9895132 L57.2414076,29.5860303 L57.4741428,29.5860303 L57.4741428,29.7074557 L56.8808962,29.7074557 L56.8808962,29.5860303 L57.1136314,29.5860303 L57.1136314,28.9895132 L57.2414076,28.9895132 Z" id="Shape" fill="#F79410" transform="translate(57.636715, 29.489513) scale(-1, 1) rotate(-180.000000) translate(-57.636715, -29.489513) "></path>
                <polygon id="Path" fill="#FF5F00" points="37.7658058 32.9993752 22.0657624 32.9993752 22.0657624 4.43815496 37.7658058 4.43815496"></polygon>
                <path d="M23.0715435,18.7164554 C23.0715435,24.5102304 25.751421,29.6711592 29.9246828,32.9970655 C26.8728853,35.4291345 23.0213458,36.880754 18.8355346,36.880754 C8.92603441,36.880754 0.893247097,28.7484512 0.893247097,18.7164554 C0.893247097,8.68445961 8.92603441,0.552156812 18.8355346,0.552156812 C23.0213458,0.552156812 26.8728853,2.00377633 29.9246828,4.4358453 C25.751421,7.76175158 23.0715435,12.9226805 23.0715435,18.7164554" id="Path" fill="#EB001B" transform="translate(15.408965, 18.716455) scale(-1, 1) rotate(-180.000000) translate(-15.408965, -18.716455) "></path>
                <path d="M58.9401465,18.7164554 C58.9401465,8.68445961 50.9073591,0.552156812 40.997859,0.552156812 C36.8120478,0.552156812 32.9605082,2.00377633 29.9075699,4.4358453 C34.0819725,7.76175158 36.76185,12.9226805 36.76185,18.7164554 C36.76185,24.5102304 34.0819725,29.6711592 29.9075699,32.9970655 C32.9605082,35.4291345 36.8120478,36.880754 40.997859,36.880754 C50.9073591,36.880754 58.9401465,28.7484512 58.9401465,18.7164554" id="Path" fill="#F79E1B" transform="translate(44.423858, 18.716455) scale(-1, 1) rotate(-180.000000) translate(-44.423858, -18.716455) "></path>
                <path d="M57.7536532,39.8682955 L57.7536532,39.7493482 L57.8620348,39.7493482 C57.8859929,39.7493482 57.9065283,39.7551223 57.9213595,39.764361 C57.9350498,39.7735996 57.9430358,39.7897672 57.9430358,39.8093993 C57.9430358,39.8290314 57.9350498,39.8440441 57.9213595,39.8532828 C57.9065283,39.8636762 57.8859929,39.8682955 57.8620348,39.8682955 L57.7536532,39.8682955 Z M57.8631757,39.9514432 C57.9190778,39.9514432 57.9624304,39.9387401 57.9932336,39.9133338 C58.0240368,39.8879276 58.0388679,39.8532828 58.0388679,39.8093993 C58.0388679,39.7724448 58.0274594,39.7424192 58.0023605,39.7181678 C57.9784024,39.6950712 57.9441767,39.6800585 57.8985423,39.6742843 L58.0422905,39.5068342 L57.9304864,39.5068342 L57.7970059,39.6731295 L57.7536532,39.6731295 L57.7536532,39.5068342 L57.6601028,39.5068342 L57.6601028,39.9514432 L57.8631757,39.9514432 Z M57.8346542,39.353242 C57.8859929,39.353242 57.9339089,39.3636354 57.9772616,39.3832675 C58.0217551,39.4028996 58.0605443,39.4294607 58.0936292,39.4629507 C58.1267141,39.4964407 58.1529538,39.5357049 58.1723484,39.581898 C58.1906022,39.6269364 58.2008699,39.6754392 58.2008699,39.7274064 C58.2008699,39.7793737 58.1906022,39.8278765 58.1723484,39.8729148 C58.1529538,39.9179532 58.1267141,39.9583722 58.0936292,39.9918622 C58.0605443,40.0253522 58.0217551,40.0519133 57.9772616,40.0715454 C57.9339089,40.0900226 57.8859929,40.0992612 57.8346542,40.0992612 C57.7833156,40.0992612 57.7342586,40.0900226 57.6897651,40.0715454 C57.6441308,40.0519133 57.6042007,40.0253522 57.5711158,39.9918622 C57.5380309,39.9583722 57.5117911,39.9179532 57.4935374,39.8729148 C57.4741428,39.8278765 57.4650159,39.7793737 57.4650159,39.7274064 C57.4650159,39.6754392 57.4741428,39.6269364 57.4935374,39.581898 C57.5117911,39.5357049 57.5380309,39.4964407 57.5711158,39.4629507 C57.6042007,39.4294607 57.6441308,39.4028996 57.6897651,39.3832675 C57.7342586,39.3636354 57.7833156,39.353242 57.8346542,39.353242 M57.8346542,40.2066603 C57.9019649,40.2066603 57.9635713,40.1939572 58.0228959,40.168551 C58.0810797,40.1442996 58.1312775,40.1096547 58.175771,40.0657712 C58.2191236,40.0230426 58.2533494,39.9722301 58.2784483,39.9133338 C58.3035472,39.8555924 58.3160966,39.7932317 58.3160966,39.7274064 C58.3160966,39.6615812 58.3035472,39.5992205 58.2784483,39.541479 C58.2533494,39.4837376 58.2191236,39.4329252 58.175771,39.3890417 C58.1312775,39.346313 58.0810797,39.3116682 58.0228959,39.2862619 C57.9635713,39.2608557 57.9019649,39.2481526 57.8346542,39.2481526 C57.7662027,39.2481526 57.7034554,39.2608557 57.6441308,39.2862619 C57.5848061,39.3116682 57.5334675,39.346313 57.4901148,39.3890417 C57.4467622,39.4329252 57.4125364,39.4837376 57.3874375,39.541479 C57.3623386,39.5992205 57.3497892,39.6615812 57.3497892,39.7274064 C57.3497892,39.7932317 57.3623386,39.8555924 57.3874375,39.9133338 C57.4125364,39.9722301 57.4467622,40.0230426 57.4901148,40.0657712 C57.5334675,40.1096547 57.5848061,40.1442996 57.6441308,40.168551 C57.7034554,40.1939572 57.7662027,40.2066603 57.8346542,40.2066603 M13.3856517,41.9192711 C13.3856517,42.7669152 13.9344049,43.4632769 14.8311199,43.4632769 C15.6879049,43.4632769 16.2663204,42.7969408 16.2663204,41.9192711 C16.2663204,41.0416014 15.6879049,40.3752653 14.8311199,40.3752653 C13.9344049,40.3752653 13.3856517,41.0716269 13.3856517,41.9192711 M17.2428956,41.9192711 L17.2428956,44.3305531 L16.2069957,44.3305531 L16.2069957,43.745055 C15.8784284,44.1792706 15.379873,44.4518101 14.7022029,44.4518101 C13.3662571,44.4518101 12.3189487,43.3916775 12.3189487,41.9192711 C12.3189487,40.4457098 13.3662571,39.386732 14.7022029,39.386732 C15.379873,39.386732 15.8784284,39.6592716 16.2069957,40.0934871 L16.2069957,39.507989 L17.2428956,39.507989 L17.2428956,41.9192711 Z M52.2490092,41.9192711 C52.2490092,42.7669152 52.7977623,43.4632769 53.6944774,43.4632769 C54.5524032,43.4632769 55.1296778,42.7969408 55.1296778,41.9192711 C55.1296778,41.0416014 54.5524032,40.3752653 53.6944774,40.3752653 C52.7977623,40.3752653 52.2490092,41.0716269 52.2490092,41.9192711 M56.1073939,41.9192711 L56.1073939,46.2672006 L55.0703532,46.2672006 L55.0703532,43.745055 C54.7417858,44.1792706 54.2432305,44.4518101 53.5655603,44.4518101 C52.2296146,44.4518101 51.1823061,43.3916775 51.1823061,41.9192711 C51.1823061,40.4457098 52.2296146,39.386732 53.5655603,39.386732 C54.2432305,39.386732 54.7417858,39.6592716 55.0703532,40.0934871 L55.0703532,39.507989 L56.1073939,39.507989 L56.1073939,41.9192711 Z M30.1015159,43.5129345 C30.7689184,43.5129345 31.1978813,43.0891124 31.3074037,42.3430932 L28.8351626,42.3430932 C28.9458259,43.0394548 29.3633802,43.5129345 30.1015159,43.5129345 M30.1220514,44.4518101 C28.7256401,44.4518101 27.7490649,43.4228579 27.7490649,41.9192711 C27.7490649,40.3856587 28.7655702,39.386732 30.1916438,39.386732 C30.909244,39.386732 31.5663787,39.5680401 32.1447941,40.0623067 L31.637112,40.8395064 C31.2378113,40.5173092 30.7289883,40.3348463 30.2509684,40.3348463 C29.583566,40.3348463 28.9754882,40.6478048 28.8260357,41.5162359 L32.3638391,41.5162359 C32.3741068,41.6467315 32.3843745,41.778382 32.3843745,41.9192711 C32.3741068,43.4228579 31.4568563,44.4518101 30.1220514,44.4518101 M42.630428,41.9192711 C42.630428,42.7669152 43.1791811,43.4632769 44.0758962,43.4632769 C44.9326812,43.4632769 45.5110967,42.7969408 45.5110967,41.9192711 C45.5110967,41.0416014 44.9326812,40.3752653 44.0758962,40.3752653 C43.1791811,40.3752653 42.630428,41.0716269 42.630428,41.9192711 M46.4876719,41.9192711 L46.4876719,44.3305531 L45.451772,44.3305531 L45.451772,43.745055 C45.1220638,44.1792706 44.6246493,44.4518101 43.9469792,44.4518101 C42.6110334,44.4518101 41.563725,43.3916775 41.563725,41.9192711 C41.563725,40.4457098 42.6110334,39.386732 43.9469792,39.386732 C44.6246493,39.386732 45.1220638,39.6592716 45.451772,40.0934871 L45.451772,39.507989 L46.4876719,39.507989 L46.4876719,41.9192711 Z M36.7801037,41.9192711 C36.7801037,40.4561033 37.7863413,39.386732 39.3219373,39.386732 C40.0395375,39.386732 40.5175574,39.548408 41.0355073,39.9618366 L40.5380929,40.8094808 C40.14906,40.5265478 39.7406325,40.3752653 39.2911341,40.3752653 C38.4640114,40.3856587 37.8559337,40.9907889 37.8559337,41.9192711 C37.8559337,42.8477532 38.4640114,43.4528834 39.2911341,43.4632769 C39.7406325,43.4632769 40.14906,43.3119943 40.5380929,43.0290613 L41.0355073,43.8767055 C40.5175574,44.2901341 40.0395375,44.4518101 39.3219373,44.4518101 C37.7863413,44.4518101 36.7801037,43.3824389 36.7801037,41.9192711 M50.1361385,44.4518101 C49.5383285,44.4518101 49.1492956,44.1688771 48.8800529,43.745055 L48.8800529,44.3305531 L47.8532799,44.3305531 L47.8532799,39.507989 L48.8903207,39.507989 L48.8903207,42.2114427 C48.8903207,43.0094292 49.2291557,43.4528834 49.9068259,43.4528834 C50.1167439,43.4528834 50.3357888,43.4228579 50.5548338,43.3316264 L50.8742742,44.3201597 C50.6449616,44.4113911 50.3460566,44.4518101 50.1361385,44.4518101 M22.3664928,43.94715 C21.8679374,44.2797407 21.1811404,44.4518101 20.4236101,44.4518101 C19.2165814,44.4518101 18.4396565,43.866312 18.4396565,42.9078043 C18.4396565,42.1213661 19.018072,41.6363381 20.0836342,41.4850555 L20.5730626,41.414611 C21.1412103,41.333773 21.4093122,41.1824904 21.4093122,40.9099509 C21.4093122,40.5369413 21.030547,40.3244528 20.3232145,40.3244528 C19.6056143,40.3244528 19.0876644,40.5565734 18.7385616,40.8291129 L18.250274,40.0126491 C18.8184217,39.588827 19.5360219,39.386732 20.3129468,39.386732 C21.6888226,39.386732 22.4862829,40.0426746 22.4862829,40.9607634 C22.4862829,41.8084075 21.8588106,42.2518617 20.8217699,42.4031442 L20.3334823,42.4747436 C19.8851247,42.5347947 19.5257542,42.6248713 19.5257542,42.9482233 C19.5257542,43.3016009 19.8645893,43.5129345 20.432737,43.5129345 C21.0408148,43.5129345 21.6294979,43.280814 21.9181352,43.0995059 L22.3664928,43.94715 Z M35.7327953,44.4518101 C35.1349853,44.4518101 34.7459524,44.1688771 34.4778505,43.745055 L34.4778505,44.3305531 L33.4510776,44.3305531 L33.4510776,39.507989 L34.4869774,39.507989 L34.4869774,42.2114427 C34.4869774,43.0094292 34.8258125,43.4528834 35.5034827,43.4528834 C35.7134007,43.4528834 35.9324456,43.4228579 36.1514905,43.3316264 L36.470931,44.3201597 C36.2416184,44.4113911 35.9427133,44.4518101 35.7327953,44.4518101 M26.8922799,44.3305531 L25.1981045,44.3305531 L25.1981045,45.7937209 L24.150796,45.7937209 L24.150796,44.3305531 L23.1844886,44.3305531 L23.1844886,43.3720454 L24.150796,43.3720454 L24.150796,41.172097 C24.150796,40.0530681 24.579759,39.386732 25.8050414,39.386732 C26.2545398,39.386732 26.7724897,39.5276211 27.1010571,39.7597416 L26.8021521,40.6581983 C26.4929793,40.4768902 26.1541442,40.3856587 25.8849015,40.3856587 C25.3669516,40.3856587 25.1981045,40.7090107 25.1981045,41.1928839 L25.1981045,43.3720454 L26.8922799,43.3720454 L26.8922799,44.3305531 Z M11.402839,39.507989 L11.402839,42.5347947 C11.402839,43.6746105 10.6852388,44.4414167 9.52840789,44.4518101 C8.92033011,44.4622036 8.29285773,44.270502 7.85362707,43.5937725 C7.52505971,44.1284581 7.00710979,44.4518101 6.27924183,44.4518101 C5.77041877,44.4518101 5.2730043,44.3005276 4.88397143,43.7358164 L4.88397143,44.3305531 L3.84693071,44.3305531 L3.84693071,39.507989 L4.8930983,39.507989 L4.8930983,42.1814172 C4.8930983,43.0186679 5.35172356,43.4632769 6.06019692,43.4632769 C6.74813482,43.4632769 7.09609678,43.0094292 7.09609678,42.1918106 L7.09609678,39.507989 L8.14340522,39.507989 L8.14340522,42.1814172 C8.14340522,43.0186679 8.62142509,43.4632769 9.30936299,43.4632769 C10.0166955,43.4632769 10.3555306,43.0094292 10.3555306,42.1918106 L10.3555306,39.507989 L11.402839,39.507989 Z" id="Shape" fill="#FFFFFF" transform="translate(31.081514, 42.757677) scale(-1, 1) rotate(-180.000000) translate(-31.081514, -42.757677) "></path>
            </g>
        </g>
    </g>
</svg>