<?xml version="1.0" encoding="UTF-8"?>
<svg width="61px" height="48px" viewBox="0 0 61 48" version="1.1" xmlns="http://www.w3.org/2000/svg" xmlns:xlink="http://www.w3.org/1999/xlink">
    <!-- Generator: Sketch 60.1 (88133) - https://sketch.com -->
    <title>maestro</title>
    <desc>Created with Sketch.</desc>
    <g id="design" stroke="none" stroke-width="1" fill="none" fill-rule="evenodd">
        <g id="icon_all" transform="translate(-368.000000, -64.000000)" fill-rule="nonzero">
            <g id="maestro" transform="translate(368.000000, 64.000000)">
                <path d="M60.35736,29.6382947 L60.35736,30.3574161 L60.1699169,30.3574161 L59.9530016,29.8634622 L59.7372652,30.3574161 L59.5486432,30.3574161 L59.5486432,29.6382947 L59.6818575,29.6382947 L59.6818575,30.1805829 L59.8846261,29.7125646 L60.022556,29.7125646 L60.2253246,30.1817618 L60.2253246,29.6382947 L60.35736,29.6382947 Z M59.1678625,29.6382947 L59.1678625,30.2348118 L59.4083556,30.2348118 L59.4083556,30.3562372 L58.7953341,30.3562372 L58.7953341,30.2348118 L59.0358271,30.2348118 L59.0358271,29.6382947 L59.1678625,29.6382947 Z" id="Shape" fill="#0099DF" transform="translate(59.576347, 30.138295) scale(-1, 1) rotate(-180.000000) translate(-59.576347, -30.138295) "></path>
                <polygon id="Path" fill="#6C6BBD" points="39.043074 33.7316955 22.8196958 33.7316955 22.8196958 4.57544985 39.043074 4.57544985"></polygon>
                <path d="M23.859003,19.1512149 C23.859003,25.0656935 26.6282097,30.3341417 30.9405802,33.7293377 C27.7870561,36.2120748 23.8071319,37.6939364 19.4817937,37.6939364 C9.24197689,37.6939364 0.94143,29.3922106 0.94143,19.1512149 C0.94143,8.91021919 9.24197689,0.608493412 19.4817937,0.608493412 C23.8071319,0.608493412 27.7870561,2.090355 30.9405802,4.57309207 C26.6282097,7.96828807 23.859003,13.2367363 23.859003,19.1512149" id="Path" fill="#EB001B" transform="translate(15.941005, 19.151215) scale(-1, 1) rotate(-180.000000) translate(-15.941005, -19.151215) "></path>
                <path d="M60.923226,19.1512149 C60.923226,8.91021919 52.6226791,0.608493412 42.3828623,0.608493412 C38.057524,0.608493412 34.0775998,2.090355 30.9228969,4.57309207 C35.2364463,7.96828807 38.005653,13.2367363 38.005653,19.1512149 C38.005653,25.0656935 35.2364463,30.3341417 30.9228969,33.7293377 C34.0775998,36.2120748 38.057524,37.6939364 42.3828623,37.6939364 C52.6226791,37.6939364 60.923226,29.3922106 60.923226,19.1512149" id="Path" fill="#0099DF" transform="translate(45.923061, 19.151215) scale(-1, 1) rotate(-180.000000) translate(-45.923061, -19.151215) "></path>
                <path d="M44.513112,41.9650458 C44.7288484,41.9650458 45.0388958,42.0063069 45.2758522,42.099439 L44.9457637,43.1085667 C44.7194173,43.0154346 44.4930709,42.9847835 44.2761556,42.9847835 C43.5758964,42.9847835 43.2257669,43.4374763 43.2257669,44.2509087 L43.2257669,47.0118632 L42.1541581,47.0118632 L42.1541581,42.088829 L43.2151569,42.088829 L43.2151569,42.6865249 C43.4933743,42.2538732 43.895375,41.9650458 44.513112,41.9650458 M40.5544078,43.0673056 L38.8037598,43.0673056 L38.8037598,45.2918663 C38.8037598,45.7858202 38.9782352,46.1159087 39.514629,46.1159087 C39.7928465,46.1159087 40.142976,46.0227766 40.4612757,45.8376912 L40.7701442,46.7536868 C40.4306246,46.9906432 39.8954097,47.1356464 39.4321069,47.1356464 C38.1648028,47.1356464 37.72272,46.4554283 37.72272,45.3119074 L37.72272,43.0673056 L36.7230234,43.0673056 L36.7230234,42.088829 L37.72272,42.088829 L37.72272,40.5951785 L38.8037598,40.5951785 L38.8037598,42.088829 L40.5544078,42.088829 L40.5544078,43.0673056 Z M26.845125,44.1176944 C26.9594771,43.4068252 27.39095,42.9223024 28.1536902,42.9223024 C28.8433394,42.9223024 29.2866011,43.3549542 29.3997743,44.1176944 L26.845125,44.1176944 Z M30.5126441,44.5503461 C30.5020341,43.0154346 29.5542085,41.9650458 28.1737313,41.9650458 C26.7319518,41.9650458 25.7228241,43.0154346 25.7228241,44.5503461 C25.7228241,46.1147298 26.7732129,47.1344675 28.2468223,47.1344675 C28.9883425,47.1344675 29.6673817,46.9493821 30.2650777,46.4448183 L29.7392939,45.651427 C29.3278621,45.9815155 28.8020783,46.1666008 28.3081244,46.1666008 C27.6184752,46.1666008 26.9901282,45.8471223 26.8356939,44.9617778 L30.4914241,44.9617778 C30.5020341,44.8273846 30.5126441,44.6941704 30.5126441,44.5503461 M35.218763,43.3455231 C34.9205044,43.1592588 34.3133774,42.9223024 33.6850303,42.9223024 C33.0979443,42.9223024 32.7478148,43.1392177 32.7478148,43.4999573 C32.7478148,43.8288669 33.1179854,43.921999 33.5812882,43.9833012 L34.0858521,44.0552133 C35.1574608,44.2108265 35.8058489,44.6635193 35.8058489,45.5288227 C35.8058489,46.4660383 34.9818066,47.1356464 33.5612471,47.1356464 C32.7572459,47.1356464 32.0157256,46.9293411 31.4286396,46.4966893 L31.9332035,45.662037 C32.2939431,45.9402544 32.8303369,46.1772108 33.5718571,46.1772108 C34.3027674,46.1772108 34.694158,45.9614744 34.694158,45.5795149 C34.694158,45.3024763 34.4159406,45.1468632 33.8288546,45.0655199 L33.3242907,44.9936078 C32.2220309,44.8379946 31.624335,44.3440408 31.624335,43.5412184 C31.624335,42.5627418 32.4283362,41.9650458 33.6744203,41.9650458 C34.4572016,41.9650458 35.1680708,42.1407 35.6820657,42.4802196 L35.218763,43.3455231 Z M48.4281974,42.9824257 C48.2077454,42.9824257 48.0037979,43.021329 47.813997,43.0979567 C47.625375,43.1757633 47.4615096,43.2842209 47.3235798,43.4233296 C47.18565,43.5624384 47.0771923,43.7298404 46.9982069,43.9243568 C46.9192214,44.1188733 46.8803181,44.3334308 46.8803181,44.5668505 C46.8803181,44.8014491 46.9192214,45.0148278 46.9982069,45.2093442 C47.0771923,45.4038606 47.18565,45.5712627 47.3235798,45.7103714 C47.4615096,45.8494801 47.625375,45.9579378 47.813997,46.0357443 C48.0037979,46.1135509 48.2077454,46.1512753 48.4281974,46.1512753 C48.6486494,46.1512753 48.8537758,46.1135509 49.0423978,46.0357443 C49.2321987,45.9579378 49.3972429,45.8494801 49.5351728,45.7103714 C49.6754604,45.5712627 49.783918,45.4038606 49.8640824,45.2093442 C49.9430678,45.0148278 49.9819711,44.8014491 49.9819711,44.5668505 C49.9819711,44.3334308 49.9430678,44.1188733 49.8640824,43.9243568 C49.783918,43.7298404 49.6754604,43.5624384 49.5351728,43.4233296 C49.3972429,43.2842209 49.2321987,43.1757633 49.0423978,43.0979567 C48.8537758,43.021329 48.6486494,42.9824257 48.4281974,42.9824257 M48.4281974,41.9650458 C48.8101569,41.9650458 49.1638232,42.0310635 49.4891961,42.1642778 C49.8145691,42.2963132 50.0963232,42.4790407 50.3332796,42.7112816 C50.5714149,42.9435224 50.7565002,43.2182032 50.8908934,43.5341451 C51.0252866,43.8512658 51.0924831,44.1955009 51.0924831,44.5668505 C51.0924831,44.9382001 51.0252866,45.2824352 50.8908934,45.599556 C50.7565002,45.9154978 50.5714149,46.1913575 50.3332796,46.4235983 C50.0963232,46.6558392 49.8145691,46.8373878 49.4891961,46.9706021 C49.1638232,47.1026375 48.8101569,47.1686552 48.4281974,47.1686552 C48.0462378,47.1686552 47.6925716,47.1026375 47.3671986,46.9706021 C47.0418257,46.8373878 46.7624294,46.6558392 46.5266519,46.4235983 C46.2908744,46.1913575 46.105789,45.9154978 45.9713958,45.599556 C45.8370027,45.2824352 45.7698061,44.9382001 45.7698061,44.5668505 C45.7698061,44.1955009 45.8370027,43.8512658 45.9713958,43.5341451 C46.105789,43.2182032 46.2908744,42.9435224 46.5266519,42.7112816 C46.7624294,42.4790407 47.0418257,42.2963132 47.3671986,42.1642778 C47.6925716,42.0310635 48.0462378,41.9650458 48.4281974,41.9650458 M20.5875902,44.5503461 C20.5875902,43.6850427 21.1546351,42.9741735 22.0812407,42.9741735 C22.9665852,42.9741735 23.5642811,43.6543916 23.5642811,44.5503461 C23.5642811,45.4463006 22.9665852,46.1253398 22.0812407,46.1253398 C21.1546351,46.1253398 20.5875902,45.4156495 20.5875902,44.5503461 M24.5734088,44.5503461 L24.5734088,42.088829 L23.502979,42.088829 L23.502979,42.6865249 C23.1622805,42.2432632 22.6482855,41.9650458 21.9480264,41.9650458 C20.5675491,41.9650458 19.4865093,43.0460856 19.4865093,44.5503461 C19.4865093,46.0534276 20.5675491,47.1356464 21.9480264,47.1356464 C22.6482855,47.1356464 23.1622805,46.8574289 23.502979,46.4141672 L23.502979,47.0118632 L24.5734088,47.0118632 L24.5734088,44.5503461 Z M18.5386837,47.0118632 L18.5386837,43.921999 C18.5386837,42.7584371 17.7971635,41.9756558 16.6029504,41.9650458 C15.9746034,41.9544358 15.3250364,42.1501311 14.8723436,42.8409592 C14.532824,42.2951343 13.9964302,41.9650458 13.2443,41.9650458 C12.719695,41.9650458 12.2045212,42.1194801 11.8025205,42.695956 L11.8025205,42.088829 L10.7320907,42.088829 L10.7320907,47.0118632 L11.8131305,47.0118632 L11.8131305,44.2827386 C11.8131305,43.4280452 12.2870433,42.9741735 13.0179536,42.9741735 C13.7288227,42.9741735 14.0895623,43.4374763 14.0895623,44.2721286 L14.0895623,47.0118632 L15.1706021,47.0118632 L15.1706021,44.2827386 C15.1706021,43.4280452 15.6657349,42.9741735 16.3754252,42.9741735 C17.1075143,42.9741735 17.4576439,43.4374763 17.4576439,44.2721286 L17.4576439,47.0118632 L18.5386837,47.0118632 Z M52.246614,46.6428714 L52.246614,46.7642968 L52.3586083,46.7642968 C52.3833649,46.7642968 52.4045849,46.7584024 52.4187316,46.7489713 C52.4340571,46.7395402 52.4423093,46.7230357 52.4423093,46.7029947 C52.4423093,46.6829536 52.4340571,46.667628 52.4187316,46.6581969 C52.4045849,46.6475869 52.3833649,46.6428714 52.3586083,46.6428714 L52.246614,46.6428714 Z M52.3597872,46.5579915 C52.4175527,46.5579915 52.4623504,46.5709593 52.4941804,46.5968948 C52.5260103,46.6228303 52.5413359,46.6581969 52.5413359,46.7029947 C52.5413359,46.7407191 52.529547,46.7713701 52.5036115,46.7961268 C52.4788548,46.8197045 52.4423093,46.8350301 52.3963327,46.8409245 L52.5448725,47.0118632 L52.4293416,47.0118632 L52.2914117,46.8421034 L52.246614,46.8421034 L52.246614,47.0118632 L52.1499452,47.0118632 L52.1499452,46.5579915 L52.3597872,46.5579915 Z M52.330315,47.1674763 C52.3833649,47.1674763 52.4328782,47.1580452 52.4776759,47.1380041 C52.5236526,47.1179631 52.5637347,47.0908486 52.5979225,47.0566609 C52.6321102,47.0224732 52.6592246,46.982391 52.6792657,46.9352355 C52.6981279,46.8892589 52.7087379,46.8397456 52.7087379,46.7866957 C52.7087379,46.7336457 52.6981279,46.6841325 52.6792657,46.6381558 C52.6592246,46.5921792 52.6321102,46.5509182 52.5979225,46.5167304 C52.5637347,46.4825427 52.5236526,46.4554283 52.4776759,46.4365661 C52.4328782,46.416525 52.3833649,46.4070939 52.330315,46.4070939 C52.2772651,46.4070939 52.2265729,46.416525 52.1805963,46.4365661 C52.1334408,46.4554283 52.0921797,46.4825427 52.057992,46.5167304 C52.0238043,46.5509182 51.9966898,46.5921792 51.9778276,46.6381558 C51.9577866,46.6841325 51.9483555,46.7336457 51.9483555,46.7866957 C51.9483555,46.8397456 51.9577866,46.8892589 51.9778276,46.9352355 C51.9966898,46.982391 52.0238043,47.0224732 52.057992,47.0566609 C52.0921797,47.0908486 52.1334408,47.1179631 52.1805963,47.1380041 C52.2265729,47.1580452 52.2772651,47.1674763 52.330315,47.1674763 M52.330315,46.2974574 C52.3998694,46.2974574 52.4635293,46.3104251 52.5236526,46.3363606 C52.5849547,46.3611173 52.6368258,46.3964839 52.6828024,46.4412816 C52.7276001,46.4849005 52.7629667,46.5367715 52.7889022,46.5968948 C52.8148378,46.6558392 52.8278055,46.7194991 52.8278055,46.7866957 C52.8278055,46.8538923 52.8148378,46.9175522 52.7889022,46.9764966 C52.7629667,47.0354409 52.7276001,47.087312 52.6828024,47.1309308 C52.6368258,47.1757285 52.5849547,47.2110952 52.5236526,47.2370307 C52.4635293,47.2629662 52.3998694,47.275934 52.330315,47.275934 C52.2595818,47.275934 52.1947429,47.2629662 52.1334408,47.2370307 C52.0721386,47.2110952 52.0190887,47.1757285 51.974291,47.1309308 C51.9294933,47.087312 51.8941266,47.0354409 51.8681911,46.9764966 C51.8422556,46.9175522 51.8292878,46.8538923 51.8292878,46.7866957 C51.8292878,46.7194991 51.8422556,46.6558392 51.8681911,46.5968948 C51.8941266,46.5367715 51.9294933,46.4849005 51.974291,46.4412816 C52.0190887,46.3964839 52.0721386,46.3611173 52.1334408,46.3363606 C52.1947429,46.3104251 52.2595818,46.2974574 52.330315,46.2974574" id="Combined-Shape" fill="#FFFFFF"></path>
            </g>
        </g>
    </g>
</svg>