<?xml version="1.0" encoding="UTF-8"?>
<svg width="143px" height="48px" viewBox="0 0 143 48" version="1.1" xmlns="http://www.w3.org/2000/svg" xmlns:xlink="http://www.w3.org/1999/xlink">
    <!-- Generator: Sketch 60.1 (88133) - https://sketch.com -->
    <title>skrill</title>
    <desc>Created with Sketch.</desc>
    <g id="design" stroke="none" stroke-width="1" fill="none" fill-rule="evenodd">
        <g id="icon_all" transform="translate(-1347.000000, -64.000000)" fill="#95216F">
            <g id="skrill" transform="translate(1347.000000, 64.000000)">
                <path d="M102.997001,36.244898 C106.313433,36.244898 109,38.8756099 109,42.1207702 C109,45.3667698 106.313433,48 102.997001,48 C99.6865672,48 97,45.3667698 97,42.1207702 C97,38.8756099 99.6865672,36.244898 102.997001,36.244898 L102.997001,36.244898 Z M58.0010122,33.2591167 C57.7362974,32.6162916 55.8373653,27.4203239 51.2420163,22.0351472 L51.2420163,45.0612245 L39,42.7187535 L39,0.979591837 L51.2420163,0.979591837 L51.2420163,13.8813753 C54.7885267,8.73311414 56.5388178,0.979591837 56.5388178,0.979591837 L71.2025153,0.979591837 C69.7520117,6.81838468 63.4072068,17.584695 63.4072068,17.584695 C69.1014981,24.574913 71.6025102,32.0235987 72,33.2591167 L58.0010122,33.2591167 L58.0010122,33.2591167 Z M89.8020369,33.2954139 C78.6583917,32.9583498 73,28.2530307 73,18.8991022 L73,0.979591837 L85.1595587,0.979591837 L85.1595587,15.5931582 C85.1595587,21.1930551 85.9386802,23.5948366 93,23.8232734 L93,33.1308755 C91.8117972,33.3688971 89.8020369,33.2954139 89.8020369,33.2954139 L89.8020369,33.2954139 Z M18.2471077,27.8571151 C16.7298242,27.9507135 13.2179382,28.1659097 13.2179382,31.1602576 C13.2179382,34.7729947 18.2741417,34.7729947 20.170746,34.7729947 C23.5052214,34.7729947 27.8239035,33.8410109 30.9083144,32.9666261 C30.9083144,32.9666261 32.6291977,32.3922361 34.0932579,31.8042464 L34.2292728,31.769047 L34.2292728,31.9002447 L34.2292728,41.6640747 L34.0425692,41.7160738 C30.4022716,42.9216528 26.1697604,44.0816327 18.3231408,44.0816327 C4.79346678,44.0816327 0,36.6185626 0,30.2250739 C0,26.539538 1.6676601,17.864489 17.1632131,16.8637064 C18.4760519,16.7877078 21.9617488,16.5973111 21.9617488,13.5037649 C21.9617488,10.9486094 19.1079717,9.44303562 14.3085913,9.44303562 C9.04878793,9.44303562 3.9444301,10.7126135 0.845657428,11.9173925 L0.845657428,1.72716993 C5.48621313,0.575989974 10.7156032,0 16.8464084,0 C30.0753291,0 36,7.06147708 36,14.0597553 C36,21.9948171 29.3699106,27.1515274 18.2471077,27.8571151 L18.2471077,27.8571151 Z M97,0.979591837 L109,0.979591837 L109,33.3061224 L97,33.3061224 L97,0.979591837 L97,0.979591837 Z M131,43.0066098 L131,0.979591837 L143,0.979591837 L143,45.0612245 L131,43.0066098 L131,43.0066098 Z M114,43.0066098 L126,45.0612245 L126,0.979591837 L114,0.979591837 L114,43.0066098 L114,43.0066098 Z" transform="translate(71.500000, 24.000000) scale(1, -1) translate(-71.500000, -24.000000) "></path>
            </g>
        </g>
    </g>
</svg>