<?xml version="1.0" encoding="UTF-8"?>
<svg width="297px" height="48px" viewBox="0 0 297 48" version="1.1" xmlns="http://www.w3.org/2000/svg" xmlns:xlink="http://www.w3.org/1999/xlink">
    <!-- Generator: Sketch 60.1 (88133) - https://sketch.com -->
    <title>paysafecard</title>
    <desc>Created with Sketch.</desc>
    <g id="design" stroke="none" stroke-width="1" fill="none" fill-rule="evenodd">
        <g id="icon_all" transform="translate(-1877.000000, -64.000000)">
            <g id="paysafecard" transform="translate(1877.000000, 64.000000)">
                <path d="M52.7970954,21.5423282 C52.7639275,20.5640159 52.2688962,20.0586447 51.305368,20.0258284 L46.1684856,20.0258284 C44.9503936,20.0945496 44.324349,20.7161292 44.2932541,21.884004 L44.2932541,30.4915305 C44.324349,31.6980127 45.0175586,32.312643 46.3699808,32.3477757 L51.0769239,32.3477757 C51.56698,32.3477757 51.9737017,32.1782891 52.2983327,31.8331387 C52.6366455,31.5744689 52.7970954,31.2409007 52.7970954,30.8281873 L52.7970954,21.5423282 L52.7970954,21.5423282 Z M37.6961538,20.3204031 C37.7297364,18.1672667 38.2446684,16.5303117 39.2442667,15.4110823 C39.7666615,14.9431602 40.4229719,14.5505226 41.2190021,14.2262202 C42.0457126,13.8810698 42.8475472,13.7142857 43.6257496,13.7142857 L53.0574636,13.7142857 C57.2175506,13.7474881 59.3324204,15.8658778 59.4,20.0752459 L59.4,33.029969 C59.3680759,34.5240766 58.7407875,35.8209001 57.5243539,36.9057689 C56.3228458,38.0446881 54.8854308,38.6253438 53.2129382,38.6600905 L44.2932541,38.6600905 L44.2932541,48 L37.6961538,48 L37.6961538,20.3204031 L37.6961538,20.3204031 Z" id="Fill-1" fill="#058CCE"></path>
                <path d="M71.7092888,31.2353714 C71.7092888,31.598424 71.8867101,31.8859867 72.2374073,32.1007831 C72.5470655,32.3603288 72.9383872,32.4949657 73.4329283,32.4949657 L78.5006273,32.4949657 C79.6472331,32.4949657 80.2404337,32.0782139 80.2735966,31.2353714 L80.2735966,29.4590204 C80.2735966,28.4901017 79.668789,28.0009728 78.4521267,28.0009728 L73.4329283,28.0009728 C72.7738165,28.0009728 72.3174127,28.1033124 72.0628878,28.2982635 C71.8282606,28.5278467 71.7092888,28.9819544 71.7092888,29.6551389 L71.7092888,31.2353714 L71.7092888,31.2353714 Z M80.2735966,21.4512379 C80.3067594,20.4994406 79.7177042,20.0445547 78.4989692,20.0756846 L65.2118561,20.0756846 L65.2118561,13.7142857 L80.1724499,13.7142857 C84.5292202,13.7800477 86.7411827,15.7575758 86.8153846,19.6581546 L86.8153846,32.9658057 C86.7784909,34.6495452 86.2300602,36.0367722 85.1647034,37.1403278 C84.0500169,38.283185 82.6144797,38.8571429 80.8543611,38.8571429 L71.8112646,38.8571429 C67.410139,38.8221217 65.1795223,36.936816 65.1115385,33.1868282 L65.1115385,28.0523372 C65.1451159,24.1334695 67.2783166,22.1427112 71.4987047,22.0738363 L80.2735966,22.0738363 L80.2735966,21.4512379 L80.2735966,21.4512379 Z" id="Fill-2" fill="#058CCE"></path>
                <path d="M104.626262,41.6876852 C105.152727,41.6579575 105.605828,41.4822937 105.976813,41.1688013 C106.332375,40.876157 106.510364,40.5398863 106.510364,40.159217 L106.510364,38.6600905 L98.0181524,38.6600905 C96.9093672,38.6600905 96.0240063,38.5295974 95.3633204,38.2693833 C94.6663696,38.0319476 93.9694189,37.5898926 93.2708008,36.9625218 C92.607197,36.2977019 92.1299192,35.6016099 91.8414683,34.8750181 C91.5380112,34.2105842 91.3846154,33.3646954 91.3846154,32.3477757 L91.3846154,13.7142857 L98.0181524,13.7142857 L98.0181524,30.3479109 C98.0181524,31.6817976 98.6063088,32.3477757 99.7963772,32.3477757 L104.478285,32.3477757 C105.035179,32.3477757 105.519126,32.1782891 105.923458,31.8331387 C106.316118,31.5416526 106.510364,31.1945718 106.510364,30.7864913 L106.510364,13.7142857 L113.088462,13.7142857 L113.088462,41.203548 C113.052197,43.2373874 112.4878,44.8662349 111.402774,46.1012866 C110.298574,47.3371104 108.79171,47.9683419 106.86926,48 L91.3846154,48 L91.3846154,41.6876852 L104.626262,41.6876852" id="Fill-3" fill="#058CCE"></path>
                <path d="M117.657692,32.4949657 L128.985111,32.4949657 C130.022103,32.4595554 130.559773,32.0552556 130.592129,31.2805098 L130.592129,30.7084975 C130.592129,30.5435089 130.540998,30.3598424 130.442332,30.1617783 C130.189076,29.6815993 129.877899,29.4426772 129.5088,29.4426772 L123.892826,29.4426772 C122.225889,29.4115473 120.80382,28.8515978 119.608244,27.7721679 C118.400284,26.7756214 117.779527,25.5487135 117.744774,24.1085656 L117.744774,19.3647551 C117.810685,15.6637969 119.874282,13.7800477 123.939562,13.7142857 L137.076923,13.7142857 L137.076923,20.0756846 L125.947635,20.0756846 C124.640211,20.0756846 123.983503,20.465976 123.983503,21.2434457 L123.983503,21.8598181 C123.983503,22.6672504 124.65579,23.071161 125.99597,23.071161 L131.593968,23.071161 C133.086741,23.1050148 134.357416,23.661073 135.417576,24.7459507 C136.488123,25.8386108 137.043369,27.1386741 137.076923,28.6476969 L137.076923,33.2891678 C137.043369,34.592344 136.424209,35.8931855 135.233027,37.190914 C134.652216,37.8279099 134.058622,38.2664526 133.464628,38.5135464 C132.849464,38.741573 132.014997,38.8571429 130.947247,38.8571429 L117.657692,38.8571429 L117.657692,32.4949657" id="Fill-4" fill="#058CCE"></path>
                <path d="M148.241197,31.2353714 C148.241197,31.598424 148.418679,31.8859867 148.775717,32.1007831 C149.082579,32.3603288 149.476109,32.4949657 149.9646,32.4949657 L155.04275,32.4949657 C156.18975,32.4949657 156.781081,32.0782139 156.815085,31.2353714 L156.815085,29.4590204 C156.815085,28.4901017 156.202605,28.0009728 154.988427,28.0009728 L149.9646,28.0009728 C149.306091,28.0009728 148.852018,28.1033124 148.599064,28.2982635 C148.364357,28.5278467 148.241197,28.9819544 148.241197,29.6551389 L148.241197,31.2353714 L148.241197,31.2353714 Z M156.815085,21.4512379 C156.843283,20.4994406 156.253611,20.0445547 155.034042,20.0756846 L141.745677,20.0756846 L141.745677,13.7142857 L156.713074,13.7142857 C161.06844,13.7800477 163.281163,15.7575758 163.35,19.6581546 L163.35,32.9658057 C163.314752,34.6495452 162.761572,36.0367722 161.702069,37.1403278 C160.594048,38.283185 159.156359,38.8571429 157.393147,38.8571429 L148.341549,38.8571429 C143.942227,38.8221217 141.707526,36.936816 141.646154,33.1868282 L141.646154,28.0523372 C141.675181,24.1334695 143.806213,22.1427112 148.033858,22.0738363 L156.815085,22.0738363 L156.815085,21.4512379 L156.815085,21.4512379 Z" id="Fill-5" fill="#058CCE"></path>
                <path d="M169.061538,10.2852632 C169.102703,8.57888487 169.786113,7.20891018 171.125631,6.18113916 C172.425245,5.13790131 174.130621,4.60120222 176.240078,4.57142857 L180.484615,4.57142857 L180.484615,10.6785074 L177.915211,10.6785074 C176.502605,10.708281 175.780551,11.3312077 175.751148,12.5322073 L175.751148,13.8712483 L180.484615,13.8712483 L180.484615,20.1987295 L175.751148,20.1987295 L175.751148,38.8571429 L169.061538,38.8571429 L169.061538,10.2852632" id="Fill-6" fill="#058CCE"></path>
                <path d="M198.859601,21.3325551 L198.859601,21.1842988 C198.859601,20.8570456 198.717787,20.5796002 198.431238,20.3725862 C198.122167,20.1721874 197.743439,20.0756846 197.289633,20.0756846 L192.669823,20.0756846 C192.076706,20.0756846 191.598708,20.2301668 191.22874,20.5473029 C190.769512,20.8407024 190.535518,21.2271025 190.535518,21.702612 L190.535518,24.257211 L198.859601,21.3325551 L198.859601,21.3325551 Z M190.641462,30.3248212 L190.641462,30.7205603 C190.641462,31.2303128 190.783276,31.6350017 191.071493,31.9284012 C191.280043,32.3039058 191.561169,32.4949657 191.934892,32.4949657 L205.570755,32.4949657 L205.570755,38.8571429 L191.071493,38.8571429 C189.748449,38.8571429 188.719044,38.741573 187.989534,38.5104334 C187.193706,38.2664526 186.478377,37.8660441 185.854395,37.3111533 C185.124468,36.6368014 184.627701,35.9515541 184.37744,35.2460723 C184.103822,34.5110171 183.967847,33.534705 183.967847,32.3186925 L183.911538,19.5861666 C183.985782,15.7381196 186.139692,13.7800477 190.372432,13.7142857 L199.320498,13.7142857 C203.454385,13.7800477 205.548648,15.8073836 205.615385,19.8021305 L205.615385,24.8323362 L190.641462,30.3248212 L190.641462,30.3248212 Z" id="Fill-7" fill="#058CCE"></path>
                <path d="M219.029923,38.8571429 C218.03963,38.8571429 217.135628,38.7724777 216.316273,38.6147452 C215.457061,38.4833016 214.600724,38.1079139 213.725075,37.476211 C212.827648,36.7401263 212.207996,35.9162837 211.867762,35.0046831 C211.508216,34.1097063 211.33399,33.0956569 211.33399,31.9536433 L211.33399,20.158119 C211.29783,19.1966471 211.400558,18.351155 211.639296,17.6200961 C211.859955,16.8874909 212.321407,16.1730558 213.019543,15.4717651 C213.815475,14.7356805 214.627023,14.2466326 215.485824,14.0065546 C216.31011,13.8117087 217.239999,13.7142857 218.282066,13.7142857 L228.303338,13.7142857 L228.303338,15.1914808 L218.51382,15.1914808 C216.785943,15.1914808 215.427064,15.525889 214.433484,16.1947054 C213.416893,16.9253776 212.899968,18.1825978 212.899968,19.9555411 L212.899968,31.7587973 C212.899968,32.5892121 213.033925,33.396431 213.30266,34.1758147 C213.577148,34.9424407 214.033258,35.6143499 214.691125,36.2012072 C215.40241,36.7103582 216.113284,37.0277561 216.804434,37.1572667 C217.526814,37.3068806 218.298914,37.3772416 219.119912,37.3772416 L228.461538,37.3772416 L228.461538,38.8571429 L219.029923,38.8571429" id="Fill-8" fill="#058CCE"></path>
                <path d="M253.146706,23.55311 L239.784415,23.55311 C238.18313,23.5875156 236.932022,24.0452252 236.027747,24.9266255 C235.093803,25.820783 234.632054,27.0497179 234.632054,28.6087913 L234.632054,32.3736851 C234.632054,33.1035464 234.714375,33.7707819 234.883613,34.3719124 C235.051598,35.0035826 235.471141,35.5683746 236.133886,36.053918 C237.288466,36.9387975 238.566736,37.3760184 239.963264,37.3760184 L248.059533,37.3760184 C251.442206,37.3435458 253.146706,35.6940128 253.146706,32.4204611 L253.146706,23.55311 L253.146706,23.55311 Z M254.733783,32.0524378 C254.733783,33.0014895 254.655641,33.8361137 254.523594,34.5686811 C254.307972,35.3669669 253.865446,36.1354862 253.194761,36.8657341 C251.799069,38.226879 250.067825,38.8906353 248.004792,38.8558432 L240.058539,38.8558432 C237.995506,38.8558432 236.321511,38.285639 235.025272,37.1502563 C233.701454,36.0276306 233.030769,34.467784 233.030769,32.4668506 L233.030769,28.6656185 C233.097629,24.374204 235.408043,22.1784348 239.959086,22.0783108 L253.194761,22.0783108 L253.194761,20.4133147 C253.194761,19.043665 252.766024,17.8421772 251.911894,16.8096245 C251.369914,16.1385232 250.728899,15.6912512 250.000966,15.4589171 C249.265094,15.2818639 248.438961,15.1914044 247.517553,15.1914044 L233.078825,15.1914044 L233.078825,13.7142857 L246.767473,13.7142857 C248.018582,13.7142857 249.150597,13.7954673 250.173965,13.9558976 C250.702155,14.0525424 251.181036,14.2423527 251.624398,14.5164373 C252.091161,14.7785379 252.528673,15.1604781 252.934427,15.6614846 C254.161717,17.1266193 254.760109,18.8155833 254.733783,20.7198719 L254.733783,32.0524378 L254.733783,32.0524378 Z" id="Fill-9" fill="#058CCE"></path>
                <path d="M269.831726,15.1914808 C266.101907,15.2564294 264.264957,17.1267957 264.334752,20.8091519 L264.334752,38.8571429 L262.732414,38.8571429 L262.732414,20.8153374 C262.657994,16.0787256 265.109222,13.7142857 270.089042,13.7142857 L271.869231,13.7142857 L271.869231,15.1914808 L269.831726,15.1914808" id="Fill-10" fill="#058CCE"></path>
                <path d="M295.429958,15.2998883 L283.006468,15.2998883 C282.112009,15.2998883 281.30947,15.393382 280.586484,15.5703659 C279.829698,15.7296514 279.099292,16.1582603 278.415052,16.8558078 C277.759666,17.4914109 277.348298,18.120858 277.173528,18.7506899 C276.943524,19.386293 276.840476,20.1480933 276.877573,21.0368603 L276.877573,32.4892585 C276.877573,34.3933746 277.468246,35.6884351 278.666078,36.3848283 C279.257162,36.7072468 279.905129,36.9488684 280.633886,37.1116166 C281.359345,37.2912938 282.166007,37.3805552 283.057992,37.3805552 L288.488632,37.3805552 C290.51662,37.3805552 292.176932,36.9450209 293.451845,36.065103 C294.734589,35.2405889 295.386678,33.8166379 295.429958,31.7886331 L295.429958,15.2998883 L295.429958,15.2998883 Z M297,31.8894369 C296.859854,36.6291431 294.17277,38.9526341 288.937922,38.8541387 L283.11405,38.8541387 C281.884067,38.8541387 280.783512,38.7541043 279.811974,38.5625 C278.81117,38.3212632 277.852409,37.7510672 276.930334,36.8630696 C276.236614,36.065103 275.790621,35.258672 275.611729,34.4314646 C275.371833,33.6073351 275.266312,32.6889425 275.303409,31.6862902 L275.303409,20.9991551 C275.371833,16.1851926 277.96906,13.7920623 283.102096,13.8286134 L295.429958,13.8286134 L295.429958,5.71428571 L297,5.71428571 L297,31.8894369 L297,31.8894369 Z" id="Fill-11" fill="#058CCE"></path>
                <path d="M2.07079732,12.4896248 C2.57509654,12.2780402 3.07979952,12.1136022 3.58369498,12.0101097 C4.51113719,7.80678211 8.43328502,4.65256156 13.1355018,4.65256156 C17.8397374,4.65256156 21.763904,7.81099847 22.6897312,12.014326 C24.1339892,12.2730572 25.3279146,12.8288501 26.2581831,13.6533401 C26.295733,12.8460989 26.261817,12.0683721 26.1616839,11.336642 C25.5649231,4.98488738 19.9550485,0 13.1157174,0 C6.0728901,0 0.340271724,5.29919785 0.0422950825,11.9234826 C0.00111131895,12.4953744 -0.0110015527,13.0906477 0.0103978539,13.7142857 C0.601505989,13.2409035 1.27619294,12.8158177 2.07079732,12.4896248" id="Fill-12" fill="#E2001A"></path>
                <path d="M21.2874895,13.7142857 L5.72713578,13.7142857 C4.9776637,13.7142857 4.20216827,13.8823873 3.40305167,14.2302641 C2.63316127,14.5571283 1.99979331,14.9528674 1.49454022,15.4244856 C0.528073547,16.5525561 0.0340305167,18.2024418 0,20.3725862 L0,32.1953402 C0.0340305167,34.3709324 0.528073547,36.0177051 1.49454022,37.1403278 C1.99979331,37.6205068 2.63316127,38.0150786 3.40305167,38.3446666 C4.20216827,38.6859283 4.9776637,38.8571429 5.72713578,38.8571429 L21.2874895,38.8571429 C25.3058929,38.8221217 27.3509268,36.6799942 27.4153846,32.4436013 L27.4153846,20.1254925 C27.3509268,15.8828737 25.3058929,13.7477504 21.2874895,13.7142857" id="Fill-13" fill="#E2001A"></path>
            </g>
        </g>
    </g>
</svg>