<svg width="924" height="256" viewBox="0 0 924 256" xmlns="http://www.w3.org/2000/svg"><path d="M15 240a1 1 0 011 1v14a1 1 0 01-1 1H1a1 1 0 01-1-1v-14a1 1 0 011-1h14zm340 0a3 3 0 013 3v10a3 3 0 01-3 3H210a3 3 0 01-3-3v-10a3 3 0 013-3h145zm168 0a3 3 0 013 3v10a3 3 0 01-3 3h-32a3 3 0 01-3-3v-10a3 3 0 013-3h32zm239 0a3 3 0 013 3v10a3 3 0 01-3 3h-82a3 3 0 01-3-3v-10a3 3 0 013-3h82zm159 0a3 3 0 013 3v10a3 3 0 01-3 3h-45a3 3 0 01-3-3v-10a3 3 0 013-3h45zM15 192a1 1 0 011 1v14a1 1 0 01-1 1H1a1 1 0 01-1-1v-14a1 1 0 011-1h14zm358 0a3 3 0 013 3v10a3 3 0 01-3 3H210a3 3 0 01-3-3v-10a3 3 0 013-3h163zm154 0a3 3 0 013 3v10a3 3 0 01-3 3h-36a3 3 0 01-3-3v-10a3 3 0 013-3h36zm243 0a3 3 0 013 3v10a3 3 0 01-3 3h-90a3 3 0 01-3-3v-10a3 3 0 013-3h90zm151 0a3 3 0 013 3v10a3 3 0 01-3 3h-50a3 3 0 01-3-3v-10a3 3 0 013-3h50zM15 144a1 1 0 011 1v14a1 1 0 01-1 1H1a1 1 0 01-1-1v-14a1 1 0 011-1h14zm376 0a3 3 0 013 3v10a3 3 0 01-3 3H210a3 3 0 01-3-3v-10a3 3 0 013-3h181zm139 0a3 3 0 013 3v10a3 3 0 01-3 3h-39a3 3 0 01-3-3v-10a3 3 0 013-3h39zm248 0a3 3 0 013 3v10a3 3 0 01-3 3h-98a3 3 0 01-3-3v-10a3 3 0 013-3h98zm143 0a3 3 0 013 3v10a3 3 0 01-3 3h-54a3 3 0 01-3-3v-10a3 3 0 013-3h54zM15 96a1 1 0 011 1v14a1 1 0 01-1 1H1a1 1 0 01-1-1V97a1 1 0 011-1h14zm358 0a3 3 0 013 3v10a3 3 0 01-3 3H210a3 3 0 01-3-3V99a3 3 0 013-3h163zm161 0a3 3 0 013 3v10a3 3 0 01-3 3h-43a3 3 0 01-3-3V99a3 3 0 013-3h43zm252 0a3 3 0 013 3v10a3 3 0 01-3 3H680a3 3 0 01-3-3V99a3 3 0 013-3h106zm135 0a3 3 0 013 3v10a3 3 0 01-3 3h-59a3 3 0 01-3-3V99a3 3 0 013-3h59zM15 48a1 1 0 011 1v14a1 1 0 01-1 1H1a1 1 0 01-1-1V49a1 1 0 011-1h14zm358 0a3 3 0 013 3v10a3 3 0 01-3 3H210a3 3 0 01-3-3V51a3 3 0 013-3h163zm164 0a3 3 0 013 3v10a3 3 0 01-3 3h-46a3 3 0 01-3-3V51a3 3 0 013-3h46zm257 0a3 3 0 013 3v10a3 3 0 01-3 3H680a3 3 0 01-3-3V51a3 3 0 013-3h114zm127 0a3 3 0 013 3v10a3 3 0 01-3 3h-63a3 3 0 01-3-3V51a3 3 0 013-3h63zM15 0a1 1 0 011 1v14a1 1 0 01-1 1H1a1 1 0 01-1-1V1a1 1 0 011-1h14zm340 0a3 3 0 013 3v10a3 3 0 01-3 3H210a3 3 0 01-3-3V3a3 3 0 013-3h145zm188 0a3 3 0 013 3v10a3 3 0 01-3 3h-52a3 3 0 01-3-3V3a3 3 0 013-3h52zm264 0a3 3 0 013 3v10a3 3 0 01-3 3H680a3 3 0 01-3-3V3a3 3 0 013-3h127zm114 0a3 3 0 013 3v10a3 3 0 01-3 3h-71a3 3 0 01-3-3V3a3 3 0 013-3h71z" fill="#354055" fill-rule="evenodd" opacity=".4"/></svg>